<?xml version="1.0" encoding="UTF-8"?>
<!DOCTYPE svg PUBLIC "-//W3C//DTD SVG 1.1//EN" "http://www.w3.org/Graphics/SVG/1.1/DTD/svg11.dtd">
<!-- Creator: CorelDRAW 2019 (64-Bit) -->
<svg xmlns="http://www.w3.org/2000/svg" xml:space="preserve" width="15.748in" height="11in" version="1.1" style="shape-rendering:geometricPrecision; text-rendering:geometricPrecision; image-rendering:optimizeQuality; fill-rule:evenodd; clip-rule:evenodd"
viewBox="0 0 15748.03 11000"
 xmlns:xlink="http://www.w3.org/1999/xlink"
 xmlns:xodm="http://www.corel.com/coreldraw/odm/2003">
 <defs>
  <style type="text/css">
   <![CDATA[
    .str2 {stroke:#373435;stroke-width:6.94;stroke-miterlimit:2.61313}
    .str0 {stroke:#4C4C99;stroke-width:7.09;stroke-linejoin:bevel;stroke-miterlimit:2.61313}
    .str1 {stroke:black;stroke-width:9.84;stroke-linejoin:bevel;stroke-miterlimit:2.61313}
    .fil0 {fill:none}
   ]]>
  </style>
 </defs>
 <g id="Layer_x0020_1">
  <metadata id="CorelCorpID_0Corel-Layer"/>
  <g id="_2302268738752">
   <g>
    <path class="fil0 str0" d="M1874.28 5080.04c0,0 -217.7,230.24 -217.7,230.24"/>
    <path class="fil0 str0" d="M1614.55 4771.52c0,0 -100.44,105.35 -128.26,134.52"/>
    <path class="fil0 str0" d="M1724.63 4839.76c0,0 -106.46,108.68 -106.46,108.68 0,0 -85.63,92.59 -85.63,92.59"/>
    <path class="fil0 str0" d="M1780.65 4988.73c0,0 -184.22,183.75 -184.22,183.75"/>
    <path class="fil0 str0" d="M1880.39 4492.7c-40.91,42.91 -163.93,171.93 -163.93,171.93"/>
    <path class="fil0 str0" d="M1832.13 4631.52c0,0 -212.89,223.33 -212.89,223.33"/>
    <path class="fil0 str0" d="M1970.2 4596.2c0,0 -160.18,173.19 -160.18,173.19"/>
    <path class="fil0 str0" d="M1926.41 4740.02c0,0 -248.14,260.31 -248.14,260.31"/>
    <path class="fil0 str0" d="M2065.9 4704.18c0,0 -159.98,159.58 -159.98,159.58"/>
    <path class="fil0 str0" d="M2009 4852.65c0,0 -257.82,270.46 -257.82,270.46"/>
    <path class="fil0 str0" d="M2153.92 4791.51c0,0 -173.11,183.09 -173.11,183.09"/>
    <path class="fil0 str0" d="M1761.32 4526.21c0,0 -214.93,225.48 -214.93,225.48"/>
    <path class="fil0 str0" d="M1543.63 4662.31c0,0 -74.9,78.54 -101.91,106.87"/>
    <path class="fil0 str0" d="M1806.9 4386.19c-37.53,39.36 -139.05,145.84 -139.05,145.84"/>
   </g>
   <g>
    <path class="fil0 str0" d="M1874.28 5080.04c0,0 -217.7,230.24 -217.7,230.24"/>
    <path class="fil0 str0" d="M1614.54 4771.52c0,0 -100.44,105.35 -128.26,134.52"/>
    <path class="fil0 str0" d="M1724.63 4839.76c0,0 -106.46,108.68 -106.46,108.68 0,0 -85.63,92.59 -85.63,92.59"/>
    <path class="fil0 str0" d="M1780.65 4988.73c0,0 -184.22,183.75 -184.22,183.75"/>
    <path class="fil0 str0" d="M1880.39 4492.7c-40.91,42.91 -163.92,171.93 -163.92,171.93"/>
    <path class="fil0 str0" d="M1832.13 4631.52c0,0 -212.89,223.33 -212.89,223.33"/>
    <path class="fil0 str0" d="M1970.2 4596.2c0,0 -160.18,173.19 -160.18,173.19"/>
    <path class="fil0 str0" d="M1926.41 4740.02c0,0 -248.14,260.31 -248.14,260.31"/>
    <path class="fil0 str0" d="M2065.9 4704.18c0,0 -159.98,159.58 -159.98,159.58"/>
    <path class="fil0 str0" d="M2009 4852.65c0,0 -257.82,270.46 -257.82,270.46"/>
    <path class="fil0 str0" d="M2153.92 4791.51c0,0 -173.11,183.09 -173.11,183.09"/>
    <path class="fil0 str0" d="M1761.32 4526.21c0,0 -214.93,225.48 -214.93,225.48"/>
    <path class="fil0 str0" d="M1543.62 4662.31c0,0 -74.89,78.54 -101.9,106.87"/>
    <path class="fil0 str0" d="M1806.9 4386.19c-37.54,39.37 -139.05,145.84 -139.05,145.84"/>
   </g>
  </g>
  <g id="_2302268732832">
   <path class="fil0 str0" d="M6912.26 5044.6c0,0 226.27,239.3 226.27,239.3"/>
   <path class="fil0 str0" d="M7171.99 4736.08c0,0 135.33,141.94 135.33,141.94"/>
   <path class="fil0 str0" d="M7061.91 4804.33c0,0 108.23,110.49 108.23,110.49 0,0 87.06,94.13 87.06,94.13"/>
   <path class="fil0 str0" d="M7005.88 4953.3c0,0 196.14,195.65 196.14,195.65"/>
   <path class="fil0 str0" d="M6893.08 4443.57c0,0 176.98,185.62 176.98,185.62"/>
   <path class="fil0 str0" d="M6954.4 4596.09c0,0 212.89,223.33 212.89,223.33"/>
   <path class="fil0 str0" d="M6816.33 4560.77c0,0 160.18,173.19 160.18,173.19"/>
   <path class="fil0 str0" d="M6860.13 4704.59c0,0 248.14,260.31 248.14,260.31"/>
   <path class="fil0 str0" d="M6720.63 4668.74c0,0 159.98,159.58 159.98,159.58"/>
   <path class="fil0 str0" d="M6777.53 4817.22c0,0 257.82,270.46 257.82,270.46"/>
   <path class="fil0 str0" d="M6632.61 4756.08c0,0 173.11,183.09 173.11,183.09"/>
   <path class="fil0 str0" d="M7025.21 4490.78c0,0 214.93,225.48 214.93,225.48"/>
   <path class="fil0 str0" d="M7242.91 4626.88c0,0 111.47,116.91 111.47,116.91"/>
   <path class="fil0 str0" d="M6965.89 4336.35c0,0 152.79,160.25 152.79,160.25"/>
  </g>
  <g id="_2302272078480">
   <g>
    <path class="fil0 str1" d="M6708.98 5204.82c0,-54.36 -44.07,-98.42 -98.43,-98.42 -54.36,-0 -98.43,44.06 -98.43,98.42 0,54.36 44.07,98.43 98.43,98.43 54.36,0 98.43,-44.06 98.43,-98.42z"/>
    <path class="fil0 str1" d="M5740.44 5797.06c0,-54.36 -44.07,-98.43 -98.43,-98.43 -54.36,0 -98.43,44.07 -98.43,98.43 0,54.36 44.07,98.42 98.43,98.43 54.36,0 98.43,-44.07 98.43,-98.43z"/>
    <path class="fil0 str1" d="M4490.63 5930.66c0,-54.36 -44.07,-98.42 -98.43,-98.42 -54.36,-0 -98.43,44.06 -98.43,98.42 0,54.36 44.07,98.43 98.43,98.43 54.36,0 98.43,-44.07 98.43,-98.43z"/>
    <path class="fil0 str1" d="M3181.2 5745.29c0,-54.36 -44.07,-98.43 -98.43,-98.43 -54.36,0 -98.43,44.07 -98.43,98.43 0,54.36 44.06,98.43 98.43,98.43 54.36,0 98.43,-44.07 98.43,-98.43z"/>
    <path class="fil0 str1" d="M2153.42 5175.84c0,-54.36 -44.06,-98.43 -98.43,-98.43 -54.36,0 -98.43,44.07 -98.43,98.43 0,54.36 44.07,98.43 98.43,98.43 54.36,0 98.43,-44.07 98.43,-98.43z"/>
    <line class="fil0 str1" x1="1117.98" y1="1889.5" x2="1117.98" y2= "1692.65" />
    <path class="fil0 str1" d="M1117.98 1889.5c0,33.73 27.35,61.07 61.08,61.08 33.73,0 61.08,-27.35 61.08,-61.08"/>
    <line class="fil0 str1" x1="1240.14" y1="1889.5" x2="1240.14" y2= "1692.65" />
    <path class="fil0 str1" d="M1240.14 1692.65c0,-21.82 -11.64,-41.99 -30.54,-52.9 -18.9,-10.91 -42.18,-10.91 -61.08,0 -18.9,10.91 -30.54,31.07 -30.54,52.9"/>
    <path class="fil0 str1" d="M7500.51 1889.5c0,33.73 27.35,61.07 61.08,61.08 33.73,0 61.08,-27.35 61.08,-61.08"/>
    <line class="fil0 str1" x1="7622.67" y1="1889.5" x2="7622.67" y2= "1692.65" />
    <path class="fil0 str1" d="M7622.67 1692.65c0,-21.82 -11.64,-41.99 -30.54,-52.9 -18.9,-10.91 -42.18,-10.91 -61.08,0 -18.9,10.91 -30.54,31.07 -30.54,52.9"/>
    <line class="fil0 str1" x1="7500.51" y1="1889.5" x2="7500.51" y2= "1692.65" />
    <path class="fil0 str1" d="M1000.3 2656.79c0,49.56 30.94,93.85 77.48,110.9"/>
    <line class="fil0 str1" x1="1000.3" y1="2646.54" x2="1000.3" y2= "2656.79" />
    <line class="fil0 str1" x1="1000.3" y1="2646.54" x2="985.54" y2= "1505.42" />
    <path class="fil0 str1" d="M1064.27 1425.66c-21.06,0 -41.24,8.43 -56.04,23.42 -14.8,14.99 -22.97,35.28 -22.7,56.33"/>
    <line class="fil0 str1" x1="1064.27" y1="1425.66" x2="1209.12" y2= "1425.66" />
    <path class="fil0 str1" d="M1209.12 1425.66c80.36,57.44 137.3,132.45 170.84,225.04"/>
    <path class="fil0 str1" d="M1405.67 2646.55c-3.87,-256.98 14.29,-696.77 -25.7,-995.85"/>
    <path class="fil0 str1" d="M1405.67 2646.55c26.48,412.8 31.13,841.42 160.37,1237.62 105.74,324.14 294.86,626.57 537.83,868.77 205.22,204.56 448.85,366.15 707.73,493.87 482.99,238.28 1019.09,358.72 1558.72,360.83"/>
    <path class="fil0 str1" d="M7334.98 2646.55c-28.03,472.59 -41.43,973.53 -225.11,1414.15 -134.8,323.37 -361.31,614.26 -634.11,839.74 -281.69,232.83 -612.74,395.93 -957.07,514.45 -370.48,127.52 -756.34,203.43 -1148.37,192.74"/>
    <path class="fil0 str1" d="M7334.98 2646.55c3.87,-256.98 -14.29,-696.77 25.7,-995.85"/>
    <path class="fil0 str1" d="M7531.52 1425.66c-80.35,57.44 -137.3,132.45 -170.84,225.04"/>
    <line class="fil0 str1" x1="7676.38" y1="1425.66" x2="7531.52" y2= "1425.66" />
    <path class="fil0 str1" d="M7755.11 1505.42c0.27,-21.06 -7.9,-41.35 -22.7,-56.33 -14.8,-14.99 -34.98,-23.42 -56.04,-23.42"/>
    <line class="fil0 str1" x1="7740.34" y1="2646.54" x2="7755.11" y2= "1505.42" />
    <line class="fil0 str1" x1="7740.34" y1="2646.54" x2="7740.34" y2= "2656.79" />
    <path class="fil0 str1" d="M7680.06 2759.77c37.23,-20.91 60.28,-60.28 60.28,-102.98"/>
    <path class="fil0 str1" d="M7680.06 2759.77c-60.63,34.05 -98.8,97.56 -100.41,167.08"/>
    <path class="fil0 str1" d="M7576.74 3037.19c1.09,-36.81 2.06,-73.59 2.91,-110.33"/>
    <line class="fil0 str1" x1="7678.79" y1="3011.5" x2="7576.74" y2= "3037.19" />
    <path class="fil0 str1" d="M7700.69 3012.28c-7.08,-2.32 -14.67,-2.59 -21.9,-0.78"/>
    <line class="fil0 str1" x1="7727.78" y1="3021.18" x2="7700.69" y2= "3012.28" />
    <path class="fil0 str1" d="M7754.84 3060.11c0.68,-17.56 -10.36,-33.44 -27.06,-38.93"/>
    <line class="fil0 str1" x1="7750.23" y1="3178.82" x2="7754.84" y2= "3060.11" />
    <path class="fil0 str1" d="M7720.31 3215.52c17.04,-4.2 29.24,-19.17 29.92,-36.7"/>
    <line class="fil0 str1" x1="7692.57" y1="3222.35" x2="7720.31" y2= "3215.52" />
    <path class="fil0 str1" d="M7670.61 3221.44c7.08,2.38 14.7,2.7 21.96,0.91"/>
    <line class="fil0 str1" x1="7571.48" y1="3188.13" x2="7670.61" y2= "3221.44" />
    <path class="fil0 str1" d="M7525.8 3822.78c23.28,-210.92 37.13,-423.05 45.69,-634.66"/>
    <line class="fil0 str1" x1="7629.91" y1="3805.94" x2="7525.8" y2= "3822.78" />
    <path class="fil0 str1" d="M7651.65 3808.59c-6.85,-2.93 -14.39,-3.85 -21.75,-2.66"/>
    <line class="fil0 str1" x1="7677.89" y1="3819.79" x2="7651.65" y2= "3808.59" />
    <path class="fil0 str1" d="M7701.49 3860.91c2.19,-17.44 -7.44,-34.21 -23.6,-41.11"/>
    <line class="fil0 str1" x1="7686.69" y1="3978.78" x2="7701.49" y2= "3860.91" />
    <path class="fil0 str1" d="M7653.72 4012.77c17.34,-2.72 30.78,-16.58 32.97,-33.99"/>
    <line class="fil0 str1" x1="7625.49" y1="4017.19" x2="7653.72" y2= "4012.77" />
    <path class="fil0 str1" d="M7603.69 4014.4c6.86,2.98 14.42,3.95 21.8,2.8"/>
    <line class="fil0 str1" x1="7507.59" y1="3972.59" x2="7603.69" y2= "4014.4" />
    <path class="fil0 str1" d="M7388.1 4597.44c53.03,-205.5 91.48,-414.36 119.5,-624.85"/>
    <line class="fil0 str1" x1="7493.79" y1="4596.2" x2="7388.1" y2= "4597.44" />
    <path class="fil0 str1" d="M7514.91 4602.05c-6.34,-3.91 -13.67,-5.94 -21.11,-5.85"/>
    <line class="fil0 str1" x1="7539.19" y1="4617.01" x2="7514.91" y2= "4602.05" />
    <path class="fil0 str1" d="M7556.44 4661.17c4.75,-16.92 -2.29,-34.94 -17.25,-44.16"/>
    <line class="fil0 str1" x1="7524.34" y1="4775.54" x2="7556.44" y2= "4661.17" />
    <path class="fil0 str1" d="M7486.7 4804.27c17.55,-0.12 32.9,-11.83 37.64,-28.73"/>
    <line class="fil0 str1" x1="7458.13" y1="4804.46" x2="7486.7" y2= "4804.27" />
    <path class="fil0 str1" d="M7436.98 4798.47c6.34,3.96 13.67,6.04 21.15,5.99"/>
    <line class="fil0 str1" x1="7347.94" y1="4742.76" x2="7436.98" y2= "4798.47" />
    <path class="fil0 str1" d="M7117.35 5335.35c70.7,-140.11 130.16,-286.37 180.6,-434.91 17.76,-52.29 34.39,-104.86 49.98,-157.69"/>
    <line class="fil0 str1" x1="7221.05" y1="5357.76" x2="7117.35" y2= "5335.35" />
    <path class="fil0 str1" d="M7240.33 5368.16c-5.31,-5.22 -12,-8.83 -19.28,-10.41"/>
    <line class="fil0 str1" x1="7260.67" y1="5388.15" x2="7240.33" y2= "5368.16" />
    <path class="fil0 str1" d="M7267.66 5435.04c8.39,-15.44 5.54,-34.57 -6.99,-46.89"/>
    <line class="fil0 str1" x1="7210.9" y1="5539.4" x2="7267.66" y2= "5435.04" />
    <path class="fil0 str1" d="M7167.8 5559.03c17.13,3.79 34.71,-4.21 43.09,-19.63"/>
    <line class="fil0 str1" x1="7139.91" y1="5552.86" x2="7167.8" y2= "5559.03" />
    <path class="fil0 str1" d="M7120.63 5542.31c5.3,5.28 11.98,8.94 19.28,10.55"/>
    <line class="fil0 str1" x1="7045.94" y1="5467.88" x2="7120.63" y2= "5542.31" />
    <path class="fil0 str1" d="M6657.83 5970.18c61.63,-59.63 119.72,-122.75 173.72,-189 80.08,-98.25 151.15,-203.36 214.39,-313.3"/>
    <line class="fil0 str1" x1="6748.25" y1="6026.18" x2="6657.83" y2= "5970.18" />
    <path class="fil0 str1" d="M6762.93 6042.44c-3.26,-6.7 -8.35,-12.34 -14.68,-16.26"/>
    <line class="fil0 str1" x1="6775.4" y1="6068.09" x2="6762.93" y2= "6042.44" />
    <path class="fil0 str1" d="M6766.27 6114.61c13.08,-11.73 16.81,-30.72 9.13,-46.52"/>
    <line class="fil0 str1" x1="6677.82" y1="6193.92" x2="6766.27" y2= "6114.61" />
    <path class="fil0 str1" d="M6630.65 6197.98c14.87,9.31 34.11,7.66 47.18,-4.06"/>
    <line class="fil0 str1" x1="6606.43" y1="6182.81" x2="6630.65" y2= "6197.98" />
    <path class="fil0 str1" d="M6591.8 6166.41c3.22,6.75 8.3,12.44 14.63,16.41"/>
    <line class="fil0 str1" x1="6546.27" y1="6071.07" x2="6591.8" y2= "6166.41" />
    <path class="fil0 str1" d="M6008.71 6408.77c36.29,-16.23 72.18,-33.39 107.62,-51.51 153.28,-78.37 298.1,-174.78 429.94,-286.2"/>
    <line class="fil0 str1" x1="6074.72" y1="6492.04" x2="6008.71" y2= "6408.77" />
    <path class="fil0 str1" d="M6083.02 6512.31c-0.79,-7.41 -3.67,-14.44 -8.3,-20.28"/>
    <line class="fil0 str1" x1="6086.04" y1="6540.67" x2="6083.02" y2= "6512.31" />
    <path class="fil0 str1" d="M6061.68 6581.34c16.29,-6.6 26.23,-23.19 24.36,-40.67"/>
    <line class="fil0 str1" x1="5951.57" y1="6625.95" x2="6061.68" y2= "6581.34" />
    <path class="fil0 str1" d="M5905.82 6613.77c10.83,13.81 29.49,18.78 45.76,12.19"/>
    <line class="fil0 str1" x1="5888.18" y1="6591.29" x2="5905.82" y2= "6613.77" />
    <path class="fil0 str1" d="M5879.98 6570.9c0.74,7.44 3.59,14.51 8.2,20.39"/>
    <line class="fil0 str1" x1="5869.5" y1="6465.88" x2="5879.98" y2= "6570.9" />
    <path class="fil0 str1" d="M5252.95 6620.18c52.94,-7.68 105.72,-16.52 158.33,-26.7 155.52,-30.08 309.46,-71.81 458.21,-127.6"/>
    <line class="fil0 str1" x1="5294.67" y1="6717.41" x2="5252.95" y2= "6620.18" />
    <path class="fil0 str1" d="M5297.36 6739.16c1.18,-7.36 0.24,-14.9 -2.69,-21.74"/>
    <line class="fil0 str1" x1="5292.86" y1="6767.32" x2="5297.36" y2= "6739.16" />
    <path class="fil0 str1" d="M5258.69 6800.19c17.44,-2.1 31.39,-15.51 34.17,-32.87"/>
    <line class="fil0 str1" x1="5140.75" y1="6814.4" x2="5258.69" y2= "6800.19" />
    <path class="fil0 str1" d="M5099.78 6790.65c6.84,16.16 23.55,25.85 40.97,23.75"/>
    <line class="fil0 str1" x1="5088.65" y1="6764.34" x2="5099.78" y2= "6790.65" />
    <path class="fil0 str1" d="M5086.07 6742.52c-1.23,7.37 -0.34,14.94 2.57,21.83"/>
    <line class="fil0 str1" x1="5103.39" y1="6638.87" x2="5086.07" y2= "6742.52" />
    <path class="fil0 str1" d="M4467.85 6668.65c212.81,-1.02 425.19,-7.51 635.54,-29.78"/>
    <line class="fil0 str1" x1="4497" y1="6769.76" x2="4467.85" y2= "6668.65" />
    <path class="fil0 str1" d="M4496.97 6791.67c2.08,-7.16 2.09,-14.75 0.03,-21.91"/>
    <line class="fil0 str1" x1="4489" y1="6819.06" x2="4496.97" y2= "6791.67" />
    <path class="fil0 str1" d="M4451.02 6847.42c17.57,0.08 33.07,-11.49 37.98,-28.37"/>
    <line class="fil0 str1" x1="4332.22" y1="6846.87" x2="4451.02" y2= "6847.42" />
    <path class="fil0 str1" d="M4294.52 6818.22c4.78,16.89 20.15,28.57 37.7,28.65"/>
    <line class="fil0 str1" x1="4286.74" y1="6790.73" x2="4294.52" y2= "6818.22" />
    <path class="fil0 str1" d="M4286.9 6768.75c-2.14,7.16 -2.19,14.78 -0.16,21.98"/>
    <line class="fil0 str1" x1="4316.81" y1="6668.56" x2="4286.9" y2= "6768.75" />
    <path class="fil0 str1" d="M3681.3 6638.21c210.37,22.36 422.94,29.08 635.52,30.35"/>
    <line class="fil0 str1" x1="3697.82" y1="6742.67" x2="3681.3" y2= "6638.21" />
    <path class="fil0 str1" d="M3695.09 6764.41c2.95,-6.84 3.9,-14.38 2.73,-21.74"/>
    <line class="fil0 str1" x1="3683.8" y1="6790.6" x2="3695.09" y2= "6764.41" />
    <path class="fil0 str1" d="M3642.6 6814.06c17.43,2.25 34.24,-7.32 41.2,-23.46"/>
    <line class="fil0 str1" x1="3524.78" y1="6798.85" x2="3642.6" y2= "6814.06" />
    <path class="fil0 str1" d="M3490.91 6765.76c2.65,17.35 16.47,30.84 33.87,33.09"/>
    <line class="fil0 str1" x1="3486.59" y1="6737.52" x2="3490.91" y2= "6765.76" />
    <path class="fil0 str1" d="M3489.46 6715.72c-3.01,6.84 -4,14.4 -2.87,21.79"/>
    <line class="fil0 str1" x1="3531.74" y1="6619.48" x2="3489.46" y2= "6715.72" />
    <path class="fil0 str1" d="M2915.35 6464.7c83.05,31.2 167.61,58.17 252.85,81 119.96,32.12 241.29,56.04 363.54,73.79"/>
    <line class="fil0 str1" x1="2904" y1="6570.27" x2="2915.35" y2= "6464.7" />
    <path class="fil0 str1" d="M2895.69 6590.54c4.63,-5.83 7.52,-12.87 8.31,-20.27"/>
    <line class="fil0 str1" x1="2877.95" y1="6612.87" x2="2895.69" y2= "6590.54" />
    <path class="fil0 str1" d="M2832.06 6624.77c16.24,6.72 34.96,1.87 45.89,-11.89"/>
    <line class="fil0 str1" x1="2722.3" y1="6579.33" x2="2832.06" y2= "6624.77" />
    <path class="fil0 str1" d="M2698.23 6538.55c-1.96,17.44 7.85,34.07 24.06,40.78"/>
    <line class="fil0 str1" x1="2701.43" y1="6510.16" x2="2698.23" y2= "6538.55" />
    <path class="fil0 str1" d="M2709.89 6489.87c-4.69,5.82 -7.62,12.86 -8.46,20.29"/>
    <line class="fil0 str1" x1="2776.06" y1="6407.7" x2="2709.89" y2= "6489.87" />
    <path class="fil0 str1" d="M2236.88 6072.71c1.23,1.05 2.46,2.09 3.69,3.13 159.97,135.77 342.15,245.98 535.49,331.85"/>
    <line class="fil0 str1" x1="2189.32" y1="6168.02" x2="2236.88" y2= "6072.71" />
    <path class="fil0 str1" d="M2174.46 6184.12c6.37,-3.85 11.53,-9.44 14.85,-16.11"/>
    <line class="fil0 str1" x1="2150.06" y1="6198.88" x2="2174.46" y2= "6184.12" />
    <path class="fil0 str1" d="M2102.9 6194.04c12.88,11.96 32.12,13.93 47.16,4.84"/>
    <line class="fil0 str1" x1="2015.84" y1="6113.21" x2="2102.9" y2= "6194.04" />
    <path class="fil0 str1" d="M2007.49 6066.6c-7.91,15.66 -4.51,34.67 8.35,46.61"/>
    <line class="fil0 str1" x1="2020.37" y1="6041.11" x2="2007.49" y2= "6066.6" />
    <path class="fil0 str1" d="M2035.37 6025.04c-6.42,3.82 -11.62,9.4 -15,16.07"/>
    <line class="fil0 str1" x1="2126.27" y1="5970.92" x2="2035.37" y2= "6025.04" />
    <path class="fil0 str1" d="M1741.03 5466.01c107.3,184.39 235.21,356.27 385.24,504.91"/>
    <line class="fil0 str1" x1="1665.8" y1="5540.75" x2="1741.03" y2= "5466.01" />
    <path class="fil0 str1" d="M1646.57 5551.26c7.28,-1.61 13.94,-5.26 19.23,-10.51"/>
    <line class="fil0 str1" x1="1618.72" y1="5557.43" x2="1646.57" y2= "5551.26" />
    <path class="fil0 str1" d="M1575.59 5537.76c8.37,15.45 25.98,23.48 43.13,19.67"/>
    <line class="fil0 str1" x1="1518.98" y1="5433.31" x2="1575.59" y2= "5537.76" />
    <path class="fil0 str1" d="M1525.98 5386.48c-12.51,12.3 -15.37,31.41 -7,46.83"/>
    <line class="fil0 str1" x1="1546.35" y1="5366.45" x2="1525.98" y2= "5386.48" />
    <path class="fil0 str1" d="M1565.7 5356.02c-7.31,1.57 -14.02,5.19 -19.35,10.43"/>
    <line class="fil0 str1" x1="1668.7" y1="5333.94" x2="1565.7" y2= "5356.02" />
    <path class="fil0 str1" d="M1433.87 4743.09c37.27,125.55 80.93,249.37 132.17,370.9 31.35,74.37 65.55,147.87 102.66,219.94"/>
    <line class="fil0 str1" x1="1343.75" y1="4798.45" x2="1433.87" y2= "4743.09" />
    <path class="fil0 str1" d="M1322.63 4804.27c7.45,0.1 14.78,-1.92 21.12,-5.82"/>
    <line class="fil0 str1" x1="1294.11" y1="4803.9" x2="1322.63" y2= "4804.27" />
    <path class="fil0 str1" d="M1256.63 4774.86c4.61,16.96 19.9,28.8 37.47,29.04"/>
    <line class="fil0 str1" x1="1225.46" y1="4660.22" x2="1256.63" y2= "4774.86" />
    <path class="fil0 str1" d="M1243.02 4616.24c-15,9.11 -22.16,27.05 -17.55,43.98"/>
    <line class="fil0 str1" x1="1267.43" y1="4601.41" x2="1243.02" y2= "4616.24" />
    <path class="fil0 str1" d="M1288.66 4595.7c-7.48,-0.15 -14.84,1.83 -21.23,5.71"/>
    <line class="fil0 str1" x1="1393.71" y1="4597.8" x2="1288.66" y2= "4595.7" />
    <path class="fil0 str1" d="M1277.02 3972.44c26.8,210.88 64,420.11 116.69,625.37"/>
    <line class="fil0 str1" x1="1179.72" y1="4013.16" x2="1277.02" y2= "3972.44" />
    <path class="fil0 str1" d="M1157.96 4015.66c7.35,1.24 14.89,0.38 21.77,-2.5"/>
    <line class="fil0 str1" x1="1129.83" y1="4010.9" x2="1157.96" y2= "4015.66" />
    <path class="fil0 str1" d="M1097.28 3976.44c1.94,17.46 15.23,31.52 32.56,34.46"/>
    <line class="fil0 str1" x1="1084.11" y1="3858.38" x2="1097.28" y2= "3976.44" />
    <path class="fil0 str1" d="M1108.22 3817.62c-16.22,6.69 -26.06,23.31 -24.11,40.76"/>
    <line class="fil0 str1" x1="1134.63" y1="3806.72" x2="1108.22" y2= "3817.62" />
    <path class="fil0 str1" d="M1156.48 3804.35c-7.36,-1.3 -14.94,-0.47 -21.85,2.38"/>
    <line class="fil0 str1" x1="1259.67" y1="3822.53" x2="1156.48" y2= "3804.35" />
    <path class="fil0 str1" d="M1215.58 3187.75c8.94,211.13 21.93,423.5 44.08,634.78"/>
    <line class="fil0 str1" x1="1115.72" y1="3220.78" x2="1215.58" y2= "3187.75" />
    <path class="fil0 str1" d="M1093.83 3221.6c7.23,1.8 14.82,1.52 21.89,-0.82"/>
    <line class="fil0 str1" x1="1066.15" y1="3214.7" x2="1093.83" y2= "3221.6" />
    <path class="fil0 str1" d="M1036.34 3177.84c0.6,17.56 12.76,32.61 29.81,36.86"/>
    <line class="fil0 str1" x1="1032.29" y1="3059.11" x2="1036.34" y2= "3177.84" />
    <path class="fil0 str1" d="M1059.46 3020.33c-16.69,5.43 -27.77,21.24 -27.17,38.78"/>
    <line class="fil0 str1" x1="1059.52" y1="3020.31" x2="1059.46" y2= "3020.33" />
    <line class="fil0 str1" x1="1059.52" y1="3020.31" x2="1086.66" y2= "3011.54" />
    <path class="fil0 str1" d="M1108.56 3010.86c-7.22,-1.85 -14.81,-1.62 -21.9,0.67"/>
    <line class="fil0 str1" x1="1108.56" y1="3010.86" x2="1209.81" y2= "3037.04" />
    <path class="fil0 str1" d="M1209.81 3037.04c-1.05,-30.22 -2.04,-60.45 -2.98,-90.67"/>
    <path class="fil0 str1" d="M1206.83 2946.36c-2.52,-80.31 -53.59,-151.03 -129.04,-178.67"/>
   </g>
   <rect class="fil0 str2" x="1141.78" y="2144.13" width="38.19" height="125"/>
  </g>
 </g>
 <g id="_0">
  <metadata id="CorelCorpID_1Corel-Layer"/>
  <line class="fil0 str1" x1="19712.13" y1="1986.44" x2="19862.92" y2= "1986.44" />
  <line class="fil0 str1" x1="19862.92" y1="1986.44" x2="19862.92" y2= "1809.28" />
  <line class="fil0 str1" x1="19862.92" y1="1809.28" x2="19712.13" y2= "1809.28" />
  <line class="fil0 str1" x1="19712.13" y1="1809.28" x2="19712.13" y2= "1986.44" />
  <line class="fil0 str1" x1="18925.15" y1="1986.44" x2="19075.94" y2= "1986.44" />
  <line class="fil0 str1" x1="19075.94" y1="1986.44" x2="19075.94" y2= "1809.28" />
  <line class="fil0 str1" x1="19075.94" y1="1809.28" x2="18925.15" y2= "1809.28" />
  <line class="fil0 str1" x1="18925.15" y1="1809.28" x2="18925.15" y2= "1986.44" />
  <line class="fil0 str1" x1="18138.17" y1="1986.44" x2="18288.96" y2= "1986.44" />
  <line class="fil0 str1" x1="18288.96" y1="1986.44" x2="18288.96" y2= "1809.28" />
  <line class="fil0 str1" x1="18288.96" y1="1809.28" x2="18138.17" y2= "1809.28" />
  <line class="fil0 str1" x1="18138.17" y1="1809.28" x2="18138.17" y2= "1986.44" />
  <line class="fil0 str1" x1="17351.19" y1="1986.44" x2="17501.98" y2= "1986.44" />
  <line class="fil0 str1" x1="17501.98" y1="1986.44" x2="17501.98" y2= "1809.28" />
  <line class="fil0 str1" x1="17501.98" y1="1809.28" x2="17351.19" y2= "1809.28" />
  <line class="fil0 str1" x1="17351.19" y1="1809.28" x2="17351.19" y2= "1986.44" />
  <line class="fil0 str1" x1="16564.21" y1="1986.44" x2="16715" y2= "1986.44" />
  <line class="fil0 str1" x1="16715" y1="1986.44" x2="16715" y2= "1809.28" />
  <line class="fil0 str1" x1="16715" y1="1809.28" x2="16564.21" y2= "1809.28" />
  <line class="fil0 str1" x1="16564.21" y1="1809.28" x2="16564.21" y2= "1986.44" />
  <line class="fil0 str1" x1="15777.23" y1="1986.44" x2="15928.02" y2= "1986.44" />
  <line class="fil0 str1" x1="15928.02" y1="1986.44" x2="15928.02" y2= "1809.28" />
  <line class="fil0 str1" x1="15928.02" y1="1809.28" x2="15777.23" y2= "1809.28" />
  <line class="fil0 str1" x1="15777.23" y1="1809.28" x2="15777.23" y2= "1986.44" />
  <line class="fil0 str1" x1="14990.25" y1="1986.44" x2="15141.04" y2= "1986.44" />
  <line class="fil0 str1" x1="15141.04" y1="1986.44" x2="15141.04" y2= "1809.28" />
  <line class="fil0 str1" x1="15141.04" y1="1809.28" x2="14990.25" y2= "1809.28" />
  <line class="fil0 str1" x1="14990.25" y1="1809.28" x2="14990.25" y2= "1986.44" />
  <line class="fil0 str1" x1="14203.27" y1="1986.44" x2="14354.06" y2= "1986.44" />
  <line class="fil0 str1" x1="14354.06" y1="1986.44" x2="14354.06" y2= "1809.28" />
  <line class="fil0 str1" x1="14354.06" y1="1809.28" x2="14203.27" y2= "1809.28" />
  <line class="fil0 str1" x1="14203.27" y1="1809.28" x2="14203.27" y2= "1986.44" />
  <line class="fil0 str1" x1="13416.29" y1="1986.44" x2="13567.08" y2= "1986.44" />
  <line class="fil0 str1" x1="13567.08" y1="1986.44" x2="13567.08" y2= "1809.28" />
  <line class="fil0 str1" x1="13567.08" y1="1809.28" x2="13416.29" y2= "1809.28" />
  <line class="fil0 str1" x1="13416.29" y1="1809.28" x2="13416.29" y2= "1986.44" />
  <line class="fil0 str1" x1="12629.31" y1="1986.44" x2="12780.1" y2= "1986.44" />
  <line class="fil0 str1" x1="12780.1" y1="1986.44" x2="12780.1" y2= "1809.28" />
  <line class="fil0 str1" x1="12780.1" y1="1809.28" x2="12629.31" y2= "1809.28" />
  <line class="fil0 str1" x1="12629.31" y1="1809.28" x2="12629.31" y2= "1986.44" />
  <line class="fil0 str1" x1="11842.33" y1="1986.44" x2="11993.12" y2= "1986.44" />
  <line class="fil0 str1" x1="11993.12" y1="1986.44" x2="11993.12" y2= "1809.28" />
  <line class="fil0 str1" x1="11993.12" y1="1809.28" x2="11842.33" y2= "1809.28" />
  <line class="fil0 str1" x1="11842.33" y1="1809.28" x2="11842.33" y2= "1986.44" />
  <line class="fil0 str1" x1="11055.35" y1="1986.44" x2="11206.14" y2= "1986.44" />
  <line class="fil0 str1" x1="11206.14" y1="1986.44" x2="11206.14" y2= "1809.28" />
  <line class="fil0 str1" x1="11206.14" y1="1809.28" x2="11055.35" y2= "1809.28" />
  <line class="fil0 str1" x1="11055.35" y1="1809.28" x2="11055.35" y2= "1986.44" />
  <line class="fil0 str1" x1="10268.37" y1="1986.44" x2="10419.16" y2= "1986.44" />
  <line class="fil0 str1" x1="10419.16" y1="1986.44" x2="10419.16" y2= "1809.28" />
  <line class="fil0 str1" x1="10419.16" y1="1809.28" x2="10268.37" y2= "1809.28" />
  <line class="fil0 str1" x1="10268.37" y1="1809.28" x2="10268.37" y2= "1986.44" />
  <line class="fil0 str1" x1="9481.39" y1="1986.44" x2="9632.18" y2= "1986.44" />
  <line class="fil0 str1" x1="9632.18" y1="1986.44" x2="9632.18" y2= "1809.28" />
  <line class="fil0 str1" x1="9632.18" y1="1809.28" x2="9481.39" y2= "1809.28" />
  <line class="fil0 str1" x1="9481.39" y1="1809.28" x2="9481.39" y2= "1986.44" />
  <line class="fil0 str1" x1="8845.2" y1="1986.44" x2="8845.2" y2= "1809.28" />
  <line class="fil0 str1" x1="8845.2" y1="1809.28" x2="8694.41" y2= "1809.28" />
  <line class="fil0 str1" x1="8694.41" y1="1809.28" x2="8694.41" y2= "1986.44" />
  <line class="fil0 str1" x1="8694.41" y1="1986.44" x2="8845.2" y2= "1986.44" />
  <line class="fil0 str1" x1="8432.21" y1="9683.29" x2="20125.12" y2= "9683.29" />
  <line class="fil0 str1" x1="8432.21" y1="1415.57" x2="8432.21" y2= "9683.29" />
  <line class="fil0 str1" x1="20125.12" y1="1415.57" x2="8432.21" y2= "1415.57" />
  <line class="fil0 str1" x1="20125.12" y1="9683.29" x2="20125.12" y2= "1415.57" />
 </g>
</svg>
