  0
SECTION
  2
HEADER
  9
$ACADVER
  1
AC1014
  9
$HANDSEED
  5
FFFF
  9
$MEASUREMENT
 70
     1
  0
ENDSEC
  0
SECTION
  2
TABLES
  0
TABLE
  2
VPORT
  5
8
330
0
100
AcDbSymbolTable
 70
     4
  0
VPORT
  5
2E
330
8
100
AcDbSymbolTableRecord
100
AcDbViewportTableRecord
  2
*ACTIVE
 70
     0
 10
0.0
 20
0.0
 11
1.0
 21
1.0
 12
210.0
 22
148.5
 13
0.0
 23
0.0
 14
10.0
 24
10.0
 15
10.0
 25
10.0
 16
0.0
 26
0.0
 36
1.0
 17
0.0
 27
0.0
 37
0.0
 40
341.0
 41
1.24
 42
50.0
 43
0.0
 44
0.0
 50
0.0
 51
0.0
 71
     0
 72
   100
 73
     1
 74
     3
 75
     0
 76
     0
 77
     0
 78
     0
  0
ENDTAB
  0
TABLE
  2
LTYPE
  5
5
330
0
100
AcDbSymbolTable
 70
     1
  0
LTYPE
  5
14
330
5
100
AcDbSymbolTableRecord
100
AcDbLinetypeTableRecord
  2
BYBLOCK
 70
     0
  3

 72
    65
 73
     0
 40
0.0
  0
LTYPE
  5
15
330
5
100
AcDbSymbolTableRecord
100
AcDbLinetypeTableRecord
  2
BYLAYER
 70
     0
  3

 72
    65
 73
     0
 40
0.0
  0
LTYPE
  5
16
330
5
100
AcDbSymbolTableRecord
100
AcDbLinetypeTableRecord
  2
CONTINUOUS
 70
     0
  3
Solid line
 72
    65
 73
     0
 40
0.0
  0
ENDTAB
  0
TABLE
  2
LAYER
  5
2
100
AcDbSymbolTable
 70
1
  0
LAYER
  5
50
100
AcDbSymbolTableRecord
100
AcDbLayerTableRecord
  2
0
 70
0
  6
CONTINUOUS
  0
ENDTAB
  0
TABLE
  2
STYLE
  5
3
330
0
100
AcDbSymbolTable
 70
     1
  0
STYLE
  5
11
330
3
100
AcDbSymbolTableRecord
100
AcDbTextStyleTableRecord
  2
STANDARD
 70
     0
 40
0.0
 41
1.0
 50
0.0
 71
     0
 42
2.5
  3
txt
  4

  0
ENDTAB
  0
TABLE
  2
VIEW
  5
6
330
0
100
AcDbSymbolTable
 70
     0
  0
ENDTAB
  0
TABLE
  2
UCS
  5
7
330
0
100
AcDbSymbolTable
 70
     0
  0
ENDTAB
  0
TABLE
  2
APPID
  5
9
330
0
100
AcDbSymbolTable
 70
     2
  0
APPID
  5
12
330
9
100
AcDbSymbolTableRecord
100
AcDbRegAppTableRecord
  2
ACAD
 70
     0
  0
ENDTAB
  0
TABLE
  2
DIMSTYLE
  5
A
330
0
100
AcDbSymbolTable
 70
     1
  0
DIMSTYLE
105
27
330
A
100
AcDbSymbolTableRecord
100
AcDbDimStyleTableRecord
  2
ISO-25
 70
     0
  3

  4

  5

  6

  7

 40
1.0
 41
2.5
 42
0.625
 43
3.75
 44
1.25
 45
0.0
 46
0.0
 47
0.0
 48
0.0
140
2.5
141
2.5
142
0.0
143
0.03937007874016
144
1.0
145
0.0
146
1.0
147
0.625
 71
     0
 72
     0
 73
     0
 74
     0
 75
     0
 76
     0
 77
     1
 78
     8
170
     0
171
     3
172
     1
173
     0
174
     0
175
     0
176
     0
177
     0
178
     0
270
     2
271
     2
272
     2
273
     2
274
     3
340
11
275
     0
280
     0
281
     0
282
     0
283
     0
284
     8
285
     0
286
     0
287
     3
288
     0
  0
ENDTAB
  0
TABLE
  2
BLOCK_RECORD
  5
1
330
0
100
AcDbSymbolTable
 70
     1
  0
BLOCK_RECORD
  5
1F
330
1
100
AcDbSymbolTableRecord
100
AcDbBlockTableRecord
  2
*MODEL_SPACE
  0
BLOCK_RECORD
  5
1B
330
1
100
AcDbSymbolTableRecord
100
AcDbBlockTableRecord
  2
*PAPER_SPACE
  0
ENDTAB
  0
ENDSEC
  0
SECTION
  2
BLOCKS
  0
BLOCK
  5
20
330
1F
100
AcDbEntity
  8
0
100
AcDbBlockBegin
  2
*MODEL_SPACE
 70
     0
 10
0.0
 20
0.0
 30
0.0
  3
*MODEL_SPACE
  1

  0
ENDBLK
  5
21
330
1F
100
AcDbEntity
  8
0
100
AcDbBlockEnd
  0
BLOCK
  5
1C
330
1B
100
AcDbEntity
 67
     1
  8
0
100
AcDbBlockBegin
  2
*PAPER_SPACE
  1

  0
ENDBLK
  5
1D
330
1B
100
AcDbEntity
 67
     1
  8
0
100
AcDbBlockEnd
  0
ENDSEC
  0
SECTION
  2
ENTITIES
  0
LWPOLYLINE
  5
100
100
AcDbEntity
  8
0
 62
7
100
AcDbPolyline
 90
4
 70
1
 10
407.885138
 20
-31.494222
 30
0.0
 10
415.584640
 20
-31.494222
 30
0.0
 10
415.584640
 20
-26.794460
 30
0.0
 10
407.885138
 20
-26.794460
 30
0.0
  0
LWPOLYLINE
  5
101
100
AcDbEntity
  8
0
 62
7
100
AcDbPolyline
 90
4
 70
1
 10
367.956592
 20
-31.494222
 30
0.0
 10
375.556018
 20
-31.494222
 30
0.0
 10
375.556018
 20
-26.794460
 30
0.0
 10
367.956592
 20
-26.794460
 30
0.0
  0
LWPOLYLINE
  5
102
100
AcDbEntity
  8
0
 62
7
100
AcDbPolyline
 90
4
 70
1
 10
327.927970
 20
-31.494476
 30
0.0
 10
335.627472
 20
-31.494476
 30
0.0
 10
335.627472
 20
-26.794714
 30
0.0
 10
327.927970
 20
-26.794714
 30
0.0
  0
LWPOLYLINE
  5
103
100
AcDbEntity
  8
0
 62
7
100
AcDbPolyline
 90
4
 70
1
 10
287.999424
 20
-31.494222
 30
0.0
 10
295.599104
 20
-31.494222
 30
0.0
 10
295.599104
 20
-26.794460
 30
0.0
 10
287.999424
 20
-26.794460
 30
0.0
  0
LWPOLYLINE
  5
104
100
AcDbEntity
  8
0
 62
7
100
AcDbPolyline
 90
2
 70
0
 10
203.267056
 20
-226.894390
 30
0.0
 10
500.266970
 20
-226.894390
 30
0.0
  0
LWPOLYLINE
  5
105
100
AcDbEntity
  8
0
 62
7
100
AcDbPolyline
 90
2
 70
0
 10
203.267056
 20
-16.894302
 30
0.0
 10
203.267056
 20
-226.894390
 30
0.0
  0
LWPOLYLINE
  5
106
100
AcDbEntity
  8
0
 62
7
100
AcDbPolyline
 90
2
 70
0
 10
500.266970
 20
-16.894302
 30
0.0
 10
203.267056
 20
-16.894302
 30
0.0
  0
LWPOLYLINE
  5
107
100
AcDbEntity
  8
0
 62
7
100
AcDbPolyline
 90
2
 70
0
 10
500.266970
 20
-226.894390
 30
0.0
 10
500.266970
 20
-16.894302
 30
0.0
  0
LWPOLYLINE
  5
108
100
AcDbEntity
  8
0
 62
7
100
AcDbPolyline
 90
1
 70
1
 10
497.495068
 20
-19.970496
 30
0.0
  0
LWPOLYLINE
  5
109
100
AcDbEntity
  8
0
 62
1
100
AcDbPolyline
 90
2
 70
0
 10
436.436527
 20
-19.947138
 30
0.0
 10
436.436527
 20
-23.221212
 30
0.0
  0
LWPOLYLINE
  5
10a
100
AcDbEntity
  8
0
 62
1
100
AcDbPolyline
 90
2
 70
0
 10
436.436527
 20
-19.947138
 30
0.0
 10
437.682851
 20
-23.221212
 30
0.0
  0
LWPOLYLINE
  5
10b
100
AcDbEntity
  8
0
 62
1
100
AcDbPolyline
 90
2
 70
0
 10
438.929175
 20
-19.947138
 30
0.0
 10
437.682851
 20
-23.221212
 30
0.0
  0
LWPOLYLINE
  5
10c
100
AcDbEntity
  8
0
 62
1
100
AcDbPolyline
 90
2
 70
0
 10
438.929175
 20
-19.947138
 30
0.0
 10
438.929175
 20
-23.221212
 30
0.0
  0
LWPOLYLINE
  5
10d
100
AcDbEntity
  8
0
 62
1
100
AcDbPolyline
 90
2
 70
0
 10
440.956922
 20
-19.947138
 30
0.0
 10
439.710599
 20
-23.221212
 30
0.0
  0
LWPOLYLINE
  5
10e
100
AcDbEntity
  8
0
 62
1
100
AcDbPolyline
 90
2
 70
0
 10
440.956922
 20
-19.947138
 30
0.0
 10
442.203247
 20
-23.221212
 30
0.0
  0
LWPOLYLINE
  5
10f
100
AcDbEntity
  8
0
 62
1
100
AcDbPolyline
 90
2
 70
0
 10
440.175496
 20
-22.133152
 30
0.0
 10
441.738348
 20
-22.133152
 30
0.0
  0
LWPOLYLINE
  5
110
100
AcDbEntity
  8
0
 62
1
100
AcDbPolyline
 90
2
 70
0
 10
442.979724
 20
-19.947138
 30
0.0
 10
442.979724
 20
-23.221212
 30
0.0
  0
LWPOLYLINE
  5
111
100
AcDbEntity
  8
0
 62
1
100
AcDbPolyline
 90
2
 70
0
 10
445.165738
 20
-19.947138
 30
0.0
 10
442.979724
 20
-22.133152
 30
0.0
  0
LWPOLYLINE
  5
112
100
AcDbEntity
  8
0
 62
1
100
AcDbPolyline
 90
2
 70
0
 10
443.761150
 20
-21.351726
 30
0.0
 10
445.165738
 20
-23.221212
 30
0.0
  0
LWPOLYLINE
  5
113
100
AcDbEntity
  8
0
 62
1
100
AcDbPolyline
 90
2
 70
0
 10
446.253796
 20
-19.947138
 30
0.0
 10
446.253796
 20
-23.221212
 30
0.0
  0
LWPOLYLINE
  5
114
100
AcDbEntity
  8
0
 62
1
100
AcDbPolyline
 90
2
 70
0
 10
446.253796
 20
-19.947138
 30
0.0
 10
448.281546
 20
-19.947138
 30
0.0
  0
LWPOLYLINE
  5
115
100
AcDbEntity
  8
0
 62
1
100
AcDbPolyline
 90
2
 70
0
 10
446.253796
 20
-21.509989
 30
0.0
 10
447.500121
 20
-21.509989
 30
0.0
  0
LWPOLYLINE
  5
116
100
AcDbEntity
  8
0
 62
1
100
AcDbPolyline
 90
2
 70
0
 10
446.253796
 20
-23.221212
 30
0.0
 10
448.281546
 20
-23.221212
 30
0.0
  0
LWPOLYLINE
  5
117
100
AcDbEntity
  8
0
 62
1
100
AcDbPolyline
 90
2
 70
0
 10
449.211342
 20
-19.947138
 30
0.0
 10
449.211342
 20
-23.221212
 30
0.0
  0
LWPOLYLINE
  5
118
100
AcDbEntity
  8
0
 62
1
100
AcDbPolyline
 90
10
 70
0
 10
449.211342
 20
-19.947138
 30
0.0
 10
450.615930
 20
-19.947138
 30
0.0
 10
451.080829
 20
-20.105401
 30
0.0
 10
451.239093
 20
-20.263665
 30
0.0
 10
451.397356
 20
-20.570300
 30
0.0
 10
451.397356
 20
-20.886827
 30
0.0
 10
451.239093
 20
-21.193463
 30
0.0
 10
451.080829
 20
-21.351726
 30
0.0
 10
450.615930
 20
-21.509989
 30
0.0
 10
449.211342
 20
-21.509989
 30
0.0
  0
LWPOLYLINE
  5
119
100
AcDbEntity
  8
0
 62
1
100
AcDbPolyline
 90
2
 70
0
 10
450.304349
 20
-21.509989
 30
0.0
 10
451.397356
 20
-23.221212
 30
0.0
  0
LWPOLYLINE
  5
11a
100
AcDbEntity
  8
0
 62
1
100
AcDbPolyline
 90
7
 70
0
 10
452.643677
 20
-20.263665
 30
0.0
 10
452.485414
 20
-20.105401
 30
0.0
 10
452.643677
 20
-19.947138
 30
0.0
 10
452.801941
 20
-20.105401
 30
0.0
 10
452.801941
 20
-20.416982
 30
0.0
 10
452.643677
 20
-20.728564
 30
0.0
 10
452.485414
 20
-20.886827
 30
0.0
  0
LWPOLYLINE
  5
11b
100
AcDbEntity
  8
0
 62
1
100
AcDbPolyline
 90
20
 70
0
 10
456.071068
 20
-20.416982
 30
0.0
 10
455.759487
 20
-20.105401
 30
0.0
 10
455.289642
 20
-19.947138
 30
0.0
 10
454.666480
 20
-19.947138
 30
0.0
 10
454.201581
 20
-20.105401
 30
0.0
 10
453.890000
 20
-20.416982
 30
0.0
 10
453.890000
 20
-20.728564
 30
0.0
 10
454.043318
 20
-21.040145
 30
0.0
 10
454.201581
 20
-21.193463
 30
0.0
 10
454.513162
 20
-21.351726
 30
0.0
 10
455.447906
 20
-21.663307
 30
0.0
 10
455.759487
 20
-21.816625
 30
0.0
 10
455.912804
 20
-21.974887
 30
0.0
 10
456.071068
 20
-22.286470
 30
0.0
 10
456.071068
 20
-22.753841
 30
0.0
 10
455.759487
 20
-23.065422
 30
0.0
 10
455.289642
 20
-23.221212
 30
0.0
 10
454.666480
 20
-23.221212
 30
0.0
 10
454.201581
 20
-23.065422
 30
0.0
 10
453.890000
 20
-22.753841
 30
0.0
  0
LWPOLYLINE
  5
11c
100
AcDbEntity
  8
0
 62
1
100
AcDbPolyline
 90
2
 70
0
 10
459.810037
 20
-19.947138
 30
0.0
 10
458.563713
 20
-23.221212
 30
0.0
  0
LWPOLYLINE
  5
11d
100
AcDbEntity
  8
0
 62
1
100
AcDbPolyline
 90
2
 70
0
 10
459.810037
 20
-19.947138
 30
0.0
 10
461.056362
 20
-23.221212
 30
0.0
  0
LWPOLYLINE
  5
11e
100
AcDbEntity
  8
0
 62
1
100
AcDbPolyline
 90
2
 70
0
 10
459.028612
 20
-22.133152
 30
0.0
 10
460.591463
 20
-22.133152
 30
0.0
  0
LWPOLYLINE
  5
11f
100
AcDbEntity
  8
0
 62
1
100
AcDbPolyline
 90
20
 70
0
 10
463.860589
 20
-20.416982
 30
0.0
 10
463.549008
 20
-20.105401
 30
0.0
 10
463.079163
 20
-19.947138
 30
0.0
 10
462.456001
 20
-19.947138
 30
0.0
 10
461.991103
 20
-20.105401
 30
0.0
 10
461.679521
 20
-20.416982
 30
0.0
 10
461.679521
 20
-20.728564
 30
0.0
 10
461.832839
 20
-21.040145
 30
0.0
 10
461.991103
 20
-21.193463
 30
0.0
 10
462.302683
 20
-21.351726
 30
0.0
 10
463.237427
 20
-21.663307
 30
0.0
 10
463.549008
 20
-21.816625
 30
0.0
 10
463.702326
 20
-21.974887
 30
0.0
 10
463.860589
 20
-22.286470
 30
0.0
 10
463.860589
 20
-22.753841
 30
0.0
 10
463.549008
 20
-23.065422
 30
0.0
 10
463.079163
 20
-23.221212
 30
0.0
 10
462.456001
 20
-23.221212
 30
0.0
 10
461.991103
 20
-23.065422
 30
0.0
 10
461.679521
 20
-22.753841
 30
0.0
  0
LWPOLYLINE
  5
120
100
AcDbEntity
  8
0
 62
1
100
AcDbPolyline
 90
3
 70
0
 10
464.483751
 20
-19.947138
 30
0.0
 10
465.730074
 20
-21.509989
 30
0.0
 10
465.730074
 20
-23.221212
 30
0.0
  0
LWPOLYLINE
  5
121
100
AcDbEntity
  8
0
 62
1
100
AcDbPolyline
 90
2
 70
0
 10
466.976399
 20
-19.947138
 30
0.0
 10
465.730074
 20
-21.509989
 30
0.0
  0
LWPOLYLINE
  5
122
100
AcDbEntity
  8
0
 62
1
100
AcDbPolyline
 90
3
 70
0
 10
467.752878
 20
-19.947138
 30
0.0
 10
467.752878
 20
-23.221212
 30
0.0
 10
469.622364
 20
-23.221212
 30
0.0
  0
LWPOLYLINE
  5
123
100
AcDbEntity
  8
0
 62
1
100
AcDbPolyline
 90
10
 70
0
 10
470.403787
 20
-19.947138
 30
0.0
 10
470.403787
 20
-22.286470
 30
0.0
 10
470.562050
 20
-22.753841
 30
0.0
 10
470.873631
 20
-23.065422
 30
0.0
 10
471.343476
 20
-23.221212
 30
0.0
 10
471.650111
 20
-23.221212
 30
0.0
 10
472.119956
 20
-23.065422
 30
0.0
 10
472.431536
 20
-22.753841
 30
0.0
 10
472.589800
 20
-22.286470
 30
0.0
 10
472.589800
 20
-19.947138
 30
0.0
  0
LWPOLYLINE
  5
124
100
AcDbEntity
  8
0
 62
1
100
AcDbPolyline
 90
2
 70
0
 10
473.831177
 20
-19.947138
 30
0.0
 10
473.831177
 20
-23.221212
 30
0.0
  0
LWPOLYLINE
  5
125
100
AcDbEntity
  8
0
 62
1
100
AcDbPolyline
 90
2
 70
0
 10
473.831177
 20
-19.947138
 30
0.0
 10
475.077500
 20
-23.221212
 30
0.0
  0
LWPOLYLINE
  5
126
100
AcDbEntity
  8
0
 62
1
100
AcDbPolyline
 90
2
 70
0
 10
476.323825
 20
-19.947138
 30
0.0
 10
475.077500
 20
-23.221212
 30
0.0
  0
LWPOLYLINE
  5
127
100
AcDbEntity
  8
0
 62
1
100
AcDbPolyline
 90
2
 70
0
 10
476.323825
 20
-19.947138
 30
0.0
 10
476.323825
 20
-23.221212
 30
0.0
  0
LWPOLYLINE
  5
128
100
AcDbEntity
  8
0
 62
1
100
AcDbPolyline
 90
2
 70
0
 10
480.325395
 20
-19.947138
 30
0.0
 10
480.325395
 20
-23.221212
 30
0.0
  0
LWPOLYLINE
  5
129
100
AcDbEntity
  8
0
 62
1
100
AcDbPolyline
 90
2
 70
0
 10
480.325395
 20
-19.947138
 30
0.0
 10
481.571720
 20
-23.221212
 30
0.0
  0
LWPOLYLINE
  5
12a
100
AcDbEntity
  8
0
 62
1
100
AcDbPolyline
 90
2
 70
0
 10
482.818044
 20
-19.947138
 30
0.0
 10
481.571720
 20
-23.221212
 30
0.0
  0
LWPOLYLINE
  5
12b
100
AcDbEntity
  8
0
 62
1
100
AcDbPolyline
 90
2
 70
0
 10
482.818044
 20
-19.947138
 30
0.0
 10
482.818044
 20
-23.221212
 30
0.0
  0
LWPOLYLINE
  5
12c
100
AcDbEntity
  8
0
 62
1
100
AcDbPolyline
 90
2
 70
0
 10
484.005127
 20
-21.816625
 30
0.0
 10
484.803403
 20
-21.816625
 30
0.0
  0
LWPOLYLINE
  5
12d
100
AcDbEntity
  8
0
 62
1
100
AcDbPolyline
 90
4
 70
0
 10
485.972139
 20
-20.570300
 30
0.0
 10
486.278775
 20
-20.416982
 30
0.0
 10
486.748618
 20
-19.947138
 30
0.0
 10
486.748618
 20
-23.221212
 30
0.0
  0
SPLINE
  5
12e
100
AcDbEntity
  8
0
 62
7
100
AcDbSpline
 70
0
 71
3
 72
25
 73
21
 74
19
 40
0.000000
 40
0.000000
 40
0.000000
 40
0.000000
 40
0.174526
 40
0.346554
 40
0.521080
 40
0.695606
 40
0.867635
 40
1.042161
 40
1.216687
 40
1.388715
 40
1.563241
 40
1.737767
 40
1.909795
 40
2.084321
 40
2.258847
 40
2.430876
 40
2.605402
 40
2.779928
 40
2.951956
 40
3.126482
 40
3.126482
 40
3.126482
 40
3.126482
 10
497.495068
 20
-19.970496
 30
0.0
 10
497.489093
 20
-20.028968
 30
0.0
 10
497.477227
 20
-20.145075
 30
0.0
 10
497.385171
 20
-20.298513
 30
0.0
 10
497.250384
 20
-20.412590
 30
0.0
 10
497.083477
 20
-20.473092
 30
0.0
 10
496.906369
 20
-20.473092
 30
0.0
 10
496.739695
 20
-20.412590
 30
0.0
 10
496.603976
 20
-20.298513
 30
0.0
 10
496.515387
 20
-20.145075
 30
0.0
 10
496.484456
 20
-19.970496
 30
0.0
 10
496.515387
 20
-19.795917
 30
0.0
 10
496.603976
 20
-19.642479
 30
0.0
 10
496.739695
 20
-19.528402
 30
0.0
 10
496.906369
 20
-19.467900
 30
0.0
 10
497.083477
 20
-19.467900
 30
0.0
 10
497.250384
 20
-19.528402
 30
0.0
 10
497.385171
 20
-19.642479
 30
0.0
 10
497.477227
 20
-19.795917
 30
0.0
 10
497.489093
 20
-19.912024
 30
0.0
 10
497.495068
 20
-19.970496
 30
0.0
 11
497.495068
 21
-19.970496
 31
0.0
 11
497.464623
 21
-20.142346
 31
0.0
 11
497.378609
 21
-20.291327
 31
0.0
 11
497.245005
 21
-20.403618
 31
0.0
 11
497.080956
 21
-20.463177
 31
0.0
 11
496.908928
 21
-20.463177
 31
0.0
 11
496.744879
 21
-20.403618
 31
0.0
 11
496.611275
 21
-20.291327
 31
0.0
 11
496.525261
 21
-20.142346
 31
0.0
 11
496.494816
 21
-19.970496
 31
0.0
 11
496.525261
 21
-19.798646
 31
0.0
 11
496.611275
 21
-19.649665
 31
0.0
 11
496.744879
 21
-19.537374
 31
0.0
 11
496.908928
 21
-19.477815
 31
0.0
 11
497.080956
 21
-19.477815
 31
0.0
 11
497.245005
 21
-19.537374
 31
0.0
 11
497.378609
 21
-19.649665
 31
0.0
 11
497.464623
 21
-19.798646
 31
0.0
 11
497.495068
 21
-19.970496
 31
0.0
  0
LWPOLYLINE
  5
12f
100
AcDbEntity
  8
0
 62
1
100
AcDbPolyline
 90
23
 70
0
 10
490.640908
 20
-21.040145
 30
0.0
 10
490.487590
 20
-21.509989
 30
0.0
 10
490.176009
 20
-21.816625
 30
0.0
 10
489.711110
 20
-21.974887
 30
0.0
 10
489.552846
 20
-21.974887
 30
0.0
 10
489.087947
 20
-21.816625
 30
0.0
 10
488.771420
 20
-21.509989
 30
0.0
 10
488.618103
 20
-21.040145
 30
0.0
 10
488.618103
 20
-20.886827
 30
0.0
 10
488.771420
 20
-20.416982
 30
0.0
 10
489.087947
 20
-20.105401
 30
0.0
 10
489.552846
 20
-19.947138
 30
0.0
 10
489.711110
 20
-19.947138
 30
0.0
 10
490.176009
 20
-20.105401
 30
0.0
 10
490.487590
 20
-20.416982
 30
0.0
 10
490.640908
 20
-21.040145
 30
0.0
 10
490.640908
 20
-21.816625
 30
0.0
 10
490.487590
 20
-22.598050
 30
0.0
 10
490.176009
 20
-23.065422
 30
0.0
 10
489.711110
 20
-23.221212
 30
0.0
 10
489.394583
 20
-23.221212
 30
0.0
 10
488.929684
 20
-23.065422
 30
0.0
 10
488.771420
 20
-22.753841
 30
0.0
  0
SPLINE
  5
130
100
AcDbEntity
  8
0
 62
7
100
AcDbSpline
 70
0
 71
3
 72
19
 73
15
 74
13
 40
0.000000
 40
0.000000
 40
0.000000
 40
0.000000
 40
1.307135
 40
2.575500
 40
3.882681
 40
5.189862
 40
6.458227
 40
7.765362
 40
9.072561
 40
10.341012
 40
11.648210
 40
12.955409
 40
14.223860
 40
15.531059
 40
15.531059
 40
15.531059
 40
15.531059
 10
114.924586
 20
-169.233596
 30
0.0
 10
114.855870
 20
-168.792889
 30
0.0
 10
114.720475
 20
-167.924547
 30
0.0
 10
113.725090
 20
-166.968646
 30
0.0
 10
112.426759
 20
-166.614499
 30
0.0
 10
111.114795
 20
-166.968646
 30
0.0
 10
110.159496
 20
-167.924546
 30
0.0
 10
109.804992
 20
-169.233620
 30
0.0
 10
110.159512
 20
-170.542706
 30
0.0
 10
111.114756
 20
-171.498723
 30
0.0
 10
112.426759
 20
-171.852983
 30
0.0
 10
113.725128
 20
-171.498723
 30
0.0
 10
114.720463
 20
-170.542706
 30
0.0
 10
114.855866
 20
-169.674321
 30
0.0
 10
114.924586
 20
-169.233596
 30
0.0
 11
114.924586
 21
-169.233596
 31
0.0
 11
114.583238
 21
-167.971818
 31
0.0
 11
113.686308
 21
-167.075010
 31
0.0
 11
112.424464
 21
-166.733728
 31
0.0
 11
111.162620
 21
-167.075010
 31
0.0
 11
110.265690
 21
-167.971818
 31
0.0
 11
109.924342
 21
-169.233596
 31
0.0
 11
110.265690
 21
-170.495440
 31
0.0
 11
111.162620
 21
-171.392370
 31
0.0
 11
112.424464
 21
-171.733718
 31
0.0
 11
113.686308
 21
-171.392370
 31
0.0
 11
114.583238
 21
-170.495440
 31
0.0
 11
114.924586
 21
-169.233596
 31
0.0
  0
LWPOLYLINE
  5
131
100
AcDbEntity
  8
0
 62
7
100
AcDbPolyline
 90
1
 70
1
 10
114.924586
 20
-169.233596
 30
0.0
  0
SPLINE
  5
132
100
AcDbEntity
  8
0
 62
7
100
AcDbSpline
 70
0
 71
3
 72
19
 73
15
 74
13
 40
0.000000
 40
0.000000
 40
0.000000
 40
0.000000
 40
1.307199
 40
2.575650
 40
3.882848
 40
5.190047
 40
6.458498
 40
7.765697
 40
9.072880
 40
10.341292
 40
11.648599
 40
12.955798
 40
14.224249
 40
15.531447
 40
15.531447
 40
15.531447
 40
15.531447
 10
81.664810
 20
-164.525198
 30
0.0
 10
81.596090
 20
-164.084473
 30
0.0
 10
81.460687
 20
-163.216088
 30
0.0
 10
80.465352
 20
-162.260071
 30
0.0
 10
79.166982
 20
-161.905811
 30
0.0
 10
77.854982
 20
-162.260071
 30
0.0
 10
76.899731
 20
-163.216088
 30
0.0
 10
76.545230
 20
-164.525191
 30
0.0
 10
76.899668
 20
-165.834293
 30
0.0
 10
77.854901
 20
-166.790371
 30
0.0
 10
79.166952
 20
-167.144576
 30
0.0
 10
80.465351
 20
-166.790330
 30
0.0
 10
81.460688
 20
-165.834307
 30
0.0
 10
81.596090
 20
-164.965922
 30
0.0
 10
81.664810
 20
-164.525198
 30
0.0
 11
81.664810
 21
-164.525198
 31
0.0
 11
81.323462
 21
-163.263354
 31
0.0
 11
80.426532
 21
-162.366424
 31
0.0
 11
79.164688
 21
-162.025076
 31
0.0
 11
77.902844
 21
-162.366424
 31
0.0
 11
77.005914
 21
-163.263354
 31
0.0
 11
76.664566
 21
-164.525198
 31
0.0
 11
77.005857
 21
-165.787042
 31
0.0
 11
77.902731
 21
-166.683972
 31
0.0
 11
79.164688
 21
-167.025320
 31
0.0
 11
80.426532
 21
-166.683972
 31
0.0
 11
81.323462
 21
-165.787042
 31
0.0
 11
81.664810
 21
-164.525198
 31
0.0
  0
LWPOLYLINE
  5
133
100
AcDbEntity
  8
0
 62
7
100
AcDbPolyline
 90
1
 70
1
 10
81.664810
 20
-164.525198
 30
0.0
  0
SPLINE
  5
134
100
AcDbEntity
  8
0
 62
7
100
AcDbSpline
 70
0
 71
3
 72
19
 73
15
 74
13
 40
0.000000
 40
0.000000
 40
0.000000
 40
0.000000
 40
1.307199
 40
2.575650
 40
3.882848
 40
5.190047
 40
6.458498
 40
7.765697
 40
9.072880
 40
10.341292
 40
11.648599
 40
12.955798
 40
14.224249
 40
15.531447
 40
15.531447
 40
15.531447
 40
15.531447
 10
61.644276
 20
-152.923748
 30
0.0
 10
61.575556
 20
-152.483023
 30
0.0
 10
61.440153
 20
-151.614638
 30
0.0
 10
60.444818
 20
-150.658621
 30
0.0
 10
59.146448
 20
-150.304361
 30
0.0
 10
57.834448
 20
-150.658621
 30
0.0
 10
56.879197
 20
-151.614638
 30
0.0
 10
56.524696
 20
-152.923741
 30
0.0
 10
56.879134
 20
-154.232843
 30
0.0
 10
57.834367
 20
-155.188921
 30
0.0
 10
59.146418
 20
-155.543126
 30
0.0
 10
60.444817
 20
-155.188880
 30
0.0
 10
61.440154
 20
-154.232857
 30
0.0
 10
61.575556
 20
-153.364472
 30
0.0
 10
61.644276
 20
-152.923748
 30
0.0
 11
61.644276
 21
-152.923748
 31
0.0
 11
61.302928
 21
-151.661904
 31
0.0
 11
60.405998
 21
-150.764974
 31
0.0
 11
59.144154
 21
-150.423626
 31
0.0
 11
57.882310
 21
-150.764974
 31
0.0
 11
56.985380
 21
-151.661904
 31
0.0
 11
56.644032
 21
-152.923748
 31
0.0
 11
56.985323
 21
-154.185592
 31
0.0
 11
57.882197
 21
-155.082522
 31
0.0
 11
59.144154
 21
-155.423870
 31
0.0
 11
60.405998
 21
-155.082522
 31
0.0
 11
61.302928
 21
-154.185592
 31
0.0
 11
61.644276
 21
-152.923748
 31
0.0
  0
LWPOLYLINE
  5
135
100
AcDbEntity
  8
0
 62
7
100
AcDbPolyline
 90
1
 70
1
 10
61.644276
 20
-152.923748
 30
0.0
  0
SPLINE
  5
136
100
AcDbEntity
  8
0
 62
7
100
AcDbSpline
 70
0
 71
3
 72
19
 73
15
 74
13
 40
0.000000
 40
0.000000
 40
0.000000
 40
0.000000
 40
1.307199
 40
2.575650
 40
3.882848
 40
5.190047
 40
6.458498
 40
7.765697
 40
9.072880
 40
10.341292
 40
11.648599
 40
12.955798
 40
14.224249
 40
15.531447
 40
15.531447
 40
15.531447
 40
15.531447
 10
169.176954
 20
-153.291032
 30
0.0
 10
169.108234
 20
-152.850307
 30
0.0
 10
168.972831
 20
-151.981922
 30
0.0
 10
167.977496
 20
-151.025905
 30
0.0
 10
166.679126
 20
-150.671645
 30
0.0
 10
165.367126
 20
-151.025905
 30
0.0
 10
164.411875
 20
-151.981922
 30
0.0
 10
164.057374
 20
-153.291025
 30
0.0
 10
164.411812
 20
-154.600127
 30
0.0
 10
165.367045
 20
-155.556205
 30
0.0
 10
166.679096
 20
-155.910410
 30
0.0
 10
167.977495
 20
-155.556164
 30
0.0
 10
168.972832
 20
-154.600141
 30
0.0
 10
169.108234
 20
-153.731756
 30
0.0
 10
169.176954
 20
-153.291032
 30
0.0
 11
169.176954
 21
-153.291032
 31
0.0
 11
168.835606
 21
-152.029188
 31
0.0
 11
167.938676
 21
-151.132258
 31
0.0
 11
166.676832
 21
-150.790910
 31
0.0
 11
165.414988
 21
-151.132258
 31
0.0
 11
164.518058
 21
-152.029188
 31
0.0
 11
164.176710
 21
-153.291032
 31
0.0
 11
164.518001
 21
-154.552876
 31
0.0
 11
165.414875
 21
-155.449806
 31
0.0
 11
166.676832
 21
-155.791154
 31
0.0
 11
167.938676
 21
-155.449806
 31
0.0
 11
168.835606
 21
-154.552876
 31
0.0
 11
169.176954
 21
-153.291032
 31
0.0
  0
LWPOLYLINE
  5
137
100
AcDbEntity
  8
0
 62
7
100
AcDbPolyline
 90
1
 70
1
 10
169.176954
 20
-153.291032
 30
0.0
  0
SPLINE
  5
138
100
AcDbEntity
  8
0
 62
7
100
AcDbSpline
 70
0
 71
3
 72
19
 73
15
 74
13
 40
0.000000
 40
0.000000
 40
0.000000
 40
0.000000
 40
0.130748
 40
0.257549
 40
0.388174
 40
0.518922
 40
0.645723
 40
0.776347
 40
0.907095
 40
1.033897
 40
1.164521
 40
1.295269
 40
1.422070
 40
1.552695
 40
1.552695
 40
1.552695
 40
1.552695
 10
190.250318
 20
-83.212940
 30
0.0
 10
190.294402
 20
-83.219812
 30
0.0
 10
190.381240
 20
-83.233349
 30
0.0
 10
190.476781
 20
-83.332892
 30
0.0
 10
190.512173
 20
-83.462685
 30
0.0
 10
190.476759
 20
-83.593858
 30
0.0
 10
190.381146
 20
-83.689321
 30
0.0
 10
190.250279
 20
-83.724740
 30
0.0
 10
190.119395
 20
-83.689300
 30
0.0
 10
190.023856
 20
-83.593763
 30
0.0
 10
189.988463
 20
-83.462608
 30
0.0
 10
190.023877
 20
-83.332798
 30
0.0
 10
190.119490
 20
-83.233330
 30
0.0
 10
190.206279
 20
-83.219804
 30
0.0
 10
190.250318
 20
-83.212940
 30
0.0
 11
190.250318
 21
-83.212940
 31
0.0
 11
190.376528
 21
-83.247089
 31
0.0
 11
190.466162
 21
-83.336779
 31
0.0
 11
190.500254
 21
-83.462876
 31
0.0
 11
190.466105
 21
-83.589086
 31
0.0
 11
190.376415
 21
-83.678720
 31
0.0
 11
190.250318
 21
-83.712812
 31
0.0
 11
190.124108
 21
-83.678663
 31
0.0
 11
190.034474
 21
-83.588973
 31
0.0
 11
190.000382
 21
-83.462876
 31
0.0
 11
190.034531
 21
-83.336666
 31
0.0
 11
190.124221
 21
-83.247032
 31
0.0
 11
190.250318
 21
-83.212940
 31
0.0
  0
LWPOLYLINE
  5
139
100
AcDbEntity
  8
0
 62
7
100
AcDbPolyline
 90
1
 70
1
 10
190.250318
 20
-83.212940
 30
0.0
  0
LWPOLYLINE
  5
13a
100
AcDbEntity
  8
0
 62
7
100
AcDbPolyline
 90
1
 70
1
 10
146.669506
 20
-164.540184
 30
0.0
  0
SPLINE
  5
13b
100
AcDbEntity
  8
0
 62
7
100
AcDbSpline
 70
0
 71
3
 72
19
 73
15
 74
13
 40
0.000000
 40
0.000000
 40
0.000000
 40
0.000000
 40
1.307199
 40
2.575650
 40
3.882848
 40
5.190047
 40
6.458498
 40
7.765697
 40
9.072841
 40
10.341252
 40
11.648480
 40
12.955678
 40
14.224130
 40
15.531328
 40
15.531328
 40
15.531328
 40
15.531328
 10
146.669506
 20
-164.540184
 30
0.0
 10
146.600786
 20
-164.099459
 30
0.0
 10
146.465383
 20
-163.231074
 30
0.0
 10
145.470048
 20
-162.275057
 30
0.0
 10
144.171679
 20
-161.920797
 30
0.0
 10
142.859676
 20
-162.275057
 30
0.0
 10
141.904432
 20
-163.231075
 30
0.0
 10
141.549909
 20
-164.540161
 30
0.0
 10
141.904428
 20
-165.849260
 30
0.0
 10
142.859717
 20
-166.805161
 30
0.0
 10
144.171656
 20
-167.159613
 30
0.0
 10
145.470052
 20
-166.805301
 30
0.0
 10
146.465383
 20
-165.849297
 30
0.0
 10
146.600786
 20
-164.980910
 30
0.0
 10
146.669506
 20
-164.540184
 30
0.0
 11
146.669506
 21
-164.540184
 31
0.0
 11
146.328158
 21
-163.278340
 31
0.0
 11
145.431228
 21
-162.381410
 31
0.0
 11
144.169384
 21
-162.040062
 31
0.0
 11
142.907540
 21
-162.381410
 31
0.0
 11
142.010610
 21
-163.278340
 31
0.0
 11
141.669262
 21
-164.540184
 31
0.0
 11
142.010610
 21
-165.801971
 31
0.0
 11
142.907540
 21
-166.698845
 31
0.0
 11
144.169384
 21
-167.040306
 31
0.0
 11
145.431228
 21
-166.698958
 31
0.0
 11
146.328158
 21
-165.802028
 31
0.0
 11
146.669506
 21
-164.540184
 31
0.0
  0
LWPOLYLINE
  5
13c
100
AcDbEntity
  8
0
 62
7
100
AcDbPolyline
 90
2
 70
0
 10
31.030164
 20
-77.586586
 30
0.0
 10
31.030164
 20
-73.267062
 30
0.0
  0
SPLINE
  5
13d
100
AcDbEntity
  8
0
 62
7
100
AcDbSpline
 70
0
 71
3
 72
13
 73
9
 74
7
 40
0.000000
 40
0.000000
 40
0.000000
 40
0.000000
 40
0.698663
 40
1.363856
 40
2.035844
 40
2.707973
 40
3.373252
 40
4.071973
 40
4.071973
 40
4.071973
 40
4.071973
 10
31.030164
 20
-77.586586
 30
0.0
 10
31.064786
 20
-77.822049
 30
0.0
 10
31.132372
 20
-78.281695
 30
0.0
 10
31.637649
 20
-78.797238
 30
0.0
 10
32.311372
 20
-78.992086
 30
0.0
 10
32.985215
 20
-78.797404
 30
0.0
 10
33.490554
 20
-78.281757
 30
0.0
 10
33.558146
 20
-77.822066
 30
0.0
 10
33.592770
 20
-77.586586
 30
0.0
 11
31.030164
 21
-77.586586
 31
0.0
 11
31.205123
 21
-78.262988
 31
0.0
 11
31.664788
 21
-78.743810
 31
0.0
 11
32.311340
 21
-78.926944
 31
0.0
 11
32.958071
 21
-78.743923
 31
0.0
 11
33.417802
 21
-78.263044
 31
0.0
 11
33.592770
 21
-77.586586
 31
0.0
  0
LWPOLYLINE
  5
13e
100
AcDbEntity
  8
0
 62
7
100
AcDbPolyline
 90
2
 70
0
 10
33.593024
 20
-77.586586
 30
0.0
 10
33.593024
 20
-73.267062
 30
0.0
  0
LWPOLYLINE
  5
13f
100
AcDbEntity
  8
0
 62
7
100
AcDbPolyline
 90
2
 70
0
 10
26.270204
 20
-78.217014
 30
0.0
 10
26.270204
 20
-78.477364
 30
0.0
  0
SPLINE
  5
140
100
AcDbEntity
  8
0
 62
7
100
AcDbSpline
 70
0
 71
3
 72
16
 73
12
 74
10
 40
0.000000
 40
0.000000
 40
0.000000
 40
0.000000
 40
0.467121
 40
0.923194
 40
1.378936
 40
1.828568
 40
2.269268
 40
2.718742
 40
3.174446
 40
3.630470
 40
4.097702
 40
4.097702
 40
4.097702
 40
4.097702
 10
33.593024
 20
-73.267062
 30
0.0
 10
33.577841
 20
-73.110617
 30
0.0
 10
33.547835
 20
-72.801428
 30
0.0
 10
33.313869
 20
-72.390748
 30
0.0
 10
32.969006
 20
-72.083865
 30
0.0
 10
32.539892
 20
-71.920062
 30
0.0
 10
32.083680
 20
-71.920025
 30
0.0
 10
31.654674
 20
-72.083923
 30
0.0
 10
31.309828
 20
-72.390678
 30
0.0
 10
31.075832
 20
-72.801364
 30
0.0
 10
31.045847
 20
-73.110578
 30
0.0
 10
31.030672
 20
-73.267062
 30
0.0
 11
33.593024
 21
-73.267062
 31
0.0
 11
33.515055
 21
-72.806494
 31
0.0
 11
33.294734
 21
-72.407169
 31
0.0
 11
32.952436
 21
-72.106282
 31
0.0
 11
32.532113
 21
-71.946601
 31
0.0
 11
32.091414
 21
-71.946601
 31
0.0
 11
31.671260
 21
-72.106282
 31
0.0
 11
31.328962
 21
-72.407112
 31
0.0
 11
31.108641
 21
-72.806381
 31
0.0
 11
31.030672
 21
-73.267062
 31
0.0
  0
LWPOLYLINE
  5
141
100
AcDbEntity
  8
0
 62
7
100
AcDbPolyline
 90
2
 70
0
 10
26.270204
 20
-78.347062
 30
0.0
 10
26.244042
 20
-69.086222
 30
0.0
  0
LWPOLYLINE
  5
142
100
AcDbEntity
  8
0
 62
7
100
AcDbPolyline
 90
2
 70
0
 10
28.307792
 20
-67.060318
 30
0.0
 10
33.961832
 20
-67.060318
 30
0.0
  0
SPLINE
  5
143
100
AcDbEntity
  8
0
 62
7
100
AcDbSpline
 70
0
 71
3
 72
13
 73
9
 74
7
 40
0.000000
 40
0.000000
 40
0.000000
 40
0.000000
 40
0.544398
 40
1.082040
 40
1.620403
 40
2.154483
 40
2.680227
 40
3.208192
 40
3.208192
 40
3.208192
 40
3.208192
 10
28.307792
 20
-67.060318
 30
0.0
 10
28.125816
 20
-67.073821
 30
0.0
 10
27.764124
 20
-67.100660
 30
0.0
 10
27.257958
 20
-67.313041
 30
0.0
 10
26.823043
 20
-67.636710
 30
0.0
 10
26.493518
 20
-68.062152
 30
0.0
 10
26.279276
 20
-68.556582
 30
0.0
 10
26.255973
 20
-68.909258
 30
0.0
 10
26.244296
 20
-69.085968
 30
0.0
 11
28.307792
 21
-67.060318
 31
0.0
 11
27.767863
 21
-67.129933
 31
0.0
 11
27.269534
 21
-67.331741
 31
0.0
 11
26.839164
 21
-67.655186
 31
0.0
 11
26.510977
 21
-68.076534
 31
0.0
 11
26.309169
 21
-68.562004
 31
0.0
 11
26.244296
 21
-69.085968
 31
0.0
  0
SPLINE
  5
144
100
AcDbEntity
  8
0
 62
7
100
AcDbSpline
 70
0
 71
3
 72
10
 73
6
 74
4
 40
0.000000
 40
0.000000
 40
0.000000
 40
0.000000
 40
1.249995
 40
2.377871
 40
3.447477
 40
3.447477
 40
3.447477
 40
3.447477
 10
196.672708
 20
-81.093056
 30
0.0
 10
197.040526
 20
-80.893685
 30
0.0
 10
197.740228
 20
-80.514421
 30
0.0
 10
198.491237
 20
-79.570740
 30
0.0
 10
198.595355
 20
-78.835323
 30
0.0
 10
198.646034
 20
-78.477364
 30
0.0
 11
196.672708
 21
-81.093056
 31
0.0
 11
197.725952
 21
-80.419881
 31
0.0
 11
198.405251
 21
-79.519517
 31
0.0
 11
198.646034
 21
-78.477364
 31
0.0
  0
SPLINE
  5
145
100
AcDbEntity
  8
0
 62
7
100
AcDbSpline
 70
0
 71
3
 72
10
 73
6
 74
4
 40
0.000000
 40
0.000000
 40
0.000000
 40
0.000000
 40
2.039801
 40
3.884911
 40
5.632632
 40
5.632632
 40
5.632632
 40
5.632632
 10
196.672708
 20
-81.093056
 30
0.0
 10
196.072077
 20
-81.417326
 30
0.0
 10
194.928143
 20
-82.034916
 30
0.0
 10
193.685903
 20
-83.558432
 30
0.0
 10
193.483939
 20
-84.754880
 30
0.0
 10
193.385694
 20
-85.336888
 30
0.0
 11
196.672708
 21
-81.093056
 31
0.0
 11
194.949977
 21
-82.185294
 31
0.0
 11
193.820137
 21
-83.644025
 31
0.0
 11
193.385694
 21
-85.336888
 31
0.0
  0
SPLINE
  5
146
100
AcDbEntity
  8
0
 62
7
100
AcDbSpline
 70
0
 71
3
 72
10
 73
6
 74
4
 40
0.000000
 40
0.000000
 40
0.000000
 40
0.000000
 40
0.935091
 40
1.869562
 40
2.803361
 40
2.803361
 40
2.803361
 40
2.803361
 10
193.311780
 20
-88.139270
 30
0.0
 10
193.320804
 20
-87.827704
 30
0.0
 10
193.338847
 20
-87.204777
 30
0.0
 10
193.363486
 20
-86.270647
 30
0.0
 10
193.378293
 20
-85.648066
 30
0.0
 10
193.385694
 20
-85.336888
 30
0.0
 11
193.311780
 21
-88.139270
 31
0.0
 11
193.338450
 21
-87.204559
 31
0.0
 11
193.363088
 21
-86.270413
 31
0.0
 11
193.385694
 21
-85.336888
 31
0.0
  0
SPLINE
  5
147
100
AcDbEntity
  8
0
 62
7
100
AcDbSpline
 70
0
 71
3
 72
10
 73
6
 74
4
 40
0.000000
 40
0.000000
 40
0.000000
 40
0.000000
 40
4.207837
 40
8.415880
 40
12.621870
 40
12.621870
 40
12.621870
 40
12.621870
 10
192.017904
 20
-108.093510
 30
0.0
 10
192.162165
 20
-106.698293
 30
0.0
 10
192.450695
 20
-103.907792
 30
0.0
 10
192.775647
 20
-99.712545
 30
0.0
 10
192.935131
 20
-96.912378
 30
0.0
 10
193.014854
 20
-95.512636
 30
0.0
 11
192.017904
 21
-108.093510
 31
0.0
 11
192.432724
 21
-103.906169
 31
0.0
 11
192.761409
 21
-99.710983
 31
0.0
 11
193.014854
 21
-95.512636
 31
0.0
  0
SPLINE
  5
148
100
AcDbEntity
  8
0
 62
7
100
AcDbSpline
 70
0
 71
3
 72
10
 73
6
 74
4
 40
0.000000
 40
0.000000
 40
0.000000
 40
0.000000
 40
4.201863
 40
8.403020
 40
12.605517
 40
12.605517
 40
12.605517
 40
12.605517
 10
188.520324
 20
-127.769620
 30
0.0
 10
188.855524
 20
-126.409593
 30
0.0
 10
189.525867
 20
-123.689767
 30
0.0
 10
190.360596
 20
-119.570168
 30
0.0
 10
190.817405
 20
-116.806339
 30
0.0
 10
191.045846
 20
-115.424204
 30
0.0
 11
188.520324
 21
-127.769620
 31
0.0
 11
189.497443
 21
-123.682948
 31
0.0
 11
190.335596
 21
-119.566248
 31
0.0
 11
191.045846
 21
-115.424204
 31
0.0
  0
SPLINE
  5
149
100
AcDbEntity
  8
0
 62
7
100
AcDbSpline
 70
0
 71
3
 72
13
 73
9
 74
7
 40
0.000000
 40
0.000000
 40
0.000000
 40
0.000000
 40
3.988892
 40
7.981120
 40
11.969965
 40
13.371859
 40
14.772409
 40
16.171916
 40
16.171916
 40
16.171916
 40
16.171916
 10
181.643274
 20
-146.512788
 30
0.0
 10
182.223687
 20
-145.316202
 30
0.0
 10
183.384998
 20
-142.922030
 30
0.0
 10
184.895343
 20
-139.226419
 30
0.0
 10
185.962320
 20
-136.285684
 30
0.0
 10
186.674809
 20
-134.136899
 30
0.0
 10
187.098778
 20
-132.801891
 30
0.0
 10
187.366297
 20
-131.907685
 30
0.0
 10
187.500006
 20
-131.460748
 30
0.0
 11
181.643274
 21
-146.512788
 31
0.0
 11
183.345977
 21
-142.905565
 31
0.0
 11
184.870880
 21
-139.216045
 31
0.0
 11
186.230514
 21
-135.466074
 31
0.0
 11
186.672135
 21
-134.135556
 31
0.0
 11
187.095130
 21
-132.800410
 31
0.0
 11
187.500006
 21
-131.460748
 31
0.0
  0
SPLINE
  5
14a
100
AcDbEntity
  8
0
 62
7
100
AcDbSpline
 70
0
 71
3
 72
13
 73
9
 74
7
 40
0.000000
 40
0.000000
 40
0.000000
 40
0.000000
 40
1.577468
 40
3.153561
 40
4.728280
 40
7.945174
 40
11.161286
 40
14.380288
 40
14.380288
 40
14.380288
 40
14.380288
 10
171.241720
 20
-161.368486
 30
0.0
 10
171.604663
 20
-160.987961
 30
0.0
 10
172.330233
 20
-160.227243
 30
0.0
 10
173.376303
 20
-159.047908
 30
0.0
 10
174.742005
 20
-157.422740
 30
0.0
 10
176.365020
 20
-155.301850
 30
0.0
 10
178.185573
 20
-152.646492
 30
0.0
 10
179.281164
 20
-150.801807
 30
0.0
 10
179.829206
 20
-149.879050
 30
0.0
 11
171.241720
 21
-161.368486
 31
0.0
 11
172.323572
 21
-160.220444
 31
0.0
 11
173.371275
 21
-159.042994
 31
0.0
 11
174.383700
 21
-157.836870
 31
0.0
 11
176.342557
 21
-155.285148
 31
0.0
 11
178.155506
 21
-152.628722
 31
0.0
 11
179.829206
 21
-149.879050
 31
0.0
  0
SPLINE
  5
14b
100
AcDbEntity
  8
0
 62
7
100
AcDbSpline
 70
0
 71
3
 72
13
 73
9
 74
7
 40
0.000000
 40
0.000000
 40
0.000000
 40
0.000000
 40
1.009879
 40
2.020114
 40
3.030828
 40
6.818132
 40
10.610797
 40
14.405448
 40
14.405448
 40
14.405448
 40
14.405448
 10
153.483818
 20
-173.777656
 30
0.0
 10
153.790443
 20
-173.638718
 30
0.0
 10
154.403802
 20
-173.360793
 30
0.0
 10
155.314773
 20
-172.923822
 30
0.0
 10
157.046729
 20
-172.058342
 30
0.0
 10
159.551283
 20
-170.666252
 30
0.0
 10
162.750444
 20
-168.623731
 30
0.0
 10
164.761986
 20
-167.089204
 30
0.0
 10
165.768020
 20
-166.321740
 30
0.0
 11
153.483818
 21
-173.777656
 31
0.0
 11
154.402150
 21
-173.357512
 31
0.0
 11
155.313427
 21
-172.921450
 31
0.0
 11
156.217366
 21
-172.469302
 31
0.0
 11
159.530250
 21
-170.633964
 31
0.0
 11
162.719296
 21
-168.581089
 31
0.0
 11
165.768020
 21
-166.321740
 31
0.0
  0
SPLINE
  5
14c
100
AcDbEntity
  8
0
 62
7
100
AcDbSpline
 70
0
 71
3
 72
13
 73
9
 74
7
 40
0.000000
 40
0.000000
 40
0.000000
 40
0.000000
 40
0.891043
 40
1.782417
 40
2.674204
 40
6.701613
 40
10.734072
 40
14.768172
 40
14.768172
 40
14.768172
 40
14.768172
 10
135.675878
 20
-178.935126
 30
0.0
 10
135.968987
 20
-178.887100
 30
0.0
 10
136.555313
 20
-178.791031
 30
0.0
 10
137.433036
 20
-178.635334
 30
0.0
 10
139.336728
 20
-178.278272
 30
0.0
 10
142.251688
 20
-177.635871
 30
0.0
 10
146.144741
 20
-176.576386
 30
0.0
 10
148.679829
 20
-175.677690
 30
0.0
 10
149.947630
 20
-175.228250
 30
0.0
 11
135.675878
 21
-178.935126
 31
0.0
 11
136.554878
 21
-178.789123
 31
0.0
 11
137.432636
 21
-178.633920
 31
0.0
 11
138.309096
 21
-178.469290
 31
0.0
 11
142.242531
 21
-177.604354
 31
0.0
 11
146.128834
 21
-176.528542
 31
0.0
 11
149.947630
 21
-175.228250
 31
0.0
  0
SPLINE
  5
14d
100
AcDbEntity
  8
0
 62
7
100
AcDbSpline
 70
0
 71
3
 72
10
 73
6
 74
4
 40
0.000000
 40
0.000000
 40
0.000000
 40
0.000000
 40
4.688305
 40
9.367921
 40
14.037967
 40
14.037967
 40
14.037967
 40
14.037967
 10
114.345720
 20
-180.378608
 30
0.0
 10
115.908414
 20
-180.363684
 30
0.0
 10
119.030907
 20
-180.333865
 30
0.0
 10
123.708738
 20
-180.175209
 30
0.0
 10
126.816849
 20
-179.942260
 30
0.0
 10
128.369314
 20
-179.825904
 30
0.0
 11
114.345720
 21
-180.378608
 31
0.0
 11
119.033591
 21
-180.314788
 31
0.0
 11
123.710060
 21
-180.143216
 31
0.0
 11
128.369314
 21
-179.825904
 31
0.0
  0
SPLINE
  5
14e
100
AcDbEntity
  8
0
 62
7
100
AcDbSpline
 70
0
 71
3
 72
10
 73
6
 74
4
 40
0.000000
 40
0.000000
 40
0.000000
 40
0.000000
 40
4.752340
 40
9.513546
 40
14.280413
 40
14.280413
 40
14.280413
 40
14.280413
 10
96.244918
 20
-179.788820
 30
0.0
 10
97.824452
 20
-179.911086
 30
0.0
 10
100.986466
 20
-180.155847
 30
0.0
 10
105.744864
 20
-180.324991
 30
0.0
 10
108.920698
 20
-180.359205
 30
0.0
 10
110.509558
 20
-180.376322
 30
0.0
 11
96.244918
 21
-179.788820
 31
0.0
 11
100.985518
 21
-180.122661
 31
0.0
 11
105.743220
 21
-180.305287
 31
0.0
 11
110.509558
 21
-180.376322
 31
0.0
  0
SPLINE
  5
14f
100
AcDbEntity
  8
0
 62
7
100
AcDbSpline
 70
0
 71
3
 72
13
 73
9
 74
7
 40
0.000000
 40
0.000000
 40
0.000000
 40
0.000000
 40
2.252404
 40
4.501801
 40
6.746265
 40
9.340097
 40
11.928153
 40
14.513230
 40
14.513230
 40
14.513230
 40
14.513230
 10
74.912474
 20
-175.198278
 30
0.0
 10
75.617915
 20
-175.455494
 30
0.0
 10
77.027857
 20
-175.969581
 30
0.0
 10
79.171579
 20
-176.650807
 30
0.0
 10
81.443684
 20
-177.299495
 30
0.0
 10
83.847013
 20
-177.894715
 30
0.0
 10
86.379362
 20
-178.436460
 30
0.0
 10
88.078740
 20
-178.729844
 30
0.0
 10
88.927940
 20
-178.876452
 30
0.0
 11
74.912474
 21
-175.198278
 31
0.0
 11
77.033948
 21
-175.955029
 31
0.0
 11
79.176306
 21
-176.640659
 31
0.0
 11
81.334864
 21
-177.255678
 31
0.0
 11
83.852023
 21
-177.881675
 31
0.0
 11
86.383519
 21
-178.419788
 31
0.0
 11
88.927940
 21
-178.876452
 31
0.0
  0
SPLINE
  5
150
100
AcDbEntity
  8
0
 62
7
100
AcDbSpline
 70
0
 71
3
 72
10
 73
6
 74
4
 40
0.000000
 40
0.000000
 40
0.000000
 40
0.000000
 40
4.804737
 40
9.624430
 40
14.456917
 40
14.456917
 40
14.456917
 40
14.456917
 10
59.004962
 20
-166.333678
 30
0.0
 10
60.286558
 20
-167.295491
 30
0.0
 10
62.853740
 20
-169.222110
 30
0.0
 10
67.006572
 20
-171.689388
 30
0.0
 10
69.917074
 20
-173.062841
 30
0.0
 10
71.374254
 20
-173.750478
 30
0.0
 11
59.004962
 21
-166.333678
 31
0.0
 11
62.898970
 21
-169.148318
 31
0.0
 11
67.037270
 21
-171.618929
 31
0.0
 11
71.374254
 21
-173.750478
 31
0.0
  0
SPLINE
  5
151
100
AcDbEntity
  8
0
 62
7
100
AcDbSpline
 70
0
 71
3
 72
10
 73
6
 74
4
 40
0.000000
 40
0.000000
 40
0.000000
 40
0.000000
 40
4.776889
 40
9.539104
 40
14.283843
 40
14.283843
 40
14.283843
 40
14.283843
 10
45.084746
 20
-149.831552
 30
0.0
 10
45.913283
 20
-151.191696
 30
0.0
 10
47.567811
 20
-153.907806
 30
0.0
 10
50.383891
 20
-157.758374
 30
0.0
 10
52.496302
 20
-160.122368
 30
0.0
 10
53.550566
 20
-161.302192
 30
0.0
 11
45.084746
 21
-149.831552
 31
0.0
 11
47.627060
 21
-153.875721
 31
0.0
 11
50.447081
 21
-157.713191
 31
0.0
 11
53.550566
 21
-161.302192
 31
0.0
  0
SPLINE
  5
152
100
AcDbEntity
  8
0
 62
7
100
AcDbSpline
 70
0
 71
3
 72
13
 73
9
 74
7
 40
0.000000
 40
0.000000
 40
0.000000
 40
0.000000
 40
3.328174
 40
6.662130
 40
10.005668
 40
12.057920
 40
14.113851
 40
16.172077
 40
16.172077
 40
16.172077
 40
16.172077
 10
37.282882
 20
-131.469384
 30
0.0
 10
37.608956
 20
-132.529894
 30
0.0
 10
38.261670
 20
-134.652755
 30
0.0
 10
39.384336
 20
-137.794487
 30
0.0
 10
40.459819
 20
-140.499096
 30
0.0
 10
41.453735
 20
-142.775698
 30
0.0
 10
42.319716
 20
-144.640221
 30
0.0
 10
42.938166
 20
-145.864326
 30
0.0
 10
43.247564
 20
-146.476720
 30
0.0
 11
37.282882
 21
-131.469384
 31
0.0
 11
38.284761
 21
-134.643180
 31
0.0
 11
39.401562
 21
-137.784520
 31
0.0
 11
40.640000
 21
-140.890244
 31
0.0
 11
41.460476
 21
-142.771349
 31
0.0
 11
42.329552
 21
-144.634561
 31
0.0
 11
43.247564
 21
-146.476720
 31
0.0
  0
SPLINE
  5
153
100
AcDbEntity
  8
0
 62
7
100
AcDbSpline
 70
0
 71
3
 72
10
 73
6
 74
4
 40
0.000000
 40
0.000000
 40
0.000000
 40
0.000000
 40
4.200980
 40
8.397686
 40
12.591460
 40
12.591460
 40
12.591460
 40
12.591460
 10
33.789874
 20
-115.437666
 30
0.0
 10
34.010522
 20
-116.820554
 30
0.0
 10
34.451594
 20
-119.584923
 30
0.0
 10
35.266857
 20
-123.703784
 30
0.0
 10
35.930739
 20
-126.420923
 30
0.0
 10
36.262564
 20
-127.779018
 30
0.0
 11
33.789874
 21
-115.437666
 31
0.0
 11
34.477508
 21
-119.581986
 31
0.0
 11
35.297223
 21
-123.697859
 31
0.0
 11
36.262564
 21
-127.779018
 31
0.0
  0
SPLINE
  5
154
100
AcDbEntity
  8
0
 62
7
100
AcDbSpline
 70
0
 71
3
 72
10
 73
6
 74
4
 40
0.000000
 40
0.000000
 40
0.000000
 40
0.000000
 40
4.187714
 40
8.381111
 40
12.576300
 40
12.576300
 40
12.576300
 40
12.576300
 10
31.906718
 20
-95.548196
 30
0.0
 10
31.984609
 20
-96.941934
 30
0.0
 10
32.140496
 20
-99.731300
 30
0.0
 10
32.448529
 20
-103.912503
 30
0.0
 10
32.721625
 20
-106.695409
 30
0.0
 10
32.858202
 20
-108.087160
 30
0.0
 11
31.906718
 21
-95.548196
 31
0.0
 11
32.152722
 21
-99.728679
 31
0.0
 11
32.465386
 21
-103.910403
 31
0.0
 11
32.858202
 21
-108.087160
 31
0.0
  0
LWPOLYLINE
  5
155
100
AcDbEntity
  8
0
 62
7
100
AcDbPolyline
 90
2
 70
0
 10
198.646034
 20
-78.217014
 30
0.0
 10
198.646034
 20
-78.477364
 30
0.0
  0
LWPOLYLINE
  5
156
100
AcDbEntity
  8
0
 62
7
100
AcDbPolyline
 90
2
 70
0
 10
36.262818
 20
-127.779018
 30
0.0
 10
37.282882
 20
-131.469384
 30
0.0
  0
LWPOLYLINE
  5
157
100
AcDbEntity
  8
0
 62
7
100
AcDbPolyline
 90
2
 70
0
 10
188.551058
 20
-127.696214
 30
0.0
 10
187.500260
 20
-131.460748
 30
0.0
  0
LWPOLYLINE
  5
158
100
AcDbEntity
  8
0
 62
7
100
AcDbPolyline
 90
2
 70
0
 10
181.643274
 20
-146.512788
 30
0.0
 10
179.829460
 20
-149.879050
 30
0.0
  0
LWPOLYLINE
  5
159
100
AcDbEntity
  8
0
 62
7
100
AcDbPolyline
 90
2
 70
0
 10
43.247564
 20
-146.476720
 30
0.0
 10
45.084746
 20
-149.831552
 30
0.0
  0
SPLINE
  5
15a
100
AcDbEntity
  8
0
 62
7
100
AcDbSpline
 70
0
 71
3
 72
13
 73
9
 74
7
 40
0.000000
 40
0.000000
 40
0.000000
 40
0.000000
 40
0.768100
 40
1.536224
 40
2.304263
 40
4.283807
 40
6.227532
 40
8.207110
 40
8.207110
 40
8.207110
 40
8.207110
 10
31.591758
 20
-88.135460
 30
0.0
 10
31.583296
 20
-87.879574
 30
0.0
 10
31.566373
 20
-87.367794
 30
0.0
 10
31.536268
 20
-86.600174
 30
0.0
 10
31.527934
 20
-85.428528
 30
0.0
 10
31.194727
 20
-83.868745
 30
0.0
 10
30.016381
 20
-82.192380
 30
0.0
 10
28.834694
 20
-81.595428
 30
0.0
 10
28.238450
 20
-81.294224
 30
0.0
 11
31.591758
 21
-88.135460
 31
0.0
 11
31.565587
 21
-87.367806
 31
0.0
 11
31.540375
 21
-86.600096
 31
0.0
 11
31.516066
 21
-85.832442
 31
0.0
 11
31.063739
 21
-83.905269
 31
0.0
 11
29.925725
 21
-82.329519
 31
0.0
 11
28.238450
 21
-81.294224
 31
0.0
  0
LWPOLYLINE
  5
15b
100
AcDbEntity
  8
0
 62
7
100
AcDbPolyline
 90
2
 70
0
 10
195.903850
 20
-87.486998
 30
0.0
 10
193.311780
 20
-88.139270
 30
0.0
  0
SPLINE
  5
15c
100
AcDbEntity
  8
0
 62
7
100
AcDbSpline
 70
0
 71
3
 72
10
 73
6
 74
4
 40
0.000000
 40
0.000000
 40
0.000000
 40
0.000000
 40
0.187979
 40
0.375155
 40
0.563182
 40
0.563182
 40
0.563182
 40
0.563182
 10
196.460110
 20
-87.506556
 30
0.0
 10
196.399448
 20
-87.490384
 30
0.0
 10
196.278384
 20
-87.458108
 30
0.0
 10
196.088596
 20
-87.451356
 30
0.0
 10
195.965525
 20
-87.474930
 30
0.0
 10
195.903850
 20
-87.486744
 30
0.0
 11
196.460110
 21
-87.506556
 31
0.0
 11
196.276778
 21
-87.465013
 31
0.0
 11
196.089722
 21
-87.458352
 31
0.0
 11
195.903850
 21
-87.486744
 31
0.0
  0
LWPOLYLINE
  5
15d
100
AcDbEntity
  8
0
 62
7
100
AcDbPolyline
 90
2
 70
0
 10
197.148196
 20
-87.732616
 30
0.0
 10
196.460110
 20
-87.506556
 30
0.0
  0
SPLINE
  5
15e
100
AcDbEntity
  8
0
 62
7
100
AcDbSpline
 70
0
 71
3
 72
10
 73
6
 74
4
 40
0.000000
 40
0.000000
 40
0.000000
 40
0.000000
 40
0.430415
 40
0.851791
 40
1.282338
 40
1.282338
 40
1.282338
 40
1.282338
 10
197.835520
 20
-88.721692
 30
0.0
 10
197.822530
 20
-88.577172
 30
0.0
 10
197.796824
 20
-88.291168
 30
0.0
 10
197.538276
 20
-87.919283
 30
0.0
 10
197.279153
 20
-87.795452
 30
0.0
 10
197.148196
 20
-87.732870
 30
0.0
 11
197.835520
 21
-88.721692
 31
0.0
 11
197.759264
 21
-88.298086
 31
0.0
 11
197.518754
 21
-87.952091
 31
0.0
 11
197.148196
 21
-87.732870
 31
0.0
  0
LWPOLYLINE
  5
15f
100
AcDbEntity
  8
0
 62
7
100
AcDbPolyline
 90
2
 70
0
 10
197.718426
 20
-91.736926
 30
0.0
 10
197.835520
 20
-88.721692
 30
0.0
  0
SPLINE
  5
160
100
AcDbEntity
  8
0
 62
7
100
AcDbSpline
 70
0
 71
3
 72
10
 73
6
 74
4
 40
0.000000
 40
0.000000
 40
0.000000
 40
0.000000
 40
0.429890
 40
0.850707
 40
1.280498
 40
1.280498
 40
1.280498
 40
1.280498
 10
196.759830
 20
-96.196658
 30
0.0
 10
196.894950
 20
-96.144275
 30
0.0
 10
197.162337
 20
-96.040615
 30
0.0
 10
197.448069
 20
-95.690103
 30
0.0
 10
197.495721
 20
-95.407347
 30
0.0
 10
197.519798
 20
-95.264478
 30
0.0
 11
196.759830
 21
-96.196658
 31
0.0
 11
197.145383
 21
-96.006515
 31
0.0
 11
197.411274
 21
-95.680342
 31
0.0
 11
197.519798
 21
-95.264478
 31
0.0
  0
LWPOLYLINE
  5
161
100
AcDbEntity
  8
0
 62
7
100
AcDbPolyline
 90
2
 70
0
 10
196.055234
 20
-96.370394
 30
0.0
 10
196.759830
 20
-96.196658
 30
0.0
  0
LWPOLYLINE
  5
162
100
AcDbEntity
  8
0
 62
7
100
AcDbPolyline
 90
2
 70
0
 10
192.979802
 20
-95.500952
 30
0.0
 10
195.497450
 20
-96.347280
 30
0.0
  0
LWPOLYLINE
  5
163
100
AcDbEntity
  8
0
 62
7
100
AcDbPolyline
 90
2
 70
0
 10
197.718426
 20
-91.736926
 30
0.0
 10
197.519798
 20
-95.264478
 30
0.0
  0
SPLINE
  5
164
100
AcDbEntity
  8
0
 62
7
100
AcDbSpline
 70
0
 71
3
 72
10
 73
6
 74
4
 40
0.000000
 40
0.000000
 40
0.000000
 40
0.000000
 40
0.188518
 40
0.376302
 40
0.564944
 40
0.564944
 40
0.564944
 40
0.564944
 10
195.497450
 20
-96.347280
 30
0.0
 10
195.558167
 20
-96.363942
 30
0.0
 10
195.679364
 20
-96.397201
 30
0.0
 10
195.869732
 20
-96.405127
 30
0.0
 10
195.993306
 20
-96.381989
 30
0.0
 10
196.055234
 20
-96.370394
 30
0.0
 11
195.497450
 21
-96.347280
 31
0.0
 11
195.681007
 21
-96.390244
 31
0.0
 11
195.868629
 21
-96.398042
 31
0.0
 11
196.055234
 21
-96.370394
 31
0.0
  0
LWPOLYLINE
  5
165
100
AcDbEntity
  8
0
 62
7
100
AcDbPolyline
 90
2
 70
0
 10
194.661536
 20
-107.699810
 30
0.0
 10
192.017904
 20
-108.093510
 30
0.0
  0
SPLINE
  5
166
100
AcDbEntity
  8
0
 62
7
100
AcDbSpline
 70
0
 71
3
 72
10
 73
6
 74
4
 40
0.000000
 40
0.000000
 40
0.000000
 40
0.000000
 40
0.187968
 40
0.375241
 40
0.563303
 40
0.563303
 40
0.563303
 40
0.563303
 10
195.213224
 20
-107.773978
 30
0.0
 10
195.154466
 20
-107.751876
 30
0.0
 10
195.037168
 20
-107.707754
 30
0.0
 10
194.848911
 20
-107.682335
 30
0.0
 10
194.724082
 20
-107.693808
 30
0.0
 10
194.661536
 20
-107.699556
 30
0.0
 11
195.213224
 21
-107.773978
 31
0.0
 11
195.034916
 21
-107.714495
 31
0.0
 11
194.849327
 21
-107.689443
 31
0.0
 11
194.661536
 21
-107.699556
 31
0.0
  0
LWPOLYLINE
  5
167
100
AcDbEntity
  8
0
 62
7
100
AcDbPolyline
 90
2
 70
0
 10
195.875656
 20
-108.066840
 30
0.0
 10
195.213224
 20
-107.773978
 30
0.0
  0
SPLINE
  5
168
100
AcDbEntity
  8
0
 62
7
100
AcDbSpline
 70
0
 71
3
 72
10
 73
6
 74
4
 40
0.000000
 40
0.000000
 40
0.000000
 40
0.000000
 40
0.430456
 40
0.851863
 40
1.282352
 40
1.282352
 40
1.282352
 40
1.282352
 10
196.462142
 20
-109.118654
 30
0.0
 10
196.463462
 20
-108.973542
 30
0.0
 10
196.466076
 20
-108.686367
 30
0.0
 10
196.245387
 20
-108.290842
 30
0.0
 10
195.999773
 20
-108.142036
 30
0.0
 10
195.875656
 20
-108.066840
 30
0.0
 11
196.462142
 21
-109.118654
 31
0.0
 11
196.428003
 21
-108.689554
 31
0.0
 11
196.222723
 21
-108.321527
 31
0.0
 11
195.875656
 21
-108.066840
 31
0.0
  0
LWPOLYLINE
  5
169
100
AcDbEntity
  8
0
 62
7
100
AcDbPolyline
 90
2
 70
0
 10
196.048376
 20
-112.107726
 30
0.0
 10
196.462142
 20
-109.118654
 30
0.0
  0
SPLINE
  5
16a
100
AcDbEntity
  8
0
 62
7
100
AcDbSpline
 70
0
 71
3
 72
10
 73
6
 74
4
 40
0.000000
 40
0.000000
 40
0.000000
 40
0.000000
 40
0.429831
 40
0.850587
 40
1.280409
 40
1.280409
 40
1.280409
 40
1.280409
 10
194.655186
 20
-116.451380
 30
0.0
 10
194.794794
 20
-116.412579
 30
0.0
 10
195.071064
 20
-116.335798
 30
0.0
 10
195.389905
 20
-116.015164
 30
0.0
 10
195.465229
 20
-115.738506
 30
0.0
 10
195.503292
 20
-115.598702
 30
0.0
 11
194.655186
 21
-116.451380
 31
0.0
 11
195.057550
 21
-116.300194
 31
0.0
 11
195.354250
 21
-116.001856
 31
0.0
 11
195.503292
 21
-115.598702
 31
0.0
  0
LWPOLYLINE
  5
16b
100
AcDbEntity
  8
0
 62
7
100
AcDbPolyline
 90
2
 70
0
 10
193.936874
 20
-116.554758
 30
0.0
 10
194.655186
 20
-116.451380
 30
0.0
  0
LWPOLYLINE
  5
16c
100
AcDbEntity
  8
0
 62
7
100
AcDbPolyline
 90
2
 70
0
 10
190.962026
 20
-115.386612
 30
0.0
 10
193.384170
 20
-116.476780
 30
0.0
  0
LWPOLYLINE
  5
16d
100
AcDbEntity
  8
0
 62
7
100
AcDbPolyline
 90
2
 70
0
 10
196.048376
 20
-112.107726
 30
0.0
 10
195.503292
 20
-115.598702
 30
0.0
  0
SPLINE
  5
16e
100
AcDbEntity
  8
0
 62
7
100
AcDbSpline
 70
0
 71
3
 72
10
 73
6
 74
4
 40
0.000000
 40
0.000000
 40
0.000000
 40
0.000000
 40
0.188514
 40
0.376269
 40
0.564885
 40
0.564885
 40
0.564885
 40
0.564885
 10
193.384170
 20
-116.476780
 30
0.0
 10
193.442938
 20
-116.499371
 30
0.0
 10
193.560237
 20
-116.544463
 30
0.0
 10
193.748884
 20
-116.571123
 30
0.0
 10
193.874115
 20
-116.560221
 30
0.0
 10
193.936874
 20
-116.554758
 30
0.0
 11
193.384170
 21
-116.476780
 31
0.0
 11
193.562572
 21
-116.537693
 31
0.0
 11
193.748481
 21
-116.563949
 31
0.0
 11
193.936874
 21
-116.554758
 31
0.0
  0
LWPOLYLINE
  5
16f
100
AcDbEntity
  8
0
 62
7
100
AcDbPolyline
 90
2
 70
0
 10
173.522640
 20
-162.768026
 30
0.0
 10
171.241720
 20
-161.374582
 30
0.0
  0
SPLINE
  5
170
100
AcDbEntity
  8
0
 62
7
100
AcDbSpline
 70
0
 71
3
 72
10
 73
6
 74
4
 40
0.000000
 40
0.000000
 40
0.000000
 40
0.000000
 40
0.188082
 40
0.375222
 40
0.563242
 40
0.563242
 40
0.563242
 40
0.563242
 10
173.898052
 20
-163.178744
 30
0.0
 10
173.867142
 20
-163.124059
 30
0.0
 10
173.805476
 20
-163.014963
 30
0.0
 10
173.677347
 20
-162.874746
 30
0.0
 10
173.574290
 20
-162.803486
 30
0.0
 10
173.522640
 20
-162.767772
 30
0.0
 11
173.898052
 21
-163.178744
 31
0.0
 11
173.799368
 21
-163.018630
 31
0.0
 11
173.673140
 21
-162.880473
 31
0.0
 11
173.522640
 21
-162.767772
 31
0.0
  0
LWPOLYLINE
  5
171
100
AcDbEntity
  8
0
 62
7
100
AcDbPolyline
 90
2
 70
0
 10
174.218600
 20
-163.828222
 30
0.0
 10
173.898052
 20
-163.178744
 30
0.0
  0
SPLINE
  5
172
100
AcDbEntity
  8
0
 62
7
100
AcDbSpline
 70
0
 71
3
 72
10
 73
6
 74
4
 40
0.000000
 40
0.000000
 40
0.000000
 40
0.000000
 40
0.430379
 40
0.851690
 40
1.282131
 40
1.282131
 40
1.282131
 40
1.282131
 10
173.994064
 20
-165.011354
 30
0.0
 10
174.088130
 20
-164.900892
 30
0.0
 10
174.274281
 20
-164.682294
 30
0.0
 10
174.358763
 20
-164.237373
 30
0.0
 10
174.265654
 20
-163.965746
 30
0.0
 10
174.218600
 20
-163.828476
 30
0.0
 11
173.994064
 21
-165.011354
 31
0.0
 11
174.243059
 21
-164.660317
 31
0.0
 11
174.321649
 21
-164.246400
 31
0.0
 11
174.218600
 21
-163.828476
 31
0.0
  0
LWPOLYLINE
  5
173
100
AcDbEntity
  8
0
 62
7
100
AcDbPolyline
 90
2
 70
0
 10
171.759880
 20
-167.039290
 30
0.0
 10
173.994064
 20
-165.011354
 30
0.0
  0
SPLINE
  5
174
100
AcDbEntity
  8
0
 62
7
100
AcDbSpline
 70
0
 71
3
 72
10
 73
6
 74
4
 40
0.000000
 40
0.000000
 40
0.000000
 40
0.000000
 40
0.429863
 40
0.850668
 40
1.280438
 40
1.280438
 40
1.280438
 40
1.280438
 10
167.904922
 20
-169.478706
 30
0.0
 10
168.036933
 20
-169.538465
 30
0.0
 10
168.298173
 20
-169.656725
 30
0.0
 10
168.748462
 20
-169.615296
 30
0.0
 10
168.983682
 20
-169.451321
 30
0.0
 10
169.102532
 20
-169.368470
 30
0.0
 11
167.904922
 21
-169.478706
 31
0.0
 11
168.310635
 21
-169.620758
 31
0.0
 11
168.729669
 21
-169.582187
 31
0.0
 11
169.102532
 21
-169.368470
 31
0.0
  0
LWPOLYLINE
  5
175
100
AcDbEntity
  8
0
 62
7
100
AcDbPolyline
 90
2
 70
0
 10
167.287448
 20
-169.097452
 30
0.0
 10
167.904922
 20
-169.478706
 30
0.0
  0
LWPOLYLINE
  5
176
100
AcDbEntity
  8
0
 62
7
100
AcDbPolyline
 90
2
 70
0
 10
165.754304
 20
-166.293292
 30
0.0
 10
166.913306
 20
-168.682924
 30
0.0
  0
LWPOLYLINE
  5
177
100
AcDbEntity
  8
0
 62
7
100
AcDbPolyline
 90
2
 70
0
 10
171.759880
 20
-167.039290
 30
0.0
 10
169.102532
 20
-169.368470
 30
0.0
  0
SPLINE
  5
178
100
AcDbEntity
  8
0
 62
7
100
AcDbSpline
 70
0
 71
3
 72
10
 73
6
 74
4
 40
0.000000
 40
0.000000
 40
0.000000
 40
0.000000
 40
0.188646
 40
0.376410
 40
0.564930
 40
0.564930
 40
0.564930
 40
0.564930
 10
166.913306
 20
-168.682924
 30
0.0
 10
166.943934
 20
-168.737984
 30
0.0
 10
167.005046
 20
-168.847845
 30
0.0
 10
167.132735
 20
-168.989268
 30
0.0
 10
167.235808
 20
-169.061173
 30
0.0
 10
167.287448
 20
-169.097198
 30
0.0
 11
166.913306
 21
-168.682924
 31
0.0
 11
167.011209
 21
-168.844176
 31
0.0
 11
167.137052
 21
-168.983528
 31
0.0
 11
167.287448
 21
-169.097198
 31
0.0
  0
LWPOLYLINE
  5
179
100
AcDbEntity
  8
0
 62
7
100
AcDbPolyline
 90
2
 70
0
 10
136.771126
 20
-181.396132
 30
0.0
 10
135.675878
 20
-178.957986
 30
0.0
  0
SPLINE
  5
17a
100
AcDbEntity
  8
0
 62
7
100
AcDbSpline
 70
0
 71
3
 72
10
 73
6
 74
4
 40
0.000000
 40
0.000000
 40
0.000000
 40
0.000000
 40
0.187912
 40
0.375073
 40
0.562949
 40
0.562949
 40
0.562949
 40
0.562949
 10
136.848850
 20
-181.947312
 30
0.0
 10
136.854139
 20
-181.884780
 30
0.0
 10
136.864695
 20
-181.759966
 30
0.0
 10
136.838316
 20
-181.571977
 30
0.0
 10
136.793551
 20
-181.454991
 30
0.0
 10
136.771126
 20
-181.396386
 30
0.0
 11
136.848850
 21
-181.947312
 31
0.0
 11
136.857655
 21
-181.759606
 31
0.0
 11
136.831578
 21
-181.574271
 31
0.0
 11
136.771126
 21
-181.396386
 31
0.0
  0
LWPOLYLINE
  5
17b
100
AcDbEntity
  8
0
 62
7
100
AcDbPolyline
 90
2
 70
0
 10
136.746234
 20
-182.664354
 30
0.0
 10
136.848850
 20
-181.947312
 30
0.0
  0
SPLINE
  5
17c
100
AcDbEntity
  8
0
 62
7
100
AcDbSpline
 70
0
 71
3
 72
10
 73
6
 74
4
 40
0.000000
 40
0.000000
 40
0.000000
 40
0.000000
 40
0.430417
 40
0.851832
 40
1.282387
 40
1.282387
 40
1.282387
 40
1.282387
 10
135.892794
 20
-183.513476
 30
0.0
 10
136.032838
 20
-183.475483
 30
0.0
 10
136.309996
 20
-183.400290
 30
0.0
 10
136.631024
 20
-183.080743
 30
0.0
 10
136.707726
 20
-182.803971
 30
0.0
 10
136.746488
 20
-182.664100
 30
0.0
 11
135.892794
 21
-183.513476
 31
0.0
 11
136.296607
 21
-183.364500
 31
0.0
 11
136.595320
 21
-183.067245
 31
0.0
 11
136.746488
 21
-182.664100
 31
0.0
  0
LWPOLYLINE
  5
17d
100
AcDbEntity
  8
0
 62
7
100
AcDbPolyline
 90
2
 70
0
 10
132.903468
 20
-183.925210
 30
0.0
 10
135.892794
 20
-183.513476
 30
0.0
  0
SPLINE
  5
17e
100
AcDbEntity
  8
0
 62
7
100
AcDbSpline
 70
0
 71
3
 72
10
 73
6
 74
4
 40
0.000000
 40
0.000000
 40
0.000000
 40
0.000000
 40
0.429852
 40
0.850711
 40
1.280399
 40
1.280399
 40
1.280399
 40
1.280399
 10
128.344422
 20
-183.760618
 30
0.0
 10
128.419613
 20
-183.884487
 30
0.0
 10
128.568421
 20
-184.129635
 30
0.0
 10
128.963416
 20
-184.349720
 30
0.0
 10
129.250124
 20
-184.347307
 30
0.0
 10
129.394966
 20
-184.346088
 30
0.0
 11
128.344422
 21
-183.760618
 31
0.0
 11
128.599005
 21
-184.106971
 31
0.0
 11
128.966647
 21
-184.311817
 31
0.0
 11
129.394966
 21
-184.346088
 31
0.0
  0
LWPOLYLINE
  5
17f
100
AcDbEntity
  8
0
 62
7
100
AcDbPolyline
 90
2
 70
0
 10
128.050798
 20
-183.096916
 30
0.0
 10
128.344422
 20
-183.760618
 30
0.0
  0
LWPOLYLINE
  5
180
100
AcDbEntity
  8
0
 62
7
100
AcDbPolyline
 90
2
 70
0
 10
128.369314
 20
-179.917090
 30
0.0
 10
127.975868
 20
-182.543704
 30
0.0
  0
LWPOLYLINE
  5
181
100
AcDbEntity
  8
0
 62
7
100
AcDbPolyline
 90
2
 70
0
 10
132.903468
 20
-183.925210
 30
0.0
 10
129.395220
 20
-184.345834
 30
0.0
  0
SPLINE
  5
182
100
AcDbEntity
  8
0
 62
7
100
AcDbSpline
 70
0
 71
3
 72
10
 73
6
 74
4
 40
0.000000
 40
0.000000
 40
0.000000
 40
0.000000
 40
0.188579
 40
0.376363
 40
0.564924
 40
0.564924
 40
0.564924
 40
0.564924
 10
127.975868
 20
-182.543704
 30
0.0
 10
127.970052
 20
-182.606417
 30
0.0
 10
127.958443
 20
-182.731580
 30
0.0
 10
127.983924
 20
-182.920398
 30
0.0
 10
128.028307
 20
-183.037996
 30
0.0
 10
128.050544
 20
-183.096916
 30
0.0
 11
127.975868
 21
-182.543704
 31
0.0
 11
127.965595
 21
-182.732003
 31
0.0
 11
127.990713
 21
-182.918100
 31
0.0
 11
128.050544
 21
-183.096916
 31
0.0
  0
LWPOLYLINE
  5
183
100
AcDbEntity
  8
0
 62
7
100
AcDbPolyline
 90
2
 70
0
 10
96.672400
 20
-182.453280
 30
0.0
 10
96.244918
 20
-179.788820
 30
0.0
  0
SPLINE
  5
184
100
AcDbEntity
  8
0
 62
7
100
AcDbSpline
 70
0
 71
3
 72
10
 73
6
 74
4
 40
0.000000
 40
0.000000
 40
0.000000
 40
0.000000
 40
0.188014
 40
0.375229
 40
0.563227
 40
0.563227
 40
0.563227
 40
0.563227
 10
96.606614
 20
-183.005984
 30
0.0
 10
96.627822
 20
-182.946879
 30
0.0
 10
96.670147
 20
-182.828920
 30
0.0
 10
96.692502
 20
-182.640299
 30
0.0
 10
96.679110
 20
-182.515706
 30
0.0
 10
96.672400
 20
-182.453280
 30
0.0
 11
96.606614
 21
-183.005984
 31
0.0
 11
96.663350
 21
-182.826735
 31
0.0
 11
96.685429
 21
-182.640826
 31
0.0
 11
96.672400
 21
-182.453280
 31
0.0
  0
LWPOLYLINE
  5
185
100
AcDbEntity
  8
0
 62
7
100
AcDbPolyline
 90
2
 70
0
 10
96.324420
 20
-183.672988
 30
0.0
 10
96.606614
 20
-183.005984
 30
0.0
  0
SPLINE
  5
186
100
AcDbEntity
  8
0
 62
7
100
AcDbSpline
 70
0
 71
3
 72
10
 73
6
 74
4
 40
0.000000
 40
0.000000
 40
0.000000
 40
0.000000
 40
0.430418
 40
0.851830
 40
1.282365
 40
1.282365
 40
1.282365
 40
1.282365
 10
95.282004
 20
-184.275984
 30
0.0
 10
95.427099
 20
-184.275002
 30
0.0
 10
95.714253
 20
-184.273059
 30
0.0
 10
96.106358
 20
-184.046320
 30
0.0
 10
96.251216
 20
-183.798317
 30
0.0
 10
96.324420
 20
-183.672988
 30
0.0
 11
95.282004
 21
-184.275984
 31
0.0
 11
95.710474
 21
-184.235081
 31
0.0
 11
96.075274
 21
-184.024110
 31
0.0
 11
96.324420
 21
-183.672988
 31
0.0
  0
LWPOLYLINE
  5
187
100
AcDbEntity
  8
0
 62
7
100
AcDbPolyline
 90
2
 70
0
 10
92.286836
 20
-183.909970
 30
0.0
 10
95.282004
 20
-184.275984
 30
0.0
  0
SPLINE
  5
188
100
AcDbEntity
  8
0
 62
7
100
AcDbSpline
 70
0
 71
3
 72
10
 73
6
 74
4
 40
0.000000
 40
0.000000
 40
0.000000
 40
0.000000
 40
0.429873
 40
0.850615
 40
1.280457
 40
1.280457
 40
1.280457
 40
1.280457
 10
87.921338
 20
-182.585614
 30
0.0
 10
87.962370
 20
-182.724596
 30
0.0
 10
88.043561
 20
-182.999608
 30
0.0
 10
88.369226
 20
-183.313338
 30
0.0
 10
88.647070
 20
-183.384196
 30
0.0
 10
88.787478
 20
-183.420004
 30
0.0
 11
87.921338
 21
-182.585614
 31
0.0
 11
88.078950
 21
-182.985551
 31
0.0
 11
88.381962
 21
-183.277454
 31
0.0
 11
88.787478
 21
-183.420004
 31
0.0
  0
LWPOLYLINE
  5
189
100
AcDbEntity
  8
0
 62
7
100
AcDbPolyline
 90
2
 70
0
 10
87.806784
 20
-181.869080
 30
0.0
 10
87.921338
 20
-182.585614
 30
0.0
  0
LWPOLYLINE
  5
18a
100
AcDbEntity
  8
0
 62
7
100
AcDbPolyline
 90
2
 70
0
 10
88.927686
 20
-178.876198
 30
0.0
 10
87.876126
 20
-181.315106
 30
0.0
  0
LWPOLYLINE
  5
18b
100
AcDbEntity
  8
0
 62
7
100
AcDbPolyline
 90
2
 70
0
 10
92.286836
 20
-183.909970
 30
0.0
 10
88.787478
 20
-183.420004
 30
0.0
  0
SPLINE
  5
18c
100
AcDbEntity
  8
0
 62
7
100
AcDbSpline
 70
0
 71
3
 72
10
 73
6
 74
4
 40
0.000000
 40
0.000000
 40
0.000000
 40
0.000000
 40
0.188564
 40
0.376364
 40
0.564974
 40
0.564974
 40
0.564974
 40
0.564974
 10
87.876126
 20
-181.315106
 30
0.0
 10
87.854481
 20
-181.374247
 30
0.0
 10
87.811279
 20
-181.492288
 30
0.0
 10
87.787636
 20
-181.681367
 30
0.0
 10
87.800561
 20
-181.806419
 30
0.0
 10
87.807038
 20
-181.869080
 30
0.0
 11
87.876126
 21
-181.315106
 31
0.0
 11
87.818082
 21
-181.494515
 31
0.0
 11
87.794808
 21
-181.680866
 31
0.0
 11
87.807038
 21
-181.869080
 31
0.0
  0
LWPOLYLINE
  5
18d
100
AcDbEntity
  8
0
 62
7
100
AcDbPolyline
 90
2
 70
0
 10
57.893204
 20
-168.643300
 30
0.0
 10
59.052714
 20
-166.234872
 30
0.0
  0
SPLINE
  5
18e
100
AcDbEntity
  8
0
 62
7
100
AcDbSpline
 70
0
 71
3
 72
10
 73
6
 74
4
 40
0.000000
 40
0.000000
 40
0.000000
 40
0.000000
 40
0.187999
 40
0.375130
 40
0.563097
 40
0.563097
 40
0.563097
 40
0.563097
 10
57.521602
 20
-169.057574
 30
0.0
 10
57.572899
 20
-169.021368
 30
0.0
 10
57.675255
 20
-168.949124
 30
0.0
 10
57.802059
 20
-168.807787
 30
0.0
 10
57.862777
 20
-168.698210
 30
0.0
 10
57.893204
 20
-168.643300
 30
0.0
 11
57.521602
 21
-169.057574
 31
0.0
 11
57.671001
 21
-168.943453
 31
0.0
 11
57.795960
 21
-168.804157
 31
0.0
 11
57.893204
 21
-168.643300
 31
0.0
  0
LWPOLYLINE
  5
18f
100
AcDbEntity
  8
0
 62
7
100
AcDbPolyline
 90
2
 70
0
 10
56.906922
 20
-169.441114
 30
0.0
 10
57.521602
 20
-169.057574
 30
0.0
  0
SPLINE
  5
190
100
AcDbEntity
  8
0
 62
7
100
AcDbSpline
 70
0
 71
3
 72
10
 73
6
 74
4
 40
0.000000
 40
0.000000
 40
0.000000
 40
0.000000
 40
0.430462
 40
0.851815
 40
1.282109
 40
1.282109
 40
1.282109
 40
1.282109
 10
55.707534
 20
-169.335450
 30
0.0
 10
55.826843
 20
-169.418052
 30
0.0
 10
56.062938
 20
-169.581508
 30
0.0
 10
56.514023
 20
-169.621356
 30
0.0
 10
56.775042
 20
-169.501782
 30
0.0
 10
56.906922
 20
-169.441368
 30
0.0
 11
55.707534
 21
-169.335450
 31
0.0
 11
56.081704
 21
-169.548274
 31
0.0
 11
56.501425
 21
-169.585330
 31
0.0
 11
56.906922
 21
-169.441368
 31
0.0
  0
LWPOLYLINE
  5
191
100
AcDbEntity
  8
0
 62
7
100
AcDbPolyline
 90
2
 70
0
 10
53.467508
 20
-167.313864
 30
0.0
 10
55.707534
 20
-169.335450
 30
0.0
  0
SPLINE
  5
192
100
AcDbEntity
  8
0
 62
7
100
AcDbSpline
 70
0
 71
3
 72
10
 73
6
 74
4
 40
0.000000
 40
0.000000
 40
0.000000
 40
0.000000
 40
0.429930
 40
0.850732
 40
1.280550
 40
1.280550
 40
1.280550
 40
1.280550
 10
50.656744
 20
-163.720780
 30
0.0
 10
50.610413
 20
-163.858107
 30
0.0
 10
50.518735
 20
-164.129846
 30
0.0
 10
50.604835
 20
-164.573788
 30
0.0
 10
50.791352
 20
-164.791577
 30
0.0
 10
50.885598
 20
-164.901626
 30
0.0
 11
50.656744
 21
-163.720780
 31
0.0
 11
50.555774
 21
-164.138685
 31
0.0
 11
50.635878
 21
-164.551793
 31
0.0
 11
50.885598
 21
-164.901626
 31
0.0
  0
LWPOLYLINE
  5
193
100
AcDbEntity
  8
0
 62
7
100
AcDbPolyline
 90
2
 70
0
 10
50.974752
 20
-163.068508
 30
0.0
 10
50.656744
 20
-163.720780
 30
0.0
  0
LWPOLYLINE
  5
194
100
AcDbEntity
  8
0
 62
7
100
AcDbPolyline
 90
2
 70
0
 10
53.612542
 20
-161.263838
 30
0.0
 10
51.349910
 20
-162.654996
 30
0.0
  0
LWPOLYLINE
  5
195
100
AcDbEntity
  8
0
 62
7
100
AcDbPolyline
 90
2
 70
0
 10
53.467508
 20
-167.313864
 30
0.0
 10
50.885598
 20
-164.901626
 30
0.0
  0
SPLINE
  5
196
100
AcDbEntity
  8
0
 62
7
100
AcDbSpline
 70
0
 71
3
 72
10
 73
6
 74
4
 40
0.000000
 40
0.000000
 40
0.000000
 40
0.000000
 40
0.188623
 40
0.376451
 40
0.565046
 40
0.565046
 40
0.565046
 40
0.565046
 10
51.349910
 20
-162.654996
 30
0.0
 10
51.298171
 20
-162.690936
 30
0.0
 10
51.194910
 20
-162.762664
 30
0.0
 10
51.066830
 20
-162.903785
 30
0.0
 10
51.005486
 20
-163.013526
 30
0.0
 10
50.974752
 20
-163.068508
 30
0.0
 11
51.349910
 21
-162.654996
 31
0.0
 11
51.199194
 21
-162.768412
 31
0.0
 11
51.072975
 21
-162.907510
 31
0.0
 11
50.974752
 21
-163.068508
 31
0.0
  0
LWPOLYLINE
  5
197
100
AcDbEntity
  8
0
 62
7
100
AcDbPolyline
 90
2
 70
0
 10
29.559250
 20
-96.420686
 30
0.0
 10
32.064706
 20
-95.489522
 30
0.0
  0
SPLINE
  5
198
100
AcDbEntity
  8
0
 62
7
100
AcDbSpline
 70
0
 71
3
 72
10
 73
6
 74
4
 40
0.000000
 40
0.000000
 40
0.000000
 40
0.000000
 40
0.188005
 40
0.375188
 40
0.563144
 40
0.563144
 40
0.563144
 40
0.563144
 10
29.004260
 20
-96.461834
 30
0.0
 10
29.066327
 20
-96.471333
 30
0.0
 10
29.190190
 20
-96.490289
 30
0.0
 10
29.379588
 20
-96.476274
 30
0.0
 10
29.499280
 20
-96.439241
 30
0.0
 10
29.559250
 20
-96.420686
 30
0.0
 11
29.004260
 21
-96.461834
 31
0.0
 11
29.191044
 21
-96.483226
 31
0.0
 11
29.377715
 21
-96.469398
 31
0.0
 11
29.559250
 21
-96.420686
 31
0.0
  0
LWPOLYLINE
  5
199
100
AcDbEntity
  8
0
 62
7
100
AcDbPolyline
 90
2
 70
0
 10
28.295346
 20
-96.311974
 30
0.0
 10
29.004260
 20
-96.461834
 30
0.0
  0
SPLINE
  5
19a
100
AcDbEntity
  8
0
 62
7
100
AcDbSpline
 70
0
 71
3
 72
10
 73
6
 74
4
 40
0.000000
 40
0.000000
 40
0.000000
 40
0.000000
 40
0.430380
 40
0.851720
 40
1.282161
 40
1.282161
 40
1.282161
 40
1.282161
 10
27.504644
 20
-95.403924
 30
0.0
 10
27.533262
 20
-95.546168
 30
0.0
 10
27.589898
 20
-95.827667
 30
0.0
 10
27.887397
 20
-96.169115
 30
0.0
 10
28.158398
 20
-96.264016
 30
0.0
 10
28.295346
 20
-96.311974
 30
0.0
 11
27.504644
 21
-95.403924
 31
0.0
 11
27.626498
 21
-95.816693
 31
0.0
 11
27.903236
 21
-96.134409
 31
0.0
 11
28.295346
 21
-96.311974
 31
0.0
  0
LWPOLYLINE
  5
19b
100
AcDbEntity
  8
0
 62
7
100
AcDbPolyline
 90
2
 70
0
 10
27.292046
 20
-92.394024
 30
0.0
 10
27.504644
 20
-95.403924
 30
0.0
  0
SPLINE
  5
19c
100
AcDbEntity
  8
0
 62
7
100
AcDbSpline
 70
0
 71
3
 72
10
 73
6
 74
4
 40
0.000000
 40
0.000000
 40
0.000000
 40
0.000000
 40
0.429876
 40
0.850684
 40
1.280466
 40
1.280466
 40
1.280466
 40
1.280466
 10
27.758390
 20
-87.856314
 30
0.0
 10
27.629783
 20
-87.923096
 30
0.0
 10
27.375282
 20
-88.055253
 30
0.0
 10
27.129418
 20
-88.434798
 30
0.0
 10
27.112926
 20
-88.721066
 30
0.0
 10
27.104594
 20
-88.865710
 30
0.0
 11
27.758390
 21
-87.856314
 31
0.0
 11
27.395847
 21
-88.087303
 31
0.0
 11
27.167078
 21
-88.440495
 31
0.0
 11
27.104594
 21
-88.865710
 31
0.0
  0
LWPOLYLINE
  5
19d
100
AcDbEntity
  8
0
 62
7
100
AcDbPolyline
 90
2
 70
0
 10
28.439872
 20
-87.606886
 30
0.0
 10
27.758390
 20
-87.856314
 30
0.0
  0
LWPOLYLINE
  5
19e
100
AcDbEntity
  8
0
 62
7
100
AcDbPolyline
 90
2
 70
0
 10
31.591758
 20
-88.135460
 30
0.0
 10
28.996640
 20
-87.568786
 30
0.0
  0
LWPOLYLINE
  5
19f
100
AcDbEntity
  8
0
 62
7
100
AcDbPolyline
 90
2
 70
0
 10
27.292046
 20
-92.394024
 30
0.0
 10
27.104594
 20
-88.865710
 30
0.0
  0
SPLINE
  5
1a0
100
AcDbEntity
  8
0
 62
7
100
AcDbSpline
 70
0
 71
3
 72
10
 73
6
 74
4
 40
0.000000
 40
0.000000
 40
0.000000
 40
0.000000
 40
0.188563
 40
0.376359
 40
0.564973
 40
0.564973
 40
0.564973
 40
0.564973
 10
28.996640
 20
-87.568786
 30
0.0
 10
28.934451
 20
-87.558866
 30
0.0
 10
28.810325
 20
-87.539065
 30
0.0
 10
28.620221
 20
-87.551906
 30
0.0
 10
28.499906
 20
-87.588364
 30
0.0
 10
28.439618
 20
-87.606632
 30
0.0
 11
28.996640
 21
-87.568786
 31
0.0
 11
28.809442
 21
-87.546142
 31
0.0
 11
28.622075
 21
-87.558833
 31
0.0
 11
28.439618
 21
-87.606632
 31
0.0
  0
LWPOLYLINE
  5
1a1
100
AcDbEntity
  8
0
 62
7
100
AcDbPolyline
 90
2
 70
0
 10
31.489396
 20
-116.507514
 30
0.0
 10
33.913064
 20
-115.380516
 30
0.0
  0
SPLINE
  5
1a2
100
AcDbEntity
  8
0
 62
7
100
AcDbSpline
 70
0
 71
3
 72
10
 73
6
 74
4
 40
0.000000
 40
0.000000
 40
0.000000
 40
0.000000
 40
0.188003
 40
0.375161
 40
0.563049
 40
0.563049
 40
0.563049
 40
0.563049
 10
30.939486
 20
-116.592604
 30
0.0
 10
31.002113
 20
-116.597102
 30
0.0
 10
31.127085
 20
-116.606078
 30
0.0
 10
31.314729
 20
-116.577077
 30
0.0
 10
31.431098
 20
-116.530732
 30
0.0
 10
31.489396
 20
-116.507514
 30
0.0
 11
30.939486
 21
-116.592604
 31
0.0
 11
31.127380
 21
-116.598992
 31
0.0
 11
31.312339
 21
-116.570384
 31
0.0
 11
31.489396
 21
-116.507514
 31
0.0
  0
LWPOLYLINE
  5
1a3
100
AcDbEntity
  8
0
 62
7
100
AcDbPolyline
 90
2
 70
0
 10
30.220920
 20
-116.499386
 30
0.0
 10
30.939486
 20
-116.592604
 30
0.0
  0
SPLINE
  5
1a4
100
AcDbEntity
  8
0
 62
7
100
AcDbSpline
 70
0
 71
3
 72
10
 73
6
 74
4
 40
0.000000
 40
0.000000
 40
0.000000
 40
0.000000
 40
0.430519
 40
0.851917
 40
1.282401
 40
1.282401
 40
1.282401
 40
1.282401
 10
29.360622
 20
-115.657122
 30
0.0
 10
29.400509
 20
-115.796667
 30
0.0
 10
29.479439
 20
-116.072801
 30
0.0
 10
29.803089
 20
-116.389674
 30
0.0
 10
30.080825
 20
-116.462725
 30
0.0
 10
30.221174
 20
-116.499640
 30
0.0
 11
29.360622
 21
-115.657122
 31
0.0
 11
29.515035
 21
-116.058997
 31
0.0
 11
29.816147
 21
-116.353797
 31
0.0
 11
30.221174
 21
-116.499640
 31
0.0
  0
LWPOLYLINE
  5
1a5
100
AcDbEntity
  8
0
 62
7
100
AcDbPolyline
 90
2
 70
0
 10
28.909772
 20
-112.673384
 30
0.0
 10
29.360622
 20
-115.657122
 30
0.0
  0
SPLINE
  5
1a6
100
AcDbEntity
  8
0
 62
7
100
AcDbSpline
 70
0
 71
3
 72
10
 73
6
 74
4
 40
0.000000
 40
0.000000
 40
0.000000
 40
0.000000
 40
0.429883
 40
0.850679
 40
1.280505
 40
1.280505
 40
1.280505
 40
1.280505
 10
29.014420
 20
-108.112814
 30
0.0
 10
28.891517
 20
-108.189594
 30
0.0
 10
28.648308
 20
-108.341530
 30
0.0
 10
28.433353
 20
-108.739426
 30
0.0
 10
28.439708
 20
-109.026113
 30
0.0
 10
28.442920
 20
-109.170978
 30
0.0
 11
29.014420
 21
-108.112814
 31
0.0
 11
28.671351
 21
-108.371856
 31
0.0
 11
28.471368
 21
-108.742094
 31
0.0
 11
28.442920
 21
-109.170978
 31
0.0
  0
LWPOLYLINE
  5
1a7
100
AcDbEntity
  8
0
 62
7
100
AcDbPolyline
 90
2
 70
0
 10
29.674058
 20
-107.810300
 30
0.0
 10
29.014420
 20
-108.112814
 30
0.0
  0
LWPOLYLINE
  5
1a8
100
AcDbEntity
  8
0
 62
7
100
AcDbPolyline
 90
2
 70
0
 10
32.857948
 20
-108.087160
 30
0.0
 10
30.226254
 20
-107.728258
 30
0.0
  0
LWPOLYLINE
  5
1a9
100
AcDbEntity
  8
0
 62
7
100
AcDbPolyline
 90
2
 70
0
 10
28.909772
 20
-112.673384
 30
0.0
 10
28.442920
 20
-109.170978
 30
0.0
  0
LWPOLYLINE
  5
1aa
100
AcDbEntity
  8
0
 62
7
100
AcDbPolyline
 90
2
 70
0
 10
110.509558
 20
-180.376322
 30
0.0
 10
114.345720
 20
-180.378608
 30
0.0
  0
LWPOLYLINE
  5
1ab
100
AcDbEntity
  8
0
 62
7
100
AcDbPolyline
 90
2
 70
0
 10
71.374508
 20
-173.750478
 30
0.0
 10
74.912474
 20
-175.198278
 30
0.0
  0
LWPOLYLINE
  5
1ac
100
AcDbEntity
  8
0
 62
7
100
AcDbPolyline
 90
2
 70
0
 10
149.947630
 20
-175.228250
 30
0.0
 10
153.483818
 20
-173.777656
 30
0.0
  0
SPLINE
  5
1ad
100
AcDbEntity
  8
0
 62
7
100
AcDbSpline
 70
0
 71
3
 72
10
 73
6
 74
4
 40
0.000000
 40
0.000000
 40
0.000000
 40
0.000000
 40
0.188589
 40
0.376293
 40
0.564940
 40
0.564940
 40
0.564940
 40
0.564940
 10
30.226254
 20
-107.728258
 30
0.0
 10
30.163464
 20
-107.723284
 30
0.0
 10
30.038180
 20
-107.713358
 30
0.0
 10
29.849721
 20
-107.741378
 30
0.0
 10
29.732710
 20
-107.787287
 30
0.0
 10
29.674058
 20
-107.810300
 30
0.0
 11
30.226254
 21
-107.728258
 31
0.0
 11
30.037824
 21
-107.720516
 31
0.0
 11
29.852159
 21
-107.748108
 31
0.0
 11
29.674058
 21
-107.810300
 31
0.0
  0
LWPOLYLINE
  5
1ae
100
AcDbEntity
  8
0
 62
7
100
AcDbPolyline
 90
2
 70
0
 10
193.894202
 20
-77.524356
 30
0.0
 10
193.894202
 20
-73.204832
 30
0.0
  0
SPLINE
  5
1af
100
AcDbEntity
  8
0
 62
7
100
AcDbSpline
 70
0
 71
3
 72
13
 73
9
 74
7
 40
0.000000
 40
0.000000
 40
0.000000
 40
0.000000
 40
0.698663
 40
1.363856
 40
2.035844
 40
2.707973
 40
3.373252
 40
4.071973
 40
4.071973
 40
4.071973
 40
4.071973
 10
193.894202
 20
-77.586586
 30
0.0
 10
193.859580
 20
-77.822049
 30
0.0
 10
193.791994
 20
-78.281695
 30
0.0
 10
193.286717
 20
-78.797238
 30
0.0
 10
192.612994
 20
-78.992086
 30
0.0
 10
191.939151
 20
-78.797404
 30
0.0
 10
191.433812
 20
-78.281757
 30
0.0
 10
191.366220
 20
-77.822066
 30
0.0
 10
191.331596
 20
-77.586586
 30
0.0
 11
193.894202
 21
-77.586586
 31
0.0
 11
193.719243
 21
-78.262988
 31
0.0
 11
193.259578
 21
-78.743810
 31
0.0
 11
192.613026
 21
-78.926944
 31
0.0
 11
191.966295
 21
-78.743923
 31
0.0
 11
191.506564
 21
-78.263044
 31
0.0
 11
191.331596
 21
-77.586586
 31
0.0
  0
LWPOLYLINE
  5
1b0
100
AcDbEntity
  8
0
 62
7
100
AcDbPolyline
 90
2
 70
0
 10
191.331342
 20
-77.586586
 30
0.0
 10
191.331342
 20
-73.267062
 30
0.0
  0
LWPOLYLINE
  5
1b1
100
AcDbEntity
  8
0
 62
7
100
AcDbPolyline
 90
2
 70
0
 10
198.646034
 20
-77.956410
 30
0.0
 10
198.646034
 20
-78.217014
 30
0.0
  0
SPLINE
  5
1b2
100
AcDbEntity
  8
0
 62
7
100
AcDbSpline
 70
0
 71
3
 72
16
 73
12
 74
10
 40
0.000000
 40
0.000000
 40
0.000000
 40
0.000000
 40
0.467121
 40
0.923194
 40
1.378936
 40
1.828568
 40
2.269268
 40
2.718742
 40
3.174446
 40
3.630470
 40
4.097702
 40
4.097702
 40
4.097702
 40
4.097702
 10
191.331342
 20
-73.267062
 30
0.0
 10
191.346525
 20
-73.110617
 30
0.0
 10
191.376531
 20
-72.801428
 30
0.0
 10
191.610497
 20
-72.390748
 30
0.0
 10
191.955360
 20
-72.083865
 30
0.0
 10
192.384474
 20
-71.920062
 30
0.0
 10
192.840686
 20
-71.920025
 30
0.0
 10
193.269692
 20
-72.083923
 30
0.0
 10
193.614538
 20
-72.390678
 30
0.0
 10
193.848534
 20
-72.801364
 30
0.0
 10
193.878519
 20
-73.110578
 30
0.0
 10
193.893694
 20
-73.267062
 30
0.0
 11
191.331342
 21
-73.267062
 31
0.0
 11
191.409311
 21
-72.806494
 31
0.0
 11
191.629632
 21
-72.407169
 31
0.0
 11
191.971930
 21
-72.106282
 31
0.0
 11
192.392253
 21
-71.946601
 31
0.0
 11
192.832952
 21
-71.946601
 31
0.0
 11
193.253106
 21
-72.106282
 31
0.0
 11
193.595404
 21
-72.407112
 31
0.0
 11
193.815725
 21
-72.806381
 31
0.0
 11
193.893694
 21
-73.267062
 31
0.0
  0
LWPOLYLINE
  5
1b3
100
AcDbEntity
  8
0
 62
7
100
AcDbPolyline
 90
2
 70
0
 10
198.646034
 20
-78.086712
 30
0.0
 10
198.679562
 20
-68.825872
 30
0.0
  0
SPLINE
  5
1b4
100
AcDbEntity
  8
0
 62
7
100
AcDbSpline
 70
0
 71
3
 72
13
 73
9
 74
7
 40
0.000000
 40
0.000000
 40
0.000000
 40
0.000000
 40
0.699377
 40
1.372563
 40
2.014658
 40
2.611706
 40
3.162492
 40
3.693093
 40
3.693093
 40
3.693093
 40
3.693093
 10
196.020182
 20
-66.799968
 30
0.0
 10
196.253731
 20
-66.813206
 30
0.0
 10
196.712082
 20
-66.839188
 30
0.0
 10
197.358041
 20
-67.046357
 30
0.0
 10
197.917357
 20
-67.364201
 30
0.0
 10
198.346502
 20
-67.786231
 30
0.0
 10
198.632178
 20
-68.284905
 30
0.0
 10
198.664135
 20
-68.647637
 30
0.0
 10
198.679816
 20
-68.825618
 30
0.0
 11
196.020182
 21
-66.799968
 31
0.0
 11
196.716086
 21
-66.869583
 31
0.0
 11
197.358310
 21
-67.071391
 31
0.0
 11
197.912990
 21
-67.394836
 31
0.0
 11
198.335994
 21
-67.816184
 31
0.0
 11
198.596156
 21
-68.301654
 31
0.0
 11
198.679816
 21
-68.825618
 31
0.0
  0
SPLINE
  5
1b5
100
AcDbEntity
  8
0
 62
7
100
AcDbSpline
 70
0
 71
3
 72
10
 73
6
 74
4
 40
0.000000
 40
0.000000
 40
0.000000
 40
0.000000
 40
1.218934
 40
2.414760
 40
3.633764
 40
3.633764
 40
3.633764
 40
3.633764
 10
26.270204
 20
-78.477364
 30
0.0
 10
26.319820
 20
-78.884719
 30
0.0
 10
26.418110
 20
-79.691706
 30
0.0
 10
27.148798
 20
-80.737595
 30
0.0
 10
27.872747
 20
-81.107498
 30
0.0
 10
28.238196
 20
-81.294224
 30
0.0
 11
26.270204
 21
-78.477364
 31
0.0
 11
26.517732
 21
-79.670901
 31
0.0
 11
27.202591
 21
-80.651190
 31
0.0
 11
28.238196
 21
-81.294224
 31
0.0
  0
SPLINE
  5
1b6
100
AcDbEntity
  8
0
 62
7
100
AcDbSpline
 70
0
 71
3
 72
10
 73
6
 74
4
 40
0.000000
 40
0.000000
 40
0.000000
 40
0.000000
 40
1.682016
 40
3.521965
 40
5.493344
 40
5.493344
 40
5.493344
 40
5.493344
 10
38.353238
 20
-78.217268
 30
0.0
 10
38.347505
 20
-77.656620
 30
0.0
 10
38.335501
 20
-76.482682
 30
0.0
 10
38.340209
 20
-74.651539
 30
0.0
 10
38.347792
 20
-73.381123
 30
0.0
 10
38.351714
 20
-72.724010
 30
0.0
 11
38.353238
 21
-78.217268
 31
0.0
 11
38.339466
 21
-76.535308
 31
0.0
 11
38.341102
 21
-74.695360
 31
0.0
 11
38.351714
 21
-72.724010
 31
0.0
  0
SPLINE
  5
1b7
100
AcDbEntity
  8
0
 62
7
100
AcDbSpline
 70
0
 71
3
 72
10
 73
6
 74
4
 40
0.000000
 40
0.000000
 40
0.000000
 40
0.000000
 40
2.467171
 40
4.872968
 40
7.320447
 40
7.320447
 40
7.320447
 40
7.320447
 10
33.961832
 20
-67.060318
 30
0.0
 10
34.608827
 20
-67.571060
 30
0.0
 10
35.886723
 20
-68.579838
 30
0.0
 10
37.398571
 20
-70.537860
 30
0.0
 10
38.043330
 20
-72.025916
 30
0.0
 10
38.368478
 20
-72.776334
 30
0.0
 11
33.961832
 21
-67.060318
 31
0.0
 11
35.833219
 21
-68.668063
 31
0.0
 11
37.302101
 21
-70.573383
 31
0.0
 11
38.368478
 21
-72.776334
 31
0.0
  0
SPLINE
  5
1b8
100
AcDbEntity
  8
0
 62
7
100
AcDbSpline
 70
0
 71
3
 72
16
 73
12
 74
10
 40
0.000000
 40
0.000000
 40
0.000000
 40
0.000000
 40
10.591587
 40
21.214406
 40
31.767004
 40
40.437075
 40
49.140709
 40
57.814350
 40
65.087548
 40
72.341930
 40
79.588206
 40
79.588206
 40
79.588206
 40
79.588206
 10
38.353238
 20
-78.217268
 30
0.0
 10
38.539574
 20
-81.742747
 30
0.0
 10
38.912796
 20
-88.804099
 30
0.0
 10
39.811703
 20
-99.361407
 30
0.0
 10
41.890324
 20
-109.142822
 30
0.0
 10
45.477617
 20
-117.779554
 30
0.0
 10
50.024221
 20
-125.213594
 30
0.0
 10
55.341980
 20
-131.524204
 30
0.0
 10
61.146268
 20
-136.661449
 30
0.0
 10
67.096288
 20
-140.851972
 30
0.0
 10
71.365026
 20
-143.126996
 30
0.0
 10
73.498202
 20
-144.263872
 30
0.0
 11
38.353238
 21
-78.217268
 31
0.0
 11
38.968849
 21
-88.790949
 31
0.0
 11
40.034041
 21
-99.360228
 31
0.0
 11
42.362120
 21
-109.652816
 31
0.0
 11
45.672747
 21
-117.665923
 31
0.0
 11
50.208951
 21
-125.093984
 31
0.0
 11
55.806594
 21
-131.719574
 31
0.0
 11
61.235063
 21
-136.560146
 31
0.0
 11
67.175145
 21
-140.724457
 31
0.0
 11
73.498202
 21
-144.263872
 31
0.0
  0
SPLINE
  5
1b9
100
AcDbEntity
  8
0
 62
7
100
AcDbSpline
 70
0
 71
3
 72
10
 73
6
 74
4
 40
0.000000
 40
0.000000
 40
0.000000
 40
0.000000
 40
13.455399
 40
26.887519
 40
40.343077
 40
40.343077
 40
40.343077
 40
40.343077
 10
73.498202
 20
-144.263872
 30
0.0
 10
77.605564
 20
-146.081286
 30
0.0
 10
85.813181
 20
-149.712969
 30
0.0
 10
99.015032
 20
-152.776907
 30
0.0
 10
107.977280
 20
-153.211479
 30
0.0
 10
112.462310
 20
-153.428954
 30
0.0
 11
73.498202
 21
-144.263872
 31
0.0
 11
85.968304
 21
-149.318011
 31
0.0
 11
99.048175
 21
-152.373960
 31
0.0
 11
112.462310
 21
-153.428954
 31
0.0
  0
SPLINE
  5
1ba
100
AcDbEntity
  8
0
 62
7
100
AcDbSpline
 70
0
 71
3
 72
19
 73
15
 74
13
 40
0.000000
 40
0.000000
 40
0.000000
 40
0.000000
 40
12.183503
 40
24.419928
 40
36.510546
 40
45.414063
 40
54.372158
 40
63.311693
 40
72.457221
 40
81.580181
 40
90.705141
 40
100.486001
 40
110.220977
 40
119.970247
 40
119.970247
 40
119.970247
 40
119.970247
 10
186.571128
 20
-78.217268
 30
0.0
 10
186.359487
 20
-82.273004
 30
0.0
 10
185.935287
 20
-90.402093
 30
0.0
 10
184.610211
 20
-102.515109
 30
0.0
 10
181.692031
 20
-113.292402
 30
0.0
 10
177.047991
 20
-122.191918
 30
0.0
 10
171.659668
 20
-129.361667
 30
0.0
 10
165.188606
 20
-135.687966
 30
0.0
 10
157.785231
 20
-140.983298
 30
0.0
 10
149.699135
 20
-145.270923
 30
0.0
 10
141.008509
 20
-148.742226
 30
0.0
 10
131.846862
 20
-151.457646
 30
0.0
 10
122.221411
 20
-153.278436
 30
0.0
 10
115.716934
 20
-153.378588
 30
0.0
 10
112.462310
 20
-153.428700
 30
0.0
 11
186.571128
 21
-78.217268
 31
0.0
 11
185.821188
 21
-90.377669
 31
0.0
 11
184.287800
 21
-102.517636
 31
0.0
 11
180.944012
 21
-114.136678
 31
0.0
 11
176.852298
 21
-122.044300
 31
0.0
 11
171.484488
 21
-129.216056
 31
0.0
 11
165.092888
 21
-135.466074
 31
0.0
 11
157.673416
 21
-140.813235
 31
0.0
 11
149.631870
 21
-145.121592
 31
0.0
 11
141.168628
 21
-148.533104
 31
0.0
 11
131.787947
 21
-151.302231
 31
0.0
 11
122.202147
 21
-152.999929
 31
0.0
 11
112.462310
 21
-153.428700
 31
0.0
  0
SPLINE
  5
1bb
100
AcDbEntity
  8
0
 62
7
100
AcDbSpline
 70
0
 71
3
 72
10
 73
6
 74
4
 40
0.000000
 40
0.000000
 40
0.000000
 40
0.000000
 40
2.467171
 40
4.872968
 40
7.320447
 40
7.320447
 40
7.320447
 40
7.320447
 10
190.962534
 20
-66.799968
 30
0.0
 10
190.315539
 20
-67.310710
 30
0.0
 10
189.037643
 20
-68.319488
 30
0.0
 10
187.525795
 20
-70.277510
 30
0.0
 10
186.881036
 20
-71.765566
 30
0.0
 10
186.555888
 20
-72.515984
 30
0.0
 11
190.962534
 21
-66.799968
 31
0.0
 11
189.091147
 21
-68.407713
 31
0.0
 11
187.622265
 21
-70.313033
 31
0.0
 11
186.555888
 21
-72.515984
 31
0.0
  0
LWPOLYLINE
  5
1bc
100
AcDbEntity
  8
0
 62
7
100
AcDbPolyline
 90
2
 70
0
 10
196.020182
 20
-66.799968
 30
0.0
 10
190.962534
 20
-66.799968
 30
0.0
  0
LWPOLYLINE
  5
1bd
100
AcDbEntity
  8
0
 62
7
100
AcDbPolyline
 90
4
 70
1
 10
229.916228
 20
-26.794460
 30
0.0
 10
237.347506
 20
-26.794460
 30
0.0
 10
237.347506
 20
-31.594552
 30
0.0
 10
229.916228
 20
-31.594552
 30
0.0
  0
LWPOLYLINE
  5
1be
100
AcDbEntity
  8
0
 62
7
100
AcDbPolyline
 90
4
 70
1
 10
209.927190
 20
-26.794460
 30
0.0
 10
217.344752
 20
-26.794460
 30
0.0
 10
217.344752
 20
-31.594552
 30
0.0
 10
209.927190
 20
-31.594552
 30
0.0
  0
LWPOLYLINE
  5
1bf
100
AcDbEntity
  8
0
 62
7
100
AcDbPolyline
 90
4
 70
1
 10
486.006902
 20
-26.794460
 30
0.0
 10
493.606836
 20
-26.794460
 30
0.0
 10
493.606836
 20
-31.594552
 30
0.0
 10
486.006902
 20
-31.594552
 30
0.0
  0
LWPOLYLINE
  5
1c0
100
AcDbEntity
  8
0
 62
7
100
AcDbPolyline
 90
4
 70
1
 10
466.017864
 20
-26.794460
 30
0.0
 10
473.617798
 20
-26.794460
 30
0.0
 10
473.617798
 20
-31.594552
 30
0.0
 10
466.017864
 20
-31.594552
 30
0.0
  0
LWPOLYLINE
  5
1c1
100
AcDbEntity
  8
0
 62
7
100
AcDbPolyline
 90
2
 70
0
 10
26.252424
 20
-55.256176
 30
0.0
 10
198.662798
 20
-55.256176
 30
0.0
  0
LWPOLYLINE
  5
1c2
100
AcDbEntity
  8
0
 62
7
100
AcDbPolyline
 90
2
 70
0
 10
26.252424
 20
-47.636176
 30
0.0
 10
26.252424
 20
-62.876176
 30
0.0
  0
LWPOLYLINE
  5
1c3
100
AcDbEntity
  8
0
 62
7
100
AcDbPolyline
 90
2
 70
0
 10
198.662798
 20
-47.636176
 30
0.0
 10
198.662798
 20
-62.876176
 30
0.0
  0
LWPOLYLINE
  5
1c4
100
AcDbEntity
  8
0
 62
7
100
AcDbPolyline
 90
2
 70
0
 10
10.342372
 20
-184.354978
 30
0.0
 10
10.342372
 20
-66.800222
 30
0.0
  0
LWPOLYLINE
  5
1c5
100
AcDbEntity
  8
0
 62
7
100
AcDbPolyline
 90
2
 70
0
 10
2.934208
 20
-184.354978
 30
0.0
 10
17.750536
 20
-184.354978
 30
0.0
  0
LWPOLYLINE
  5
1c6
100
AcDbEntity
  8
0
 62
7
100
AcDbPolyline
 90
2
 70
0
 10
2.934208
 20
-66.800222
 30
0.0
 10
17.750536
 20
-66.800222
 30
0.0
  0
SPLINE
  5
1c7
100
AcDbEntity
  8
0
 62
7
100
AcDbSpline
 70
0
 71
3
 72
10
 73
6
 74
4
 40
0.000000
 40
0.000000
 40
0.000000
 40
0.000000
 40
1.749512
 40
3.714814
 40
5.753691
 40
5.753691
 40
5.753691
 40
5.753691
 10
186.571128
 20
-78.217268
 30
0.0
 10
186.576840
 20
-77.634120
 30
0.0
 10
186.588967
 20
-76.395898
 30
0.0
 10
186.584271
 20
-74.477973
 30
0.0
 10
186.576572
 20
-73.143272
 30
0.0
 10
186.572652
 20
-72.463660
 30
0.0
 11
186.571128
 21
-78.217268
 31
0.0
 11
186.584900
 21
-76.467810
 31
0.0
 11
186.583264
 21
-74.502509
 31
0.0
 11
186.572652
 21
-72.463660
 31
0.0
  0
LWPOLYLINE
  5
1c8
100
AcDbEntity
  8
0
 62
7
100
AcDbPolyline
 90
3
 70
0
 10
10.342372
 20
-133.367526
 30
0.0
 10
10.342372
 20
-133.729730
 30
0.0
 10
8.724900
 20
-133.729730
 30
0.0
  0
SPLINE
  5
1c9
100
AcDbEntity
  8
0
 62
7
100
AcDbSpline
 70
0
 71
3
 72
13
 73
9
 74
7
 40
0.000000
 40
0.000000
 40
0.000000
 40
0.000000
 40
0.112665
 40
0.241049
 40
0.385539
 40
0.532308
 40
0.666875
 40
0.789144
 40
0.789144
 40
0.789144
 40
0.789144
 10
8.724900
 20
-133.729730
 30
0.0
 10
8.744936
 20
-133.761517
 30
0.0
 10
8.787803
 20
-133.829526
 30
0.0
 10
8.845181
 20
-133.944722
 30
0.0
 10
8.901034
 20
-134.072984
 30
0.0
 10
8.952813
 20
-134.205171
 30
0.0
 10
8.997194
 20
-134.332265
 30
0.0
 10
9.019905
 20
-134.414832
 30
0.0
 10
9.030716
 20
-134.454138
 30
0.0
 11
8.724900
 21
-133.729730
 31
0.0
 11
8.783480
 21
-133.825968
 31
0.0
 11
8.841834
 21
-133.940324
 31
0.0
 11
8.899906
 21
-134.072630
 31
0.0
 11
8.953406
 21
-134.209301
 31
0.0
 11
8.997028
 21
-134.336602
 31
0.0
 11
9.030716
 21
-134.454138
 31
0.0
  0
LWPOLYLINE
  5
1ca
100
AcDbEntity
  8
0
 62
7
100
AcDbPolyline
 90
2
 70
0
 10
9.030716
 20
-134.454138
 30
0.0
 10
8.785352
 20
-134.454138
 30
0.0
  0
LWPOLYLINE
  5
1cb
100
AcDbEntity
  8
0
 62
7
100
AcDbPolyline
 90
4
 70
0
 10
8.266938
 20
-133.600698
 30
0.0
 10
8.266938
 20
-133.367526
 30
0.0
 10
10.342118
 20
-133.367526
 30
0.0
 10
10.342372
 20
-133.367526
 30
0.0
  0
SPLINE
  5
1cc
100
AcDbEntity
  8
0
 62
7
100
AcDbSpline
 70
0
 71
3
 72
13
 73
9
 74
7
 40
0.000000
 40
0.000000
 40
0.000000
 40
0.000000
 40
0.206545
 40
0.401087
 40
0.585061
 40
0.751029
 40
0.892487
 40
1.011769
 40
1.011769
 40
1.011769
 40
1.011769
 10
8.785352
 20
-134.454138
 30
0.0
 10
8.762677
 20
-134.389098
 30
0.0
 10
8.718644
 20
-134.262797
 30
0.0
 10
8.637395
 20
-134.085196
 30
0.0
 10
8.548346
 20
-133.926741
 30
0.0
 10
8.455962
 20
-133.791470
 30
0.0
 10
8.365557
 20
-133.680650
 30
0.0
 10
8.297893
 20
-133.625794
 30
0.0
 10
8.266938
 20
-133.600698
 30
0.0
 11
8.785352
 21
-134.454138
 31
0.0
 11
8.714232
 21
-134.260223
 31
0.0
 11
8.633460
 21
-134.083242
 31
0.0
 11
8.543036
 21
-133.923024
 31
0.0
 11
8.449216
 21
-133.786118
 31
0.0
 11
8.357202
 21
-133.678676
 31
0.0
 11
8.266938
 21
-133.600698
 31
0.0
  0
LWPOLYLINE
  5
1cd
100
AcDbEntity
  8
0
 62
7
100
AcDbPolyline
 90
3
 70
0
 10
10.342372
 20
-131.384040
 30
0.0
 10
10.342372
 20
-131.746244
 30
0.0
 10
8.724900
 20
-131.746244
 30
0.0
  0
SPLINE
  5
1ce
100
AcDbEntity
  8
0
 62
7
100
AcDbSpline
 70
0
 71
3
 72
13
 73
9
 74
7
 40
0.000000
 40
0.000000
 40
0.000000
 40
0.000000
 40
0.112665
 40
0.241049
 40
0.385539
 40
0.532308
 40
0.666875
 40
0.789144
 40
0.789144
 40
0.789144
 40
0.789144
 10
8.724900
 20
-131.746244
 30
0.0
 10
8.744936
 20
-131.778031
 30
0.0
 10
8.787803
 20
-131.846040
 30
0.0
 10
8.845181
 20
-131.961236
 30
0.0
 10
8.901034
 20
-132.089498
 30
0.0
 10
8.952813
 20
-132.221685
 30
0.0
 10
8.997194
 20
-132.348779
 30
0.0
 10
9.019905
 20
-132.431346
 30
0.0
 10
9.030716
 20
-132.470652
 30
0.0
 11
8.724900
 21
-131.746244
 31
0.0
 11
8.783480
 21
-131.842482
 31
0.0
 11
8.841834
 21
-131.956838
 31
0.0
 11
8.899906
 21
-132.089144
 31
0.0
 11
8.953406
 21
-132.225815
 31
0.0
 11
8.997028
 21
-132.353116
 31
0.0
 11
9.030716
 21
-132.470652
 31
0.0
  0
LWPOLYLINE
  5
1cf
100
AcDbEntity
  8
0
 62
7
100
AcDbPolyline
 90
2
 70
0
 10
9.030716
 20
-132.470652
 30
0.0
 10
8.785352
 20
-132.470652
 30
0.0
  0
LWPOLYLINE
  5
1d0
100
AcDbEntity
  8
0
 62
7
100
AcDbPolyline
 90
4
 70
0
 10
8.266938
 20
-131.617212
 30
0.0
 10
8.266938
 20
-131.384040
 30
0.0
 10
10.342118
 20
-131.384040
 30
0.0
 10
10.342372
 20
-131.384040
 30
0.0
  0
SPLINE
  5
1d1
100
AcDbEntity
  8
0
 62
7
100
AcDbSpline
 70
0
 71
3
 72
13
 73
9
 74
7
 40
0.000000
 40
0.000000
 40
0.000000
 40
0.000000
 40
0.206545
 40
0.401087
 40
0.585061
 40
0.751029
 40
0.892487
 40
1.011769
 40
1.011769
 40
1.011769
 40
1.011769
 10
8.785352
 20
-132.470652
 30
0.0
 10
8.762677
 20
-132.405612
 30
0.0
 10
8.718644
 20
-132.279311
 30
0.0
 10
8.637395
 20
-132.101710
 30
0.0
 10
8.548346
 20
-131.943255
 30
0.0
 10
8.455962
 20
-131.807984
 30
0.0
 10
8.365557
 20
-131.697164
 30
0.0
 10
8.297893
 20
-131.642308
 30
0.0
 10
8.266938
 20
-131.617212
 30
0.0
 11
8.785352
 21
-132.470652
 31
0.0
 11
8.714232
 21
-132.276737
 31
0.0
 11
8.633460
 21
-132.099756
 31
0.0
 11
8.543036
 21
-131.939538
 31
0.0
 11
8.449216
 21
-131.802632
 31
0.0
 11
8.357202
 21
-131.695190
 31
0.0
 11
8.266938
 21
-131.617212
 31
0.0
  0
LWPOLYLINE
  5
1d2
100
AcDbEntity
  8
0
 62
7
100
AcDbPolyline
 90
4
 70
0
 10
8.544052
 20
-130.432556
 30
0.0
 10
8.301736
 20
-130.432556
 30
0.0
 10
8.301736
 20
-128.527048
 30
0.0
 10
8.497824
 20
-128.527048
 30
0.0
  0
SPLINE
  5
1d3
100
AcDbEntity
  8
0
 62
7
100
AcDbSpline
 70
0
 71
3
 72
16
 73
12
 74
10
 40
0.000000
 40
0.000000
 40
0.000000
 40
0.000000
 40
0.243076
 40
0.506317
 40
0.791307
 40
1.081134
 40
1.359414
 40
1.628672
 40
1.818043
 40
2.013269
 40
2.215927
 40
2.215927
 40
2.215927
 40
2.215927
 10
8.497824
 20
-128.527048
 30
0.0
 10
8.548431
 20
-128.590406
 30
0.0
 10
8.653842
 20
-128.722378
 30
0.0
 10
8.842615
 20
-128.907408
 30
0.0
 10
9.055422
 20
-129.088562
 30
0.0
 10
9.285188
 20
-129.256760
 30
0.0
 10
9.525325
 20
-129.399810
 30
0.0
 10
9.747604
 20
-129.505419
 30
0.0
 10
9.952960
 20
-129.579238
 30
0.0
 10
10.143544
 20
-129.626124
 30
0.0
 10
10.275276
 20
-129.642267
 30
0.0
 10
10.342372
 20
-129.650490
 30
0.0
 11
8.497824
 21
-128.527048
 31
0.0
 11
8.653187
 21
-128.713992
 31
0.0
 11
8.839369
 21
-128.900089
 31
0.0
 11
9.056370
 21
-129.084832
 31
0.0
 11
9.290878
 21
-129.255144
 31
0.0
 11
9.530014
 21
-129.397459
 31
0.0
 11
9.773666
 21
-129.512060
 31
0.0
 11
9.952096
 21
-129.575494
 31
0.0
 11
10.141759
 21
-129.621769
 31
0.0
 11
10.342372
 21
-129.650490
 31
0.0
  0
LWPOLYLINE
  5
1d4
100
AcDbEntity
  8
0
 62
7
100
AcDbPolyline
 90
2
 70
0
 10
10.342372
 20
-129.650490
 30
0.0
 10
10.342372
 20
-130.020822
 30
0.0
  0
LWPOLYLINE
  5
1d5
100
AcDbEntity
  8
0
 62
7
100
AcDbPolyline
 90
3
 70
0
 10
8.544052
 20
-128.991868
 30
0.0
 10
8.544052
 20
-130.432302
 30
0.0
 10
8.544052
 20
-130.432556
 30
0.0
  0
LWPOLYLINE
  5
1d6
100
AcDbEntity
  8
0
 62
7
100
AcDbPolyline
 90
5
 70
1
 10
10.342372
 20
-127.962660
 30
0.0
 10
10.053828
 20
-127.962660
 30
0.0
 10
10.053828
 20
-127.551180
 30
0.0
 10
10.342372
 20
-127.551180
 30
0.0
 10
10.342372
 20
-127.962660
 30
0.0
  0
SPLINE
  5
1d7
100
AcDbEntity
  8
0
 62
7
100
AcDbSpline
 70
0
 71
3
 72
16
 73
12
 74
10
 40
0.000000
 40
0.000000
 40
0.000000
 40
0.000000
 40
0.174871
 40
0.376698
 40
0.607766
 40
0.856568
 40
1.111446
 40
1.375019
 40
1.637127
 40
1.886975
 40
2.126369
 40
2.126369
 40
2.126369
 40
2.126369
 10
10.342372
 20
-130.020822
 30
0.0
 10
10.284160
 20
-130.016399
 30
0.0
 10
10.158764
 20
-130.006873
 30
0.0
 10
9.961487
 20
-129.957507
 30
0.0
 10
9.745857
 20
-129.885634
 30
0.0
 10
9.520826
 20
-129.787832
 30
0.0
 10
9.297520
 20
-129.662309
 30
0.0
 10
9.083581
 20
-129.513595
 30
0.0
 10
8.883614
 20
-129.349523
 30
0.0
 10
8.701093
 20
-129.177360
 30
0.0
 10
8.595648
 20
-129.052811
 30
0.0
 10
8.544052
 20
-128.991868
 30
0.0
 11
10.342372
 21
-130.020822
 31
0.0
 11
10.168410
 21
-130.003014
 31
0.0
 11
9.971758
 21
-129.957604
 31
0.0
 11
9.752584
 21
-129.884424
 31
0.0
 11
9.524558
 21
-129.784894
 31
0.0
 11
9.302176
 21
-129.660358
 31
0.0
 11
9.085326
 21
-129.510536
 31
0.0
 11
8.882455
 21
-129.344571
 31
0.0
 11
8.702049
 21
-129.171719
 31
0.0
 11
8.544052
 21
-128.991868
 31
0.0
  0
LWPOLYLINE
  5
1d8
100
AcDbEntity
  8
0
 62
7
100
AcDbPolyline
 90
2
 70
0
 10
9.799828
 20
-127.021082
 30
0.0
 10
9.779508
 20
-126.642368
 30
0.0
  0
SPLINE
  5
1d9
100
AcDbEntity
  8
0
 62
7
100
AcDbSpline
 70
0
 71
3
 72
31
 73
27
 74
25
 40
0.000000
 40
0.000000
 40
0.000000
 40
0.000000
 40
0.125284
 40
0.242268
 40
0.359760
 40
0.481523
 40
0.609604
 40
0.748701
 40
0.916166
 40
1.071086
 40
1.221446
 40
1.364141
 40
1.500063
 40
1.643427
 40
1.779306
 40
1.906904
 40
2.040621
 40
2.185480
 40
2.342740
 40
2.519475
 40
2.632885
 40
2.739717
 40
2.841954
 40
2.937224
 40
3.024779
 40
3.106814
 40
3.106814
 40
3.106814
 40
3.106814
 10
9.779508
 20
-126.642368
 30
0.0
 10
9.819925
 20
-126.631024
 30
0.0
 10
9.898082
 20
-126.609088
 30
0.0
 10
9.999255
 20
-126.540811
 30
0.0
 10
10.076601
 20
-126.449040
 30
0.0
 10
10.130473
 20
-126.337919
 30
0.0
 10
10.162923
 20
-126.211602
 30
0.0
 10
10.173012
 20
-126.066499
 30
0.0
 10
10.160257
 20
-125.912279
 30
0.0
 10
10.113731
 20
-125.760301
 30
0.0
 10
10.037588
 20
-125.630267
 30
0.0
 10
9.935107
 20
-125.527511
 30
0.0
 10
9.806103
 20
-125.464826
 30
0.0
 10
9.666970
 20
-125.447331
 30
0.0
 10
9.530542
 20
-125.464039
 30
0.0
 10
9.409457
 20
-125.524304
 30
0.0
 10
9.314752
 20
-125.624081
 30
0.0
 10
9.245072
 20
-125.753186
 30
0.0
 10
9.204016
 20
-125.908708
 30
0.0
 10
9.193500
 20
-126.058158
 30
0.0
 10
9.200072
 20
-126.190539
 30
0.0
 10
9.218712
 20
-126.296720
 30
0.0
 10
9.249728
 20
-126.393693
 30
0.0
 10
9.291029
 20
-126.479454
 30
0.0
 10
9.339046
 20
-126.554215
 30
0.0
 10
9.379122
 20
-126.594284
 30
0.0
 10
9.398508
 20
-126.613666
 30
0.0
 11
9.779508
 21
-126.642368
 31
0.0
 11
9.898079
 21
-126.601907
 31
0.0
 11
9.995370
 21
-126.536949
 31
0.0
 11
10.071608
 21
-126.447550
 31
0.0
 11
10.125795
 21
-126.338509
 31
0.0
 11
10.158307
 21
-126.214623
 31
0.0
 11
10.169144
 21
-126.075948
 31
0.0
 11
10.153753
 21
-125.909192
 31
0.0
 11
10.107657
 21
-125.761289
 31
0.0
 11
10.030968
 21
-125.631956
 31
0.0
 11
9.928606
 21
-125.532539
 31
0.0
 11
9.806432
 21
-125.472971
 31
0.0
 11
9.664446
 21
-125.453140
 31
0.0
 11
9.529901
 21
-125.472134
 31
0.0
 11
9.415789
 21
-125.529227
 31
0.0
 11
9.322054
 21
-125.624590
 31
0.0
 11
9.252204
 21
-125.751496
 31
0.0
 11
9.210294
 21
-125.903068
 31
0.0
 11
9.196324
 21
-126.079250
 31
0.0
 11
9.202589
 21
-126.192487
 31
0.0
 11
9.221385
 21
-126.297652
 31
0.0
 11
9.252712
 21
-126.394972
 31
0.0
 11
9.293954
 21
-126.480852
 31
0.0
 11
9.342534
 21
-126.553694
 31
0.0
 11
9.398508
 21
-126.613666
 31
0.0
  0
LWPOLYLINE
  5
1da
100
AcDbEntity
  8
0
 62
7
100
AcDbPolyline
 90
7
 70
0
 10
9.398508
 20
-126.613666
 30
0.0
 10
9.363710
 20
-126.955296
 30
0.0
 10
8.301736
 20
-126.671324
 30
0.0
 10
8.301736
 20
-125.210316
 30
0.0
 10
8.544052
 20
-125.210316
 30
0.0
 10
8.544052
 20
-126.382526
 30
0.0
 10
9.101582
 20
-126.539752
 30
0.0
  0
LWPOLYLINE
  5
1db
100
AcDbEntity
  8
0
 62
7
100
AcDbPolyline
 90
2
 70
0
 10
9.799828
 20
-127.021336
 30
0.0
 10
9.799828
 20
-127.021082
 30
0.0
  0
SPLINE
  5
1dc
100
AcDbEntity
  8
0
 62
7
100
AcDbSpline
 70
0
 71
3
 72
28
 73
24
 74
22
 40
0.000000
 40
0.000000
 40
0.000000
 40
0.000000
 40
0.193330
 40
0.383381
 40
0.574661
 40
0.818780
 40
1.044145
 40
1.260567
 40
1.461576
 40
1.644991
 40
1.831648
 40
2.012161
 40
2.191380
 40
2.385251
 40
2.638827
 40
2.909838
 40
3.214810
 40
3.466481
 40
3.691085
 40
3.896521
 40
4.082854
 40
4.252699
 40
4.422232
 40
4.422232
 40
4.422232
 40
4.422232
 10
9.101582
 20
-126.539752
 30
0.0
 10
9.075435
 20
-126.480719
 30
0.0
 10
9.023584
 20
-126.363653
 30
0.0
 10
8.980867
 20
-126.175682
 30
0.0
 10
8.965694
 20
-125.967223
 30
0.0
 10
8.983509
 20
-125.746427
 30
0.0
 10
9.045736
 20
-125.524647
 30
0.0
 10
9.149033
 20
-125.334967
 30
0.0
 10
9.284261
 20
-125.183720
 30
0.0
 10
9.453963
 20
-125.088671
 30
0.0
 10
9.638861
 20
-125.061611
 30
0.0
 10
9.821770
 20
-125.086886
 30
0.0
 10
9.990452
 20
-125.168965
 30
0.0
 10
10.145749
 20
-125.311831
 30
0.0
 10
10.278948
 20
-125.514558
 30
0.0
 10
10.361790
 20
-125.781630
 30
0.0
 10
10.383346
 20
-126.058223
 30
0.0
 10
10.367137
 20
-126.318898
 30
0.0
 10
10.315775
 20
-126.541614
 30
0.0
 10
10.228446
 20
-126.729560
 30
0.0
 10
10.112041
 20
-126.878025
 30
0.0
 10
9.966819
 20
-126.983743
 30
0.0
 10
9.855458
 20
-127.008813
 30
0.0
 10
9.799828
 20
-127.021336
 30
0.0
 11
9.101582
 21
-126.539752
 31
0.0
 11
9.029079
 21
-126.360531
 31
0.0
 11
8.985702
 21
-126.175497
 31
0.0
 11
8.971280
 21
-125.984762
 31
0.0
 11
8.992108
 21
-125.741533
 31
0.0
 11
9.054592
 21
-125.525003
 31
0.0
 11
9.158732
 21
-125.335284
 31
0.0
 11
9.295798
 21
-125.188256
 31
0.0
 11
9.456514
 21
-125.099873
 31
0.0
 11
9.640824
 21
-125.070362
 31
0.0
 11
9.819480
 21
-125.096185
 31
0.0
 11
9.981090
 21
-125.173655
 31
0.0
 11
10.125710
 21
-125.302772
 31
0.0
 11
10.265231
 21
-125.514514
 31
0.0
 11
10.348985
 21
-125.772258
 31
0.0
 11
10.376916
 21
-126.075948
 31
0.0
 11
10.359315
 21
-126.327003
 31
0.0
 11
10.306549
 21
-126.545321
 31
0.0
 11
10.218674
 21
-126.731014
 31
0.0
 11
10.101900
 21
-126.876217
 31
0.0
 11
9.962322
 21
-126.972991
 31
0.0
 11
9.799828
 21
-127.021336
 31
0.0
  0
LWPOLYLINE
  5
1dd
100
AcDbEntity
  8
0
 62
7
100
AcDbPolyline
 90
2
 70
0
 10
9.799828
 20
-124.732288
 30
0.0
 10
9.779508
 20
-124.353574
 30
0.0
  0
SPLINE
  5
1de
100
AcDbEntity
  8
0
 62
7
100
AcDbSpline
 70
0
 71
3
 72
31
 73
27
 74
25
 40
0.000000
 40
0.000000
 40
0.000000
 40
0.000000
 40
0.125284
 40
0.242268
 40
0.359760
 40
0.481523
 40
0.609604
 40
0.748701
 40
0.916166
 40
1.071086
 40
1.221446
 40
1.364141
 40
1.500063
 40
1.643427
 40
1.779306
 40
1.906904
 40
2.040621
 40
2.185480
 40
2.342740
 40
2.519475
 40
2.632885
 40
2.739717
 40
2.841954
 40
2.937224
 40
3.024779
 40
3.106814
 40
3.106814
 40
3.106814
 40
3.106814
 10
9.779508
 20
-124.353574
 30
0.0
 10
9.819925
 20
-124.342230
 30
0.0
 10
9.898082
 20
-124.320294
 30
0.0
 10
9.999255
 20
-124.252017
 30
0.0
 10
10.076601
 20
-124.160246
 30
0.0
 10
10.130473
 20
-124.049125
 30
0.0
 10
10.162923
 20
-123.922808
 30
0.0
 10
10.173012
 20
-123.777705
 30
0.0
 10
10.160257
 20
-123.623485
 30
0.0
 10
10.113731
 20
-123.471507
 30
0.0
 10
10.037588
 20
-123.341473
 30
0.0
 10
9.935107
 20
-123.238717
 30
0.0
 10
9.806103
 20
-123.176032
 30
0.0
 10
9.666970
 20
-123.158537
 30
0.0
 10
9.530542
 20
-123.175245
 30
0.0
 10
9.409457
 20
-123.235510
 30
0.0
 10
9.314752
 20
-123.335287
 30
0.0
 10
9.245072
 20
-123.464392
 30
0.0
 10
9.204016
 20
-123.619914
 30
0.0
 10
9.193500
 20
-123.769364
 30
0.0
 10
9.200072
 20
-123.901745
 30
0.0
 10
9.218712
 20
-124.007926
 30
0.0
 10
9.249728
 20
-124.104899
 30
0.0
 10
9.291029
 20
-124.190660
 30
0.0
 10
9.339046
 20
-124.265421
 30
0.0
 10
9.379122
 20
-124.305490
 30
0.0
 10
9.398508
 20
-124.324872
 30
0.0
 11
9.779508
 21
-124.353574
 31
0.0
 11
9.898079
 21
-124.313113
 31
0.0
 11
9.995370
 21
-124.248155
 31
0.0
 11
10.071608
 21
-124.158756
 31
0.0
 11
10.125795
 21
-124.049715
 31
0.0
 11
10.158307
 21
-123.925829
 31
0.0
 11
10.169144
 21
-123.787154
 31
0.0
 11
10.153753
 21
-123.620398
 31
0.0
 11
10.107657
 21
-123.472495
 31
0.0
 11
10.030968
 21
-123.343162
 31
0.0
 11
9.928606
 21
-123.243745
 31
0.0
 11
9.806432
 21
-123.184177
 31
0.0
 11
9.664446
 21
-123.164346
 31
0.0
 11
9.529901
 21
-123.183340
 31
0.0
 11
9.415789
 21
-123.240433
 31
0.0
 11
9.322054
 21
-123.335796
 31
0.0
 11
9.252204
 21
-123.462702
 31
0.0
 11
9.210294
 21
-123.614274
 31
0.0
 11
9.196324
 21
-123.790456
 31
0.0
 11
9.202589
 21
-123.903693
 31
0.0
 11
9.221385
 21
-124.008858
 31
0.0
 11
9.252712
 21
-124.106178
 31
0.0
 11
9.293954
 21
-124.192058
 31
0.0
 11
9.342534
 21
-124.264900
 31
0.0
 11
9.398508
 21
-124.324872
 31
0.0
  0
LWPOLYLINE
  5
1df
100
AcDbEntity
  8
0
 62
7
100
AcDbPolyline
 90
7
 70
0
 10
9.398508
 20
-124.324872
 30
0.0
 10
9.363710
 20
-124.666502
 30
0.0
 10
8.301736
 20
-124.382530
 30
0.0
 10
8.301736
 20
-122.921522
 30
0.0
 10
8.544052
 20
-122.921522
 30
0.0
 10
8.544052
 20
-124.093732
 30
0.0
 10
9.101582
 20
-124.250958
 30
0.0
  0
LWPOLYLINE
  5
1e0
100
AcDbEntity
  8
0
 62
7
100
AcDbPolyline
 90
2
 70
0
 10
9.799828
 20
-124.732542
 30
0.0
 10
9.799828
 20
-124.732288
 30
0.0
  0
SPLINE
  5
1e1
100
AcDbEntity
  8
0
 62
7
100
AcDbSpline
 70
0
 71
3
 72
28
 73
24
 74
22
 40
0.000000
 40
0.000000
 40
0.000000
 40
0.000000
 40
0.193330
 40
0.383381
 40
0.574661
 40
0.818780
 40
1.044145
 40
1.260567
 40
1.461576
 40
1.644991
 40
1.831648
 40
2.012161
 40
2.191380
 40
2.385251
 40
2.638827
 40
2.909838
 40
3.214810
 40
3.466481
 40
3.691085
 40
3.896521
 40
4.082854
 40
4.252699
 40
4.422232
 40
4.422232
 40
4.422232
 40
4.422232
 10
9.101582
 20
-124.250958
 30
0.0
 10
9.075435
 20
-124.191925
 30
0.0
 10
9.023584
 20
-124.074859
 30
0.0
 10
8.980867
 20
-123.886888
 30
0.0
 10
8.965694
 20
-123.678429
 30
0.0
 10
8.983509
 20
-123.457633
 30
0.0
 10
9.045736
 20
-123.235853
 30
0.0
 10
9.149033
 20
-123.046173
 30
0.0
 10
9.284261
 20
-122.894926
 30
0.0
 10
9.453963
 20
-122.799877
 30
0.0
 10
9.638861
 20
-122.772817
 30
0.0
 10
9.821770
 20
-122.798092
 30
0.0
 10
9.990452
 20
-122.880171
 30
0.0
 10
10.145749
 20
-123.023037
 30
0.0
 10
10.278948
 20
-123.225764
 30
0.0
 10
10.361790
 20
-123.492836
 30
0.0
 10
10.383346
 20
-123.769429
 30
0.0
 10
10.367137
 20
-124.030104
 30
0.0
 10
10.315775
 20
-124.252820
 30
0.0
 10
10.228446
 20
-124.440766
 30
0.0
 10
10.112041
 20
-124.589231
 30
0.0
 10
9.966819
 20
-124.694949
 30
0.0
 10
9.855458
 20
-124.720019
 30
0.0
 10
9.799828
 20
-124.732542
 30
0.0
 11
9.101582
 21
-124.250958
 31
0.0
 11
9.029079
 21
-124.071737
 31
0.0
 11
8.985702
 21
-123.886703
 31
0.0
 11
8.971280
 21
-123.695968
 31
0.0
 11
8.992108
 21
-123.452739
 31
0.0
 11
9.054592
 21
-123.236209
 31
0.0
 11
9.158732
 21
-123.046490
 31
0.0
 11
9.295798
 21
-122.899462
 31
0.0
 11
9.456514
 21
-122.811079
 31
0.0
 11
9.640824
 21
-122.781568
 31
0.0
 11
9.819480
 21
-122.807391
 31
0.0
 11
9.981090
 21
-122.884861
 31
0.0
 11
10.125710
 21
-123.013978
 31
0.0
 11
10.265231
 21
-123.225720
 31
0.0
 11
10.348985
 21
-123.483464
 31
0.0
 11
10.376916
 21
-123.787154
 31
0.0
 11
10.359315
 21
-124.038209
 31
0.0
 11
10.306549
 21
-124.256527
 31
0.0
 11
10.218674
 21
-124.442220
 31
0.0
 11
10.101900
 21
-124.587423
 31
0.0
 11
9.962322
 21
-124.684197
 31
0.0
 11
9.799828
 21
-124.732542
 31
0.0
  0
SPLINE
  5
1e2
100
AcDbEntity
  8
0
 62
7
100
AcDbSpline
 70
0
 71
3
 72
19
 73
15
 74
13
 40
0.000000
 40
0.000000
 40
0.000000
 40
0.000000
 40
0.100849
 40
0.207548
 40
0.322298
 40
0.444375
 40
0.572750
 40
0.709714
 40
0.858230
 40
0.989663
 40
1.106462
 40
1.211422
 40
1.307198
 40
1.399226
 40
1.399226
 40
1.399226
 40
1.399226
 10
9.055862
 20
-122.019568
 30
0.0
 10
9.032159
 20
-121.995619
 30
0.0
 10
8.983377
 20
-121.946331
 30
0.0
 10
8.925071
 20
-121.855274
 30
0.0
 10
8.876010
 20
-121.751589
 30
0.0
 10
8.838800
 20
-121.635236
 30
0.0
 10
8.816925
 20
-121.507576
 30
0.0
 10
8.810247
 20
-121.369543
 30
0.0
 10
8.816820
 20
-121.230464
 30
0.0
 10
8.838819
 20
-121.099671
 30
0.0
 10
8.876511
 20
-120.987398
 30
0.0
 10
8.928927
 20
-120.894950
 30
0.0
 10
8.993513
 20
-120.819860
 30
0.0
 10
9.047631
 20
-120.787686
 30
0.0
 10
9.074150
 20
-120.771920
 30
0.0
 11
9.055862
 21
-122.019568
 31
0.0
 11
8.987404
 21
-121.945513
 31
0.0
 11
8.928486
 21
-121.856556
 31
0.0
 11
8.879332
 21
-121.752868
 31
0.0
 11
8.842145
 21
-121.636592
 31
0.0
 11
8.819915
 21
-121.510157
 31
0.0
 11
8.812530
 21
-121.373392
 31
0.0
 11
8.820216
 21
-121.225075
 31
0.0
 11
8.843198
 21
-121.095667
 31
0.0
 11
8.881364
 21
-120.985280
 31
0.0
 11
8.933490
 21
-120.894179
 31
0.0
 11
8.997640
 21
-120.823059
 31
0.0
 11
9.074150
 21
-120.771920
 31
0.0
  0
LWPOLYLINE
  5
1e3
100
AcDbEntity
  8
0
 62
7
100
AcDbPolyline
 90
4
 70
0
 10
10.342372
 20
-122.344688
 30
0.0
 10
8.844280
 20
-122.344688
 30
0.0
 10
8.844280
 20
-122.019568
 30
0.0
 10
9.055862
 20
-122.019568
 30
0.0
  0
SPLINE
  5
1e4
100
AcDbEntity
  8
0
 62
7
100
AcDbSpline
 70
0
 71
3
 72
16
 73
12
 74
10
 40
0.000000
 40
0.000000
 40
0.000000
 40
0.000000
 40
0.236868
 40
0.474064
 40
0.730358
 40
0.927127
 40
1.095696
 40
1.243022
 40
1.379206
 40
1.518138
 40
1.675270
 40
1.675270
 40
1.675270
 40
1.675270
 10
9.074150
 20
-120.771920
 30
0.0
 10
9.021598
 20
-120.712253
 30
0.0
 10
8.916421
 20
-120.592837
 30
0.0
 10
8.829430
 20
-120.360013
 30
0.0
 10
8.806662
 20
-120.129618
 30
0.0
 10
8.819735
 20
-119.922096
 30
0.0
 10
8.858824
 20
-119.754652
 30
0.0
 10
8.927277
 20
-119.618218
 30
0.0
 10
9.028521
 20
-119.516477
 30
0.0
 10
9.163439
 20
-119.456125
 30
0.0
 10
9.262579
 20
-119.450366
 30
0.0
 10
9.315196
 20
-119.447310
 30
0.0
 11
9.074150
 21
-120.771920
 31
0.0
 11
8.928655
 21
-120.585004
 31
0.0
 11
8.841524
 21
-120.364391
 31
0.0
 11
8.812530
 21
-120.109742
 31
0.0
 11
8.826180
 21
-119.913447
 31
0.0
 11
8.867206
 21
-119.749946
 31
0.0
 11
8.935720
 21
-119.619522
 31
0.0
 11
9.032748
 21
-119.523962
 31
0.0
 11
9.159240
 21
-119.466501
 31
0.0
 11
9.315196
 21
-119.447310
 31
0.0
  0
LWPOLYLINE
  5
1e5
100
AcDbEntity
  8
0
 62
7
100
AcDbPolyline
 90
4
 70
0
 10
9.315196
 20
-119.447310
 30
0.0
 10
10.342372
 20
-119.447310
 30
0.0
 10
10.342372
 20
-119.809514
 30
0.0
 10
9.399524
 20
-119.809514
 30
0.0
  0
SPLINE
  5
1e6
100
AcDbEntity
  8
0
 62
7
100
AcDbSpline
 70
0
 71
3
 72
22
 73
18
 74
16
 40
0.000000
 40
0.000000
 40
0.000000
 40
0.000000
 40
0.091785
 40
0.165673
 40
0.223240
 40
0.274535
 40
0.330301
 40
0.393738
 40
0.462980
 40
0.536745
 40
0.616437
 40
0.759165
 40
0.889002
 40
1.011594
 40
1.129752
 40
1.252292
 40
1.393220
 40
1.393220
 40
1.393220
 40
1.393220
 10
9.399524
 20
-119.809514
 30
0.0
 10
9.368907
 20
-119.810139
 30
0.0
 10
9.313642
 20
-119.811267
 30
0.0
 10
9.239870
 20
-119.822523
 30
0.0
 10
9.181483
 20
-119.841909
 30
0.0
 10
9.136193
 20
-119.874265
 30
0.0
 10
9.100002
 20
-119.918768
 30
0.0
 10
9.070931
 20
-119.974767
 30
0.0
 10
9.047979
 20
-120.039902
 30
0.0
 10
9.034812
 20
-120.113266
 30
0.0
 10
9.030059
 20
-120.212011
 30
0.0
 10
9.038834
 20
-120.329772
 30
0.0
 10
9.073842
 20
-120.457592
 30
0.0
 10
9.131186
 20
-120.568421
 30
0.0
 10
9.218069
 20
-120.656307
 30
0.0
 10
9.338116
 20
-120.707670
 30
0.0
 10
9.426279
 20
-120.712461
 30
0.0
 10
9.473438
 20
-120.715024
 30
0.0
 11
9.399524
 21
-119.809514
 31
0.0
 11
9.307830
 21
-119.813606
 31
0.0
 11
9.234932
 21
-119.825657
 31
0.0
 11
9.180830
 21
-119.845328
 31
0.0
 11
9.138967
 21
-119.874971
 31
0.0
 11
9.103144
 21
-119.917709
 31
0.0
 11
9.073134
 21
-119.973598
 31
0.0
 11
9.050227
 21
-120.038942
 31
0.0
 11
9.036690
 21
-120.111454
 31
0.0
 11
9.032240
 21
-120.191022
 31
0.0
 11
9.043915
 21
-120.333271
 31
0.0
 11
9.078901
 21
-120.458305
 31
0.0
 11
9.137142
 21
-120.566180
 31
0.0
 11
9.221395
 21
-120.649022
 31
0.0
 11
9.333475
 21
-120.698561
 31
0.0
 11
9.473438
 21
-120.715024
 31
0.0
  0
LWPOLYLINE
  5
1e7
100
AcDbEntity
  8
0
 62
7
100
AcDbPolyline
 90
4
 70
0
 10
9.473438
 20
-120.715024
 30
0.0
 10
10.342880
 20
-120.715024
 30
0.0
 10
10.342880
 20
-121.077228
 30
0.0
 10
9.370568
 20
-121.077228
 30
0.0
  0
LWPOLYLINE
  5
1e8
100
AcDbEntity
  8
0
 62
7
100
AcDbPolyline
 90
4
 70
0
 10
9.566402
 20
-121.982738
 30
0.0
 10
10.342880
 20
-121.982738
 30
0.0
 10
10.342880
 20
-122.344942
 30
0.0
 10
10.342372
 20
-122.344688
 30
0.0
  0
SPLINE
  5
1e9
100
AcDbEntity
  8
0
 62
7
100
AcDbSpline
 70
0
 71
3
 72
22
 73
18
 74
16
 40
0.000000
 40
0.000000
 40
0.000000
 40
0.000000
 40
0.103666
 40
0.193170
 40
0.275256
 40
0.360827
 40
0.461435
 40
0.583266
 40
0.682524
 40
0.778366
 40
0.872624
 40
0.962205
 40
1.045462
 40
1.126990
 40
1.215822
 40
1.321844
 40
1.447550
 40
1.447550
 40
1.447550
 40
1.447550
 10
9.370568
 20
-121.077228
 30
0.0
 10
9.335913
 20
-121.078769
 30
0.0
 10
9.271337
 20
-121.081642
 30
0.0
 10
9.183107
 20
-121.111449
 30
0.0
 10
9.112375
 20
-121.162768
 30
0.0
 10
9.063570
 20
-121.239982
 30
0.0
 10
9.037143
 20
-121.340233
 30
0.0
 10
9.030241
 20
-121.447670
 30
0.0
 10
9.036362
 20
-121.553380
 30
0.0
 10
9.055307
 20
-121.648292
 30
0.0
 10
9.086030
 20
-121.736609
 30
0.0
 10
9.128292
 20
-121.815615
 30
0.0
 10
9.184382
 20
-121.880199
 30
0.0
 10
9.254139
 20
-121.929628
 30
0.0
 10
9.341476
 20
-121.961362
 30
0.0
 10
9.447159
 20
-121.979856
 30
0.0
 10
9.524466
 20
-121.981724
 30
0.0
 10
9.566402
 20
-121.982738
 30
0.0
 11
9.370568
 21
-121.077228
 31
0.0
 11
9.267369
 21
-121.087049
 31
0.0
 11
9.182853
 21
-121.116513
 31
0.0
 11
9.117076
 21
-121.165620
 31
0.0
 11
9.070086
 21
-121.237135
 31
0.0
 11
9.041892
 21
-121.333712
 31
0.0
 11
9.032494
 21
-121.455180
 31
0.0
 11
9.038759
 21
-121.554240
 31
0.0
 11
9.057555
 21
-121.648220
 31
0.0
 11
9.088882
 21
-121.737120
 31
0.0
 11
9.132184
 21
-121.815540
 31
0.0
 11
9.187058
 21
-121.878156
 31
0.0
 11
9.253728
 21
-121.925080
 31
0.0
 11
9.336598
 21
-121.957075
 31
0.0
 11
9.440860
 21
-121.976313
 31
0.0
 11
9.566402
 21
-121.982738
 31
0.0
  0
SPLINE
  5
1ea
100
AcDbEntity
  8
0
 62
7
100
AcDbSpline
 70
0
 71
3
 72
19
 73
15
 74
13
 40
0.000000
 40
0.000000
 40
0.000000
 40
0.000000
 40
0.100849
 40
0.207548
 40
0.322298
 40
0.444375
 40
0.572750
 40
0.709714
 40
0.858230
 40
0.989663
 40
1.106462
 40
1.211422
 40
1.307198
 40
1.399226
 40
1.399226
 40
1.399226
 40
1.399226
 10
9.055862
 20
-118.591330
 30
0.0
 10
9.032159
 20
-118.567381
 30
0.0
 10
8.983377
 20
-118.518093
 30
0.0
 10
8.925071
 20
-118.427036
 30
0.0
 10
8.876010
 20
-118.323351
 30
0.0
 10
8.838800
 20
-118.206998
 30
0.0
 10
8.816925
 20
-118.079338
 30
0.0
 10
8.810247
 20
-117.941305
 30
0.0
 10
8.816820
 20
-117.802226
 30
0.0
 10
8.838819
 20
-117.671433
 30
0.0
 10
8.876511
 20
-117.559160
 30
0.0
 10
8.928927
 20
-117.466712
 30
0.0
 10
8.993513
 20
-117.391622
 30
0.0
 10
9.047631
 20
-117.359448
 30
0.0
 10
9.074150
 20
-117.343682
 30
0.0
 11
9.055862
 21
-118.591330
 31
0.0
 11
8.987404
 21
-118.517275
 31
0.0
 11
8.928486
 21
-118.428318
 31
0.0
 11
8.879332
 21
-118.324630
 31
0.0
 11
8.842145
 21
-118.208354
 31
0.0
 11
8.819915
 21
-118.081919
 31
0.0
 11
8.812530
 21
-117.945154
 31
0.0
 11
8.820216
 21
-117.796837
 31
0.0
 11
8.843198
 21
-117.667429
 31
0.0
 11
8.881364
 21
-117.557042
 31
0.0
 11
8.933490
 21
-117.465941
 31
0.0
 11
8.997640
 21
-117.394821
 31
0.0
 11
9.074150
 21
-117.343682
 31
0.0
  0
LWPOLYLINE
  5
1eb
100
AcDbEntity
  8
0
 62
7
100
AcDbPolyline
 90
4
 70
0
 10
10.342372
 20
-118.916450
 30
0.0
 10
8.844280
 20
-118.916450
 30
0.0
 10
8.844280
 20
-118.591330
 30
0.0
 10
9.055862
 20
-118.591330
 30
0.0
  0
SPLINE
  5
1ec
100
AcDbEntity
  8
0
 62
7
100
AcDbSpline
 70
0
 71
3
 72
16
 73
12
 74
10
 40
0.000000
 40
0.000000
 40
0.000000
 40
0.000000
 40
0.236868
 40
0.474064
 40
0.730358
 40
0.927127
 40
1.095696
 40
1.243022
 40
1.379206
 40
1.518138
 40
1.675270
 40
1.675270
 40
1.675270
 40
1.675270
 10
9.074150
 20
-117.343682
 30
0.0
 10
9.021598
 20
-117.284015
 30
0.0
 10
8.916421
 20
-117.164599
 30
0.0
 10
8.829430
 20
-116.931775
 30
0.0
 10
8.806662
 20
-116.701380
 30
0.0
 10
8.819735
 20
-116.493858
 30
0.0
 10
8.858824
 20
-116.326414
 30
0.0
 10
8.927277
 20
-116.189980
 30
0.0
 10
9.028521
 20
-116.088239
 30
0.0
 10
9.163439
 20
-116.027887
 30
0.0
 10
9.262579
 20
-116.022128
 30
0.0
 10
9.315196
 20
-116.019072
 30
0.0
 11
9.074150
 21
-117.343682
 31
0.0
 11
8.928655
 21
-117.156766
 31
0.0
 11
8.841524
 21
-116.936153
 31
0.0
 11
8.812530
 21
-116.681504
 31
0.0
 11
8.826180
 21
-116.485209
 31
0.0
 11
8.867206
 21
-116.321708
 31
0.0
 11
8.935720
 21
-116.191284
 31
0.0
 11
9.032748
 21
-116.095724
 31
0.0
 11
9.159240
 21
-116.038263
 31
0.0
 11
9.315196
 21
-116.019072
 31
0.0
  0
LWPOLYLINE
  5
1ed
100
AcDbEntity
  8
0
 62
7
100
AcDbPolyline
 90
4
 70
0
 10
9.315196
 20
-116.019072
 30
0.0
 10
10.342372
 20
-116.019072
 30
0.0
 10
10.342372
 20
-116.381276
 30
0.0
 10
9.399524
 20
-116.381276
 30
0.0
  0
SPLINE
  5
1ee
100
AcDbEntity
  8
0
 62
7
100
AcDbSpline
 70
0
 71
3
 72
22
 73
18
 74
16
 40
0.000000
 40
0.000000
 40
0.000000
 40
0.000000
 40
0.091785
 40
0.165673
 40
0.223240
 40
0.274535
 40
0.330301
 40
0.393738
 40
0.462980
 40
0.536745
 40
0.616437
 40
0.759165
 40
0.889002
 40
1.011594
 40
1.129752
 40
1.252292
 40
1.393220
 40
1.393220
 40
1.393220
 40
1.393220
 10
9.399524
 20
-116.381276
 30
0.0
 10
9.368907
 20
-116.381901
 30
0.0
 10
9.313642
 20
-116.383029
 30
0.0
 10
9.239870
 20
-116.394285
 30
0.0
 10
9.181483
 20
-116.413671
 30
0.0
 10
9.136193
 20
-116.446027
 30
0.0
 10
9.100002
 20
-116.490530
 30
0.0
 10
9.070931
 20
-116.546529
 30
0.0
 10
9.047979
 20
-116.611664
 30
0.0
 10
9.034812
 20
-116.685028
 30
0.0
 10
9.030059
 20
-116.783773
 30
0.0
 10
9.038834
 20
-116.901534
 30
0.0
 10
9.073842
 20
-117.029354
 30
0.0
 10
9.131186
 20
-117.140183
 30
0.0
 10
9.218069
 20
-117.228069
 30
0.0
 10
9.338116
 20
-117.279432
 30
0.0
 10
9.426279
 20
-117.284223
 30
0.0
 10
9.473438
 20
-117.286786
 30
0.0
 11
9.399524
 21
-116.381276
 31
0.0
 11
9.307830
 21
-116.385368
 31
0.0
 11
9.234932
 21
-116.397419
 31
0.0
 11
9.180830
 21
-116.417090
 31
0.0
 11
9.138967
 21
-116.446733
 31
0.0
 11
9.103144
 21
-116.489471
 31
0.0
 11
9.073134
 21
-116.545360
 31
0.0
 11
9.050227
 21
-116.610704
 31
0.0
 11
9.036690
 21
-116.683216
 31
0.0
 11
9.032240
 21
-116.762784
 31
0.0
 11
9.043915
 21
-116.905033
 31
0.0
 11
9.078901
 21
-117.030067
 31
0.0
 11
9.137142
 21
-117.137942
 31
0.0
 11
9.221395
 21
-117.220784
 31
0.0
 11
9.333475
 21
-117.270323
 31
0.0
 11
9.473438
 21
-117.286786
 31
0.0
  0
LWPOLYLINE
  5
1ef
100
AcDbEntity
  8
0
 62
7
100
AcDbPolyline
 90
4
 70
0
 10
9.473438
 20
-117.286786
 30
0.0
 10
10.342880
 20
-117.286786
 30
0.0
 10
10.342880
 20
-117.648990
 30
0.0
 10
9.370568
 20
-117.648990
 30
0.0
  0
LWPOLYLINE
  5
1f0
100
AcDbEntity
  8
0
 62
7
100
AcDbPolyline
 90
4
 70
0
 10
9.566402
 20
-118.554500
 30
0.0
 10
10.342880
 20
-118.554500
 30
0.0
 10
10.342880
 20
-118.916704
 30
0.0
 10
10.342372
 20
-118.916450
 30
0.0
  0
LWPOLYLINE
  5
1f1
100
AcDbEntity
  8
0
 62
7
100
AcDbPolyline
 90
2
 70
0
 10
203.267056
 20
-0.803656
 30
0.0
 10
500.267224
 20
-0.803656
 30
0.0
  0
LWPOLYLINE
  5
1f2
100
AcDbEntity
  8
0
 62
7
100
AcDbPolyline
 90
2
 70
0
 10
203.267310
 20
6.816344
 30
0.0
 10
203.267310
 20
-8.423656
 30
0.0
  0
LWPOLYLINE
  5
1f3
100
AcDbEntity
  8
0
 62
7
100
AcDbPolyline
 90
2
 70
0
 10
500.266716
 20
6.816344
 30
0.0
 10
500.266716
 20
-8.423656
 30
0.0
  0
SPLINE
  5
1f4
100
AcDbEntity
  8
0
 62
7
100
AcDbSpline
 70
0
 71
3
 72
22
 73
18
 74
16
 40
0.000000
 40
0.000000
 40
0.000000
 40
0.000000
 40
0.103666
 40
0.193170
 40
0.275256
 40
0.360827
 40
0.461435
 40
0.583266
 40
0.682524
 40
0.778366
 40
0.872624
 40
0.962205
 40
1.045462
 40
1.126990
 40
1.215822
 40
1.321844
 40
1.447550
 40
1.447550
 40
1.447550
 40
1.447550
 10
9.370568
 20
-117.648990
 30
0.0
 10
9.335913
 20
-117.650531
 30
0.0
 10
9.271337
 20
-117.653404
 30
0.0
 10
9.183107
 20
-117.683211
 30
0.0
 10
9.112375
 20
-117.734530
 30
0.0
 10
9.063570
 20
-117.811744
 30
0.0
 10
9.037143
 20
-117.911995
 30
0.0
 10
9.030241
 20
-118.019432
 30
0.0
 10
9.036362
 20
-118.125142
 30
0.0
 10
9.055307
 20
-118.220054
 30
0.0
 10
9.086030
 20
-118.308371
 30
0.0
 10
9.128292
 20
-118.387377
 30
0.0
 10
9.184382
 20
-118.451961
 30
0.0
 10
9.254139
 20
-118.501390
 30
0.0
 10
9.341476
 20
-118.533124
 30
0.0
 10
9.447159
 20
-118.551618
 30
0.0
 10
9.524466
 20
-118.553486
 30
0.0
 10
9.566402
 20
-118.554500
 30
0.0
 11
9.370568
 21
-117.648990
 31
0.0
 11
9.267369
 21
-117.658811
 31
0.0
 11
9.182853
 21
-117.688275
 31
0.0
 11
9.117076
 21
-117.737382
 31
0.0
 11
9.070086
 21
-117.808897
 31
0.0
 11
9.041892
 21
-117.905474
 31
0.0
 11
9.032494
 21
-118.026942
 31
0.0
 11
9.038759
 21
-118.126002
 31
0.0
 11
9.057555
 21
-118.219982
 31
0.0
 11
9.088882
 21
-118.308882
 31
0.0
 11
9.132184
 21
-118.387302
 31
0.0
 11
9.187058
 21
-118.449918
 31
0.0
 11
9.253728
 21
-118.496842
 31
0.0
 11
9.336598
 21
-118.528837
 31
0.0
 11
9.440860
 21
-118.548075
 31
0.0
 11
9.566402
 21
-118.554500
 31
0.0
  0
LWPOLYLINE
  5
1f5
100
AcDbEntity
  8
0
 62
7
100
AcDbPolyline
 90
3
 70
0
 10
340.225888
 20
-0.448056
 30
0.0
 10
340.225888
 20
-0.803656
 30
0.0
 10
338.219288
 20
-0.803656
 30
0.0
  0
SPLINE
  5
1f6
100
AcDbEntity
  8
0
 62
7
100
AcDbSpline
 70
0
 71
3
 72
34
 73
30
 74
28
 40
0.000000
 40
0.000000
 40
0.000000
 40
0.000000
 40
0.088547
 40
0.176012
 40
0.264050
 40
0.413157
 40
0.570895
 40
0.739066
 40
0.929013
 40
1.151654
 40
1.407678
 40
1.793803
 40
2.102557
 40
2.335554
 40
2.518893
 40
2.679569
 40
2.824908
 40
2.965650
 40
3.100772
 40
3.241127
 40
3.384959
 40
3.532048
 40
3.692444
 40
3.861276
 40
4.014881
 40
4.164447
 40
4.314811
 40
4.472714
 40
4.649654
 40
4.649654
 40
4.649654
 40
4.649654
 10
338.219288
 20
-0.803656
 30
0.0
 10
338.219472
 20
-0.774101
 30
0.0
 10
338.219839
 20
-0.715351
 30
0.0
 10
338.235067
 20
-0.628228
 30
0.0
 10
338.267814
 20
-0.524892
 30
0.0
 10
338.323629
 20
-0.405194
 30
0.0
 10
338.406886
 20
-0.270152
 30
0.0
 10
338.513246
 20
-0.134611
 30
0.0
 10
338.646739
 20
0.005822
 30
0.0
 10
338.809570
 20
0.158182
 30
0.0
 10
339.030919
 20
0.342912
 30
0.0
 10
339.273614
 20
0.546904
 30
0.0
 10
339.498263
 20
0.759756
 30
0.0
 10
339.659406
 20
0.940752
 30
0.0
 10
339.763806
 20
1.103275
 30
0.0
 10
339.826107
 20
1.255440
 30
0.0
 10
339.847059
 20
1.404510
 30
0.0
 10
339.830014
 20
1.545625
 30
0.0
 10
339.775014
 20
1.675047
 30
0.0
 10
339.685445
 20
1.784526
 30
0.0
 10
339.567725
 20
1.870075
 30
0.0
 10
339.424220
 20
1.921336
 30
0.0
 10
339.264991
 20
1.936025
 30
0.0
 10
339.103514
 20
1.920903
 30
0.0
 10
338.953637
 20
1.866700
 30
0.0
 10
338.830656
 20
1.775067
 30
0.0
 10
338.737983
 20
1.651246
 30
0.0
 10
338.682020
 20
1.496631
 30
0.0
 10
338.675742
 20
1.384748
 30
0.0
 10
338.672424
 20
1.325626
 30
0.0
 11
338.219288
 21
-0.803656
 31
0.0
 11
338.222317
 21
-0.715161
 31
0.0
 11
338.236917
 21
-0.628923
 31
0.0
 11
338.262976
 21
-0.544830
 31
0.0
 11
338.324867
 21
-0.409175
 31
0.0
 11
338.407417
 21
-0.274762
 31
0.0
 11
338.510626
 21
-0.141986
 31
0.0
 11
338.640420
 21
-0.003302
 31
0.0
 11
338.802726
 21
0.149098
 31
0.0
 11
338.997544
 21
0.315214
 31
0.0
 11
339.290547
 21
0.566693
 31
0.0
 11
339.513108
 21
0.780693
 31
0.0
 11
339.665056
 21
0.957326
 31
0.0
 11
339.762667
 21
1.112520
 31
0.0
 11
339.821275
 21
1.262126
 31
0.0
 11
339.840824
 21
1.406144
 31
0.0
 11
339.823204
 21
1.545778
 31
0.0
 11
339.770306
 21
1.670116
 31
0.0
 11
339.682074
 21
1.779270
 31
0.0
 11
339.565413
 21
1.863400
 31
0.0
 11
339.427303
 21
1.914003
 31
0.0
 11
339.267800
 21
1.930908
 31
0.0
 11
339.099915
 21
1.913043
 31
0.0
 11
338.955963
 21
1.859449
 31
0.0
 11
338.836000
 21
1.770126
 31
0.0
 11
338.745896
 21
1.649749
 31
0.0
 11
338.691408
 21
1.501545
 31
0.0
 11
338.672424
 21
1.325626
 31
0.0
  0
LWPOLYLINE
  5
1f7
100
AcDbEntity
  8
0
 62
7
100
AcDbPolyline
 90
2
 70
0
 10
338.672424
 20
1.325626
 30
0.0
 10
338.291424
 20
1.363726
 30
0.0
  0
LWPOLYLINE
  5
1f8
100
AcDbEntity
  8
0
 62
7
100
AcDbPolyline
 90
3
 70
0
 10
338.738210
 20
-0.448056
 30
0.0
 10
340.226142
 20
-0.448056
 30
0.0
 10
340.225888
 20
-0.448056
 30
0.0
  0
SPLINE
  5
1f9
100
AcDbEntity
  8
0
 62
7
100
AcDbSpline
 70
0
 71
3
 72
34
 73
30
 74
28
 40
0.000000
 40
0.000000
 40
0.000000
 40
0.000000
 40
0.267243
 40
0.505923
 40
0.732141
 40
0.960044
 40
1.201590
 40
1.471604
 40
1.743538
 40
1.987607
 40
2.220151
 40
2.444905
 40
2.662349
 40
2.889885
 40
3.010826
 40
3.132578
 40
3.257489
 40
3.391579
 40
3.540136
 40
3.704956
 40
3.907470
 40
4.168635
 40
4.488644
 40
4.747298
 40
4.939205
 40
5.064603
 40
5.154460
 40
5.239700
 40
5.320881
 40
5.320881
 40
5.320881
 40
5.320881
 10
338.291424
 20
1.363726
 30
0.0
 10
338.303880
 20
1.452279
 30
0.0
 10
338.327461
 20
1.619921
 30
0.0
 10
338.428905
 20
1.845913
 30
0.0
 10
338.580016
 20
2.024605
 30
0.0
 10
338.777631
 20
2.152019
 30
0.0
 10
339.015259
 20
2.226382
 30
0.0
 10
339.277078
 20
2.247504
 30
0.0
 10
339.539737
 20
2.225304
 30
0.0
 10
339.779384
 20
2.144883
 30
0.0
 10
339.972082
 20
2.007093
 30
0.0
 10
340.116607
 20
1.831178
 30
0.0
 10
340.204798
 20
1.622691
 30
0.0
 10
340.226716
 20
1.432956
 30
0.0
 10
340.216378
 20
1.276222
 30
0.0
 10
340.191142
 20
1.155869
 30
0.0
 10
340.148459
 20
1.035986
 30
0.0
 10
340.086941
 20
0.914431
 30
0.0
 10
340.003108
 20
0.790704
 30
0.0
 10
339.894011
 20
0.657484
 30
0.0
 10
339.746461
 20
0.508479
 30
0.0
 10
339.554731
 20
0.331015
 30
0.0
 10
339.342751
 20
0.148107
 30
0.0
 10
339.145916
 20
-0.016940
 30
0.0
 10
339.001769
 20
-0.143717
 30
0.0
 10
338.902715
 20
-0.236698
 30
0.0
 10
338.836282
 20
-0.311760
 30
0.0
 10
338.783157
 20
-0.378785
 30
0.0
 10
338.752947
 20
-0.425344
 30
0.0
 10
338.738210
 20
-0.448056
 30
0.0
 11
338.291424
 21
1.363726
 31
0.0
 11
338.341772
 21
1.626183
 31
0.0
 11
338.440381
 21
1.843541
 31
0.0
 11
338.587080
 21
2.015744
 31
0.0
 11
338.777881
 21
2.140383
 31
0.0
 11
339.007572
 21
2.215125
 31
0.0
 11
339.276436
 21
2.240026
 31
0.0
 11
339.547040
 21
2.213168
 31
0.0
 11
339.777399
 21
2.132518
 31
0.0
 11
339.967062
 21
1.997964
 31
0.0
 11
340.108747
 21
1.823494
 31
0.0
 11
340.193592
 21
1.623286
 31
0.0
 11
340.221824
 21
1.397508
 31
0.0
 11
340.213583
 21
1.276849
 31
0.0
 11
340.188748
 21
1.157657
 31
0.0
 11
340.147148
 21
1.039876
 31
0.0
 11
340.086809
 21
0.920129
 31
0.0
 11
340.004456
 21
0.796488
 31
0.0
 11
339.900260
 21
0.668782
 31
0.0
 11
339.759356
 21
0.523325
 31
0.0
 11
339.568216
 21
0.345355
 31
0.0
 11
339.326728
 21
0.135382
 31
0.0
 11
339.129633
 21
-0.032117
 31
0.0
 11
338.985935
 21
-0.159314
 31
0.0
 11
338.895690
 21
-0.246380
 31
0.0
 11
338.835897
 21
-0.313455
 31
0.0
 11
338.783441
 21
-0.380643
 31
0.0
 11
338.738210
 21
-0.448056
 31
0.0
  0
SPLINE
  5
1fa
100
AcDbEntity
  8
0
 62
7
100
AcDbSpline
 70
0
 71
3
 72
28
 73
24
 74
22
 40
0.000000
 40
0.000000
 40
0.000000
 40
0.000000
 40
0.157469
 40
0.292051
 40
0.410532
 40
0.523170
 40
0.639082
 40
0.765459
 40
0.875403
 40
0.979130
 40
1.080470
 40
1.180427
 40
1.279843
 40
1.381368
 40
1.491855
 40
1.618781
 40
1.763253
 40
1.916206
 40
2.068966
 40
2.222589
 40
2.241838
 40
2.266853
 40
2.297296
 40
2.297296
 40
2.297296
 40
2.297296
 10
341.039450
 20
-0.071120
 30
0.0
 10
341.050667
 20
-0.122506
 30
0.0
 10
341.071472
 20
-0.217809
 30
0.0
 10
341.129273
 20
-0.343369
 30
0.0
 10
341.207626
 20
-0.438808
 30
0.0
 10
341.305143
 20
-0.503840
 30
0.0
 10
341.418341
 20
-0.542228
 30
0.0
 10
341.536174
 20
-0.552593
 30
0.0
 10
341.649614
 20
-0.544110
 30
0.0
 10
341.752008
 20
-0.517919
 30
0.0
 10
341.843946
 20
-0.473075
 30
0.0
 10
341.925681
 20
-0.414344
 30
0.0
 10
341.997227
 20
-0.343424
 30
0.0
 10
342.058257
 20
-0.258910
 30
0.0
 10
342.110269
 20
-0.158245
 30
0.0
 10
342.155384
 20
-0.039006
 30
0.0
 10
342.194583
 20
0.097032
 30
0.0
 10
342.225277
 20
0.244103
 30
0.0
 10
342.243556
 20
0.396273
 30
0.0
 10
342.248313
 20
0.504867
 30
0.0
 10
342.247510
 20
0.570826
 30
0.0
 10
342.246759
 20
0.595718
 30
0.0
 10
342.246073
 20
0.614191
 30
0.0
 10
342.245696
 20
0.624332
 30
0.0
 11
341.039450
 21
-0.071120
 31
0.0
 11
341.079008
 21
-0.223539
 31
0.0
 11
341.136798
 21
-0.345083
 31
0.0
 11
341.212932
 21
-0.435864
 31
0.0
 11
341.306329
 21
-0.498828
 31
0.0
 11
341.415869
 21
-0.536730
 31
0.0
 11
341.541608
 21
-0.549402
 31
0.0
 11
341.651204
 21
-0.540663
 31
0.0
 11
341.751544
 21
-0.514369
 31
0.0
 11
341.842852
 21
-0.470408
 31
0.0
 11
341.924123
 21
-0.412214
 31
0.0
 11
341.994669
 21
-0.342166
 31
0.0
 11
342.054434
 21
-0.260096
 31
0.0
 11
342.105930
 21
-0.162344
 31
0.0
 11
342.151782
 21
-0.043989
 31
0.0
 11
342.192102
 21
0.094742
 31
0.0
 11
342.223118
 21
0.244517
 31
0.0
 11
342.241604
 21
0.396155
 31
0.0
 11
342.247728
 21
0.549656
 31
0.0
 11
342.247483
 21
0.568904
 31
0.0
 11
342.246787
 21
0.593908
 31
0.0
 11
342.245696
 21
0.624332
 31
0.0
  0
LWPOLYLINE
  5
1fb
100
AcDbEntity
  8
0
 62
7
100
AcDbPolyline
 90
2
 70
0
 10
340.683850
 20
-0.100838
 30
0.0
 10
341.039450
 20
-0.071120
 30
0.0
  0
SPLINE
  5
1fc
100
AcDbEntity
  8
0
 62
7
100
AcDbSpline
 70
0
 71
3
 72
49
 73
45
 74
43
 40
0.000000
 40
0.000000
 40
0.000000
 40
0.000000
 40
0.138942
 40
0.278755
 40
0.423039
 40
0.568911
 40
0.713005
 40
0.859594
 40
1.099049
 40
1.329611
 40
1.569952
 40
1.817148
 40
2.072076
 40
2.352005
 40
2.640997
 40
2.904317
 40
3.160868
 40
3.411272
 40
3.656579
 40
3.916047
 40
4.107541
 40
4.295111
 40
4.486159
 40
4.678755
 40
4.874025
 40
5.080141
 40
5.316424
 40
5.603779
 40
5.946763
 40
6.308049
 40
6.619224
 40
6.884269
 40
7.117300
 40
7.332142
 40
7.537829
 40
7.739581
 40
7.942810
 40
8.156954
 40
8.380475
 40
8.584847
 40
8.782871
 40
8.981026
 40
9.187171
 40
9.413699
 40
9.413699
 40
9.413699
 40
9.413699
 10
342.245696
 20
0.624332
 30
0.0
 10
342.219214
 20
0.586199
 30
0.0
 10
342.166084
 20
0.509693
 30
0.0
 10
342.062009
 20
0.413044
 30
0.0
 10
341.943112
 20
0.332280
 30
0.0
 10
341.811570
 20
0.270137
 30
0.0
 10
341.670011
 20
0.232830
 30
0.0
 10
341.493205
 20
0.218921
 30
0.0
 10
341.286510
 20
0.243578
 30
0.0
 10
341.066005
 20
0.338544
 30
0.0
 10
340.879156
 20
0.492591
 30
0.0
 10
340.732213
 20
0.695568
 30
0.0
 10
340.644988
 20
0.944818
 30
0.0
 10
340.620050
 20
1.220184
 30
0.0
 10
340.645661
 20
1.498435
 30
0.0
 10
340.737052
 20
1.755843
 30
0.0
 10
340.890823
 20
1.965562
 30
0.0
 10
341.088557
 20
2.124719
 30
0.0
 10
341.324663
 20
2.221668
 30
0.0
 10
341.557885
 20
2.247632
 30
0.0
 10
341.770981
 20
2.229156
 30
0.0
 10
341.954515
 20
2.174878
 30
0.0
 10
342.123968
 20
2.085621
 30
0.0
 10
342.275694
 20
1.964159
 30
0.0
 10
342.401028
 20
1.809141
 30
0.0
 10
342.502088
 20
1.620671
 30
0.0
 10
342.572199
 20
1.386266
 30
0.0
 10
342.611076
 20
1.099273
 30
0.0
 10
342.622282
 20
0.768595
 30
0.0
 10
342.610893
 20
0.429985
 30
0.0
 10
342.571780
 20
0.119329
 30
0.0
 10
342.503185
 20
-0.142653
 30
0.0
 10
342.404170
 20
-0.360058
 30
0.0
 10
342.277590
 20
-0.539206
 30
0.0
 10
342.122891
 20
-0.679913
 30
0.0
 10
341.944692
 20
-0.781658
 30
0.0
 10
341.745693
 20
-0.842425
 30
0.0
 10
341.531653
 20
-0.860775
 30
0.0
 10
341.317017
 20
-0.842081
 30
0.0
 10
341.116815
 20
-0.775882
 30
0.0
 10
340.948023
 20
-0.663581
 30
0.0
 10
340.815524
 20
-0.509802
 30
0.0
 10
340.722480
 20
-0.317987
 30
0.0
 10
340.697125
 20
-0.175459
 30
0.0
 10
340.683850
 20
-0.100838
 30
0.0
 11
342.245696
 21
0.624332
 31
0.0
 11
342.162412
 21
0.513118
 31
0.0
 11
342.061010
 21
0.416861
 31
0.0
 11
341.941658
 21
0.335788
 31
0.0
 11
341.809465
 21
0.274113
 31
0.0
 11
341.670160
 21
0.237274
 31
0.0
 11
341.524082
 21
0.225044
 31
0.0
 11
341.286554
 21
0.255364
 31
0.0
 11
341.074709
 21
0.346362
 31
0.0
 11
340.888320
 21
0.498094
 31
0.0
 11
340.744255
 21
0.698970
 31
0.0
 11
340.657650
 21
0.938737
 31
0.0
 11
340.628732
 21
1.217168
 31
0.0
 11
340.658883
 21
1.504583
 31
0.0
 11
340.749373
 21
1.751866
 31
0.0
 11
340.900258
 21
1.959356
 31
0.0
 11
341.096195
 21
2.115274
 31
0.0
 11
341.322895
 21
2.208991
 31
0.0
 11
341.580470
 21
2.240280
 31
0.0
 11
341.771149
 21
2.222632
 31
0.0
 11
341.951047
 21
2.169536
 31
0.0
 11
342.120220
 21
2.080768
 31
0.0
 11
342.270108
 21
1.959826
 31
0.0
 11
342.393750
 21
1.808687
 31
0.0
 11
342.491314
 21
1.627124
 31
0.0
 11
342.561832
 21
1.401610
 31
0.0
 11
342.604184
 21
1.117393
 31
0.0
 11
342.618314
 21
0.774700
 31
0.0
 11
342.604410
 21
0.413681
 31
0.0
 11
342.562622
 21
0.105325
 31
0.0
 11
342.492838
 21
-0.150368
 31
0.0
 11
342.395001
 21
-0.361865
 31
0.0
 11
342.269788
 21
-0.536448
 31
0.0
 11
342.117426
 21
-0.674624
 31
0.0
 11
341.942147
 21
-0.774531
 31
0.0
 11
341.747959
 21
-0.834475
 31
0.0
 11
341.534750
 21
-0.854456
 31
0.0
 11
341.312302
 21
-0.832574
 31
0.0
 11
341.118811
 21
-0.766779
 31
0.0
 11
340.954106
 21
-0.656844
 31
0.0
 11
340.824321
 21
-0.507106
 31
0.0
 11
340.734217
 21
-0.321696
 31
0.0
 11
340.683850
 21
-0.100838
 31
0.0
  0
LWPOLYLINE
  5
1fd
100
AcDbEntity
  8
0
 62
7
100
AcDbPolyline
 90
1
 70
1
 10
340.683850
 20
-0.100838
 30
0.0
  0
LWPOLYLINE
  5
1fe
100
AcDbEntity
  8
0
 62
7
100
AcDbPolyline
 90
2
 70
0
 10
342.203786
 20
1.236218
 30
0.0
 10
342.203532
 20
1.236218
 30
0.0
  0
SPLINE
  5
1ff
100
AcDbEntity
  8
0
 62
7
100
AcDbSpline
 70
0
 71
3
 72
31
 73
27
 74
25
 40
0.000000
 40
0.000000
 40
0.000000
 40
0.000000
 40
0.199394
 40
0.377721
 40
0.546089
 40
0.705361
 40
0.855723
 40
1.009940
 40
1.170529
 40
1.329338
 40
1.500161
 40
1.679686
 40
1.864778
 40
2.067188
 40
2.248770
 40
2.415531
 40
2.578842
 40
2.739297
 40
2.895073
 40
3.058514
 40
3.221591
 40
3.375157
 40
3.532442
 40
3.696467
 40
3.872235
 40
4.070711
 40
4.070711
 40
4.070711
 40
4.070711
 10
342.203532
 20
1.236218
 30
0.0
 10
342.200408
 20
1.302829
 30
0.0
 10
342.194490
 20
1.429012
 30
0.0
 10
342.136994
 20
1.604560
 30
0.0
 10
342.041397
 20
1.745792
 30
0.0
 10
341.920342
 20
1.852286
 30
0.0
 10
341.777823
 20
1.918208
 30
0.0
 10
341.622027
 20
1.937994
 30
0.0
 10
341.463385
 20
1.917009
 30
0.0
 10
341.313427
 20
1.845872
 30
0.0
 10
341.185208
 20
1.731978
 30
0.0
 10
341.082250
 20
1.583673
 30
0.0
 10
341.021351
 20
1.402354
 30
0.0
 10
341.003844
 20
1.212217
 30
0.0
 10
341.020603
 20
1.028058
 30
0.0
 10
341.079165
 20
0.865469
 30
0.0
 10
341.177010
 20
0.731986
 30
0.0
 10
341.302507
 20
0.629920
 30
0.0
 10
341.452211
 20
0.567450
 30
0.0
 10
341.613607
 20
0.549428
 30
0.0
 10
341.774354
 20
0.567190
 30
0.0
 10
341.922037
 20
0.629675
 30
0.0
 10
342.045041
 20
0.732751
 30
0.0
 10
342.139121
 20
0.871665
 30
0.0
 10
342.195084
 20
1.044894
 30
0.0
 10
342.200770
 20
1.169915
 30
0.0
 10
342.203786
 20
1.236218
 30
0.0
 11
342.203532
 21
1.236218
 31
0.0
 11
342.184727
 21
1.434724
 31
0.0
 11
342.128273
 21
1.603878
 31
0.0
 11
342.034114
 21
1.743456
 31
0.0
 11
341.913662
 21
1.847662
 31
0.0
 11
341.776953
 21
1.910268
 31
0.0
 11
341.624158
 21
1.931162
 31
0.0
 11
341.465135
 21
1.908791
 31
0.0
 11
341.321239
 21
1.841603
 31
0.0
 11
341.192358
 21
1.729486
 31
0.0
 11
341.090824
 21
1.581432
 31
0.0
 11
341.029986
 21
1.406624
 31
0.0
 11
341.009732
 21
1.205230
 31
0.0
 11
341.029008
 21
1.024674
 31
0.0
 11
341.086722
 21
0.868219
 31
0.0
 11
341.182706
 21
0.736092
 31
0.0
 11
341.307834
 21
0.635649
 31
0.0
 11
341.451532
 21
0.575508
 31
0.0
 11
341.613744
 21
0.555498
 31
0.0
 11
341.775589
 21
0.575508
 31
0.0
 11
341.916888
 21
0.635649
 31
0.0
 11
342.037924
 21
0.736092
 31
0.0
 11
342.130145
 21
0.871737
 31
0.0
 11
342.185395
 21
1.038597
 31
0.0
 11
342.203786
 21
1.236218
 31
0.0
  0
LWPOLYLINE
  5
200
100
AcDbEntity
  8
0
 62
7
100
AcDbPolyline
 90
4
 70
0
 10
343.004394
 20
1.833880
 30
0.0
 10
343.004394
 20
2.189480
 30
0.0
 10
344.964512
 20
2.189480
 30
0.0
 10
344.964512
 20
1.901698
 30
0.0
  0
SPLINE
  5
201
100
AcDbEntity
  8
0
 62
7
100
AcDbSpline
 70
0
 71
3
 72
16
 73
12
 74
10
 40
0.000000
 40
0.000000
 40
0.000000
 40
0.000000
 40
0.298123
 40
0.631555
 40
1.002166
 40
1.388209
 40
1.768204
 40
2.144379
 40
2.414043
 40
2.696191
 40
2.991818
 40
2.991818
 40
2.991818
 40
2.991818
 10
344.964512
 20
1.901698
 30
0.0
 10
344.898957
 20
1.826914
 30
0.0
 10
344.760082
 20
1.668489
 30
0.0
 10
344.571024
 20
1.392269
 30
0.0
 10
344.384985
 20
1.080040
 30
0.0
 10
344.212047
 20
0.742500
 30
0.0
 10
344.065397
 20
0.390756
 30
0.0
 10
343.957306
 20
0.065954
 30
0.0
 10
343.881645
 20
-0.234204
 30
0.0
 10
343.833829
 20
-0.512997
 30
0.0
 10
343.817280
 20
-0.704938
 30
0.0
 10
343.808812
 20
-0.803148
 30
0.0
 11
344.964512
 21
1.901698
 31
0.0
 11
344.772243
 21
1.673860
 31
0.0
 11
344.580878
 21
1.400810
 31
0.0
 11
344.390980
 21
1.082548
 31
0.0
 11
344.215748
 21
0.738566
 31
0.0
 11
344.069303
 21
0.387924
 31
0.0
 11
343.951306
 21
0.030734
 31
0.0
 11
343.885972
 21
-0.230895
 31
0.0
 11
343.838417
 21
-0.509007
 31
0.0
 11
343.808812
 21
-0.803148
 31
0.0
  0
LWPOLYLINE
  5
202
100
AcDbEntity
  8
0
 62
7
100
AcDbPolyline
 90
2
 70
0
 10
343.808812
 20
-0.803148
 30
0.0
 10
343.427812
 20
-0.803148
 30
0.0
  0
LWPOLYLINE
  5
203
100
AcDbEntity
  8
0
 62
7
100
AcDbPolyline
 90
3
 70
0
 10
344.486230
 20
1.834388
 30
0.0
 10
343.004648
 20
1.834388
 30
0.0
 10
343.004394
 20
1.833880
 30
0.0
  0
SPLINE
  5
204
100
AcDbEntity
  8
0
 62
7
100
AcDbSpline
 70
0
 71
3
 72
16
 73
12
 74
10
 40
0.000000
 40
0.000000
 40
0.000000
 40
0.000000
 40
0.255830
 40
0.548006
 40
0.878252
 40
1.228022
 40
1.578472
 40
1.931839
 40
2.274835
 40
2.593625
 40
2.890018
 40
2.890018
 40
2.890018
 40
2.890018
 10
343.427812
 20
-0.803148
 30
0.0
 10
343.432367
 20
-0.717928
 30
0.0
 10
343.442125
 20
-0.535381
 30
0.0
 10
343.492654
 20
-0.246453
 30
0.0
 10
343.566337
 20
0.069185
 30
0.0
 10
343.666391
 20
0.398153
 30
0.0
 10
343.794971
 20
0.725352
 30
0.0
 10
343.947677
 20
1.039495
 30
0.0
 10
344.116371
 20
1.332987
 30
0.0
 10
344.292439
 20
1.600100
 30
0.0
 10
344.423220
 20
1.758211
 30
0.0
 10
344.486230
 20
1.834388
 30
0.0
 11
343.427812
 21
-0.803148
 31
0.0
 11
343.446222
 21
-0.547981
 31
0.0
 11
343.492968
 21
-0.259569
 31
0.0
 11
343.568274
 21
0.061976
 31
0.0
 11
343.670683
 21
0.396419
 31
0.0
 11
343.798774
 21
0.722621
 31
0.0
 11
343.952830
 21
1.040638
 31
0.0
 11
344.123518
 21
1.338147
 31
0.0
 11
344.301318
 21
1.602749
 31
0.0
 11
344.486230
 21
1.834388
 31
0.0
  0
SPLINE
  5
205
100
AcDbEntity
  8
0
 62
7
100
AcDbSpline
 70
0
 71
3
 72
19
 73
15
 74
13
 40
0.000000
 40
0.000000
 40
0.000000
 40
0.000000
 40
0.126049
 40
0.251990
 40
0.380887
 40
0.512240
 40
0.646268
 40
0.787346
 40
0.940385
 40
1.077724
 40
1.204272
 40
1.325114
 40
1.444407
 40
1.568419
 40
1.568419
 40
1.568419
 40
1.568419
 10
345.773756
 20
1.083310
 30
0.0
 10
345.798053
 20
1.117706
 30
0.0
 10
345.846628
 20
1.186470
 30
0.0
 10
345.940428
 20
1.273306
 30
0.0
 10
346.047227
 20
1.345896
 30
0.0
 10
346.167270
 20
1.401202
 30
0.0
 10
346.299571
 20
1.433880
 30
0.0
 10
346.442460
 20
1.443807
 30
0.0
 10
346.586492
 20
1.434072
 30
0.0
 10
346.722400
 20
1.401272
 30
0.0
 10
346.838850
 20
1.344732
 30
0.0
 10
346.933894
 20
1.266501
 30
0.0
 10
347.010286
 20
1.170283
 30
0.0
 10
347.041373
 20
1.095008
 30
0.0
 10
347.057218
 20
1.056640
 30
0.0
 11
345.773756
 21
1.083310
 31
0.0
 11
345.850022
 21
1.183668
 31
0.0
 11
345.941584
 21
1.270141
 31
0.0
 11
346.048330
 21
1.342390
 31
0.0
 11
346.167823
 21
1.396934
 31
0.0
 11
346.297814
 21
1.429578
 31
0.0
 11
346.438474
 21
1.440434
 31
0.0
 11
346.591100
 21
1.429192
 31
0.0
 11
346.724252
 21
1.395542
 31
0.0
 11
346.837762
 21
1.339596
 31
0.0
 11
346.931290
 21
1.263076
 31
0.0
 11
347.004499
 21
1.168889
 31
0.0
 11
347.057218
 21
1.056640
 31
0.0
  0
LWPOLYLINE
  5
206
100
AcDbEntity
  8
0
 62
7
100
AcDbPolyline
 90
4
 70
0
 10
345.439238
 20
-0.803402
 30
0.0
 10
345.439238
 20
1.393698
 30
0.0
 10
345.773756
 20
1.393698
 30
0.0
 10
345.773756
 20
1.083310
 30
0.0
  0
SPLINE
  5
207
100
AcDbEntity
  8
0
 62
7
100
AcDbSpline
 70
0
 71
3
 72
16
 73
12
 74
10
 40
0.000000
 40
0.000000
 40
0.000000
 40
0.000000
 40
0.287142
 40
0.547602
 40
0.812882
 40
1.015829
 40
1.194515
 40
1.362161
 40
1.535113
 40
1.729888
 40
1.959580
 40
1.959580
 40
1.959580
 40
1.959580
 10
347.057218
 20
1.056640
 30
0.0
 10
347.116691
 20
1.132564
 30
0.0
 10
347.230112
 20
1.277356
 30
0.0
 10
347.473089
 20
1.414133
 30
0.0
 10
347.717484
 20
1.449246
 30
0.0
 10
347.933601
 20
1.429561
 30
0.0
 10
348.109182
 20
1.370104
 30
0.0
 10
348.250956
 20
1.265305
 30
0.0
 10
348.352544
 20
1.114852
 30
0.0
 10
348.410912
 20
0.921551
 30
0.0
 10
348.416597
 20
0.779785
 30
0.0
 10
348.419674
 20
0.703072
 30
0.0
 11
347.057218
 21
1.056640
 31
0.0
 11
347.249458
 21
1.269934
 31
0.0
 11
347.476356
 21
1.397828
 31
0.0
 11
347.738192
 21
1.440434
 31
0.0
 11
347.940150
 21
1.420424
 31
0.0
 11
348.108411
 21
1.360283
 31
0.0
 11
348.242636
 21
1.259840
 31
0.0
 11
348.340915
 21
1.117525
 31
0.0
 11
348.399965
 21
0.931917
 31
0.0
 11
348.419674
 21
0.703072
 31
0.0
  0
LWPOLYLINE
  5
208
100
AcDbEntity
  8
0
 62
7
100
AcDbPolyline
 90
4
 70
0
 10
348.419674
 20
0.703072
 30
0.0
 10
348.419674
 20
-0.803148
 30
0.0
 10
348.047056
 20
-0.803148
 30
0.0
 10
348.047056
 20
0.579628
 30
0.0
  0
SPLINE
  5
209
100
AcDbEntity
  8
0
 62
7
100
AcDbSpline
 70
0
 71
3
 72
22
 73
18
 74
16
 40
0.000000
 40
0.000000
 40
0.000000
 40
0.000000
 40
0.134553
 40
0.242370
 40
0.324327
 40
0.392705
 40
0.461235
 40
0.533637
 40
0.608735
 40
0.685950
 40
0.768160
 40
0.915477
 40
1.053945
 40
1.193935
 40
1.344006
 40
1.516138
 40
1.722163
 40
1.722163
 40
1.722163
 40
1.722163
 10
348.047056
 20
0.579628
 30
0.0
 10
348.046429
 20
0.624499
 30
0.0
 10
348.045300
 20
0.705326
 30
0.0
 10
348.033819
 20
0.812938
 30
0.0
 10
348.014864
 20
0.897373
 30
0.0
 10
347.982203
 20
0.963422
 30
0.0
 10
347.936810
 20
1.017240
 30
0.0
 10
347.879090
 20
1.061077
 30
0.0
 10
347.811738
 20
1.094926
 30
0.0
 10
347.735526
 20
1.114770
 30
0.0
 10
347.633212
 20
1.121879
 30
0.0
 10
347.509870
 20
1.108483
 30
0.0
 10
347.376481
 20
1.055395
 30
0.0
 10
347.261020
 20
0.967781
 30
0.0
 10
347.172869
 20
0.838051
 30
0.0
 10
347.123322
 20
0.666440
 30
0.0
 10
347.118512
 20
0.540201
 30
0.0
 10
347.115892
 20
0.471424
 30
0.0
 11
348.047056
 21
0.579628
 31
0.0
 11
348.042879
 21
0.714116
 31
0.0
 11
348.030574
 21
0.821229
 31
0.0
 11
348.010480
 21
0.900684
 31
0.0
 11
347.979915
 21
0.961851
 31
0.0
 11
347.935973
 21
1.014438
 31
0.0
 11
347.878654
 21
1.058672
 31
0.0
 11
347.811438
 21
1.092162
 31
0.0
 11
347.736828
 21
1.112050
 31
0.0
 11
347.654880
 21
1.118616
 31
0.0
 11
347.508567
 21
1.101457
 31
0.0
 11
347.379977
 21
1.050092
 31
0.0
 11
347.269054
 21
0.964692
 31
0.0
 11
347.183851
 21
0.841154
 31
0.0
 11
347.132854
 21
0.676750
 31
0.0
 11
347.115892
 21
0.471424
 31
0.0
  0
LWPOLYLINE
  5
20a
100
AcDbEntity
  8
0
 62
7
100
AcDbPolyline
 90
4
 70
0
 10
347.115892
 20
0.471424
 30
0.0
 10
347.115892
 20
-0.803402
 30
0.0
 10
346.743274
 20
-0.803402
 30
0.0
 10
346.743274
 20
0.622554
 30
0.0
  0
LWPOLYLINE
  5
20b
100
AcDbEntity
  8
0
 62
7
100
AcDbPolyline
 90
4
 70
0
 10
345.811856
 20
0.335280
 30
0.0
 10
345.811856
 20
-0.803402
 30
0.0
 10
345.439238
 20
-0.803402
 30
0.0
 10
345.439238
 20
-0.803402
 30
0.0
  0
SPLINE
  5
20c
100
AcDbEntity
  8
0
 62
7
100
AcDbSpline
 70
0
 71
3
 72
22
 73
18
 74
16
 40
0.000000
 40
0.000000
 40
0.000000
 40
0.000000
 40
0.151780
 40
0.279464
 40
0.388353
 40
0.489139
 40
0.596698
 40
0.722339
 40
0.824594
 40
0.925135
 40
1.027516
 40
1.130237
 40
1.233397
 40
1.342536
 40
1.468558
 40
1.622785
 40
1.807023
 40
1.807023
 40
1.807023
 40
1.807023
 10
346.743274
 20
0.622554
 30
0.0
 10
346.741707
 20
0.673224
 30
0.0
 10
346.738822
 20
0.766521
 30
0.0
 10
346.709139
 20
0.893480
 30
0.0
 10
346.658911
 20
0.995832
 30
0.0
 10
346.580172
 20
1.070311
 30
0.0
 10
346.474455
 20
1.111594
 30
0.0
 10
346.362156
 20
1.121955
 30
0.0
 10
346.252550
 20
1.112842
 30
0.0
 10
346.154123
 20
1.084652
 30
0.0
 10
346.062486
 20
1.038889
 30
0.0
 10
345.980582
 20
0.975398
 30
0.0
 10
345.914878
 20
0.892263
 30
0.0
 10
345.865284
 20
0.790050
 30
0.0
 10
345.833414
 20
0.663592
 30
0.0
 10
345.814756
 20
0.509585
 30
0.0
 10
345.812878
 20
0.396718
 30
0.0
 10
345.811856
 20
0.335280
 30
0.0
 11
346.743274
 21
0.622554
 31
0.0
 11
346.733123
 21
0.773994
 31
0.0
 11
346.702709
 21
0.898003
 31
0.0
 11
346.652088
 21
0.994410
 31
0.0
 11
346.578522
 21
1.063300
 31
0.0
 11
346.479274
 21
1.104759
 31
0.0
 11
346.354400
 21
1.118616
 31
0.0
 11
346.252555
 21
1.109463
 31
0.0
 11
346.155847
 21
1.081965
 31
0.0
 11
346.064332
 21
1.036066
 31
0.0
 11
345.983626
 21
0.972519
 31
0.0
 11
345.919232
 21
0.891926
 31
0.0
 11
345.871038
 21
0.794004
 31
0.0
 11
345.838084
 21
0.672366
 31
0.0
 11
345.818394
 21
0.519402
 31
0.0
 11
345.811856
 21
0.335280
 31
0.0
  0
SPLINE
  5
20d
100
AcDbEntity
  8
0
 62
7
100
AcDbSpline
 70
0
 71
3
 72
19
 73
15
 74
13
 40
0.000000
 40
0.000000
 40
0.000000
 40
0.000000
 40
0.126049
 40
0.251990
 40
0.380887
 40
0.512240
 40
0.646268
 40
0.787346
 40
0.940385
 40
1.077724
 40
1.204272
 40
1.325114
 40
1.444407
 40
1.568419
 40
1.568419
 40
1.568419
 40
1.568419
 10
349.300038
 20
1.083310
 30
0.0
 10
349.324335
 20
1.117706
 30
0.0
 10
349.372910
 20
1.186470
 30
0.0
 10
349.466710
 20
1.273306
 30
0.0
 10
349.573509
 20
1.345896
 30
0.0
 10
349.693552
 20
1.401202
 30
0.0
 10
349.825853
 20
1.433880
 30
0.0
 10
349.968742
 20
1.443807
 30
0.0
 10
350.112774
 20
1.434072
 30
0.0
 10
350.248682
 20
1.401272
 30
0.0
 10
350.365132
 20
1.344732
 30
0.0
 10
350.460176
 20
1.266501
 30
0.0
 10
350.536568
 20
1.170283
 30
0.0
 10
350.567655
 20
1.095008
 30
0.0
 10
350.583500
 20
1.056640
 30
0.0
 11
349.300038
 21
1.083310
 31
0.0
 11
349.376304
 21
1.183668
 31
0.0
 11
349.467866
 21
1.270141
 31
0.0
 11
349.574612
 21
1.342390
 31
0.0
 11
349.694105
 21
1.396934
 31
0.0
 11
349.824096
 21
1.429578
 31
0.0
 11
349.964756
 21
1.440434
 31
0.0
 11
350.117382
 21
1.429192
 31
0.0
 11
350.250534
 21
1.395542
 31
0.0
 11
350.364044
 21
1.339596
 31
0.0
 11
350.457572
 21
1.263076
 31
0.0
 11
350.530781
 21
1.168889
 31
0.0
 11
350.583500
 21
1.056640
 31
0.0
  0
LWPOLYLINE
  5
20e
100
AcDbEntity
  8
0
 62
7
100
AcDbPolyline
 90
4
 70
0
 10
348.965520
 20
-0.803402
 30
0.0
 10
348.965520
 20
1.393698
 30
0.0
 10
349.300038
 20
1.393698
 30
0.0
 10
349.300038
 20
1.083310
 30
0.0
  0
SPLINE
  5
20f
100
AcDbEntity
  8
0
 62
7
100
AcDbSpline
 70
0
 71
3
 72
16
 73
12
 74
10
 40
0.000000
 40
0.000000
 40
0.000000
 40
0.000000
 40
0.287142
 40
0.547602
 40
0.812882
 40
1.015829
 40
1.194515
 40
1.362161
 40
1.535113
 40
1.729888
 40
1.959580
 40
1.959580
 40
1.959580
 40
1.959580
 10
350.583500
 20
1.056640
 30
0.0
 10
350.642973
 20
1.132564
 30
0.0
 10
350.756394
 20
1.277356
 30
0.0
 10
350.999371
 20
1.414133
 30
0.0
 10
351.243766
 20
1.449246
 30
0.0
 10
351.459883
 20
1.429561
 30
0.0
 10
351.635464
 20
1.370104
 30
0.0
 10
351.777238
 20
1.265305
 30
0.0
 10
351.878826
 20
1.114852
 30
0.0
 10
351.937194
 20
0.921551
 30
0.0
 10
351.942879
 20
0.779785
 30
0.0
 10
351.945956
 20
0.703072
 30
0.0
 11
350.583500
 21
1.056640
 31
0.0
 11
350.775740
 21
1.269934
 31
0.0
 11
351.002638
 21
1.397828
 31
0.0
 11
351.264474
 21
1.440434
 31
0.0
 11
351.466432
 21
1.420424
 31
0.0
 11
351.634693
 21
1.360283
 31
0.0
 11
351.768918
 21
1.259840
 31
0.0
 11
351.867197
 21
1.117525
 31
0.0
 11
351.926247
 21
0.931917
 31
0.0
 11
351.945956
 21
0.703072
 31
0.0
  0
LWPOLYLINE
  5
210
100
AcDbEntity
  8
0
 62
7
100
AcDbPolyline
 90
4
 70
0
 10
351.945956
 20
0.703072
 30
0.0
 10
351.945956
 20
-0.803148
 30
0.0
 10
351.573338
 20
-0.803148
 30
0.0
 10
351.573338
 20
0.579628
 30
0.0
  0
SPLINE
  5
211
100
AcDbEntity
  8
0
 62
7
100
AcDbSpline
 70
0
 71
3
 72
22
 73
18
 74
16
 40
0.000000
 40
0.000000
 40
0.000000
 40
0.000000
 40
0.134553
 40
0.242370
 40
0.324327
 40
0.392705
 40
0.461235
 40
0.533637
 40
0.608735
 40
0.685950
 40
0.768160
 40
0.915477
 40
1.053945
 40
1.193935
 40
1.344006
 40
1.516138
 40
1.722163
 40
1.722163
 40
1.722163
 40
1.722163
 10
351.573338
 20
0.579628
 30
0.0
 10
351.572711
 20
0.624499
 30
0.0
 10
351.571582
 20
0.705326
 30
0.0
 10
351.560101
 20
0.812938
 30
0.0
 10
351.541146
 20
0.897373
 30
0.0
 10
351.508485
 20
0.963422
 30
0.0
 10
351.463092
 20
1.017240
 30
0.0
 10
351.405372
 20
1.061077
 30
0.0
 10
351.338020
 20
1.094926
 30
0.0
 10
351.261808
 20
1.114770
 30
0.0
 10
351.159494
 20
1.121879
 30
0.0
 10
351.036152
 20
1.108483
 30
0.0
 10
350.902763
 20
1.055395
 30
0.0
 10
350.787302
 20
0.967781
 30
0.0
 10
350.699151
 20
0.838051
 30
0.0
 10
350.649604
 20
0.666440
 30
0.0
 10
350.644794
 20
0.540201
 30
0.0
 10
350.642174
 20
0.471424
 30
0.0
 11
351.573338
 21
0.579628
 31
0.0
 11
351.569161
 21
0.714116
 31
0.0
 11
351.556856
 21
0.821229
 31
0.0
 11
351.536762
 21
0.900684
 31
0.0
 11
351.506197
 21
0.961851
 31
0.0
 11
351.462255
 21
1.014438
 31
0.0
 11
351.404936
 21
1.058672
 31
0.0
 11
351.337720
 21
1.092162
 31
0.0
 11
351.263110
 21
1.112050
 31
0.0
 11
351.181162
 21
1.118616
 31
0.0
 11
351.034849
 21
1.101457
 31
0.0
 11
350.906259
 21
1.050092
 31
0.0
 11
350.795336
 21
0.964692
 31
0.0
 11
350.710133
 21
0.841154
 31
0.0
 11
350.659136
 21
0.676750
 31
0.0
 11
350.642174
 21
0.471424
 31
0.0
  0
LWPOLYLINE
  5
212
100
AcDbEntity
  8
0
 62
7
100
AcDbPolyline
 90
4
 70
0
 10
350.642174
 20
0.471424
 30
0.0
 10
350.642174
 20
-0.803402
 30
0.0
 10
350.269556
 20
-0.803402
 30
0.0
 10
350.269556
 20
0.622554
 30
0.0
  0
SPLINE
  5
213
100
AcDbEntity
  8
0
 62
7
100
AcDbSpline
 70
0
 71
3
 72
22
 73
18
 74
16
 40
0.000000
 40
0.000000
 40
0.000000
 40
0.000000
 40
0.151780
 40
0.279464
 40
0.388353
 40
0.489139
 40
0.596698
 40
0.722339
 40
0.824594
 40
0.925135
 40
1.027516
 40
1.130237
 40
1.233397
 40
1.342536
 40
1.468558
 40
1.622785
 40
1.807023
 40
1.807023
 40
1.807023
 40
1.807023
 10
350.269556
 20
0.622554
 30
0.0
 10
350.267989
 20
0.673224
 30
0.0
 10
350.265104
 20
0.766521
 30
0.0
 10
350.235421
 20
0.893480
 30
0.0
 10
350.185193
 20
0.995832
 30
0.0
 10
350.106454
 20
1.070311
 30
0.0
 10
350.000737
 20
1.111594
 30
0.0
 10
349.888438
 20
1.121955
 30
0.0
 10
349.778832
 20
1.112842
 30
0.0
 10
349.680405
 20
1.084652
 30
0.0
 10
349.588768
 20
1.038889
 30
0.0
 10
349.506864
 20
0.975398
 30
0.0
 10
349.441160
 20
0.892263
 30
0.0
 10
349.391566
 20
0.790050
 30
0.0
 10
349.359696
 20
0.663592
 30
0.0
 10
349.341038
 20
0.509585
 30
0.0
 10
349.339160
 20
0.396718
 30
0.0
 10
349.338138
 20
0.335280
 30
0.0
 11
350.269556
 21
0.622554
 31
0.0
 11
350.259405
 21
0.773994
 31
0.0
 11
350.228991
 21
0.898003
 31
0.0
 11
350.178370
 21
0.994410
 31
0.0
 11
350.104804
 21
1.063300
 31
0.0
 11
350.005556
 21
1.104759
 31
0.0
 11
349.880682
 21
1.118616
 31
0.0
 11
349.778837
 21
1.109463
 31
0.0
 11
349.682129
 21
1.081965
 31
0.0
 11
349.590614
 21
1.036066
 31
0.0
 11
349.509908
 21
0.972519
 31
0.0
 11
349.445514
 21
0.891926
 31
0.0
 11
349.397320
 21
0.794004
 31
0.0
 11
349.364366
 21
0.672366
 31
0.0
 11
349.344676
 21
0.519402
 31
0.0
 11
349.338138
 21
0.335280
 31
0.0
  0
LWPOLYLINE
  5
214
100
AcDbEntity
  8
0
 62
7
100
AcDbPolyline
 90
4
 70
0
 10
349.338138
 20
0.335280
 30
0.0
 10
349.338138
 20
-0.803402
 30
0.0
 10
348.965520
 20
-0.803402
 30
0.0
 10
348.965520
 20
-0.803402
 30
0.0
  0
ENDSEC
  0
SECTION
  2
OBJECTS
  0
DICTIONARY
  5
C
330
0
100
AcDbDictionary
  3
ACAD_GROUP
350
D
  3
ACAD_MLINESTYLE
350
17
  0
DICTIONARY
  5
D
330
C
100
AcDbDictionary
  0
DICTIONARY
  5
1A
330
C
100
AcDbDictionary
  0
DICTIONARY
  5
17
330
C
100
AcDbDictionary
  3
STANDARD
350
18
  0
DICTIONARY
  5
19
330
C
100
AcDbDictionary
  0
ENDSEC
  0
EOF
