<?xml version="1.0" encoding="UTF-8"?>
<!DOCTYPE svg PUBLIC "-//W3C//DTD SVG 1.1//EN" "http://www.w3.org/Graphics/SVG/1.1/DTD/svg11.dtd">
<!-- Creator: CorelDRAW 2019 (64-Bit) -->
<svg xmlns="http://www.w3.org/2000/svg" xml:space="preserve" width="8.5in" height="11in" version="1.1" style="shape-rendering:geometricPrecision; text-rendering:geometricPrecision; image-rendering:optimizeQuality; fill-rule:evenodd; clip-rule:evenodd"
viewBox="0 0 8500 11000"
 xmlns:xlink="http://www.w3.org/1999/xlink"
 xmlns:xodm="http://www.corel.com/coreldraw/odm/2003">
 <defs>
  <style type="text/css">
   <![CDATA[
    .str1 {stroke:#373435;stroke-width:6.94;stroke-miterlimit:2.61313}
    .str2 {stroke:#ED3237;stroke-width:6.94;stroke-miterlimit:2.61313}
    .str0 {stroke:#444446;stroke-width:6.94;stroke-miterlimit:10}
    .fil0 {fill:none}
    .fil1 {fill:#ED3237;fill-rule:nonzero}
   ]]>
  </style>
 </defs>
 <g id="Layer_x0020_1">
  <metadata id="CorelCorpID_0Corel-Layer"/>
  <path class="fil0 str0" d="M689.94 5676.3c23.5,244.95 32.07,288.73 72.02,504.02 11.18,60.28 23.63,120.47 37.67,180.31 14.04,59.85 29.66,119.36 47.44,178.1 17.78,58.74 37.72,116.72 60.5,173.36 22.78,56.65 48.41,111.98 77.55,165.43 29.14,53.45 61.78,105.02 98.43,154.22 36.65,49.2 77.29,96.04 122.08,140.2 44.79,44.16 93.72,85.66 146.54,124.41 52.83,38.75 109.53,74.76 169.61,108.11 60.07,33.35 123.53,64.04 189.68,92.27 66.15,28.23 134.99,54 205.82,77.57 70.83,23.57 143.63,44.94 217.75,64.4 74.11,19.46 149.56,37 225.82,52.86 76.27,15.87 153.37,30.07 230.96,42.81 77.58,12.74 155.66,24.03 234.01,34.04 78.34,10.01 156.96,18.74 235.72,26.33 78.76,7.59 157.67,14.05 236.67,19.48 79.01,5.43 158.11,9.83 237.31,13.25 79.2,3.43 158.5,5.9 237.93,7.43 79.43,1.52 158.98,2.1 238.69,1.73 5.68,-0.03 11.37,-0.06 17.04,-0.09"/>
  <path class="fil0 str1" d="M867.98 2670.78c103.03,84.49 176.83,169.7 179.78,299.57"/>
  <path class="fil0 str0" d="M1064.52 3692.13c-3.87,-256.98 14.29,-497.23 -25.7,-796.31"/>
  <path class="fil0 str0" d="M4029.18 6648.04c-74.66,1.7 -148.63,0.57 -221.72,-3.29 -82.57,-4.35 -164.01,-12.19 -244.12,-23.07 -80.11,-10.88 -158.89,-24.82 -236.22,-41.27 -77.33,-16.45 -153.22,-35.43 -227.63,-56.42 -74.39,-21 -147.3,-44.01 -218.69,-68.69 -71.39,-24.68 -141.28,-51.02 -209.67,-78.99 -68.39,-27.97 -135.28,-57.57 -200.68,-89.09 -65.41,-31.52 -129.32,-64.97 -191.71,-100.77 -62.4,-35.8 -123.27,-73.93 -182.5,-114.78 -59.23,-40.85 -116.81,-84.41 -172.51,-130.82 -55.7,-46.41 -109.51,-95.68 -161.01,-147.5 -51.5,-51.83 -100.7,-106.21 -147.01,-162.38 -46.31,-56.17 -89.73,-114.13 -129.73,-172.95 -40,-58.82 -76.57,-118.5 -109.35,-178.21 -32.8,-59.7 -61.8,-119.44 -87,-178.7 -25.2,-59.26 -46.61,-118.05 -64.74,-176.54 -18.13,-58.48 -32.97,-116.65 -45.45,-175.16 -12.48,-58.51 -22.58,-117.37 -31.37,-177.45 -8.78,-60.08 -16.24,-121.39 -23.35,-184.77 -7.11,-63.39 -13.86,-128.85 -20.92,-196.98 -7.06,-68.13 -14.42,-138.93 -22.48,-212.72 -11.08,-101.48 -15.4,-197.12 -16.81,-290.54"/>
  <line class="fil0 str0" x1="659.16" y1="3686.94" x2="689.94" y2= "5676.3" />
  <polyline class="fil0 str0" points="867.98,2670.78 643.35,2670.78 659.16,3692.12 "/>
  <path class="fil0 str0" d="M776.83 2937.77c0,-30.86 27.35,-55.88 61.08,-55.88 33.74,0 61.08,25.02 61.08,55.88 0,30.85 -27.34,55.87 -61.08,55.87 -33.74,0 -61.08,-25.01 -61.08,-55.87z"/>
  <g id="_2373666262960">
   <path class="fil0 str1" d="M828.49 4043.68c198.44,2042.74 131.11,3357.79 3168.54,3513.17"/>
   <path class="fil0 str1" d="M7165.57 4043.68c-198.44,2042.74 -131.1,3357.79 -3168.54,3513.17"/>
  </g>
  <line class="fil0 str1" x1="736.66" y1="5446.59" x2="686.82" y2= "5474.57" />
  <line class="fil0 str1" x1="789.49" y1="5537.33" x2="688.67" y2= "5593.94" />
  <line class="fil0 str1" x1="849.02" y1="5631.85" x2="696.92" y2= "5717.26" />
  <line class="fil0 str1" x1="1163.42" y1="5586.2" x2="935.65" y2= "5719.22" />
  <line class="fil0 str1" x1="958.82" y1="5519.76" x2="770.18" y2= "5622" />
  <line class="fil0 str1" x1="1067.59" y1="5266.78" x2="868.25" y2= "5382.13" />
  <line class="fil0 str1" x1="815.02" y1="5402.59" x2="686.82" y2= "5474.58" />
  <line class="fil0 str1" x1="984.76" y1="5434.74" x2="878.24" y2= "5498.47" />
  <line class="fil0 str1" x1="819.52" y1="5520.46" x2="688.67" y2= "5593.94" />
  <line class="fil0 str1" x1="1138.42" y1="5481.11" x2="922.44" y2= "5599.27" />
  <line class="fil0 str1" x1="839.91" y1="5636.96" x2="696.92" y2= "5717.26" />
  <line class="fil0 str1" x1="860.09" y1="5751.71" x2="708.48" y2= "5836.85" />
  <line class="fil0 str1" x1="920.64" y1="5408.74" x2="755.21" y2= "5498.41" />
  <line class="fil0 str1" x1="980.59" y1="5623.04" x2="781.05" y2= "5734.88" />
  <line class="fil0 str1" x1="1300.89" y1="5131.78" x2="1142.89" y2= "5223.21" />
  <line class="fil0 str1" x1="1242.87" y1="5226.63" x2="1039.81" y2= "5344.15" />
  <line class="fil0 str1" x1="1342.7" y1="5238.55" x2="1174.33" y2= "5339.28" />
  <line class="fil0 str1" x1="1115.61" y1="5361.26" x2="984.76" y2= "5434.74" />
  <line class="fil0 str1" x1="1276.76" y1="5339.01" x2="1073.7" y2= "5456.54" />
  <line class="fil0 str1" x1="1399.66" y1="5338.2" x2="1234.26" y2= "5428.68" />
  <line class="fil0 str1" x1="1321.9" y1="5439.71" x2="1118.84" y2= "5557.24" />
  <line class="fil0 str1" x1="1454.51" y1="5420.8" x2="1273.39" y2= "5526.58" />
  <line class="fil0 str1" x1="891.13" y1="5311.52" x2="725.7" y2= "5401.19" />
  <line class="fil0 str1" x1="1213.36" y1="5129.41" x2="1010.3" y2= "5246.93" />
  <line class="fil0 str1" x1="1058.78" y1="5160.17" x2="859.43" y2= "5275.52" />
  <line class="fil0 str1" x1="806.2" y1="5295.97" x2="678" y2= "5367.96" />
  <line class="fil0 str1" x1="1265.19" y1="5040.73" x2="1134.07" y2= "5116.6" />
  <path class="fil0 str0" d="M7368.41 5676.3c-23.5,244.95 -32.07,288.73 -72.02,504.02 -11.18,60.28 -23.63,120.47 -37.67,180.31 -14.04,59.85 -29.66,119.36 -47.44,178.1 -17.78,58.74 -37.72,116.72 -60.5,173.36 -22.78,56.65 -48.41,111.98 -77.55,165.43 -29.14,53.45 -61.78,105.02 -98.43,154.22 -36.65,49.2 -77.29,96.04 -122.08,140.2 -44.79,44.16 -93.72,85.66 -146.54,124.41 -52.83,38.75 -109.53,74.76 -169.61,108.11 -60.07,33.35 -123.53,64.04 -189.68,92.27 -66.15,28.23 -134.99,54 -205.82,77.57 -70.83,23.57 -143.63,44.94 -217.75,64.4 -74.11,19.46 -149.56,37 -225.82,52.86 -76.27,15.87 -153.37,30.07 -230.96,42.81 -77.58,12.74 -155.66,24.03 -234.01,34.04 -78.34,10.01 -156.96,18.74 -235.72,26.33 -78.76,7.59 -157.67,14.05 -236.67,19.48 -79.01,5.43 -158.11,9.83 -237.31,13.25 -79.2,3.43 -158.5,5.9 -237.93,7.43 -79.43,1.52 -158.98,2.1 -238.69,1.73 -5.68,-0.03 -11.37,-0.06 -17.04,-0.09"/>
  <path class="fil0 str1" d="M7190.38 2670.78c-103.03,84.49 -176.83,169.7 -179.78,299.57"/>
  <path class="fil0 str0" d="M6993.83 3692.13c3.87,-256.98 -14.29,-497.23 25.7,-796.31"/>
  <path class="fil0 str0" d="M4029.18 6648.04c74.66,1.7 148.63,0.57 221.72,-3.29 82.57,-4.35 164.01,-12.19 244.12,-23.07 80.11,-10.88 158.89,-24.82 236.22,-41.27 77.33,-16.45 153.22,-35.43 227.63,-56.42 74.39,-21 147.3,-44.01 218.69,-68.69 71.39,-24.68 141.28,-51.02 209.67,-78.99 68.39,-27.97 135.28,-57.57 200.68,-89.09 65.41,-31.52 129.32,-64.97 191.71,-100.77 62.4,-35.8 123.27,-73.93 182.5,-114.78 59.23,-40.85 116.81,-84.41 172.51,-130.82 55.7,-46.41 109.51,-95.68 161.01,-147.5 51.5,-51.83 100.7,-106.21 147.01,-162.38 46.31,-56.17 89.73,-114.13 129.73,-172.95 40,-58.82 76.57,-118.5 109.35,-178.21 32.8,-59.7 61.8,-119.44 87,-178.7 25.2,-59.26 46.61,-118.05 64.74,-176.54 18.13,-58.48 32.97,-116.65 45.45,-175.16 12.48,-58.51 22.58,-117.37 31.37,-177.45 8.78,-60.08 16.24,-121.39 23.35,-184.77 7.11,-63.39 13.86,-128.85 20.92,-196.98 7.06,-68.13 14.42,-138.93 22.48,-212.72 11.08,-101.48 15.4,-197.12 16.81,-290.54"/>
  <line class="fil0 str0" x1="7399.2" y1="3686.94" x2="7368.41" y2= "5676.3" />
  <polyline class="fil0 str0" points="7190.38,2670.78 7415,2670.78 7399.2,3692.12 "/>
  <path class="fil0 str0" d="M7281.52 2937.77c0,-30.86 -27.35,-55.88 -61.08,-55.88 -33.74,0 -61.08,25.02 -61.08,55.88 0,30.85 27.34,55.87 61.08,55.87 33.74,0 61.08,-25.01 61.08,-55.87z"/>
  <line class="fil0 str1" x1="7321.69" y1="5446.59" x2="7371.53" y2= "5474.57" />
  <line class="fil0 str1" x1="7268.87" y1="5537.33" x2="7369.69" y2= "5593.94" />
  <line class="fil0 str1" x1="7209.33" y1="5631.85" x2="7361.43" y2= "5717.26" />
  <line class="fil0 str1" x1="6894.94" y1="5586.2" x2="7122.7" y2= "5719.22" />
  <line class="fil0 str1" x1="7099.53" y1="5519.76" x2="7288.17" y2= "5622" />
  <line class="fil0 str1" x1="6990.76" y1="5266.78" x2="7190.11" y2= "5382.13" />
  <line class="fil0 str1" x1="7243.33" y1="5402.59" x2="7371.53" y2= "5474.58" />
  <line class="fil0 str1" x1="7073.59" y1="5434.74" x2="7180.11" y2= "5498.47" />
  <line class="fil0 str1" x1="7238.83" y1="5520.46" x2="7369.69" y2= "5593.94" />
  <line class="fil0 str1" x1="6919.93" y1="5481.11" x2="7135.92" y2= "5599.27" />
  <line class="fil0 str1" x1="7218.45" y1="5636.96" x2="7361.43" y2= "5717.26" />
  <line class="fil0 str1" x1="7198.26" y1="5751.71" x2="7349.87" y2= "5836.85" />
  <line class="fil0 str1" x1="7137.71" y1="5408.74" x2="7303.14" y2= "5498.41" />
  <line class="fil0 str1" x1="7077.76" y1="5623.04" x2="7277.31" y2= "5734.88" />
  <line class="fil0 str1" x1="6757.46" y1="5131.78" x2="6915.47" y2= "5223.21" />
  <line class="fil0 str1" x1="6815.48" y1="5226.63" x2="7018.54" y2= "5344.15" />
  <line class="fil0 str1" x1="6715.65" y1="5238.55" x2="6884.02" y2= "5339.28" />
  <line class="fil0 str1" x1="6942.74" y1="5361.26" x2="7073.59" y2= "5434.74" />
  <line class="fil0 str1" x1="6781.59" y1="5339.01" x2="6984.65" y2= "5456.54" />
  <line class="fil0 str1" x1="6658.7" y1="5338.2" x2="6824.09" y2= "5428.68" />
  <line class="fil0 str1" x1="6736.46" y1="5439.71" x2="6939.52" y2= "5557.24" />
  <line class="fil0 str1" x1="6603.84" y1="5420.8" x2="6784.97" y2= "5526.58" />
  <line class="fil0 str1" x1="7167.22" y1="5311.52" x2="7332.65" y2= "5401.19" />
  <line class="fil0 str1" x1="6844.99" y1="5129.41" x2="7048.05" y2= "5246.93" />
  <line class="fil0 str1" x1="6999.58" y1="5160.17" x2="7198.93" y2= "5275.52" />
  <line class="fil0 str1" x1="7252.15" y1="5295.97" x2="7380.35" y2= "5367.96" />
  <line class="fil0 str1" x1="6793.17" y1="5040.73" x2="6924.29" y2= "5116.6" />
  <path class="fil1 str2" d="M967.32 4556.26l-150.8 5.59 -1.12 -30.29 125.89 -47.44 -129.06 -37.98 -1.13 -30.29 150.8 -5.59 0.62 16.78 -132.93 4.93 0.11 3.06 129.11 39.07 0.69 18.74 -125.85 48.53 0.11 3.05 132.93 -4.93 0.62 16.78zm-85.59 -254.32l55.79 -2.07c5.36,-0.63 8.4,-4.97 9.12,-13l12.88 0.18c0.43,11.48 -2.16,20.23 -7.76,26.26 6.3,12.86 9.69,25.83 10.17,38.9 0.37,10.02 -2.18,17.76 -7.65,23.19 -5.47,5.44 -13.51,8.36 -24.12,8.75 -10.6,0.39 -18.51,-2 -23.72,-7.19 -5.21,-5.19 -8.61,-13.5 -10.2,-24.93l-4.54 -34.09 -9.37 0.35c-7.41,0.28 -12.65,2.07 -15.73,5.38 -3.08,3.32 -4.52,7.74 -4.31,13.26 0.43,11.62 1.61,23.65 3.52,36.09l0.9 6.73 -12.4 1.12c-3.79,-15.86 -5.91,-29.97 -6.37,-42.32 -0.46,-12.35 2.04,-21.43 7.5,-27.23 5.46,-5.8 14.21,-8.93 26.27,-9.37zm46.95 65.46c13.36,-0.5 19.84,-6.26 19.43,-17.3 -0.37,-9.88 -2.39,-19.55 -6.09,-29.01l-1.93 -4.95 -35.96 1.33 4.25 32.13c0.82,6.52 2.88,11.17 6.19,13.96 3.3,2.79 8.01,4.07 14.11,3.84zm27.3 -116.88l0.61 16.34 -156.46 5.8 -0.61 -16.34 92.4 -3.43 -1.5 -16.96 -45.17 -29.53 -0.69 -18.52 51.44 33.66 57.46 -39.23 0.69 18.52 -49.35 34.35 1.3 17.19 49.9 -1.85zm-19.42 -158.8l-0.89 -6.3 12.84 -0.91c2.94,16.47 4.63,30.6 5.06,42.37 0.58,15.69 -3.55,26.97 -12.38,33.84 -8.84,6.88 -22.85,10.67 -42.02,11.38 -38.21,1.42 -57.87,-13.06 -59,-43.42 -0.54,-14.67 3.15,-25.79 11.09,-33.36 7.94,-7.57 20.7,-11.68 38.28,-12.33l12.45 0.41 2.67 71.91c12.06,-0.44 20.91,-2.96 26.56,-7.53 5.65,-4.57 8.27,-12.27 7.87,-23.09 -0.4,-10.82 -1.25,-21.81 -2.53,-32.96zm-47.07 7.63c-13.37,0.5 -22.73,2.99 -28.09,7.48 -5.36,4.5 -7.86,11.57 -7.5,21.23 0.36,9.66 3.54,16.81 9.53,21.46 5.99,4.65 15.38,6.81 28.17,6.48l-2.1 -56.66zm59.25 -44.09l-108.96 4.04 -0.6 -16.13 14.81 -0.55c-9.19,-12.31 -15.42,-25.4 -18.7,-39.24l16.57 -0.61c1.39,6.06 3.44,12.35 6.15,18.87 2.71,6.52 5.08,11.48 7.1,14.9l3.04 5.34 79.98 -2.96 0.61 16.34zm-109.2 -67.31l-48.08 -7.81 -0.64 -17.21 48.24 12.17 0.48 12.85zm6.99 -82.09c0.59,15.83 6.4,23.55 17.44,23.14 5.09,-0.19 8.61,-2.13 10.59,-5.85 1.97,-3.71 3.84,-12.07 5.62,-25.09 1.77,-13.01 4.59,-22.28 8.46,-27.81 3.87,-5.53 11.4,-8.5 22.58,-8.91 11.19,-0.41 19.53,2.88 25.02,9.87 5.5,7 8.5,17.39 9.02,31.2 0.33,9.01 -0.29,19.65 -1.87,31.93l-0.85 6.58 -14.2 -0.35c1.86,-16.65 2.63,-29.19 2.31,-37.62 -0.31,-8.43 -1.89,-14.8 -4.75,-19.14 -2.85,-4.33 -7.44,-6.38 -13.76,-6.15 -6.32,0.24 -10.54,2.28 -12.65,6.15 -2.11,3.86 -3.95,12.22 -5.51,25.08 -1.56,12.86 -4.2,22.05 -7.93,27.57 -3.72,5.52 -10.89,8.48 -21.49,8.87 -10.6,0.39 -18.59,-3.05 -23.95,-10.35 -5.36,-7.3 -8.25,-16.53 -8.66,-27.72 -0.33,-8.86 0.27,-20.01 1.81,-33.45l0.86 -6.14 13.96 -0.08c-1.73,16.21 -2.42,28.97 -2.07,38.26zm92.65 -108.18l-152.33 -35.81 -1.36 -36.61 149.26 -47 0.61 16.56 -38.38 12.33 2.39 64.5 39.19 9.46 0.61 16.56zm-138.42 -48.98l83.44 19.81 -2.12 -57.09 -81.74 25.95 0.42 11.33zm35.41 -121.99c0.59,15.83 6.4,23.55 17.44,23.14 5.09,-0.19 8.62,-2.14 10.59,-5.85 1.97,-3.71 3.84,-12.07 5.62,-25.09 1.77,-13.01 4.59,-22.28 8.46,-27.81 3.87,-5.52 11.4,-8.49 22.58,-8.91 11.19,-0.41 19.53,2.88 25.03,9.87 5.5,7 8.5,17.39 9.01,31.2 0.33,9.01 -0.29,19.65 -1.87,31.93l-0.85 6.58 -14.19 -0.35c1.85,-16.65 2.63,-29.19 2.31,-37.62 -0.31,-8.42 -1.9,-14.8 -4.75,-19.13 -2.85,-4.33 -7.44,-6.38 -13.76,-6.15 -6.31,0.24 -10.54,2.28 -12.65,6.14 -2.11,3.86 -3.95,12.22 -5.51,25.08 -1.56,12.86 -4.2,22.05 -7.92,27.57 -3.72,5.52 -10.89,8.48 -21.5,8.87 -10.6,0.39 -18.59,-3.06 -23.95,-10.35 -5.36,-7.3 -8.25,-16.53 -8.67,-27.72 -0.33,-8.86 0.28,-20.01 1.81,-33.45l0.87 -6.15 13.96 -0.08c-1.72,16.21 -2.41,28.97 -2.07,38.26zm-14.46 -54.67l-0.61 -16.34 93.78 -30.76 -0.27 -7.19 -95.81 -23.94 -0.61 -16.35 159.01 39.49 0.61 16.35 -48.9 -12.37 0.6 16.13 -107.81 34.99zm104.62 -120.85l-156.46 5.81 -0.61 -16.35 156.46 -5.81 0.61 16.35zm-113.3 -112.98l-0.61 -16.35 108.96 -4.04 0.61 16.35 -7.63 0.28c6.94,10.65 10.61,21.28 11,31.89 0.55,14.82 -2.94,24.8 -10.46,29.95 -7.52,5.15 -21.67,8.12 -42.44,8.89l-56.88 2.11 -0.61 -16.35 56.66 -2.1c15.83,-0.59 26.39,-2.36 31.66,-5.32 5.28,-2.96 7.73,-9.3 7.37,-19.04 -0.18,-4.8 -1.05,-9.64 -2.61,-14.52 -1.57,-4.89 -3.05,-8.62 -4.45,-11.18l-2.11 -3.85 -88.47 3.28zm106.58 -68.11l0.61 16.34 -108.96 4.04 -0.6 -16.13 7.62 -0.28c-6.94,-10.65 -10.6,-21.14 -10.98,-31.45 -0.5,-13.51 2.85,-23.09 10.06,-28.74 -3.08,-4.69 -5.89,-10.8 -8.43,-18.35 -2.53,-7.54 -3.91,-14.22 -4.12,-20.03 -0.54,-14.53 2.98,-24.44 10.57,-29.74 7.58,-5.3 21.48,-8.33 41.67,-9.07l57.53 -2.13 0.61 16.34 -57.09 2.12c-15.11,0.56 -25.41,2.4 -30.89,5.51 -5.49,3.11 -8.05,9.39 -7.7,18.83 0.18,4.79 1.05,9.7 2.62,14.74 1.57,5.04 3.06,8.91 4.47,11.62l2.11 4.07c4.72,-2.07 15.3,-3.4 31.71,-4.01l56.66 -2.1 0.61 16.34 -56.22 2.09c-15.69,0.58 -26.28,2.39 -31.77,5.43 -5.49,3.04 -8.05,9.35 -7.7,18.94 0.17,4.65 1.04,9.38 2.6,14.2 1.56,4.81 3.04,8.51 4.45,11.07l2.09 3.63 88.48 -3.28z"/>
  <ellipse class="fil0 str1" cx="4051.06" cy="6975" rx="98.42" ry="98.43"/>
  <ellipse class="fil0 str1" cx="2741.63" cy="6785.69" rx="98.42" ry="98.43"/>
  <ellipse class="fil0 str1" cx="1713.85" cy="6216.24" rx="98.42" ry="98.43"/>
  <ellipse class="fil0 str1" cx="5300.87" cy="6837.46" rx="98.42" ry="98.43"/>
  <ellipse class="fil0 str1" cx="6269.41" cy="6245.22" rx="98.42" ry="98.43"/>
 </g>
</svg>
