  0
SECTION
  2
HEADER
  9
$ACADVER
  1
AC1014
  9
$HANDSEED
  5
FFFF
  9
$MEASUREMENT
 70
     1
  0
ENDSEC
  0
SECTION
  2
TABLES
  0
TABLE
  2
VPORT
  5
8
330
0
100
AcDbSymbolTable
 70
     4
  0
VPORT
  5
2E
330
8
100
AcDbSymbolTableRecord
100
AcDbViewportTableRecord
  2
*ACTIVE
 70
     0
 10
0.0
 20
0.0
 11
1.0
 21
1.0
 12
210.0
 22
148.5
 13
0.0
 23
0.0
 14
10.0
 24
10.0
 15
10.0
 25
10.0
 16
0.0
 26
0.0
 36
1.0
 17
0.0
 27
0.0
 37
0.0
 40
341.0
 41
1.24
 42
50.0
 43
0.0
 44
0.0
 50
0.0
 51
0.0
 71
     0
 72
   100
 73
     1
 74
     3
 75
     0
 76
     0
 77
     0
 78
     0
  0
ENDTAB
  0
TABLE
  2
LTYPE
  5
5
330
0
100
AcDbSymbolTable
 70
     1
  0
LTYPE
  5
14
330
5
100
AcDbSymbolTableRecord
100
AcDbLinetypeTableRecord
  2
BYBLOCK
 70
     0
  3

 72
    65
 73
     0
 40
0.0
  0
LTYPE
  5
15
330
5
100
AcDbSymbolTableRecord
100
AcDbLinetypeTableRecord
  2
BYLAYER
 70
     0
  3

 72
    65
 73
     0
 40
0.0
  0
LTYPE
  5
16
330
5
100
AcDbSymbolTableRecord
100
AcDbLinetypeTableRecord
  2
CONTINUOUS
 70
     0
  3
Solid line
 72
    65
 73
     0
 40
0.0
  0
ENDTAB
  0
TABLE
  2
LAYER
  5
2
100
AcDbSymbolTable
 70
1
  0
LAYER
  5
50
100
AcDbSymbolTableRecord
100
AcDbLayerTableRecord
  2
0
 70
0
  6
CONTINUOUS
  0
ENDTAB
  0
TABLE
  2
STYLE
  5
3
330
0
100
AcDbSymbolTable
 70
     1
  0
STYLE
  5
11
330
3
100
AcDbSymbolTableRecord
100
AcDbTextStyleTableRecord
  2
STANDARD
 70
     0
 40
0.0
 41
1.0
 50
0.0
 71
     0
 42
2.5
  3
txt
  4

  0
ENDTAB
  0
TABLE
  2
VIEW
  5
6
330
0
100
AcDbSymbolTable
 70
     0
  0
ENDTAB
  0
TABLE
  2
UCS
  5
7
330
0
100
AcDbSymbolTable
 70
     0
  0
ENDTAB
  0
TABLE
  2
APPID
  5
9
330
0
100
AcDbSymbolTable
 70
     2
  0
APPID
  5
12
330
9
100
AcDbSymbolTableRecord
100
AcDbRegAppTableRecord
  2
ACAD
 70
     0
  0
ENDTAB
  0
TABLE
  2
DIMSTYLE
  5
A
330
0
100
AcDbSymbolTable
 70
     1
  0
DIMSTYLE
105
27
330
A
100
AcDbSymbolTableRecord
100
AcDbDimStyleTableRecord
  2
ISO-25
 70
     0
  3

  4

  5

  6

  7

 40
1.0
 41
2.5
 42
0.625
 43
3.75
 44
1.25
 45
0.0
 46
0.0
 47
0.0
 48
0.0
140
2.5
141
2.5
142
0.0
143
0.03937007874016
144
1.0
145
0.0
146
1.0
147
0.625
 71
     0
 72
     0
 73
     0
 74
     0
 75
     0
 76
     0
 77
     1
 78
     8
170
     0
171
     3
172
     1
173
     0
174
     0
175
     0
176
     0
177
     0
178
     0
270
     2
271
     2
272
     2
273
     2
274
     3
340
11
275
     0
280
     0
281
     0
282
     0
283
     0
284
     8
285
     0
286
     0
287
     3
288
     0
  0
ENDTAB
  0
TABLE
  2
BLOCK_RECORD
  5
1
330
0
100
AcDbSymbolTable
 70
     1
  0
BLOCK_RECORD
  5
1F
330
1
100
AcDbSymbolTableRecord
100
AcDbBlockTableRecord
  2
*MODEL_SPACE
  0
BLOCK_RECORD
  5
1B
330
1
100
AcDbSymbolTableRecord
100
AcDbBlockTableRecord
  2
*PAPER_SPACE
  0
ENDTAB
  0
ENDSEC
  0
SECTION
  2
BLOCKS
  0
BLOCK
  5
20
330
1F
100
AcDbEntity
  8
0
100
AcDbBlockBegin
  2
*MODEL_SPACE
 70
     0
 10
0.0
 20
0.0
 30
0.0
  3
*MODEL_SPACE
  1

  0
ENDBLK
  5
21
330
1F
100
AcDbEntity
  8
0
100
AcDbBlockEnd
  0
BLOCK
  5
1C
330
1B
100
AcDbEntity
 67
     1
  8
0
100
AcDbBlockBegin
  2
*PAPER_SPACE
  1

  0
ENDBLK
  5
1D
330
1B
100
AcDbEntity
 67
     1
  8
0
100
AcDbBlockEnd
  0
ENDSEC
  0
SECTION
  2
ENTITIES
  0
LWPOLYLINE
  5
100
100
AcDbEntity
  8
0
 62
5
100
AcDbPolyline
 90
2
 70
0
 10
85.100864
 20
-284.562006
 30
0.0
 10
79.571284
 20
-290.410102
 30
0.0
  0
LWPOLYLINE
  5
101
100
AcDbEntity
  8
0
 62
5
100
AcDbPolyline
 90
3
 70
0
 10
81.299754
 20
-278.458894
 30
0.0
 10
78.595670
 20
-281.219366
 30
0.0
 10
76.420668
 20
-283.571152
 30
0.0
  0
SPLINE
  5
102
100
AcDbEntity
  8
0
 62
5
100
AcDbSpline
 70
0
 71
3
 72
10
 73
6
 74
4
 40
0.000000
 40
0.000000
 40
0.000000
 40
0.000000
 40
0.996440
 40
3.041991
 40
4.721002
 40
4.721002
 40
4.721002
 40
4.721002
 10
78.503722
 20
-276.725598
 30
0.0
 10
78.274526
 20
-276.965995
 30
0.0
 10
77.574824
 20
-277.699893
 30
0.0
 10
76.488921
 20
-278.838860
 30
0.0
 10
75.632147
 20
-279.737365
 30
0.0
 10
75.245918
 20
-280.142406
 30
0.0
 11
78.503722
 21
-276.725598
 31
0.0
 11
77.816135
 21
-277.446788
 31
0.0
 11
76.404591
 21
-278.927270
 31
0.0
 11
75.245918
 21
-280.142406
 31
0.0
  0
LWPOLYLINE
  5
103
100
AcDbEntity
  8
0
 62
5
100
AcDbPolyline
 90
2
 70
0
 10
82.722662
 20
-282.242732
 30
0.0
 10
78.043474
 20
-286.909982
 30
0.0
  0
LWPOLYLINE
  5
104
100
AcDbEntity
  8
0
 62
5
100
AcDbPolyline
 90
2
 70
0
 10
84.030254
 20
-273.169598
 30
0.0
 10
78.622848
 20
-278.842180
 30
0.0
  0
LWPOLYLINE
  5
105
100
AcDbEntity
  8
0
 62
5
100
AcDbPolyline
 90
2
 70
0
 10
87.537232
 20
-272.272470
 30
0.0
 10
83.468660
 20
-276.671496
 30
0.0
  0
LWPOLYLINE
  5
106
100
AcDbEntity
  8
0
 62
5
100
AcDbPolyline
 90
2
 70
0
 10
86.424966
 20
-275.925498
 30
0.0
 10
80.122210
 20
-282.537372
 30
0.0
  0
LWPOLYLINE
  5
107
100
AcDbEntity
  8
0
 62
5
100
AcDbPolyline
 90
2
 70
0
 10
89.968012
 20
-275.015162
 30
0.0
 10
85.904520
 20
-279.068494
 30
0.0
  0
LWPOLYLINE
  5
108
100
AcDbEntity
  8
0
 62
5
100
AcDbPolyline
 90
2
 70
0
 10
88.522752
 20
-278.786300
 30
0.0
 10
81.974124
 20
-285.655984
 30
0.0
  0
LWPOLYLINE
  5
109
100
AcDbEntity
  8
0
 62
5
100
AcDbPolyline
 90
2
 70
0
 10
92.203720
 20
-277.233344
 30
0.0
 10
87.806726
 20
-281.883830
 30
0.0
  0
SPLINE
  5
10a
100
AcDbEntity
  8
0
 62
5
100
AcDbSpline
 70
0
 71
3
 72
10
 73
6
 74
4
 40
0.000000
 40
0.000000
 40
0.000000
 40
0.000000
 40
2.233631
 40
4.804216
 40
6.033929
 40
6.033929
 40
6.033929
 40
6.033929
 10
85.256058
 20
-269.643570
 30
0.0
 10
84.742281
 20
-270.182437
 30
0.0
 10
83.637221
 20
-271.341464
 30
0.0
 10
82.249266
 20
-272.797125
 30
0.0
 10
81.375101
 20
-273.713929
 30
0.0
 10
81.092236
 20
-274.010592
 30
0.0
 11
85.256058
 21
-269.643570
 31
0.0
 11
83.714720
 21
-271.260167
 31
0.0
 11
81.940831
 21
-273.120604
 31
0.0
 11
81.092236
 21
-274.010592
 31
0.0
  0
SPLINE
  5
10b
100
AcDbEntity
  8
0
 62
5
100
AcDbSpline
 70
0
 71
3
 72
10
 73
6
 74
4
 40
0.000000
 40
0.000000
 40
0.000000
 40
0.000000
 40
0.751506
 40
2.336536
 40
3.750854
 40
3.750854
 40
3.750854
 40
3.750854
 10
76.702354
 20
-273.951664
 30
0.0
 10
76.529474
 20
-274.132947
 30
0.0
 10
75.991966
 20
-274.696583
 30
0.0
 10
75.129107
 20
-275.601396
 30
0.0
 10
74.439173
 20
-276.324968
 30
0.0
 10
74.113840
 20
-276.666162
 30
0.0
 11
76.702354
 21
-273.951664
 31
0.0
 11
76.183714
 21
-274.495515
 31
0.0
 11
75.089849
 21
-275.642589
 31
0.0
 11
74.113840
 21
-276.666162
 31
0.0
  0
LWPOLYLINE
  5
10c
100
AcDbEntity
  8
0
 62
5
100
AcDbPolyline
 90
2
 70
0
 10
82.231680
 20
-270.494724
 30
0.0
 10
76.772458
 20
-276.221916
 30
0.0
  0
SPLINE
  5
10d
100
AcDbEntity
  8
0
 62
5
100
AcDbSpline
 70
0
 71
3
 72
10
 73
6
 74
4
 40
0.000000
 40
0.000000
 40
0.000000
 40
0.000000
 40
1.940891
 40
4.098249
 40
5.118223
 40
5.118223
 40
5.118223
 40
5.118223
 10
83.389412
 20
-266.938216
 30
0.0
 10
82.942963
 20
-267.406452
 30
0.0
 10
82.000273
 20
-268.395147
 30
0.0
 10
80.822993
 20
-269.629936
 30
0.0
 10
80.092153
 20
-270.396479
 30
0.0
 10
79.857542
 20
-270.642552
 30
0.0
 11
83.389412
 21
-266.938216
 31
0.0
 11
82.050070
 21
-268.342930
 31
0.0
 11
80.561376
 21
-269.904334
 31
0.0
 11
79.857542
 21
-270.642552
 31
0.0
  0
LWPOLYLINE
  5
10e
100
AcDbEntity
  8
0
 62
5
100
AcDbPolyline
 90
2
 70
0
 10
85.100864
 20
-284.562006
 30
0.0
 10
79.571284
 20
-290.410102
 30
0.0
  0
LWPOLYLINE
  5
10f
100
AcDbEntity
  8
0
 62
5
100
AcDbPolyline
 90
3
 70
0
 10
81.299754
 20
-278.458894
 30
0.0
 10
78.595670
 20
-281.219366
 30
0.0
 10
76.420668
 20
-283.571152
 30
0.0
  0
SPLINE
  5
110
100
AcDbEntity
  8
0
 62
5
100
AcDbSpline
 70
0
 71
3
 72
10
 73
6
 74
4
 40
0.000000
 40
0.000000
 40
0.000000
 40
0.000000
 40
0.996440
 40
3.041991
 40
4.721002
 40
4.721002
 40
4.721002
 40
4.721002
 10
78.503468
 20
-276.725598
 30
0.0
 10
78.274272
 20
-276.965995
 30
0.0
 10
77.574570
 20
-277.699893
 30
0.0
 10
76.488667
 20
-278.838860
 30
0.0
 10
75.631893
 20
-279.737365
 30
0.0
 10
75.245664
 20
-280.142406
 30
0.0
 11
78.503468
 21
-276.725598
 31
0.0
 11
77.815881
 21
-277.446788
 31
0.0
 11
76.404337
 21
-278.927270
 31
0.0
 11
75.245664
 21
-280.142406
 31
0.0
  0
LWPOLYLINE
  5
111
100
AcDbEntity
  8
0
 62
5
100
AcDbPolyline
 90
2
 70
0
 10
82.722662
 20
-282.242732
 30
0.0
 10
78.043474
 20
-286.909982
 30
0.0
  0
LWPOLYLINE
  5
112
100
AcDbEntity
  8
0
 62
5
100
AcDbPolyline
 90
2
 70
0
 10
84.030254
 20
-273.169598
 30
0.0
 10
78.622848
 20
-278.842180
 30
0.0
  0
LWPOLYLINE
  5
113
100
AcDbEntity
  8
0
 62
5
100
AcDbPolyline
 90
2
 70
0
 10
87.537232
 20
-272.272470
 30
0.0
 10
83.468660
 20
-276.671496
 30
0.0
  0
LWPOLYLINE
  5
114
100
AcDbEntity
  8
0
 62
5
100
AcDbPolyline
 90
2
 70
0
 10
86.424966
 20
-275.925498
 30
0.0
 10
80.122210
 20
-282.537372
 30
0.0
  0
LWPOLYLINE
  5
115
100
AcDbEntity
  8
0
 62
5
100
AcDbPolyline
 90
2
 70
0
 10
89.968012
 20
-275.015162
 30
0.0
 10
85.904520
 20
-279.068494
 30
0.0
  0
LWPOLYLINE
  5
116
100
AcDbEntity
  8
0
 62
5
100
AcDbPolyline
 90
2
 70
0
 10
88.522752
 20
-278.786300
 30
0.0
 10
81.974124
 20
-285.655984
 30
0.0
  0
LWPOLYLINE
  5
117
100
AcDbEntity
  8
0
 62
5
100
AcDbPolyline
 90
2
 70
0
 10
92.203720
 20
-277.233344
 30
0.0
 10
87.806726
 20
-281.883830
 30
0.0
  0
SPLINE
  5
118
100
AcDbEntity
  8
0
 62
5
100
AcDbSpline
 70
0
 71
3
 72
10
 73
6
 74
4
 40
0.000000
 40
0.000000
 40
0.000000
 40
0.000000
 40
2.233586
 40
4.804087
 40
6.033753
 40
6.033753
 40
6.033753
 40
6.033753
 10
85.256058
 20
-269.643570
 30
0.0
 10
84.742301
 20
-270.182436
 30
0.0
 10
83.637292
 20
-271.341451
 30
0.0
 10
82.249433
 20
-272.797122
 30
0.0
 10
81.375333
 20
-273.713929
 30
0.0
 10
81.092490
 20
-274.010592
 30
0.0
 11
85.256058
 21
-269.643570
 31
0.0
 11
83.714786
 21
-271.260167
 31
0.0
 11
81.941019
 21
-273.120604
 31
0.0
 11
81.092490
 21
-274.010592
 31
0.0
  0
SPLINE
  5
119
100
AcDbEntity
  8
0
 62
5
100
AcDbSpline
 70
0
 71
3
 72
10
 73
6
 74
4
 40
0.000000
 40
0.000000
 40
0.000000
 40
0.000000
 40
0.751461
 40
2.336406
 40
3.750679
 40
3.750679
 40
3.750679
 40
3.750679
 10
76.702100
 20
-273.951664
 30
0.0
 10
76.529242
 20
-274.132948
 30
0.0
 10
75.991800
 20
-274.696586
 30
0.0
 10
75.129037
 20
-275.601409
 30
0.0
 10
74.439153
 20
-276.324969
 30
0.0
 10
74.113840
 20
-276.666162
 30
0.0
 11
76.702100
 21
-273.951664
 31
0.0
 11
76.183526
 21
-274.495515
 31
0.0
 11
75.089783
 21
-275.642589
 31
0.0
 11
74.113840
 21
-276.666162
 31
0.0
  0
LWPOLYLINE
  5
11a
100
AcDbEntity
  8
0
 62
5
100
AcDbPolyline
 90
2
 70
0
 10
82.231680
 20
-270.494724
 30
0.0
 10
76.772458
 20
-276.221916
 30
0.0
  0
LWPOLYLINE
  5
11b
100
AcDbEntity
  8
0
 62
5
100
AcDbPolyline
 90
2
 70
0
 10
213.065556
 20
-283.661830
 30
0.0
 10
218.812815
 20
-289.740050
 30
0.0
  0
LWPOLYLINE
  5
11c
100
AcDbEntity
  8
0
 62
5
100
AcDbPolyline
 90
2
 70
0
 10
219.662699
 20
-275.825422
 30
0.0
 10
223.100081
 20
-279.430698
 30
0.0
  0
LWPOLYLINE
  5
11d
100
AcDbEntity
  8
0
 62
5
100
AcDbPolyline
 90
3
 70
0
 10
216.866667
 20
-277.558972
 30
0.0
 10
219.615709
 20
-280.365418
 30
0.0
 10
221.827033
 20
-282.756320
 30
0.0
  0
LWPOLYLINE
  5
11e
100
AcDbEntity
  8
0
 62
5
100
AcDbPolyline
 90
2
 70
0
 10
215.443505
 20
-281.342810
 30
0.0
 10
220.425461
 20
-286.312320
 30
0.0
  0
LWPOLYLINE
  5
11f
100
AcDbEntity
  8
0
 62
5
100
AcDbPolyline
 90
2
 70
0
 10
212.578384
 20
-268.395668
 30
0.0
 10
217.073677
 20
-273.110416
 30
0.0
  0
LWPOLYLINE
  5
120
100
AcDbEntity
  8
0
 62
5
100
AcDbPolyline
 90
2
 70
0
 10
214.135913
 20
-272.269676
 30
0.0
 10
219.543319
 20
-277.942258
 30
0.0
  0
LWPOLYLINE
  5
121
100
AcDbEntity
  8
0
 62
5
100
AcDbPolyline
 90
2
 70
0
 10
210.628934
 20
-271.372548
 30
0.0
 10
214.697507
 20
-275.771574
 30
0.0
  0
LWPOLYLINE
  5
122
100
AcDbEntity
  8
0
 62
5
100
AcDbPolyline
 90
2
 70
0
 10
211.741454
 20
-275.025576
 30
0.0
 10
218.044211
 20
-281.637450
 30
0.0
  0
LWPOLYLINE
  5
123
100
AcDbEntity
  8
0
 62
5
100
AcDbPolyline
 90
2
 70
0
 10
208.198154
 20
-274.114986
 30
0.0
 10
212.261646
 20
-278.168318
 30
0.0
  0
LWPOLYLINE
  5
124
100
AcDbEntity
  8
0
 62
5
100
AcDbPolyline
 90
2
 70
0
 10
209.643414
 20
-277.886378
 30
0.0
 10
216.192043
 20
-284.756062
 30
0.0
  0
LWPOLYLINE
  5
125
100
AcDbEntity
  8
0
 62
5
100
AcDbPolyline
 90
2
 70
0
 10
205.962446
 20
-276.333422
 30
0.0
 10
210.359440
 20
-280.983908
 30
0.0
  0
LWPOLYLINE
  5
126
100
AcDbEntity
  8
0
 62
5
100
AcDbPolyline
 90
2
 70
0
 10
215.934487
 20
-269.594802
 30
0.0
 10
221.393709
 20
-275.321994
 30
0.0
  0
LWPOLYLINE
  5
127
100
AcDbEntity
  8
0
 62
5
100
AcDbPolyline
 90
2
 70
0
 10
221.464067
 20
-273.051742
 30
0.0
 10
224.295405
 20
-276.021256
 30
0.0
  0
SPLINE
  5
128
100
AcDbEntity
  8
0
 62
5
100
AcDbSpline
 70
0
 71
3
 72
10
 73
6
 74
4
 40
0.000000
 40
0.000000
 40
0.000000
 40
0.000000
 40
1.941051
 40
4.098329
 40
5.118223
 40
5.118223
 40
5.118223
 40
5.118223
 10
83.389412
 20
-266.938216
 30
0.0
 10
82.942925
 20
-267.406489
 30
0.0
 10
82.000214
 20
-268.395201
 30
0.0
 10
80.822936
 20
-269.629991
 30
0.0
 10
80.092134
 20
-270.396498
 30
0.0
 10
79.857542
 20
-270.642552
 30
0.0
 11
83.389412
 21
-266.938216
 31
0.0
 11
82.049957
 21
-268.343043
 31
0.0
 11
80.561319
 21
-269.904390
 31
0.0
 11
79.857542
 21
-270.642552
 31
0.0
  0
LWPOLYLINE
  5
129
100
AcDbEntity
  8
0
 62
5
100
AcDbPolyline
 90
2
 70
0
 10
214.427759
 20
-265.672280
 30
0.0
 10
218.308625
 20
-269.742630
 30
0.0
  0
SPLINE
  5
12a
100
AcDbEntity
  8
0
 62
7
100
AcDbSpline
 70
0
 71
3
 72
19
 73
15
 74
13
 40
0.000000
 40
0.000000
 40
0.000000
 40
0.000000
 40
1.307135
 40
2.575500
 40
3.882681
 40
5.189862
 40
6.458227
 40
7.765362
 40
9.072561
 40
10.341012
 40
11.648210
 40
12.955392
 40
14.223757
 40
15.530891
 40
15.530891
 40
15.530891
 40
15.530891
 10
207.902244
 20
-287.731418
 30
0.0
 10
207.833528
 20
-287.290711
 30
0.0
 10
207.698134
 20
-286.422369
 30
0.0
 10
206.702749
 20
-285.466468
 30
0.0
 10
205.404417
 20
-285.112321
 30
0.0
 10
204.092453
 20
-285.466468
 30
0.0
 10
203.137155
 20
-286.422368
 30
0.0
 10
202.782650
 20
-287.731443
 30
0.0
 10
203.137170
 20
-289.040526
 30
0.0
 10
204.092415
 20
-289.996549
 30
0.0
 10
205.404411
 20
-290.350787
 30
0.0
 10
206.702749
 20
-289.996618
 30
0.0
 10
207.698134
 20
-289.040722
 30
0.0
 10
207.833528
 20
-288.172379
 30
0.0
 10
207.902244
 20
-287.731672
 30
0.0
 11
207.902244
 21
-287.731418
 31
0.0
 11
207.560897
 21
-286.469640
 31
0.0
 11
206.663966
 21
-285.572832
 31
0.0
 11
205.402122
 21
-285.231550
 31
0.0
 11
204.140279
 21
-285.572832
 31
0.0
 11
203.243348
 21
-286.469640
 31
0.0
 11
202.902000
 21
-287.731418
 31
0.0
 11
203.243348
 21
-288.993262
 31
0.0
 11
204.140279
 21
-289.890192
 31
0.0
 11
205.402122
 21
-290.231540
 31
0.0
 11
206.663966
 21
-289.890258
 31
0.0
 11
207.560897
 21
-288.993450
 31
0.0
 11
207.902244
 21
-287.731672
 31
0.0
  0
LWPOLYLINE
  5
12b
100
AcDbEntity
  8
0
 62
7
100
AcDbPolyline
 90
2
 70
0
 10
207.902244
 20
-287.731672
 30
0.0
 10
207.902244
 20
-287.731418
 30
0.0
  0
SPLINE
  5
12c
100
AcDbEntity
  8
0
 62
7
100
AcDbSpline
 70
0
 71
3
 72
19
 73
15
 74
13
 40
0.000000
 40
0.000000
 40
0.000000
 40
0.000000
 40
1.307199
 40
2.575650
 40
3.882848
 40
5.190047
 40
6.458498
 40
7.765697
 40
9.072841
 40
10.341252
 40
11.648480
 40
12.955679
 40
14.224130
 40
15.531328
 40
15.531328
 40
15.531328
 40
15.531328
 10
183.301328
 20
-302.774314
 30
0.0
 10
183.232609
 20
-302.333589
 30
0.0
 10
183.097206
 20
-301.465203
 30
0.0
 10
182.101871
 20
-300.509187
 30
0.0
 10
180.803501
 20
-300.154927
 30
0.0
 10
179.491499
 20
-300.509187
 30
0.0
 10
178.536255
 20
-301.465204
 30
0.0
 10
178.181732
 20
-302.774291
 30
0.0
 10
178.536250
 20
-304.083390
 30
0.0
 10
179.491539
 20
-305.039291
 30
0.0
 10
180.803479
 20
-305.393743
 30
0.0
 10
182.101874
 20
-305.039430
 30
0.0
 10
183.097205
 20
-304.083427
 30
0.0
 10
183.232608
 20
-303.215039
 30
0.0
 10
183.301328
 20
-302.774314
 30
0.0
 11
183.301328
 21
-302.774314
 31
0.0
 11
182.959981
 21
-301.512470
 31
0.0
 11
182.063050
 21
-300.615540
 31
0.0
 11
180.801206
 21
-300.274192
 31
0.0
 11
179.539363
 21
-300.615540
 31
0.0
 11
178.642432
 21
-301.512470
 31
0.0
 11
178.301084
 21
-302.774314
 31
0.0
 11
178.642432
 21
-304.036101
 31
0.0
 11
179.539363
 21
-304.932975
 31
0.0
 11
180.801206
 21
-305.274436
 31
0.0
 11
182.063050
 21
-304.933088
 31
0.0
 11
182.959981
 21
-304.036158
 31
0.0
 11
183.301328
 21
-302.774314
 31
0.0
  0
LWPOLYLINE
  5
12d
100
AcDbEntity
  8
0
 62
7
100
AcDbPolyline
 90
1
 70
1
 10
183.301328
 20
-302.774314
 30
0.0
  0
SPLINE
  5
12e
100
AcDbEntity
  8
0
 62
7
100
AcDbSpline
 70
0
 71
3
 72
19
 73
15
 74
13
 40
0.000000
 40
0.000000
 40
0.000000
 40
0.000000
 40
1.307135
 40
2.575500
 40
3.882681
 40
5.189862
 40
6.458227
 40
7.765362
 40
9.072561
 40
10.341012
 40
11.648210
 40
12.955409
 40
14.223860
 40
15.531059
 40
15.531059
 40
15.531059
 40
15.531059
 10
151.556154
 20
-306.167754
 30
0.0
 10
151.487438
 20
-305.727047
 30
0.0
 10
151.352044
 20
-304.858705
 30
0.0
 10
150.356659
 20
-303.902804
 30
0.0
 10
149.058327
 20
-303.548657
 30
0.0
 10
147.746363
 20
-303.902804
 30
0.0
 10
146.791065
 20
-304.858704
 30
0.0
 10
146.436560
 20
-306.167778
 30
0.0
 10
146.791080
 20
-307.476864
 30
0.0
 10
147.746325
 20
-308.432881
 30
0.0
 10
149.058327
 20
-308.787141
 30
0.0
 10
150.356697
 20
-308.432881
 30
0.0
 10
151.352032
 20
-307.476864
 30
0.0
 10
151.487434
 20
-306.608479
 30
0.0
 10
151.556154
 20
-306.167754
 30
0.0
 11
151.556154
 21
-306.167754
 31
0.0
 11
151.214806
 21
-304.905976
 31
0.0
 11
150.317876
 21
-304.009168
 31
0.0
 11
149.056032
 21
-303.667886
 31
0.0
 11
147.794188
 21
-304.009168
 31
0.0
 11
146.897258
 21
-304.905976
 31
0.0
 11
146.555910
 21
-306.167754
 31
0.0
 11
146.897258
 21
-307.429598
 31
0.0
 11
147.794188
 21
-308.326528
 31
0.0
 11
149.056032
 21
-308.667876
 31
0.0
 11
150.317876
 21
-308.326528
 31
0.0
 11
151.214806
 21
-307.429598
 31
0.0
 11
151.556154
 21
-306.167754
 31
0.0
  0
LWPOLYLINE
  5
12f
100
AcDbEntity
  8
0
 62
7
100
AcDbPolyline
 90
1
 70
1
 10
151.556154
 20
-306.167754
 30
0.0
  0
SPLINE
  5
130
100
AcDbEntity
  8
0
 62
7
100
AcDbSpline
 70
0
 71
3
 72
19
 73
15
 74
13
 40
0.000000
 40
0.000000
 40
0.000000
 40
0.000000
 40
1.307199
 40
2.575650
 40
3.882848
 40
5.190047
 40
6.458498
 40
7.765697
 40
9.072880
 40
10.341292
 40
11.648599
 40
12.955798
 40
14.224249
 40
15.531448
 40
15.531448
 40
15.531448
 40
15.531448
 10
118.296632
 20
-301.459356
 30
0.0
 10
118.227912
 20
-301.018631
 30
0.0
 10
118.092510
 20
-300.150245
 30
0.0
 10
117.097174
 20
-299.194229
 30
0.0
 10
115.798805
 20
-298.839969
 30
0.0
 10
114.486804
 20
-299.194229
 30
0.0
 10
113.531553
 20
-300.150246
 30
0.0
 10
113.177052
 20
-301.459349
 30
0.0
 10
113.531490
 20
-302.768451
 30
0.0
 10
114.486723
 20
-303.724529
 30
0.0
 10
115.798774
 20
-304.078733
 30
0.0
 10
117.097173
 20
-303.724488
 30
0.0
 10
118.092510
 20
-302.768465
 30
0.0
 10
118.227912
 20
-301.900080
 30
0.0
 10
118.296632
 20
-301.459356
 30
0.0
 11
118.296632
 21
-301.459356
 31
0.0
 11
117.955284
 21
-300.197512
 31
0.0
 11
117.058354
 21
-299.300582
 31
0.0
 11
115.796510
 21
-298.959234
 31
0.0
 11
114.534666
 21
-299.300582
 31
0.0
 11
113.637736
 21
-300.197512
 31
0.0
 11
113.296388
 21
-301.459356
 31
0.0
 11
113.637679
 21
-302.721200
 31
0.0
 11
114.534553
 21
-303.618130
 31
0.0
 11
115.796510
 21
-303.959478
 31
0.0
 11
117.058354
 21
-303.618130
 31
0.0
 11
117.955284
 21
-302.721200
 31
0.0
 11
118.296632
 21
-301.459356
 31
0.0
  0
LWPOLYLINE
  5
131
100
AcDbEntity
  8
0
 62
7
100
AcDbPolyline
 90
1
 70
1
 10
118.296632
 20
-301.459356
 30
0.0
  0
LWPOLYLINE
  5
132
100
AcDbEntity
  8
0
 62
7
100
AcDbPolyline
 90
1
 70
1
 10
92.191020
 20
-286.995326
 30
0.0
  0
SPLINE
  5
133
100
AcDbEntity
  8
0
 62
7
100
AcDbSpline
 70
0
 71
3
 72
19
 73
15
 74
13
 40
0.000000
 40
0.000000
 40
0.000000
 40
0.000000
 40
1.307184
 40
2.575595
 40
3.882903
 40
5.190101
 40
6.458552
 40
7.765751
 40
9.072949
 40
10.341401
 40
11.648599
 40
12.955798
 40
14.224249
 40
15.531448
 40
15.531448
 40
15.531448
 40
15.531448
 10
92.191020
 20
-286.995326
 30
0.0
 10
92.122320
 20
-286.554603
 30
0.0
 10
91.986959
 20
-285.686231
 30
0.0
 10
90.991642
 20
-284.730153
 30
0.0
 10
89.693224
 20
-284.375948
 30
0.0
 10
88.381192
 20
-284.730194
 30
0.0
 10
87.425945
 20
-285.686217
 30
0.0
 10
87.071423
 20
-286.995325
 30
0.0
 10
87.425945
 20
-288.304436
 30
0.0
 10
88.381191
 20
-289.260452
 30
0.0
 10
89.693193
 20
-289.614713
 30
0.0
 10
90.991562
 20
-289.260452
 30
0.0
 10
91.986897
 20
-288.304436
 30
0.0
 10
92.122300
 20
-287.436051
 30
0.0
 10
92.191020
 20
-286.995326
 30
0.0
 11
92.191020
 21
-286.995326
 31
0.0
 11
91.849729
 21
-285.733482
 31
0.0
 11
90.952855
 21
-284.836552
 31
0.0
 11
89.690898
 21
-284.495204
 31
0.0
 11
88.429054
 21
-284.836552
 31
0.0
 11
87.532124
 21
-285.733482
 31
0.0
 11
87.190776
 21
-286.995326
 31
0.0
 11
87.532124
 21
-288.257170
 31
0.0
 11
88.429054
 21
-289.154100
 31
0.0
 11
89.690898
 21
-289.495448
 31
0.0
 11
90.952742
 21
-289.154100
 31
0.0
 11
91.849672
 21
-288.257170
 31
0.0
 11
92.191020
 21
-286.995326
 31
0.0
  0
LWPOLYLINE
  5
134
100
AcDbEntity
  8
0
 62
7
100
AcDbPolyline
 90
2
 70
0
 10
65.890844
 20
-203.522289
 30
0.0
 10
65.890844
 20
-198.522299
 30
0.0
  0
SPLINE
  5
135
100
AcDbEntity
  8
0
 62
7
100
AcDbSpline
 70
0
 71
3
 72
13
 73
9
 74
7
 40
0.000000
 40
0.000000
 40
0.000000
 40
0.000000
 40
0.811092
 40
1.598202
 40
2.409378
 40
3.220525
 40
4.007675
 40
4.818822
 40
4.818822
 40
4.818822
 40
4.818822
 10
65.890844
 20
-203.522289
 30
0.0
 10
65.933527
 20
-203.795754
 30
0.0
 10
66.017630
 20
-204.334597
 30
0.0
 10
66.634849
 20
-204.927715
 30
0.0
 10
67.442253
 20
-205.147787
 30
0.0
 10
68.249746
 20
-204.927854
 30
0.0
 10
68.866919
 20
-204.334635
 30
0.0
 10
68.951024
 20
-203.795768
 30
0.0
 10
68.993708
 20
-203.522289
 30
0.0
 11
65.890844
 21
-203.522289
 31
0.0
 11
66.102680
 21
-204.305230
 31
0.0
 11
66.659279
 21
-204.861773
 31
0.0
 11
67.442276
 21
-205.073721
 31
0.0
 11
68.225273
 21
-204.861885
 31
0.0
 11
68.781872
 21
-204.305287
 31
0.0
 11
68.993708
 21
-203.522289
 31
0.0
  0
SPLINE
  5
136
100
AcDbEntity
  8
0
 62
7
100
AcDbSpline
 70
0
 71
3
 72
16
 73
12
 74
10
 40
0.000000
 40
0.000000
 40
0.000000
 40
0.000000
 40
0.541398
 40
1.075086
 40
1.616508
 40
2.157907
 40
2.691533
 40
3.232931
 40
3.774318
 40
4.307956
 40
4.849465
 40
4.849465
 40
4.849465
 40
4.849465
 10
68.993708
 20
-198.522299
 30
0.0
 10
68.975172
 20
-198.340914
 30
0.0
 10
68.938365
 20
-197.980727
 30
0.0
 10
68.652827
 20
-197.504703
 30
0.0
 10
68.234698
 20
-197.150806
 30
0.0
 10
67.716870
 20
-196.963146
 30
0.0
 10
67.167680
 20
-196.963142
 30
0.0
 10
66.649872
 20
-197.150812
 30
0.0
 10
66.231728
 20
-197.504637
 30
0.0
 10
65.946157
 20
-197.980661
 30
0.0
 10
65.909371
 20
-198.340874
 30
0.0
 10
65.890844
 20
-198.522299
 30
0.0
 11
68.993708
 21
-198.522299
 31
0.0
 11
68.899276
 21
-197.989200
 31
0.0
 11
68.632463
 21
-197.526996
 31
0.0
 11
68.217992
 21
-197.178639
 31
0.0
 11
67.709089
 21
-196.993897
 31
0.0
 11
67.175463
 21
-196.993897
 31
0.0
 11
66.666560
 21
-197.178639
 31
0.0
 11
66.252088
 21
-197.526939
 31
0.0
 11
65.985275
 21
-197.989088
 31
0.0
 11
65.890844
 21
-198.522299
 31
0.0
  0
LWPOLYLINE
  5
137
100
AcDbEntity
  8
0
 62
7
100
AcDbPolyline
 90
2
 70
0
 10
68.993708
 20
-203.522289
 30
0.0
 10
68.993708
 20
-198.522299
 30
0.0
  0
SPLINE
  5
138
100
AcDbEntity
  8
0
 62
7
100
AcDbSpline
 70
0
 71
3
 72
13
 73
9
 74
7
 40
0.000000
 40
0.000000
 40
0.000000
 40
0.000000
 40
0.811092
 40
1.598202
 40
2.409378
 40
3.220525
 40
4.007675
 40
4.818822
 40
4.818822
 40
4.818822
 40
4.818822
 10
228.007107
 20
-203.522289
 30
0.0
 10
228.049789
 20
-203.795754
 30
0.0
 10
228.133893
 20
-204.334597
 30
0.0
 10
228.751112
 20
-204.927715
 30
0.0
 10
229.558516
 20
-205.147787
 30
0.0
 10
230.366009
 20
-204.927854
 30
0.0
 10
230.983181
 20
-204.334635
 30
0.0
 10
231.067287
 20
-203.795768
 30
0.0
 10
231.109971
 20
-203.522289
 30
0.0
 11
228.007107
 21
-203.522289
 31
0.0
 11
228.218943
 21
-204.305230
 31
0.0
 11
228.775541
 21
-204.861773
 31
0.0
 11
229.558539
 21
-205.073721
 31
0.0
 11
230.341536
 21
-204.861885
 31
0.0
 11
230.898135
 21
-204.305287
 31
0.0
 11
231.109971
 21
-203.522289
 31
0.0
  0
LWPOLYLINE
  5
139
100
AcDbEntity
  8
0
 62
7
100
AcDbPolyline
 90
2
 70
0
 10
231.109968
 20
-203.522289
 30
0.0
 10
231.109968
 20
-198.522299
 30
0.0
  0
SPLINE
  5
13a
100
AcDbEntity
  8
0
 62
7
100
AcDbSpline
 70
0
 71
3
 72
16
 73
12
 74
10
 40
0.000000
 40
0.000000
 40
0.000000
 40
0.000000
 40
0.541398
 40
1.075086
 40
1.616508
 40
2.157907
 40
2.691533
 40
3.232931
 40
3.774318
 40
4.307956
 40
4.849465
 40
4.849465
 40
4.849465
 40
4.849465
 10
231.109971
 20
-198.522299
 30
0.0
 10
231.091435
 20
-198.340914
 30
0.0
 10
231.054628
 20
-197.980727
 30
0.0
 10
230.769090
 20
-197.504703
 30
0.0
 10
230.350961
 20
-197.150806
 30
0.0
 10
229.833133
 20
-196.963146
 30
0.0
 10
229.283943
 20
-196.963142
 30
0.0
 10
228.766135
 20
-197.150812
 30
0.0
 10
228.347991
 20
-197.504637
 30
0.0
 10
228.062420
 20
-197.980661
 30
0.0
 10
228.025634
 20
-198.340874
 30
0.0
 10
228.007107
 20
-198.522299
 30
0.0
 11
231.109971
 21
-198.522299
 31
0.0
 11
231.015539
 21
-197.989200
 31
0.0
 11
230.748726
 21
-197.526996
 31
0.0
 11
230.334255
 21
-197.178639
 31
0.0
 11
229.825351
 21
-196.993897
 31
0.0
 11
229.291726
 21
-196.993897
 31
0.0
 11
228.782823
 21
-197.178639
 31
0.0
 11
228.368351
 21
-197.526939
 31
0.0
 11
228.101538
 21
-197.989088
 31
0.0
 11
228.007107
 21
-198.522299
 31
0.0
  0
LWPOLYLINE
  5
13b
100
AcDbEntity
  8
0
 62
7
100
AcDbPolyline
 90
2
 70
0
 10
228.007101
 20
-203.522289
 30
0.0
 10
228.007101
 20
-198.522299
 30
0.0
  0
LWPOLYLINE
  5
13c
100
AcDbEntity
  8
0
 62
7
100
AcDbPolyline
 90
2
 70
0
 10
62.901772
 20
-222.751105
 30
0.0
 10
62.901772
 20
-223.011455
 30
0.0
  0
SPLINE
  5
13d
100
AcDbEntity
  8
0
 62
7
100
AcDbSpline
 70
0
 71
3
 72
10
 73
6
 74
4
 40
0.000000
 40
0.000000
 40
0.000000
 40
0.000000
 40
1.218934
 40
2.414760
 40
3.633764
 40
3.633764
 40
3.633764
 40
3.633764
 10
62.901772
 20
-223.011455
 30
0.0
 10
62.951387
 20
-223.418810
 30
0.0
 10
63.049678
 20
-224.225798
 30
0.0
 10
63.780366
 20
-225.271686
 30
0.0
 10
64.504315
 20
-225.641589
 30
0.0
 10
64.869764
 20
-225.828316
 30
0.0
 11
62.901772
 21
-223.011455
 31
0.0
 11
63.149300
 21
-224.204992
 31
0.0
 11
63.834159
 21
-225.185282
 31
0.0
 11
64.869764
 21
-225.828316
 31
0.0
  0
LWPOLYLINE
  5
13e
100
AcDbEntity
  8
0
 62
7
100
AcDbPolyline
 90
2
 70
0
 10
62.901772
 20
-222.751105
 30
0.0
 10
62.526867
 20
-193.766657
 30
0.0
  0
SPLINE
  5
13f
100
AcDbEntity
  8
0
 62
7
100
AcDbSpline
 70
0
 71
3
 72
13
 73
9
 74
7
 40
0.000000
 40
0.000000
 40
0.000000
 40
0.000000
 40
0.527851
 40
1.051259
 40
1.579183
 40
2.107114
 40
2.630506
 40
3.158232
 40
3.158232
 40
3.158232
 40
3.158232
 10
64.526610
 20
-191.740753
 30
0.0
 10
64.350137
 20
-191.754298
 30
0.0
 10
63.998676
 20
-191.781273
 30
0.0
 10
63.507534
 20
-191.994473
 30
0.0
 10
63.086020
 20
-192.318670
 30
0.0
 10
62.767247
 20
-192.744293
 30
0.0
 10
62.560373
 20
-193.238084
 30
0.0
 10
62.537898
 20
-193.589814
 30
0.0
 10
62.526614
 20
-193.766403
 30
0.0
 11
64.526610
 21
-191.740753
 31
0.0
 11
64.003370
 21
-191.810368
 31
0.0
 11
63.520431
 21
-192.012176
 31
0.0
 11
63.103194
 21
-192.335621
 31
0.0
 11
62.785111
 21
-192.756970
 31
0.0
 11
62.589512
 21
-193.242439
 31
0.0
 11
62.526614
 21
-193.766403
 31
0.0
  0
SPLINE
  5
140
100
AcDbEntity
  8
0
 62
7
100
AcDbSpline
 70
0
 71
3
 72
10
 73
6
 74
4
 40
0.000000
 40
0.000000
 40
0.000000
 40
0.000000
 40
2.445614
 40
4.837755
 40
7.278167
 40
7.278167
 40
7.278167
 40
7.278167
 10
68.205800
 20
-191.740753
 30
0.0
 10
68.843298
 20
-192.251909
 30
0.0
 10
70.104356
 20
-193.263044
 30
0.0
 10
71.591698
 20
-195.221516
 30
0.0
 10
72.225214
 20
-196.706740
 30
0.0
 10
72.545136
 20
-197.456769
 30
0.0
 11
68.205800
 21
-191.740753
 31
0.0
 11
70.048673
 21
-193.348498
 31
0.0
 11
71.495081
 21
-195.253818
 31
0.0
 11
72.545136
 21
-197.456769
 31
0.0
  0
SPLINE
  5
141
100
AcDbEntity
  8
0
 62
7
100
AcDbSpline
 70
0
 71
3
 72
10
 73
6
 74
4
 40
0.000000
 40
0.000000
 40
0.000000
 40
0.000000
 40
7.770745
 40
16.811219
 40
25.315956
 40
25.315956
 40
25.315956
 40
25.315956
 10
73.198170
 20
-222.751359
 30
0.0
 10
73.197797
 20
-220.161505
 30
0.0
 10
73.196990
 20
-214.558617
 30
0.0
 10
73.293836
 20
-206.112998
 30
0.0
 10
72.789741
 20
-200.282838
 30
0.0
 10
72.545390
 20
-197.456769
 30
0.0
 11
73.198170
 21
-222.751359
 31
0.0
 11
73.210964
 21
-214.980625
 31
0.0
 11
73.144228
 21
-205.940398
 31
0.0
 11
72.545390
 21
-197.456769
 31
0.0
  0
SPLINE
  5
142
100
AcDbEntity
  8
0
 62
7
100
AcDbSpline
 70
0
 71
3
 72
10
 73
6
 74
4
 40
0.000000
 40
0.000000
 40
0.000000
 40
0.000000
 40
10.592167
 40
21.216716
 40
31.777650
 40
31.777650
 40
31.777650
 40
31.777650
 10
73.198170
 20
-222.751359
 30
0.0
 10
73.395207
 20
-226.274406
 30
0.0
 10
73.789884
 20
-233.331270
 30
0.0
 10
74.587719
 20
-243.928086
 30
0.0
 10
76.378744
 20
-250.774153
 30
0.0
 10
77.271568
 20
-254.186908
 30
0.0
 11
73.198170
 21
-222.751359
 31
0.0
 11
73.823678
 21
-233.325041
 31
0.0
 11
74.905991
 21
-243.894320
 31
0.0
 11
77.271568
 21
-254.186908
 31
0.0
  0
SPLINE
  5
143
100
AcDbEntity
  8
0
 62
7
100
AcDbSpline
 70
0
 71
3
 72
10
 73
6
 74
4
 40
0.000000
 40
0.000000
 40
0.000000
 40
0.000000
 40
8.690579
 40
17.432472
 40
26.164522
 40
26.164522
 40
26.164522
 40
26.164522
 10
77.271568
 20
-254.186908
 30
0.0
 10
78.308819
 20
-256.896147
 30
0.0
 10
80.389446
 20
-262.330621
 30
0.0
 10
85.035419
 20
-269.795122
 30
0.0
 10
88.967511
 20
-274.101626
 30
0.0
 10
90.932450
 20
-276.253666
 30
0.0
 11
77.271568
 21
-254.186908
 31
0.0
 11
80.635535
 21
-262.200015
 31
0.0
 11
85.244722
 21
-269.628076
 31
0.0
 11
90.932450
 21
-276.253666
 31
0.0
  0
SPLINE
  5
144
100
AcDbEntity
  8
0
 62
7
100
AcDbSpline
 70
0
 71
3
 72
10
 73
6
 74
4
 40
0.000000
 40
0.000000
 40
0.000000
 40
0.000000
 40
7.338764
 40
14.671637
 40
22.006728
 40
22.006728
 40
22.006728
 40
22.006728
 10
90.932450
 20
-276.253666
 30
0.0
 10
92.733085
 20
-277.913102
 30
0.0
 10
96.332911
 20
-281.230642
 30
0.0
 10
102.416492
 20
-285.381062
 30
0.0
 10
106.744474
 20
-287.658882
 30
0.0
 10
108.908792
 20
-288.797964
 30
0.0
 11
90.932450
 21
-276.253666
 31
0.0
 11
96.448455
 21
-281.094238
 31
0.0
 11
102.484144
 21
-285.258549
 31
0.0
 11
108.908792
 21
-288.797964
 31
0.0
  0
SPLINE
  5
145
100
AcDbEntity
  8
0
 62
7
100
AcDbSpline
 70
0
 71
3
 72
10
 73
6
 74
4
 40
0.000000
 40
0.000000
 40
0.000000
 40
0.000000
 40
13.641766
 40
27.279023
 40
40.949864
 40
40.949864
 40
40.949864
 40
40.949864
 10
108.908792
 20
-288.797964
 30
0.0
 10
113.083787
 20
-290.615730
 30
0.0
 10
121.432396
 20
-294.250663
 30
0.0
 10
134.841190
 20
-297.311231
 30
0.0
 10
143.943519
 20
-297.745596
 30
0.0
 10
148.500280
 20
-297.963046
 30
0.0
 11
108.908792
 21
-288.797964
 31
0.0
 11
121.579761
 21
-293.852103
 31
0.0
 11
134.870207
 21
-296.908052
 31
0.0
 11
148.500280
 21
-297.963046
 31
0.0
  0
SPLINE
  5
146
100
AcDbEntity
  8
0
 62
7
100
AcDbSpline
 70
0
 71
3
 72
19
 73
15
 74
13
 40
0.000000
 40
0.000000
 40
0.000000
 40
0.000000
 40
12.184255
 40
24.423791
 40
36.529436
 40
45.463456
 40
54.473615
 40
63.486987
 40
72.729666
 40
81.967006
 40
91.218577
 40
101.144414
 40
111.031454
 40
120.937396
 40
120.937396
 40
120.937396
 40
120.937396
 10
223.802645
 20
-222.751359
 30
0.0
 10
223.587563
 20
-226.807157
 30
0.0
 10
223.156424
 20
-234.937155
 30
0.0
 10
221.809636
 20
-247.054756
 30
0.0
 10
218.840531
 20
-257.837600
 30
0.0
 10
214.120139
 20
-266.735082
 30
0.0
 10
208.643586
 20
-273.903977
 30
0.0
 10
202.067305
 20
-280.228933
 30
0.0
 10
194.545617
 20
-285.521856
 30
0.0
 10
186.331271
 20
-289.807461
 30
0.0
 10
177.502019
 20
-293.277708
 30
0.0
 10
168.193122
 20
-295.992677
 30
0.0
 10
158.414286
 20
-297.812667
 30
0.0
 10
151.807052
 20
-297.912718
 30
0.0
 10
148.500280
 20
-297.962792
 30
0.0
 11
223.802645
 21
-222.751359
 31
0.0
 11
223.040598
 21
-234.911760
 31
0.0
 11
221.482571
 21
-247.051728
 31
0.0
 11
218.084851
 21
-258.670770
 31
0.0
 11
213.927181
 21
-266.578392
 31
0.0
 11
208.472926
 21
-273.750148
 31
0.0
 11
201.978456
 21
-280.000166
 31
0.0
 11
194.439558
 21
-285.347327
 31
0.0
 11
186.268481
 21
-289.655684
 31
0.0
 11
177.668878
 21
-293.067196
 31
0.0
 11
168.137133
 21
-295.836323
 31
0.0
 11
158.396939
 21
-297.534021
 31
0.0
 11
148.500280
 21
-297.962792
 31
0.0
  0
SPLINE
  5
147
100
AcDbEntity
  8
0
 62
7
100
AcDbSpline
 70
0
 71
3
 72
10
 73
6
 74
4
 40
0.000000
 40
0.000000
 40
0.000000
 40
0.000000
 40
7.770745
 40
16.811219
 40
25.315956
 40
25.315956
 40
25.315956
 40
25.315956
 10
223.802645
 20
-222.751359
 30
0.0
 10
223.803018
 20
-220.161505
 30
0.0
 10
223.803825
 20
-214.558617
 30
0.0
 10
223.706979
 20
-206.112998
 30
0.0
 10
224.211073
 20
-200.282838
 30
0.0
 10
224.455425
 20
-197.456769
 30
0.0
 11
223.802645
 21
-222.751359
 31
0.0
 11
223.789850
 21
-214.980625
 31
0.0
 11
223.856587
 21
-205.940398
 31
0.0
 11
224.455425
 21
-197.456769
 31
0.0
  0
LWPOLYLINE
  5
148
100
AcDbEntity
  8
0
 62
7
100
AcDbPolyline
 90
2
 70
0
 10
64.526610
 20
-191.740753
 30
0.0
 10
68.205800
 20
-191.740753
 30
0.0
  0
SPLINE
  5
149
100
AcDbEntity
  8
0
 62
7
100
AcDbSpline
 70
0
 71
3
 72
10
 73
6
 74
4
 40
0.000000
 40
0.000000
 40
0.000000
 40
0.000000
 40
2.445529
 40
4.837704
 40
7.278140
 40
7.278140
 40
7.278140
 40
7.278140
 10
228.794761
 20
-191.740753
 30
0.0
 10
228.157309
 20
-192.251918
 30
0.0
 10
226.896312
 20
-193.263096
 30
0.0
 10
225.408916
 20
-195.221506
 30
0.0
 10
224.775364
 20
-196.706737
 30
0.0
 10
224.455425
 20
-197.456769
 30
0.0
 11
228.794761
 21
-191.740753
 31
0.0
 11
226.952000
 21
-193.348498
 31
0.0
 11
225.505536
 21
-195.253818
 31
0.0
 11
224.455425
 21
-197.456769
 31
0.0
  0
LWPOLYLINE
  5
14a
100
AcDbEntity
  8
0
 62
7
100
AcDbPolyline
 90
2
 70
0
 10
232.474202
 20
-191.740753
 30
0.0
 10
228.794761
 20
-191.740753
 30
0.0
  0
LWPOLYLINE
  5
14b
100
AcDbEntity
  8
0
 62
7
100
AcDbPolyline
 90
2
 70
0
 10
234.098784
 20
-222.751105
 30
0.0
 10
234.473944
 20
-193.766657
 30
0.0
  0
SPLINE
  5
14c
100
AcDbEntity
  8
0
 62
7
100
AcDbSpline
 70
0
 71
3
 72
13
 73
9
 74
7
 40
0.000000
 40
0.000000
 40
0.000000
 40
0.000000
 40
0.527894
 40
1.051286
 40
1.579082
 40
2.107007
 40
2.630415
 40
3.158265
 40
3.158265
 40
3.158265
 40
3.158265
 10
234.473947
 20
-193.766657
 30
0.0
 10
234.462666
 20
-193.590012
 30
0.0
 10
234.440202
 20
-193.238228
 30
0.0
 10
234.233363
 20
-192.744395
 30
0.0
 10
233.914477
 20
-192.318916
 30
0.0
 10
233.493034
 20
-191.994722
 30
0.0
 10
233.001882
 20
-191.781528
 30
0.0
 10
232.650423
 20
-191.754552
 30
0.0
 10
232.473951
 20
-191.741007
 30
0.0
 11
234.473947
 21
-193.766657
 31
0.0
 11
234.411049
 21
-193.242524
 31
0.0
 11
234.215450
 21
-192.757054
 31
0.0
 11
233.897367
 21
-192.335875
 31
0.0
 11
233.480129
 21
-192.012430
 31
0.0
 11
232.997191
 21
-191.810622
 31
0.0
 11
232.473951
 21
-191.741007
 31
0.0
  0
SPLINE
  5
14d
100
AcDbEntity
  8
0
 62
7
100
AcDbSpline
 70
0
 71
3
 72
10
 73
6
 74
4
 40
0.000000
 40
0.000000
 40
0.000000
 40
0.000000
 40
1.058795
 40
2.102082
 40
3.160845
 40
3.160845
 40
3.160845
 40
3.160845
 10
232.567677
 20
-225.627148
 30
0.0
 10
232.857621
 20
-225.421425
 30
0.0
 10
233.433262
 20
-225.012995
 30
0.0
 10
233.987130
 20
-224.066886
 30
0.0
 10
234.061387
 20
-223.364988
 30
0.0
 10
234.098789
 20
-223.011455
 30
0.0
 11
232.567677
 21
-225.627148
 31
0.0
 11
233.384917
 21
-224.953972
 31
0.0
 11
233.911976
 21
-224.053608
 31
0.0
 11
234.098789
 21
-223.011455
 31
0.0
  0
SPLINE
  5
14e
100
AcDbEntity
  8
0
 62
7
100
AcDbSpline
 70
0
 71
3
 72
10
 73
6
 74
4
 40
0.000000
 40
0.000000
 40
0.000000
 40
0.000000
 40
1.726099
 40
3.427993
 40
5.154107
 40
5.154107
 40
5.154107
 40
5.154107
 10
232.567677
 20
-225.627148
 30
0.0
 10
232.094389
 20
-225.961332
 30
0.0
 10
231.154451
 20
-226.625013
 30
0.0
 10
230.235116
 20
-228.154725
 30
0.0
 10
230.090222
 20
-229.296206
 30
0.0
 10
230.017263
 20
-229.870980
 30
0.0
 11
232.567677
 21
-225.627148
 31
0.0
 11
231.231100
 21
-226.719385
 31
0.0
 11
230.354433
 21
-228.178117
 31
0.0
 11
230.017263
 21
-229.870980
 31
0.0
  0
LWPOLYLINE
  5
14f
100
AcDbEntity
  8
0
 62
7
100
AcDbPolyline
 90
2
 70
0
 10
234.098784
 20
-222.751105
 30
0.0
 10
234.098784
 20
-223.011455
 30
0.0
  0
SPLINE
  5
150
100
AcDbEntity
  8
0
 62
7
100
AcDbSpline
 70
0
 71
3
 72
10
 73
6
 74
4
 40
0.000000
 40
0.000000
 40
0.000000
 40
0.000000
 40
0.935091
 40
1.869562
 40
2.803361
 40
2.803361
 40
2.803361
 40
2.803361
 10
229.943349
 20
-232.673616
 30
0.0
 10
229.952373
 20
-232.362049
 30
0.0
 10
229.970416
 20
-231.739123
 30
0.0
 10
229.995054
 20
-230.804993
 30
0.0
 10
230.009862
 20
-230.182412
 30
0.0
 10
230.017263
 20
-229.871234
 30
0.0
 11
229.943349
 21
-232.673616
 31
0.0
 11
229.970019
 21
-231.738905
 31
0.0
 11
229.994657
 21
-230.804759
 31
0.0
 11
230.017263
 21
-229.871234
 31
0.0
  0
LWPOLYLINE
  5
151
100
AcDbEntity
  8
0
 62
7
100
AcDbPolyline
 90
2
 70
0
 10
232.535419
 20
-232.021090
 30
0.0
 10
229.943354
 20
-232.673613
 30
0.0
  0
SPLINE
  5
152
100
AcDbEntity
  8
0
 62
7
100
AcDbSpline
 70
0
 71
3
 72
10
 73
6
 74
4
 40
0.000000
 40
0.000000
 40
0.000000
 40
0.000000
 40
0.187979
 40
0.375155
 40
0.563182
 40
0.563182
 40
0.563182
 40
0.563182
 10
233.091679
 20
-232.040902
 30
0.0
 10
233.031017
 20
-232.024729
 30
0.0
 10
232.909952
 20
-231.992453
 30
0.0
 10
232.720164
 20
-231.985702
 30
0.0
 10
232.597094
 20
-232.009276
 30
0.0
 10
232.535419
 20
-232.021090
 30
0.0
 11
233.091679
 21
-232.040902
 31
0.0
 11
232.908347
 21
-231.999358
 31
0.0
 11
232.721290
 21
-231.992698
 31
0.0
 11
232.535419
 21
-232.021090
 31
0.0
  0
LWPOLYLINE
  5
153
100
AcDbEntity
  8
0
 62
7
100
AcDbPolyline
 90
2
 70
0
 10
233.779760
 20
-232.266959
 30
0.0
 10
233.091676
 20
-232.040902
 30
0.0
  0
SPLINE
  5
154
100
AcDbEntity
  8
0
 62
7
100
AcDbSpline
 70
0
 71
3
 72
10
 73
6
 74
4
 40
0.000000
 40
0.000000
 40
0.000000
 40
0.000000
 40
0.430415
 40
0.851791
 40
1.282338
 40
1.282338
 40
1.282338
 40
1.282338
 10
234.467089
 20
-233.255784
 30
0.0
 10
234.454099
 20
-233.111264
 30
0.0
 10
234.428392
 20
-232.825260
 30
0.0
 10
234.169845
 20
-232.453375
 30
0.0
 10
233.910721
 20
-232.329544
 30
0.0
 10
233.779765
 20
-232.266962
 30
0.0
 11
234.467089
 21
-233.255784
 31
0.0
 11
234.390832
 21
-232.832177
 31
0.0
 11
234.150322
 21
-232.486182
 31
0.0
 11
233.779765
 21
-232.266962
 31
0.0
  0
LWPOLYLINE
  5
155
100
AcDbEntity
  8
0
 62
7
100
AcDbPolyline
 90
2
 70
0
 10
234.349995
 20
-236.271020
 30
0.0
 10
234.467084
 20
-233.255786
 30
0.0
  0
SPLINE
  5
156
100
AcDbEntity
  8
0
 62
7
100
AcDbSpline
 70
0
 71
3
 72
10
 73
6
 74
4
 40
0.000000
 40
0.000000
 40
0.000000
 40
0.000000
 40
0.429890
 40
0.850707
 40
1.280498
 40
1.280498
 40
1.280498
 40
1.280498
 10
233.590027
 20
-237.203198
 30
0.0
 10
233.725146
 20
-237.150815
 30
0.0
 10
233.992534
 20
-237.047154
 30
0.0
 10
234.278266
 20
-236.696643
 30
0.0
 10
234.325917
 20
-236.413887
 30
0.0
 10
234.349995
 20
-236.271018
 30
0.0
 11
233.590027
 21
-237.203198
 31
0.0
 11
233.975580
 21
-237.013055
 31
0.0
 11
234.241471
 21
-236.686881
 31
0.0
 11
234.349995
 21
-236.271018
 31
0.0
  0
LWPOLYLINE
  5
157
100
AcDbEntity
  8
0
 62
7
100
AcDbPolyline
 90
2
 70
0
 10
232.885426
 20
-237.376682
 30
0.0
 10
233.590029
 20
-237.203198
 30
0.0
  0
SPLINE
  5
158
100
AcDbEntity
  8
0
 62
7
100
AcDbSpline
 70
0
 71
3
 72
10
 73
6
 74
4
 40
0.000000
 40
0.000000
 40
0.000000
 40
0.000000
 40
0.188518
 40
0.376302
 40
0.564944
 40
0.564944
 40
0.564944
 40
0.564944
 10
232.327647
 20
-237.353566
 30
0.0
 10
232.388364
 20
-237.370228
 30
0.0
 10
232.509561
 20
-237.403487
 30
0.0
 10
232.699928
 20
-237.411412
 30
0.0
 10
232.823502
 20
-237.388275
 30
0.0
 10
232.885431
 20
-237.376680
 30
0.0
 11
232.327647
 21
-237.353566
 31
0.0
 11
232.511204
 21
-237.396529
 31
0.0
 11
232.698825
 21
-237.404328
 31
0.0
 11
232.885431
 21
-237.376680
 31
0.0
  0
LWPOLYLINE
  5
159
100
AcDbEntity
  8
0
 62
7
100
AcDbPolyline
 90
2
 70
0
 10
229.809745
 20
-236.507489
 30
0.0
 10
232.327644
 20
-237.353563
 30
0.0
  0
SPLINE
  5
15a
100
AcDbEntity
  8
0
 62
7
100
AcDbSpline
 70
0
 71
3
 72
10
 73
6
 74
4
 40
0.000000
 40
0.000000
 40
0.000000
 40
0.000000
 40
5.390677
 40
10.780732
 40
16.164981
 40
16.164981
 40
16.164981
 40
16.164981
 10
228.649473
 20
-252.627602
 30
0.0
 10
228.830870
 20
-250.839798
 30
0.0
 10
229.193643
 20
-247.264398
 30
0.0
 10
229.564729
 20
-241.887884
 30
0.0
 10
229.728271
 20
-238.300142
 30
0.0
 10
229.809999
 20
-236.507238
 30
0.0
 11
228.649473
 21
-252.627602
 31
0.0
 11
229.164839
 21
-247.261616
 31
0.0
 11
229.543891
 21
-241.884907
 31
0.0
 11
229.809999
 21
-236.507238
 31
0.0
  0
LWPOLYLINE
  5
15b
100
AcDbEntity
  8
0
 62
7
100
AcDbPolyline
 90
2
 70
0
 10
231.293872
 20
-252.199863
 30
0.0
 10
228.649467
 20
-252.627602
 30
0.0
  0
SPLINE
  5
15c
100
AcDbEntity
  8
0
 62
7
100
AcDbSpline
 70
0
 71
3
 72
10
 73
6
 74
4
 40
0.000000
 40
0.000000
 40
0.000000
 40
0.000000
 40
0.187964
 40
0.375133
 40
0.563196
 40
0.563196
 40
0.563196
 40
0.563196
 10
231.846063
 20
-252.267176
 30
0.0
 10
231.787043
 20
-252.245783
 30
0.0
 10
231.669253
 20
-252.203087
 30
0.0
 10
231.480722
 20
-252.180063
 30
0.0
 10
231.356081
 20
-252.193085
 30
0.0
 10
231.293613
 20
-252.199612
 30
0.0
 11
231.846063
 21
-252.267176
 31
0.0
 11
231.667049
 21
-252.209866
 31
0.0
 11
231.481262
 21
-252.187156
 31
0.0
 11
231.293613
 21
-252.199612
 31
0.0
  0
LWPOLYLINE
  5
15d
100
AcDbEntity
  8
0
 62
7
100
AcDbPolyline
 90
2
 70
0
 10
232.512561
 20
-252.551656
 30
0.0
 10
231.846060
 20
-252.267178
 30
0.0
  0
SPLINE
  5
15e
100
AcDbEntity
  8
0
 62
7
100
AcDbSpline
 70
0
 71
3
 72
10
 73
6
 74
4
 40
0.000000
 40
0.000000
 40
0.000000
 40
0.000000
 40
0.430462
 40
0.851770
 40
1.282149
 40
1.282149
 40
1.282149
 40
1.282149
 10
233.111999
 20
-253.596104
 30
0.0
 10
233.111511
 20
-253.450988
 30
0.0
 10
233.110547
 20
-253.163842
 30
0.0
 10
232.885066
 20
-252.771091
 30
0.0
 10
232.637606
 20
-252.625487
 30
0.0
 10
232.512559
 20
-252.551910
 30
0.0
 11
233.111999
 21
-253.596104
 31
0.0
 11
233.072525
 21
-253.167455
 31
0.0
 11
232.862759
 21
-252.802081
 31
0.0
 11
232.512559
 21
-252.551910
 31
0.0
  0
LWPOLYLINE
  5
15f
100
AcDbEntity
  8
0
 62
7
100
AcDbPolyline
 90
2
 70
0
 10
232.736076
 20
-256.590002
 30
0.0
 10
233.112004
 20
-253.596101
 30
0.0
  0
SPLINE
  5
160
100
AcDbEntity
  8
0
 62
7
100
AcDbSpline
 70
0
 71
3
 72
10
 73
6
 74
4
 40
0.000000
 40
0.000000
 40
0.000000
 40
0.000000
 40
0.429908
 40
0.850712
 40
1.280553
 40
1.280553
 40
1.280553
 40
1.280553
 10
231.898641
 20
-257.453348
 30
0.0
 10
232.037772
 20
-257.412784
 30
0.0
 10
232.313089
 20
-257.332516
 30
0.0
 10
232.627942
 20
-257.007893
 30
0.0
 10
232.699779
 20
-256.730282
 30
0.0
 10
232.736079
 20
-256.590002
 30
0.0
 11
231.898641
 21
-257.453348
 31
0.0
 11
232.299142
 21
-257.297081
 31
0.0
 11
232.592117
 21
-256.995019
 31
0.0
 11
232.736079
 21
-256.590002
 31
0.0
  0
LWPOLYLINE
  5
161
100
AcDbEntity
  8
0
 62
7
100
AcDbPolyline
 90
2
 70
0
 10
231.181604
 20
-257.565613
 30
0.0
 10
231.898646
 20
-257.453348
 30
0.0
  0
SPLINE
  5
162
100
AcDbEntity
  8
0
 62
7
100
AcDbSpline
 70
0
 71
3
 72
10
 73
6
 74
4
 40
0.000000
 40
0.000000
 40
0.000000
 40
0.000000
 40
0.188665
 40
0.376423
 40
0.564914
 40
0.564914
 40
0.564914
 40
0.564914
 10
230.627879
 20
-257.494750
 30
0.0
 10
230.686993
 20
-257.516563
 30
0.0
 10
230.804936
 20
-257.560085
 30
0.0
 10
230.993894
 20
-257.584359
 30
0.0
 10
231.118949
 20
-257.572041
 30
0.0
 10
231.181599
 20
-257.565870
 30
0.0
 11
230.627879
 21
-257.494750
 31
0.0
 11
230.807221
 21
-257.553320
 31
0.0
 11
230.993450
 21
-257.577234
 31
0.0
 11
231.181599
 21
-257.565870
 31
0.0
  0
LWPOLYLINE
  5
163
100
AcDbEntity
  8
0
 62
7
100
AcDbPolyline
 90
2
 70
0
 10
228.186933
 20
-256.432778
 30
0.0
 10
230.627876
 20
-257.494747
 30
0.0
  0
SPLINE
  5
164
100
AcDbEntity
  8
0
 62
7
100
AcDbSpline
 70
0
 71
3
 72
10
 73
6
 74
4
 40
0.000000
 40
0.000000
 40
0.000000
 40
0.000000
 40
5.388185
 40
10.776198
 40
16.167491
 40
16.167491
 40
16.167491
 40
16.167491
 10
225.151893
 20
-272.303966
 30
0.0
 10
225.576439
 20
-270.558572
 30
0.0
 10
226.425518
 20
-267.067840
 30
0.0
 10
227.422042
 20
-261.768663
 30
0.0
 10
227.932091
 20
-258.211765
 30
0.0
 10
228.187193
 20
-256.432776
 30
0.0
 11
225.151893
 21
-272.303966
 31
0.0
 11
226.379315
 21
-267.057445
 31
0.0
 11
227.383273
 21
-261.763794
 31
0.0
 11
228.187193
 21
-256.432776
 31
0.0
  0
LWPOLYLINE
  5
165
100
AcDbEntity
  8
0
 62
7
100
AcDbPolyline
 90
2
 70
0
 10
227.836419
 20
-272.272475
 30
0.0
 10
225.151895
 20
-272.303963
 30
0.0
  0
SPLINE
  5
166
100
AcDbEntity
  8
0
 62
7
100
AcDbSpline
 70
0
 71
3
 72
10
 73
6
 74
4
 40
0.000000
 40
0.000000
 40
0.000000
 40
0.000000
 40
0.187989
 40
0.375173
 40
0.563025
 40
0.563025
 40
0.563025
 40
0.563025
 10
228.372867
 20
-272.421060
 30
0.0
 10
228.317652
 20
-272.391172
 30
0.0
 10
228.207460
 20
-272.331524
 30
0.0
 10
228.024481
 20
-272.280819
 30
0.0
 10
227.899350
 20
-272.275256
 30
0.0
 10
227.836673
 20
-272.272470
 30
0.0
 11
228.372867
 21
-272.421060
 31
0.0
 11
228.204276
 21
-272.337889
 31
0.0
 11
228.023889
 21
-272.287907
 31
0.0
 11
227.836673
 21
-272.272470
 31
0.0
  0
LWPOLYLINE
  5
167
100
AcDbEntity
  8
0
 62
7
100
AcDbPolyline
 90
2
 70
0
 10
228.989576
 20
-272.801039
 30
0.0
 10
228.372872
 20
-272.421055
 30
0.0
  0
SPLINE
  5
168
100
AcDbEntity
  8
0
 62
7
100
AcDbSpline
 70
0
 71
3
 72
10
 73
6
 74
4
 40
0.000000
 40
0.000000
 40
0.000000
 40
0.000000
 40
0.430464
 40
0.851864
 40
1.282315
 40
1.282315
 40
1.282315
 40
1.282315
 10
229.427729
 20
-273.922708
 30
0.0
 10
229.448743
 20
-273.779121
 30
0.0
 10
229.490330
 20
-273.494970
 30
0.0
 10
229.325525
 20
-273.073090
 30
0.0
 10
229.102351
 20
-272.892366
 30
0.0
 10
228.989579
 20
-272.801044
 30
0.0
 11
229.427729
 21
-273.922708
 31
0.0
 11
229.452197
 21
-273.492940
 31
0.0
 11
229.298866
 21
-273.100425
 31
0.0
 11
228.989579
 21
-272.801044
 31
0.0
  0
LWPOLYLINE
  5
169
100
AcDbEntity
  8
0
 62
7
100
AcDbPolyline
 90
2
 70
0
 10
228.612383
 20
-276.827706
 30
0.0
 10
229.427726
 20
-273.922705
 30
0.0
  0
SPLINE
  5
16a
100
AcDbEntity
  8
0
 62
7
100
AcDbSpline
 70
0
 71
3
 72
10
 73
6
 74
4
 40
0.000000
 40
0.000000
 40
0.000000
 40
0.000000
 40
0.429895
 40
0.850690
 40
1.280572
 40
1.280572
 40
1.280572
 40
1.280572
 10
227.656333
 20
-277.557448
 30
0.0
 10
227.799935
 20
-277.537961
 30
0.0
 10
228.084099
 20
-277.499400
 30
0.0
 10
228.443634
 20
-277.225049
 30
0.0
 10
228.555738
 20
-276.961093
 30
0.0
 10
228.612389
 20
-276.827706
 30
0.0
 11
227.656333
 21
-277.557448
 31
0.0
 11
228.075564
 21
-277.462292
 31
0.0
 11
228.410073
 21
-277.207003
 31
0.0
 11
228.612389
 21
-276.827706
 31
0.0
  0
LWPOLYLINE
  5
16b
100
AcDbEntity
  8
0
 62
7
100
AcDbPolyline
 90
2
 70
0
 10
226.930652
 20
-277.562274
 30
0.0
 10
227.656338
 20
-277.557448
 30
0.0
  0
SPLINE
  5
16c
100
AcDbEntity
  8
0
 62
7
100
AcDbSpline
 70
0
 71
3
 72
10
 73
6
 74
4
 40
0.000000
 40
0.000000
 40
0.000000
 40
0.000000
 40
0.188584
 40
0.376346
 40
0.565003
 40
0.565003
 40
0.565003
 40
0.565003
 10
226.393445
 20
-277.410128
 30
0.0
 10
226.448655
 20
-277.440437
 30
0.0
 10
226.558836
 20
-277.500925
 30
0.0
 10
226.742160
 20
-277.552884
 30
0.0
 10
226.867724
 20
-277.559139
 30
0.0
 10
226.930655
 20
-277.562274
 30
0.0
 11
226.393445
 21
-277.410128
 31
0.0
 11
226.562072
 21
-277.494559
 31
0.0
 11
226.742723
 21
-277.545745
 31
0.0
 11
226.930655
 21
-277.562274
 31
0.0
  0
LWPOLYLINE
  5
16d
100
AcDbEntity
  8
0
 62
7
100
AcDbPolyline
 90
2
 70
0
 10
224.131826
 20
-275.995089
 30
0.0
 10
226.393445
 20
-277.410133
 30
0.0
  0
SPLINE
  5
16e
100
AcDbEntity
  8
0
 62
7
100
AcDbSpline
 70
0
 71
3
 72
13
 73
9
 74
7
 40
0.000000
 40
0.000000
 40
0.000000
 40
0.000000
 40
3.988892
 40
7.981120
 40
11.969965
 40
13.371859
 40
14.772409
 40
16.171916
 40
16.171916
 40
16.171916
 40
16.171916
 10
218.274843
 20
-291.046880
 30
0.0
 10
218.855255
 20
-289.850294
 30
0.0
 10
220.016566
 20
-287.456121
 30
0.0
 10
221.526911
 20
-283.760511
 30
0.0
 10
222.593889
 20
-280.819776
 30
0.0
 10
223.306378
 20
-278.670991
 30
0.0
 10
223.730346
 20
-277.335983
 30
0.0
 10
223.997865
 20
-276.441776
 30
0.0
 10
224.131575
 20
-275.994840
 30
0.0
 11
218.274843
 21
-291.046880
 31
0.0
 11
219.977546
 21
-287.439656
 31
0.0
 11
221.502449
 21
-283.750137
 31
0.0
 11
222.862083
 21
-280.000166
 31
0.0
 11
223.303704
 21
-278.669648
 31
0.0
 11
223.726699
 21
-277.334502
 31
0.0
 11
224.131575
 21
-275.994840
 31
0.0
  0
LWPOLYLINE
  5
16f
100
AcDbEntity
  8
0
 62
7
100
AcDbPolyline
 90
2
 70
0
 10
220.908817
 20
-291.616089
 30
0.0
 10
218.274845
 20
-291.046882
 30
0.0
  0
SPLINE
  5
170
100
AcDbEntity
  8
0
 62
7
100
AcDbSpline
 70
0
 71
3
 72
10
 73
6
 74
4
 40
0.000000
 40
0.000000
 40
0.000000
 40
0.000000
 40
0.187933
 40
0.375128
 40
0.563127
 40
0.563127
 40
0.563127
 40
0.563127
 10
221.398535
 20
-291.880254
 30
0.0
 10
221.351366
 20
-291.838845
 30
0.0
 10
221.257214
 20
-291.756190
 30
0.0
 10
221.090105
 20
-291.665993
 30
0.0
 10
220.969336
 20
-291.632581
 30
0.0
 10
220.908823
 20
-291.615840
 30
0.0
 11
221.398535
 21
-291.880254
 31
0.0
 11
221.252720
 21
-291.761692
 31
0.0
 11
221.087996
 21
-291.672764
 31
0.0
 11
220.908823
 21
-291.615840
 31
0.0
  0
LWPOLYLINE
  5
171
100
AcDbEntity
  8
0
 62
7
100
AcDbPolyline
 90
2
 70
0
 10
221.915168
 20
-292.387997
 30
0.0
 10
221.398537
 20
-291.880259
 30
0.0
  0
SPLINE
  5
172
100
AcDbEntity
  8
0
 62
7
100
AcDbSpline
 70
0
 71
3
 72
10
 73
6
 74
4
 40
0.000000
 40
0.000000
 40
0.000000
 40
0.000000
 40
0.430434
 40
0.851796
 40
1.282213
 40
1.282213
 40
1.282213
 40
1.282213
 10
222.092717
 20
-293.579006
 30
0.0
 10
222.145121
 20
-293.443695
 30
0.0
 10
222.248825
 20
-293.175926
 30
0.0
 10
222.182074
 20
-292.728001
 30
0.0
 10
222.004767
 20
-292.502134
 30
0.0
 10
221.915171
 20
-292.388000
 30
0.0
 11
222.092717
 21
-293.579006
 31
0.0
 11
222.212125
 21
-293.165466
 31
0.0
 11
222.150008
 21
-292.748708
 31
0.0
 11
221.915171
 21
-292.388000
 31
0.0
  0
LWPOLYLINE
  5
173
100
AcDbEntity
  8
0
 62
7
100
AcDbPolyline
 90
2
 70
0
 10
220.651010
 20
-296.229747
 30
0.0
 10
222.092722
 20
-293.579006
 30
0.0
  0
SPLINE
  5
174
100
AcDbEntity
  8
0
 62
7
100
AcDbSpline
 70
0
 71
3
 72
10
 73
6
 74
4
 40
0.000000
 40
0.000000
 40
0.000000
 40
0.000000
 40
0.429834
 40
0.850668
 40
1.280538
 40
1.280538
 40
1.280538
 40
1.280538
 10
219.556273
 20
-296.728352
 30
0.0
 10
219.700588
 20
-296.741316
 30
0.0
 10
219.986197
 20
-296.766973
 30
0.0
 10
220.397783
 20
-296.579562
 30
0.0
 10
220.565838
 20
-296.347177
 30
0.0
 10
220.650759
 20
-296.229750
 30
0.0
 11
219.556273
 21
-296.728352
 31
0.0
 11
219.986106
 21
-296.728907
 31
0.0
 11
220.369091
 21
-296.554484
 31
0.0
 11
220.650759
 21
-296.229750
 31
0.0
  0
LWPOLYLINE
  5
175
100
AcDbEntity
  8
0
 62
7
100
AcDbPolyline
 90
2
 70
0
 10
218.847872
 20
-296.571631
 30
0.0
 10
219.556267
 20
-296.728347
 30
0.0
  0
SPLINE
  5
176
100
AcDbEntity
  8
0
 62
7
100
AcDbSpline
 70
0
 71
3
 72
10
 73
6
 74
4
 40
0.000000
 40
0.000000
 40
0.000000
 40
0.000000
 40
0.188664
 40
0.376385
 40
0.564933
 40
0.564933
 40
0.564933
 40
0.564933
 10
218.358155
 20
-296.303664
 30
0.0
 10
218.405224
 20
-296.345554
 30
0.0
 10
218.499127
 20
-296.429125
 30
0.0
 10
218.666245
 20
-296.520636
 30
0.0
 10
218.787237
 20
-296.554610
 30
0.0
 10
218.847867
 20
-296.571634
 30
0.0
 11
218.358155
 21
-296.303664
 31
0.0
 11
218.503744
 21
-296.423655
 31
0.0
 11
218.668411
 21
-296.513788
 31
0.0
 11
218.847867
 21
-296.571634
 31
0.0
  0
LWPOLYLINE
  5
177
100
AcDbEntity
  8
0
 62
7
100
AcDbPolyline
 90
2
 70
0
 10
216.461026
 20
-294.413139
 30
0.0
 10
218.358152
 20
-296.303666
 30
0.0
  0
SPLINE
  5
178
100
AcDbEntity
  8
0
 62
7
100
AcDbSpline
 70
0
 71
3
 72
13
 73
9
 74
7
 40
0.000000
 40
0.000000
 40
0.000000
 40
0.000000
 40
2.176996
 40
4.351667
 40
6.523777
 40
9.740671
 40
12.956784
 40
16.175785
 40
16.175785
 40
16.175785
 40
16.175785
 10
206.603034
 20
-307.171562
 30
0.0
 10
207.118963
 20
-306.661128
 30
0.0
 10
208.150268
 20
-305.640807
 30
0.0
 10
209.619237
 20
-304.036251
 30
0.0
 10
211.252824
 20
-302.115104
 30
0.0
 10
212.996819
 20
-299.835926
 30
0.0
 10
214.817401
 20
-297.180588
 30
0.0
 10
215.912989
 20
-295.335900
 30
0.0
 10
216.461029
 20
-294.413142
 30
0.0
 11
206.603034
 21
-307.171562
 31
0.0
 11
208.137947
 21
-305.627750
 31
0.0
 11
209.609811
 21
-304.026873
 31
0.0
 11
211.015522
 21
-302.370962
 31
0.0
 11
212.974380
 21
-299.819240
 31
0.0
 11
214.787328
 21
-297.162814
 31
0.0
 11
216.461029
 21
-294.413142
 31
0.0
  0
LWPOLYLINE
  5
179
100
AcDbEntity
  8
0
 62
7
100
AcDbPolyline
 90
2
 70
0
 10
208.899702
 20
-308.593967
 30
0.0
 10
206.603037
 20
-307.171567
 30
0.0
  0
SPLINE
  5
17a
100
AcDbEntity
  8
0
 62
7
100
AcDbSpline
 70
0
 71
3
 72
10
 73
6
 74
4
 40
0.000000
 40
0.000000
 40
0.000000
 40
0.000000
 40
0.187992
 40
0.375132
 40
0.563023
 40
0.563023
 40
0.563023
 40
0.563023
 10
209.272574
 20
-309.006966
 30
0.0
 10
209.241978
 20
-308.952141
 30
0.0
 10
209.180924
 20
-308.842739
 30
0.0
 10
209.053709
 20
-308.701795
 30
0.0
 10
208.951107
 20
-308.629954
 30
0.0
 10
208.899702
 20
-308.593962
 30
0.0
 11
209.272574
 21
-309.006966
 31
0.0
 11
209.174832
 21
-308.846381
 31
0.0
 11
209.049431
 21
-308.707472
 31
0.0
 11
208.899702
 21
-308.593962
 31
0.0
  0
LWPOLYLINE
  5
17b
100
AcDbEntity
  8
0
 62
7
100
AcDbPolyline
 90
2
 70
0
 10
209.589310
 20
-309.658471
 30
0.0
 10
209.272580
 20
-309.006963
 30
0.0
  0
SPLINE
  5
17c
100
AcDbEntity
  8
0
 62
7
100
AcDbSpline
 70
0
 71
3
 72
10
 73
6
 74
4
 40
0.000000
 40
0.000000
 40
0.000000
 40
0.000000
 40
0.430433
 40
0.851856
 40
1.282230
 40
1.282230
 40
1.282230
 40
1.282230
 10
209.357410
 20
-310.840084
 30
0.0
 10
209.452142
 20
-310.730172
 30
0.0
 10
209.639623
 20
-310.512649
 30
0.0
 10
209.726888
 20
-310.068242
 30
0.0
 10
209.635491
 20
-309.796018
 30
0.0
 10
209.589312
 20
-309.658476
 30
0.0
 11
209.357410
 21
-310.840084
 31
0.0
 11
209.608541
 21
-310.490505
 31
0.0
 11
209.689718
 21
-310.076974
 31
0.0
 11
209.589312
 21
-309.658476
 31
0.0
  0
LWPOLYLINE
  5
17d
100
AcDbEntity
  8
0
 62
7
100
AcDbPolyline
 90
2
 70
0
 10
207.110775
 20
-312.854555
 30
0.0
 10
209.357410
 20
-310.840081
 30
0.0
  0
SPLINE
  5
17e
100
AcDbEntity
  8
0
 62
7
100
AcDbSpline
 70
0
 71
3
 72
10
 73
6
 74
4
 40
0.000000
 40
0.000000
 40
0.000000
 40
0.000000
 40
0.429806
 40
0.850641
 40
1.280610
 40
1.280610
 40
1.280610
 40
1.280610
 10
205.912662
 20
-312.957682
 30
0.0
 10
206.044287
 20
-313.018244
 30
0.0
 10
206.304790
 20
-313.138105
 30
0.0
 10
206.755387
 20
-313.099363
 30
0.0
 10
206.991640
 20
-312.936741
 30
0.0
 10
207.111034
 20
-312.854558
 30
0.0
 11
205.912662
 21
-312.957682
 31
0.0
 11
206.317444
 21
-313.102198
 31
0.0
 11
206.736733
 21
-313.066149
 31
0.0
 11
207.111034
 21
-312.854558
 31
0.0
  0
LWPOLYLINE
  5
17f
100
AcDbEntity
  8
0
 62
7
100
AcDbPolyline
 90
2
 70
0
 10
205.297480
 20
-312.572366
 30
0.0
 10
205.912660
 20
-312.957682
 30
0.0
  0
SPLINE
  5
180
100
AcDbEntity
  8
0
 62
7
100
AcDbSpline
 70
0
 71
3
 72
10
 73
6
 74
4
 40
0.000000
 40
0.000000
 40
0.000000
 40
0.000000
 40
0.188676
 40
0.376503
 40
0.565082
 40
0.565082
 40
0.565082
 40
0.565082
 10
204.925872
 20
-312.155804
 30
0.0
 10
204.956180
 20
-312.211052
 30
0.0
 10
205.016660
 20
-312.321301
 30
0.0
 10
205.143520
 20
-312.463517
 30
0.0
 10
205.246088
 20
-312.536202
 30
0.0
 10
205.297474
 20
-312.572618
 30
0.0
 11
204.925872
 21
-312.155804
 31
0.0
 11
205.022835
 21
-312.317658
 31
0.0
 11
205.147850
 21
-312.457838
 31
0.0
 11
205.297474
 21
-312.572618
 31
0.0
  0
LWPOLYLINE
  5
181
100
AcDbEntity
  8
0
 62
7
100
AcDbPolyline
 90
2
 70
0
 10
203.769410
 20
-309.734163
 30
0.0
 10
204.925867
 20
-312.155809
 30
0.0
  0
SPLINE
  5
182
100
AcDbEntity
  8
0
 62
7
100
AcDbSpline
 70
0
 71
3
 72
13
 73
9
 74
7
 40
0.000000
 40
0.000000
 40
0.000000
 40
0.000000
 40
1.009879
 40
2.020114
 40
3.030828
 40
7.407410
 40
11.790572
 40
16.175029
 40
16.175029
 40
16.175029
 40
16.175029
 10
190.115386
 20
-318.311748
 30
0.0
 10
190.422012
 20
-318.172810
 30
0.0
 10
191.035370
 20
-317.894885
 30
0.0
 10
191.946342
 20
-317.457915
 30
0.0
 10
193.854007
 20
-316.504619
 30
0.0
 10
196.694666
 20
-314.905862
 30
0.0
 10
200.357593
 20
-312.490378
 30
0.0
 10
202.632026
 20
-310.652826
 30
0.0
 10
203.769410
 20
-309.733914
 30
0.0
 11
190.115386
 21
-318.311748
 31
0.0
 11
191.033719
 21
-317.891604
 31
0.0
 11
191.944995
 21
-317.455542
 31
0.0
 11
192.848934
 21
-317.003394
 31
0.0
 11
196.666366
 21
-314.862908
 31
0.0
 11
200.315029
 21
-312.434047
 31
0.0
 11
203.769410
 21
-309.733914
 31
0.0
  0
LWPOLYLINE
  5
183
100
AcDbEntity
  8
0
 62
7
100
AcDbPolyline
 90
2
 70
0
 10
191.792045
 20
-320.426806
 30
0.0
 10
190.115386
 20
-318.311748
 30
0.0
  0
SPLINE
  5
184
100
AcDbEntity
  8
0
 62
7
100
AcDbSpline
 70
0
 71
3
 72
10
 73
6
 74
4
 40
0.000000
 40
0.000000
 40
0.000000
 40
0.000000
 40
0.188001
 40
0.375181
 40
0.563204
 40
0.563204
 40
0.563204
 40
0.563204
 10
192.002860
 20
-320.941664
 30
0.0
 10
191.992695
 20
-320.879703
 30
0.0
 10
191.972408
 20
-320.756052
 30
0.0
 10
191.900437
 20
-320.580284
 30
0.0
 10
191.828227
 20
-320.477873
 30
0.0
 10
191.792040
 20
-320.426552
 30
0.0
 11
192.002860
 21
-320.941664
 31
0.0
 11
191.965419
 21
-320.757429
 31
0.0
 11
191.894506
 21
-320.584201
 31
0.0
 11
191.792040
 21
-320.426552
 31
0.0
  0
LWPOLYLINE
  5
185
100
AcDbEntity
  8
0
 62
7
100
AcDbPolyline
 90
2
 70
0
 10
192.079568
 20
-321.662005
 30
0.0
 10
192.002860
 20
-320.941666
 30
0.0
  0
SPLINE
  5
186
100
AcDbEntity
  8
0
 62
7
100
AcDbSpline
 70
0
 71
3
 72
10
 73
6
 74
4
 40
0.000000
 40
0.000000
 40
0.000000
 40
0.000000
 40
0.430466
 40
0.851815
 40
1.282324
 40
1.282324
 40
1.282324
 40
1.282324
 10
191.460824
 20
-322.695026
 30
0.0
 10
191.587247
 20
-322.623776
 30
0.0
 10
191.837414
 20
-322.482784
 30
0.0
 10
192.070178
 20
-322.094220
 30
0.0
 10
192.076416
 20
-321.807108
 30
0.0
 10
192.079568
 20
-321.662008
 30
0.0
 11
191.460824
 21
-322.695026
 31
0.0
 11
191.815691
 21
-322.451365
 31
0.0
 11
192.032212
 21
-322.089904
 31
0.0
 11
192.079568
 21
-321.662008
 31
0.0
  0
LWPOLYLINE
  5
187
100
AcDbEntity
  8
0
 62
7
100
AcDbPolyline
 90
2
 70
0
 10
188.664025
 20
-323.828125
 30
0.0
 10
191.460829
 20
-322.695021
 30
0.0
  0
SPLINE
  5
188
100
AcDbEntity
  8
0
 62
7
100
AcDbSpline
 70
0
 71
3
 72
10
 73
6
 74
4
 40
0.000000
 40
0.000000
 40
0.000000
 40
0.000000
 40
0.429880
 40
0.850724
 40
1.280686
 40
1.280686
 40
1.280686
 40
1.280686
 10
187.501980
 20
-323.518748
 30
0.0
 10
187.605252
 20
-323.620414
 30
0.0
 10
187.809623
 20
-323.821610
 30
0.0
 10
188.246685
 20
-323.938013
 30
0.0
 10
188.524094
 20
-323.865181
 30
0.0
 10
188.664284
 20
-323.828374
 30
0.0
 11
187.501980
 21
-323.518748
 31
0.0
 11
187.833742
 21
-323.792118
 31
0.0
 11
188.240405
 21
-323.900444
 31
0.0
 11
188.664284
 21
-323.828374
 31
0.0
  0
LWPOLYLINE
  5
189
100
AcDbEntity
  8
0
 62
7
100
AcDbPolyline
 90
2
 70
0
 10
187.053929
 20
-322.947756
 30
0.0
 10
187.501975
 20
-323.518748
 30
0.0
  0
SPLINE
  5
18a
100
AcDbEntity
  8
0
 62
7
100
AcDbSpline
 70
0
 71
3
 72
10
 73
6
 74
4
 40
0.000000
 40
0.000000
 40
0.000000
 40
0.000000
 40
0.188604
 40
0.376354
 40
0.564895
 40
0.564895
 40
0.564895
 40
0.564895
 10
186.845644
 20
-322.429850
 30
0.0
 10
186.855420
 20
-322.492079
 30
0.0
 10
186.874927
 20
-322.616255
 30
0.0
 10
186.946071
 20
-322.792987
 30
0.0
 10
187.017923
 20
-322.896094
 30
0.0
 10
187.053924
 20
-322.947756
 30
0.0
 11
186.845644
 21
-322.429850
 31
0.0
 11
186.881976
 21
-322.614922
 31
0.0
 11
186.952061
 21
-322.789100
 31
0.0
 11
187.053924
 21
-322.947756
 31
0.0
  0
LWPOLYLINE
  5
18b
100
AcDbEntity
  8
0
 62
7
100
AcDbPolyline
 90
2
 70
0
 10
186.579452
 20
-319.762339
 30
0.0
 10
186.845644
 20
-322.429847
 30
0.0
  0
SPLINE
  5
18c
100
AcDbEntity
  8
0
 62
7
100
AcDbSpline
 70
0
 71
3
 72
13
 73
9
 74
7
 40
0.000000
 40
0.000000
 40
0.000000
 40
0.000000
 40
1.358874
 40
2.718290
 40
4.078699
 40
8.106107
 40
12.138567
 40
16.172666
 40
16.172666
 40
16.172666
 40
16.172666
 10
170.919082
 20
-323.681562
 30
0.0
 10
171.367079
 20
-323.614644
 30
0.0
 10
172.263250
 20
-323.480782
 30
0.0
 10
173.603859
 20
-323.254050
 30
0.0
 10
175.815690
 20
-322.845937
 30
0.0
 10
178.883259
 20
-322.169984
 30
0.0
 10
182.776309
 20
-321.110473
 30
0.0
 10
185.311397
 20
-320.211780
 30
0.0
 10
186.579198
 20
-319.762342
 30
0.0
 11
170.919082
 21
-323.681562
 31
0.0
 11
172.262394
 21
-323.476499
 31
0.0
 11
173.602940
 21
-323.250778
 31
0.0
 11
174.940664
 21
-323.003382
 31
0.0
 11
178.874099
 21
-322.138446
 31
0.0
 11
182.760402
 21
-321.062634
 31
0.0
 11
186.579198
 21
-319.762342
 31
0.0
  0
LWPOLYLINE
  5
18d
100
AcDbEntity
  8
0
 62
7
100
AcDbPolyline
 90
2
 70
0
 10
171.978768
 20
-326.151209
 30
0.0
 10
170.919087
 20
-323.681567
 30
0.0
  0
SPLINE
  5
18e
100
AcDbEntity
  8
0
 62
7
100
AcDbSpline
 70
0
 71
3
 72
10
 73
6
 74
4
 40
0.000000
 40
0.000000
 40
0.000000
 40
0.000000
 40
0.188033
 40
0.375175
 40
0.563011
 40
0.563011
 40
0.563011
 40
0.563011
 10
172.047096
 20
-326.703654
 30
0.0
 10
172.053522
 20
-326.641184
 30
0.0
 10
172.066344
 20
-326.516539
 30
0.0
 10
172.042968
 20
-326.328121
 30
0.0
 10
172.000196
 20
-326.210418
 30
0.0
 10
171.978770
 20
-326.151458
 30
0.0
 11
172.047096
 21
-326.703654
 31
0.0
 11
172.059241
 21
-326.516014
 31
0.0
 11
172.036221
 21
-326.330293
 31
0.0
 11
171.978770
 21
-326.151458
 31
0.0
  0
LWPOLYLINE
  5
18f
100
AcDbEntity
  8
0
 62
7
100
AcDbPolyline
 90
2
 70
0
 10
171.932794
 20
-327.418913
 30
0.0
 10
172.047094
 20
-326.703659
 30
0.0
  0
SPLINE
  5
190
100
AcDbEntity
  8
0
 62
7
100
AcDbSpline
 70
0
 71
3
 72
10
 73
6
 74
4
 40
0.000000
 40
0.000000
 40
0.000000
 40
0.000000
 40
0.430365
 40
0.851812
 40
1.282408
 40
1.282408
 40
1.282408
 40
1.282408
 10
171.064878
 20
-328.253816
 30
0.0
 10
171.205513
 20
-328.218167
 30
0.0
 10
171.483868
 20
-328.147609
 30
0.0
 10
171.810330
 20
-327.833611
 30
0.0
 10
171.891683
 20
-327.558135
 30
0.0
 10
171.932796
 20
-327.418918
 30
0.0
 11
171.064878
 21
-328.253816
 31
0.0
 11
171.471081
 21
-328.111642
 31
0.0
 11
171.774837
 21
-327.819495
 31
0.0
 11
171.932796
 21
-327.418918
 31
0.0
  0
LWPOLYLINE
  5
191
100
AcDbEntity
  8
0
 62
7
100
AcDbPolyline
 90
2
 70
0
 10
168.069202
 20
-328.614747
 30
0.0
 10
171.064876
 20
-328.253813
 30
0.0
  0
SPLINE
  5
192
100
AcDbEntity
  8
0
 62
7
100
AcDbSpline
 70
0
 71
3
 72
10
 73
6
 74
4
 40
0.000000
 40
0.000000
 40
0.000000
 40
0.000000
 40
0.429908
 40
0.850786
 40
1.280632
 40
1.280632
 40
1.280632
 40
1.280632
 10
167.028564
 20
-328.011500
 30
0.0
 10
167.101646
 20
-328.136645
 30
0.0
 10
167.246274
 20
-328.384306
 30
0.0
 10
167.637526
 20
-328.611163
 30
0.0
 10
167.924303
 20
-328.613546
 30
0.0
 10
168.069202
 20
-328.614750
 30
0.0
 11
167.028564
 21
-328.011500
 31
0.0
 11
167.277249
 21
-328.362180
 31
0.0
 11
167.641363
 21
-328.573273
 31
0.0
 11
168.069202
 21
-328.614750
 31
0.0
  0
LWPOLYLINE
  5
193
100
AcDbEntity
  8
0
 62
7
100
AcDbPolyline
 90
2
 70
0
 10
166.745860
 20
-327.343221
 30
0.0
 10
167.028559
 20
-328.011497
 30
0.0
  0
SPLINE
  5
194
100
AcDbEntity
  8
0
 62
7
100
AcDbSpline
 70
0
 71
3
 72
10
 73
6
 74
4
 40
0.000000
 40
0.000000
 40
0.000000
 40
0.000000
 40
0.188539
 40
0.376309
 40
0.564972
 40
0.564972
 40
0.564972
 40
0.564972
 10
166.680330
 20
-326.788998
 30
0.0
 10
166.673483
 20
-326.851593
 30
0.0
 10
166.659817
 20
-326.976529
 30
0.0
 10
166.682091
 20
-327.165757
 30
0.0
 10
166.724403
 20
-327.284145
 30
0.0
 10
166.745608
 20
-327.343480
 30
0.0
 11
166.680330
 21
-326.788998
 31
0.0
 11
166.666944
 21
-326.977061
 31
0.0
 11
166.688891
 21
-327.163544
 31
0.0
 11
166.745608
 21
-327.343480
 31
0.0
  0
LWPOLYLINE
  5
195
100
AcDbEntity
  8
0
 62
7
100
AcDbPolyline
 90
2
 70
0
 10
167.120261
 20
-324.156290
 30
0.0
 10
166.680325
 20
-326.788998
 30
0.0
  0
SPLINE
  5
196
100
AcDbEntity
  8
0
 62
7
100
AcDbSpline
 70
0
 71
3
 72
10
 73
6
 74
4
 40
0.000000
 40
0.000000
 40
0.000000
 40
0.000000
 40
5.400849
 40
10.789793
 40
16.166543
 40
16.166543
 40
16.166543
 40
16.166543
 10
150.977542
 20
-324.912700
 30
0.0
 10
152.777717
 20
-324.894172
 30
0.0
 10
156.374098
 20
-324.857158
 30
0.0
 10
161.760851
 20
-324.644202
 30
0.0
 10
165.335139
 20
-324.318803
 30
0.0
 10
167.120258
 20
-324.156288
 30
0.0
 11
150.977542
 21
-324.912700
 31
0.0
 11
156.377770
 21
-324.830780
 31
0.0
 11
161.761686
 21
-324.598041
 31
0.0
 11
167.120258
 21
-324.156288
 31
0.0
  0
LWPOLYLINE
  5
197
100
AcDbEntity
  8
0
 62
7
100
AcDbPolyline
 90
2
 70
0
 10
151.717952
 20
-327.480889
 30
0.0
 10
150.977545
 20
-324.912697
 30
0.0
  0
SPLINE
  5
198
100
AcDbEntity
  8
0
 62
7
100
AcDbSpline
 70
0
 71
3
 72
10
 73
6
 74
4
 40
0.000000
 40
0.000000
 40
0.000000
 40
0.000000
 40
0.188040
 40
0.375163
 40
0.563108
 40
0.563108
 40
0.563108
 40
0.563108
 10
151.717190
 20
-328.037408
 30
0.0
 10
151.731302
 20
-327.976213
 30
0.0
 10
151.759456
 20
-327.854121
 30
0.0
 10
151.759720
 20
-327.664231
 30
0.0
 10
151.731895
 20
-327.542096
 30
0.0
 10
151.717952
 20
-327.480894
 30
0.0
 11
151.717190
 21
-328.037408
 31
0.0
 11
151.752496
 21
-327.852712
 31
0.0
 11
151.752750
 21
-327.665590
 31
0.0
 11
151.717952
 21
-327.480894
 31
0.0
  0
LWPOLYLINE
  5
199
100
AcDbEntity
  8
0
 62
7
100
AcDbPolyline
 90
2
 70
0
 10
151.514752
 20
-328.733116
 30
0.0
 10
151.717195
 20
-328.037405
 30
0.0
  0
SPLINE
  5
19a
100
AcDbEntity
  8
0
 62
7
100
AcDbSpline
 70
0
 71
3
 72
10
 73
6
 74
4
 40
0.000000
 40
0.000000
 40
0.000000
 40
0.000000
 40
0.430390
 40
0.851743
 40
1.282254
 40
1.282254
 40
1.282254
 40
1.282254
 10
150.550060
 20
-329.453458
 30
0.0
 10
150.694041
 20
-329.435549
 30
0.0
 10
150.978980
 20
-329.400108
 30
0.0
 10
151.341868
 20
-329.129104
 30
0.0
 10
151.456713
 20
-328.865884
 30
0.0
 10
151.514752
 20
-328.732860
 30
0.0
 11
150.550060
 21
-329.453458
 31
0.0
 11
150.970797
 21
-329.362818
 31
0.0
 11
151.308391
 21
-329.110690
 31
0.0
 11
151.514752
 21
-328.732860
 31
0.0
  0
LWPOLYLINE
  5
19b
100
AcDbEntity
  8
0
 62
7
100
AcDbPolyline
 90
2
 70
0
 10
147.532545
 20
-329.439490
 30
0.0
 10
150.550060
 20
-329.453455
 30
0.0
  0
SPLINE
  5
19c
100
AcDbEntity
  8
0
 62
7
100
AcDbSpline
 70
0
 71
3
 72
10
 73
6
 74
4
 40
0.000000
 40
0.000000
 40
0.000000
 40
0.000000
 40
0.429916
 40
0.850693
 40
1.280550
 40
1.280550
 40
1.280550
 40
1.280550
 10
146.574960
 20
-328.711778
 30
0.0
 10
146.631911
 20
-328.845047
 30
0.0
 10
146.744602
 20
-329.108751
 30
0.0
 10
147.104668
 20
-329.382391
 30
0.0
 10
147.388905
 20
-329.420321
 30
0.0
 10
147.532540
 20
-329.439488
 30
0.0
 11
146.574960
 21
-328.711778
 31
0.0
 11
146.778123
 21
-329.090661
 31
0.0
 11
147.113139
 21
-329.345254
 31
0.0
 11
147.532540
 21
-329.439488
 31
0.0
  0
LWPOLYLINE
  5
19d
100
AcDbEntity
  8
0
 62
7
100
AcDbPolyline
 90
2
 70
0
 10
146.377353
 20
-328.013532
 30
0.0
 10
146.574960
 20
-328.711783
 30
0.0
  0
SPLINE
  5
19e
100
AcDbEntity
  8
0
 62
7
100
AcDbSpline
 70
0
 71
3
 72
10
 73
6
 74
4
 40
0.000000
 40
0.000000
 40
0.000000
 40
0.000000
 40
0.188531
 40
0.376289
 40
0.564975
 40
0.564975
 40
0.564975
 40
0.564975
 10
146.381412
 20
-327.455240
 30
0.0
 10
146.366826
 20
-327.516495
 30
0.0
 10
146.337713
 20
-327.638754
 30
0.0
 10
146.336401
 20
-327.829288
 30
0.0
 10
146.363677
 20
-327.952016
 30
0.0
 10
146.377348
 20
-328.013532
 30
0.0
 11
146.381412
 21
-327.455240
 31
0.0
 11
146.344742
 21
-327.640171
 31
0.0
 11
146.343406
 21
-327.827924
 31
0.0
 11
146.377348
 21
-328.013532
 31
0.0
  0
LWPOLYLINE
  5
19f
100
AcDbEntity
  8
0
 62
7
100
AcDbPolyline
 90
2
 70
0
 10
147.141129
 20
-324.910416
 30
0.0
 10
146.381410
 20
-327.455240
 30
0.0
  0
SPLINE
  5
1a0
100
AcDbEntity
  8
0
 62
7
100
AcDbSpline
 70
0
 71
3
 72
10
 73
6
 74
4
 40
0.000000
 40
0.000000
 40
0.000000
 40
0.000000
 40
5.378415
 40
10.768519
 40
16.166623
 40
16.166623
 40
16.166623
 40
16.166623
 10
130.999172
 20
-324.139524
 30
0.0
 10
132.784754
 20
-324.303030
 30
0.0
 10
136.359798
 20
-324.630399
 30
0.0
 10
141.746334
 20
-324.848597
 30
0.0
 10
145.342143
 20
-324.889798
 30
0.0
 10
147.141380
 20
-324.910414
 30
0.0
 11
130.999172
 21
-324.139524
 31
0.0
 11
136.359137
 21
-324.584635
 31
0.0
 11
141.743993
 21
-324.822426
 31
0.0
 11
147.141380
 21
-324.910414
 31
0.0
  0
LWPOLYLINE
  5
1a1
100
AcDbEntity
  8
0
 62
7
100
AcDbPolyline
 90
2
 70
0
 10
131.418783
 20
-326.792805
 30
0.0
 10
130.999172
 20
-324.139524
 30
0.0
  0
SPLINE
  5
1a2
100
AcDbEntity
  8
0
 62
7
100
AcDbSpline
 70
0
 71
3
 72
10
 73
6
 74
4
 40
0.000000
 40
0.000000
 40
0.000000
 40
0.000000
 40
0.187969
 40
0.375151
 40
0.563167
 40
0.563167
 40
0.563167
 40
0.563167
 10
131.349438
 20
-327.345004
 30
0.0
 10
131.371016
 20
-327.286051
 30
0.0
 10
131.414080
 20
-327.168392
 30
0.0
 10
131.437775
 20
-326.979951
 30
0.0
 10
131.425121
 20
-326.855281
 30
0.0
 10
131.418780
 20
-326.792808
 30
0.0
 11
131.349438
 21
-327.345004
 31
0.0
 11
131.407322
 21
-327.166169
 31
0.0
 11
131.430662
 21
-326.980448
 31
0.0
 11
131.418780
 21
-326.792808
 31
0.0
  0
LWPOLYLINE
  5
1a3
100
AcDbEntity
  8
0
 62
7
100
AcDbPolyline
 90
2
 70
0
 10
131.062672
 20
-328.010232
 30
0.0
 10
131.349441
 20
-327.345009
 30
0.0
  0
SPLINE
  5
1a4
100
AcDbEntity
  8
0
 62
7
100
AcDbSpline
 70
0
 71
3
 72
10
 73
6
 74
4
 40
0.000000
 40
0.000000
 40
0.000000
 40
0.000000
 40
0.430469
 40
0.851862
 40
1.282356
 40
1.282356
 40
1.282356
 40
1.282356
 10
130.016192
 20
-328.606114
 30
0.0
 10
130.161310
 20
-328.606126
 30
0.0
 10
130.448485
 20
-328.606149
 30
0.0
 10
130.842095
 20
-328.382037
 30
0.0
 10
130.988625
 20
-328.135045
 30
0.0
 10
131.062672
 20
-328.010230
 30
0.0
 11
130.016192
 21
-328.606114
 31
0.0
 11
130.444982
 21
-328.568127
 31
0.0
 11
130.811175
 21
-328.359621
 31
0.0
 11
131.062672
 21
-328.010230
 31
0.0
  0
LWPOLYLINE
  5
1a5
100
AcDbEntity
  8
0
 62
7
100
AcDbPolyline
 90
2
 70
0
 10
127.023564
 20
-328.219782
 30
0.0
 10
130.016195
 20
-328.606116
 30
0.0
  0
SPLINE
  5
1a6
100
AcDbEntity
  8
0
 62
7
100
AcDbSpline
 70
0
 71
3
 72
10
 73
6
 74
4
 40
0.000000
 40
0.000000
 40
0.000000
 40
0.000000
 40
0.429883
 40
0.850707
 40
1.280545
 40
1.280545
 40
1.280545
 40
1.280545
 10
126.163266
 20
-327.379294
 30
0.0
 10
126.203294
 20
-327.518576
 30
0.0
 10
126.282505
 20
-327.794206
 30
0.0
 10
126.606055
 20
-328.110183
 30
0.0
 10
126.883415
 20
-328.182990
 30
0.0
 10
127.023564
 20
-328.219780
 30
0.0
 11
126.163266
 21
-327.379294
 31
0.0
 11
126.318009
 21
-327.780360
 31
0.0
 11
126.619055
 21
-328.074407
 31
0.0
 11
127.023564
 21
-328.219780
 31
0.0
  0
LWPOLYLINE
  5
1a7
100
AcDbEntity
  8
0
 62
7
100
AcDbPolyline
 90
2
 70
0
 10
126.053541
 20
-326.661998
 30
0.0
 10
126.163264
 20
-327.379289
 30
0.0
  0
SPLINE
  5
1a8
100
AcDbEntity
  8
0
 62
7
100
AcDbSpline
 70
0
 71
3
 72
10
 73
6
 74
4
 40
0.000000
 40
0.000000
 40
0.000000
 40
0.000000
 40
0.188549
 40
0.376315
 40
0.564936
 40
0.564936
 40
0.564936
 40
0.564936
 10
126.126436
 20
-326.108278
 30
0.0
 10
126.104384
 20
-326.167264
 30
0.0
 10
126.060370
 20
-326.284993
 30
0.0
 10
126.035560
 20
-326.473902
 30
0.0
 10
126.047536
 20
-326.599035
 30
0.0
 10
126.053538
 20
-326.661744
 30
0.0
 11
126.126436
 21
-326.108278
 31
0.0
 11
126.067179
 21
-326.287273
 31
0.0
 11
126.042691
 21
-326.473436
 31
0.0
 11
126.053538
 21
-326.661744
 31
0.0
  0
LWPOLYLINE
  5
1a9
100
AcDbEntity
  8
0
 62
7
100
AcDbPolyline
 90
2
 70
0
 10
127.200348
 20
-323.663782
 30
0.0
 10
126.126436
 20
-326.108283
 30
0.0
  0
SPLINE
  5
1aa
100
AcDbEntity
  8
0
 62
7
100
AcDbSpline
 70
0
 71
3
 72
13
 73
9
 74
7
 40
0.000000
 40
0.000000
 40
0.000000
 40
0.000000
 40
2.252404
 40
4.501801
 40
6.746265
 40
9.894653
 40
13.035462
 40
16.173303
 40
16.173303
 40
16.173303
 40
16.173303
 10
111.544042
 20
-319.732370
 30
0.0
 10
112.249483
 20
-319.989586
 30
0.0
 10
113.659425
 20
-320.503673
 30
0.0
 10
115.803148
 20
-321.184898
 30
0.0
 10
118.253020
 20
-321.884346
 30
0.0
 10
121.017719
 20
-322.557164
 30
0.0
 10
124.098276
 20
-323.182825
 30
0.0
 10
126.166650
 20
-323.503683
 30
0.0
 10
127.200348
 20
-323.664036
 30
0.0
 11
111.544042
 21
-319.732370
 31
0.0
 11
113.665516
 21
-320.489121
 31
0.0
 11
115.807874
 21
-321.174751
 31
0.0
 11
117.966432
 21
-321.789770
 31
0.0
 11
121.024592
 21
-322.538101
 31
0.0
 11
124.103411
 21
-323.159037
 31
0.0
 11
127.200348
 21
-323.664036
 31
0.0
  0
LWPOLYLINE
  5
1ab
100
AcDbEntity
  8
0
 62
7
100
AcDbPolyline
 90
2
 70
0
 10
111.255752
 20
-322.413848
 30
0.0
 10
111.544045
 20
-319.732375
 30
0.0
  0
SPLINE
  5
1ac
100
AcDbEntity
  8
0
 62
7
100
AcDbSpline
 70
0
 71
3
 72
10
 73
6
 74
4
 40
0.000000
 40
0.000000
 40
0.000000
 40
0.000000
 40
0.187956
 40
0.375174
 40
0.563068
 40
0.563068
 40
0.563068
 40
0.563068
 10
111.044678
 20
-322.928706
 30
0.0
 10
111.080884
 20
-322.877427
 30
0.0
 10
111.153153
 20
-322.775069
 30
0.0
 10
111.225225
 20
-322.599389
 30
0.0
 10
111.245564
 20
-322.475769
 30
0.0
 10
111.255752
 20
-322.413848
 30
0.0
 11
111.044678
 21
-322.928706
 31
0.0
 11
111.147209
 21
-322.771179
 31
0.0
 11
111.218245
 21
-322.597960
 31
0.0
 11
111.255752
 21
-322.413848
 31
0.0
  0
LWPOLYLINE
  5
1ad
100
AcDbEntity
  8
0
 62
7
100
AcDbPolyline
 90
2
 70
0
 10
110.594082
 20
-323.495890
 30
0.0
 10
111.044676
 20
-322.928706
 30
0.0
  0
SPLINE
  5
1ae
100
AcDbEntity
  8
0
 62
7
100
AcDbSpline
 70
0
 71
3
 72
10
 73
6
 74
4
 40
0.000000
 40
0.000000
 40
0.000000
 40
0.000000
 40
0.430457
 40
0.851782
 40
1.282185
 40
1.282185
 40
1.282185
 40
1.282185
 10
109.428476
 20
-323.798148
 30
0.0
 10
109.568557
 20
-323.836029
 30
0.0
 10
109.845749
 20
-323.910988
 30
0.0
 10
110.284150
 20
-323.797413
 30
0.0
 10
110.490040
 20
-323.597277
 30
0.0
 10
110.594082
 20
-323.496142
 30
0.0
 11
109.428476
 21
-323.798148
 31
0.0
 11
109.852308
 21
-323.873379
 31
0.0
 11
110.260166
 21
-323.767706
 31
0.0
 11
110.594082
 21
-323.496142
 31
0.0
  0
LWPOLYLINE
  5
1af
100
AcDbEntity
  8
0
 62
7
100
AcDbPolyline
 90
2
 70
0
 10
106.640572
 20
-322.643974
 30
0.0
 10
109.428479
 20
-323.798148
 30
0.0
  0
SPLINE
  5
1b0
100
AcDbEntity
  8
0
 62
7
100
AcDbSpline
 70
0
 71
3
 72
10
 73
6
 74
4
 40
0.000000
 40
0.000000
 40
0.000000
 40
0.000000
 40
0.429890
 40
0.850672
 40
1.280436
 40
1.280436
 40
1.280436
 40
1.280436
 10
106.029194
 20
-321.608160
 30
0.0
 10
106.031534
 20
-321.753057
 30
0.0
 10
106.036164
 20
-322.039780
 30
0.0
 10
106.265909
 20
-322.429261
 30
0.0
 10
106.514640
 20
-322.571900
 30
0.0
 10
106.640318
 20
-322.643972
 30
0.0
 11
106.029194
 21
-321.608160
 31
0.0
 11
106.074011
 21
-322.035708
 31
0.0
 11
106.287822
 21
-322.398119
 31
0.0
 11
106.640318
 21
-322.643972
 31
0.0
  0
LWPOLYLINE
  5
1b1
100
AcDbEntity
  8
0
 62
7
100
AcDbPolyline
 90
2
 70
0
 10
106.110471
 20
-320.887059
 30
0.0
 10
106.029194
 20
-321.608155
 30
0.0
  0
SPLINE
  5
1b2
100
AcDbEntity
  8
0
 62
7
100
AcDbSpline
 70
0
 71
3
 72
10
 73
6
 74
4
 40
0.000000
 40
0.000000
 40
0.000000
 40
0.000000
 40
0.188588
 40
0.376392
 40
0.565048
 40
0.565048
 40
0.565048
 40
0.565048
 10
106.325358
 20
-320.371688
 30
0.0
 10
106.288679
 20
-320.422893
 30
0.0
 10
106.215473
 20
-320.525090
 30
0.0
 10
106.142193
 20
-320.701002
 30
0.0
 10
106.121063
 20
-320.824943
 30
0.0
 10
106.110474
 20
-320.887054
 30
0.0
 11
106.325358
 21
-320.371688
 31
0.0
 11
106.221444
 21
-320.529064
 31
0.0
 11
106.149195
 21
-320.702415
 31
0.0
 11
106.110474
 21
-320.887054
 31
0.0
  0
LWPOLYLINE
  5
1b3
100
AcDbEntity
  8
0
 62
7
100
AcDbPolyline
 90
2
 70
0
 10
108.006079
 20
-318.284575
 30
0.0
 10
106.325355
 20
-320.371690
 30
0.0
  0
SPLINE
  5
1b4
100
AcDbEntity
  8
0
 62
7
100
AcDbSpline
 70
0
 71
3
 72
13
 73
9
 74
7
 40
0.000000
 40
0.000000
 40
0.000000
 40
0.000000
 40
0.041029
 40
0.081984
 40
0.122903
 40
5.455758
 40
10.806061
 40
16.172743
 40
16.172743
 40
16.172743
 40
16.172743
 10
94.310904
 20
-309.775824
 30
0.0
 10
94.321314
 20
-309.784694
 30
0.0
 10
94.342114
 20
-309.802418
 30
0.0
 10
94.373376
 20
-309.828896
 30
0.0
 10
95.751406
 20
-310.994539
 30
0.0
 10
98.602242
 20
-313.161078
 30
0.0
 10
103.157731
 20
-315.987978
 30
0.0
 10
106.388315
 20
-317.518090
 30
0.0
 10
108.006076
 20
-318.284316
 30
0.0
 11
94.310904
 21
-309.775824
 31
0.0
 11
94.342146
 21
-309.802419
 31
0.0
 11
94.373388
 21
-309.828900
 31
0.0
 11
94.404630
 21
-309.855326
 31
0.0
 11
98.645517
 21
-313.088624
 31
0.0
 11
103.200123
 21
-315.895992
 31
0.0
 11
108.006076
 21
-318.284316
 31
0.0
  0
LWPOLYLINE
  5
1b5
100
AcDbEntity
  8
0
 62
7
100
AcDbPolyline
 90
2
 70
0
 10
93.102883
 20
-312.196698
 30
0.0
 10
94.310901
 20
-309.775824
 30
0.0
  0
SPLINE
  5
1b6
100
AcDbEntity
  8
0
 62
7
100
AcDbSpline
 70
0
 71
3
 72
10
 73
6
 74
4
 40
0.000000
 40
0.000000
 40
0.000000
 40
0.000000
 40
0.187912
 40
0.375135
 40
0.563157
 40
0.563157
 40
0.563157
 40
0.563157
 10
92.725436
 20
-312.605638
 30
0.0
 10
92.777231
 20
-312.570199
 30
0.0
 10
92.880630
 20
-312.499450
 30
0.0
 10
93.009391
 20
-312.359838
 30
0.0
 10
93.071503
 20
-312.250986
 30
0.0
 10
93.102626
 20
-312.196444
 30
0.0
 11
92.725436
 21
-312.605638
 31
0.0
 11
92.876397
 21
-312.493737
 31
0.0
 11
93.003312
 21
-312.356097
 31
0.0
 11
93.102626
 21
-312.196444
 31
0.0
  0
LWPOLYLINE
  5
1b7
100
AcDbEntity
  8
0
 62
7
100
AcDbPolyline
 90
2
 70
0
 10
92.105679
 20
-312.980539
 30
0.0
 10
92.725436
 20
-312.605640
 30
0.0
  0
SPLINE
  5
1b8
100
AcDbEntity
  8
0
 62
7
100
AcDbSpline
 70
0
 71
3
 72
10
 73
6
 74
4
 40
0.000000
 40
0.000000
 40
0.000000
 40
0.000000
 40
0.430464
 40
0.851819
 40
1.282267
 40
1.282267
 40
1.282267
 40
1.282267
 10
90.907812
 20
-312.857606
 30
0.0
 10
91.025917
 20
-312.941930
 30
0.0
 10
91.259629
 20
-313.108794
 30
0.0
 10
91.710176
 20
-313.154984
 30
0.0
 10
91.972908
 20
-313.039102
 30
0.0
 10
92.105676
 20
-312.980542
 30
0.0
 11
90.907812
 21
-312.857606
 31
0.0
 11
91.278878
 21
-313.075801
 31
0.0
 11
91.698034
 21
-313.118793
 31
0.0
 11
92.105676
 21
-312.980542
 31
0.0
  0
LWPOLYLINE
  5
1b9
100
AcDbEntity
  8
0
 62
7
100
AcDbPolyline
 90
2
 70
0
 10
88.696488
 20
-310.804524
 30
0.0
 10
90.907809
 20
-312.857606
 30
0.0
  0
SPLINE
  5
1ba
100
AcDbEntity
  8
0
 62
7
100
AcDbSpline
 70
0
 71
3
 72
10
 73
6
 74
4
 40
0.000000
 40
0.000000
 40
0.000000
 40
0.000000
 40
0.429829
 40
0.850655
 40
1.280510
 40
1.280510
 40
1.280510
 40
1.280510
 10
88.484398
 20
-309.620630
 30
0.0
 10
88.436131
 20
-309.757249
 30
0.0
 10
88.340608
 20
-310.027624
 30
0.0
 10
88.420295
 20
-310.472764
 30
0.0
 10
88.603774
 20
-310.693157
 30
0.0
 10
88.696488
 20
-310.804524
 30
0.0
 11
88.484398
 21
-309.620630
 31
0.0
 11
88.377502
 21
-310.036955
 31
0.0
 11
88.451679
 21
-310.451191
 31
0.0
 11
88.696488
 21
-310.804524
 31
0.0
  0
LWPOLYLINE
  5
1bb
100
AcDbEntity
  8
0
 62
7
100
AcDbPolyline
 90
2
 70
0
 10
88.811550
 20
-308.973181
 30
0.0
 10
88.484398
 20
-309.620632
 30
0.0
  0
SPLINE
  5
1bc
100
AcDbEntity
  8
0
 62
7
100
AcDbSpline
 70
0
 71
3
 72
10
 73
6
 74
4
 40
0.000000
 40
0.000000
 40
0.000000
 40
0.000000
 40
0.188532
 40
0.376346
 40
0.565022
 40
0.565022
 40
0.565022
 40
0.565022
 10
89.192550
 20
-308.565006
 30
0.0
 10
89.140350
 20
-308.600221
 30
0.0
 10
89.036149
 20
-308.670518
 30
0.0
 10
88.906187
 20
-308.809872
 30
0.0
 10
88.843144
 20
-308.918663
 30
0.0
 10
88.811550
 20
-308.973184
 30
0.0
 11
89.192550
 21
-308.565006
 31
0.0
 11
89.040376
 21
-308.676305
 31
0.0
 11
88.912247
 21
-308.813625
 31
0.0
 11
88.811550
 21
-308.973184
 31
0.0
  0
LWPOLYLINE
  5
1bd
100
AcDbEntity
  8
0
 62
7
100
AcDbPolyline
 90
2
 70
0
 10
91.501410
 20
-307.190355
 30
0.0
 10
89.192550
 20
-308.565006
 30
0.0
  0
SPLINE
  5
1be
100
AcDbEntity
  8
0
 62
7
100
AcDbSpline
 70
0
 71
3
 72
10
 73
6
 74
4
 40
0.000000
 40
0.000000
 40
0.000000
 40
0.000000
 40
5.411078
 40
10.802551
 40
16.172686
 40
16.172686
 40
16.172686
 40
16.172686
 10
81.716314
 20
-294.365644
 30
0.0
 10
82.659051
 20
-295.903907
 30
0.0
 10
84.541111
 20
-298.974859
 30
0.0
 10
87.795102
 20
-303.290239
 30
0.0
 10
90.267608
 20
-305.892038
 30
0.0
 10
91.501410
 20
-307.190358
 30
0.0
 11
81.716314
 21
-294.365644
 31
0.0
 11
84.617652
 21
-298.933138
 31
0.0
 11
87.876510
 21
-303.228231
 31
0.0
 11
91.501410
 21
-307.190358
 31
0.0
  0
LWPOLYLINE
  5
1bf
100
AcDbEntity
  8
0
 62
7
100
AcDbPolyline
 90
2
 70
0
 10
79.805472
 20
-296.264040
 30
0.0
 10
81.716314
 20
-294.365639
 30
0.0
  0
SPLINE
  5
1c0
100
AcDbEntity
  8
0
 62
7
100
AcDbSpline
 70
0
 71
3
 72
10
 73
6
 74
4
 40
0.000000
 40
0.000000
 40
0.000000
 40
0.000000
 40
0.188045
 40
0.375225
 40
0.563252
 40
0.563252
 40
0.563252
 40
0.563252
 10
79.317030
 20
-296.530994
 30
0.0
 10
79.377489
 20
-296.513988
 30
0.0
 10
79.498129
 20
-296.480053
 30
0.0
 10
79.664759
 20
-296.388871
 30
0.0
 10
79.758497
 20
-296.305713
 30
0.0
 10
79.805472
 20
-296.264040
 30
0.0
 11
79.317030
 21
-296.530994
 31
0.0
 11
79.495987
 21
-296.473242
 31
0.0
 11
79.660212
 21
-296.383429
 31
0.0
 11
79.805472
 21
-296.264040
 31
0.0
  0
LWPOLYLINE
  5
1c1
100
AcDbEntity
  8
0
 62
7
100
AcDbPolyline
 90
2
 70
0
 10
78.609640
 20
-296.687717
 30
0.0
 10
79.317027
 20
-296.530989
 30
0.0
  0
SPLINE
  5
1c2
100
AcDbEntity
  8
0
 62
7
100
AcDbSpline
 70
0
 71
3
 72
10
 73
6
 74
4
 40
0.000000
 40
0.000000
 40
0.000000
 40
0.000000
 40
0.430436
 40
0.851842
 40
1.282222
 40
1.282222
 40
1.282222
 40
1.282222
 10
77.514138
 20
-296.188094
 30
0.0
 10
77.599039
 20
-296.305771
 30
0.0
 10
77.767062
 20
-296.538658
 30
0.0
 10
78.179149
 20
-296.726593
 30
0.0
 10
78.465139
 20
-296.700763
 30
0.0
 10
78.609640
 20
-296.687712
 30
0.0
 11
77.514138
 21
-296.188094
 31
0.0
 11
77.795843
 21
-296.513543
 31
0.0
 11
78.179260
 21
-296.688399
 31
0.0
 11
78.609640
 21
-296.687712
 31
0.0
  0
LWPOLYLINE
  5
1c3
100
AcDbEntity
  8
0
 62
7
100
AcDbPolyline
 90
2
 70
0
 10
76.076244
 20
-293.535066
 30
0.0
 10
77.514138
 20
-296.188089
 30
0.0
  0
SPLINE
  5
1c4
100
AcDbEntity
  8
0
 62
7
100
AcDbSpline
 70
0
 71
3
 72
10
 73
6
 74
4
 40
0.000000
 40
0.000000
 40
0.000000
 40
0.000000
 40
0.429843
 40
0.850720
 40
1.280554
 40
1.280554
 40
1.280554
 40
1.280554
 10
76.254044
 20
-292.345582
 30
0.0
 10
76.164568
 20
-292.459558
 30
0.0
 10
75.987483
 20
-292.685132
 30
0.0
 10
75.920583
 20
-293.132419
 30
0.0
 10
76.023994
 20
-293.399910
 30
0.0
 10
76.076244
 20
-293.535064
 30
0.0
 11
76.254044
 21
-292.345582
 31
0.0
 11
76.019480
 21
-292.705782
 31
0.0
 11
75.957240
 21
-293.122032
 31
0.0
 11
76.076244
 21
-293.535064
 31
0.0
  0
LWPOLYLINE
  5
1c5
100
AcDbEntity
  8
0
 62
7
100
AcDbPolyline
 90
2
 70
0
 10
76.771442
 20
-291.836825
 30
0.0
 10
76.254044
 20
-292.345582
 30
0.0
  0
SPLINE
  5
1c6
100
AcDbEntity
  8
0
 62
7
100
AcDbSpline
 70
0
 71
3
 72
10
 73
6
 74
4
 40
0.000000
 40
0.000000
 40
0.000000
 40
0.000000
 40
0.188625
 40
0.376415
 40
0.565010
 40
0.565010
 40
0.565010
 40
0.565010
 10
77.262932
 20
-291.571898
 30
0.0
 10
77.202184
 20
-291.588585
 30
0.0
 10
77.080958
 20
-291.621887
 30
0.0
 10
76.913237
 20
-291.712325
 30
0.0
 10
76.818774
 20
-291.795262
 30
0.0
 10
76.771442
 20
-291.836820
 30
0.0
 11
77.262932
 21
-291.571898
 31
0.0
 11
77.083072
 21
-291.628728
 31
0.0
 11
76.917774
 21
-291.717844
 31
0.0
 11
76.771442
 21
-291.836820
 31
0.0
  0
LWPOLYLINE
  5
1c7
100
AcDbEntity
  8
0
 62
7
100
AcDbPolyline
 90
2
 70
0
 10
79.879132
 20
-291.011063
 30
0.0
 10
77.262932
 20
-291.571898
 30
0.0
  0
SPLINE
  5
1c8
100
AcDbEntity
  8
0
 62
7
100
AcDbSpline
 70
0
 71
3
 72
13
 73
9
 74
7
 40
0.000000
 40
0.000000
 40
0.000000
 40
0.000000
 40
3.328174
 40
6.662130
 40
10.005669
 40
12.057921
 40
14.113851
 40
16.172078
 40
16.172078
 40
16.172078
 40
16.172078
 10
73.914450
 20
-276.003476
 30
0.0
 10
74.240524
 20
-277.063985
 30
0.0
 10
74.893238
 20
-279.186847
 30
0.0
 10
76.015904
 20
-282.328579
 30
0.0
 10
77.091386
 20
-285.033188
 30
0.0
 10
78.085303
 20
-287.309790
 30
0.0
 10
78.951284
 20
-289.174312
 30
0.0
 10
79.569734
 20
-290.398418
 30
0.0
 10
79.879132
 20
-291.010812
 30
0.0
 11
73.914450
 21
-276.003476
 31
0.0
 11
74.916329
 21
-279.177272
 31
0.0
 11
76.033130
 21
-282.318612
 31
0.0
 11
77.271568
 21
-285.424336
 31
0.0
 11
78.092044
 21
-287.305441
 31
0.0
 11
78.961119
 21
-289.168653
 31
0.0
 11
79.879132
 21
-291.010812
 31
0.0
  0
LWPOLYLINE
  5
1c9
100
AcDbEntity
  8
0
 62
7
100
AcDbPolyline
 90
2
 70
0
 10
71.625402
 20
-277.409625
 30
0.0
 10
73.914450
 20
-276.003471
 30
0.0
  0
SPLINE
  5
1ca
100
AcDbEntity
  8
0
 62
7
100
AcDbSpline
 70
0
 71
3
 72
10
 73
6
 74
4
 40
0.000000
 40
0.000000
 40
0.000000
 40
0.000000
 40
0.188010
 40
0.375189
 40
0.563075
 40
0.563075
 40
0.563075
 40
0.563075
 10
71.088954
 20
-277.557448
 30
0.0
 10
71.151687
 20
-277.554749
 30
0.0
 10
71.276877
 20
-277.549363
 30
0.0
 10
71.459949
 20
-277.498924
 30
0.0
 10
71.570182
 20
-277.439425
 30
0.0
 10
71.625402
 20
-277.409620
 30
0.0
 11
71.088954
 21
-277.557448
 31
0.0
 11
71.276349
 21
-277.542264
 31
0.0
 11
71.456802
 21
-277.492537
 31
0.0
 11
71.625402
 21
-277.409620
 31
0.0
  0
LWPOLYLINE
  5
1cb
100
AcDbEntity
  8
0
 62
7
100
AcDbPolyline
 90
2
 70
0
 10
70.364546
 20
-277.548047
 30
0.0
 10
71.088954
 20
-277.557448
 30
0.0
  0
SPLINE
  5
1cc
100
AcDbEntity
  8
0
 62
7
100
AcDbSpline
 70
0
 71
3
 72
10
 73
6
 74
4
 40
0.000000
 40
0.000000
 40
0.000000
 40
0.000000
 40
0.430425
 40
0.851756
 40
1.282182
 40
1.282182
 40
1.282182
 40
1.282182
 10
69.412554
 20
-276.810434
 30
0.0
 10
69.468226
 20
-276.944436
 30
0.0
 10
69.578394
 20
-277.209608
 30
0.0
 10
69.936400
 20
-277.486955
 30
0.0
 10
70.220649
 20
-277.527540
 30
0.0
 10
70.364292
 20
-277.548050
 30
0.0
 11
69.412554
 21
-276.810434
 31
0.0
 11
69.612170
 21
-277.191772
 31
0.0
 11
69.945220
 21
-277.449836
 31
0.0
 11
70.364292
 21
-277.548050
 31
0.0
  0
LWPOLYLINE
  5
1cd
100
AcDbEntity
  8
0
 62
7
100
AcDbPolyline
 90
2
 70
0
 10
68.620836
 20
-273.898583
 30
0.0
 10
69.412554
 20
-276.810431
 30
0.0
  0
SPLINE
  5
1ce
100
AcDbEntity
  8
0
 62
7
100
AcDbSpline
 70
0
 71
3
 72
10
 73
6
 74
4
 40
0.000000
 40
0.000000
 40
0.000000
 40
0.000000
 40
0.429909
 40
0.850762
 40
1.280598
 40
1.280598
 40
1.280598
 40
1.280598
 10
69.066860
 20
-272.781486
 30
0.0
 10
68.953625
 20
-272.871934
 30
0.0
 10
68.729541
 20
-273.050925
 30
0.0
 10
68.561894
 20
-273.470977
 30
0.0
 10
68.601219
 20
-273.755044
 30
0.0
 10
68.621090
 20
-273.898578
 30
0.0
 11
69.066860
 21
-272.781486
 31
0.0
 11
68.755936
 21
-273.078383
 31
0.0
 11
68.599951
 21
-273.469261
 31
0.0
 11
68.621090
 21
-273.898578
 31
0.0
  0
LWPOLYLINE
  5
1cf
100
AcDbEntity
  8
0
 62
7
100
AcDbPolyline
 90
2
 70
0
 10
69.686876
 20
-272.404809
 30
0.0
 10
69.066860
 20
-272.781491
 30
0.0
  0
SPLINE
  5
1d0
100
AcDbEntity
  8
0
 62
7
100
AcDbSpline
 70
0
 71
3
 72
10
 73
6
 74
4
 40
0.000000
 40
0.000000
 40
0.000000
 40
0.000000
 40
0.188697
 40
0.376489
 40
0.565088
 40
0.565088
 40
0.565088
 40
0.565088
 10
70.226116
 20
-272.259770
 30
0.0
 10
70.163136
 20
-272.262060
 30
0.0
 10
70.037478
 20
-272.266631
 30
0.0
 10
69.853437
 20
-272.316126
 30
0.0
 10
69.742474
 20
-272.375202
 30
0.0
 10
69.686874
 20
-272.404804
 30
0.0
 11
70.226116
 21
-272.259770
 31
0.0
 11
70.037940
 21
-272.273777
 31
0.0
 11
69.856593
 21
-272.322555
 31
0.0
 11
69.686874
 21
-272.404804
 31
0.0
  0
LWPOLYLINE
  5
1d1
100
AcDbEntity
  8
0
 62
7
100
AcDbPolyline
 90
2
 70
0
 10
72.894386
 20
-272.313105
 30
0.0
 10
70.226116
 20
-272.259775
 30
0.0
  0
SPLINE
  5
1d2
100
AcDbEntity
  8
0
 62
7
100
AcDbSpline
 70
0
 71
3
 72
10
 73
6
 74
4
 40
0.000000
 40
0.000000
 40
0.000000
 40
0.000000
 40
5.395936
 40
10.784666
 40
16.167903
 40
16.167903
 40
16.167903
 40
16.167903
 10
69.930460
 20
-256.428966
 30
0.0
 10
70.175209
 20
-258.210965
 30
0.0
 10
70.664379
 20
-261.772584
 30
0.0
 10
71.633168
 20
-267.077282
 30
0.0
 10
72.474123
 20
-270.568596
 30
0.0
 10
72.894386
 20
-272.313364
 30
0.0
 11
69.930460
 21
-256.428966
 31
0.0
 11
70.704022
 21
-261.769165
 31
0.0
 11
71.682420
 21
-267.068330
 31
0.0
 11
72.894386
 21
-272.313364
 31
0.0
  0
LWPOLYLINE
  5
1d3
100
AcDbEntity
  8
0
 62
7
100
AcDbPolyline
 90
2
 70
0
 10
67.459040
 20
-257.463251
 30
0.0
 10
69.930460
 20
-256.428963
 30
0.0
  0
SPLINE
  5
1d4
100
AcDbEntity
  8
0
 62
7
100
AcDbSpline
 70
0
 71
3
 72
10
 73
6
 74
4
 40
0.000000
 40
0.000000
 40
0.000000
 40
0.000000
 40
0.188006
 40
0.375142
 40
0.563206
 40
0.563206
 40
0.563206
 40
0.563206
 10
66.906336
 20
-257.526754
 30
0.0
 10
66.968737
 20
-257.533719
 30
0.0
 10
67.093252
 20
-257.547618
 30
0.0
 10
67.281948
 20
-257.526010
 30
0.0
 10
67.400081
 20
-257.484207
 30
0.0
 10
67.459294
 20
-257.463254
 30
0.0
 11
66.906336
 21
-257.526754
 31
0.0
 11
67.093835
 21
-257.540545
 31
0.0
 11
67.279753
 21
-257.519228
 31
0.0
 11
67.459294
 21
-257.463254
 31
0.0
  0
LWPOLYLINE
  5
1d5
100
AcDbEntity
  8
0
 62
7
100
AcDbPolyline
 90
2
 70
0
 10
66.191834
 20
-257.405847
 30
0.0
 10
66.906336
 20
-257.526751
 30
0.0
  0
SPLINE
  5
1d6
100
AcDbEntity
  8
0
 62
7
100
AcDbSpline
 70
0
 71
3
 72
10
 73
6
 74
4
 40
0.000000
 40
0.000000
 40
0.000000
 40
0.000000
 40
0.430330
 40
0.851733
 40
1.282294
 40
1.282294
 40
1.282294
 40
1.282294
 10
65.365064
 20
-256.530566
 30
0.0
 10
65.399433
 20
-256.671511
 30
0.0
 10
65.467459
 20
-256.950479
 30
0.0
 10
65.778579
 20
-257.279627
 30
0.0
 10
66.053267
 20
-257.363475
 30
0.0
 10
66.192088
 20
-257.405850
 30
0.0
 11
65.365064
 21
-256.530566
 31
0.0
 11
65.503560
 21
-256.938000
 31
0.0
 11
65.792988
 21
-257.244287
 31
0.0
 11
66.192088
 21
-257.405850
 31
0.0
  0
LWPOLYLINE
  5
1d7
100
AcDbEntity
  8
0
 62
7
100
AcDbPolyline
 90
2
 70
0
 10
65.030546
 20
-253.531839
 30
0.0
 10
65.365064
 20
-256.530563
 30
0.0
  0
SPLINE
  5
1d8
100
AcDbEntity
  8
0
 62
7
100
AcDbSpline
 70
0
 71
3
 72
10
 73
6
 74
4
 40
0.000000
 40
0.000000
 40
0.000000
 40
0.000000
 40
0.429844
 40
0.850717
 40
1.280741
 40
1.280741
 40
1.280741
 40
1.280741
 10
65.642940
 20
-252.496538
 30
0.0
 10
65.517146
 20
-252.568459
 30
0.0
 10
65.268183
 20
-252.710800
 30
0.0
 10
65.037852
 20
-253.100089
 30
0.0
 10
65.032998
 20
-253.386896
 30
0.0
 10
65.030546
 20
-253.531842
 30
0.0
 11
65.642940
 21
-252.496538
 31
0.0
 11
65.290059
 21
-252.741977
 31
0.0
 11
65.075748
 21
-253.104200
 31
0.0
 11
65.030546
 21
-253.531842
 31
0.0
  0
LWPOLYLINE
  5
1d9
100
AcDbEntity
  8
0
 62
7
100
AcDbPolyline
 90
2
 70
0
 10
66.313754
 20
-252.219678
 30
0.0
 10
65.642940
 20
-252.496540
 30
0.0
  0
SPLINE
  5
1da
100
AcDbEntity
  8
0
 62
7
100
AcDbSpline
 70
0
 71
3
 72
10
 73
6
 74
4
 40
0.000000
 40
0.000000
 40
0.000000
 40
0.000000
 40
0.188574
 40
0.376352
 40
0.564955
 40
0.564955
 40
0.564955
 40
0.564955
 10
66.868744
 20
-252.159480
 30
0.0
 10
66.806201
 20
-252.152057
 30
0.0
 10
66.681379
 20
-252.137243
 30
0.0
 10
66.491969
 20
-252.157926
 30
0.0
 10
66.373246
 20
-252.199233
 30
0.0
 10
66.313754
 20
-252.219932
 30
0.0
 11
66.868744
 21
-252.159480
 31
0.0
 11
66.680774
 21
-252.144390
 31
0.0
 11
66.494103
 21
-252.164748
 31
0.0
 11
66.313754
 21
-252.219932
 31
0.0
  0
LWPOLYLINE
  5
1db
100
AcDbEntity
  8
0
 62
7
100
AcDbPolyline
 90
2
 70
0
 10
69.489770
 20
-252.621252
 30
0.0
 10
66.868744
 20
-252.159482
 30
0.0
  0
SPLINE
  5
1dc
100
AcDbEntity
  8
0
 62
7
100
AcDbSpline
 70
0
 71
3
 72
10
 73
6
 74
4
 40
0.000000
 40
0.000000
 40
0.000000
 40
0.000000
 40
5.377600
 40
10.768730
 40
16.164561
 40
16.164561
 40
16.164561
 40
16.164561
 10
68.369884
 20
-236.497840
 30
0.0
 10
68.452825
 20
-238.288457
 30
0.0
 10
68.618915
 20
-241.874196
 30
0.0
 10
68.972668
 20
-247.251551
 30
0.0
 10
69.317183
 20
-250.830831
 30
0.0
 10
69.489516
 20
-252.621252
 30
0.0
 11
68.369884
 21
-236.497840
 31
0.0
 11
68.636057
 21
-241.868848
 31
0.0
 11
68.999653
 21
-247.247703
 31
0.0
 11
69.489516
 21
-252.621252
 31
0.0
  0
LWPOLYLINE
  5
1dd
100
AcDbEntity
  8
0
 62
7
100
AcDbPolyline
 90
2
 70
0
 10
65.833440
 20
-237.336802
 30
0.0
 10
68.369884
 20
-236.497840
 30
0.0
  0
SPLINE
  5
1de
100
AcDbEntity
  8
0
 62
7
100
AcDbSpline
 70
0
 71
3
 72
10
 73
6
 74
4
 40
0.000000
 40
0.000000
 40
0.000000
 40
0.000000
 40
0.187979
 40
0.375100
 40
0.563001
 40
0.563001
 40
0.563001
 40
0.563001
 10
65.277434
 20
-237.357630
 30
0.0
 10
65.339108
 20
-237.369358
 30
0.0
 10
65.462176
 20
-237.392762
 30
0.0
 10
65.651904
 20
-237.385710
 30
0.0
 10
65.772844
 20
-237.353127
 30
0.0
 10
65.833440
 20
-237.336802
 30
0.0
 11
65.277434
 21
-237.357630
 31
0.0
 11
65.463296
 21
-237.385758
 31
0.0
 11
65.650287
 21
-237.378777
 31
0.0
 11
65.833440
 21
-237.336802
 31
0.0
  0
LWPOLYLINE
  5
1df
100
AcDbEntity
  8
0
 62
7
100
AcDbPolyline
 90
2
 70
0
 10
64.574362
 20
-237.182370
 30
0.0
 10
65.277434
 20
-237.357632
 30
0.0
  0
SPLINE
  5
1e0
100
AcDbEntity
  8
0
 62
7
100
AcDbSpline
 70
0
 71
3
 72
10
 73
6
 74
4
 40
0.000000
 40
0.000000
 40
0.000000
 40
0.000000
 40
0.430444
 40
0.851831
 40
1.282221
 40
1.282221
 40
1.282221
 40
1.282221
 10
63.817188
 20
-236.246126
 30
0.0
 10
63.840655
 20
-236.389320
 30
0.0
 10
63.887095
 20
-236.672696
 30
0.0
 10
64.171805
 20
-237.024916
 30
0.0
 10
64.439234
 20
-237.129516
 30
0.0
 10
64.574362
 20
-237.182370
 30
0.0
 11
63.817188
 21
-236.246126
 31
0.0
 11
63.924028
 21
-236.663099
 31
0.0
 11
64.188969
 21
-236.990778
 31
0.0
 11
64.574362
 21
-237.182370
 31
0.0
  0
LWPOLYLINE
  5
1e1
100
AcDbEntity
  8
0
 62
7
100
AcDbPolyline
 90
2
 70
0
 10
63.714318
 20
-233.230386
 30
0.0
 10
63.817188
 20
-236.246128
 30
0.0
  0
LWPOLYLINE
  5
1e2
100
AcDbEntity
  8
0
 62
7
100
AcDbPolyline
 90
2
 70
0
 10
64.405960
 20
-232.244866
 30
0.0
 10
64.404436
 20
-232.245374
 30
0.0
  0
SPLINE
  5
1e3
100
AcDbEntity
  8
0
 62
7
100
AcDbSpline
 70
0
 71
3
 72
10
 73
6
 74
4
 40
0.000000
 40
0.000000
 40
0.000000
 40
0.000000
 40
0.429897
 40
0.850682
 40
1.280539
 40
1.280539
 40
1.280539
 40
1.280539
 10
64.404436
 20
-232.245372
 30
0.0
 10
64.273480
 20
-232.307438
 30
0.0
 10
64.014345
 20
-232.430257
 30
0.0
 10
63.754817
 20
-232.800617
 30
0.0
 10
63.727913
 20
-233.086113
 30
0.0
 10
63.714318
 20
-233.230384
 30
0.0
 11
64.404436
 21
-232.245372
 31
0.0
 11
64.033718
 21
-232.463040
 31
0.0
 11
63.792258
 21
-232.807652
 31
0.0
 11
63.714318
 21
-233.230384
 31
0.0
  0
LWPOLYLINE
  5
1e4
100
AcDbEntity
  8
0
 62
7
100
AcDbPolyline
 90
2
 70
0
 10
64.405960
 20
-232.244866
 30
0.0
 10
65.095316
 20
-232.022106
 30
0.0
  0
SPLINE
  5
1e5
100
AcDbEntity
  8
0
 62
7
100
AcDbSpline
 70
0
 71
3
 72
10
 73
6
 74
4
 40
0.000000
 40
0.000000
 40
0.000000
 40
0.000000
 40
0.188015
 40
0.375159
 40
0.563120
 40
0.563120
 40
0.563120
 40
0.563120
 10
65.651576
 20
-232.004834
 30
0.0
 10
65.589970
 20
-231.992682
 30
0.0
 10
65.467045
 20
-231.968435
 30
0.0
 10
65.277236
 20
-231.974212
 30
0.0
 10
65.156044
 20
-232.005949
 30
0.0
 10
65.095316
 20
-232.021852
 30
0.0
 11
65.651576
 21
-232.004834
 31
0.0
 11
65.465874
 21
-231.975435
 31
0.0
 11
65.278817
 21
-231.981146
 31
0.0
 11
65.095316
 21
-232.021852
 31
0.0
  0
SPLINE
  5
1e6
100
AcDbEntity
  8
0
 62
7
100
AcDbSpline
 70
0
 71
3
 72
10
 73
6
 74
4
 40
0.000000
 40
0.000000
 40
0.000000
 40
0.000000
 40
0.768100
 40
1.536224
 40
2.304263
 40
2.304263
 40
2.304263
 40
2.304263
 10
68.223326
 20
-232.669806
 30
0.0
 10
68.214537
 20
-232.413923
 30
0.0
 10
68.196958
 20
-231.902150
 30
0.0
 10
68.171767
 20
-231.134475
 30
0.0
 10
68.155678
 20
-230.622674
 30
0.0
 10
68.147634
 20
-230.366788
 30
0.0
 11
68.223326
 21
-232.669806
 31
0.0
 11
68.197154
 21
-231.902152
 31
0.0
 11
68.171943
 21
-231.134441
 31
0.0
 11
68.147634
 21
-230.366788
 31
0.0
  0
LWPOLYLINE
  5
1e7
100
AcDbEntity
  8
0
 62
7
100
AcDbPolyline
 90
2
 70
0
 10
65.651578
 20
-232.004836
 30
0.0
 10
68.223328
 20
-232.669806
 30
0.0
  0
LWPOLYLINE
  5
1e8
100
AcDbEntity
  8
0
 62
1
100
AcDbPolyline
 90
4
 70
1
 10
66.495364
 20
-209.989889
 30
0.0
 10
67.465390
 20
-209.989889
 30
0.0
 10
67.465390
 20
-213.164889
 30
0.0
 10
66.495364
 20
-213.164889
 30
0.0
  0
LWPOLYLINE
  5
1e9
100
AcDbEntity
  8
0
 62
7
100
AcDbPolyline
 90
4
 70
1
 10
286.510327
 20
25.695335
 30
0.0
 10
290.340368
 20
25.695335
 30
0.0
 10
290.340368
 20
30.195197
 30
0.0
 10
286.510327
 20
30.195197
 30
0.0
  0
LWPOLYLINE
  5
1ea
100
AcDbEntity
  8
0
 62
7
100
AcDbPolyline
 90
4
 70
1
 10
266.521010
 20
25.695335
 30
0.0
 10
270.351051
 20
25.695335
 30
0.0
 10
270.351051
 20
30.195197
 30
0.0
 10
266.521010
 20
30.195197
 30
0.0
  0
LWPOLYLINE
  5
1eb
100
AcDbEntity
  8
0
 62
7
100
AcDbPolyline
 90
4
 70
1
 10
246.531718
 20
25.695335
 30
0.0
 10
250.361809
 20
25.695335
 30
0.0
 10
250.361809
 20
30.195197
 30
0.0
 10
246.531718
 20
30.195197
 30
0.0
  0
LWPOLYLINE
  5
1ec
100
AcDbEntity
  8
0
 62
7
100
AcDbPolyline
 90
4
 70
1
 10
226.542400
 20
25.695335
 30
0.0
 10
230.372492
 20
25.695335
 30
0.0
 10
230.372492
 20
30.195197
 30
0.0
 10
226.542400
 20
30.195197
 30
0.0
  0
LWPOLYLINE
  5
1ed
100
AcDbEntity
  8
0
 62
7
100
AcDbPolyline
 90
4
 70
1
 10
206.553159
 20
25.695335
 30
0.0
 10
210.383200
 20
25.695335
 30
0.0
 10
210.383200
 20
30.195197
 30
0.0
 10
206.553159
 20
30.195197
 30
0.0
  0
LWPOLYLINE
  5
1ee
100
AcDbEntity
  8
0
 62
7
100
AcDbPolyline
 90
4
 70
1
 10
186.563842
 20
25.695335
 30
0.0
 10
190.393908
 20
25.695335
 30
0.0
 10
190.393908
 20
30.195197
 30
0.0
 10
186.563842
 20
30.195197
 30
0.0
  0
LWPOLYLINE
  5
1ef
100
AcDbEntity
  8
0
 62
7
100
AcDbPolyline
 90
4
 70
1
 10
166.574549
 20
25.695335
 30
0.0
 10
170.404615
 20
25.695335
 30
0.0
 10
170.404615
 20
30.195197
 30
0.0
 10
166.574549
 20
30.195197
 30
0.0
  0
LWPOLYLINE
  5
1f0
100
AcDbEntity
  8
0
 62
7
100
AcDbPolyline
 90
4
 70
1
 10
146.585257
 20
25.695335
 30
0.0
 10
150.415323
 20
25.695335
 30
0.0
 10
150.415323
 20
30.195197
 30
0.0
 10
146.585257
 20
30.195197
 30
0.0
  0
LWPOLYLINE
  5
1f1
100
AcDbEntity
  8
0
 62
7
100
AcDbPolyline
 90
4
 70
1
 10
126.595965
 20
25.695335
 30
0.0
 10
130.426031
 20
25.695335
 30
0.0
 10
130.426031
 20
30.195197
 30
0.0
 10
126.595965
 20
30.195197
 30
0.0
  0
LWPOLYLINE
  5
1f2
100
AcDbEntity
  8
0
 62
7
100
AcDbPolyline
 90
4
 70
1
 10
106.606673
 20
25.695335
 30
0.0
 10
110.436739
 20
25.695335
 30
0.0
 10
110.436739
 20
30.195197
 30
0.0
 10
106.606673
 20
30.195197
 30
0.0
  0
LWPOLYLINE
  5
1f3
100
AcDbEntity
  8
0
 62
7
100
AcDbPolyline
 90
4
 70
1
 10
86.617381
 20
25.695335
 30
0.0
 10
90.447447
 20
25.695335
 30
0.0
 10
90.447447
 20
30.195197
 30
0.0
 10
86.617381
 20
30.195197
 30
0.0
  0
LWPOLYLINE
  5
1f4
100
AcDbEntity
  8
0
 62
7
100
AcDbPolyline
 90
4
 70
1
 10
66.628089
 20
25.695335
 30
0.0
 10
70.458155
 20
25.695335
 30
0.0
 10
70.458155
 20
30.195197
 30
0.0
 10
66.628089
 20
30.195197
 30
0.0
  0
LWPOLYLINE
  5
1f5
100
AcDbEntity
  8
0
 62
7
100
AcDbPolyline
 90
4
 70
1
 10
46.638797
 20
25.695335
 30
0.0
 10
50.468863
 20
25.695335
 30
0.0
 10
50.468863
 20
30.195197
 30
0.0
 10
46.638797
 20
30.195197
 30
0.0
  0
LWPOLYLINE
  5
1f6
100
AcDbEntity
  8
0
 62
7
100
AcDbPolyline
 90
4
 70
1
 10
26.649495
 20
25.695335
 30
0.0
 10
30.479563
 20
25.695335
 30
0.0
 10
30.479563
 20
30.195197
 30
0.0
 10
26.649495
 20
30.195197
 30
0.0
  0
LWPOLYLINE
  5
1f7
100
AcDbEntity
  8
0
 62
7
100
AcDbPolyline
 90
4
 70
1
 10
10.490284
 20
25.695335
 30
0.0
 10
10.490284
 20
30.195197
 30
0.0
 10
6.660218
 20
30.195197
 30
0.0
 10
6.660218
 20
25.695335
 30
0.0
  0
LWPOLYLINE
  5
1f8
100
AcDbEntity
  8
0
 62
7
100
AcDbPolyline
 90
2
 70
0
 10
0.000333
 20
-169.804658
 30
0.0
 10
297.000223
 20
-169.804658
 30
0.0
  0
LWPOLYLINE
  5
1f9
100
AcDbEntity
  8
0
 62
7
100
AcDbPolyline
 90
2
 70
0
 10
0.000333
 20
40.195433
 30
0.0
 10
0.000333
 20
-169.804658
 30
0.0
  0
LWPOLYLINE
  5
1fa
100
AcDbEntity
  8
0
 62
7
100
AcDbPolyline
 90
2
 70
0
 10
297.000223
 20
40.195433
 30
0.0
 10
0.000333
 20
40.195433
 30
0.0
  0
LWPOLYLINE
  5
1fb
100
AcDbEntity
  8
0
 62
7
100
AcDbPolyline
 90
2
 70
0
 10
297.000223
 20
-169.804658
 30
0.0
 10
297.000223
 20
40.195433
 30
0.0
  0
SPLINE
  5
1fc
100
AcDbEntity
  8
0
 62
7
100
AcDbSpline
 70
0
 71
3
 72
10
 73
6
 74
4
 40
0.000000
 40
0.000000
 40
0.000000
 40
0.000000
 40
1.979545
 40
3.923269
 40
5.902848
 40
5.902848
 40
5.902848
 40
5.902848
 10
68.147634
 20
-230.366534
 30
0.0
 10
68.048445
 20
-229.707899
 30
0.0
 10
67.851863
 20
-228.402547
 30
0.0
 10
66.641469
 20
-226.726544
 30
0.0
 10
65.464088
 20
-226.129544
 30
0.0
 10
64.870018
 20
-225.828316
 30
0.0
 11
68.147634
 21
-230.366534
 31
0.0
 11
67.695307
 21
-228.439360
 31
0.0
 11
66.557293
 21
-226.863610
 31
0.0
 11
64.870018
 21
-225.828316
 31
0.0
  0
LWPOLYLINE
  5
1fd
100
AcDbEntity
  8
0
 62
1
100
AcDbPolyline
 90
2
 70
0
 10
62.526865
 20
-187.416637
 30
0.0
 10
234.473936
 20
-187.416637
 30
0.0
  0
ENDSEC
  0
SECTION
  2
OBJECTS
  0
DICTIONARY
  5
C
330
0
100
AcDbDictionary
  3
ACAD_GROUP
350
D
  3
ACAD_MLINESTYLE
350
17
  0
DICTIONARY
  5
D
330
C
100
AcDbDictionary
  0
DICTIONARY
  5
1A
330
C
100
AcDbDictionary
  0
DICTIONARY
  5
17
330
C
100
AcDbDictionary
  3
STANDARD
350
18
  0
DICTIONARY
  5
19
330
C
100
AcDbDictionary
  0
ENDSEC
  0
EOF
