<?xml version="1.0" encoding="UTF-8"?>
<!DOCTYPE svg PUBLIC "-//W3C//DTD SVG 1.1//EN" "http://www.w3.org/Graphics/SVG/1.1/DTD/svg11.dtd">
<!-- Creator: CorelDRAW 2019 (64-Bit) -->
<svg xmlns="http://www.w3.org/2000/svg" xml:space="preserve" width="8.5in" height="11in" version="1.1" style="shape-rendering:geometricPrecision; text-rendering:geometricPrecision; image-rendering:optimizeQuality; fill-rule:evenodd; clip-rule:evenodd"
viewBox="0 0 8500 11000"
 xmlns:xlink="http://www.w3.org/1999/xlink"
 xmlns:xodm="http://www.corel.com/coreldraw/odm/2003">
 <defs>
  <style type="text/css">
   <![CDATA[
    .str2 {stroke:#373435;stroke-width:3;stroke-miterlimit:2.61313}
    .str1 {stroke:#4C4C99;stroke-width:7.09;stroke-linejoin:bevel;stroke-miterlimit:2.61313}
    .str0 {stroke:#5B5B5B;stroke-width:7.09;stroke-linejoin:bevel;stroke-miterlimit:2.61313}
    .fil0 {fill:none}
   ]]>
  </style>
 </defs>
 <g id="Layer_x0020_1">
  <metadata id="CorelCorpID_0Corel-Layer"/>
  <g id="_2304217035600">
   <g>
    <path class="fil0 str0" d="M853.42 3800.48c1.91,129.56 6.95,470.43 12.35,836.69m1.74 118.11c7.85,532.18 15.88,1075.83 15.88,1075.83 23.5,256.81 32.07,302.71 72.02,528.43 2.5,14.13 5.06,28.26 7.69,42.38m23.22 115.91c2.21,10.26 4.46,20.52 6.75,30.76 14.04,62.75 29.66,125.14 47.44,186.72 17.79,61.58 37.72,122.37 60.5,181.76 22.78,59.39 48.41,117.4 77.55,173.44 29.14,56.04 61.78,110.11 98.43,161.69 8.82,12.42 17.88,24.7 27.17,36.83m76.66 90.89c6,6.48 12.09,12.9 18.26,19.27 44.79,46.3 93.72,89.81 146.53,130.44 52.83,40.63 109.53,78.39 169.61,113.35 60.07,34.96 123.53,67.14 189.68,96.74 33.36,14.93 67.41,29.2 102.05,42.85m106.43 39.4c69.99,24.34 141.89,46.45 215.09,66.59 74.11,20.41 149.56,38.8 225.82,55.43 76.27,16.64 153.37,31.52 230.96,44.88 72.27,12.44 144.96,23.57 217.91,33.51m117.31 14.98c44.77,5.34 89.62,10.27 134.51,14.8 78.76,7.96 157.67,14.73 236.67,20.43 79.01,5.69 158.11,10.3 237.31,13.89 79.2,3.6 158.5,6.19 237.93,7.78 65.08,1.31 130.24,1.95 195.51,1.93m118.48 0c65.92,0.04 131.74,-0.61 197.47,-1.93 79.43,-1.6 158.73,-4.19 237.93,-7.78 79.2,-3.59 158.31,-8.2 237.31,-13.89 79,-5.7 157.91,-12.46 236.67,-20.43 45.04,-4.55 90.03,-9.5 134.95,-14.86m116.62 -14.89c73.03,-9.95 145.81,-21.09 218.16,-33.55 77.59,-13.36 154.69,-28.24 230.96,-44.88 76.27,-16.63 151.71,-35.02 225.82,-55.43 73.2,-20.14 145.11,-42.25 215.09,-66.59m106.43 -39.4c34.64,-13.65 68.69,-27.92 102.05,-42.85 66.15,-29.59 129.6,-61.77 189.68,-96.74 60.08,-34.96 116.78,-72.72 169.61,-113.35 52.81,-40.63 101.75,-84.14 146.54,-130.44 6.16,-6.37 12.25,-12.8 18.26,-19.27m76.65 -90.88c9.29,-12.13 18.35,-24.41 27.18,-36.84 36.65,-51.58 69.29,-105.65 98.43,-161.69 29.14,-56.04 54.77,-114.05 77.55,-173.44 22.78,-59.39 42.71,-120.17 60.5,-181.76 17.78,-61.58 33.4,-123.98 47.44,-186.72 2.29,-10.24 4.54,-20.5 6.75,-30.76m22.46 -111.85c2.89,-15.47 5.71,-30.95 8.45,-46.44 39.95,-225.71 48.52,-271.61 72.02,-528.43 0,0 8.03,-543.65 15.88,-1075.83m1.69 -114.09c5.43,-367.79 10.49,-710.67 12.41,-840.7"/>
    <path class="fil0 str0" d="M851.79 3682.37c-3.23,-249.94 -14.99,-1157.85 -14.99,-1157.85 0,0 224.62,0 224.62,0 103.04,84.49 176.83,169.7 179.78,299.57"/>
    <path class="fil0 str0" d="M1257.96 3745.41c-3.87,-256.98 14.29,-696.77 -25.7,-995.85"/>
    <path class="fil0 str0" d="M7187.28 3745.41c-1.41,93.42 -5.72,189.06 -16.81,290.54 -8.06,73.8 -15.41,144.59 -22.48,212.72 -7.06,68.13 -13.81,133.59 -20.92,196.98 -7.1,63.38 -14.56,124.69 -23.35,184.77 -8.79,60.08 -18.89,118.94 -31.37,177.45 -12.48,58.52 -27.33,116.69 -45.45,175.16 -18.13,58.48 -39.53,117.27 -64.74,176.54 -25.2,59.26 -54.2,118.99 -87,178.7 -32.78,59.7 -69.35,119.39 -109.35,178.21 -40,58.82 -83.43,116.78 -129.73,172.95 -46.31,56.17 -95.51,110.55 -147.01,162.38 -51.5,51.83 -105.31,101.09 -161.01,147.5 -55.69,46.41 -113.28,89.97 -172.51,130.82 -59.23,40.85 -120.1,78.98 -182.5,114.78 -62.39,35.8 -126.31,69.24 -191.71,100.77 -65.41,31.52 -132.3,61.12 -200.68,89.09 -68.39,27.97 -138.28,54.31 -209.67,78.99 -71.39,24.68 -144.3,47.69 -218.69,68.69 -74.4,20.99 -150.29,39.97 -227.63,56.42 -77.33,16.45 -156.11,30.39 -236.22,41.27 -80.11,10.89 -161.54,18.72 -244.12,23.07 -73.08,3.86 -147.06,5 -221.72,3.29 -74.66,1.7 -148.63,0.57 -221.72,-3.29 -82.57,-4.35 -164.01,-12.19 -244.12,-23.07 -80.11,-10.88 -158.89,-24.82 -236.22,-41.27 -77.33,-16.45 -153.22,-35.43 -227.63,-56.42 -74.39,-21 -147.3,-44.01 -218.69,-68.69 -71.39,-24.68 -141.28,-51.02 -209.67,-78.99 -68.39,-27.97 -135.28,-57.57 -200.68,-89.09 -65.41,-31.52 -129.32,-64.97 -191.71,-100.77 -62.4,-35.8 -123.27,-73.93 -182.5,-114.78 -59.23,-40.85 -116.82,-84.41 -172.51,-130.82 -55.7,-46.41 -109.51,-95.68 -161.02,-147.5 -51.5,-51.83 -100.7,-106.21 -147.01,-162.38 -46.31,-56.17 -89.73,-114.13 -129.73,-172.95 -40,-58.82 -76.57,-118.5 -109.35,-178.21 -32.8,-59.7 -61.8,-119.44 -87,-178.7 -25.2,-59.26 -46.61,-118.05 -64.74,-176.54 -18.13,-58.48 -32.97,-116.65 -45.45,-175.16 -12.48,-58.51 -22.58,-117.37 -31.37,-177.45 -8.78,-60.08 -16.25,-121.39 -23.35,-184.77 -7.11,-63.39 -13.86,-128.85 -20.92,-196.98 -7.06,-68.13 -14.42,-138.93 -22.48,-212.72 -11.08,-101.48 -15.4,-197.12 -16.81,-290.54"/>
    <path class="fil0 str1" d="M924.32 5471.38c0,0 -44.05,27.1 -44.05,27.1 0,0 113.31,-69.7 113.31,-69.7"/>
    <path class="fil0 str1" d="M962.65 5579.69c0,0 -80.54,49.54 -80.54,49.54 0,0 104.54,-64.3 104.54,-64.3"/>
    <path class="fil0 str1" d="M1042.46 5670.75c0,0 -157.72,97.01 -157.72,97.01 0,0 148.27,-91.2 148.27,-91.2"/>
    <path class="fil0 str1" d="M1356.87 5620.76c0,0 -227.77,145.7 -227.77,145.7"/>
    <path class="fil0 str1" d="M1152.27 5547.97c0,0 -188.65,111.99 -188.65,111.99"/>
    <path class="fil0 str1" d="M1249.09 5278.43c0,0 -187.4,118.78 -187.4,118.78"/>
    <path class="fil0 str1" d="M1282.55 5390.92c0,0 -110.57,68.01 -110.57,68.01 0,0 -90.02,58.99 -90.02,58.99"/>
    <path class="fil0 str1" d="M1331.87 5505.64c0,0 -215.99,129.43 -215.99,129.43"/>
    <path class="fil0 str1" d="M1053.54 5802.04c0,0 -163.46,100.56 -163.46,100.56"/>
    <path class="fil0 str1" d="M1114.09 5426.37c0,0 -165.43,98.21 -165.43,98.21"/>
    <path class="fil0 str1" d="M1164.8 5666.78c0,0 -190.31,116.83 -190.31,116.83"/>
    <path class="fil0 str1" d="M1494.34 5122.99c0,0 -158.01,100.15 -158.01,100.15"/>
    <path class="fil0 str1" d="M1436.32 5226.88c0,0 -190.52,120.79 -190.52,120.79"/>
    <path class="fil0 str1" d="M1536.15 5239.94c0,0 -168.37,110.34 -168.37,110.34"/>
    <path class="fil0 str1" d="M1470.21 5349.98c0,0 -203.06,128.74 -203.06,128.74"/>
    <path class="fil0 str1" d="M1593.11 5349.09c0,0 -165.4,99.11 -165.4,99.11"/>
    <path class="fil0 str1" d="M1515.35 5460.29c0,0 -203.06,128.74 -203.06,128.74"/>
    <path class="fil0 str1" d="M1647.96 5439.57c0,0 -181.13,115.87 -181.13,115.87"/>
    <path class="fil0 str1" d="M1084.57 5319.87c0,0 -165.43,98.21 -165.43,98.21"/>
    <path class="fil0 str1" d="M1406.81 5120.39c0,0 -184.95,117.26 -184.95,117.26"/>
    <path class="fil0 str1" d="M1246 5158.03c0,0 -193.12,122.41 -193.12,122.41"/>
    <path class="fil0 str1" d="M982.45 5313.42c0,0 -111,68.28 -111,68.28"/>
    <path class="fil0 str1" d="M1458.63 5023.25c0,0 -131.12,83.11 -131.12,83.11"/>
    <path class="fil0 str0" d="M7593.46 3682.37c3.23,-249.94 14.99,-1157.85 14.99,-1157.85 0,0 -224.62,0 -224.62,0 -103.03,84.49 -176.83,169.7 -179.78,299.57"/>
    <path class="fil0 str0" d="M7187.28 3745.41c3.87,-256.98 -14.29,-696.77 25.7,-995.85"/>
    <path class="fil0 str1" d="M7522.55 5472.38c0,0 42.43,26.1 42.43,26.1 0,0 -109.13,-67.13 -109.13,-67.13"/>
    <path class="fil0 str1" d="M7473.96 5574.38c0,0 89.17,54.85 89.17,54.85 0,-0 -115.74,-71.19 -115.74,-71.19"/>
    <path class="fil0 str1" d="M7412.37 5676.65c0,0 150.37,92.49 150.37,92.49 0,0 -141.36,-86.95 -141.36,-86.95"/>
    <path class="fil0 str1" d="M7088.39 5620.75c0,0 227.77,145.71 227.77,145.71"/>
    <path class="fil0 str1" d="M7321.19 5564.72c0,0 160.44,95.25 160.44,95.25"/>
    <path class="fil0 str1" d="M7184.21 5270.86c0,0 199.35,126.35 199.35,126.35"/>
    <path class="fil0 str1" d="M7158 5388.17c0,0 118.83,73.09 118.83,73.09 0,0 96.73,63.39 96.73,63.39"/>
    <path class="fil0 str1" d="M7113.38 5505.63c0,0 215.98,129.43 215.98,129.43"/>
    <path class="fil0 str1" d="M7391.71 5802.04c0,0 162.36,99.88 162.36,99.88"/>
    <path class="fil0 str1" d="M7355.56 5440.85c0,0 141.03,83.73 141.03,83.73"/>
    <path class="fil0 str1" d="M7300.94 5679.36c0,0 169.81,104.25 169.81,104.25"/>
    <path class="fil0 str1" d="M6950.91 5122.99c0,0 158.01,100.15 158.01,100.15"/>
    <path class="fil0 str1" d="M7008.93 5226.88c0,0 203.06,128.74 203.06,128.74"/>
    <path class="fil0 str1" d="M6909.1 5239.94c0,0 144.45,94.66 144.45,94.66"/>
    <path class="fil0 str1" d="M6975.04 5349.98c0,0 203.06,128.74 203.06,128.74"/>
    <path class="fil0 str1" d="M6852.15 5349.09c0,0 165.4,99.11 165.4,99.11"/>
    <path class="fil0 str1" d="M6929.91 5460.28c0,0 203.06,128.74 203.06,128.74"/>
    <path class="fil0 str1" d="M6797.29 5439.57c0,0 181.13,115.87 181.13,115.87"/>
    <path class="fil0 str1" d="M7360.67 5319.87c0,0 165.43,98.21 165.43,98.21"/>
    <path class="fil0 str1" d="M7038.44 5120.38c0,0 203.06,128.74 203.06,128.74"/>
    <path class="fil0 str1" d="M7193.03 5154.08c0,0 199.35,126.35 199.35,126.35"/>
    <path class="fil0 str1" d="M7462.57 5313.28c0,0 111.22,68.42 111.22,68.42"/>
    <path class="fil0 str1" d="M6986.62 5023.25c0,0 131.12,83.11 131.12,83.11"/>
    <path class="fil0 str0" d="M970.28 2956.86c0,-86.99 27.35,-157.5 61.08,-157.5 33.74,0 61.08,70.51 61.08,157.5 0,86.96 -27.35,157.46 -61.08,157.46 -33.74,0 -61.08,-70.5 -61.08,-157.46z"/>
    <path class="fil0 str0" d="M7474.97 2956.86c0,-86.99 -27.35,-157.5 -61.08,-157.5 -33.74,0 -61.08,70.51 -61.08,157.5 0,86.96 27.34,157.46 61.08,157.46 33.74,0 61.08,-70.5 61.08,-157.46z"/>
    <path class="fil0 str0" d="M4244.51 6931.09c-10.35,0 -20.57,1.62 -30.41,4.81 -9.85,3.2 -19.07,7.9 -27.44,13.98 -8.37,6.08 -15.69,13.4 -21.78,21.77 -6.08,8.37 -10.78,17.59 -13.98,27.44 -3.2,9.84 -4.82,20.06 -4.82,30.41 0,10.35 1.62,20.57 4.82,30.41 3.2,9.85 7.89,19.07 13.98,27.44 6.09,8.37 13.41,15.69 21.78,21.77 8.37,6.09 17.59,10.78 27.44,13.98 9.84,3.2 20.06,4.81 30.41,4.81 10.35,0 20.57,-1.62 30.41,-4.81 9.84,-3.2 19.07,-7.9 27.44,-13.98 8.37,-6.08 15.69,-13.4 21.78,-21.77 6.08,-8.37 10.78,-17.59 13.98,-27.44 3.2,-9.84 4.82,-20.06 4.82,-30.41 0,-10.35 -1.62,-20.57 -4.82,-30.41 -3.2,-9.85 -7.9,-19.07 -13.98,-27.44 -6.08,-8.37 -13.4,-15.69 -21.78,-21.77 -8.37,-6.09 -17.59,-10.78 -27.44,-13.98 -9.84,-3.2 -20.06,-4.81 -30.41,-4.81z"/>
    <path class="fil0 str0" d="M2935.07 6745.72c-10.35,0 -20.57,1.62 -30.42,4.81 -9.84,3.2 -19.06,7.9 -27.44,13.98 -8.37,6.09 -15.69,13.4 -21.78,21.78 -6.08,8.37 -10.78,17.59 -13.98,27.44 -3.2,9.85 -4.81,20.07 -4.81,30.42 0,10.35 1.62,20.57 4.81,30.41 3.2,9.85 7.9,19.07 13.98,27.44 6.09,8.37 13.4,15.69 21.78,21.77 8.37,6.09 17.59,10.78 27.44,13.98 9.85,3.2 20.07,4.82 30.42,4.82 10.35,0 20.57,-1.62 30.41,-4.82 9.85,-3.2 19.07,-7.89 27.44,-13.98 8.37,-6.08 15.69,-13.4 21.77,-21.77 6.09,-8.37 10.78,-17.59 13.98,-27.44 3.2,-9.84 4.82,-20.06 4.82,-30.41 0,-10.35 -1.62,-20.57 -4.82,-30.42 -3.2,-9.84 -7.89,-19.06 -13.98,-27.44 -6.08,-8.37 -13.4,-15.69 -21.77,-21.78 -8.37,-6.08 -17.59,-10.78 -27.44,-13.98 -9.84,-3.2 -20.07,-4.81 -30.41,-4.81z"/>
    <path class="fil0 str0" d="M1907.3 6176.27c-10.35,0 -20.57,1.62 -30.42,4.81 -9.84,3.2 -19.06,7.9 -27.44,13.98 -8.37,6.08 -15.69,13.4 -21.78,21.77 -6.08,8.37 -10.78,17.59 -13.98,27.44 -3.2,9.84 -4.81,20.06 -4.81,30.41 0,10.35 1.62,20.57 4.81,30.41 3.2,9.85 7.9,19.07 13.98,27.44 6.08,8.37 13.41,15.69 21.78,21.77 8.37,6.09 17.59,10.78 27.44,13.98 9.85,3.2 20.07,4.81 30.42,4.81 10.35,0 20.57,-1.62 30.41,-4.81 9.84,-3.2 19.07,-7.9 27.44,-13.98 8.37,-6.08 15.69,-13.4 21.78,-21.77 6.08,-8.37 10.78,-17.59 13.98,-27.44 3.2,-9.84 4.82,-20.06 4.82,-30.41 0,-10.35 -1.62,-20.57 -4.82,-30.41 -3.2,-9.85 -7.9,-19.07 -13.98,-27.44 -6.08,-8.37 -13.4,-15.69 -21.78,-21.77 -8.37,-6.09 -17.59,-10.78 -27.44,-13.98 -9.84,-3.2 -20.06,-4.81 -30.41,-4.81z"/>
    <path class="fil0 str0" d="M5494.31 6797.49c-10.35,0 -20.57,1.62 -30.42,4.82 -9.84,3.2 -19.06,7.89 -27.44,13.98 -8.37,6.08 -15.69,13.4 -21.77,21.77 -6.09,8.37 -10.78,17.59 -13.98,27.44 -3.2,9.84 -4.81,20.06 -4.81,30.41 0,10.35 1.62,20.57 4.81,30.42 3.2,9.84 7.9,19.06 13.98,27.44 6.08,8.37 13.4,15.69 21.77,21.78 8.37,6.08 17.59,10.78 27.44,13.98 9.85,3.2 20.07,4.82 30.42,4.82 10.35,0 20.57,-1.62 30.41,-4.82 9.85,-3.2 19.07,-7.89 27.44,-13.98 8.37,-6.09 15.69,-13.41 21.77,-21.78 6.09,-8.37 10.78,-17.59 13.98,-27.44 3.2,-9.85 4.82,-20.07 4.82,-30.42 0,-10.35 -1.62,-20.57 -4.82,-30.41 -3.2,-9.85 -7.89,-19.07 -13.98,-27.44 -6.08,-8.37 -13.4,-15.69 -21.77,-21.77 -8.37,-6.09 -17.59,-10.78 -27.44,-13.98 -9.84,-3.2 -20.06,-4.82 -30.41,-4.82z"/>
    <path class="fil0 str0" d="M6462.86 6205.25c-10.35,0 -20.57,1.62 -30.42,4.82 -9.84,3.2 -19.06,7.89 -27.44,13.98 -8.37,6.08 -15.69,13.4 -21.78,21.77 -6.08,8.37 -10.78,17.59 -13.98,27.44 -3.2,9.84 -4.81,20.06 -4.81,30.41 0,10.35 1.62,20.57 4.81,30.41 3.2,9.85 7.9,19.07 13.98,27.44 6.09,8.37 13.4,15.69 21.78,21.78 8.37,6.08 17.59,10.78 27.44,13.98 9.85,3.2 20.07,4.82 30.42,4.82 10.35,0 20.57,-1.62 30.41,-4.82 9.85,-3.2 19.07,-7.89 27.44,-13.98 8.37,-6.09 15.69,-13.41 21.78,-21.78 6.09,-8.37 10.78,-17.59 13.98,-27.44 3.2,-9.84 4.82,-20.06 4.82,-30.41 0,-10.35 -1.62,-20.57 -4.82,-30.41 -3.2,-9.85 -7.89,-19.07 -13.98,-27.44 -6.08,-8.37 -13.4,-15.69 -21.78,-21.77 -8.37,-6.09 -17.59,-10.78 -27.44,-13.98 -9.84,-3.2 -20.06,-4.82 -30.41,-4.82z"/>
   </g>
   <path class="fil0 str2" d="M839.98 3800.48l11.81 0m0 -118.11l-11.81 0m-106.3 0l0 118.11"/>
   <line class="fil0 str2" x1="839.98" y1="3682.37" x2="839.98" y2= "3683.02" />
   <path class="fil0 str2" d="M839.98 3682.37l0 0.66m-106.3 0l0 -0.66"/>
   <polyline class="fil0 str2" points="733.68,3682.37 786.83,3659.4 839.98,3682.37 "/>
   <polyline class="fil0 str2" points="733.68,3800.48 786.83,3823.44 839.98,3800.48 "/>
   <path class="fil0 str2" d="M853.96 4755.28l11.81 0m0 -118.11l-11.81 0m-106.3 0l0 118.11"/>
   <line class="fil0 str2" x1="853.96" y1="4637.17" x2="853.96" y2= "4637.82" />
   <path class="fil0 str2" d="M853.96 4637.17l0 0.66m-106.3 0l0 -0.66"/>
   <polyline class="fil0 str2" points="747.66,4637.17 800.81,4614.2 853.96,4637.17 "/>
   <polyline class="fil0 str2" points="747.66,4755.28 800.81,4778.24 853.96,4755.28 "/>
   <g>
    <path class="fil0 str2" d="M1370.49 7387.45l9.09 -7.54m-75.44 -90.88l-9.09 7.54m-81.8 67.89l75.43 90.88"/>
    <line class="fil0 str2" x1="1295.06" y1="7296.57" x2="1295.48" y2= "7297.07" />
    <path class="fil0 str2" d="M1295.06 7296.57l0.42 0.5m-81.8 67.89l-0.42 -0.5"/>
    <polyline class="fil0 str2" points="1213.26,7364.46 1239.5,7312.85 1295.06,7296.57 "/>
    <polyline class="fil0 str2" points="1288.7,7455.34 1344.26,7439.07 1370.49,7387.45 "/>
   </g>
   <path class="fil0 str2" d="M2109.48 7836.43l4.1 -11.07m-110.75 -41.04l-4.1 11.07m-36.93 99.68l110.75 41.04"/>
   <line class="fil0 str2" x1="1998.72" y1="7795.39" x2="1999.34" y2= "7795.62" />
   <path class="fil0 str2" d="M1998.72 7795.39l0.62 0.23m-36.93 99.68l-0.62 -0.23"/>
   <polyline class="fil0 str2" points="1961.79,7895.07 1958.72,7837.25 1998.72,7795.39 "/>
   <polyline class="fil0 str2" points="2072.54,7936.1 2112.54,7894.24 2109.48,7836.43 "/>
   <path class="fil0 str2" d="M3118.94 8052.49l1.52 -15.14m-117.31 -14.98l-1.56 16.69m-12.09 105.61l117.34 13.44"/>
   <line class="fil0 str2" x1="3001.6" y1="8039.06" x2="3002.25" y2= "8039.13" />
   <path class="fil0 str2" d="M3001.6 8039.06l0.65 0.07m-12.09 105.61l-0.65 -0.07"/>
   <polyline class="fil0 str2" points="2989.51,8144.67 2972.74,8089.25 3001.6,8039.06 "/>
   <polyline class="fil0 str2" points="3106.85,8158.1 3135.71,8107.91 3118.94,8052.49 "/>
   <path class="fil0 str2" d="M7605.7 3800.48l-11.81 0m0 -118.11l11.81 0m106.3 0l0 118.11"/>
   <line class="fil0 str2" x1="7605.7" y1="3682.37" x2="7605.7" y2= "3683.02" />
   <path class="fil0 str2" d="M7605.7 3682.37l0 0.66m106.3 0l0 -0.66"/>
   <polyline class="fil0 str2" points="7712,3682.37 7658.85,3659.4 7605.7,3682.37 "/>
   <polyline class="fil0 str2" points="7712,3800.48 7658.85,3823.44 7605.7,3800.48 "/>
   <path class="fil0 str2" d="M7591.72 4755.28l-11.81 0m0 -118.11l11.81 0m106.3 0l0 118.11"/>
   <line class="fil0 str2" x1="7591.72" y1="4637.17" x2="7591.72" y2= "4637.82" />
   <path class="fil0 str2" d="M7591.72 4637.17l0 0.66m106.3 0l0 -0.66"/>
   <polyline class="fil0 str2" points="7698.02,4637.17 7644.87,4614.2 7591.72,4637.17 "/>
   <polyline class="fil0 str2" points="7698.02,4755.28 7644.87,4778.24 7591.72,4755.28 "/>
   <path class="fil0 str2" d="M7471.37 6524.2l-11.6 -2.2m22.05 -116.03l11.6 2.2m104.43 19.84l-22.05 116.03"/>
   <line class="fil0 str2" x1="7493.42" y1="6408.17" x2="7493.3" y2= "6408.81" />
   <path class="fil0 str2" d="M7493.42 6408.17l-0.12 0.65m104.43 19.84l0.12 -0.65"/>
   <polyline class="fil0 str2" points="7597.85,6428.01 7549.92,6395.53 7493.42,6408.17 "/>
   <polyline class="fil0 str2" points="7575.8,6544.04 7519.3,6556.69 7471.37,6524.2 "/>
   <path class="fil0 str2" d="M7075.19 7387.45l-9.09 -7.54m75.44 -90.88l9.09 7.54m81.8 67.89l-75.43 90.88"/>
   <line class="fil0 str2" x1="7150.62" y1="7296.57" x2="7150.2" y2= "7297.07" />
   <path class="fil0 str2" d="M7150.62 7296.57l-0.42 0.5m81.8 67.89l0.42 -0.5"/>
   <polyline class="fil0 str2" points="7232.41,7364.46 7206.18,7312.85 7150.62,7296.57 "/>
   <polyline class="fil0 str2" points="7156.98,7455.34 7101.41,7439.07 7075.19,7387.45 "/>
   <path class="fil0 str2" d="M6336.2 7836.43l-4.1 -11.07m110.75 -41.04l4.1 11.07m36.93 99.68l-110.75 41.04"/>
   <line class="fil0 str2" x1="6446.95" y1="7795.39" x2="6446.33" y2= "7795.62" />
   <path class="fil0 str2" d="M6446.95 7795.39l-0.62 0.23m36.93 99.68l0.62 -0.23"/>
   <polyline class="fil0 str2" points="6483.89,7895.07 6486.95,7837.25 6446.95,7795.39 "/>
   <polyline class="fil0 str2" points="6373.13,7936.1 6333.13,7894.24 6336.2,7836.43 "/>
   <path class="fil0 str2" d="M5326.74 8052.49l-1.5 -15.2m116.62 -14.89l2.23 16.66m12.09 105.61l-117.34 13.44"/>
   <line class="fil0 str2" x1="5444.08" y1="8039.06" x2="5443.43" y2= "8039.13" />
   <path class="fil0 str2" d="M5444.08 8039.06l-0.65 0.07m12.09 105.61l0.65 -0.07"/>
   <polyline class="fil0 str2" points="5456.17,8144.67 5472.94,8089.25 5444.08,8039.06 "/>
   <polyline class="fil0 str2" points="5338.83,8158.1 5309.96,8107.91 5326.74,8052.49 "/>
   <path class="fil0 str2" d="M4280.52 8108.81l0.43 -14.85m-118.54 0.2l0 14.63m-0.01 106.3l118.11 0.02"/>
   <line class="fil0 str2" x1="4162.41" y1="8108.8" x2="4163.06" y2= "8108.8" />
   <path class="fil0 str2" d="M4162.41 8108.8l0.66 0m-0.01 106.3l-0.66 0"/>
   <polyline class="fil0 str2" points="4162.39,8215.09 4139.44,8161.94 4162.41,8108.8 "/>
   <polyline class="fil0 str2" points="4280.5,8215.11 4303.48,8161.96 4280.52,8108.81 "/>
   <g>
    <path class="fil0 str2" d="M974.2 6520.07l11.59 -2.25m-22.52 -115.94l-11.59 2.25m-104.35 20.27l22.52 115.94"/>
    <line class="fil0 str2" x1="951.68" y1="6404.13" x2="951.81" y2= "6404.77" />
    <path class="fil0 str2" d="M951.68 6404.13l0.13 0.65m-104.35 20.27l-0.13 -0.65"/>
    <polyline class="fil0 str2" points="847.33,6424.39 895.13,6391.72 951.68,6404.13 "/>
    <polyline class="fil0 str2" points="869.85,6540.33 926.41,6552.75 974.2,6520.07 "/>
   </g>
  </g>
 </g>
</svg>
