  0
SECTION
  2
HEADER
  9
$ACADVER
  1
AC1014
  9
$HANDSEED
  5
FFFF
  9
$MEASUREMENT
 70
     1
  0
ENDSEC
  0
SECTION
  2
TABLES
  0
TABLE
  2
VPORT
  5
8
330
0
100
AcDbSymbolTable
 70
     4
  0
VPORT
  5
2E
330
8
100
AcDbSymbolTableRecord
100
AcDbViewportTableRecord
  2
*ACTIVE
 70
     0
 10
0.0
 20
0.0
 11
1.0
 21
1.0
 12
210.0
 22
148.5
 13
0.0
 23
0.0
 14
10.0
 24
10.0
 15
10.0
 25
10.0
 16
0.0
 26
0.0
 36
1.0
 17
0.0
 27
0.0
 37
0.0
 40
341.0
 41
1.24
 42
50.0
 43
0.0
 44
0.0
 50
0.0
 51
0.0
 71
     0
 72
   100
 73
     1
 74
     3
 75
     0
 76
     0
 77
     0
 78
     0
  0
ENDTAB
  0
TABLE
  2
LTYPE
  5
5
330
0
100
AcDbSymbolTable
 70
     1
  0
LTYPE
  5
14
330
5
100
AcDbSymbolTableRecord
100
AcDbLinetypeTableRecord
  2
BYBLOCK
 70
     0
  3

 72
    65
 73
     0
 40
0.0
  0
LTYPE
  5
15
330
5
100
AcDbSymbolTableRecord
100
AcDbLinetypeTableRecord
  2
BYLAYER
 70
     0
  3

 72
    65
 73
     0
 40
0.0
  0
LTYPE
  5
16
330
5
100
AcDbSymbolTableRecord
100
AcDbLinetypeTableRecord
  2
CONTINUOUS
 70
     0
  3
Solid line
 72
    65
 73
     0
 40
0.0
  0
ENDTAB
  0
TABLE
  2
LAYER
  5
2
100
AcDbSymbolTable
 70
1
  0
LAYER
  5
50
100
AcDbSymbolTableRecord
100
AcDbLayerTableRecord
  2
0
 70
0
  6
CONTINUOUS
  0
ENDTAB
  0
TABLE
  2
STYLE
  5
3
330
0
100
AcDbSymbolTable
 70
     1
  0
STYLE
  5
11
330
3
100
AcDbSymbolTableRecord
100
AcDbTextStyleTableRecord
  2
STANDARD
 70
     0
 40
0.0
 41
1.0
 50
0.0
 71
     0
 42
2.5
  3
txt
  4

  0
ENDTAB
  0
TABLE
  2
VIEW
  5
6
330
0
100
AcDbSymbolTable
 70
     0
  0
ENDTAB
  0
TABLE
  2
UCS
  5
7
330
0
100
AcDbSymbolTable
 70
     0
  0
ENDTAB
  0
TABLE
  2
APPID
  5
9
330
0
100
AcDbSymbolTable
 70
     2
  0
APPID
  5
12
330
9
100
AcDbSymbolTableRecord
100
AcDbRegAppTableRecord
  2
ACAD
 70
     0
  0
ENDTAB
  0
TABLE
  2
DIMSTYLE
  5
A
330
0
100
AcDbSymbolTable
 70
     1
  0
DIMSTYLE
105
27
330
A
100
AcDbSymbolTableRecord
100
AcDbDimStyleTableRecord
  2
ISO-25
 70
     0
  3

  4

  5

  6

  7

 40
1.0
 41
2.5
 42
0.625
 43
3.75
 44
1.25
 45
0.0
 46
0.0
 47
0.0
 48
0.0
140
2.5
141
2.5
142
0.0
143
0.03937007874016
144
1.0
145
0.0
146
1.0
147
0.625
 71
     0
 72
     0
 73
     0
 74
     0
 75
     0
 76
     0
 77
     1
 78
     8
170
     0
171
     3
172
     1
173
     0
174
     0
175
     0
176
     0
177
     0
178
     0
270
     2
271
     2
272
     2
273
     2
274
     3
340
11
275
     0
280
     0
281
     0
282
     0
283
     0
284
     8
285
     0
286
     0
287
     3
288
     0
  0
ENDTAB
  0
TABLE
  2
BLOCK_RECORD
  5
1
330
0
100
AcDbSymbolTable
 70
     1
  0
BLOCK_RECORD
  5
1F
330
1
100
AcDbSymbolTableRecord
100
AcDbBlockTableRecord
  2
*MODEL_SPACE
  0
BLOCK_RECORD
  5
1B
330
1
100
AcDbSymbolTableRecord
100
AcDbBlockTableRecord
  2
*PAPER_SPACE
  0
ENDTAB
  0
ENDSEC
  0
SECTION
  2
BLOCKS
  0
BLOCK
  5
20
330
1F
100
AcDbEntity
  8
0
100
AcDbBlockBegin
  2
*MODEL_SPACE
 70
     0
 10
0.0
 20
0.0
 30
0.0
  3
*MODEL_SPACE
  1

  0
ENDBLK
  5
21
330
1F
100
AcDbEntity
  8
0
100
AcDbBlockEnd
  0
BLOCK
  5
1C
330
1B
100
AcDbEntity
 67
     1
  8
0
100
AcDbBlockBegin
  2
*PAPER_SPACE
  1

  0
ENDBLK
  5
1D
330
1B
100
AcDbEntity
 67
     1
  8
0
100
AcDbBlockEnd
  0
ENDSEC
  0
SECTION
  2
ENTITIES
  0
LWPOLYLINE
  5
100
100
AcDbEntity
  8
0
 62
5
100
AcDbPolyline
 90
2
 70
0
 10
-33.313997
 20
284.187399
 30
0.0
 10
148.500000
 20
284.187399
 30
0.0
  0
LWPOLYLINE
  5
101
100
AcDbEntity
  8
0
 62
5
100
AcDbPolyline
 90
2
 70
0
 10
-33.313997
 20
297.416559
 30
0.0
 10
-33.313997
 20
277.818469
 30
0.0
  0
LWPOLYLINE
  5
102
100
AcDbEntity
  8
0
 62
5
100
AcDbPolyline
 90
2
 70
0
 10
148.500000
 20
297.416559
 30
0.0
 10
148.500000
 20
277.818469
 30
0.0
  0
SPLINE
  5
103
100
AcDbEntity
  8
0
 62
1
100
AcDbSpline
 70
0
 71
3
 72
13
 73
9
 74
7
 40
0.000000
 40
0.000000
 40
0.000000
 40
0.000000
 40
4.550704
 40
8.966436
 40
13.517141
 40
18.067845
 40
22.483577
 40
27.034282
 40
27.034282
 40
27.034282
 40
27.034282
 10
131.093003
 20
262.254587
 30
0.0
 10
131.332369
 20
263.788874
 30
0.0
 10
131.804000
 20
266.811943
 30
0.0
 10
135.266371
 20
270.140143
 30
0.0
 10
139.796351
 20
271.373396
 30
0.0
 10
144.326372
 20
270.140294
 30
0.0
 10
147.788854
 20
266.812209
 30
0.0
 10
148.260586
 20
263.789156
 30
0.0
 10
148.500003
 20
262.254877
 30
0.0
 11
131.093003
 21
262.254587
 31
0.0
 11
132.281213
 21
266.647430
 31
0.0
 11
135.403555
 21
269.769876
 31
0.0
 11
139.796358
 21
270.958232
 31
0.0
 11
144.189201
 21
269.770022
 31
0.0
 11
147.311647
 21
266.647680
 31
0.0
 11
148.500003
 21
262.254877
 31
0.0
  0
SPLINE
  5
104
100
AcDbEntity
  8
0
 62
1
100
AcDbSpline
 70
0
 71
3
 72
10
 73
6
 74
4
 40
0.000000
 40
0.000000
 40
0.000000
 40
0.000000
 40
29.070903
 40
50.497677
 40
68.911879
 40
68.911879
 40
68.911879
 40
68.911879
 10
131.093003
 20
253.254587
 30
0.0
 10
130.800486
 20
243.508745
 30
0.0
 10
130.292368
 20
226.579707
 30
0.0
 10
120.353694
 20
204.856174
 30
0.0
 10
109.938297
 20
196.415824
 30
0.0
 10
105.124378
 20
192.514757
 30
0.0
 11
131.093003
 21
253.254587
 31
0.0
 11
127.970168
 21
224.351900
 31
0.0
 11
118.568645
 21
205.097861
 31
0.0
 11
105.124378
 21
192.514757
 31
0.0
  0
LWPOLYLINE
  5
105
100
AcDbEntity
  8
0
 62
1
100
AcDbPolyline
 90
2
 70
0
 10
131.093003
 20
262.254587
 30
0.0
 10
131.093003
 20
253.254587
 30
0.0
  0
SPLINE
  5
106
100
AcDbEntity
  8
0
 62
1
100
AcDbSpline
 70
0
 71
3
 72
10
 73
6
 74
4
 40
0.000000
 40
0.000000
 40
0.000000
 40
0.000000
 40
17.540241
 40
34.426555
 40
50.204779
 40
50.204779
 40
50.204779
 40
50.204779
 10
105.124378
 20
192.514757
 30
0.0
 10
100.025366
 20
189.623569
 30
0.0
 10
90.017440
 20
183.948980
 30
0.0
 10
73.723901
 20
179.346214
 30
0.0
 10
62.846975
 20
178.610137
 30
0.0
 10
57.593003
 20
178.254584
 30
0.0
 11
105.124378
 21
192.514757
 31
0.0
 11
89.524942
 21
184.494930
 31
0.0
 11
73.290539
 21
179.848235
 31
0.0
 11
57.593003
 21
178.254584
 31
0.0
  0
LWPOLYLINE
  5
107
100
AcDbEntity
  8
0
 62
1
100
AcDbPolyline
 90
2
 70
0
 10
148.500003
 20
246.754877
 30
0.0
 10
148.500003
 20
262.254587
 30
0.0
  0
SPLINE
  5
108
100
AcDbEntity
  8
0
 62
1
100
AcDbSpline
 70
0
 71
3
 72
16
 73
12
 74
10
 40
0.000000
 40
0.000000
 40
0.000000
 40
0.000000
 40
1.395856
 40
2.771736
 40
4.167592
 40
5.563449
 40
6.939329
 40
8.335185
 40
9.731041
 40
11.106921
 40
12.502777
 40
12.502777
 40
12.502777
 40
12.502777
 10
148.500003
 20
246.754877
 30
0.0
 10
148.452212
 20
246.287218
 30
0.0
 10
148.357314
 20
245.358594
 30
0.0
 10
147.621037
 20
244.131403
 30
0.0
 10
146.543056
 20
243.219019
 30
0.0
 10
145.207988
 20
242.735120
 30
0.0
 10
143.792018
 20
242.735120
 30
0.0
 10
142.456950
 20
243.219019
 30
0.0
 10
141.378969
 20
244.131403
 30
0.0
 10
140.642692
 20
245.358594
 30
0.0
 10
140.547794
 20
246.287218
 30
0.0
 10
140.500003
 20
246.754877
 30
0.0
 11
148.500003
 21
246.754877
 31
0.0
 11
148.256508
 21
245.380422
 31
0.0
 11
147.568568
 21
244.188876
 31
0.0
 11
146.500003
 21
243.290775
 31
0.0
 11
145.187943
 21
242.814421
 31
0.0
 11
143.812063
 21
242.814421
 31
0.0
 11
142.500003
 21
243.290775
 31
0.0
 11
141.431438
 21
244.188876
 31
0.0
 11
140.743498
 21
245.380422
 31
0.0
 11
140.500003
 21
246.754877
 31
0.0
  0
LWPOLYLINE
  5
109
100
AcDbEntity
  8
0
 62
1
100
AcDbPolyline
 90
2
 70
0
 10
140.500003
 20
250.754877
 30
0.0
 10
140.500003
 20
246.754877
 30
0.0
  0
LWPOLYLINE
  5
10a
100
AcDbEntity
  8
0
 62
1
100
AcDbPolyline
 90
2
 70
0
 10
138.000003
 20
250.410877
 30
0.0
 10
138.000003
 20
250.754877
 30
0.0
  0
SPLINE
  5
10b
100
AcDbEntity
  8
0
 62
1
100
AcDbSpline
 70
0
 71
3
 72
16
 73
12
 74
10
 40
0.000000
 40
0.000000
 40
0.000000
 40
0.000000
 40
0.436205
 40
0.866168
 40
1.302373
 40
1.738578
 40
2.168540
 40
2.604745
 40
3.040950
 40
3.470913
 40
3.907118
 40
3.907118
 40
3.907118
 40
3.907118
 10
138.000003
 20
250.754877
 30
0.0
 10
138.014938
 20
250.901020
 30
0.0
 10
138.044593
 20
251.191215
 30
0.0
 10
138.274680
 20
251.574713
 30
0.0
 10
138.611549
 20
251.859833
 30
0.0
 10
139.028758
 20
252.011051
 30
0.0
 10
139.471248
 20
252.011051
 30
0.0
 10
139.888457
 20
251.859833
 30
0.0
 10
140.225326
 20
251.574713
 30
0.0
 10
140.455413
 20
251.191215
 30
0.0
 10
140.485068
 20
250.901020
 30
0.0
 10
140.500003
 20
250.754877
 30
0.0
 11
138.000003
 21
250.754877
 31
0.0
 11
138.076095
 21
251.184394
 31
0.0
 11
138.291076
 21
251.556752
 31
0.0
 11
138.625003
 21
251.837409
 31
0.0
 11
139.035022
 21
251.986269
 31
0.0
 11
139.464984
 21
251.986269
 31
0.0
 11
139.875003
 21
251.837409
 31
0.0
 11
140.208930
 21
251.556752
 31
0.0
 11
140.423911
 21
251.184394
 31
0.0
 11
140.500003
 21
250.754877
 31
0.0
  0
SPLINE
  5
10c
100
AcDbEntity
  8
0
 62
1
100
AcDbSpline
 70
0
 71
3
 72
16
 73
12
 74
10
 40
0.000000
 40
0.000000
 40
0.000000
 40
0.000000
 40
1.421787
 40
2.808008
 40
4.229795
 40
5.651582
 40
7.037802
 40
8.459589
 40
9.881377
 40
11.267597
 40
12.689384
 40
12.689384
 40
12.689384
 40
12.689384
 10
136.816065
 20
225.036081
 30
0.0
 10
137.272573
 20
225.194126
 30
0.0
 10
138.174169
 20
225.506263
 30
0.0
 10
139.612010
 20
225.126253
 30
0.0
 10
140.717037
 20
224.179490
 30
0.0
 10
141.263472
 20
222.817192
 30
0.0
 10
141.130655
 20
221.362798
 30
0.0
 10
140.346504
 20
220.122011
 30
0.0
 10
139.088267
 20
219.391063
 30
0.0
 10
137.605378
 20
219.277777
 30
0.0
 10
136.775233
 20
219.748058
 30
0.0
 10
136.354903
 20
219.986177
 30
0.0
 11
136.816065
 21
225.036081
 31
0.0
 11
138.199160
 21
225.365517
 31
0.0
 11
139.546074
 21
225.037754
 31
0.0
 11
140.623155
 21
224.109652
 31
0.0
 11
141.152460
 21
222.790063
 31
0.0
 11
141.026394
 21
221.409587
 31
0.0
 11
140.266825
 21
220.207699
 31
0.0
 11
139.039452
 21
219.490041
 31
0.0
 11
137.655449
 21
219.411669
 31
0.0
 11
136.354903
 21
219.986177
 31
0.0
  0
SPLINE
  5
10d
100
AcDbEntity
  8
0
 62
1
100
AcDbSpline
 70
0
 71
3
 72
10
 73
6
 74
4
 40
0.000000
 40
0.000000
 40
0.000000
 40
0.000000
 40
10.619769
 40
22.152894
 40
34.721221
 40
34.721221
 40
34.721221
 40
34.721221
 10
126.951476
 20
186.689185
 30
0.0
 10
128.362567
 20
189.939326
 30
0.0
 10
131.306110
 20
196.719137
 30
0.0
 10
134.373149
 20
207.922298
 30
0.0
 10
135.675649
 20
215.851393
 30
0.0
 10
136.354872
 20
219.986225
 30
0.0
 11
126.951476
 21
186.689185
 31
0.0
 11
130.957994
 21
196.524189
 31
0.0
 11
134.092459
 21
207.623202
 31
0.0
 11
136.354872
 21
219.986225
 31
0.0
  0
SPLINE
  5
10e
100
AcDbEntity
  8
0
 62
1
100
AcDbSpline
 70
0
 71
3
 72
10
 73
6
 74
4
 40
0.000000
 40
0.000000
 40
0.000000
 40
0.000000
 40
11.544006
 40
23.170660
 40
35.433527
 40
35.433527
 40
35.433527
 40
35.433527
 10
98.973157
 20
158.436145
 30
0.0
 10
102.399772
 20
160.214390
 30
0.0
 10
109.277533
 20
163.783612
 30
0.0
 10
118.026792
 20
171.984928
 30
0.0
 10
122.344575
 20
178.695452
 30
0.0
 10
124.560961
 20
182.140070
 30
0.0
 11
98.973157
 21
158.436145
 31
0.0
 11
108.965946
 21
164.216131
 31
0.0
 11
117.495214
 21
172.117440
 31
0.0
 11
124.560961
 21
182.140070
 31
0.0
  0
SPLINE
  5
10f
100
AcDbEntity
  8
0
 62
1
100
AcDbSpline
 70
0
 71
3
 72
16
 73
12
 74
10
 40
0.000000
 40
0.000000
 40
0.000000
 40
0.000000
 40
1.407466
 40
2.780347
 40
4.187813
 40
5.595280
 40
6.968160
 40
8.375627
 40
9.783093
 40
11.155974
 40
12.563440
 40
12.563440
 40
12.563440
 40
12.563440
 10
126.951476
 20
186.689185
 30
0.0
 10
127.428002
 20
186.651180
 30
0.0
 10
128.369344
 20
186.576104
 30
0.0
 10
129.526450
 20
185.667901
 30
0.0
 10
130.165653
 20
184.377857
 30
0.0
 10
130.142324
 20
182.925964
 30
0.0
 10
129.470188
 20
181.646879
 30
0.0
 10
128.287709
 20
180.804099
 30
0.0
 10
126.862707
 20
180.598756
 30
0.0
 10
125.458398
 20
181.036529
 30
0.0
 10
124.862605
 20
181.769190
 30
0.0
 10
124.561003
 20
182.140077
 30
0.0
 11
126.951476
 21
186.689185
 31
0.0
 11
128.336689
 21
186.439893
 31
0.0
 11
129.433058
 21
185.613591
 31
0.0
 11
130.054319
 21
184.350659
 31
0.0
 11
130.031747
 21
182.943374
 31
0.0
 11
129.393127
 21
181.728069
 31
0.0
 11
128.246954
 21
180.911216
 31
0.0
 11
126.854459
 21
180.706476
 31
0.0
 11
125.552052
 21
181.140686
 31
0.0
 11
124.561003
 21
182.140077
 31
0.0
  0
SPLINE
  5
110
100
AcDbEntity
  8
0
 62
1
100
AcDbSpline
 70
0
 71
3
 72
19
 73
15
 74
13
 40
0.000000
 40
0.000000
 40
0.000000
 40
0.000000
 40
1.350994
 40
2.671118
 40
4.022112
 40
5.373105
 40
6.693230
 40
8.044223
 40
9.395217
 40
10.715342
 40
12.066335
 40
12.204889
 40
12.343404
 40
12.481956
 40
12.481956
 40
12.481956
 40
12.481956
 10
98.973157
 20
158.436145
 30
0.0
 10
99.296096
 20
158.111138
 30
0.0
 10
99.934595
 20
157.468551
 30
0.0
 10
100.240667
 20
156.094983
 30
0.0
 10
99.956533
 20
154.745404
 30
0.0
 10
99.099241
 20
153.650929
 30
0.0
 10
97.856775
 20
153.039909
 30
0.0
 10
96.468997
 20
153.028147
 30
0.0
 10
95.216945
 20
153.627023
 30
0.0
 10
94.350131
 20
154.705572
 30
0.0
 10
94.132216
 20
155.655386
 30
0.0
 10
94.144955
 20
156.197775
 30
0.0
 10
94.154200
 20
156.336102
 30
0.0
 10
94.165735
 20
156.427748
 30
0.0
 10
94.171503
 20
156.473577
 30
0.0
 11
98.973157
 21
158.436145
 31
0.0
 11
99.830636
 21
157.392156
 31
0.0
 11
100.142580
 21
156.109416
 31
0.0
 11
99.860274
 21
154.788248
 31
0.0
 11
99.027226
 21
153.724662
 31
0.0
 11
97.842740
 21
153.141805
 31
0.0
 11
96.491792
 21
153.130701
 31
0.0
 11
95.272782
 21
153.713109
 31
0.0
 11
94.446789
 21
154.742897
 31
0.0
 11
94.142803
 21
156.059247
 31
0.0
 11
94.145954
 21
156.197765
 31
0.0
 11
94.155542
 21
156.335948
 31
0.0
 11
94.171503
 21
156.473577
 31
0.0
  0
SPLINE
  5
111
100
AcDbEntity
  8
0
 62
1
100
AcDbSpline
 70
0
 71
3
 72
10
 73
6
 74
4
 40
0.000000
 40
0.000000
 40
0.000000
 40
0.000000
 40
14.136727
 40
26.445609
 40
37.103007
 40
37.103007
 40
37.103007
 40
37.103007
 10
57.593003
 20
151.414877
 30
0.0
 10
62.304306
 20
151.484399
 30
0.0
 10
71.117753
 20
151.614453
 30
0.0
 10
83.456958
 20
153.123971
 30
0.0
 10
90.775410
 20
155.411882
 30
0.0
 10
94.171504
 20
156.473576
 30
0.0
 11
57.593003
 21
151.414877
 31
0.0
 11
71.721618
 21
151.893728
 31
0.0
 11
83.914451
 21
153.579961
 31
0.0
 11
94.171504
 21
156.473576
 31
0.0
  0
SPLINE
  5
112
100
AcDbEntity
  8
0
 62
1
100
AcDbSpline
 70
0
 71
3
 72
10
 73
6
 74
4
 40
0.000000
 40
0.000000
 40
0.000000
 40
0.000000
 40
29.070903
 40
50.497677
 40
68.911879
 40
68.911879
 40
68.911879
 40
68.911879
 10
-15.906997
 20
253.254587
 30
0.0
 10
-15.614480
 20
243.508745
 30
0.0
 10
-15.106362
 20
226.579707
 30
0.0
 10
-5.167688
 20
204.856174
 30
0.0
 10
5.247709
 20
196.415824
 30
0.0
 10
10.061628
 20
192.514757
 30
0.0
 11
-15.906997
 21
253.254587
 31
0.0
 11
-12.784162
 21
224.351900
 31
0.0
 11
-3.382639
 21
205.097861
 31
0.0
 11
10.061628
 21
192.514757
 31
0.0
  0
LWPOLYLINE
  5
113
100
AcDbEntity
  8
0
 62
1
100
AcDbPolyline
 90
2
 70
0
 10
136.816065
 20
225.036081
 30
0.0
 10
138.000003
 20
250.410877
 30
0.0
  0
SPLINE
  5
114
100
AcDbEntity
  8
0
 62
1
100
AcDbSpline
 70
0
 71
3
 72
10
 73
6
 74
4
 40
0.000000
 40
0.000000
 40
0.000000
 40
0.000000
 40
17.540241
 40
34.426555
 40
50.204779
 40
50.204779
 40
50.204779
 40
50.204779
 10
10.061628
 20
192.514757
 30
0.0
 10
15.160640
 20
189.623569
 30
0.0
 10
25.168566
 20
183.948980
 30
0.0
 10
41.462105
 20
179.346214
 30
0.0
 10
52.339031
 20
178.610137
 30
0.0
 10
57.593003
 20
178.254584
 30
0.0
 11
10.061628
 21
192.514757
 31
0.0
 11
25.661064
 21
184.494930
 31
0.0
 11
41.895467
 21
179.848235
 31
0.0
 11
57.593003
 21
178.254584
 31
0.0
  0
LWPOLYLINE
  5
115
100
AcDbEntity
  8
0
 62
1
100
AcDbPolyline
 90
2
 70
0
 10
-15.906997
 20
262.254587
 30
0.0
 10
-15.906997
 20
253.254587
 30
0.0
  0
SPLINE
  5
116
100
AcDbEntity
  8
0
 62
1
100
AcDbSpline
 70
0
 71
3
 72
16
 73
12
 74
10
 40
0.000000
 40
0.000000
 40
0.000000
 40
0.000000
 40
3.037209
 40
6.030951
 40
9.068160
 40
12.105369
 40
15.099111
 40
18.136321
 40
21.173530
 40
24.167272
 40
27.204481
 40
27.204481
 40
27.204481
 40
27.204481
 10
-15.906997
 20
262.254587
 30
0.0
 10
-16.010968
 20
263.272155
 30
0.0
 10
-16.217421
 20
265.292729
 30
0.0
 10
-17.819423
 20
267.962970
 30
0.0
 10
-20.164940
 20
269.948244
 30
0.0
 10
-23.069864
 20
271.001194
 30
0.0
 10
-26.150839
 20
271.001246
 30
0.0
 10
-29.055797
 20
269.948392
 30
0.0
 10
-31.401381
 20
267.963196
 30
0.0
 10
-33.003472
 20
265.293008
 30
0.0
 10
-33.209992
 20
263.272442
 30
0.0
 10
-33.313997
 20
262.254877
 30
0.0
 11
-15.906997
 21
262.254587
 31
0.0
 11
-16.436763
 21
265.245237
 31
0.0
 11
-17.933590
 21
267.837919
 31
0.0
 11
-20.258621
 21
269.792112
 31
0.0
 11
-23.113483
 21
270.828646
 31
0.0
 11
-26.107225
 21
270.828696
 31
0.0
 11
-28.962121
 21
269.792257
 31
0.0
 11
-31.287218
 21
267.838141
 31
0.0
 11
-32.784132
 21
265.245509
 31
0.0
 11
-33.313997
 21
262.254877
 31
0.0
  0
SPLINE
  5
117
100
AcDbEntity
  8
0
 62
1
100
AcDbSpline
 70
0
 71
3
 72
16
 73
12
 74
10
 40
0.000000
 40
0.000000
 40
0.000000
 40
0.000000
 40
1.395856
 40
2.771736
 40
4.167592
 40
5.563449
 40
6.939329
 40
8.335185
 40
9.731041
 40
11.106921
 40
12.502777
 40
12.502777
 40
12.502777
 40
12.502777
 10
-33.313997
 20
246.754877
 30
0.0
 10
-33.266206
 20
246.287218
 30
0.0
 10
-33.171308
 20
245.358594
 30
0.0
 10
-32.435031
 20
244.131403
 30
0.0
 10
-31.357050
 20
243.219019
 30
0.0
 10
-30.021982
 20
242.735120
 30
0.0
 10
-28.606012
 20
242.735120
 30
0.0
 10
-27.270944
 20
243.219019
 30
0.0
 10
-26.192963
 20
244.131403
 30
0.0
 10
-25.456686
 20
245.358594
 30
0.0
 10
-25.361788
 20
246.287218
 30
0.0
 10
-25.313997
 20
246.754877
 30
0.0
 11
-33.313997
 21
246.754877
 31
0.0
 11
-33.070502
 21
245.380422
 31
0.0
 11
-32.382562
 21
244.188876
 31
0.0
 11
-31.313997
 21
243.290775
 31
0.0
 11
-30.001937
 21
242.814421
 31
0.0
 11
-28.626057
 21
242.814421
 31
0.0
 11
-27.313997
 21
243.290775
 31
0.0
 11
-26.245432
 21
244.188876
 31
0.0
 11
-25.557492
 21
245.380422
 31
0.0
 11
-25.313997
 21
246.754877
 31
0.0
  0
LWPOLYLINE
  5
118
100
AcDbEntity
  8
0
 62
1
100
AcDbPolyline
 90
2
 70
0
 10
-33.313997
 20
246.754877
 30
0.0
 10
-33.313997
 20
262.254587
 30
0.0
  0
SPLINE
  5
119
100
AcDbEntity
  8
0
 62
1
100
AcDbSpline
 70
0
 71
3
 72
10
 73
6
 74
4
 40
0.000000
 40
0.000000
 40
0.000000
 40
0.000000
 40
14.136727
 40
26.445609
 40
37.103007
 40
37.103007
 40
37.103007
 40
37.103007
 10
57.593003
 20
151.414877
 30
0.0
 10
52.881700
 20
151.484399
 30
0.0
 10
44.068253
 20
151.614453
 30
0.0
 10
31.729048
 20
153.123971
 30
0.0
 10
24.410596
 20
155.411882
 30
0.0
 10
21.014502
 20
156.473576
 30
0.0
 11
57.593003
 21
151.414877
 31
0.0
 11
43.464388
 21
151.893728
 31
0.0
 11
31.271555
 21
153.579961
 31
0.0
 11
21.014502
 21
156.473576
 31
0.0
  0
SPLINE
  5
11a
100
AcDbEntity
  8
0
 62
1
100
AcDbSpline
 70
0
 71
3
 72
19
 73
15
 74
13
 40
0.000000
 40
0.000000
 40
0.000000
 40
0.000000
 40
1.350994
 40
2.671118
 40
4.022112
 40
5.373105
 40
6.693230
 40
8.044223
 40
9.395217
 40
10.715342
 40
12.066335
 40
12.204889
 40
12.343404
 40
12.481956
 40
12.481956
 40
12.481956
 40
12.481956
 10
16.212849
 20
158.436145
 30
0.0
 10
15.889910
 20
158.111138
 30
0.0
 10
15.251411
 20
157.468551
 30
0.0
 10
14.945339
 20
156.094983
 30
0.0
 10
15.229473
 20
154.745404
 30
0.0
 10
16.086765
 20
153.650929
 30
0.0
 10
17.329231
 20
153.039909
 30
0.0
 10
18.717009
 20
153.028147
 30
0.0
 10
19.969061
 20
153.627023
 30
0.0
 10
20.835875
 20
154.705572
 30
0.0
 10
21.053790
 20
155.655386
 30
0.0
 10
21.041051
 20
156.197775
 30
0.0
 10
21.031806
 20
156.336102
 30
0.0
 10
21.020271
 20
156.427748
 30
0.0
 10
21.014503
 20
156.473577
 30
0.0
 11
16.212849
 21
158.436145
 31
0.0
 11
15.355370
 21
157.392156
 31
0.0
 11
15.043426
 21
156.109416
 31
0.0
 11
15.325732
 21
154.788248
 31
0.0
 11
16.158780
 21
153.724662
 31
0.0
 11
17.343266
 21
153.141805
 31
0.0
 11
18.694214
 21
153.130701
 31
0.0
 11
19.913224
 21
153.713109
 31
0.0
 11
20.739217
 21
154.742897
 31
0.0
 11
21.043203
 21
156.059247
 31
0.0
 11
21.040052
 21
156.197765
 31
0.0
 11
21.030464
 21
156.335948
 31
0.0
 11
21.014503
 21
156.473577
 31
0.0
  0
LWPOLYLINE
  5
11b
100
AcDbEntity
  8
0
 62
1
100
AcDbPolyline
 90
2
 70
0
 10
-25.313997
 20
250.754877
 30
0.0
 10
-25.313997
 20
246.754877
 30
0.0
  0
SPLINE
  5
11c
100
AcDbEntity
  8
0
 62
1
100
AcDbSpline
 70
0
 71
3
 72
16
 73
12
 74
10
 40
0.000000
 40
0.000000
 40
0.000000
 40
0.000000
 40
0.436205
 40
0.866168
 40
1.302373
 40
1.738578
 40
2.168540
 40
2.604745
 40
3.040950
 40
3.470913
 40
3.907118
 40
3.907118
 40
3.907118
 40
3.907118
 10
-22.813997
 20
250.754877
 30
0.0
 10
-22.828932
 20
250.901020
 30
0.0
 10
-22.858587
 20
251.191215
 30
0.0
 10
-23.088674
 20
251.574713
 30
0.0
 10
-23.425543
 20
251.859833
 30
0.0
 10
-23.842752
 20
252.011051
 30
0.0
 10
-24.285242
 20
252.011051
 30
0.0
 10
-24.702451
 20
251.859833
 30
0.0
 10
-25.039320
 20
251.574713
 30
0.0
 10
-25.269407
 20
251.191215
 30
0.0
 10
-25.299062
 20
250.901020
 30
0.0
 10
-25.313997
 20
250.754877
 30
0.0
 11
-22.813997
 21
250.754877
 31
0.0
 11
-22.890089
 21
251.184394
 31
0.0
 11
-23.105070
 21
251.556752
 31
0.0
 11
-23.438997
 21
251.837409
 31
0.0
 11
-23.849016
 21
251.986269
 31
0.0
 11
-24.278978
 21
251.986269
 31
0.0
 11
-24.688997
 21
251.837409
 31
0.0
 11
-25.022924
 21
251.556752
 31
0.0
 11
-25.237905
 21
251.184394
 31
0.0
 11
-25.313997
 21
250.754877
 31
0.0
  0
LWPOLYLINE
  5
11d
100
AcDbEntity
  8
0
 62
1
100
AcDbPolyline
 90
2
 70
0
 10
-22.813997
 20
250.410877
 30
0.0
 10
-22.813997
 20
250.754877
 30
0.0
  0
SPLINE
  5
11e
100
AcDbEntity
  8
0
 62
1
100
AcDbSpline
 70
0
 71
3
 72
10
 73
6
 74
4
 40
0.000000
 40
0.000000
 40
0.000000
 40
0.000000
 40
11.544006
 40
23.170660
 40
35.433527
 40
35.433527
 40
35.433527
 40
35.433527
 10
16.212849
 20
158.436145
 30
0.0
 10
12.786234
 20
160.214390
 30
0.0
 10
5.908473
 20
163.783612
 30
0.0
 10
-2.840786
 20
171.984928
 30
0.0
 10
-7.158569
 20
178.695452
 30
0.0
 10
-9.374955
 20
182.140070
 30
0.0
 11
16.212849
 21
158.436145
 31
0.0
 11
6.220060
 21
164.216131
 31
0.0
 11
-2.309208
 21
172.117440
 31
0.0
 11
-9.374955
 21
182.140070
 31
0.0
  0
SPLINE
  5
11f
100
AcDbEntity
  8
0
 62
1
100
AcDbSpline
 70
0
 71
3
 72
16
 73
12
 74
10
 40
0.000000
 40
0.000000
 40
0.000000
 40
0.000000
 40
1.407466
 40
2.780347
 40
4.187813
 40
5.595280
 40
6.968160
 40
8.375627
 40
9.783093
 40
11.155974
 40
12.563440
 40
12.563440
 40
12.563440
 40
12.563440
 10
-11.765470
 20
186.689185
 30
0.0
 10
-12.241996
 20
186.651180
 30
0.0
 10
-13.183338
 20
186.576104
 30
0.0
 10
-14.340444
 20
185.667901
 30
0.0
 10
-14.979647
 20
184.377857
 30
0.0
 10
-14.956318
 20
182.925964
 30
0.0
 10
-14.284182
 20
181.646879
 30
0.0
 10
-13.101703
 20
180.804099
 30
0.0
 10
-11.676701
 20
180.598756
 30
0.0
 10
-10.272392
 20
181.036529
 30
0.0
 10
-9.676599
 20
181.769190
 30
0.0
 10
-9.374997
 20
182.140077
 30
0.0
 11
-11.765470
 21
186.689185
 31
0.0
 11
-13.150683
 21
186.439893
 31
0.0
 11
-14.247052
 21
185.613591
 31
0.0
 11
-14.868313
 21
184.350659
 31
0.0
 11
-14.845741
 21
182.943374
 31
0.0
 11
-14.207121
 21
181.728069
 31
0.0
 11
-13.060948
 21
180.911216
 31
0.0
 11
-11.668453
 21
180.706476
 31
0.0
 11
-10.366046
 21
181.140686
 31
0.0
 11
-9.374997
 21
182.140077
 31
0.0
  0
SPLINE
  5
120
100
AcDbEntity
  8
0
 62
1
100
AcDbSpline
 70
0
 71
3
 72
16
 73
12
 74
10
 40
0.000000
 40
0.000000
 40
0.000000
 40
0.000000
 40
1.421787
 40
2.808008
 40
4.229795
 40
5.651582
 40
7.037802
 40
8.459589
 40
9.881377
 40
11.267597
 40
12.689384
 40
12.689384
 40
12.689384
 40
12.689384
 10
-21.630059
 20
225.036081
 30
0.0
 10
-22.086567
 20
225.194126
 30
0.0
 10
-22.988163
 20
225.506263
 30
0.0
 10
-24.426004
 20
225.126253
 30
0.0
 10
-25.531031
 20
224.179490
 30
0.0
 10
-26.077466
 20
222.817192
 30
0.0
 10
-25.944649
 20
221.362798
 30
0.0
 10
-25.160498
 20
220.122011
 30
0.0
 10
-23.902261
 20
219.391063
 30
0.0
 10
-22.419371
 20
219.277777
 30
0.0
 10
-21.589227
 20
219.748058
 30
0.0
 10
-21.168897
 20
219.986177
 30
0.0
 11
-21.630059
 21
225.036081
 31
0.0
 11
-23.013154
 21
225.365517
 31
0.0
 11
-24.360068
 21
225.037754
 31
0.0
 11
-25.437149
 21
224.109652
 31
0.0
 11
-25.966454
 21
222.790063
 31
0.0
 11
-25.840388
 21
221.409587
 31
0.0
 11
-25.080819
 21
220.207699
 31
0.0
 11
-23.853446
 21
219.490041
 31
0.0
 11
-22.469443
 21
219.411669
 31
0.0
 11
-21.168897
 21
219.986177
 31
0.0
  0
LWPOLYLINE
  5
121
100
AcDbEntity
  8
0
 62
1
100
AcDbPolyline
 90
2
 70
0
 10
-21.630059
 20
225.036081
 30
0.0
 10
-22.813997
 20
250.410877
 30
0.0
  0
SPLINE
  5
122
100
AcDbEntity
  8
0
 62
1
100
AcDbSpline
 70
0
 71
3
 72
10
 73
6
 74
4
 40
0.000000
 40
0.000000
 40
0.000000
 40
0.000000
 40
10.619769
 40
22.152894
 40
34.721221
 40
34.721221
 40
34.721221
 40
34.721221
 10
-11.765470
 20
186.689185
 30
0.0
 10
-13.176561
 20
189.939326
 30
0.0
 10
-16.120104
 20
196.719137
 30
0.0
 10
-19.187143
 20
207.922298
 30
0.0
 10
-20.489643
 20
215.851393
 30
0.0
 10
-21.168866
 20
219.986225
 30
0.0
 11
-11.765470
 21
186.689185
 31
0.0
 11
-15.771988
 21
196.524189
 31
0.0
 11
-18.906453
 21
207.623202
 31
0.0
 11
-21.168866
 21
219.986225
 31
0.0
  0
SPLINE
  5
123
100
AcDbEntity
  8
0
 62
1
100
AcDbSpline
 70
0
 71
3
 72
13
 73
9
 74
7
 40
0.000000
 40
0.000000
 40
0.000000
 40
0.000000
 40
0.653009
 40
1.286683
 40
1.939692
 40
2.592702
 40
3.226376
 40
3.879385
 40
3.879385
 40
3.879385
 40
3.879385
 10
136.796503
 20
261.004587
 30
0.0
 10
136.576397
 20
261.039243
 30
0.0
 10
136.142703
 20
261.107529
 30
0.0
 10
135.665559
 20
261.604693
 30
0.0
 10
135.488779
 20
262.254732
 30
0.0
 10
135.665559
 20
262.904771
 30
0.0
 10
136.142703
 20
263.401935
 30
0.0
 10
136.576397
 20
263.470221
 30
0.0
 10
136.796503
 20
263.504877
 30
0.0
 11
136.796503
 21
261.004587
 31
0.0
 11
136.166369
 21
261.175911
 31
0.0
 11
135.718641
 21
261.624333
 31
0.0
 11
135.548293
 21
262.254732
 31
0.0
 11
135.718641
 21
262.885131
 31
0.0
 11
136.166369
 21
263.333553
 31
0.0
 11
136.796503
 21
263.504877
 31
0.0
  0
LWPOLYLINE
  5
124
100
AcDbEntity
  8
0
 62
1
100
AcDbPolyline
 90
2
 70
0
 10
142.796503
 20
263.504587
 30
0.0
 10
136.796503
 20
263.504587
 30
0.0
  0
LWPOLYLINE
  5
125
100
AcDbEntity
  8
0
 62
1
100
AcDbPolyline
 90
2
 70
0
 10
142.796503
 20
261.004587
 30
0.0
 10
136.796503
 20
261.004587
 30
0.0
  0
SPLINE
  5
126
100
AcDbEntity
  8
0
 62
1
100
AcDbSpline
 70
0
 71
3
 72
16
 73
12
 74
10
 40
0.000000
 40
0.000000
 40
0.000000
 40
0.000000
 40
0.440430
 40
0.874442
 40
1.314872
 40
1.755302
 40
2.189314
 40
2.629744
 40
3.070174
 40
3.504185
 40
3.944615
 40
3.944615
 40
3.944615
 40
3.944615
 10
142.796503
 20
263.504587
 30
0.0
 10
142.944291
 20
263.491605
 30
0.0
 10
143.237714
 20
263.465831
 30
0.0
 10
143.627424
 20
263.237310
 30
0.0
 10
143.917681
 20
262.899058
 30
0.0
 10
144.071835
 20
262.478184
 30
0.0
 10
144.071835
 20
262.031280
 30
0.0
 10
143.917681
 20
261.610406
 30
0.0
 10
143.627424
 20
261.272154
 30
0.0
 10
143.237714
 20
261.043633
 30
0.0
 10
142.944291
 20
261.017859
 30
0.0
 10
142.796503
 20
261.004877
 30
0.0
 11
142.796503
 21
263.504587
 31
0.0
 11
143.231179
 21
263.433627
 31
0.0
 11
143.609228
 21
263.220449
 31
0.0
 11
143.894886
 21
262.885220
 31
0.0
 11
144.046580
 21
262.471738
 31
0.0
 11
144.046580
 21
262.037726
 31
0.0
 11
143.894886
 21
261.624244
 31
0.0
 11
143.609228
 21
261.289015
 31
0.0
 11
143.231179
 21
261.075837
 31
0.0
 11
142.796503
 21
261.004877
 31
0.0
  0
SPLINE
  5
127
100
AcDbEntity
  8
0
 62
1
100
AcDbSpline
 70
0
 71
3
 72
13
 73
9
 74
7
 40
0.000000
 40
0.000000
 40
0.000000
 40
0.000000
 40
0.653009
 40
1.286683
 40
1.939692
 40
2.592702
 40
3.226376
 40
3.879385
 40
3.879385
 40
3.879385
 40
3.879385
 10
-21.610497
 20
261.004587
 30
0.0
 10
-21.390391
 20
261.039243
 30
0.0
 10
-20.956697
 20
261.107529
 30
0.0
 10
-20.479553
 20
261.604693
 30
0.0
 10
-20.302773
 20
262.254732
 30
0.0
 10
-20.479553
 20
262.904771
 30
0.0
 10
-20.956697
 20
263.401935
 30
0.0
 10
-21.390391
 20
263.470221
 30
0.0
 10
-21.610497
 20
263.504877
 30
0.0
 11
-21.610497
 21
261.004587
 31
0.0
 11
-20.980363
 21
261.175911
 31
0.0
 11
-20.532635
 21
261.624333
 31
0.0
 11
-20.362287
 21
262.254732
 31
0.0
 11
-20.532635
 21
262.885131
 31
0.0
 11
-20.980363
 21
263.333553
 31
0.0
 11
-21.610497
 21
263.504877
 31
0.0
  0
LWPOLYLINE
  5
128
100
AcDbEntity
  8
0
 62
1
100
AcDbPolyline
 90
2
 70
0
 10
-27.610497
 20
263.504587
 30
0.0
 10
-21.610497
 20
263.504587
 30
0.0
  0
LWPOLYLINE
  5
129
100
AcDbEntity
  8
0
 62
1
100
AcDbPolyline
 90
2
 70
0
 10
-27.610497
 20
261.004587
 30
0.0
 10
-21.610497
 20
261.004587
 30
0.0
  0
SPLINE
  5
12a
100
AcDbEntity
  8
0
 62
1
100
AcDbSpline
 70
0
 71
3
 72
16
 73
12
 74
10
 40
0.000000
 40
0.000000
 40
0.000000
 40
0.000000
 40
0.440430
 40
0.874442
 40
1.314872
 40
1.755302
 40
2.189314
 40
2.629744
 40
3.070174
 40
3.504185
 40
3.944615
 40
3.944615
 40
3.944615
 40
3.944615
 10
-27.610497
 20
263.504587
 30
0.0
 10
-27.758285
 20
263.491605
 30
0.0
 10
-28.051708
 20
263.465831
 30
0.0
 10
-28.441418
 20
263.237310
 30
0.0
 10
-28.731675
 20
262.899058
 30
0.0
 10
-28.885829
 20
262.478184
 30
0.0
 10
-28.885829
 20
262.031280
 30
0.0
 10
-28.731675
 20
261.610406
 30
0.0
 10
-28.441418
 20
261.272154
 30
0.0
 10
-28.051708
 20
261.043633
 30
0.0
 10
-27.758285
 20
261.017859
 30
0.0
 10
-27.610497
 20
261.004877
 30
0.0
 11
-27.610497
 21
263.504587
 31
0.0
 11
-28.045173
 21
263.433627
 31
0.0
 11
-28.423222
 21
263.220449
 31
0.0
 11
-28.708880
 21
262.885220
 31
0.0
 11
-28.860574
 21
262.471738
 31
0.0
 11
-28.860574
 21
262.037726
 31
0.0
 11
-28.708880
 21
261.624244
 31
0.0
 11
-28.423222
 21
261.289015
 31
0.0
 11
-28.045173
 21
261.075837
 31
0.0
 11
-27.610497
 21
261.004877
 31
0.0
  0
LWPOLYLINE
  5
12b
100
AcDbEntity
  8
0
 62
1
100
AcDbPolyline
 90
157
 70
1
 10
82.093003
 20
168.254584
 30
0.0
 10
82.095003
 20
168.354608
 30
0.0
 10
82.101003
 20
168.454468
 30
0.0
 10
82.111003
 20
168.554008
 30
0.0
 10
82.124973
 20
168.653068
 30
0.0
 10
82.142893
 20
168.751498
 30
0.0
 10
82.164733
 20
168.849128
 30
0.0
 10
82.190463
 20
168.945808
 30
0.0
 10
82.220043
 20
169.041378
 30
0.0
 10
82.253423
 20
169.135688
 30
0.0
 10
82.290553
 20
169.228588
 30
0.0
 10
82.331363
 20
169.319928
 30
0.0
 10
82.375793
 20
169.409568
 30
0.0
 10
82.423783
 20
169.497358
 30
0.0
 10
82.475243
 20
169.583148
 30
0.0
 10
82.530093
 20
169.666818
 30
0.0
 10
82.588243
 20
169.748228
 30
0.0
 10
82.649613
 20
169.827238
 30
0.0
 10
82.714093
 20
169.903738
 30
0.0
 10
82.781583
 20
169.977588
 30
0.0
 10
82.851973
 20
170.048678
 30
0.0
 10
82.925143
 20
170.116898
 30
0.0
 10
83.000993
 20
170.182138
 30
0.0
 10
83.079393
 20
170.244288
 30
0.0
 10
83.160213
 20
170.303258
 30
0.0
 10
83.243323
 20
170.358948
 30
0.0
 10
83.328603
 20
170.411268
 30
0.0
 10
83.415903
 20
170.460128
 30
0.0
 10
83.505083
 20
170.505458
 30
0.0
 10
83.596013
 20
170.547188
 30
0.0
 10
83.688533
 20
170.585238
 30
0.0
 10
83.782503
 20
170.619558
 30
0.0
 10
83.877773
 20
170.650098
 30
0.0
 10
83.974193
 20
170.676798
 30
0.0
 10
84.071603
 20
170.699618
 30
0.0
 10
84.169843
 20
170.718518
 30
0.0
 10
84.268763
 20
170.733478
 30
0.0
 10
84.368203
 20
170.744468
 30
0.0
 10
84.468003
 20
170.751468
 30
0.0
 10
84.568003
 20
170.754468
 30
0.0
 10
84.668042
 20
170.753468
 30
0.0
 10
84.767962
 20
170.748468
 30
0.0
 10
84.867602
 20
170.739468
 30
0.0
 10
84.966802
 20
170.726488
 30
0.0
 10
85.065402
 20
170.709558
 30
0.0
 10
85.163242
 20
170.688688
 30
0.0
 10
85.260172
 20
170.663928
 30
0.0
 10
85.356032
 20
170.635308
 30
0.0
 10
85.450672
 20
170.602878
 30
0.0
 10
85.543942
 20
170.566688
 30
0.0
 10
85.635682
 20
170.526788
 30
0.0
 10
85.725752
 20
170.483248
 30
0.0
 10
85.814012
 20
170.436138
 30
0.0
 10
85.900322
 20
170.385538
 30
0.0
 10
85.984532
 20
170.331528
 30
0.0
 10
86.066512
 20
170.274188
 30
0.0
 10
86.146132
 20
170.213618
 30
0.0
 10
86.223272
 20
170.149908
 30
0.0
 10
86.297802
 20
170.083168
 30
0.0
 10
86.369602
 20
170.013498
 30
0.0
 10
86.438552
 20
169.941008
 30
0.0
 10
86.504552
 20
169.865818
 30
0.0
 10
86.567482
 20
169.788048
 30
0.0
 10
86.627252
 20
169.707828
 30
0.0
 10
86.683762
 20
169.625278
 30
0.0
 10
86.736932
 20
169.540528
 30
0.0
 10
86.786662
 20
169.453718
 30
0.0
 10
86.832882
 20
169.364988
 30
0.0
 10
86.875512
 20
169.274478
 30
0.0
 10
86.914492
 20
169.182338
 30
0.0
 10
86.949752
 20
169.088718
 30
0.0
 10
86.981242
 20
168.993758
 30
0.0
 10
87.008902
 20
168.897618
 30
0.0
 10
87.032692
 20
168.800448
 30
0.0
 10
87.052582
 20
168.702398
 30
0.0
 10
87.068532
 20
168.603638
 30
0.0
 10
87.080512
 20
168.504318
 30
0.0
 10
87.088512
 20
168.404598
 30
0.0
 10
87.092512
 20
168.304638
 30
0.0
 10
87.092512
 20
168.204594
 30
0.0
 10
87.088512
 20
168.104634
 30
0.0
 10
87.080512
 20
168.004914
 30
0.0
 10
87.068532
 20
167.905594
 30
0.0
 10
87.052582
 20
167.806834
 30
0.0
 10
87.032692
 20
167.708784
 30
0.0
 10
87.008902
 20
167.611614
 30
0.0
 10
86.981242
 20
167.515474
 30
0.0
 10
86.949752
 20
167.420514
 30
0.0
 10
86.914492
 20
167.326884
 30
0.0
 10
86.875512
 20
167.234744
 30
0.0
 10
86.832882
 20
167.144234
 30
0.0
 10
86.786662
 20
167.055504
 30
0.0
 10
86.736932
 20
166.968694
 30
0.0
 10
86.683762
 20
166.883944
 30
0.0
 10
86.627252
 20
166.801394
 30
0.0
 10
86.567482
 20
166.721164
 30
0.0
 10
86.504552
 20
166.643394
 30
0.0
 10
86.438552
 20
166.568204
 30
0.0
 10
86.369602
 20
166.495714
 30
0.0
 10
86.297802
 20
166.426044
 30
0.0
 10
86.223272
 20
166.359304
 30
0.0
 10
86.146132
 20
166.295594
 30
0.0
 10
86.066512
 20
166.235024
 30
0.0
 10
85.984532
 20
166.177684
 30
0.0
 10
85.900322
 20
166.123674
 30
0.0
 10
85.814012
 20
166.073074
 30
0.0
 10
85.725752
 20
166.025964
 30
0.0
 10
85.635682
 20
165.982424
 30
0.0
 10
85.543942
 20
165.942524
 30
0.0
 10
85.450672
 20
165.906334
 30
0.0
 10
85.356032
 20
165.873904
 30
0.0
 10
85.260172
 20
165.845284
 30
0.0
 10
85.163242
 20
165.820524
 30
0.0
 10
85.065402
 20
165.799654
 30
0.0
 10
84.966802
 20
165.782724
 30
0.0
 10
84.867602
 20
165.769744
 30
0.0
 10
84.767962
 20
165.760744
 30
0.0
 10
84.668042
 20
165.755744
 30
0.0
 10
84.568003
 20
165.754744
 30
0.0
 10
84.468003
 20
165.757744
 30
0.0
 10
84.368203
 20
165.764744
 30
0.0
 10
84.268763
 20
165.775734
 30
0.0
 10
84.169843
 20
165.790694
 30
0.0
 10
84.071603
 20
165.809594
 30
0.0
 10
83.974193
 20
165.832414
 30
0.0
 10
83.877773
 20
165.859114
 30
0.0
 10
83.782503
 20
165.889644
 30
0.0
 10
83.688533
 20
165.923964
 30
0.0
 10
83.596013
 20
165.962014
 30
0.0
 10
83.505083
 20
166.003744
 30
0.0
 10
83.415903
 20
166.049074
 30
0.0
 10
83.328603
 20
166.097934
 30
0.0
 10
83.243323
 20
166.150254
 30
0.0
 10
83.160213
 20
166.205934
 30
0.0
 10
83.079393
 20
166.264904
 30
0.0
 10
83.000993
 20
166.327054
 30
0.0
 10
82.925143
 20
166.392294
 30
0.0
 10
82.851973
 20
166.460514
 30
0.0
 10
82.781583
 20
166.531604
 30
0.0
 10
82.714093
 20
166.605454
 30
0.0
 10
82.649613
 20
166.681944
 30
0.0
 10
82.588243
 20
166.760954
 30
0.0
 10
82.530093
 20
166.842364
 30
0.0
 10
82.475243
 20
166.926034
 30
0.0
 10
82.423783
 20
167.011824
 30
0.0
 10
82.375793
 20
167.099614
 30
0.0
 10
82.331363
 20
167.189254
 30
0.0
 10
82.290553
 20
167.280594
 30
0.0
 10
82.253423
 20
167.373494
 30
0.0
 10
82.220043
 20
167.467804
 30
0.0
 10
82.190463
 20
167.563374
 30
0.0
 10
82.164733
 20
167.660054
 30
0.0
 10
82.142893
 20
167.757684
 30
0.0
 10
82.124973
 20
167.856114
 30
0.0
 10
82.111003
 20
167.955174
 30
0.0
 10
82.101003
 20
168.054714
 30
0.0
 10
82.095003
 20
168.154574
 30
0.0
  0
LWPOLYLINE
  5
12c
100
AcDbEntity
  8
0
 62
1
100
AcDbPolyline
 90
1
 70
1
 10
33.093003
 20
168.254583
 30
0.0
  0
SPLINE
  5
12d
100
AcDbEntity
  8
0
 62
1
100
AcDbSpline
 70
0
 71
3
 72
25
 73
21
 74
19
 40
0.000000
 40
0.000000
 40
0.000000
 40
0.000000
 40
0.872410
 40
1.732335
 40
2.604745
 40
3.477156
 40
4.337080
 40
5.209491
 40
6.081901
 40
6.941826
 40
7.814236
 40
8.686646
 40
9.546571
 40
10.418981
 40
11.291392
 40
12.151316
 40
13.023727
 40
13.896137
 40
14.756062
 40
15.628472
 40
15.628472
 40
15.628472
 40
15.628472
 10
33.093003
 20
168.254583
 30
0.0
 10
33.063133
 20
168.546870
 30
0.0
 10
33.003821
 20
169.127260
 30
0.0
 10
32.543654
 20
169.894254
 30
0.0
 10
31.869892
 20
170.464494
 30
0.0
 10
31.035565
 20
170.766931
 30
0.0
 10
30.150250
 20
170.766931
 30
0.0
 10
29.317091
 20
170.464494
 30
0.0
 10
28.638663
 20
169.894254
 30
0.0
 10
28.195832
 20
169.127260
 30
0.0
 10
28.041218
 20
168.254583
 30
0.0
 10
28.195832
 20
167.381906
 30
0.0
 10
28.638663
 20
166.614912
 30
0.0
 10
29.317091
 20
166.044672
 30
0.0
 10
30.150250
 20
165.742235
 30
0.0
 10
31.035565
 20
165.742235
 30
0.0
 10
31.869892
 20
166.044672
 30
0.0
 10
32.543654
 20
166.614912
 30
0.0
 10
33.003821
 20
167.381906
 30
0.0
 10
33.063133
 20
167.962296
 30
0.0
 10
33.093003
 20
168.254583
 30
0.0
 11
33.093003
 21
168.254583
 31
0.0
 11
32.940818
 21
169.113617
 31
0.0
 11
32.510856
 21
169.858334
 31
0.0
 11
31.843003
 21
170.419647
 31
0.0
 11
31.022965
 21
170.717368
 31
0.0
 11
30.163041
 21
170.717368
 31
0.0
 11
29.343003
 21
170.419647
 31
0.0
 11
28.675150
 21
169.858334
 31
0.0
 11
28.245188
 21
169.113617
 31
0.0
 11
28.093003
 21
168.254583
 31
0.0
 11
28.245188
 21
167.395549
 31
0.0
 11
28.675150
 21
166.650832
 31
0.0
 11
29.343003
 21
166.089519
 31
0.0
 11
30.163041
 21
165.791798
 31
0.0
 11
31.022965
 21
165.791798
 31
0.0
 11
31.843003
 21
166.089519
 31
0.0
 11
32.510856
 21
166.650832
 31
0.0
 11
32.940818
 21
167.395549
 31
0.0
 11
33.093003
 21
168.254583
 31
0.0
  0
LWPOLYLINE
  5
12e
100
AcDbEntity
  8
0
 62
1
100
AcDbPolyline
 90
157
 70
1
 10
109.093003
 20
183.254584
 30
0.0
 10
109.095003
 20
183.354608
 30
0.0
 10
109.101003
 20
183.454468
 30
0.0
 10
109.111003
 20
183.554008
 30
0.0
 10
109.124973
 20
183.653068
 30
0.0
 10
109.142893
 20
183.751498
 30
0.0
 10
109.164733
 20
183.849128
 30
0.0
 10
109.190463
 20
183.945808
 30
0.0
 10
109.220043
 20
184.041378
 30
0.0
 10
109.253423
 20
184.135688
 30
0.0
 10
109.290553
 20
184.228588
 30
0.0
 10
109.331363
 20
184.319928
 30
0.0
 10
109.375793
 20
184.409568
 30
0.0
 10
109.423783
 20
184.497348
 30
0.0
 10
109.475243
 20
184.583138
 30
0.0
 10
109.530093
 20
184.666808
 30
0.0
 10
109.588243
 20
184.748208
 30
0.0
 10
109.649613
 20
184.827218
 30
0.0
 10
109.714093
 20
184.903718
 30
0.0
 10
109.781583
 20
184.977568
 30
0.0
 10
109.851973
 20
185.048658
 30
0.0
 10
109.925143
 20
185.116878
 30
0.0
 10
110.000993
 20
185.182118
 30
0.0
 10
110.079393
 20
185.244268
 30
0.0
 10
110.160213
 20
185.303238
 30
0.0
 10
110.243323
 20
185.358918
 30
0.0
 10
110.328603
 20
185.411238
 30
0.0
 10
110.415903
 20
185.460098
 30
0.0
 10
110.505093
 20
185.505428
 30
0.0
 10
110.596023
 20
185.547158
 30
0.0
 10
110.688543
 20
185.585208
 30
0.0
 10
110.782513
 20
185.619528
 30
0.0
 10
110.877783
 20
185.650068
 30
0.0
 10
110.974203
 20
185.676768
 30
0.0
 10
111.071613
 20
185.699588
 30
0.0
 10
111.169853
 20
185.718488
 30
0.0
 10
111.268773
 20
185.733448
 30
0.0
 10
111.368213
 20
185.744438
 30
0.0
 10
111.468013
 20
185.751438
 30
0.0
 10
111.568013
 20
185.754438
 30
0.0
 10
111.668052
 20
185.753438
 30
0.0
 10
111.767972
 20
185.748438
 30
0.0
 10
111.867612
 20
185.739438
 30
0.0
 10
111.966812
 20
185.726458
 30
0.0
 10
112.065412
 20
185.709528
 30
0.0
 10
112.163252
 20
185.688658
 30
0.0
 10
112.260182
 20
185.663898
 30
0.0
 10
112.356042
 20
185.635278
 30
0.0
 10
112.450682
 20
185.602848
 30
0.0
 10
112.543952
 20
185.566658
 30
0.0
 10
112.635702
 20
185.526758
 30
0.0
 10
112.725772
 20
185.483218
 30
0.0
 10
112.814032
 20
185.436108
 30
0.0
 10
112.900342
 20
185.385508
 30
0.0
 10
112.984552
 20
185.331498
 30
0.0
 10
113.066532
 20
185.274158
 30
0.0
 10
113.146152
 20
185.213588
 30
0.0
 10
113.223292
 20
185.149878
 30
0.0
 10
113.297822
 20
185.083138
 30
0.0
 10
113.369612
 20
185.013468
 30
0.0
 10
113.438562
 20
184.940978
 30
0.0
 10
113.504562
 20
184.865788
 30
0.0
 10
113.567492
 20
184.788018
 30
0.0
 10
113.627262
 20
184.707798
 30
0.0
 10
113.683772
 20
184.625248
 30
0.0
 10
113.736942
 20
184.540498
 30
0.0
 10
113.786672
 20
184.453688
 30
0.0
 10
113.832892
 20
184.364958
 30
0.0
 10
113.875522
 20
184.274448
 30
0.0
 10
113.914502
 20
184.182308
 30
0.0
 10
113.949762
 20
184.088678
 30
0.0
 10
113.981252
 20
183.993718
 30
0.0
 10
114.008912
 20
183.897578
 30
0.0
 10
114.032702
 20
183.800408
 30
0.0
 10
114.052582
 20
183.702358
 30
0.0
 10
114.068532
 20
183.603598
 30
0.0
 10
114.080512
 20
183.504278
 30
0.0
 10
114.088512
 20
183.404558
 30
0.0
 10
114.092512
 20
183.304598
 30
0.0
 10
114.092512
 20
183.204554
 30
0.0
 10
114.088512
 20
183.104594
 30
0.0
 10
114.080512
 20
183.004874
 30
0.0
 10
114.068532
 20
182.905554
 30
0.0
 10
114.052582
 20
182.806794
 30
0.0
 10
114.032702
 20
182.708744
 30
0.0
 10
114.008912
 20
182.611574
 30
0.0
 10
113.981252
 20
182.515434
 30
0.0
 10
113.949762
 20
182.420474
 30
0.0
 10
113.914502
 20
182.326844
 30
0.0
 10
113.875522
 20
182.234704
 30
0.0
 10
113.832892
 20
182.144194
 30
0.0
 10
113.786672
 20
182.055464
 30
0.0
 10
113.736942
 20
181.968654
 30
0.0
 10
113.683772
 20
181.883904
 30
0.0
 10
113.627262
 20
181.801354
 30
0.0
 10
113.567492
 20
181.721124
 30
0.0
 10
113.504562
 20
181.643354
 30
0.0
 10
113.438562
 20
181.568164
 30
0.0
 10
113.369612
 20
181.495674
 30
0.0
 10
113.297822
 20
181.426004
 30
0.0
 10
113.223292
 20
181.359264
 30
0.0
 10
113.146152
 20
181.295554
 30
0.0
 10
113.066532
 20
181.234984
 30
0.0
 10
112.984552
 20
181.177644
 30
0.0
 10
112.900342
 20
181.123634
 30
0.0
 10
112.814032
 20
181.073034
 30
0.0
 10
112.725772
 20
181.025924
 30
0.0
 10
112.635702
 20
180.982384
 30
0.0
 10
112.543952
 20
180.942484
 30
0.0
 10
112.450682
 20
180.906294
 30
0.0
 10
112.356042
 20
180.873864
 30
0.0
 10
112.260182
 20
180.845244
 30
0.0
 10
112.163252
 20
180.820484
 30
0.0
 10
112.065412
 20
180.799614
 30
0.0
 10
111.966812
 20
180.782684
 30
0.0
 10
111.867612
 20
180.769704
 30
0.0
 10
111.767972
 20
180.760704
 30
0.0
 10
111.668052
 20
180.755704
 30
0.0
 10
111.568013
 20
180.754704
 30
0.0
 10
111.468013
 20
180.757704
 30
0.0
 10
111.368213
 20
180.764704
 30
0.0
 10
111.268773
 20
180.775694
 30
0.0
 10
111.169853
 20
180.790654
 30
0.0
 10
111.071613
 20
180.809554
 30
0.0
 10
110.974203
 20
180.832374
 30
0.0
 10
110.877783
 20
180.859074
 30
0.0
 10
110.782513
 20
180.889614
 30
0.0
 10
110.688543
 20
180.923934
 30
0.0
 10
110.596023
 20
180.961984
 30
0.0
 10
110.505093
 20
181.003714
 30
0.0
 10
110.415903
 20
181.049044
 30
0.0
 10
110.328603
 20
181.097904
 30
0.0
 10
110.243323
 20
181.150224
 30
0.0
 10
110.160213
 20
181.205914
 30
0.0
 10
110.079393
 20
181.264884
 30
0.0
 10
110.000993
 20
181.327034
 30
0.0
 10
109.925143
 20
181.392274
 30
0.0
 10
109.851973
 20
181.460494
 30
0.0
 10
109.781583
 20
181.531584
 30
0.0
 10
109.714093
 20
181.605434
 30
0.0
 10
109.649613
 20
181.681934
 30
0.0
 10
109.588243
 20
181.760944
 30
0.0
 10
109.530093
 20
181.842354
 30
0.0
 10
109.475243
 20
181.926024
 30
0.0
 10
109.423783
 20
182.011814
 30
0.0
 10
109.375793
 20
182.099604
 30
0.0
 10
109.331363
 20
182.189234
 30
0.0
 10
109.290553
 20
182.280574
 30
0.0
 10
109.253423
 20
182.373474
 30
0.0
 10
109.220043
 20
182.467784
 30
0.0
 10
109.190463
 20
182.563354
 30
0.0
 10
109.164733
 20
182.660034
 30
0.0
 10
109.142893
 20
182.757664
 30
0.0
 10
109.124973
 20
182.856094
 30
0.0
 10
109.111003
 20
182.955154
 30
0.0
 10
109.101003
 20
183.054694
 30
0.0
 10
109.095003
 20
183.154554
 30
0.0
  0
SPLINE
  5
12f
100
AcDbEntity
  8
0
 62
1
100
AcDbSpline
 70
0
 71
3
 72
25
 73
21
 74
19
 40
0.000000
 40
0.000000
 40
0.000000
 40
0.000000
 40
0.872410
 40
1.732335
 40
2.604745
 40
3.477156
 40
4.337080
 40
5.209491
 40
6.081901
 40
6.941826
 40
7.814236
 40
8.686646
 40
9.546571
 40
10.418981
 40
11.291392
 40
12.151316
 40
13.023727
 40
13.896137
 40
14.756062
 40
15.628472
 40
15.628472
 40
15.628472
 40
15.628472
 10
6.093003
 20
183.254583
 30
0.0
 10
6.063133
 20
183.546870
 30
0.0
 10
6.003821
 20
184.127260
 30
0.0
 10
5.543654
 20
184.894254
 30
0.0
 10
4.869892
 20
185.464494
 30
0.0
 10
4.035565
 20
185.766931
 30
0.0
 10
3.150250
 20
185.766931
 30
0.0
 10
2.317091
 20
185.464494
 30
0.0
 10
1.638663
 20
184.894254
 30
0.0
 10
1.195832
 20
184.127260
 30
0.0
 10
1.041218
 20
183.254583
 30
0.0
 10
1.195832
 20
182.381906
 30
0.0
 10
1.638663
 20
181.614912
 30
0.0
 10
2.317091
 20
181.044672
 30
0.0
 10
3.150250
 20
180.742235
 30
0.0
 10
4.035565
 20
180.742235
 30
0.0
 10
4.869892
 20
181.044672
 30
0.0
 10
5.543654
 20
181.614912
 30
0.0
 10
6.003821
 20
182.381906
 30
0.0
 10
6.063133
 20
182.962296
 30
0.0
 10
6.093003
 20
183.254583
 30
0.0
 11
6.093003
 21
183.254583
 31
0.0
 11
5.940818
 21
184.113617
 31
0.0
 11
5.510856
 21
184.858334
 31
0.0
 11
4.843003
 21
185.419647
 31
0.0
 11
4.022965
 21
185.717368
 31
0.0
 11
3.163041
 21
185.717368
 31
0.0
 11
2.343003
 21
185.419647
 31
0.0
 11
1.675150
 21
184.858334
 31
0.0
 11
1.245188
 21
184.113617
 31
0.0
 11
1.093003
 21
183.254583
 31
0.0
 11
1.245188
 21
182.395549
 31
0.0
 11
1.675150
 21
181.650832
 31
0.0
 11
2.343003
 21
181.089519
 31
0.0
 11
3.163041
 21
180.791798
 31
0.0
 11
4.022965
 21
180.791798
 31
0.0
 11
4.843003
 21
181.089519
 31
0.0
 11
5.510856
 21
181.650832
 31
0.0
 11
5.940818
 21
182.395549
 31
0.0
 11
6.093003
 21
183.254583
 31
0.0
  0
LWPOLYLINE
  5
130
100
AcDbEntity
  8
0
 62
1
100
AcDbPolyline
 90
1
 70
1
 10
6.093003
 20
183.254583
 30
0.0
  0
ENDSEC
  0
SECTION
  2
OBJECTS
  0
DICTIONARY
  5
C
330
0
100
AcDbDictionary
  3
ACAD_GROUP
350
D
  3
ACAD_MLINESTYLE
350
17
  0
DICTIONARY
  5
D
330
C
100
AcDbDictionary
  0
DICTIONARY
  5
1A
330
C
100
AcDbDictionary
  0
DICTIONARY
  5
17
330
C
100
AcDbDictionary
  3
STANDARD
350
18
  0
DICTIONARY
  5
19
330
C
100
AcDbDictionary
  0
ENDSEC
  0
EOF
