<?xml version="1.0" encoding="UTF-8" standalone="no"?>
<svg
   xmlns:dc="http://purl.org/dc/elements/1.1/"
   xmlns:cc="http://creativecommons.org/ns#"
   xmlns:rdf="http://www.w3.org/1999/02/22-rdf-syntax-ns#"
   xmlns:svg="http://www.w3.org/2000/svg"
   xmlns="http://www.w3.org/2000/svg"
   xmlns:sodipodi="http://sodipodi.sourceforge.net/DTD/sodipodi-0.dtd"
   xmlns:inkscape="http://www.inkscape.org/namespaces/inkscape"
   width="297mm"
   height="210mm"
   viewBox="-90.907 -119.32499 297.00001 210"
   version="1.1"
   id="svg53"
   sodipodi:docname="M-19_v100k_punch.svg"
   inkscape:version="0.92.5 (0.92.5+68)">
  <metadata
     id="metadata59">
    <rdf:RDF>
      <cc:Work
         rdf:about="">
        <dc:format>image/svg+xml</dc:format>
        <dc:type
           rdf:resource="http://purl.org/dc/dcmitype/StillImage" />
        <dc:title></dc:title>
      </cc:Work>
    </rdf:RDF>
  </metadata>
  <defs
     id="defs57">
    <marker
       inkscape:stockid="Arrow1Lstart"
       style="overflow:visible"
       refY="0"
       refX="0"
       orient="auto"
       id="Arrow1Lstart">
      <path
         id="path867"
         style="fill-rule:evenodd;stroke:#000000;stroke-width:1.00000003pt;marker-start:none"
         transform="matrix(0.8,0,0,0.8,10,0)"
         d="M 0,0 5,-5 -12.5,0 5,5 Z"
         inkscape:connector-curvature="0" />
    </marker>
    <marker
       inkscape:stockid="Arrow1Lend"
       style="overflow:visible"
       refY="0"
       refX="0"
       orient="auto"
       id="Arrow1Lend">
      <path
         id="path870"
         style="fill-rule:evenodd;stroke:#000000;stroke-width:1.00000003pt;marker-start:none"
         transform="matrix(-0.8,0,0,-0.8,-10,0)"
         d="M 0,0 5,-5 -12.5,0 5,5 Z"
         inkscape:connector-curvature="0" />
    </marker>
  </defs>
  <sodipodi:namedview
     pagecolor="#ffffff"
     bordercolor="#666666"
     borderopacity="1"
     objecttolerance="10"
     gridtolerance="10"
     guidetolerance="10"
     inkscape:pageopacity="0"
     inkscape:pageshadow="2"
     inkscape:window-width="1920"
     inkscape:window-height="993"
     id="namedview55"
     showgrid="false"
     inkscape:zoom="0.74004492"
     inkscape:cx="529.25646"
     inkscape:cy="409.04311"
     inkscape:window-x="0"
     inkscape:window-y="46"
     inkscape:window-maximized="1"
     inkscape:current-layer="g933" />
  <g
     id="g933"
     style="fill:none;stroke:#000000"
     transform="translate(0,90.675011)">
    <path
       id="path875"
       d="M -33.313997,-164.86241 H 148.5"
       style="fill:#0000ff;fill-opacity:1;stroke:#0000ff;stroke-width:0.26458332;stroke-opacity:1;marker-start:url(#Arrow1Lstart);marker-end:url(#Arrow1Lend)"
       inkscape:connector-curvature="0" />
    <path
       id="path877"
       d="m -33.313997,-178.09157 v 19.59809"
       inkscape:connector-curvature="0"
       style="fill:#0000ff;fill-opacity:1;stroke:#0000ff;stroke-width:0.0484686;stroke-opacity:1" />
    <path
       id="path879"
       d="m 148.5,-178.09157 v 19.59809"
       inkscape:connector-curvature="0"
       style="fill:#0000ff;fill-opacity:1;stroke:#0000ff;stroke-width:0.0484686;stroke-opacity:1" />
    <g
       transform="matrix(1,0,0,-1,57.593003,-32.089888)"
       id="Shape2DView001">
      <path
         style="fill:none;fill-rule:evenodd;stroke:#191919;stroke-width:0.34999999;stroke-miterlimit:4;stroke-dasharray:none"
         d="m 73.5,110.83971 v -9"
         id="Shape2DView001_nwe0000"
         inkscape:connector-curvature="0" />
      <path
         style="fill:none;fill-rule:evenodd;stroke:#191919;stroke-width:0.34999999;stroke-miterlimit:4;stroke-dasharray:none"
         d="M 73.5,110.83971 A 8.7035,8.7035 0 0 0 90.907,110.84"
         id="Shape2DView001_nwe0001"
         inkscape:connector-curvature="0" />
      <path
         style="fill:none;fill-rule:evenodd;stroke:#191919;stroke-width:0.34999999;stroke-miterlimit:4;stroke-dasharray:none"
         d="M 73.5,101.83971 C 74.261824,67.120128 62.251699,51.340088 47.531375,41.09988 32.640033,31.28679 15.038491,27.013532 0,26.839707"
         id="Shape2DView001_nwe0002"
         inkscape:connector-curvature="0" />
      <path
         style="fill:none;fill-rule:evenodd;stroke:#191919;stroke-width:0.34999999;stroke-miterlimit:4;stroke-dasharray:none"
         d="m 90.907,95.34 v 15.49971"
         id="Shape2DView001_nwe0003"
         inkscape:connector-curvature="0" />
      <path
         style="fill:none;fill-rule:evenodd;stroke:#191919;stroke-width:0.34999999;stroke-miterlimit:4;stroke-dasharray:none"
         d="m 90.907,95.34 a 4,4 0 1 0 -8,0"
         id="Shape2DView001_nwe0004"
         inkscape:connector-curvature="0" />
      <path
         style="fill:none;fill-rule:evenodd;stroke:#191919;stroke-width:0.34999999;stroke-miterlimit:4;stroke-dasharray:none"
         d="m 82.907,99.34 v -4"
         id="Shape2DView001_nwe0005"
         inkscape:connector-curvature="0" />
      <path
         style="fill:none;fill-rule:evenodd;stroke:#191919;stroke-width:0.34999999;stroke-miterlimit:4;stroke-dasharray:none"
         d="m 80.407,99.34 a 1.25,1.25 0 1 0 2.5,0"
         id="Shape2DView001_nwe0006"
         inkscape:connector-curvature="0" />
      <path
         style="fill:none;fill-rule:evenodd;stroke:#191919;stroke-width:0.34999999;stroke-miterlimit:4;stroke-dasharray:none"
         d="M 80.407,98.996 V 99.34"
         id="Shape2DView001_nwe0007"
         inkscape:connector-curvature="0" />
      <path
         style="fill:none;fill-rule:evenodd;stroke:#191919;stroke-width:0.34999999;stroke-miterlimit:4;stroke-dasharray:none"
         d="M 79.223062,73.621204 80.407,98.996"
         id="Shape2DView001_nwe0008"
         inkscape:connector-curvature="0" />
      <path
         style="fill:none;fill-rule:evenodd;stroke:#191919;stroke-width:0.34999999;stroke-miterlimit:4;stroke-dasharray:none"
         d="M 79.223062,73.621204 A 3,3 0 1 0 78.7619,68.5713"
         id="Shape2DView001_nwe0009"
         inkscape:connector-curvature="0" />
      <path
         style="fill:none;fill-rule:evenodd;stroke:#191919;stroke-width:0.34999999;stroke-miterlimit:4;stroke-dasharray:none"
         d="m 69.358473,35.274308 q 6.663816,13.804499 9.403396,33.29704"
         id="Shape2DView001_nwe0010"
         inkscape:connector-curvature="0" />
      <path
         style="fill:none;fill-rule:evenodd;stroke:#191919;stroke-width:0.34999999;stroke-miterlimit:4;stroke-dasharray:none"
         d="m 41.380154,7.021268 q 16.086824,7.078988 25.587804,23.703925"
         id="Shape2DView001_nwe0011"
         inkscape:connector-curvature="0" />
      <path
         style="fill:none;fill-rule:evenodd;stroke:#191919;stroke-width:0.34999999;stroke-miterlimit:4;stroke-dasharray:none"
         d="M 69.358473,35.274308 A 3,3 0 1 0 66.968,30.7252"
         id="Shape2DView001_nwe0012"
         inkscape:connector-curvature="0" />
      <path
         style="fill:none;fill-rule:evenodd;stroke:#191919;stroke-width:0.34999999;stroke-miterlimit:4;stroke-dasharray:none"
         d="M 41.380154,7.021268 A 3,3 0 1 0 36.5498,4.64437"
         id="Shape2DView001_nwe0013"
         inkscape:connector-curvature="0" />
      <path
         style="fill:none;fill-rule:evenodd;stroke:#191919;stroke-width:0.34999999;stroke-miterlimit:4;stroke-dasharray:none"
         d="M 36.549752,4.6443736 A 3,3 0 0 0 36.5785,5.0587"
         id="Shape2DView001_nwe0014"
         inkscape:connector-curvature="0" />
      <path
         style="fill:none;fill-rule:evenodd;stroke:#191919;stroke-width:0.34999999;stroke-miterlimit:4;stroke-dasharray:none"
         d="M 0,0 Q 22.644758,-0.18726056 36.578501,5.0586992"
         id="Shape2DView001_nwe0015"
         inkscape:connector-curvature="0" />
      <path
         style="fill:none;fill-rule:evenodd;stroke:#191919;stroke-width:0.34999999;stroke-miterlimit:4;stroke-dasharray:none"
         d="M -73.5,101.83971 C -74.261824,67.120128 -62.251699,51.340088 -47.531375,41.09988 -32.640033,31.28679 -15.038491,27.013532 0,26.839707"
         id="Shape2DView001_nwe0016"
         inkscape:connector-curvature="0" />
      <path
         style="fill:none;fill-rule:evenodd;stroke:#191919;stroke-width:0.34999999;stroke-miterlimit:4;stroke-dasharray:none"
         d="m -73.5,110.83971 v -9"
         id="Shape2DView001_nwe0017"
         inkscape:connector-curvature="0" />
      <path
         style="fill:none;fill-rule:evenodd;stroke:#191919;stroke-width:0.34999999;stroke-miterlimit:4;stroke-dasharray:none"
         d="M -73.5,110.83971 A 8.7035,8.7035 0 0 1 -90.907,110.84"
         id="Shape2DView001_nwe0018"
         inkscape:connector-curvature="0" />
      <path
         style="fill:none;fill-rule:evenodd;stroke:#191919;stroke-width:0.34999999;stroke-miterlimit:4;stroke-dasharray:none"
         d="m -90.907,95.34 v 15.49971"
         id="Shape2DView001_nwe0019"
         inkscape:connector-curvature="0" />
      <path
         style="fill:none;fill-rule:evenodd;stroke:#191919;stroke-width:0.34999999;stroke-miterlimit:4;stroke-dasharray:none"
         d="m -90.907,95.34 a 4,4 0 1 1 8,0"
         id="Shape2DView001_nwe0020"
         inkscape:connector-curvature="0" />
      <path
         style="fill:none;fill-rule:evenodd;stroke:#191919;stroke-width:0.34999999;stroke-miterlimit:4;stroke-dasharray:none"
         d="M 0,0 Q -22.644758,-0.18726056 -36.578501,5.0586992"
         id="Shape2DView001_nwe0021"
         inkscape:connector-curvature="0" />
      <path
         style="fill:none;fill-rule:evenodd;stroke:#191919;stroke-width:0.34999999;stroke-miterlimit:4;stroke-dasharray:none"
         d="m -82.907,99.34 v -4"
         id="Shape2DView001_nwe0022"
         inkscape:connector-curvature="0" />
      <path
         style="fill:none;fill-rule:evenodd;stroke:#191919;stroke-width:0.34999999;stroke-miterlimit:4;stroke-dasharray:none"
         d="M -41.380154,7.021268 A 3,3 0 1 1 -36.5498,4.64437"
         id="Shape2DView001_nwe0023"
         inkscape:connector-curvature="0" />
      <path
         style="fill:none;fill-rule:evenodd;stroke:#191919;stroke-width:0.34999999;stroke-miterlimit:4;stroke-dasharray:none"
         d="M -36.549752,4.6443736 A 3,3 0 0 1 -36.5785,5.0587"
         id="Shape2DView001_nwe0024"
         inkscape:connector-curvature="0" />
      <path
         style="fill:none;fill-rule:evenodd;stroke:#191919;stroke-width:0.34999999;stroke-miterlimit:4;stroke-dasharray:none"
         d="m -80.407,99.34 a 1.25,1.25 0 1 1 -2.5,0"
         id="Shape2DView001_nwe0025"
         inkscape:connector-curvature="0" />
      <path
         style="fill:none;fill-rule:evenodd;stroke:#191919;stroke-width:0.34999999;stroke-miterlimit:4;stroke-dasharray:none"
         d="M -80.407,98.996 V 99.34"
         id="Shape2DView001_nwe0026"
         inkscape:connector-curvature="0" />
      <path
         style="fill:none;fill-rule:evenodd;stroke:#191919;stroke-width:0.34999999;stroke-miterlimit:4;stroke-dasharray:none"
         d="m -41.380154,7.021268 q -16.086824,7.078988 -25.587804,23.703925"
         id="Shape2DView001_nwe0027"
         inkscape:connector-curvature="0" />
      <path
         style="fill:none;fill-rule:evenodd;stroke:#191919;stroke-width:0.34999999;stroke-miterlimit:4;stroke-dasharray:none"
         d="M -79.223062,73.621204 -80.407,98.996"
         id="Shape2DView001_nwe0028"
         inkscape:connector-curvature="0" />
      <path
         style="fill:none;fill-rule:evenodd;stroke:#191919;stroke-width:0.34999999;stroke-miterlimit:4;stroke-dasharray:none"
         d="M -69.358473,35.274308 A 3,3 0 1 1 -66.968,30.7252"
         id="Shape2DView001_nwe0029"
         inkscape:connector-curvature="0" />
      <path
         style="fill:none;fill-rule:evenodd;stroke:#191919;stroke-width:0.34999999;stroke-miterlimit:4;stroke-dasharray:none"
         d="M -79.223062,73.621204 A 3,3 0 1 1 -78.7619,68.5713"
         id="Shape2DView001_nwe0030"
         inkscape:connector-curvature="0" />
      <path
         style="fill:none;fill-rule:evenodd;stroke:#191919;stroke-width:0.34999999;stroke-miterlimit:4;stroke-dasharray:none"
         d="m -69.358473,35.274308 q -6.663816,13.804499 -9.403396,33.29704"
         id="Shape2DView001_nwe0031"
         inkscape:connector-curvature="0" />
      <path
         style="fill:none;fill-rule:evenodd;stroke:#191919;stroke-width:0.34999999;stroke-miterlimit:4;stroke-dasharray:none"
         d="m 85.2035,112.08971 h -6"
         id="Shape2DView001_nwe0032"
         inkscape:connector-curvature="0" />
      <path
         style="fill:none;fill-rule:evenodd;stroke:#191919;stroke-width:0.34999999;stroke-miterlimit:4;stroke-dasharray:none"
         d="m 79.2035,109.58971 a 1.2501465,1.2501465 0 0 0 0,2.50029"
         id="Shape2DView001_nwe0033"
         inkscape:connector-curvature="0" />
      <path
         style="fill:none;fill-rule:evenodd;stroke:#191919;stroke-width:0.34999999;stroke-miterlimit:4;stroke-dasharray:none"
         d="m 85.2035,112.08971 a 1.25,1.25 0 1 0 0,-2.49971"
         id="Shape2DView001_nwe0034"
         inkscape:connector-curvature="0" />
      <path
         style="fill:none;fill-rule:evenodd;stroke:#191919;stroke-width:0.34999999;stroke-miterlimit:4;stroke-dasharray:none"
         d="m 85.2035,109.58971 h -6"
         id="Shape2DView001_nwe0035"
         inkscape:connector-curvature="0" />
      <path
         style="fill:none;fill-rule:evenodd;stroke:#191919;stroke-width:0.34999999;stroke-miterlimit:4;stroke-dasharray:none"
         d="m -85.2035,112.08971 h 6"
         id="Shape2DView001_nwe0036"
         inkscape:connector-curvature="0" />
      <path
         style="fill:none;fill-rule:evenodd;stroke:#191919;stroke-width:0.34999999;stroke-miterlimit:4;stroke-dasharray:none"
         d="m -79.2035,109.58971 a 1.2501465,1.2501465 0 0 1 0,2.50029"
         id="Shape2DView001_nwe0037"
         inkscape:connector-curvature="0" />
      <path
         style="fill:none;fill-rule:evenodd;stroke:#191919;stroke-width:0.34999999;stroke-miterlimit:4;stroke-dasharray:none"
         d="m -85.2035,112.08971 a 1.25,1.25 0 1 1 0,-2.49971"
         id="Shape2DView001_nwe0038"
         inkscape:connector-curvature="0" />
      <path
         style="fill:none;fill-rule:evenodd;stroke:#191919;stroke-width:0.34999999;stroke-miterlimit:4;stroke-dasharray:none"
         d="m -85.2035,109.58971 h 6"
         id="Shape2DView001_nwe0039"
         inkscape:connector-curvature="0" />
      <path
         id="path42"
         style="fill:none;stroke:#191919;stroke-width:0.34999999;stroke-miterlimit:4;stroke-dasharray:none"
         d="m 24.5,16.839707 0.002,0.100024 0.006,0.09986 0.01,0.09954 0.01397,0.09906 0.01792,0.09843 0.02184,0.09763 0.02573,0.09668 0.02958,0.09557 0.03338,0.09431 0.03713,0.0929 0.04081,0.09134 0.04443,0.08964 0.04799,0.08779 0.05146,0.08579 0.05485,0.08367 0.05815,0.08141 0.06137,0.07901 0.06448,0.0765 0.06749,0.07385 0.07039,0.07109 0.07317,0.06822 0.07585,0.06524 0.0784,0.06215 0.08082,0.05897 0.08311,0.05569 0.08528,0.05232 0.0873,0.04886 0.08918,0.04533 0.09093,0.04173 0.09252,0.03805 0.09397,0.03432 0.09527,0.03054 0.09642,0.0267 0.09741,0.02282 0.09824,0.0189 0.09892,0.01496 0.09944,0.01099 0.0998,0.007 0.1,0.003 0.100039,-10e-4 0.09992,-0.005 0.09964,-0.009 0.0992,-0.01298 0.0986,-0.01693 0.09784,-0.02087 0.09693,-0.02476 0.09586,-0.02862 0.09464,-0.03243 0.09327,-0.03619 0.09174,-0.0399 0.09007,-0.04354 0.08826,-0.04711 0.08631,-0.0506 0.08421,-0.05401 0.08198,-0.05734 0.07962,-0.06057 0.07714,-0.06371 0.07453,-0.06674 0.0718,-0.06967 0.06895,-0.07249 0.066,-0.07519 0.06293,-0.07777 0.05977,-0.08022 0.05651,-0.08255 0.05317,-0.08475 0.04973,-0.08681 0.04622,-0.08873 0.04263,-0.09051 0.03898,-0.09214 0.03526,-0.09362 0.03149,-0.09496 0.02766,-0.09614 0.02379,-0.09717 0.01989,-0.09805 0.01595,-0.09876 0.01198,-0.09932 0.008,-0.09972 0.004,-0.09996 v -0.100044 l -0.004,-0.09996 -0.008,-0.09972 -0.01198,-0.09932 -0.01595,-0.09876 -0.01989,-0.09805 -0.02379,-0.09717 -0.02766,-0.09614 -0.03149,-0.09496 -0.03526,-0.09363 -0.03898,-0.09214 -0.04263,-0.09051 -0.04622,-0.08873 -0.04973,-0.08681 -0.05317,-0.08475 -0.05651,-0.08255 -0.05977,-0.08023 -0.06293,-0.07777 -0.066,-0.07519 -0.06895,-0.07249 -0.0718,-0.06967 -0.07453,-0.06674 -0.07714,-0.06371 -0.07962,-0.06057 -0.08198,-0.05734 -0.08421,-0.05401 -0.08631,-0.0506 -0.08826,-0.04711 -0.09007,-0.04354 -0.09174,-0.0399 -0.09327,-0.03619 -0.09464,-0.03243 -0.09586,-0.02862 -0.09693,-0.02476 -0.09784,-0.02087 -0.0986,-0.01693 -0.0992,-0.01298 -0.09964,-0.009 -0.09992,-0.005 -0.100039,-10e-4 -0.1,0.003 -0.0998,0.007 -0.09944,0.01099 -0.09892,0.01496 -0.09824,0.0189 -0.09741,0.02282 -0.09642,0.0267 -0.09527,0.03053 -0.09397,0.03432 -0.09252,0.03805 -0.09093,0.04173 -0.08918,0.04533 -0.0873,0.04886 -0.08528,0.05232 -0.08311,0.05568 -0.08082,0.05897 -0.0784,0.06215 -0.07585,0.06524 -0.07317,0.06822 -0.07039,0.07109 -0.06749,0.07385 -0.06448,0.07649 -0.06137,0.07901 -0.05815,0.08141 -0.05485,0.08367 -0.05146,0.08579 -0.04799,0.08779 -0.04443,0.08964 -0.04081,0.09134 -0.03713,0.0929 -0.03338,0.09431 -0.02958,0.09557 -0.02573,0.09668 -0.02184,0.09763 -0.01792,0.09843 -0.01397,0.09906 -0.01,0.09954 -0.006,0.09986 -0.002,0.100024"
         inkscape:connector-curvature="0" />
      <circle
         id="circle44"
         style="fill:none;stroke:#191919;stroke-width:0.34999999;stroke-miterlimit:4;stroke-dasharray:none"
         r="2.5"
         cy="16.839706"
         cx="-27" />
      <path
         id="path46"
         style="fill:none;stroke:#191919;stroke-width:0.34999999;stroke-miterlimit:4;stroke-dasharray:none"
         d="m 51.5,31.839707 0.002,0.100024 0.006,0.09986 0.01,0.09954 0.01397,0.09906 0.01792,0.09843 0.02184,0.09763 0.02573,0.09668 0.02958,0.09557 0.03338,0.09431 0.03713,0.0929 0.04081,0.09134 0.04443,0.08964 0.04799,0.08778 0.05146,0.08579 0.05485,0.08367 0.05815,0.0814 0.06137,0.07901 0.06448,0.0765 0.06749,0.07385 0.07039,0.07109 0.07317,0.06822 0.07585,0.06524 0.0784,0.06215 0.08082,0.05897 0.08311,0.05568 0.08528,0.05232 0.0873,0.04886 0.08919,0.04533 0.09093,0.04173 0.09252,0.03805 0.09397,0.03432 0.09527,0.03054 0.09642,0.0267 0.09741,0.02282 0.09824,0.0189 0.09892,0.01496 0.09944,0.01099 0.0998,0.007 0.1,0.003 0.100039,-0.001 0.09992,-0.005 0.09964,-0.009 0.0992,-0.01298 0.0986,-0.01693 0.09784,-0.02087 0.09693,-0.02476 0.09586,-0.02862 0.09464,-0.03243 0.09327,-0.03619 0.09175,-0.0399 0.09007,-0.04354 0.08826,-0.04711 0.08631,-0.0506 0.08421,-0.05401 0.08198,-0.05734 0.07962,-0.06057 0.07714,-0.06371 0.07453,-0.06674 0.07179,-0.06967 0.06895,-0.07249 0.066,-0.07519 0.06293,-0.07777 0.05977,-0.08022 0.05651,-0.08255 0.05317,-0.08475 0.04973,-0.08681 0.04622,-0.08873 0.04263,-0.09051 0.03898,-0.09214 0.03526,-0.09363 0.03149,-0.09496 0.02766,-0.09614 0.02379,-0.09717 0.01988,-0.09805 0.01595,-0.09876 0.01198,-0.09932 0.008,-0.09972 0.004,-0.09996 v -0.100044 l -0.004,-0.09996 -0.008,-0.09972 -0.01198,-0.09932 -0.01595,-0.09876 -0.01988,-0.09805 -0.02379,-0.09717 -0.02766,-0.09614 -0.03149,-0.09496 -0.03526,-0.09363 -0.03898,-0.09214 -0.04263,-0.09051 -0.04622,-0.08873 -0.04973,-0.08681 -0.05317,-0.08475 -0.05651,-0.08255 -0.05977,-0.08023 -0.06293,-0.07777 -0.066,-0.07519 -0.06895,-0.07249 -0.07179,-0.06967 -0.07453,-0.06674 -0.07714,-0.06371 -0.07962,-0.06057 -0.08198,-0.05734 -0.08421,-0.05401 -0.08631,-0.0506 -0.08826,-0.04711 -0.09007,-0.04354 -0.09175,-0.0399 -0.09327,-0.03619 -0.09464,-0.03243 -0.09586,-0.02862 -0.09693,-0.02476 -0.09784,-0.02087 -0.0986,-0.01693 -0.0992,-0.01298 -0.09964,-0.009 -0.09992,-0.005 -0.100039,-0.001 -0.1,0.003 -0.0998,0.007 -0.09944,0.01099 -0.09892,0.01496 -0.09824,0.0189 -0.09741,0.02282 -0.09642,0.0267 -0.09527,0.03054 -0.09397,0.03432 -0.09252,0.03805 -0.09093,0.04173 -0.08919,0.04533 -0.0873,0.04886 -0.08528,0.05232 -0.08311,0.05569 -0.08082,0.05897 -0.0784,0.06215 -0.07585,0.06524 -0.07317,0.06822 -0.07039,0.07109 -0.06749,0.07385 -0.06448,0.0765 -0.06137,0.07901 -0.05815,0.08141 -0.05485,0.08367 -0.05146,0.08579 -0.04799,0.08779 -0.04443,0.08963 -0.04081,0.09134 -0.03713,0.0929 -0.03338,0.09431 -0.02958,0.09557 -0.02573,0.09668 -0.02184,0.09763 -0.01792,0.09843 -0.01397,0.09906 -0.01,0.09954 -0.006,0.09986 -0.002,0.100024"
         inkscape:connector-curvature="0" />
      <circle
         id="circle48"
         style="fill:none;stroke:#191919;stroke-width:0.34999999;stroke-miterlimit:4;stroke-dasharray:none"
         r="2.5"
         cy="31.839706"
         cx="-54" />
      <title
         id="title50">b'Shape2DView001'</title>
    </g>
    <text
       xml:space="preserve"
       style="font-style:normal;font-weight:normal;font-size:10.58333302px;line-height:1.25;font-family:sans-serif;letter-spacing:0px;word-spacing:0px;fill:#0000ff;fill-opacity:1;stroke:#0000ff;stroke-width:0.26458332;stroke-opacity:1"
       x="44.251179"
       y="-168.97795"
       id="text1007"><tspan
         sodipodi:role="line"
         id="tspan1005"
         x="44.251179"
         y="-168.97795"
         style="font-size:6.3499999px;fill:#0000ff;fill-opacity:1;stroke:#0000ff;stroke-width:0.26458332;stroke-opacity:1">182 mm</tspan></text>
    <text
       xml:space="preserve"
       style="font-style:normal;font-weight:normal;font-size:10.58333397px;line-height:1.25;font-family:sans-serif;letter-spacing:0px;word-spacing:0px;fill:#0000ff;fill-opacity:1;stroke:none;stroke-width:0.26458335"
       x="-35.199787"
       y="-14.18622"
       id="text1011"><tspan
         sodipodi:role="line"
         id="tspan1009"
         x="-35.199787"
         y="-14.18622"
         style="fill:#0000ff;fill-opacity:1;stroke-width:0.26458335">Maker's Asylum Foam Board Punch</tspan></text>
  </g>
</svg>
