<?xml version="1.0" encoding="UTF-8"?>
<!DOCTYPE svg PUBLIC "-//W3C//DTD SVG 1.1//EN" "http://www.w3.org/Graphics/SVG/1.1/DTD/svg11.dtd">
<!-- Creator: CorelDRAW 2019 (64-Bit) -->
<svg xmlns="http://www.w3.org/2000/svg" xml:space="preserve" width="18.8976in" height="13.7795in" version="1.1" style="shape-rendering:geometricPrecision; text-rendering:geometricPrecision; image-rendering:optimizeQuality; fill-rule:evenodd; clip-rule:evenodd"
viewBox="0 0 18897.64 13779.53"
 xmlns:xlink="http://www.w3.org/1999/xlink"
 xmlns:xodm="http://www.corel.com/coreldraw/odm/2003">
 <defs>
  <style type="text/css">
   <![CDATA[
    .str0 {stroke:#373435;stroke-width:6.94;stroke-miterlimit:2.61313}
    .str1 {stroke:#EE314C;stroke-width:6.94;stroke-miterlimit:10}
    .str2 {stroke:#B2A0C9;stroke-width:6.94;stroke-miterlimit:10}
    .str3 {stroke:#81B490;stroke-width:6.94;stroke-miterlimit:10}
    .fil0 {fill:none}
   ]]>
  </style>
 </defs>
 <g id="Layer_x0020_1">
  <metadata id="CorelCorpID_0Corel-Layer"/>
  <rect class="fil0 str0" x="1375.49" y="-42.78" width="16535.43" height="11692.91"/>
  <path class="fil0 str1" d="M15251.83 1712.2c0,0 0,-117.07 0,-117.07 0,0 -44.57,117.07 -44.57,117.07 0,0 -44.57,-117.07 -44.57,-117.07 0,0 0,117.07 0,117.07"/>
  <path class="fil0 str1" d="M15396.42 1712.2c0,0 -44.57,-117.07 -44.57,-117.07 0,0 -44.57,117.07 -44.57,117.07"/>
  <path class="fil0 str1" d="M15323.9 1673.3c0,0 55.9,0 55.9,0"/>
  <path class="fil0 str1" d="M15451.69 1595.13c0,0 0,117.07 0,117.07"/>
  <path class="fil0 str1" d="M15529.87 1595.13c0,0 -78.18,78.17 -78.18,78.17"/>
  <path class="fil0 str1" d="M15479.63 1645.35c0,0 50.23,66.85 50.23,66.85"/>
  <path class="fil0 str1" d="M15668.8 1595.13c0,0 -72.52,0 -72.52,0 0,0 0,117.07 0,117.07 0,0 72.52,0 72.52,0"/>
  <path class="fil0 str1" d="M15596.28 1651.02c0,0 44.57,0 44.57,0"/>
  <path class="fil0 str1" d="M15729.54 1651.02c0,0 50.24,0 50.24,0 0,0 16.63,-5.66 16.63,-5.66 0,0 5.66,-5.66 5.66,-5.66 0,0 5.66,-10.96 5.66,-10.96 0,0 0,-11.32 0,-11.32 0,0 -5.66,-10.96 -5.66,-10.96 0,0 -5.66,-5.66 -5.66,-5.66 0,0 -16.63,-5.66 -16.63,-5.66 0,0 -50.24,0 -50.24,0 0,0 0,117.07 0,117.07"/>
  <path class="fil0 str1" d="M15768.63 1651.02c0,0 39.09,61.19 39.09,61.19"/>
  <path class="fil0 str1" d="M15879.8 1606.45c0,0 -5.66,-5.66 -5.66,-5.66 0,0 5.66,-5.66 5.66,-5.66 0,0 5.66,5.66 5.66,5.66 0,0 0,11.14 0,11.14 0,0 -5.66,11.14 -5.66,11.14 0,0 -5.66,5.66 -5.66,5.66"/>
  <path class="fil0 str1" d="M16029.87 1611.93c0,0 -11.14,-11.14 -11.14,-11.14 0,0 -16.8,-5.66 -16.8,-5.66 0,0 -22.29,0 -22.29,0 0,0 -16.63,5.66 -16.63,5.66 0,0 -11.14,11.14 -11.14,11.14 0,0 0,11.14 0,11.14 0,0 5.48,11.14 5.48,11.14 0,0 5.66,5.48 5.66,5.48 0,0 11.15,5.66 11.15,5.66 0,0 33.43,11.14 33.43,11.14 0,0 11.15,5.48 11.15,5.48 0,0 5.48,5.66 5.48,5.66 0,0 5.66,11.14 5.66,11.14 0,0 0,16.71 0,16.71 0,0 -11.14,11.14 -11.14,11.14 0,0 -16.8,5.57 -16.8,5.57 0,0 -22.29,0 -22.29,0 0,0 -16.63,-5.57 -16.63,-5.57 0,0 -11.14,-11.14 -11.14,-11.14"/>
  <path class="fil0 str1" d="M15251.02 1905.73c0,0 -44.57,-117.07 -44.57,-117.07 0,0 -44.57,117.07 -44.57,117.07"/>
  <path class="fil0 str1" d="M15178.5 1866.82c0,0 55.89,0 55.89,0"/>
  <path class="fil0 str1" d="M15378.81 1805.46c0,0 -11.14,-11.14 -11.14,-11.14 0,0 -16.8,-5.66 -16.8,-5.66 0,0 -22.29,0 -22.29,0 0,0 -16.63,5.66 -16.63,5.66 0,0 -11.15,11.14 -11.15,11.14 0,0 0,11.14 0,11.14 0,0 5.48,11.14 5.48,11.14 0,0 5.66,5.48 5.66,5.48 0,0 11.14,5.66 11.14,5.66 0,0 33.43,11.14 33.43,11.14 0,0 11.14,5.48 11.14,5.48 0,0 5.48,5.66 5.48,5.66 0,0 5.66,11.14 5.66,11.14 0,0 0,16.71 0,16.71 0,0 -11.14,11.14 -11.14,11.14 0,0 -16.8,5.57 -16.8,5.57 0,0 -22.29,0 -22.29,0 0,0 -16.63,-5.57 -16.63,-5.57 0,0 -11.15,-11.14 -11.15,-11.14"/>
  <path class="fil0 str1" d="M15428.59 1788.65c0,0 44.58,55.89 44.58,55.89 0,0 0,61.19 0,61.19"/>
  <path class="fil0 str1" d="M15517.74 1788.65c0,0 -44.57,55.89 -44.57,55.89"/>
  <path class="fil0 str1" d="M15573 1788.65c0,0 0,117.07 0,117.07 0,0 66.87,0 66.87,0"/>
  <path class="fil0 str1" d="M15695.3 1788.65c0,0 0,83.65 0,83.65 0,0 5.66,16.71 5.66,16.71 0,0 11.14,11.14 11.14,11.14 0,0 16.81,5.57 16.81,5.57 0,0 10.96,0 10.96,0 0,0 16.8,-5.57 16.8,-5.57 0,0 11.15,-11.14 11.15,-11.14 0,0 5.66,-16.71 5.66,-16.71 0,0 0,-83.65 0,-83.65"/>
  <path class="fil0 str1" d="M15934.53 1905.73c0,0 0,-117.07 0,-117.07 0,0 -44.57,117.07 -44.57,117.07 0,0 -44.57,-117.07 -44.57,-117.07 0,0 0,117.07 0,117.07"/>
  <path class="fil0 str2" d="M10914.14 225.68c0,0 -1645.33,0 -1645.33,0 -127.57,0 -253.09,21.45 -372.53,63.67 0,0 -4153.74,1468.16 -4153.74,1468.16 -52.23,18.46 -100.75,44.4 -144.37,77.17 -43.62,32.77 -81.27,71.57 -112.01,115.44 -30.74,43.87 -53.83,91.73 -68.68,142.41 -18.97,64.72 -23.91,131.7 -14.63,198.27 0,0 534.69,3836.14 534.69,3836.14 72.66,521.28 230.94,1025.44 470.94,1500.05 240.01,474.61 555.83,907.99 939.7,1289.46 383.86,381.48 826.31,701.66 1316.46,952.66 490.15,251 1015.92,426.64 1564.36,522.59 319.54,55.91 643.17,83.98 968.17,83.98 0,0 716.98,0 716.98,0 0,0 78.75,0 78.75,0 0,0 795.72,0 795.72,0 557.82,0 1108.77,-82.25 1639.28,-244.72 530.52,-162.47 1027.53,-401.16 1478.81,-710.2 451.28,-309.04 845.72,-680.81 1173.6,-1106.16 327.87,-425.35 581.12,-893.81 753.49,-1393.84 100.43,-291.33 172.11,-590.11 214.44,-893.82 0,0 534.69,-3836.14 534.69,-3836.14 7.27,-52.13 5.79,-104.69 -4.39,-156.38 -10.18,-51.69 -28.81,-101.25 -55.44,-147.44 -26.63,-46.2 -60.6,-87.9 -101.07,-124.08 -51.69,-46.2 -112.09,-81.81 -178.79,-105.38 0,0 -4153.74,-1468.16 -4153.74,-1468.16 -119.44,-42.22 -244.96,-63.67 -372.53,-63.67 0,0 -1724.06,0 -1724.06,0 0,0 -78.75,0 -78.75,0z"/>
  <path class="fil0 str2" d="M16164.02 2035.5c0,0 0,314.96 0,314.96 0,0 78.74,0 78.74,0 0,0 0,-314.96 0,-314.96 0,0 -78.74,0 -78.74,0z"/>
  <path class="fil0 str2" d="M16788.17 2068.2c0,0 0,314.96 0,314.96 0,0 78.74,0 78.74,0 0,0 0,-314.96 0,-314.96 0,0 -78.74,0 -78.74,0z"/>
  <path class="fil0 str2" d="M5163.32 2383.15c0,0 0,-314.96 0,-314.96 0,0 78.74,0 78.74,0 0,0 0,314.96 0,314.96 0,0 -78.74,0 -78.74,0z"/>
  <path class="fil0 str2" d="M5787.46 2350.44c0,0 0,-314.96 0,-314.96 0,0 78.74,0 78.74,0 0,0 0,314.96 0,314.96 0,0 -78.74,0 -78.74,0z"/>
  <path class="fil0 str2" d="M3764.8 10517.5c0,0 -314.96,0 -314.96,0 0,0 0,-78.74 0,-78.74 0,0 314.96,0 314.96,0 0,0 0,78.74 0,78.74z"/>
  <path class="fil0 str2" d="M3764.8 9892.5c0,0 -314.96,0 -314.96,0 0,0 0,-78.74 0,-78.74 0,0 314.96,0 314.96,0 0,0 0,78.74 0,78.74z"/>
  <path class="fil0 str2" d="M3764.8 1517.5c0,0 -314.96,0 -314.96,0 0,0 0,-78.74 0,-78.74 0,0 314.96,0 314.96,0 0,0 0,78.74 0,78.74z"/>
  <path class="fil0 str2" d="M3764.8 892.5c0,0 -314.96,0 -314.96,0 0,0 0,-78.74 0,-78.74 0,0 314.96,0 314.96,0 0,0 0,78.74 0,78.74z"/>
  <path class="fil0 str2" d="M3871.92 10374.24c0.14,-0.08 0.28,-0.17 0.42,-0.25m78.87 -669.68c-0.19,-0.13 -0.38,-0.27 -0.57,-0.4"/>
  <polygon class="fil0 str3" points="1394.09,-43.02 17929.52,-43.02 17929.52,11649.9 1394.09,11649.9 "/>
  <path class="fil0 str0" d="M3107.31 853.14c0,-276.14 223.86,-500 500,-500 276.14,0 500,223.86 500,500"/>
  <path class="fil0 str0" d="M3107.31 10478.14c0,276.14 223.86,500 500,500 276.14,0 500,-223.86 500,-500"/>
  <line class="fil0 str0" x1="4107.31" y1="853.14" x2="4107.31" y2= "10478.14" />
  <line class="fil0 str0" x1="3107.31" y1="853.14" x2="3107.31" y2= "10478.14" />
 </g>
</svg>
