  0
SECTION
  2
HEADER
  9
$ACADVER
  1
AC1014
  9
$HANDSEED
  5
FFFF
  9
$MEASUREMENT
 70
     1
  0
ENDSEC
  0
SECTION
  2
TABLES
  0
TABLE
  2
VPORT
  5
8
330
0
100
AcDbSymbolTable
 70
     4
  0
VPORT
  5
2E
330
8
100
AcDbSymbolTableRecord
100
AcDbViewportTableRecord
  2
*ACTIVE
 70
     0
 10
0.0
 20
0.0
 11
1.0
 21
1.0
 12
210.0
 22
148.5
 13
0.0
 23
0.0
 14
10.0
 24
10.0
 15
10.0
 25
10.0
 16
0.0
 26
0.0
 36
1.0
 17
0.0
 27
0.0
 37
0.0
 40
341.0
 41
1.24
 42
50.0
 43
0.0
 44
0.0
 50
0.0
 51
0.0
 71
     0
 72
   100
 73
     1
 74
     3
 75
     0
 76
     0
 77
     0
 78
     0
  0
ENDTAB
  0
TABLE
  2
LTYPE
  5
5
330
0
100
AcDbSymbolTable
 70
     1
  0
LTYPE
  5
14
330
5
100
AcDbSymbolTableRecord
100
AcDbLinetypeTableRecord
  2
BYBLOCK
 70
     0
  3

 72
    65
 73
     0
 40
0.0
  0
LTYPE
  5
15
330
5
100
AcDbSymbolTableRecord
100
AcDbLinetypeTableRecord
  2
BYLAYER
 70
     0
  3

 72
    65
 73
     0
 40
0.0
  0
LTYPE
  5
16
330
5
100
AcDbSymbolTableRecord
100
AcDbLinetypeTableRecord
  2
CONTINUOUS
 70
     0
  3
Solid line
 72
    65
 73
     0
 40
0.0
  0
ENDTAB
  0
TABLE
  2
LAYER
  5
2
100
AcDbSymbolTable
 70
2
  0
LAYER
  5
50
100
AcDbSymbolTableRecord
100
AcDbLayerTableRecord
  2
0
 70
0
  6
CONTINUOUS
  0
LAYER
  5
51
100
AcDbSymbolTableRecord
100
AcDbLayerTableRecord
  2
Layer_1
 70
0
  6
CONTINUOUS
  0
ENDTAB
  0
TABLE
  2
STYLE
  5
3
330
0
100
AcDbSymbolTable
 70
     1
  0
STYLE
  5
11
330
3
100
AcDbSymbolTableRecord
100
AcDbTextStyleTableRecord
  2
STANDARD
 70
     0
 40
0.0
 41
1.0
 50
0.0
 71
     0
 42
2.5
  3
txt
  4

  0
ENDTAB
  0
TABLE
  2
VIEW
  5
6
330
0
100
AcDbSymbolTable
 70
     0
  0
ENDTAB
  0
TABLE
  2
UCS
  5
7
330
0
100
AcDbSymbolTable
 70
     0
  0
ENDTAB
  0
TABLE
  2
APPID
  5
9
330
0
100
AcDbSymbolTable
 70
     2
  0
APPID
  5
12
330
9
100
AcDbSymbolTableRecord
100
AcDbRegAppTableRecord
  2
ACAD
 70
     0
  0
ENDTAB
  0
TABLE
  2
DIMSTYLE
  5
A
330
0
100
AcDbSymbolTable
 70
     1
  0
DIMSTYLE
105
27
330
A
100
AcDbSymbolTableRecord
100
AcDbDimStyleTableRecord
  2
ISO-25
 70
     0
  3

  4

  5

  6

  7

 40
1.0
 41
2.5
 42
0.625
 43
3.75
 44
1.25
 45
0.0
 46
0.0
 47
0.0
 48
0.0
140
2.5
141
2.5
142
0.0
143
0.03937007874016
144
1.0
145
0.0
146
1.0
147
0.625
 71
     0
 72
     0
 73
     0
 74
     0
 75
     0
 76
     0
 77
     1
 78
     8
170
     0
171
     3
172
     1
173
     0
174
     0
175
     0
176
     0
177
     0
178
     0
270
     2
271
     2
272
     2
273
     2
274
     3
340
11
275
     0
280
     0
281
     0
282
     0
283
     0
284
     8
285
     0
286
     0
287
     3
288
     0
  0
ENDTAB
  0
TABLE
  2
BLOCK_RECORD
  5
1
330
0
100
AcDbSymbolTable
 70
     1
  0
BLOCK_RECORD
  5
1F
330
1
100
AcDbSymbolTableRecord
100
AcDbBlockTableRecord
  2
*MODEL_SPACE
  0
BLOCK_RECORD
  5
1B
330
1
100
AcDbSymbolTableRecord
100
AcDbBlockTableRecord
  2
*PAPER_SPACE
  0
ENDTAB
  0
ENDSEC
  0
SECTION
  2
BLOCKS
  0
BLOCK
  5
20
330
1F
100
AcDbEntity
  8
0
100
AcDbBlockBegin
  2
*MODEL_SPACE
 70
     0
 10
0.0
 20
0.0
 30
0.0
  3
*MODEL_SPACE
  1

  0
ENDBLK
  5
21
330
1F
100
AcDbEntity
  8
0
100
AcDbBlockEnd
  0
BLOCK
  5
1C
330
1B
100
AcDbEntity
 67
     1
  8
0
100
AcDbBlockBegin
  2
*PAPER_SPACE
  1

  0
ENDBLK
  5
1D
330
1B
100
AcDbEntity
 67
     1
  8
0
100
AcDbBlockEnd
  0
ENDSEC
  0
SECTION
  2
ENTITIES
  0
LWPOLYLINE
  5
100
100
AcDbEntity
  8
Layer_1
 62
1
100
AcDbPolyline
 90
2
 70
0
 10
137.652083
 20
61.914968
 30
0.0
 10
137.652083
 20
56.358718
 30
0.0
  0
LWPOLYLINE
  5
101
100
AcDbEntity
  8
Layer_1
 62
1
100
AcDbPolyline
 90
2
 70
0
 10
137.652083
 20
61.914968
 30
0.0
 10
139.768750
 20
56.358718
 30
0.0
  0
LWPOLYLINE
  5
102
100
AcDbEntity
  8
Layer_1
 62
1
100
AcDbPolyline
 90
2
 70
0
 10
141.885417
 20
61.914968
 30
0.0
 10
139.768750
 20
56.358718
 30
0.0
  0
LWPOLYLINE
  5
103
100
AcDbEntity
  8
Layer_1
 62
1
100
AcDbPolyline
 90
2
 70
0
 10
141.885417
 20
61.914968
 30
0.0
 10
141.885417
 20
56.358718
 30
0.0
  0
LWPOLYLINE
  5
104
100
AcDbEntity
  8
Layer_1
 62
1
100
AcDbPolyline
 90
2
 70
0
 10
144.002083
 20
58.739968
 30
0.0
 10
148.764583
 20
58.739968
 30
0.0
  0
LWPOLYLINE
  5
105
100
AcDbEntity
  8
Layer_1
 62
1
100
AcDbPolyline
 90
4
 70
0
 10
151.410416
 20
60.856635
 30
0.0
 10
151.939583
 20
61.121218
 30
0.0
 10
152.733333
 20
61.914968
 30
0.0
 10
152.733333
 20
56.358718
 30
0.0
  0
LWPOLYLINE
  5
106
100
AcDbEntity
  8
Layer_1
 62
1
100
AcDbPolyline
 90
23
 70
0
 10
159.347916
 20
60.062885
 30
0.0
 10
159.083333
 20
59.269135
 30
0.0
 10
158.554166
 20
58.739968
 30
0.0
 10
157.760416
 20
58.475385
 30
0.0
 10
157.495833
 20
58.475385
 30
0.0
 10
156.702083
 20
58.739968
 30
0.0
 10
156.172916
 20
59.269135
 30
0.0
 10
155.908333
 20
60.062885
 30
0.0
 10
155.908333
 20
60.327468
 30
0.0
 10
156.172916
 20
61.121218
 30
0.0
 10
156.702083
 20
61.650385
 30
0.0
 10
157.495833
 20
61.914968
 30
0.0
 10
157.760416
 20
61.914968
 30
0.0
 10
158.554166
 20
61.650385
 30
0.0
 10
159.083333
 20
61.121218
 30
0.0
 10
159.347916
 20
60.062885
 30
0.0
 10
159.347916
 20
58.739968
 30
0.0
 10
159.083333
 20
57.417051
 30
0.0
 10
158.554166
 20
56.623301
 30
0.0
 10
157.760416
 20
56.358718
 30
0.0
 10
157.231250
 20
56.358718
 30
0.0
 10
156.437500
 20
56.623301
 30
0.0
 10
156.172916
 20
57.152468
 30
0.0
  0
LWPOLYLINE
  5
107
100
AcDbEntity
  8
Layer_1
 62
5
100
AcDbPolyline
 90
3
 70
0
 10
59.965000
 20
181.285040
 30
0.0
 10
62.541069
 20
181.285040
 30
0.0
 10
237.035000
 20
181.285040
 30
0.0
  0
LWPOLYLINE
  5
108
100
AcDbEntity
  8
Layer_1
 62
5
100
AcDbPolyline
 90
2
 70
0
 10
59.965000
 20
181.285040
 30
0.0
 10
59.965000
 20
164.181910
 30
0.0
  0
LWPOLYLINE
  5
109
100
AcDbEntity
  8
Layer_1
 62
5
100
AcDbPolyline
 90
2
 70
0
 10
237.035000
 20
181.285040
 30
0.0
 10
237.035000
 20
164.181910
 30
0.0
  0
SPLINE
  5
10a
100
AcDbEntity
  8
Layer_1
 62
1
100
AcDbSpline
 70
0
 71
3
 72
16
 73
12
 74
10
 40
0.000000
 40
0.000000
 40
0.000000
 40
0.000000
 40
2.623338
 40
5.209131
 40
7.832469
 40
10.455807
 40
13.041601
 40
15.664938
 40
18.288276
 40
20.874070
 40
23.497407
 40
23.497407
 40
23.497407
 40
23.497407
 10
222.000000
 20
156.664169
 30
0.0
 10
222.089801
 20
157.543076
 30
0.0
 10
222.268116
 20
159.288313
 30
0.0
 10
223.651812
 20
161.594692
 30
0.0
 10
225.677709
 20
163.309443
 30
0.0
 10
228.186784
 20
164.218918
 30
0.0
 10
230.847924
 20
164.218969
 30
0.0
 10
233.357035
 20
163.309592
 30
0.0
 10
235.382998
 20
161.594918
 30
0.0
 10
236.766782
 20
159.288592
 30
0.0
 10
236.945166
 20
157.543363
 30
0.0
 10
237.035000
 20
156.664459
 30
0.0
 11
222.000000
 21
156.664169
 31
0.0
 11
222.457569
 21
159.247293
 31
0.0
 11
223.750423
 21
161.486681
 31
0.0
 11
225.758624
 21
163.174587
 31
0.0
 11
228.224460
 21
164.069883
 31
0.0
 11
230.810254
 21
164.069933
 31
0.0
 11
233.276124
 21
163.174732
 31
0.0
 11
235.284391
 21
161.486904
 31
0.0
 11
236.577331
 21
159.247565
 31
0.0
 11
237.035000
 21
156.664459
 31
0.0
  0
SPLINE
  5
10b
100
AcDbEntity
  8
Layer_1
 62
1
100
AcDbSpline
 70
0
 71
3
 72
10
 73
6
 74
4
 40
0.000000
 40
0.000000
 40
0.000000
 40
0.000000
 40
29.070903
 40
50.497677
 40
68.911879
 40
68.911879
 40
68.911879
 40
68.911879
 10
222.000000
 20
147.664169
 30
0.0
 10
221.707483
 20
137.918326
 30
0.0
 10
221.199365
 20
120.989289
 30
0.0
 10
211.260691
 20
99.265756
 30
0.0
 10
200.845294
 20
90.825406
 30
0.0
 10
196.031375
 20
86.924339
 30
0.0
 11
222.000000
 21
147.664169
 31
0.0
 11
218.877165
 21
118.761482
 31
0.0
 11
209.475642
 21
99.507443
 31
0.0
 11
196.031375
 21
86.924339
 31
0.0
  0
LWPOLYLINE
  5
10c
100
AcDbEntity
  8
Layer_1
 62
1
100
AcDbPolyline
 90
2
 70
0
 10
222.000000
 20
156.664169
 30
0.0
 10
222.000000
 20
147.664169
 30
0.0
  0
SPLINE
  5
10d
100
AcDbEntity
  8
Layer_1
 62
1
100
AcDbSpline
 70
0
 71
3
 72
10
 73
6
 74
4
 40
0.000000
 40
0.000000
 40
0.000000
 40
0.000000
 40
17.540241
 40
34.426555
 40
50.204779
 40
50.204779
 40
50.204779
 40
50.204779
 10
196.031375
 20
86.924339
 30
0.0
 10
190.932363
 20
84.033151
 30
0.0
 10
180.924437
 20
78.358562
 30
0.0
 10
164.630898
 20
73.755796
 30
0.0
 10
153.753972
 20
73.019719
 30
0.0
 10
148.500000
 20
72.664166
 30
0.0
 11
196.031375
 21
86.924339
 31
0.0
 11
180.431939
 21
78.904511
 31
0.0
 11
164.197536
 21
74.257817
 31
0.0
 11
148.500000
 21
72.664166
 31
0.0
  0
LWPOLYLINE
  5
10e
100
AcDbEntity
  8
Layer_1
 62
1
100
AcDbPolyline
 90
2
 70
0
 10
237.035000
 20
141.186212
 30
0.0
 10
237.035000
 20
156.664169
 30
0.0
  0
SPLINE
  5
10f
100
AcDbEntity
  8
Layer_1
 62
1
100
AcDbSpline
 70
0
 71
3
 72
13
 73
9
 74
7
 40
0.000000
 40
0.000000
 40
0.000000
 40
0.000000
 40
2.124900
 40
4.186775
 40
6.311675
 40
8.436574
 40
10.498450
 40
12.623349
 40
12.623349
 40
12.623349
 40
12.623349
 10
237.035000
 20
141.186212
 30
0.0
 10
236.923215
 20
140.469796
 30
0.0
 10
236.702960
 20
139.058214
 30
0.0
 10
235.086211
 20
137.504185
 30
0.0
 10
232.970975
 20
136.928379
 30
0.0
 10
230.855747
 20
137.504210
 30
0.0
 10
229.239015
 20
139.058257
 30
0.0
 10
229.018777
 20
140.469842
 30
0.0
 10
228.907000
 20
141.186259
 30
0.0
 11
237.035000
 21
141.186212
 31
0.0
 11
236.480133
 21
139.135036
 31
0.0
 11
235.022158
 21
137.677079
 31
0.0
 11
232.970977
 21
137.122235
 31
0.0
 11
230.919801
 21
137.677102
 31
0.0
 11
229.461843
 21
139.135077
 31
0.0
 11
228.907000
 21
141.186259
 31
0.0
  0
SPLINE
  5
110
100
AcDbEntity
  8
Layer_1
 62
1
100
AcDbSpline
 70
0
 71
3
 72
16
 73
12
 74
10
 40
0.000000
 40
0.000000
 40
0.000000
 40
0.000000
 40
1.419619
 40
2.803821
 40
4.223441
 40
5.643060
 40
7.027262
 40
8.446881
 40
9.866500
 40
11.250703
 40
12.670322
 40
12.670322
 40
12.670322
 40
12.670322
 10
227.740543
 20
119.454534
 30
0.0
 10
228.197315
 20
119.609448
 30
0.0
 10
229.099463
 20
119.915412
 30
0.0
 10
230.532840
 20
119.528234
 30
0.0
 10
231.631619
 20
118.577796
 30
0.0
 10
232.171736
 20
117.215543
 30
0.0
 10
232.034390
 20
115.763930
 30
0.0
 10
231.248362
 20
114.527153
 30
0.0
 10
229.990823
 20
113.799660
 30
0.0
 10
228.510265
 20
113.688188
 30
0.0
 10
227.681511
 20
114.157924
 30
0.0
 10
227.261900
 20
114.395759
 30
0.0
 11
227.740543
 21
119.454534
 31
0.0
 11
229.123530
 21
119.774949
 31
0.0
 11
230.466681
 21
119.440345
 31
0.0
 11
231.537728
 21
118.508584
 31
0.0
 11
232.060970
 21
117.188911
 31
0.0
 11
231.930584
 21
115.810864
 31
0.0
 11
231.169118
 21
114.612745
 31
0.0
 11
229.942322
 21
113.898398
 31
0.0
 11
228.560250
 21
113.821645
 31
0.0
 11
227.261900
 21
114.395759
 31
0.0
  0
SPLINE
  5
111
100
AcDbEntity
  8
Layer_1
 62
1
100
AcDbSpline
 70
0
 71
3
 72
10
 73
6
 74
4
 40
0.000000
 40
0.000000
 40
0.000000
 40
0.000000
 40
10.619769
 40
22.152894
 40
34.721221
 40
34.721221
 40
34.721221
 40
34.721221
 10
217.858473
 20
81.098767
 30
0.0
 10
219.269564
 20
84.348908
 30
0.0
 10
222.213107
 20
91.128719
 30
0.0
 10
225.280146
 20
102.331880
 30
0.0
 10
226.582646
 20
110.260975
 30
0.0
 10
227.261869
 20
114.395807
 30
0.0
 11
217.858473
 21
81.098767
 31
0.0
 11
221.864991
 21
90.933771
 31
0.0
 11
224.999456
 21
102.032784
 31
0.0
 11
227.261869
 21
114.395807
 31
0.0
  0
SPLINE
  5
112
100
AcDbEntity
  8
Layer_1
 62
1
100
AcDbSpline
 70
0
 71
3
 72
10
 73
6
 74
4
 40
0.000000
 40
0.000000
 40
0.000000
 40
0.000000
 40
11.544006
 40
23.170660
 40
35.433527
 40
35.433527
 40
35.433527
 40
35.433527
 10
189.880154
 20
52.845727
 30
0.0
 10
193.306769
 20
54.623972
 30
0.0
 10
200.184530
 20
58.193194
 30
0.0
 10
208.933789
 20
66.394510
 30
0.0
 10
213.251572
 20
73.105034
 30
0.0
 10
215.467958
 20
76.549652
 30
0.0
 11
189.880154
 21
52.845727
 31
0.0
 11
199.872943
 21
58.625713
 31
0.0
 11
208.402211
 21
66.527021
 31
0.0
 11
215.467958
 21
76.549652
 31
0.0
  0
SPLINE
  5
113
100
AcDbEntity
  8
Layer_1
 62
1
100
AcDbSpline
 70
0
 71
3
 72
16
 73
12
 74
10
 40
0.000000
 40
0.000000
 40
0.000000
 40
0.000000
 40
1.407466
 40
2.780347
 40
4.187813
 40
5.595280
 40
6.968160
 40
8.375627
 40
9.783093
 40
11.155974
 40
12.563440
 40
12.563440
 40
12.563440
 40
12.563440
 10
217.858473
 20
81.098767
 30
0.0
 10
218.334999
 20
81.060762
 30
0.0
 10
219.276341
 20
80.985686
 30
0.0
 10
220.433447
 20
80.077482
 30
0.0
 10
221.072650
 20
78.787438
 30
0.0
 10
221.049321
 20
77.335546
 30
0.0
 10
220.377185
 20
76.056461
 30
0.0
 10
219.194706
 20
75.213680
 30
0.0
 10
217.769704
 20
75.008338
 30
0.0
 10
216.365395
 20
75.446111
 30
0.0
 10
215.769602
 20
76.178772
 30
0.0
 10
215.468000
 20
76.549659
 30
0.0
 11
217.858473
 21
81.098767
 31
0.0
 11
219.243686
 21
80.849475
 31
0.0
 11
220.340055
 21
80.023173
 31
0.0
 11
220.961316
 21
78.760241
 31
0.0
 11
220.938744
 21
77.352956
 31
0.0
 11
220.300124
 21
76.137651
 31
0.0
 11
219.153951
 21
75.320797
 31
0.0
 11
217.761456
 21
75.116058
 31
0.0
 11
216.459049
 21
75.550268
 31
0.0
 11
215.468000
 21
76.549659
 31
0.0
  0
SPLINE
  5
114
100
AcDbEntity
  8
Layer_1
 62
1
100
AcDbSpline
 70
0
 71
3
 72
19
 73
15
 74
13
 40
0.000000
 40
0.000000
 40
0.000000
 40
0.000000
 40
1.350994
 40
2.671118
 40
4.022112
 40
5.373105
 40
6.693230
 40
8.044223
 40
9.395217
 40
10.715342
 40
12.066335
 40
12.204889
 40
12.343404
 40
12.481956
 40
12.481956
 40
12.481956
 40
12.481956
 10
189.880154
 20
52.845727
 30
0.0
 10
190.203093
 20
52.520720
 30
0.0
 10
190.841592
 20
51.878133
 30
0.0
 10
191.147664
 20
50.504565
 30
0.0
 10
190.863530
 20
49.154986
 30
0.0
 10
190.006238
 20
48.060511
 30
0.0
 10
188.763772
 20
47.449491
 30
0.0
 10
187.375994
 20
47.437729
 30
0.0
 10
186.123942
 20
48.036605
 30
0.0
 10
185.257128
 20
49.115154
 30
0.0
 10
185.039213
 20
50.064968
 30
0.0
 10
185.051952
 20
50.607357
 30
0.0
 10
185.061197
 20
50.745684
 30
0.0
 10
185.072732
 20
50.837330
 30
0.0
 10
185.078500
 20
50.883159
 30
0.0
 11
189.880154
 21
52.845727
 31
0.0
 11
190.737633
 21
51.801738
 31
0.0
 11
191.049577
 21
50.518998
 31
0.0
 11
190.767271
 21
49.197829
 31
0.0
 11
189.934223
 21
48.134244
 31
0.0
 11
188.749737
 21
47.551387
 31
0.0
 11
187.398789
 21
47.540283
 31
0.0
 11
186.179779
 21
48.122691
 31
0.0
 11
185.353786
 21
49.152479
 31
0.0
 11
185.049800
 21
50.468829
 31
0.0
 11
185.052951
 21
50.607347
 31
0.0
 11
185.062539
 21
50.745530
 31
0.0
 11
185.078500
 21
50.883159
 31
0.0
  0
SPLINE
  5
115
100
AcDbEntity
  8
Layer_1
 62
1
100
AcDbSpline
 70
0
 71
3
 72
10
 73
6
 74
4
 40
0.000000
 40
0.000000
 40
0.000000
 40
0.000000
 40
14.136727
 40
26.445609
 40
37.103007
 40
37.103007
 40
37.103007
 40
37.103007
 10
148.500000
 20
45.824459
 30
0.0
 10
153.211303
 20
45.893980
 30
0.0
 10
162.024750
 20
46.024035
 30
0.0
 10
174.363955
 20
47.533552
 30
0.0
 10
181.682407
 20
49.821463
 30
0.0
 10
185.078501
 20
50.883158
 30
0.0
 11
148.500000
 21
45.824459
 31
0.0
 11
162.628615
 21
46.303310
 31
0.0
 11
174.821448
 21
47.989543
 31
0.0
 11
185.078501
 21
50.883158
 31
0.0
  0
SPLINE
  5
116
100
AcDbEntity
  8
Layer_1
 62
1
100
AcDbSpline
 70
0
 71
3
 72
10
 73
6
 74
4
 40
0.000000
 40
0.000000
 40
0.000000
 40
0.000000
 40
29.070903
 40
50.497677
 40
68.911879
 40
68.911879
 40
68.911879
 40
68.911879
 10
75.000000
 20
147.664169
 30
0.0
 10
75.292517
 20
137.918326
 30
0.0
 10
75.800635
 20
120.989289
 30
0.0
 10
85.739309
 20
99.265756
 30
0.0
 10
96.154706
 20
90.825406
 30
0.0
 10
100.968625
 20
86.924339
 30
0.0
 11
75.000000
 21
147.664169
 31
0.0
 11
78.122835
 21
118.761482
 31
0.0
 11
87.524358
 21
99.507443
 31
0.0
 11
100.968625
 21
86.924339
 31
0.0
  0
LWPOLYLINE
  5
117
100
AcDbEntity
  8
Layer_1
 62
1
100
AcDbPolyline
 90
2
 70
0
 10
227.740543
 20
119.454534
 30
0.0
 10
228.907000
 20
141.186212
 30
0.0
  0
SPLINE
  5
118
100
AcDbEntity
  8
Layer_1
 62
1
100
AcDbSpline
 70
0
 71
3
 72
10
 73
6
 74
4
 40
0.000000
 40
0.000000
 40
0.000000
 40
0.000000
 40
17.540241
 40
34.426555
 40
50.204779
 40
50.204779
 40
50.204779
 40
50.204779
 10
100.968625
 20
86.924339
 30
0.0
 10
106.067637
 20
84.033151
 30
0.0
 10
116.075563
 20
78.358562
 30
0.0
 10
132.369102
 20
73.755796
 30
0.0
 10
143.246028
 20
73.019719
 30
0.0
 10
148.500000
 20
72.664166
 30
0.0
 11
100.968625
 21
86.924339
 31
0.0
 11
116.568061
 21
78.904511
 31
0.0
 11
132.802464
 21
74.257817
 31
0.0
 11
148.500000
 21
72.664166
 31
0.0
  0
LWPOLYLINE
  5
119
100
AcDbEntity
  8
Layer_1
 62
1
100
AcDbPolyline
 90
2
 70
0
 10
75.000000
 20
156.664169
 30
0.0
 10
75.000000
 20
147.664169
 30
0.0
  0
SPLINE
  5
11a
100
AcDbEntity
  8
Layer_1
 62
1
100
AcDbSpline
 70
0
 71
3
 72
16
 73
12
 74
10
 40
0.000000
 40
0.000000
 40
0.000000
 40
0.000000
 40
2.623338
 40
5.209131
 40
7.832469
 40
10.455807
 40
13.041601
 40
15.664938
 40
18.288276
 40
20.874070
 40
23.497407
 40
23.497407
 40
23.497407
 40
23.497407
 10
75.000000
 20
156.664169
 30
0.0
 10
74.910199
 20
157.543076
 30
0.0
 10
74.731884
 20
159.288313
 30
0.0
 10
73.348188
 20
161.594692
 30
0.0
 10
71.322291
 20
163.309443
 30
0.0
 10
68.813216
 20
164.218918
 30
0.0
 10
66.152076
 20
164.218969
 30
0.0
 10
63.642965
 20
163.309592
 30
0.0
 10
61.617002
 20
161.594918
 30
0.0
 10
60.233218
 20
159.288592
 30
0.0
 10
60.054834
 20
157.543363
 30
0.0
 10
59.965000
 20
156.664459
 30
0.0
 11
75.000000
 21
156.664169
 31
0.0
 11
74.542431
 21
159.247293
 31
0.0
 11
73.249577
 21
161.486681
 31
0.0
 11
71.241376
 21
163.174587
 31
0.0
 11
68.775540
 21
164.069883
 31
0.0
 11
66.189746
 21
164.069933
 31
0.0
 11
63.723876
 21
163.174732
 31
0.0
 11
61.715609
 21
161.486904
 31
0.0
 11
60.422669
 21
159.247565
 31
0.0
 11
59.965000
 21
156.664459
 31
0.0
  0
SPLINE
  5
11b
100
AcDbEntity
  8
Layer_1
 62
1
100
AcDbSpline
 70
0
 71
3
 72
16
 73
12
 74
10
 40
0.000000
 40
0.000000
 40
0.000000
 40
0.000000
 40
1.418190
 40
2.816084
 40
4.234274
 40
5.652464
 40
7.050358
 40
8.468548
 40
9.886738
 40
11.284632
 40
12.702822
 40
12.702822
 40
12.702822
 40
12.702822
 10
59.965000
 20
141.186212
 30
0.0
 10
60.013559
 20
140.711071
 30
0.0
 10
60.109981
 20
139.767589
 30
0.0
 10
60.858045
 20
138.520767
 30
0.0
 10
61.953279
 20
137.593791
 30
0.0
 10
63.309710
 20
137.102158
 30
0.0
 10
64.748337
 20
137.102167
 30
0.0
 10
66.104763
 20
137.593815
 30
0.0
 10
67.199986
 20
138.520804
 30
0.0
 10
67.948036
 20
139.767635
 30
0.0
 10
68.044447
 20
140.711117
 30
0.0
 10
68.093000
 20
141.186259
 30
0.0
 11
59.965000
 21
141.186212
 31
0.0
 11
60.212399
 21
139.789767
 31
0.0
 11
60.911353
 21
138.579160
 31
0.0
 11
61.997020
 21
137.666696
 31
0.0
 11
63.330076
 21
137.182728
 31
0.0
 11
64.727970
 21
137.182736
 31
0.0
 11
66.061020
 21
137.666720
 31
0.0
 11
67.146677
 21
138.579196
 31
0.0
 11
67.845617
 21
139.789812
 31
0.0
 11
68.093000
 21
141.186259
 31
0.0
  0
LWPOLYLINE
  5
11c
100
AcDbEntity
  8
Layer_1
 62
1
100
AcDbPolyline
 90
2
 70
0
 10
59.965000
 20
141.186212
 30
0.0
 10
59.965000
 20
156.664169
 30
0.0
  0
SPLINE
  5
11d
100
AcDbEntity
  8
Layer_1
 62
1
100
AcDbSpline
 70
0
 71
3
 72
10
 73
6
 74
4
 40
0.000000
 40
0.000000
 40
0.000000
 40
0.000000
 40
14.136727
 40
26.445609
 40
37.103007
 40
37.103007
 40
37.103007
 40
37.103007
 10
148.500000
 20
45.824459
 30
0.0
 10
143.788697
 20
45.893980
 30
0.0
 10
134.975250
 20
46.024035
 30
0.0
 10
122.636045
 20
47.533552
 30
0.0
 10
115.317593
 20
49.821463
 30
0.0
 10
111.921499
 20
50.883158
 30
0.0
 11
148.500000
 21
45.824459
 31
0.0
 11
134.371385
 21
46.303310
 31
0.0
 11
122.178552
 21
47.989543
 31
0.0
 11
111.921499
 21
50.883158
 31
0.0
  0
SPLINE
  5
11e
100
AcDbEntity
  8
Layer_1
 62
1
100
AcDbSpline
 70
0
 71
3
 72
19
 73
15
 74
13
 40
0.000000
 40
0.000000
 40
0.000000
 40
0.000000
 40
1.350994
 40
2.671118
 40
4.022112
 40
5.373105
 40
6.693230
 40
8.044223
 40
9.395217
 40
10.715342
 40
12.066335
 40
12.204889
 40
12.343404
 40
12.481956
 40
12.481956
 40
12.481956
 40
12.481956
 10
107.119846
 20
52.845727
 30
0.0
 10
106.796907
 20
52.520720
 30
0.0
 10
106.158408
 20
51.878133
 30
0.0
 10
105.852336
 20
50.504565
 30
0.0
 10
106.136470
 20
49.154986
 30
0.0
 10
106.993762
 20
48.060511
 30
0.0
 10
108.236228
 20
47.449491
 30
0.0
 10
109.624006
 20
47.437729
 30
0.0
 10
110.876058
 20
48.036605
 30
0.0
 10
111.742872
 20
49.115154
 30
0.0
 10
111.960787
 20
50.064968
 30
0.0
 10
111.948048
 20
50.607357
 30
0.0
 10
111.938803
 20
50.745684
 30
0.0
 10
111.927268
 20
50.837330
 30
0.0
 10
111.921500
 20
50.883159
 30
0.0
 11
107.119846
 21
52.845727
 31
0.0
 11
106.262367
 21
51.801738
 31
0.0
 11
105.950423
 21
50.518998
 31
0.0
 11
106.232729
 21
49.197829
 31
0.0
 11
107.065777
 21
48.134244
 31
0.0
 11
108.250263
 21
47.551387
 31
0.0
 11
109.601211
 21
47.540283
 31
0.0
 11
110.820221
 21
48.122691
 31
0.0
 11
111.646214
 21
49.152479
 31
0.0
 11
111.950200
 21
50.468829
 31
0.0
 11
111.947049
 21
50.607347
 31
0.0
 11
111.937461
 21
50.745530
 31
0.0
 11
111.921500
 21
50.883159
 31
0.0
  0
SPLINE
  5
11f
100
AcDbEntity
  8
Layer_1
 62
1
100
AcDbSpline
 70
0
 71
3
 72
16
 73
12
 74
10
 40
0.000000
 40
0.000000
 40
0.000000
 40
0.000000
 40
1.419619
 40
2.803821
 40
4.223441
 40
5.643060
 40
7.027262
 40
8.446881
 40
9.866500
 40
11.250703
 40
12.670322
 40
12.670322
 40
12.670322
 40
12.670322
 10
69.259457
 20
119.454534
 30
0.0
 10
68.802685
 20
119.609448
 30
0.0
 10
67.900537
 20
119.915412
 30
0.0
 10
66.467160
 20
119.528234
 30
0.0
 10
65.368381
 20
118.577796
 30
0.0
 10
64.828264
 20
117.215543
 30
0.0
 10
64.965610
 20
115.763930
 30
0.0
 10
65.751638
 20
114.527153
 30
0.0
 10
67.009177
 20
113.799660
 30
0.0
 10
68.489735
 20
113.688188
 30
0.0
 10
69.318489
 20
114.157924
 30
0.0
 10
69.738100
 20
114.395759
 30
0.0
 11
69.259457
 21
119.454534
 31
0.0
 11
67.876470
 21
119.774949
 31
0.0
 11
66.533319
 21
119.440345
 31
0.0
 11
65.462272
 21
118.508584
 31
0.0
 11
64.939030
 21
117.188911
 31
0.0
 11
65.069416
 21
115.810864
 31
0.0
 11
65.830882
 21
114.612745
 31
0.0
 11
67.057678
 21
113.898398
 31
0.0
 11
68.439750
 21
113.821645
 31
0.0
 11
69.738100
 21
114.395759
 31
0.0
  0
SPLINE
  5
120
100
AcDbEntity
  8
Layer_1
 62
1
100
AcDbSpline
 70
0
 71
3
 72
10
 73
6
 74
4
 40
0.000000
 40
0.000000
 40
0.000000
 40
0.000000
 40
10.619769
 40
22.152894
 40
34.721221
 40
34.721221
 40
34.721221
 40
34.721221
 10
79.141527
 20
81.098767
 30
0.0
 10
77.730436
 20
84.348908
 30
0.0
 10
74.786893
 20
91.128719
 30
0.0
 10
71.719854
 20
102.331880
 30
0.0
 10
70.417354
 20
110.260975
 30
0.0
 10
69.738131
 20
114.395807
 30
0.0
 11
79.141527
 21
81.098767
 31
0.0
 11
75.135009
 21
90.933771
 31
0.0
 11
72.000544
 21
102.032784
 31
0.0
 11
69.738131
 21
114.395807
 31
0.0
  0
SPLINE
  5
121
100
AcDbEntity
  8
Layer_1
 62
1
100
AcDbSpline
 70
0
 71
3
 72
10
 73
6
 74
4
 40
0.000000
 40
0.000000
 40
0.000000
 40
0.000000
 40
11.544006
 40
23.170660
 40
35.433527
 40
35.433527
 40
35.433527
 40
35.433527
 10
107.119846
 20
52.845727
 30
0.0
 10
103.693231
 20
54.623972
 30
0.0
 10
96.815470
 20
58.193194
 30
0.0
 10
88.066211
 20
66.394510
 30
0.0
 10
83.748428
 20
73.105034
 30
0.0
 10
81.532042
 20
76.549652
 30
0.0
 11
107.119846
 21
52.845727
 31
0.0
 11
97.127057
 21
58.625713
 31
0.0
 11
88.597789
 21
66.527021
 31
0.0
 11
81.532042
 21
76.549652
 31
0.0
  0
LWPOLYLINE
  5
122
100
AcDbEntity
  8
Layer_1
 62
1
100
AcDbPolyline
 90
2
 70
0
 10
69.259457
 20
119.454534
 30
0.0
 10
68.093000
 20
141.186212
 30
0.0
  0
SPLINE
  5
123
100
AcDbEntity
  8
Layer_1
 62
1
100
AcDbSpline
 70
0
 71
3
 72
16
 73
12
 74
10
 40
0.000000
 40
0.000000
 40
0.000000
 40
0.000000
 40
1.407466
 40
2.780347
 40
4.187813
 40
5.595280
 40
6.968160
 40
8.375627
 40
9.783093
 40
11.155974
 40
12.563440
 40
12.563440
 40
12.563440
 40
12.563440
 10
79.141527
 20
81.098767
 30
0.0
 10
78.665001
 20
81.060762
 30
0.0
 10
77.723659
 20
80.985686
 30
0.0
 10
76.566553
 20
80.077482
 30
0.0
 10
75.927350
 20
78.787438
 30
0.0
 10
75.950679
 20
77.335546
 30
0.0
 10
76.622815
 20
76.056461
 30
0.0
 10
77.805294
 20
75.213680
 30
0.0
 10
79.230296
 20
75.008338
 30
0.0
 10
80.634605
 20
75.446111
 30
0.0
 10
81.230398
 20
76.178772
 30
0.0
 10
81.532000
 20
76.549659
 30
0.0
 11
79.141527
 21
81.098767
 31
0.0
 11
77.756314
 21
80.849475
 31
0.0
 11
76.659945
 21
80.023173
 31
0.0
 11
76.038684
 21
78.760241
 31
0.0
 11
76.061256
 21
77.352956
 31
0.0
 11
76.699876
 21
76.137651
 31
0.0
 11
77.846049
 21
75.320797
 31
0.0
 11
79.238544
 21
75.116058
 31
0.0
 11
80.540951
 21
75.550268
 31
0.0
 11
81.532000
 21
76.549659
 31
0.0
  0
SPLINE
  5
124
100
AcDbEntity
  8
Layer_1
 62
1
100
AcDbSpline
 70
0
 71
3
 72
13
 73
9
 74
7
 40
0.000000
 40
0.000000
 40
0.000000
 40
0.000000
 40
0.522362
 40
1.029260
 40
1.551623
 40
2.073985
 40
2.580883
 40
3.103245
 40
3.103245
 40
3.103245
 40
3.103245
 10
70.482500
 20
149.664169
 30
0.0
 10
70.658564
 20
149.691920
 30
0.0
 10
71.005479
 20
149.746601
 30
0.0
 10
71.387120
 20
150.144328
 30
0.0
 10
71.528516
 20
150.664314
 30
0.0
 10
71.387120
 20
151.184300
 30
0.0
 10
71.005479
 20
151.582027
 30
0.0
 10
70.658564
 20
151.636708
 30
0.0
 10
70.482500
 20
151.664459
 30
0.0
 11
70.482500
 21
149.664169
 31
0.0
 11
70.986543
 21
149.801293
 31
0.0
 11
71.344664
 21
150.160034
 31
0.0
 11
71.480914
 21
150.664314
 31
0.0
 11
71.344664
 21
151.168594
 31
0.0
 11
70.986543
 21
151.527335
 31
0.0
 11
70.482500
 21
151.664459
 31
0.0
  0
LWPOLYLINE
  5
125
100
AcDbEntity
  8
Layer_1
 62
1
100
AcDbPolyline
 90
2
 70
0
 10
64.482500
 20
151.664169
 30
0.0
 10
70.482500
 20
151.664169
 30
0.0
  0
LWPOLYLINE
  5
126
100
AcDbEntity
  8
Layer_1
 62
1
100
AcDbPolyline
 90
2
 70
0
 10
64.482500
 20
149.664169
 30
0.0
 10
70.482500
 20
149.664169
 30
0.0
  0
SPLINE
  5
127
100
AcDbEntity
  8
Layer_1
 62
1
100
AcDbSpline
 70
0
 71
3
 72
16
 73
12
 74
10
 40
0.000000
 40
0.000000
 40
0.000000
 40
0.000000
 40
0.352743
 40
0.700335
 40
1.053078
 40
1.405820
 40
1.753412
 40
2.106155
 40
2.458898
 40
2.806490
 40
3.159233
 40
3.159233
 40
3.159233
 40
3.159233
 10
64.482500
 20
151.664169
 30
0.0
 10
64.364115
 20
151.653970
 30
0.0
 10
64.129075
 20
151.633722
 30
0.0
 10
63.816720
 20
151.451058
 30
0.0
 10
63.584027
 20
151.180328
 30
0.0
 10
63.460425
 20
150.843284
 30
0.0
 10
63.460425
 20
150.485344
 30
0.0
 10
63.584027
 20
150.148299
 30
0.0
 10
63.816720
 20
149.877569
 30
0.0
 10
64.129075
 20
149.694906
 30
0.0
 10
64.364115
 20
149.674657
 30
0.0
 10
64.482500
 20
149.664459
 30
0.0
 11
64.482500
 21
151.664169
 31
0.0
 11
64.134275
 21
151.607892
 31
0.0
 11
63.831298
 21
151.437525
 31
0.0
 11
63.602298
 21
151.169222
 31
0.0
 11
63.480674
 21
150.838110
 31
0.0
 11
63.480674
 21
150.490518
 31
0.0
 11
63.602298
 21
150.159406
 31
0.0
 11
63.831298
 21
149.891103
 31
0.0
 11
64.134275
 21
149.720736
 31
0.0
 11
64.482500
 21
149.664459
 31
0.0
  0
SPLINE
  5
128
100
AcDbEntity
  8
Layer_1
 62
1
100
AcDbSpline
 70
0
 71
3
 72
13
 73
9
 74
7
 40
0.000000
 40
0.000000
 40
0.000000
 40
0.000000
 40
0.522362
 40
1.029260
 40
1.551623
 40
2.073985
 40
2.580883
 40
3.103245
 40
3.103245
 40
3.103245
 40
3.103245
 10
70.482500
 20
155.664169
 30
0.0
 10
70.658564
 20
155.691920
 30
0.0
 10
71.005479
 20
155.746601
 30
0.0
 10
71.387120
 20
156.144328
 30
0.0
 10
71.528516
 20
156.664314
 30
0.0
 10
71.387120
 20
157.184300
 30
0.0
 10
71.005479
 20
157.582027
 30
0.0
 10
70.658564
 20
157.636708
 30
0.0
 10
70.482500
 20
157.664459
 30
0.0
 11
70.482500
 21
155.664169
 31
0.0
 11
70.986543
 21
155.801293
 31
0.0
 11
71.344664
 21
156.160034
 31
0.0
 11
71.480914
 21
156.664314
 31
0.0
 11
71.344664
 21
157.168594
 31
0.0
 11
70.986543
 21
157.527335
 31
0.0
 11
70.482500
 21
157.664459
 31
0.0
  0
LWPOLYLINE
  5
129
100
AcDbEntity
  8
Layer_1
 62
1
100
AcDbPolyline
 90
2
 70
0
 10
64.482500
 20
157.664169
 30
0.0
 10
70.482500
 20
157.664169
 30
0.0
  0
LWPOLYLINE
  5
12a
100
AcDbEntity
  8
Layer_1
 62
1
100
AcDbPolyline
 90
2
 70
0
 10
64.482500
 20
155.664169
 30
0.0
 10
70.482500
 20
155.664169
 30
0.0
  0
SPLINE
  5
12b
100
AcDbEntity
  8
Layer_1
 62
1
100
AcDbSpline
 70
0
 71
3
 72
13
 73
9
 74
7
 40
0.000000
 40
0.000000
 40
0.000000
 40
0.000000
 40
0.517221
 40
1.019382
 40
1.536603
 40
2.053823
 40
2.555984
 40
3.073205
 40
3.073205
 40
3.073205
 40
3.073205
 10
64.482500
 20
157.664169
 30
0.0
 10
64.308642
 20
157.634314
 30
0.0
 10
63.965989
 20
157.575474
 30
0.0
 10
63.591495
 20
157.179187
 30
0.0
 10
63.452866
 20
156.664314
 30
0.0
 10
63.591495
 20
156.149441
 30
0.0
 10
63.965989
 20
155.753154
 30
0.0
 10
64.308642
 20
155.694313
 30
0.0
 10
64.482500
 20
155.664459
 30
0.0
 11
64.482500
 21
157.664169
 31
0.0
 11
63.985181
 21
157.522072
 31
0.0
 11
63.633136
 21
157.163980
 31
0.0
 11
63.499529
 21
156.664314
 31
0.0
 11
63.633136
 21
156.164648
 31
0.0
 11
63.985181
 21
155.806555
 31
0.0
 11
64.482500
 21
155.664459
 31
0.0
  0
SPLINE
  5
12c
100
AcDbEntity
  8
Layer_1
 62
1
100
AcDbSpline
 70
0
 71
3
 72
13
 73
9
 74
7
 40
0.000000
 40
0.000000
 40
0.000000
 40
0.000000
 40
0.522362
 40
1.029260
 40
1.551623
 40
2.073985
 40
2.580883
 40
3.103245
 40
3.103245
 40
3.103245
 40
3.103245
 10
226.517500
 20
149.664169
 30
0.0
 10
226.341436
 20
149.691920
 30
0.0
 10
225.994521
 20
149.746601
 30
0.0
 10
225.612880
 20
150.144328
 30
0.0
 10
225.471484
 20
150.664314
 30
0.0
 10
225.612880
 20
151.184300
 30
0.0
 10
225.994521
 20
151.582027
 30
0.0
 10
226.341436
 20
151.636708
 30
0.0
 10
226.517500
 20
151.664459
 30
0.0
 11
226.517500
 21
149.664169
 31
0.0
 11
226.013457
 21
149.801293
 31
0.0
 11
225.655336
 21
150.160034
 31
0.0
 11
225.519086
 21
150.664314
 31
0.0
 11
225.655336
 21
151.168594
 31
0.0
 11
226.013457
 21
151.527335
 31
0.0
 11
226.517500
 21
151.664459
 31
0.0
  0
LWPOLYLINE
  5
12d
100
AcDbEntity
  8
Layer_1
 62
1
100
AcDbPolyline
 90
2
 70
0
 10
232.517500
 20
151.664169
 30
0.0
 10
226.517500
 20
151.664169
 30
0.0
  0
LWPOLYLINE
  5
12e
100
AcDbEntity
  8
Layer_1
 62
1
100
AcDbPolyline
 90
2
 70
0
 10
232.517500
 20
149.664169
 30
0.0
 10
226.517500
 20
149.664169
 30
0.0
  0
SPLINE
  5
12f
100
AcDbEntity
  8
Layer_1
 62
1
100
AcDbSpline
 70
0
 71
3
 72
16
 73
12
 74
10
 40
0.000000
 40
0.000000
 40
0.000000
 40
0.000000
 40
0.352743
 40
0.700335
 40
1.053078
 40
1.405820
 40
1.753412
 40
2.106155
 40
2.458898
 40
2.806490
 40
3.159233
 40
3.159233
 40
3.159233
 40
3.159233
 10
232.517500
 20
151.664169
 30
0.0
 10
232.635885
 20
151.653970
 30
0.0
 10
232.870925
 20
151.633722
 30
0.0
 10
233.183280
 20
151.451058
 30
0.0
 10
233.415973
 20
151.180328
 30
0.0
 10
233.539575
 20
150.843284
 30
0.0
 10
233.539575
 20
150.485344
 30
0.0
 10
233.415973
 20
150.148299
 30
0.0
 10
233.183280
 20
149.877569
 30
0.0
 10
232.870925
 20
149.694906
 30
0.0
 10
232.635885
 20
149.674657
 30
0.0
 10
232.517500
 20
149.664459
 30
0.0
 11
232.517500
 21
151.664169
 31
0.0
 11
232.865725
 21
151.607892
 31
0.0
 11
233.168702
 21
151.437525
 31
0.0
 11
233.397702
 21
151.169222
 31
0.0
 11
233.519326
 21
150.838110
 31
0.0
 11
233.519326
 21
150.490518
 31
0.0
 11
233.397702
 21
150.159406
 31
0.0
 11
233.168702
 21
149.891103
 31
0.0
 11
232.865725
 21
149.720736
 31
0.0
 11
232.517500
 21
149.664459
 31
0.0
  0
SPLINE
  5
130
100
AcDbEntity
  8
Layer_1
 62
1
100
AcDbSpline
 70
0
 71
3
 72
13
 73
9
 74
7
 40
0.000000
 40
0.000000
 40
0.000000
 40
0.000000
 40
0.522362
 40
1.029260
 40
1.551623
 40
2.073985
 40
2.580883
 40
3.103245
 40
3.103245
 40
3.103245
 40
3.103245
 10
226.517500
 20
155.664169
 30
0.0
 10
226.341436
 20
155.691920
 30
0.0
 10
225.994521
 20
155.746601
 30
0.0
 10
225.612880
 20
156.144328
 30
0.0
 10
225.471484
 20
156.664314
 30
0.0
 10
225.612880
 20
157.184300
 30
0.0
 10
225.994521
 20
157.582027
 30
0.0
 10
226.341436
 20
157.636708
 30
0.0
 10
226.517500
 20
157.664459
 30
0.0
 11
226.517500
 21
155.664169
 31
0.0
 11
226.013457
 21
155.801293
 31
0.0
 11
225.655336
 21
156.160034
 31
0.0
 11
225.519086
 21
156.664314
 31
0.0
 11
225.655336
 21
157.168594
 31
0.0
 11
226.013457
 21
157.527335
 31
0.0
 11
226.517500
 21
157.664459
 31
0.0
  0
LWPOLYLINE
  5
131
100
AcDbEntity
  8
Layer_1
 62
1
100
AcDbPolyline
 90
2
 70
0
 10
232.517500
 20
157.664169
 30
0.0
 10
226.517500
 20
157.664169
 30
0.0
  0
SPLINE
  5
132
100
AcDbEntity
  8
Layer_1
 62
1
100
AcDbSpline
 70
0
 71
3
 72
13
 73
9
 74
7
 40
0.000000
 40
0.000000
 40
0.000000
 40
0.000000
 40
0.517221
 40
1.019382
 40
1.536603
 40
2.053823
 40
2.555984
 40
3.073205
 40
3.073205
 40
3.073205
 40
3.073205
 10
232.517500
 20
157.664169
 30
0.0
 10
232.691358
 20
157.634314
 30
0.0
 10
233.034011
 20
157.575474
 30
0.0
 10
233.408505
 20
157.179187
 30
0.0
 10
233.547134
 20
156.664314
 30
0.0
 10
233.408505
 20
156.149441
 30
0.0
 10
233.034011
 20
155.753154
 30
0.0
 10
232.691358
 20
155.694313
 30
0.0
 10
232.517500
 20
155.664459
 30
0.0
 11
232.517500
 21
157.664169
 31
0.0
 11
233.014819
 21
157.522072
 31
0.0
 11
233.366864
 21
157.163980
 31
0.0
 11
233.500471
 21
156.664314
 31
0.0
 11
233.366864
 21
156.164648
 31
0.0
 11
233.014819
 21
155.806555
 31
0.0
 11
232.517500
 21
155.664459
 31
0.0
  0
LWPOLYLINE
  5
133
100
AcDbEntity
  8
Layer_1
 62
1
100
AcDbPolyline
 90
2
 70
0
 10
232.517500
 20
155.664169
 30
0.0
 10
226.517500
 20
155.664169
 30
0.0
  0
SPLINE
  5
134
100
AcDbEntity
  8
Layer_1
 62
1
100
AcDbSpline
 70
0
 71
3
 72
25
 73
21
 74
19
 40
0.000000
 40
0.000000
 40
0.000000
 40
0.000000
 40
0.872410
 40
1.732335
 40
2.604745
 40
3.477156
 40
4.337080
 40
5.209491
 40
6.081901
 40
6.941826
 40
7.814236
 40
8.686646
 40
9.546571
 40
10.418981
 40
11.291392
 40
12.151316
 40
13.023727
 40
13.896137
 40
14.756062
 40
15.628472
 40
15.628472
 40
15.628472
 40
15.628472
 10
124.000000
 20
62.824459
 30
0.0
 10
123.970130
 20
63.116745
 30
0.0
 10
123.910818
 20
63.697135
 30
0.0
 10
123.450651
 20
64.464130
 30
0.0
 10
122.776889
 20
65.034370
 30
0.0
 10
121.942562
 20
65.336807
 30
0.0
 10
121.057247
 20
65.336807
 30
0.0
 10
120.224088
 20
65.034370
 30
0.0
 10
119.545660
 20
64.464130
 30
0.0
 10
119.102829
 20
63.697135
 30
0.0
 10
118.948215
 20
62.824459
 30
0.0
 10
119.102829
 20
61.951782
 30
0.0
 10
119.545660
 20
61.184788
 30
0.0
 10
120.224088
 20
60.614547
 30
0.0
 10
121.057247
 20
60.312111
 30
0.0
 10
121.942562
 20
60.312111
 30
0.0
 10
122.776889
 20
60.614547
 30
0.0
 10
123.450651
 20
61.184788
 30
0.0
 10
123.910818
 20
61.951782
 30
0.0
 10
123.970130
 20
62.532172
 30
0.0
 10
124.000000
 20
62.824459
 30
0.0
 11
124.000000
 21
62.824459
 31
0.0
 11
123.847815
 21
63.683493
 31
0.0
 11
123.417853
 21
64.428210
 31
0.0
 11
122.750000
 21
64.989522
 31
0.0
 11
121.929962
 21
65.287244
 31
0.0
 11
121.070038
 21
65.287244
 31
0.0
 11
120.250000
 21
64.989522
 31
0.0
 11
119.582147
 21
64.428210
 31
0.0
 11
119.152185
 21
63.683493
 31
0.0
 11
119.000000
 21
62.824459
 31
0.0
 11
119.152185
 21
61.965425
 31
0.0
 11
119.582147
 21
61.220708
 31
0.0
 11
120.250000
 21
60.659395
 31
0.0
 11
121.070038
 21
60.361674
 31
0.0
 11
121.929962
 21
60.361674
 31
0.0
 11
122.750000
 21
60.659395
 31
0.0
 11
123.417853
 21
61.220708
 31
0.0
 11
123.847815
 21
61.965425
 31
0.0
 11
124.000000
 21
62.824459
 31
0.0
  0
LWPOLYLINE
  5
135
100
AcDbEntity
  8
Layer_1
 62
1
100
AcDbPolyline
 90
1
 70
1
 10
124.000000
 20
62.824459
 30
0.0
  0
SPLINE
  5
136
100
AcDbEntity
  8
Layer_1
 62
1
100
AcDbSpline
 70
0
 71
3
 72
25
 73
21
 74
19
 40
0.000000
 40
0.000000
 40
0.000000
 40
0.000000
 40
0.872410
 40
1.732335
 40
2.604745
 40
3.477156
 40
4.337080
 40
5.209491
 40
6.081901
 40
6.941826
 40
7.814236
 40
8.686646
 40
9.546571
 40
10.418981
 40
11.291392
 40
12.151316
 40
13.023727
 40
13.896137
 40
14.756062
 40
15.628472
 40
15.628472
 40
15.628472
 40
15.628472
 10
97.000000
 20
77.824459
 30
0.0
 10
96.970130
 20
78.116745
 30
0.0
 10
96.910818
 20
78.697135
 30
0.0
 10
96.450651
 20
79.464130
 30
0.0
 10
95.776889
 20
80.034370
 30
0.0
 10
94.942562
 20
80.336807
 30
0.0
 10
94.057247
 20
80.336807
 30
0.0
 10
93.224088
 20
80.034370
 30
0.0
 10
92.545660
 20
79.464130
 30
0.0
 10
92.102829
 20
78.697135
 30
0.0
 10
91.948215
 20
77.824459
 30
0.0
 10
92.102829
 20
76.951782
 30
0.0
 10
92.545660
 20
76.184788
 30
0.0
 10
93.224088
 20
75.614547
 30
0.0
 10
94.057247
 20
75.312111
 30
0.0
 10
94.942562
 20
75.312111
 30
0.0
 10
95.776889
 20
75.614547
 30
0.0
 10
96.450651
 20
76.184788
 30
0.0
 10
96.910818
 20
76.951782
 30
0.0
 10
96.970130
 20
77.532172
 30
0.0
 10
97.000000
 20
77.824459
 30
0.0
 11
97.000000
 21
77.824459
 31
0.0
 11
96.847815
 21
78.683493
 31
0.0
 11
96.417853
 21
79.428210
 31
0.0
 11
95.750000
 21
79.989522
 31
0.0
 11
94.929962
 21
80.287244
 31
0.0
 11
94.070038
 21
80.287244
 31
0.0
 11
93.250000
 21
79.989522
 31
0.0
 11
92.582147
 21
79.428210
 31
0.0
 11
92.152185
 21
78.683493
 31
0.0
 11
92.000000
 21
77.824459
 31
0.0
 11
92.152185
 21
76.965425
 31
0.0
 11
92.582147
 21
76.220708
 31
0.0
 11
93.250000
 21
75.659395
 31
0.0
 11
94.070038
 21
75.361674
 31
0.0
 11
94.929962
 21
75.361674
 31
0.0
 11
95.750000
 21
75.659395
 31
0.0
 11
96.417853
 21
76.220708
 31
0.0
 11
96.847815
 21
76.965425
 31
0.0
 11
97.000000
 21
77.824459
 31
0.0
  0
LWPOLYLINE
  5
137
100
AcDbEntity
  8
Layer_1
 62
1
100
AcDbPolyline
 90
1
 70
1
 10
97.000000
 20
77.824459
 30
0.0
  0
SPLINE
  5
138
100
AcDbEntity
  8
Layer_1
 62
1
100
AcDbSpline
 70
0
 71
3
 72
25
 73
21
 74
19
 40
0.000000
 40
0.000000
 40
0.000000
 40
0.000000
 40
0.872410
 40
1.732335
 40
2.604745
 40
3.477156
 40
4.337080
 40
5.209491
 40
6.081901
 40
6.941826
 40
7.814236
 40
8.686646
 40
9.546571
 40
10.418981
 40
11.291392
 40
12.151316
 40
13.023727
 40
13.896137
 40
14.756062
 40
15.628472
 40
15.628472
 40
15.628472
 40
15.628472
 10
178.000000
 20
62.824459
 30
0.0
 10
177.970130
 20
63.116745
 30
0.0
 10
177.910818
 20
63.697135
 30
0.0
 10
177.450651
 20
64.464130
 30
0.0
 10
176.776889
 20
65.034370
 30
0.0
 10
175.942562
 20
65.336807
 30
0.0
 10
175.057247
 20
65.336807
 30
0.0
 10
174.224088
 20
65.034370
 30
0.0
 10
173.545660
 20
64.464130
 30
0.0
 10
173.102829
 20
63.697135
 30
0.0
 10
172.948215
 20
62.824459
 30
0.0
 10
173.102829
 20
61.951782
 30
0.0
 10
173.545660
 20
61.184788
 30
0.0
 10
174.224088
 20
60.614547
 30
0.0
 10
175.057247
 20
60.312111
 30
0.0
 10
175.942562
 20
60.312111
 30
0.0
 10
176.776889
 20
60.614547
 30
0.0
 10
177.450651
 20
61.184788
 30
0.0
 10
177.910818
 20
61.951782
 30
0.0
 10
177.970130
 20
62.532172
 30
0.0
 10
178.000000
 20
62.824459
 30
0.0
 11
178.000000
 21
62.824459
 31
0.0
 11
177.847815
 21
63.683493
 31
0.0
 11
177.417853
 21
64.428210
 31
0.0
 11
176.750000
 21
64.989522
 31
0.0
 11
175.929962
 21
65.287244
 31
0.0
 11
175.070038
 21
65.287244
 31
0.0
 11
174.250000
 21
64.989522
 31
0.0
 11
173.582147
 21
64.428210
 31
0.0
 11
173.152185
 21
63.683493
 31
0.0
 11
173.000000
 21
62.824459
 31
0.0
 11
173.152185
 21
61.965425
 31
0.0
 11
173.582147
 21
61.220708
 31
0.0
 11
174.250000
 21
60.659395
 31
0.0
 11
175.070038
 21
60.361674
 31
0.0
 11
175.929962
 21
60.361674
 31
0.0
 11
176.750000
 21
60.659395
 31
0.0
 11
177.417853
 21
61.220708
 31
0.0
 11
177.847815
 21
61.965425
 31
0.0
 11
178.000000
 21
62.824459
 31
0.0
  0
LWPOLYLINE
  5
139
100
AcDbEntity
  8
Layer_1
 62
1
100
AcDbPolyline
 90
1
 70
1
 10
178.000000
 20
62.824459
 30
0.0
  0
SPLINE
  5
13a
100
AcDbEntity
  8
Layer_1
 62
1
100
AcDbSpline
 70
0
 71
3
 72
25
 73
21
 74
19
 40
0.000000
 40
0.000000
 40
0.000000
 40
0.000000
 40
0.872410
 40
1.732335
 40
2.604745
 40
3.477156
 40
4.337080
 40
5.209491
 40
6.081901
 40
6.941826
 40
7.814236
 40
8.686646
 40
9.546571
 40
10.418981
 40
11.291392
 40
12.151316
 40
13.023727
 40
13.896137
 40
14.756062
 40
15.628472
 40
15.628472
 40
15.628472
 40
15.628472
 10
205.000000
 20
77.824459
 30
0.0
 10
204.970130
 20
78.116745
 30
0.0
 10
204.910818
 20
78.697135
 30
0.0
 10
204.450651
 20
79.464130
 30
0.0
 10
203.776889
 20
80.034370
 30
0.0
 10
202.942562
 20
80.336807
 30
0.0
 10
202.057247
 20
80.336807
 30
0.0
 10
201.224088
 20
80.034370
 30
0.0
 10
200.545660
 20
79.464130
 30
0.0
 10
200.102829
 20
78.697135
 30
0.0
 10
199.948215
 20
77.824459
 30
0.0
 10
200.102829
 20
76.951782
 30
0.0
 10
200.545660
 20
76.184788
 30
0.0
 10
201.224088
 20
75.614547
 30
0.0
 10
202.057247
 20
75.312111
 30
0.0
 10
202.942562
 20
75.312111
 30
0.0
 10
203.776889
 20
75.614547
 30
0.0
 10
204.450651
 20
76.184788
 30
0.0
 10
204.910818
 20
76.951782
 30
0.0
 10
204.970130
 20
77.532172
 30
0.0
 10
205.000000
 20
77.824459
 30
0.0
 11
205.000000
 21
77.824459
 31
0.0
 11
204.847815
 21
78.683493
 31
0.0
 11
204.417853
 21
79.428210
 31
0.0
 11
203.750000
 21
79.989522
 31
0.0
 11
202.929962
 21
80.287244
 31
0.0
 11
202.070038
 21
80.287244
 31
0.0
 11
201.250000
 21
79.989522
 31
0.0
 11
200.582147
 21
79.428210
 31
0.0
 11
200.152185
 21
78.683493
 31
0.0
 11
200.000000
 21
77.824459
 31
0.0
 11
200.152185
 21
76.965425
 31
0.0
 11
200.582147
 21
76.220708
 31
0.0
 11
201.250000
 21
75.659395
 31
0.0
 11
202.070038
 21
75.361674
 31
0.0
 11
202.929962
 21
75.361674
 31
0.0
 11
203.750000
 21
75.659395
 31
0.0
 11
204.417853
 21
76.220708
 31
0.0
 11
204.847815
 21
76.965425
 31
0.0
 11
205.000000
 21
77.824459
 31
0.0
  0
LWPOLYLINE
  5
13b
100
AcDbEntity
  8
Layer_1
 62
1
100
AcDbPolyline
 90
1
 70
1
 10
205.000000
 20
77.824459
 30
0.0
  0
ENDSEC
  0
SECTION
  2
OBJECTS
  0
DICTIONARY
  5
C
330
0
100
AcDbDictionary
  3
ACAD_GROUP
350
D
  3
ACAD_MLINESTYLE
350
17
  0
DICTIONARY
  5
D
330
C
100
AcDbDictionary
  0
DICTIONARY
  5
1A
330
C
100
AcDbDictionary
  0
DICTIONARY
  5
17
330
C
100
AcDbDictionary
  3
STANDARD
350
18
  0
DICTIONARY
  5
19
330
C
100
AcDbDictionary
  0
ENDSEC
  0
EOF
