<?xml version="1.0"?>
<!DOCTYPE svg PUBLIC "-//W3C//DTD SVG 1.1//EN" "http://www.w3.org/Graphics/SVG/1.1/DTD/svg11.dtd">
<svg width="297.0mm" height="210.00000000000003mm" viewBox="-148.500000 -105.000000 297.000000 210.000000" xmlns="http://www.w3.org/2000/svg" version="1.1">
<g id="Sketch" transform="scale(1,-1)">
<path id="Sketch_w0000"  d="M -148.5 -65.0 L -148.5 95.0 A 10 10 0 0 0 -138.5 105L 138.5 105.0 A 10 10 0 0 0 148.5 95L 148.50000000000003 -65.00000000000006 A 40 40 0 0 0 108.5 -105L -108.50000000000001 -105.00000000000001 A 40 40 0 0 0 -148.5 -65" stroke="#000000" stroke-width="0.35 px" style="stroke-width:0.35;stroke-miterlimit:4;stroke-dasharray:none;fill:none;fill-rule: evenodd "/>
<circle cx="-120.0" cy="92.0" r="3.0" stroke="#000000" stroke-width="0.35 px" style="stroke-width:0.35;stroke-miterlimit:4;stroke-dasharray:none;fill:none"/>
<circle cx="-80.0" cy="93.0" r="3.0" stroke="#000000" stroke-width="0.35 px" style="stroke-width:0.35;stroke-miterlimit:4;stroke-dasharray:none;fill:none"/>
<circle cx="-40.0" cy="93.0" r="3.0" stroke="#000000" stroke-width="0.35 px" style="stroke-width:0.35;stroke-miterlimit:4;stroke-dasharray:none;fill:none"/>
<circle cx="40.0" cy="93.0" r="3.0" stroke="#000000" stroke-width="0.35 px" style="stroke-width:0.35;stroke-miterlimit:4;stroke-dasharray:none;fill:none"/>
<circle cx="80.0" cy="93.0" r="3.0" stroke="#000000" stroke-width="0.35 px" style="stroke-width:0.35;stroke-miterlimit:4;stroke-dasharray:none;fill:none"/>
<circle cx="120.0" cy="92.0" r="3.0" stroke="#000000" stroke-width="0.35 px" style="stroke-width:0.35;stroke-miterlimit:4;stroke-dasharray:none;fill:none"/>
<title>b'Sketch'</title>
</g>
</svg>