<?xml version="1.0"?>
<!DOCTYPE svg PUBLIC "-//W3C//DTD SVG 1.1//EN" "http://www.w3.org/Graphics/SVG/1.1/DTD/svg11.dtd">
<svg width="177.07mm" height="118.30239596103212mm" viewBox="-88.535000 -118.302396 177.070000 118.302396" xmlns="http://www.w3.org/2000/svg" version="1.1">
<g id="Shape2DView" transform="scale(1,-1)">
<path id="Shape2DView_nwe0000"  d="M 73.5 110.839707 L 73.5 101.839707 " stroke="#191919" stroke-width="0.35 px" style="stroke-width:0.35;stroke-miterlimit:4;stroke-dasharray:none;fill:none;fill-rule: evenodd "/>
<path id="Shape2DView_nwe0001"  d="M 73.5 110.839707 A 7.5175 7.5175 0 0 0 88.535 110.84" stroke="#191919" stroke-width="0.35 px" style="stroke-width:0.35;stroke-miterlimit:4;stroke-dasharray:none;fill:none;fill-rule: evenodd "/>
<path id="Shape2DView_nwe0002"  d="M 73.5 101.839707 C 74.2618244047619 67.12012807142854 62.251699404761915 51.340088071428596 47.531375000000004 41.09988 C 32.64003273809526 31.286790071428566 15.038491071428592 27.013532071428592 0.0 26.839707000000004 " stroke="#191919" stroke-width="0.35 px" style="stroke-width:0.35;stroke-miterlimit:4;stroke-dasharray:none;fill:none;fill-rule: evenodd "/>
<path id="Shape2DView_nwe0003"  d="M 88.535 95.36175285028771 L 88.535 110.839707 " stroke="#191919" stroke-width="0.35 px" style="stroke-width:0.35;stroke-miterlimit:4;stroke-dasharray:none;fill:none;fill-rule: evenodd "/>
<path id="Shape2DView_nwe0004"  d="M 88.535 95.36175285028771 A 4.064 4.064 0 0 0 80.407 95.3618" stroke="#191919" stroke-width="0.35 px" style="stroke-width:0.35;stroke-miterlimit:4;stroke-dasharray:none;fill:none;fill-rule: evenodd "/>
<path id="Shape2DView_nwe0005"  d="M 79.24054271435162 73.63007547108589 L 80.40699999999998 95.36175285028771 " stroke="#191919" stroke-width="0.35 px" style="stroke-width:0.35;stroke-miterlimit:4;stroke-dasharray:none;fill:none;fill-rule: evenodd "/>
<path id="Shape2DView_nwe0006"  d="M 79.24054271435186 73.63007547108568 A 3 3 0 1 0 78.7619 68.5713" stroke="#191919" stroke-width="0.35 px" style="stroke-width:0.35;stroke-miterlimit:4;stroke-dasharray:none;fill:none;fill-rule: evenodd "/>
<path id="Shape2DView_nwe0007"  d="M 69.35847348635353 35.274307880685505 Q 76.02228896550733 49.07880712898607 78.76186866267544 68.57134780273697 " stroke="#191919" stroke-width="0.35 px" style="stroke-width:0.35;stroke-miterlimit:4;stroke-dasharray:none;fill:none;fill-rule: evenodd "/>
<path id="Shape2DView_nwe0008"  d="M 41.38015427077252 7.02126803813495 Q 57.466978051302405 14.10025604278239 66.96795772117662 30.725192915979314 " stroke="#191919" stroke-width="0.35 px" style="stroke-width:0.35;stroke-miterlimit:4;stroke-dasharray:none;fill:none;fill-rule: evenodd "/>
<path id="Shape2DView_nwe0009"  d="M 69.35847348635208 35.27430788068904 A 3 3 0 1 0 66.968 30.7252" stroke="#191919" stroke-width="0.35 px" style="stroke-width:0.35;stroke-miterlimit:4;stroke-dasharray:none;fill:none;fill-rule: evenodd "/>
<path id="Shape2DView_nwe0010"  d="M 41.38015427077319 7.021268038136894 A 3 3 0 1 0 36.5498 4.64437" stroke="#191919" stroke-width="0.35 px" style="stroke-width:0.35;stroke-miterlimit:4;stroke-dasharray:none;fill:none;fill-rule: evenodd "/>
<path id="Shape2DView_nwe0011"  d="M 36.549751840086444 4.644373648026965 A 3 3 0 0 0 36.5785 5.0587" stroke="#191919" stroke-width="0.35 px" style="stroke-width:0.35;stroke-miterlimit:4;stroke-dasharray:none;fill:none;fill-rule: evenodd "/>
<path id="Shape2DView_nwe0012"  d="M 0.0 0.0 Q 22.644758341023675 -0.18726055784866955 36.57850053816837 5.05869924566189 " stroke="#191919" stroke-width="0.35 px" style="stroke-width:0.35;stroke-miterlimit:4;stroke-dasharray:none;fill:none;fill-rule: evenodd "/>
<path id="Shape2DView_nwe0013"  d="M -73.5 101.839707 C -74.2618244047619 67.12012807142854 -62.251699404761915 51.340088071428596 -47.531375000000004 41.09988 C -32.64003273809526 31.286790071428566 -15.038491071428592 27.013532071428592 0.0 26.839707000000004 " stroke="#191919" stroke-width="0.35 px" style="stroke-width:0.35;stroke-miterlimit:4;stroke-dasharray:none;fill:none;fill-rule: evenodd "/>
<path id="Shape2DView_nwe0014"  d="M -73.5 110.839707 L -73.5 101.839707 " stroke="#191919" stroke-width="0.35 px" style="stroke-width:0.35;stroke-miterlimit:4;stroke-dasharray:none;fill:none;fill-rule: evenodd "/>
<path id="Shape2DView_nwe0015"  d="M -73.5 110.839707 A 7.5175 7.5175 0 0 1 -88.535 110.84" stroke="#191919" stroke-width="0.35 px" style="stroke-width:0.35;stroke-miterlimit:4;stroke-dasharray:none;fill:none;fill-rule: evenodd "/>
<path id="Shape2DView_nwe0016"  d="M -88.535 95.36175285028771 L -88.535 110.839707 " stroke="#191919" stroke-width="0.35 px" style="stroke-width:0.35;stroke-miterlimit:4;stroke-dasharray:none;fill:none;fill-rule: evenodd "/>
<path id="Shape2DView_nwe0017"  d="M -88.535 95.36175285028771 A 4.064 4.064 0 0 1 -80.407 95.3618" stroke="#191919" stroke-width="0.35 px" style="stroke-width:0.35;stroke-miterlimit:4;stroke-dasharray:none;fill:none;fill-rule: evenodd "/>
<path id="Shape2DView_nwe0018"  d="M 0.0 0.0 Q -22.644758341023675 -0.18726055784866955 -36.57850053816837 5.05869924566189 " stroke="#191919" stroke-width="0.35 px" style="stroke-width:0.35;stroke-miterlimit:4;stroke-dasharray:none;fill:none;fill-rule: evenodd "/>
<path id="Shape2DView_nwe0019"  d="M -79.24054271435162 73.63007547108589 L -80.40699999999998 95.36175285028771 " stroke="#191919" stroke-width="0.35 px" style="stroke-width:0.35;stroke-miterlimit:4;stroke-dasharray:none;fill:none;fill-rule: evenodd "/>
<path id="Shape2DView_nwe0020"  d="M -41.38015427077319 7.021268038136894 A 3 3 0 1 1 -36.5498 4.64437" stroke="#191919" stroke-width="0.35 px" style="stroke-width:0.35;stroke-miterlimit:4;stroke-dasharray:none;fill:none;fill-rule: evenodd "/>
<path id="Shape2DView_nwe0021"  d="M -36.549751840086444 4.644373648026965 A 3 3 0 0 1 -36.5785 5.0587" stroke="#191919" stroke-width="0.35 px" style="stroke-width:0.35;stroke-miterlimit:4;stroke-dasharray:none;fill:none;fill-rule: evenodd "/>
<path id="Shape2DView_nwe0022"  d="M -79.24054271435186 73.63007547108568 A 3 3 0 1 1 -78.7619 68.5713" stroke="#191919" stroke-width="0.35 px" style="stroke-width:0.35;stroke-miterlimit:4;stroke-dasharray:none;fill:none;fill-rule: evenodd "/>
<path id="Shape2DView_nwe0023"  d="M -69.35847348635353 35.274307880685505 Q -76.02228896550733 49.07880712898607 -78.76186866267544 68.57134780273697 " stroke="#191919" stroke-width="0.35 px" style="stroke-width:0.35;stroke-miterlimit:4;stroke-dasharray:none;fill:none;fill-rule: evenodd "/>
<path id="Shape2DView_nwe0024"  d="M -41.38015427077252 7.02126803813495 Q -57.466978051302405 14.10025604278239 -66.96795772117662 30.725192915979314 " stroke="#191919" stroke-width="0.35 px" style="stroke-width:0.35;stroke-miterlimit:4;stroke-dasharray:none;fill:none;fill-rule: evenodd "/>
<path id="Shape2DView_nwe0025"  d="M -69.35847348635208 35.27430788068904 A 3 3 0 1 1 -66.968 30.7252" stroke="#191919" stroke-width="0.35 px" style="stroke-width:0.35;stroke-miterlimit:4;stroke-dasharray:none;fill:none;fill-rule: evenodd "/>
<path id="Shape2DView_nwe0026"  d="M -84.01749999999684 105.83970699999983 L -78.01750000000109 105.83970699999983 " stroke="#191919" stroke-width="0.35 px" style="stroke-width:0.35;stroke-miterlimit:4;stroke-dasharray:none;fill:none;fill-rule: evenodd "/>
<path id="Shape2DView_nwe0027"  d="M -78.01750000000109 103.83970699999983 A 1 1 0 0 1 -78.0175 105.84" stroke="#191919" stroke-width="0.35 px" style="stroke-width:0.35;stroke-miterlimit:4;stroke-dasharray:none;fill:none;fill-rule: evenodd "/>
<path id="Shape2DView_nwe0028"  d="M -84.01749999999684 105.83970699999983 A 1 1 0 1 1 -84.0175 103.84" stroke="#191919" stroke-width="0.35 px" style="stroke-width:0.35;stroke-miterlimit:4;stroke-dasharray:none;fill:none;fill-rule: evenodd "/>
<path id="Shape2DView_nwe0029"  d="M -84.01749999999684 103.83970699999983 L -78.01750000000109 103.83970699999983 " stroke="#191919" stroke-width="0.35 px" style="stroke-width:0.35;stroke-miterlimit:4;stroke-dasharray:none;fill:none;fill-rule: evenodd "/>
<path id="Shape2DView_nwe0030"  d="M -84.01749999999703 111.83970699999983 L -78.01749999999703 111.839707 " stroke="#191919" stroke-width="0.35 px" style="stroke-width:0.35;stroke-miterlimit:4;stroke-dasharray:none;fill:none;fill-rule: evenodd "/>
<path id="Shape2DView_nwe0031"  d="M -78.01750000000109 109.839707 A 1 1 0 0 1 -78.0175 111.84" stroke="#191919" stroke-width="0.35 px" style="stroke-width:0.35;stroke-miterlimit:4;stroke-dasharray:none;fill:none;fill-rule: evenodd "/>
<path id="Shape2DView_nwe0032"  d="M -84.01749999999703 111.83970699999983 A 1 1 0 0 1 -84.0175 109.84" stroke="#191919" stroke-width="0.35 px" style="stroke-width:0.35;stroke-miterlimit:4;stroke-dasharray:none;fill:none;fill-rule: evenodd "/>
<path id="Shape2DView_nwe0033"  d="M -84.01749999999684 109.839707 L -78.01750000000109 109.839707 " stroke="#191919" stroke-width="0.35 px" style="stroke-width:0.35;stroke-miterlimit:4;stroke-dasharray:none;fill:none;fill-rule: evenodd "/>
<path id="Shape2DView_nwe0034"  d="M 84.01749999999684 105.83970699999983 L 78.01750000000109 105.83970699999983 " stroke="#191919" stroke-width="0.35 px" style="stroke-width:0.35;stroke-miterlimit:4;stroke-dasharray:none;fill:none;fill-rule: evenodd "/>
<path id="Shape2DView_nwe0035"  d="M 78.01750000000109 103.83970699999983 A 1 1 0 0 0 78.0175 105.84" stroke="#191919" stroke-width="0.35 px" style="stroke-width:0.35;stroke-miterlimit:4;stroke-dasharray:none;fill:none;fill-rule: evenodd "/>
<path id="Shape2DView_nwe0036"  d="M 84.01749999999684 105.83970699999983 A 1 1 0 1 0 84.0175 103.84" stroke="#191919" stroke-width="0.35 px" style="stroke-width:0.35;stroke-miterlimit:4;stroke-dasharray:none;fill:none;fill-rule: evenodd "/>
<path id="Shape2DView_nwe0037"  d="M 84.01749999999684 103.83970699999983 L 78.01750000000109 103.83970699999983 " stroke="#191919" stroke-width="0.35 px" style="stroke-width:0.35;stroke-miterlimit:4;stroke-dasharray:none;fill:none;fill-rule: evenodd "/>
<path id="Shape2DView_nwe0038"  d="M 84.01749999999703 111.83970699999983 L 78.01749999999703 111.839707 " stroke="#191919" stroke-width="0.35 px" style="stroke-width:0.35;stroke-miterlimit:4;stroke-dasharray:none;fill:none;fill-rule: evenodd "/>
<path id="Shape2DView_nwe0039"  d="M 78.01750000000109 109.839707 A 1 1 0 0 0 78.0175 111.84" stroke="#191919" stroke-width="0.35 px" style="stroke-width:0.35;stroke-miterlimit:4;stroke-dasharray:none;fill:none;fill-rule: evenodd "/>
<path id="Shape2DView_nwe0040"  d="M 84.01749999999703 111.83970699999983 A 1 1 0 0 0 84.0175 109.84" stroke="#191919" stroke-width="0.35 px" style="stroke-width:0.35;stroke-miterlimit:4;stroke-dasharray:none;fill:none;fill-rule: evenodd "/>
<path id="Shape2DView_nwe0041"  d="M 84.01749999999684 109.839707 L 78.01750000000109 109.839707 " stroke="#191919" stroke-width="0.35 px" style="stroke-width:0.35;stroke-miterlimit:4;stroke-dasharray:none;fill:none;fill-rule: evenodd "/>
<circle cx="-27.0" cy="17.0" r="2.5" stroke="#191919" stroke-width="0.35 px" style="stroke-width:0.35;stroke-miterlimit:4;stroke-dasharray:none;fill:none"/>
<circle cx="-54.0" cy="32.0" r="2.5" stroke="#191919" stroke-width="0.35 px" style="stroke-width:0.35;stroke-miterlimit:4;stroke-dasharray:none;fill:none"/>
<circle cx="27.0" cy="17.0" r="2.5" stroke="#191919" stroke-width="0.35 px" style="stroke-width:0.35;stroke-miterlimit:4;stroke-dasharray:none;fill:none"/>
<circle cx="54.0" cy="32.0" r="2.5" stroke="#191919" stroke-width="0.35 px" style="stroke-width:0.35;stroke-miterlimit:4;stroke-dasharray:none;fill:none"/>
<title>b'Shape2DView'</title>
</g>
</svg>