  0
SECTION
  2
HEADER
  9
$ACADVER
  1
AC1014
  9
$HANDSEED
  5
FFFF
  9
$MEASUREMENT
 70
     1
  0
ENDSEC
  0
SECTION
  2
TABLES
  0
TABLE
  2
VPORT
  5
8
330
0
100
AcDbSymbolTable
 70
     4
  0
VPORT
  5
2E
330
8
100
AcDbSymbolTableRecord
100
AcDbViewportTableRecord
  2
*ACTIVE
 70
     0
 10
0.0
 20
0.0
 11
1.0
 21
1.0
 12
210.0
 22
148.5
 13
0.0
 23
0.0
 14
10.0
 24
10.0
 15
10.0
 25
10.0
 16
0.0
 26
0.0
 36
1.0
 17
0.0
 27
0.0
 37
0.0
 40
341.0
 41
1.24
 42
50.0
 43
0.0
 44
0.0
 50
0.0
 51
0.0
 71
     0
 72
   100
 73
     1
 74
     3
 75
     0
 76
     0
 77
     0
 78
     0
  0
ENDTAB
  0
TABLE
  2
LTYPE
  5
5
330
0
100
AcDbSymbolTable
 70
     1
  0
LTYPE
  5
14
330
5
100
AcDbSymbolTableRecord
100
AcDbLinetypeTableRecord
  2
BYBLOCK
 70
     0
  3

 72
    65
 73
     0
 40
0.0
  0
LTYPE
  5
15
330
5
100
AcDbSymbolTableRecord
100
AcDbLinetypeTableRecord
  2
BYLAYER
 70
     0
  3

 72
    65
 73
     0
 40
0.0
  0
LTYPE
  5
16
330
5
100
AcDbSymbolTableRecord
100
AcDbLinetypeTableRecord
  2
CONTINUOUS
 70
     0
  3
Solid line
 72
    65
 73
     0
 40
0.0
  0
ENDTAB
  0
TABLE
  2
LAYER
  5
2
100
AcDbSymbolTable
 70
1
  0
LAYER
  5
50
100
AcDbSymbolTableRecord
100
AcDbLayerTableRecord
  2
0
 70
0
  6
CONTINUOUS
  0
ENDTAB
  0
TABLE
  2
STYLE
  5
3
330
0
100
AcDbSymbolTable
 70
     1
  0
STYLE
  5
11
330
3
100
AcDbSymbolTableRecord
100
AcDbTextStyleTableRecord
  2
STANDARD
 70
     0
 40
0.0
 41
1.0
 50
0.0
 71
     0
 42
2.5
  3
txt
  4

  0
ENDTAB
  0
TABLE
  2
VIEW
  5
6
330
0
100
AcDbSymbolTable
 70
     0
  0
ENDTAB
  0
TABLE
  2
UCS
  5
7
330
0
100
AcDbSymbolTable
 70
     0
  0
ENDTAB
  0
TABLE
  2
APPID
  5
9
330
0
100
AcDbSymbolTable
 70
     2
  0
APPID
  5
12
330
9
100
AcDbSymbolTableRecord
100
AcDbRegAppTableRecord
  2
ACAD
 70
     0
  0
ENDTAB
  0
TABLE
  2
DIMSTYLE
  5
A
330
0
100
AcDbSymbolTable
 70
     1
  0
DIMSTYLE
105
27
330
A
100
AcDbSymbolTableRecord
100
AcDbDimStyleTableRecord
  2
ISO-25
 70
     0
  3

  4

  5

  6

  7

 40
1.0
 41
2.5
 42
0.625
 43
3.75
 44
1.25
 45
0.0
 46
0.0
 47
0.0
 48
0.0
140
2.5
141
2.5
142
0.0
143
0.03937007874016
144
1.0
145
0.0
146
1.0
147
0.625
 71
     0
 72
     0
 73
     0
 74
     0
 75
     0
 76
     0
 77
     1
 78
     8
170
     0
171
     3
172
     1
173
     0
174
     0
175
     0
176
     0
177
     0
178
     0
270
     2
271
     2
272
     2
273
     2
274
     3
340
11
275
     0
280
     0
281
     0
282
     0
283
     0
284
     8
285
     0
286
     0
287
     3
288
     0
  0
ENDTAB
  0
TABLE
  2
BLOCK_RECORD
  5
1
330
0
100
AcDbSymbolTable
 70
     1
  0
BLOCK_RECORD
  5
1F
330
1
100
AcDbSymbolTableRecord
100
AcDbBlockTableRecord
  2
*MODEL_SPACE
  0
BLOCK_RECORD
  5
1B
330
1
100
AcDbSymbolTableRecord
100
AcDbBlockTableRecord
  2
*PAPER_SPACE
  0
ENDTAB
  0
ENDSEC
  0
SECTION
  2
BLOCKS
  0
BLOCK
  5
20
330
1F
100
AcDbEntity
  8
0
100
AcDbBlockBegin
  2
*MODEL_SPACE
 70
     0
 10
0.0
 20
0.0
 30
0.0
  3
*MODEL_SPACE
  1

  0
ENDBLK
  5
21
330
1F
100
AcDbEntity
  8
0
100
AcDbBlockEnd
  0
BLOCK
  5
1C
330
1B
100
AcDbEntity
 67
     1
  8
0
100
AcDbBlockBegin
  2
*PAPER_SPACE
  1

  0
ENDBLK
  5
1D
330
1B
100
AcDbEntity
 67
     1
  8
0
100
AcDbBlockEnd
  0
ENDSEC
  0
SECTION
  2
ENTITIES
  0
LWPOLYLINE
  5
100
100
AcDbEntity
  8
0
 62
5
100
AcDbPolyline
 90
3
 70
0
 10
-30.942048
 20
515.471490
 30
0.0
 10
-28.365979
 20
515.471490
 30
0.0
 10
146.127952
 20
515.471490
 30
0.0
  0
LWPOLYLINE
  5
101
100
AcDbEntity
  8
0
 62
5
100
AcDbPolyline
 90
2
 70
0
 10
-30.942048
 20
515.471490
 30
0.0
 10
-30.942048
 20
498.368360
 30
0.0
  0
LWPOLYLINE
  5
102
100
AcDbEntity
  8
0
 62
5
100
AcDbPolyline
 90
2
 70
0
 10
146.127952
 20
515.471490
 30
0.0
 10
146.127952
 20
498.368360
 30
0.0
  0
LWPOLYLINE
  5
103
100
AcDbEntity
  8
0
 62
1
100
AcDbPolyline
 90
2
 70
0
 10
46.745084
 20
396.100996
 30
0.0
 10
46.745084
 20
390.544753
 30
0.0
  0
LWPOLYLINE
  5
104
100
AcDbEntity
  8
0
 62
1
100
AcDbPolyline
 90
2
 70
0
 10
46.745084
 20
396.100996
 30
0.0
 10
48.861748
 20
390.544753
 30
0.0
  0
LWPOLYLINE
  5
105
100
AcDbEntity
  8
0
 62
1
100
AcDbPolyline
 90
2
 70
0
 10
50.978412
 20
396.100996
 30
0.0
 10
48.861748
 20
390.544753
 30
0.0
  0
LWPOLYLINE
  5
106
100
AcDbEntity
  8
0
 62
1
100
AcDbPolyline
 90
2
 70
0
 10
50.978412
 20
396.100996
 30
0.0
 10
50.978412
 20
390.544753
 30
0.0
  0
LWPOLYLINE
  5
107
100
AcDbEntity
  8
0
 62
1
100
AcDbPolyline
 90
2
 70
0
 10
53.095076
 20
392.926000
 30
0.0
 10
57.857570
 20
392.926000
 30
0.0
  0
LWPOLYLINE
  5
108
100
AcDbEntity
  8
0
 62
1
100
AcDbPolyline
 90
4
 70
0
 10
60.503400
 20
395.042664
 30
0.0
 10
61.032566
 20
395.307247
 30
0.0
 10
61.826315
 20
396.100996
 30
0.0
 10
61.826315
 20
390.544753
 30
0.0
  0
LWPOLYLINE
  5
109
100
AcDbEntity
  8
0
 62
1
100
AcDbPolyline
 90
23
 70
0
 10
68.440890
 20
394.248915
 30
0.0
 10
68.176307
 20
393.455166
 30
0.0
 10
67.647141
 20
392.926000
 30
0.0
 10
66.853392
 20
392.661417
 30
0.0
 10
66.588809
 20
392.661417
 30
0.0
 10
65.795060
 20
392.926000
 30
0.0
 10
65.265894
 20
393.455166
 30
0.0
 10
65.001311
 20
394.248915
 30
0.0
 10
65.001311
 20
394.513498
 30
0.0
 10
65.265894
 20
395.307247
 30
0.0
 10
65.795060
 20
395.836413
 30
0.0
 10
66.588809
 20
396.100996
 30
0.0
 10
66.853392
 20
396.100996
 30
0.0
 10
67.647141
 20
395.836413
 30
0.0
 10
68.176307
 20
395.307247
 30
0.0
 10
68.440890
 20
394.248915
 30
0.0
 10
68.440890
 20
392.926000
 30
0.0
 10
68.176307
 20
391.603085
 30
0.0
 10
67.647141
 20
390.809336
 30
0.0
 10
66.853392
 20
390.544753
 30
0.0
 10
66.324226
 20
390.544753
 30
0.0
 10
65.530477
 20
390.809336
 30
0.0
 10
65.265894
 20
391.338502
 30
0.0
  0
SPLINE
  5
10a
100
AcDbEntity
  8
0
 62
1
100
AcDbSpline
 70
0
 71
3
 72
16
 73
12
 74
10
 40
0.000000
 40
0.000000
 40
0.000000
 40
0.000000
 40
2.623338
 40
5.209131
 40
7.832469
 40
10.455807
 40
13.041601
 40
15.664938
 40
18.288276
 40
20.874070
 40
23.497407
 40
23.497407
 40
23.497407
 40
23.497407
 10
131.093052
 20
490.850710
 30
0.0
 10
131.182853
 20
491.729618
 30
0.0
 10
131.361168
 20
493.474854
 30
0.0
 10
132.744864
 20
495.781233
 30
0.0
 10
134.770761
 20
497.495985
 30
0.0
 10
137.279836
 20
498.405459
 30
0.0
 10
139.940976
 20
498.405511
 30
0.0
 10
142.450087
 20
497.496133
 30
0.0
 10
144.476050
 20
495.781459
 30
0.0
 10
145.859834
 20
493.475134
 30
0.0
 10
146.038218
 20
491.729904
 30
0.0
 10
146.128052
 20
490.851000
 30
0.0
 11
131.093052
 21
490.850710
 31
0.0
 11
131.550621
 21
493.433834
 31
0.0
 11
132.843475
 21
495.673222
 31
0.0
 11
134.851676
 21
497.361128
 31
0.0
 11
137.317512
 21
498.256424
 31
0.0
 11
139.903306
 21
498.256474
 31
0.0
 11
142.369176
 21
497.361273
 31
0.0
 11
144.377443
 21
495.673445
 31
0.0
 11
145.670383
 21
493.434107
 31
0.0
 11
146.128052
 21
490.851000
 31
0.0
  0
SPLINE
  5
10b
100
AcDbEntity
  8
0
 62
1
100
AcDbSpline
 70
0
 71
3
 72
10
 73
6
 74
4
 40
0.000000
 40
0.000000
 40
0.000000
 40
0.000000
 40
29.070903
 40
50.497677
 40
68.911879
 40
68.911879
 40
68.911879
 40
68.911879
 10
131.093052
 20
481.850710
 30
0.0
 10
130.800535
 20
472.104868
 30
0.0
 10
130.292417
 20
455.175830
 30
0.0
 10
120.353743
 20
433.452297
 30
0.0
 10
109.938346
 20
425.011947
 30
0.0
 10
105.124427
 20
421.110880
 30
0.0
 11
131.093052
 21
481.850710
 31
0.0
 11
127.970217
 21
452.948023
 31
0.0
 11
118.568694
 21
433.693984
 31
0.0
 11
105.124427
 21
421.110880
 31
0.0
  0
LWPOLYLINE
  5
10c
100
AcDbEntity
  8
0
 62
1
100
AcDbPolyline
 90
2
 70
0
 10
131.093052
 20
490.850710
 30
0.0
 10
131.093052
 20
481.850710
 30
0.0
  0
SPLINE
  5
10d
100
AcDbEntity
  8
0
 62
1
100
AcDbSpline
 70
0
 71
3
 72
10
 73
6
 74
4
 40
0.000000
 40
0.000000
 40
0.000000
 40
0.000000
 40
17.540241
 40
34.426555
 40
50.204779
 40
50.204779
 40
50.204779
 40
50.204779
 10
105.124427
 20
421.110880
 30
0.0
 10
100.025415
 20
418.219692
 30
0.0
 10
90.017489
 20
412.545103
 30
0.0
 10
73.723950
 20
407.942337
 30
0.0
 10
62.847024
 20
407.206260
 30
0.0
 10
57.593052
 20
406.850707
 30
0.0
 11
105.124427
 21
421.110880
 31
0.0
 11
89.524991
 21
413.091053
 31
0.0
 11
73.290588
 21
408.444358
 31
0.0
 11
57.593052
 21
406.850707
 31
0.0
  0
LWPOLYLINE
  5
10e
100
AcDbEntity
  8
0
 62
1
100
AcDbPolyline
 90
2
 70
0
 10
146.128052
 20
475.372753
 30
0.0
 10
146.128052
 20
490.850710
 30
0.0
  0
SPLINE
  5
10f
100
AcDbEntity
  8
0
 62
1
100
AcDbSpline
 70
0
 71
3
 72
13
 73
9
 74
7
 40
0.000000
 40
0.000000
 40
0.000000
 40
0.000000
 40
2.124900
 40
4.186775
 40
6.311675
 40
8.436574
 40
10.498450
 40
12.623349
 40
12.623349
 40
12.623349
 40
12.623349
 10
146.128052
 20
475.372753
 30
0.0
 10
146.016267
 20
474.656338
 30
0.0
 10
145.796012
 20
473.244755
 30
0.0
 10
144.179263
 20
471.690726
 30
0.0
 10
142.064027
 20
471.114921
 30
0.0
 10
139.948799
 20
471.690751
 30
0.0
 10
138.332067
 20
473.244798
 30
0.0
 10
138.111829
 20
474.656383
 30
0.0
 10
138.000052
 20
475.372800
 30
0.0
 11
146.128052
 21
475.372753
 31
0.0
 11
145.573185
 21
473.321578
 31
0.0
 11
144.115210
 21
471.863620
 31
0.0
 11
142.064029
 21
471.308777
 31
0.0
 11
140.012853
 21
471.863643
 31
0.0
 11
138.554895
 21
473.321618
 31
0.0
 11
138.000052
 21
475.372800
 31
0.0
  0
SPLINE
  5
110
100
AcDbEntity
  8
0
 62
1
100
AcDbSpline
 70
0
 71
3
 72
16
 73
12
 74
10
 40
0.000000
 40
0.000000
 40
0.000000
 40
0.000000
 40
1.419619
 40
2.803821
 40
4.223441
 40
5.643060
 40
7.027262
 40
8.446881
 40
9.866500
 40
11.250703
 40
12.670322
 40
12.670322
 40
12.670322
 40
12.670322
 10
136.833595
 20
453.641075
 30
0.0
 10
137.290367
 20
453.795989
 30
0.0
 10
138.192515
 20
454.101954
 30
0.0
 10
139.625892
 20
453.714776
 30
0.0
 10
140.724671
 20
452.764337
 30
0.0
 10
141.264788
 20
451.402084
 30
0.0
 10
141.127442
 20
449.950471
 30
0.0
 10
140.341414
 20
448.713694
 30
0.0
 10
139.083875
 20
447.986201
 30
0.0
 10
137.603317
 20
447.874730
 30
0.0
 10
136.774563
 20
448.344465
 30
0.0
 10
136.354952
 20
448.582300
 30
0.0
 11
136.833595
 21
453.641075
 31
0.0
 11
138.216582
 21
453.961490
 31
0.0
 11
139.559733
 21
453.626886
 31
0.0
 11
140.630780
 21
452.695126
 31
0.0
 11
141.154022
 21
451.375453
 31
0.0
 11
141.023636
 21
449.997405
 31
0.0
 11
140.262170
 21
448.799287
 31
0.0
 11
139.035374
 21
448.084940
 31
0.0
 11
137.653302
 21
448.008187
 31
0.0
 11
136.354952
 21
448.582300
 31
0.0
  0
SPLINE
  5
111
100
AcDbEntity
  8
0
 62
1
100
AcDbSpline
 70
0
 71
3
 72
10
 73
6
 74
4
 40
0.000000
 40
0.000000
 40
0.000000
 40
0.000000
 40
10.619769
 40
22.152894
 40
34.721221
 40
34.721221
 40
34.721221
 40
34.721221
 10
126.951525
 20
415.285308
 30
0.0
 10
128.362616
 20
418.535449
 30
0.0
 10
131.306159
 20
425.315260
 30
0.0
 10
134.373198
 20
436.518421
 30
0.0
 10
135.675698
 20
444.447516
 30
0.0
 10
136.354921
 20
448.582348
 30
0.0
 11
126.951525
 21
415.285308
 31
0.0
 11
130.958043
 21
425.120312
 31
0.0
 11
134.092508
 21
436.219325
 31
0.0
 11
136.354921
 21
448.582348
 31
0.0
  0
SPLINE
  5
112
100
AcDbEntity
  8
0
 62
1
100
AcDbSpline
 70
0
 71
3
 72
10
 73
6
 74
4
 40
0.000000
 40
0.000000
 40
0.000000
 40
0.000000
 40
11.544006
 40
23.170660
 40
35.433527
 40
35.433527
 40
35.433527
 40
35.433527
 10
98.973206
 20
387.032268
 30
0.0
 10
102.399821
 20
388.810513
 30
0.0
 10
109.277582
 20
392.379735
 30
0.0
 10
118.026841
 20
400.581051
 30
0.0
 10
122.344624
 20
407.291575
 30
0.0
 10
124.561010
 20
410.736193
 30
0.0
 11
98.973206
 21
387.032268
 31
0.0
 11
108.965995
 21
392.812254
 31
0.0
 11
117.495263
 21
400.713563
 31
0.0
 11
124.561010
 21
410.736193
 31
0.0
  0
SPLINE
  5
113
100
AcDbEntity
  8
0
 62
1
100
AcDbSpline
 70
0
 71
3
 72
16
 73
12
 74
10
 40
0.000000
 40
0.000000
 40
0.000000
 40
0.000000
 40
1.407466
 40
2.780347
 40
4.187813
 40
5.595280
 40
6.968160
 40
8.375627
 40
9.783093
 40
11.155974
 40
12.563440
 40
12.563440
 40
12.563440
 40
12.563440
 10
126.951525
 20
415.285308
 30
0.0
 10
127.428051
 20
415.247303
 30
0.0
 10
128.369393
 20
415.172227
 30
0.0
 10
129.526499
 20
414.264024
 30
0.0
 10
130.165702
 20
412.973980
 30
0.0
 10
130.142373
 20
411.522087
 30
0.0
 10
129.470237
 20
410.243002
 30
0.0
 10
128.287758
 20
409.400222
 30
0.0
 10
126.862756
 20
409.194879
 30
0.0
 10
125.458447
 20
409.632652
 30
0.0
 10
124.862654
 20
410.365313
 30
0.0
 10
124.561052
 20
410.736200
 30
0.0
 11
126.951525
 21
415.285308
 31
0.0
 11
128.336738
 21
415.036016
 31
0.0
 11
129.433107
 21
414.209714
 31
0.0
 11
130.054368
 21
412.946782
 31
0.0
 11
130.031796
 21
411.539497
 31
0.0
 11
129.393176
 21
410.324192
 31
0.0
 11
128.247003
 21
409.507339
 31
0.0
 11
126.854508
 21
409.302599
 31
0.0
 11
125.552101
 21
409.736809
 31
0.0
 11
124.561052
 21
410.736200
 31
0.0
  0
SPLINE
  5
114
100
AcDbEntity
  8
0
 62
1
100
AcDbSpline
 70
0
 71
3
 72
19
 73
15
 74
13
 40
0.000000
 40
0.000000
 40
0.000000
 40
0.000000
 40
1.350994
 40
2.671118
 40
4.022112
 40
5.373105
 40
6.693230
 40
8.044223
 40
9.395217
 40
10.715342
 40
12.066335
 40
12.204889
 40
12.343404
 40
12.481956
 40
12.481956
 40
12.481956
 40
12.481956
 10
98.973206
 20
387.032268
 30
0.0
 10
99.296145
 20
386.707261
 30
0.0
 10
99.934644
 20
386.064674
 30
0.0
 10
100.240716
 20
384.691106
 30
0.0
 10
99.956582
 20
383.341527
 30
0.0
 10
99.099290
 20
382.247052
 30
0.0
 10
97.856824
 20
381.636032
 30
0.0
 10
96.469046
 20
381.624270
 30
0.0
 10
95.216994
 20
382.223146
 30
0.0
 10
94.350180
 20
383.301695
 30
0.0
 10
94.132265
 20
384.251509
 30
0.0
 10
94.145004
 20
384.793898
 30
0.0
 10
94.154249
 20
384.932225
 30
0.0
 10
94.165784
 20
385.023871
 30
0.0
 10
94.171552
 20
385.069700
 30
0.0
 11
98.973206
 21
387.032268
 31
0.0
 11
99.830685
 21
385.988279
 31
0.0
 11
100.142629
 21
384.705539
 31
0.0
 11
99.860323
 21
383.384371
 31
0.0
 11
99.027275
 21
382.320785
 31
0.0
 11
97.842789
 21
381.737928
 31
0.0
 11
96.491841
 21
381.726824
 31
0.0
 11
95.272831
 21
382.309232
 31
0.0
 11
94.446838
 21
383.339020
 31
0.0
 11
94.142852
 21
384.655370
 31
0.0
 11
94.146003
 21
384.793888
 31
0.0
 11
94.155591
 21
384.932071
 31
0.0
 11
94.171552
 21
385.069700
 31
0.0
  0
SPLINE
  5
115
100
AcDbEntity
  8
0
 62
1
100
AcDbSpline
 70
0
 71
3
 72
10
 73
6
 74
4
 40
0.000000
 40
0.000000
 40
0.000000
 40
0.000000
 40
14.136727
 40
26.445609
 40
37.103007
 40
37.103007
 40
37.103007
 40
37.103007
 10
57.593052
 20
380.011000
 30
0.0
 10
62.304355
 20
380.080522
 30
0.0
 10
71.117802
 20
380.210576
 30
0.0
 10
83.457007
 20
381.720094
 30
0.0
 10
90.775459
 20
384.008005
 30
0.0
 10
94.171553
 20
385.069699
 30
0.0
 11
57.593052
 21
380.011000
 31
0.0
 11
71.721667
 21
380.489851
 31
0.0
 11
83.914500
 21
382.176084
 31
0.0
 11
94.171553
 21
385.069699
 31
0.0
  0
SPLINE
  5
116
100
AcDbEntity
  8
0
 62
1
100
AcDbSpline
 70
0
 71
3
 72
10
 73
6
 74
4
 40
0.000000
 40
0.000000
 40
0.000000
 40
0.000000
 40
29.070903
 40
50.497677
 40
68.911879
 40
68.911879
 40
68.911879
 40
68.911879
 10
-15.906948
 20
481.850710
 30
0.0
 10
-15.614431
 20
472.104868
 30
0.0
 10
-15.106313
 20
455.175830
 30
0.0
 10
-5.167639
 20
433.452297
 30
0.0
 10
5.247758
 20
425.011947
 30
0.0
 10
10.061677
 20
421.110880
 30
0.0
 11
-15.906948
 21
481.850710
 31
0.0
 11
-12.784113
 21
452.948023
 31
0.0
 11
-3.382590
 21
433.693984
 31
0.0
 11
10.061677
 21
421.110880
 31
0.0
  0
LWPOLYLINE
  5
117
100
AcDbEntity
  8
0
 62
1
100
AcDbPolyline
 90
2
 70
0
 10
136.833595
 20
453.641075
 30
0.0
 10
138.000052
 20
475.372753
 30
0.0
  0
SPLINE
  5
118
100
AcDbEntity
  8
0
 62
1
100
AcDbSpline
 70
0
 71
3
 72
10
 73
6
 74
4
 40
0.000000
 40
0.000000
 40
0.000000
 40
0.000000
 40
17.540241
 40
34.426555
 40
50.204779
 40
50.204779
 40
50.204779
 40
50.204779
 10
10.061677
 20
421.110880
 30
0.0
 10
15.160689
 20
418.219692
 30
0.0
 10
25.168615
 20
412.545103
 30
0.0
 10
41.462154
 20
407.942337
 30
0.0
 10
52.339080
 20
407.206260
 30
0.0
 10
57.593052
 20
406.850707
 30
0.0
 11
10.061677
 21
421.110880
 31
0.0
 11
25.661113
 21
413.091053
 31
0.0
 11
41.895516
 21
408.444358
 31
0.0
 11
57.593052
 21
406.850707
 31
0.0
  0
LWPOLYLINE
  5
119
100
AcDbEntity
  8
0
 62
1
100
AcDbPolyline
 90
2
 70
0
 10
-15.906948
 20
490.850710
 30
0.0
 10
-15.906948
 20
481.850710
 30
0.0
  0
SPLINE
  5
11a
100
AcDbEntity
  8
0
 62
1
100
AcDbSpline
 70
0
 71
3
 72
16
 73
12
 74
10
 40
0.000000
 40
0.000000
 40
0.000000
 40
0.000000
 40
2.623338
 40
5.209131
 40
7.832469
 40
10.455807
 40
13.041601
 40
15.664938
 40
18.288276
 40
20.874070
 40
23.497407
 40
23.497407
 40
23.497407
 40
23.497407
 10
-15.906948
 20
490.850710
 30
0.0
 10
-15.996749
 20
491.729618
 30
0.0
 10
-16.175064
 20
493.474854
 30
0.0
 10
-17.558760
 20
495.781233
 30
0.0
 10
-19.584657
 20
497.495985
 30
0.0
 10
-22.093732
 20
498.405459
 30
0.0
 10
-24.754872
 20
498.405511
 30
0.0
 10
-27.263983
 20
497.496133
 30
0.0
 10
-29.289946
 20
495.781459
 30
0.0
 10
-30.673730
 20
493.475134
 30
0.0
 10
-30.852114
 20
491.729904
 30
0.0
 10
-30.941948
 20
490.851000
 30
0.0
 11
-15.906948
 21
490.850710
 31
0.0
 11
-16.364517
 21
493.433834
 31
0.0
 11
-17.657371
 21
495.673222
 31
0.0
 11
-19.665572
 21
497.361128
 31
0.0
 11
-22.131408
 21
498.256424
 31
0.0
 11
-24.717202
 21
498.256474
 31
0.0
 11
-27.183072
 21
497.361273
 31
0.0
 11
-29.191339
 21
495.673445
 31
0.0
 11
-30.484279
 21
493.434107
 31
0.0
 11
-30.941948
 21
490.851000
 31
0.0
  0
SPLINE
  5
11b
100
AcDbEntity
  8
0
 62
1
100
AcDbSpline
 70
0
 71
3
 72
16
 73
12
 74
10
 40
0.000000
 40
0.000000
 40
0.000000
 40
0.000000
 40
1.418190
 40
2.816084
 40
4.234274
 40
5.652464
 40
7.050358
 40
8.468548
 40
9.886738
 40
11.284632
 40
12.702822
 40
12.702822
 40
12.702822
 40
12.702822
 10
-30.941948
 20
475.372753
 30
0.0
 10
-30.893389
 20
474.897612
 30
0.0
 10
-30.796967
 20
473.954131
 30
0.0
 10
-30.048903
 20
472.707309
 30
0.0
 10
-28.953669
 20
471.780332
 30
0.0
 10
-27.597238
 20
471.288700
 30
0.0
 10
-26.158611
 20
471.288708
 30
0.0
 10
-24.802185
 20
471.780356
 30
0.0
 10
-23.706962
 20
472.707345
 30
0.0
 10
-22.958912
 20
473.954176
 30
0.0
 10
-22.862501
 20
474.897659
 30
0.0
 10
-22.813948
 20
475.372800
 30
0.0
 11
-30.941948
 21
475.372753
 31
0.0
 11
-30.694549
 21
473.976309
 31
0.0
 11
-29.995595
 21
472.765701
 31
0.0
 11
-28.909928
 21
471.853238
 31
0.0
 11
-27.576872
 21
471.369269
 31
0.0
 11
-26.178978
 21
471.369278
 31
0.0
 11
-24.845928
 21
471.853261
 31
0.0
 11
-23.760271
 21
472.765737
 31
0.0
 11
-23.061331
 21
473.976353
 31
0.0
 11
-22.813948
 21
475.372800
 31
0.0
  0
LWPOLYLINE
  5
11c
100
AcDbEntity
  8
0
 62
1
100
AcDbPolyline
 90
2
 70
0
 10
-30.941948
 20
475.372753
 30
0.0
 10
-30.941948
 20
490.850710
 30
0.0
  0
SPLINE
  5
11d
100
AcDbEntity
  8
0
 62
1
100
AcDbSpline
 70
0
 71
3
 72
10
 73
6
 74
4
 40
0.000000
 40
0.000000
 40
0.000000
 40
0.000000
 40
14.136727
 40
26.445609
 40
37.103007
 40
37.103007
 40
37.103007
 40
37.103007
 10
57.593052
 20
380.011000
 30
0.0
 10
52.881749
 20
380.080522
 30
0.0
 10
44.068302
 20
380.210576
 30
0.0
 10
31.729097
 20
381.720094
 30
0.0
 10
24.410645
 20
384.008005
 30
0.0
 10
21.014551
 20
385.069699
 30
0.0
 11
57.593052
 21
380.011000
 31
0.0
 11
43.464437
 21
380.489851
 31
0.0
 11
31.271604
 21
382.176084
 31
0.0
 11
21.014551
 21
385.069699
 31
0.0
  0
SPLINE
  5
11e
100
AcDbEntity
  8
0
 62
1
100
AcDbSpline
 70
0
 71
3
 72
19
 73
15
 74
13
 40
0.000000
 40
0.000000
 40
0.000000
 40
0.000000
 40
1.350994
 40
2.671118
 40
4.022112
 40
5.373105
 40
6.693230
 40
8.044223
 40
9.395217
 40
10.715342
 40
12.066335
 40
12.204889
 40
12.343404
 40
12.481956
 40
12.481956
 40
12.481956
 40
12.481956
 10
16.212898
 20
387.032268
 30
0.0
 10
15.889959
 20
386.707261
 30
0.0
 10
15.251460
 20
386.064674
 30
0.0
 10
14.945388
 20
384.691106
 30
0.0
 10
15.229522
 20
383.341527
 30
0.0
 10
16.086814
 20
382.247052
 30
0.0
 10
17.329280
 20
381.636032
 30
0.0
 10
18.717058
 20
381.624270
 30
0.0
 10
19.969110
 20
382.223146
 30
0.0
 10
20.835924
 20
383.301695
 30
0.0
 10
21.053839
 20
384.251509
 30
0.0
 10
21.041100
 20
384.793898
 30
0.0
 10
21.031855
 20
384.932225
 30
0.0
 10
21.020320
 20
385.023871
 30
0.0
 10
21.014552
 20
385.069700
 30
0.0
 11
16.212898
 21
387.032268
 31
0.0
 11
15.355419
 21
385.988279
 31
0.0
 11
15.043475
 21
384.705539
 31
0.0
 11
15.325781
 21
383.384371
 31
0.0
 11
16.158829
 21
382.320785
 31
0.0
 11
17.343315
 21
381.737928
 31
0.0
 11
18.694263
 21
381.726824
 31
0.0
 11
19.913273
 21
382.309232
 31
0.0
 11
20.739266
 21
383.339020
 31
0.0
 11
21.043252
 21
384.655370
 31
0.0
 11
21.040101
 21
384.793888
 31
0.0
 11
21.030513
 21
384.932071
 31
0.0
 11
21.014552
 21
385.069700
 31
0.0
  0
SPLINE
  5
11f
100
AcDbEntity
  8
0
 62
1
100
AcDbSpline
 70
0
 71
3
 72
16
 73
12
 74
10
 40
0.000000
 40
0.000000
 40
0.000000
 40
0.000000
 40
1.419619
 40
2.803821
 40
4.223441
 40
5.643060
 40
7.027262
 40
8.446881
 40
9.866500
 40
11.250703
 40
12.670322
 40
12.670322
 40
12.670322
 40
12.670322
 10
-21.647491
 20
453.641075
 30
0.0
 10
-22.104263
 20
453.795989
 30
0.0
 10
-23.006411
 20
454.101954
 30
0.0
 10
-24.439788
 20
453.714776
 30
0.0
 10
-25.538567
 20
452.764337
 30
0.0
 10
-26.078684
 20
451.402084
 30
0.0
 10
-25.941338
 20
449.950471
 30
0.0
 10
-25.155310
 20
448.713694
 30
0.0
 10
-23.897771
 20
447.986201
 30
0.0
 10
-22.417213
 20
447.874730
 30
0.0
 10
-21.588459
 20
448.344465
 30
0.0
 10
-21.168848
 20
448.582300
 30
0.0
 11
-21.647491
 21
453.641075
 31
0.0
 11
-23.030478
 21
453.961490
 31
0.0
 11
-24.373629
 21
453.626886
 31
0.0
 11
-25.444676
 21
452.695126
 31
0.0
 11
-25.967918
 21
451.375453
 31
0.0
 11
-25.837532
 21
449.997405
 31
0.0
 11
-25.076066
 21
448.799287
 31
0.0
 11
-23.849270
 21
448.084940
 31
0.0
 11
-22.467198
 21
448.008187
 31
0.0
 11
-21.168848
 21
448.582300
 31
0.0
  0
SPLINE
  5
120
100
AcDbEntity
  8
0
 62
1
100
AcDbSpline
 70
0
 71
3
 72
10
 73
6
 74
4
 40
0.000000
 40
0.000000
 40
0.000000
 40
0.000000
 40
10.619769
 40
22.152894
 40
34.721221
 40
34.721221
 40
34.721221
 40
34.721221
 10
-11.765421
 20
415.285308
 30
0.0
 10
-13.176512
 20
418.535449
 30
0.0
 10
-16.120055
 20
425.315260
 30
0.0
 10
-19.187094
 20
436.518421
 30
0.0
 10
-20.489594
 20
444.447516
 30
0.0
 10
-21.168817
 20
448.582348
 30
0.0
 11
-11.765421
 21
415.285308
 31
0.0
 11
-15.771939
 21
425.120312
 31
0.0
 11
-18.906404
 21
436.219325
 31
0.0
 11
-21.168817
 21
448.582348
 31
0.0
  0
SPLINE
  5
121
100
AcDbEntity
  8
0
 62
1
100
AcDbSpline
 70
0
 71
3
 72
10
 73
6
 74
4
 40
0.000000
 40
0.000000
 40
0.000000
 40
0.000000
 40
11.544006
 40
23.170660
 40
35.433527
 40
35.433527
 40
35.433527
 40
35.433527
 10
16.212898
 20
387.032268
 30
0.0
 10
12.786283
 20
388.810513
 30
0.0
 10
5.908522
 20
392.379735
 30
0.0
 10
-2.840737
 20
400.581051
 30
0.0
 10
-7.158520
 20
407.291575
 30
0.0
 10
-9.374906
 20
410.736193
 30
0.0
 11
16.212898
 21
387.032268
 31
0.0
 11
6.220109
 21
392.812254
 31
0.0
 11
-2.309159
 21
400.713563
 31
0.0
 11
-9.374906
 21
410.736193
 31
0.0
  0
LWPOLYLINE
  5
122
100
AcDbEntity
  8
0
 62
1
100
AcDbPolyline
 90
2
 70
0
 10
-21.647491
 20
453.641075
 30
0.0
 10
-22.813948
 20
475.372753
 30
0.0
  0
SPLINE
  5
123
100
AcDbEntity
  8
0
 62
1
100
AcDbSpline
 70
0
 71
3
 72
16
 73
12
 74
10
 40
0.000000
 40
0.000000
 40
0.000000
 40
0.000000
 40
1.407466
 40
2.780347
 40
4.187813
 40
5.595280
 40
6.968160
 40
8.375627
 40
9.783093
 40
11.155974
 40
12.563440
 40
12.563440
 40
12.563440
 40
12.563440
 10
-11.765421
 20
415.285308
 30
0.0
 10
-12.241947
 20
415.247303
 30
0.0
 10
-13.183289
 20
415.172227
 30
0.0
 10
-14.340395
 20
414.264024
 30
0.0
 10
-14.979598
 20
412.973980
 30
0.0
 10
-14.956269
 20
411.522087
 30
0.0
 10
-14.284133
 20
410.243002
 30
0.0
 10
-13.101654
 20
409.400222
 30
0.0
 10
-11.676652
 20
409.194879
 30
0.0
 10
-10.272343
 20
409.632652
 30
0.0
 10
-9.676550
 20
410.365313
 30
0.0
 10
-9.374948
 20
410.736200
 30
0.0
 11
-11.765421
 21
415.285308
 31
0.0
 11
-13.150634
 21
415.036016
 31
0.0
 11
-14.247003
 21
414.209714
 31
0.0
 11
-14.868264
 21
412.946782
 31
0.0
 11
-14.845692
 21
411.539497
 31
0.0
 11
-14.207072
 21
410.324192
 31
0.0
 11
-13.060899
 21
409.507339
 31
0.0
 11
-11.668404
 21
409.302599
 31
0.0
 11
-10.365997
 21
409.736809
 31
0.0
 11
-9.374948
 21
410.736200
 31
0.0
  0
SPLINE
  5
124
100
AcDbEntity
  8
0
 62
1
100
AcDbSpline
 70
0
 71
3
 72
13
 73
9
 74
7
 40
0.000000
 40
0.000000
 40
0.000000
 40
0.000000
 40
0.522362
 40
1.029260
 40
1.551623
 40
2.073985
 40
2.580883
 40
3.103245
 40
3.103245
 40
3.103245
 40
3.103245
 10
-20.424448
 20
483.850710
 30
0.0
 10
-20.248384
 20
483.878461
 30
0.0
 10
-19.901469
 20
483.933142
 30
0.0
 10
-19.519828
 20
484.330869
 30
0.0
 10
-19.378432
 20
484.850855
 30
0.0
 10
-19.519828
 20
485.370841
 30
0.0
 10
-19.901469
 20
485.768568
 30
0.0
 10
-20.248384
 20
485.823249
 30
0.0
 10
-20.424448
 20
485.851000
 30
0.0
 11
-20.424448
 21
483.850710
 31
0.0
 11
-19.920405
 21
483.987834
 31
0.0
 11
-19.562284
 21
484.346575
 31
0.0
 11
-19.426034
 21
484.850855
 31
0.0
 11
-19.562284
 21
485.355135
 31
0.0
 11
-19.920405
 21
485.713876
 31
0.0
 11
-20.424448
 21
485.851000
 31
0.0
  0
LWPOLYLINE
  5
125
100
AcDbEntity
  8
0
 62
1
100
AcDbPolyline
 90
2
 70
0
 10
-26.424448
 20
485.850710
 30
0.0
 10
-20.424448
 20
485.850710
 30
0.0
  0
LWPOLYLINE
  5
126
100
AcDbEntity
  8
0
 62
1
100
AcDbPolyline
 90
2
 70
0
 10
-26.424448
 20
483.850710
 30
0.0
 10
-20.424448
 20
483.850710
 30
0.0
  0
SPLINE
  5
127
100
AcDbEntity
  8
0
 62
1
100
AcDbSpline
 70
0
 71
3
 72
16
 73
12
 74
10
 40
0.000000
 40
0.000000
 40
0.000000
 40
0.000000
 40
0.352743
 40
0.700335
 40
1.053078
 40
1.405820
 40
1.753412
 40
2.106155
 40
2.458898
 40
2.806490
 40
3.159233
 40
3.159233
 40
3.159233
 40
3.159233
 10
-26.424448
 20
485.850710
 30
0.0
 10
-26.542833
 20
485.840511
 30
0.0
 10
-26.777873
 20
485.820263
 30
0.0
 10
-27.090228
 20
485.637600
 30
0.0
 10
-27.322921
 20
485.366869
 30
0.0
 10
-27.446523
 20
485.029825
 30
0.0
 10
-27.446523
 20
484.671885
 30
0.0
 10
-27.322921
 20
484.334841
 30
0.0
 10
-27.090228
 20
484.064110
 30
0.0
 10
-26.777873
 20
483.881447
 30
0.0
 10
-26.542833
 20
483.861199
 30
0.0
 10
-26.424448
 20
483.851000
 30
0.0
 11
-26.424448
 21
485.850710
 31
0.0
 11
-26.772673
 21
485.794433
 31
0.0
 11
-27.075650
 21
485.624066
 31
0.0
 11
-27.304650
 21
485.355763
 31
0.0
 11
-27.426274
 21
485.024651
 31
0.0
 11
-27.426274
 21
484.677059
 31
0.0
 11
-27.304650
 21
484.345947
 31
0.0
 11
-27.075650
 21
484.077644
 31
0.0
 11
-26.772673
 21
483.907277
 31
0.0
 11
-26.424448
 21
483.851000
 31
0.0
  0
SPLINE
  5
128
100
AcDbEntity
  8
0
 62
1
100
AcDbSpline
 70
0
 71
3
 72
13
 73
9
 74
7
 40
0.000000
 40
0.000000
 40
0.000000
 40
0.000000
 40
0.522362
 40
1.029260
 40
1.551623
 40
2.073985
 40
2.580883
 40
3.103245
 40
3.103245
 40
3.103245
 40
3.103245
 10
-20.424448
 20
489.850710
 30
0.0
 10
-20.248384
 20
489.878461
 30
0.0
 10
-19.901469
 20
489.933142
 30
0.0
 10
-19.519828
 20
490.330869
 30
0.0
 10
-19.378432
 20
490.850855
 30
0.0
 10
-19.519828
 20
491.370841
 30
0.0
 10
-19.901469
 20
491.768568
 30
0.0
 10
-20.248384
 20
491.823249
 30
0.0
 10
-20.424448
 20
491.851000
 30
0.0
 11
-20.424448
 21
489.850710
 31
0.0
 11
-19.920405
 21
489.987834
 31
0.0
 11
-19.562284
 21
490.346575
 31
0.0
 11
-19.426034
 21
490.850855
 31
0.0
 11
-19.562284
 21
491.355135
 31
0.0
 11
-19.920405
 21
491.713876
 31
0.0
 11
-20.424448
 21
491.851000
 31
0.0
  0
LWPOLYLINE
  5
129
100
AcDbEntity
  8
0
 62
1
100
AcDbPolyline
 90
2
 70
0
 10
-26.424448
 20
491.850710
 30
0.0
 10
-20.424448
 20
491.850710
 30
0.0
  0
LWPOLYLINE
  5
12a
100
AcDbEntity
  8
0
 62
1
100
AcDbPolyline
 90
2
 70
0
 10
-26.424448
 20
489.850710
 30
0.0
 10
-20.424448
 20
489.850710
 30
0.0
  0
SPLINE
  5
12b
100
AcDbEntity
  8
0
 62
1
100
AcDbSpline
 70
0
 71
3
 72
13
 73
9
 74
7
 40
0.000000
 40
0.000000
 40
0.000000
 40
0.000000
 40
0.517221
 40
1.019382
 40
1.536603
 40
2.053823
 40
2.555984
 40
3.073205
 40
3.073205
 40
3.073205
 40
3.073205
 10
-26.424448
 20
491.850710
 30
0.0
 10
-26.598306
 20
491.820855
 30
0.0
 10
-26.940959
 20
491.762015
 30
0.0
 10
-27.315453
 20
491.365728
 30
0.0
 10
-27.454082
 20
490.850855
 30
0.0
 10
-27.315453
 20
490.335982
 30
0.0
 10
-26.940959
 20
489.939695
 30
0.0
 10
-26.598306
 20
489.880855
 30
0.0
 10
-26.424448
 20
489.851000
 30
0.0
 11
-26.424448
 21
491.850710
 31
0.0
 11
-26.921767
 21
491.708613
 31
0.0
 11
-27.273812
 21
491.350521
 31
0.0
 11
-27.407419
 21
490.850855
 31
0.0
 11
-27.273812
 21
490.351189
 31
0.0
 11
-26.921767
 21
489.993097
 31
0.0
 11
-26.424448
 21
489.851000
 31
0.0
  0
SPLINE
  5
12c
100
AcDbEntity
  8
0
 62
1
100
AcDbSpline
 70
0
 71
3
 72
13
 73
9
 74
7
 40
0.000000
 40
0.000000
 40
0.000000
 40
0.000000
 40
0.522362
 40
1.029260
 40
1.551623
 40
2.073985
 40
2.580883
 40
3.103245
 40
3.103245
 40
3.103245
 40
3.103245
 10
135.610552
 20
483.850710
 30
0.0
 10
135.434488
 20
483.878461
 30
0.0
 10
135.087573
 20
483.933142
 30
0.0
 10
134.705932
 20
484.330869
 30
0.0
 10
134.564536
 20
484.850855
 30
0.0
 10
134.705932
 20
485.370841
 30
0.0
 10
135.087573
 20
485.768568
 30
0.0
 10
135.434488
 20
485.823249
 30
0.0
 10
135.610552
 20
485.851000
 30
0.0
 11
135.610552
 21
483.850710
 31
0.0
 11
135.106509
 21
483.987834
 31
0.0
 11
134.748388
 21
484.346575
 31
0.0
 11
134.612138
 21
484.850855
 31
0.0
 11
134.748388
 21
485.355135
 31
0.0
 11
135.106509
 21
485.713876
 31
0.0
 11
135.610552
 21
485.851000
 31
0.0
  0
LWPOLYLINE
  5
12d
100
AcDbEntity
  8
0
 62
1
100
AcDbPolyline
 90
2
 70
0
 10
141.610552
 20
485.850710
 30
0.0
 10
135.610552
 20
485.850710
 30
0.0
  0
LWPOLYLINE
  5
12e
100
AcDbEntity
  8
0
 62
1
100
AcDbPolyline
 90
2
 70
0
 10
141.610552
 20
483.850710
 30
0.0
 10
135.610552
 20
483.850710
 30
0.0
  0
SPLINE
  5
12f
100
AcDbEntity
  8
0
 62
1
100
AcDbSpline
 70
0
 71
3
 72
16
 73
12
 74
10
 40
0.000000
 40
0.000000
 40
0.000000
 40
0.000000
 40
0.352743
 40
0.700335
 40
1.053078
 40
1.405820
 40
1.753412
 40
2.106155
 40
2.458898
 40
2.806490
 40
3.159233
 40
3.159233
 40
3.159233
 40
3.159233
 10
141.610552
 20
485.850710
 30
0.0
 10
141.728937
 20
485.840511
 30
0.0
 10
141.963977
 20
485.820263
 30
0.0
 10
142.276332
 20
485.637600
 30
0.0
 10
142.509025
 20
485.366869
 30
0.0
 10
142.632627
 20
485.029825
 30
0.0
 10
142.632627
 20
484.671885
 30
0.0
 10
142.509025
 20
484.334841
 30
0.0
 10
142.276332
 20
484.064110
 30
0.0
 10
141.963977
 20
483.881447
 30
0.0
 10
141.728937
 20
483.861199
 30
0.0
 10
141.610552
 20
483.851000
 30
0.0
 11
141.610552
 21
485.850710
 31
0.0
 11
141.958777
 21
485.794433
 31
0.0
 11
142.261754
 21
485.624066
 31
0.0
 11
142.490754
 21
485.355763
 31
0.0
 11
142.612378
 21
485.024651
 31
0.0
 11
142.612378
 21
484.677059
 31
0.0
 11
142.490754
 21
484.345947
 31
0.0
 11
142.261754
 21
484.077644
 31
0.0
 11
141.958777
 21
483.907277
 31
0.0
 11
141.610552
 21
483.851000
 31
0.0
  0
SPLINE
  5
130
100
AcDbEntity
  8
0
 62
1
100
AcDbSpline
 70
0
 71
3
 72
13
 73
9
 74
7
 40
0.000000
 40
0.000000
 40
0.000000
 40
0.000000
 40
0.522362
 40
1.029260
 40
1.551623
 40
2.073985
 40
2.580883
 40
3.103245
 40
3.103245
 40
3.103245
 40
3.103245
 10
135.610552
 20
489.850710
 30
0.0
 10
135.434488
 20
489.878461
 30
0.0
 10
135.087573
 20
489.933142
 30
0.0
 10
134.705932
 20
490.330869
 30
0.0
 10
134.564536
 20
490.850855
 30
0.0
 10
134.705932
 20
491.370841
 30
0.0
 10
135.087573
 20
491.768568
 30
0.0
 10
135.434488
 20
491.823249
 30
0.0
 10
135.610552
 20
491.851000
 30
0.0
 11
135.610552
 21
489.850710
 31
0.0
 11
135.106509
 21
489.987834
 31
0.0
 11
134.748388
 21
490.346575
 31
0.0
 11
134.612138
 21
490.850855
 31
0.0
 11
134.748388
 21
491.355135
 31
0.0
 11
135.106509
 21
491.713876
 31
0.0
 11
135.610552
 21
491.851000
 31
0.0
  0
LWPOLYLINE
  5
131
100
AcDbEntity
  8
0
 62
1
100
AcDbPolyline
 90
2
 70
0
 10
141.610552
 20
491.850710
 30
0.0
 10
135.610552
 20
491.850710
 30
0.0
  0
SPLINE
  5
132
100
AcDbEntity
  8
0
 62
1
100
AcDbSpline
 70
0
 71
3
 72
13
 73
9
 74
7
 40
0.000000
 40
0.000000
 40
0.000000
 40
0.000000
 40
0.517221
 40
1.019382
 40
1.536603
 40
2.053823
 40
2.555984
 40
3.073205
 40
3.073205
 40
3.073205
 40
3.073205
 10
141.610552
 20
491.850710
 30
0.0
 10
141.784410
 20
491.820855
 30
0.0
 10
142.127063
 20
491.762015
 30
0.0
 10
142.501557
 20
491.365728
 30
0.0
 10
142.640186
 20
490.850855
 30
0.0
 10
142.501557
 20
490.335982
 30
0.0
 10
142.127063
 20
489.939695
 30
0.0
 10
141.784410
 20
489.880855
 30
0.0
 10
141.610552
 20
489.851000
 30
0.0
 11
141.610552
 21
491.850710
 31
0.0
 11
142.107871
 21
491.708613
 31
0.0
 11
142.459916
 21
491.350521
 31
0.0
 11
142.593523
 21
490.850855
 31
0.0
 11
142.459916
 21
490.351189
 31
0.0
 11
142.107871
 21
489.993097
 31
0.0
 11
141.610552
 21
489.851000
 31
0.0
  0
LWPOLYLINE
  5
133
100
AcDbEntity
  8
0
 62
1
100
AcDbPolyline
 90
2
 70
0
 10
141.610552
 20
489.850710
 30
0.0
 10
135.610552
 20
489.850710
 30
0.0
  0
SPLINE
  5
134
100
AcDbEntity
  8
0
 62
1
100
AcDbSpline
 70
0
 71
3
 72
25
 73
21
 74
19
 40
0.000000
 40
0.000000
 40
0.000000
 40
0.000000
 40
0.981294
 40
1.945113
 40
2.926406
 40
3.907700
 40
4.871519
 40
5.852813
 40
6.834107
 40
7.797926
 40
8.779219
 40
9.760513
 40
10.724332
 40
11.705626
 40
12.360063
 40
13.009085
 40
13.663522
 40
14.317959
 40
14.966981
 40
15.621418
 40
15.621418
 40
15.621418
 40
15.621418
 10
30.593052
 20
394.511000
 30
0.0
 10
30.263842
 20
394.548988
 30
0.0
 10
29.611285
 20
394.624287
 30
0.0
 10
28.779698
 20
395.201918
 30
0.0
 10
28.222492
 20
396.027815
 30
0.0
 10
28.028286
 20
397.011629
 30
0.0
 10
28.223404
 20
397.992130
 30
0.0
 10
28.778704
 20
398.825372
 30
0.0
 10
29.611833
 20
399.380644
 30
0.0
 10
30.592754
 20
399.575762
 30
0.0
 10
31.574977
 20
399.381583
 30
0.0
 10
32.406798
 20
398.824269
 30
0.0
 10
32.962572
 20
397.993083
 30
0.0
 10
33.136662
 20
397.119623
 30
0.0
 10
33.035461
 20
396.356603
 30
0.0
 10
32.782964
 20
395.746820
 30
0.0
 10
32.381237
 20
395.222265
 30
0.0
 10
31.857342
 20
394.823169
 30
0.0
 10
31.247554
 20
394.560860
 30
0.0
 10
30.811823
 20
394.527666
 30
0.0
 10
30.593052
 20
394.511000
 30
0.0
 11
30.593052
 21
394.511000
 31
0.0
 11
29.630828
 21
394.703516
 31
0.0
 11
28.829442
 21
395.238985
 31
0.0
 11
28.283353
 21
396.054291
 31
0.0
 11
28.092987
 21
397.016943
 31
0.0
 11
28.281019
 21
397.962243
 31
0.0
 11
28.825285
 21
398.778767
 31
0.0
 11
29.641809
 21
399.323033
 31
0.0
 11
30.587109
 21
399.511065
 31
0.0
 11
31.549761
 21
399.320699
 31
0.0
 11
32.365067
 21
398.774610
 31
0.0
 11
32.900536
 21
397.973224
 31
0.0
 11
33.093052
 21
397.011000
 31
0.0
 11
33.007401
 21
396.362192
 31
0.0
 11
32.759031
 21
395.762574
 31
0.0
 11
32.360819
 21
395.243233
 31
0.0
 11
31.841478
 21
394.845021
 31
0.0
 11
31.241860
 21
394.596651
 31
0.0
 11
30.593052
 21
394.511000
 31
0.0
  0
LWPOLYLINE
  5
135
100
AcDbEntity
  8
0
 62
1
100
AcDbPolyline
 90
1
 70
1
 10
30.593052
 20
394.511000
 30
0.0
  0
SPLINE
  5
136
100
AcDbEntity
  8
0
 62
1
100
AcDbSpline
 70
0
 71
3
 72
25
 73
21
 74
19
 40
0.000000
 40
0.000000
 40
0.000000
 40
0.000000
 40
0.981294
 40
1.945113
 40
2.926406
 40
3.907700
 40
4.871519
 40
5.852813
 40
6.834107
 40
7.797926
 40
8.779219
 40
9.760513
 40
10.724332
 40
11.705626
 40
12.360063
 40
13.009085
 40
13.663522
 40
14.317959
 40
14.966981
 40
15.621418
 40
15.621418
 40
15.621418
 40
15.621418
 10
3.593052
 20
409.511000
 30
0.0
 10
3.263842
 20
409.548988
 30
0.0
 10
2.611285
 20
409.624287
 30
0.0
 10
1.779698
 20
410.201918
 30
0.0
 10
1.222492
 20
411.027815
 30
0.0
 10
1.028286
 20
412.011629
 30
0.0
 10
1.223404
 20
412.992130
 30
0.0
 10
1.778704
 20
413.825372
 30
0.0
 10
2.611833
 20
414.380644
 30
0.0
 10
3.592754
 20
414.575762
 30
0.0
 10
4.574977
 20
414.381583
 30
0.0
 10
5.406798
 20
413.824269
 30
0.0
 10
5.962572
 20
412.993083
 30
0.0
 10
6.136662
 20
412.119623
 30
0.0
 10
6.035461
 20
411.356603
 30
0.0
 10
5.782964
 20
410.746820
 30
0.0
 10
5.381237
 20
410.222265
 30
0.0
 10
4.857342
 20
409.823169
 30
0.0
 10
4.247554
 20
409.560860
 30
0.0
 10
3.811823
 20
409.527666
 30
0.0
 10
3.593052
 20
409.511000
 30
0.0
 11
3.593052
 21
409.511000
 31
0.0
 11
2.630828
 21
409.703516
 31
0.0
 11
1.829442
 21
410.238985
 31
0.0
 11
1.283353
 21
411.054291
 31
0.0
 11
1.092987
 21
412.016943
 31
0.0
 11
1.281019
 21
412.962243
 31
0.0
 11
1.825285
 21
413.778767
 31
0.0
 11
2.641809
 21
414.323033
 31
0.0
 11
3.587109
 21
414.511065
 31
0.0
 11
4.549761
 21
414.320699
 31
0.0
 11
5.365067
 21
413.774610
 31
0.0
 11
5.900536
 21
412.973224
 31
0.0
 11
6.093052
 21
412.011000
 31
0.0
 11
6.007401
 21
411.362192
 31
0.0
 11
5.759031
 21
410.762574
 31
0.0
 11
5.360819
 21
410.243233
 31
0.0
 11
4.841478
 21
409.845021
 31
0.0
 11
4.241860
 21
409.596651
 31
0.0
 11
3.593052
 21
409.511000
 31
0.0
  0
LWPOLYLINE
  5
137
100
AcDbEntity
  8
0
 62
1
100
AcDbPolyline
 90
1
 70
1
 10
3.593052
 20
409.511000
 30
0.0
  0
SPLINE
  5
138
100
AcDbEntity
  8
0
 62
1
100
AcDbSpline
 70
0
 71
3
 72
25
 73
21
 74
19
 40
0.000000
 40
0.000000
 40
0.000000
 40
0.000000
 40
0.981294
 40
1.945113
 40
2.926406
 40
3.907700
 40
4.871519
 40
5.852813
 40
6.834107
 40
7.797926
 40
8.779219
 40
9.760513
 40
10.724332
 40
11.705626
 40
12.360063
 40
13.009085
 40
13.663522
 40
14.317959
 40
14.966981
 40
15.621418
 40
15.621418
 40
15.621418
 40
15.621418
 10
84.593052
 20
394.511000
 30
0.0
 10
84.263842
 20
394.548988
 30
0.0
 10
83.611285
 20
394.624287
 30
0.0
 10
82.779698
 20
395.201918
 30
0.0
 10
82.222492
 20
396.027815
 30
0.0
 10
82.028286
 20
397.011629
 30
0.0
 10
82.223404
 20
397.992130
 30
0.0
 10
82.778704
 20
398.825372
 30
0.0
 10
83.611833
 20
399.380644
 30
0.0
 10
84.592754
 20
399.575762
 30
0.0
 10
85.574977
 20
399.381583
 30
0.0
 10
86.406798
 20
398.824269
 30
0.0
 10
86.962572
 20
397.993083
 30
0.0
 10
87.136662
 20
397.119623
 30
0.0
 10
87.035461
 20
396.356603
 30
0.0
 10
86.782964
 20
395.746820
 30
0.0
 10
86.381237
 20
395.222265
 30
0.0
 10
85.857342
 20
394.823169
 30
0.0
 10
85.247554
 20
394.560860
 30
0.0
 10
84.811823
 20
394.527666
 30
0.0
 10
84.593052
 20
394.511000
 30
0.0
 11
84.593052
 21
394.511000
 31
0.0
 11
83.630828
 21
394.703516
 31
0.0
 11
82.829442
 21
395.238985
 31
0.0
 11
82.283353
 21
396.054291
 31
0.0
 11
82.092987
 21
397.016943
 31
0.0
 11
82.281019
 21
397.962243
 31
0.0
 11
82.825285
 21
398.778767
 31
0.0
 11
83.641809
 21
399.323033
 31
0.0
 11
84.587109
 21
399.511065
 31
0.0
 11
85.549761
 21
399.320699
 31
0.0
 11
86.365067
 21
398.774610
 31
0.0
 11
86.900536
 21
397.973224
 31
0.0
 11
87.093052
 21
397.011000
 31
0.0
 11
87.007401
 21
396.362192
 31
0.0
 11
86.759031
 21
395.762574
 31
0.0
 11
86.360819
 21
395.243233
 31
0.0
 11
85.841478
 21
394.845021
 31
0.0
 11
85.241860
 21
394.596651
 31
0.0
 11
84.593052
 21
394.511000
 31
0.0
  0
LWPOLYLINE
  5
139
100
AcDbEntity
  8
0
 62
1
100
AcDbPolyline
 90
1
 70
1
 10
84.593052
 20
394.511000
 30
0.0
  0
LWPOLYLINE
  5
13a
100
AcDbEntity
  8
0
 62
1
100
AcDbPolyline
 90
1
 70
1
 10
111.593052
 20
409.511000
 30
0.0
  0
LWPOLYLINE
  5
13b
100
AcDbEntity
  8
0
 62
7
100
AcDbPolyline
 90
2
 70
0
 10
-22.813988
 20
475.372790
 30
0.0
 10
-22.813988
 20
480.372790
 30
0.0
  0
LWPOLYLINE
  5
13c
100
AcDbEntity
  8
0
 62
7
100
AcDbPolyline
 90
2
 70
0
 10
138.000012
 20
475.372790
 30
0.0
 10
138.000012
 20
480.372790
 30
0.0
  0
LWPOLYLINE
  5
13d
100
AcDbEntity
  8
0
 62
5
100
AcDbPolyline
 90
2
 70
0
 10
-62.068078
 20
341.080470
 30
0.0
 10
-22.299633
 20
341.080470
 30
0.0
  0
LWPOLYLINE
  5
13e
100
AcDbEntity
  8
0
 62
5
100
AcDbPolyline
 90
2
 70
0
 10
-62.247748
 20
354.309640
 30
0.0
 10
-62.247748
 20
332.664480
 30
0.0
  0
LWPOLYLINE
  5
13f
100
AcDbEntity
  8
0
 62
5
100
AcDbPolyline
 90
2
 70
0
 10
17.700437
 20
341.080470
 30
0.0
 10
97.700442
 20
341.080470
 30
0.0
  0
LWPOLYLINE
  5
140
100
AcDbEntity
  8
0
 62
5
100
AcDbPolyline
 90
2
 70
0
 10
17.752257
 20
354.309640
 30
0.0
 10
17.752257
 20
332.664480
 30
0.0
  0
SPLINE
  5
141
100
AcDbEntity
  8
0
 62
1
100
AcDbSpline
 70
0
 71
3
 72
25
 73
21
 74
19
 40
0.000000
 40
0.000000
 40
0.000000
 40
0.000000
 40
0.981294
 40
1.945113
 40
2.926406
 40
3.907700
 40
4.871519
 40
5.852813
 40
6.834107
 40
7.797926
 40
8.779219
 40
9.760513
 40
10.724332
 40
11.705626
 40
12.360063
 40
13.009085
 40
13.663522
 40
14.317959
 40
14.966981
 40
15.621418
 40
15.621418
 40
15.621418
 40
15.621418
 10
111.593052
 20
409.511000
 30
0.0
 10
111.263842
 20
409.548988
 30
0.0
 10
110.611285
 20
409.624287
 30
0.0
 10
109.779698
 20
410.201918
 30
0.0
 10
109.222492
 20
411.027815
 30
0.0
 10
109.028286
 20
412.011629
 30
0.0
 10
109.223404
 20
412.992130
 30
0.0
 10
109.778704
 20
413.825372
 30
0.0
 10
110.611833
 20
414.380644
 30
0.0
 10
111.592754
 20
414.575762
 30
0.0
 10
112.574977
 20
414.381583
 30
0.0
 10
113.406798
 20
413.824269
 30
0.0
 10
113.962572
 20
412.993083
 30
0.0
 10
114.136662
 20
412.119623
 30
0.0
 10
114.035461
 20
411.356603
 30
0.0
 10
113.782964
 20
410.746820
 30
0.0
 10
113.381237
 20
410.222265
 30
0.0
 10
112.857342
 20
409.823169
 30
0.0
 10
112.247554
 20
409.560860
 30
0.0
 10
111.811823
 20
409.527666
 30
0.0
 10
111.593052
 20
409.511000
 30
0.0
 11
111.593052
 21
409.511000
 31
0.0
 11
110.630828
 21
409.703516
 31
0.0
 11
109.829442
 21
410.238985
 31
0.0
 11
109.283353
 21
411.054291
 31
0.0
 11
109.092987
 21
412.016943
 31
0.0
 11
109.281019
 21
412.962243
 31
0.0
 11
109.825285
 21
413.778767
 31
0.0
 11
110.641809
 21
414.323033
 31
0.0
 11
111.587109
 21
414.511065
 31
0.0
 11
112.549761
 21
414.320699
 31
0.0
 11
113.365067
 21
413.774610
 31
0.0
 11
113.900536
 21
412.973224
 31
0.0
 11
114.093052
 21
412.011000
 31
0.0
 11
114.007401
 21
411.362192
 31
0.0
 11
113.759031
 21
410.762574
 31
0.0
 11
113.360819
 21
410.243233
 31
0.0
 11
112.841478
 21
409.845021
 31
0.0
 11
112.241860
 21
409.596651
 31
0.0
 11
111.593052
 21
409.511000
 31
0.0
  0
LWPOLYLINE
  5
142
100
AcDbEntity
  8
0
 62
5
100
AcDbPolyline
 90
2
 70
0
 10
97.752263
 20
354.309640
 30
0.0
 10
97.752263
 20
332.664480
 30
0.0
  0
SPLINE
  5
143
100
AcDbEntity
  8
0
 62
5
100
AcDbSpline
 70
0
 71
3
 72
31
 73
27
 74
25
 40
0.000000
 40
0.000000
 40
0.000000
 40
0.000000
 40
0.247029
 40
0.467243
 40
0.675101
 40
0.877885
 40
1.086710
 40
1.318360
 40
1.550011
 40
1.758835
 40
1.961619
 40
2.169477
 40
2.389691
 40
2.636720
 40
2.883754
 40
3.103968
 40
3.311822
 40
3.516518
 40
3.725676
 40
3.956142
 40
4.187826
 40
4.396984
 40
4.600722
 40
4.807570
 40
5.027784
 40
5.276034
 40
5.276034
 40
5.276034
 40
5.276034
 10
47.613262
 20
346.661862
 30
0.0
 10
47.530698
 20
346.657999
 30
0.0
 10
47.374531
 20
346.650692
 30
0.0
 10
47.158155
 20
346.578154
 30
0.0
 10
46.981704
 20
346.458673
 30
0.0
 10
46.851694
 20
346.293844
 30
0.0
 10
46.775380
 20
346.090188
 30
0.0
 10
46.754402
 20
345.865354
 30
0.0
 10
46.775380
 20
345.640532
 30
0.0
 10
46.851693
 20
345.436841
 30
0.0
 10
46.981705
 20
345.272135
 30
0.0
 10
47.158155
 20
345.152177
 30
0.0
 10
47.374531
 20
345.081615
 30
0.0
 10
47.613266
 20
345.062099
 30
0.0
 10
47.851986
 20
345.081624
 30
0.0
 10
48.068403
 20
345.152142
 30
0.0
 10
48.245249
 20
345.272616
 30
0.0
 10
48.376024
 20
345.437593
 30
0.0
 10
48.453611
 20
345.641178
 30
0.0
 10
48.475006
 20
345.865775
 30
0.0
 10
48.453674
 20
346.090306
 30
0.0
 10
48.376421
 20
346.294258
 30
0.0
 10
48.244876
 20
346.457777
 30
0.0
 10
48.069528
 20
346.578589
 30
0.0
 10
47.852751
 20
346.650727
 30
0.0
 10
47.696214
 20
346.658005
 30
0.0
 10
47.613262
 20
346.661862
 30
0.0
 11
47.613262
 21
346.661862
 31
0.0
 11
47.367361
 21
346.638282
 31
0.0
 11
47.158818
 21
346.567543
 31
0.0
 11
46.987632
 21
346.449644
 31
0.0
 11
46.862076
 21
346.290404
 31
0.0
 11
46.786743
 21
346.095641
 31
0.0
 11
46.761632
 21
345.865356
 31
0.0
 11
46.786743
 21
345.635070
 31
0.0
 11
46.862076
 21
345.440308
 31
0.0
 11
46.987632
 21
345.281068
 31
0.0
 11
47.158818
 21
345.163169
 31
0.0
 11
47.367361
 21
345.092430
 31
0.0
 11
47.613262
 21
345.068850
 31
0.0
 11
47.859168
 21
345.092430
 31
0.0
 11
48.067711
 21
345.163169
 31
0.0
 11
48.238892
 21
345.281068
 31
0.0
 11
48.365981
 21
345.441533
 31
0.0
 11
48.442234
 21
345.636296
 31
0.0
 11
48.467652
 21
345.865356
 31
0.0
 11
48.442234
 21
346.095641
 31
0.0
 11
48.365981
 21
346.290404
 31
0.0
 11
48.238892
 21
346.449644
 31
0.0
 11
48.068933
 21
346.567543
 31
0.0
 11
47.860390
 21
346.638282
 31
0.0
 11
47.613262
 21
346.661862
 31
0.0
  0
SPLINE
  5
144
100
AcDbEntity
  8
0
 62
5
100
AcDbSpline
 70
0
 71
3
 72
31
 73
27
 74
25
 40
0.000000
 40
0.000000
 40
0.000000
 40
0.000000
 40
0.234166
 40
0.451276
 40
0.661788
 40
0.869016
 40
1.079059
 40
1.303387
 40
1.611774
 40
1.896745
 40
2.185942
 40
2.494220
 40
2.829655
 40
3.210104
 40
3.591776
 40
3.927215
 40
4.234448
 40
4.523641
 40
4.808611
 40
5.116997
 40
5.341356
 40
5.551690
 40
5.759735
 40
5.968927
 40
6.184462
 40
6.416891
 40
6.416891
 40
6.416891
 40
6.416891
 10
47.056532
 20
346.898884
 30
0.0
 10
46.981447
 20
346.921129
 30
0.0
 10
46.836747
 20
346.963999
 30
0.0
 10
46.645512
 20
347.078686
 30
0.0
 10
46.491024
 20
347.225943
 30
0.0
 10
46.378655
 20
347.405088
 30
0.0
 10
46.311495
 20
347.610338
 30
0.0
 10
46.289840
 20
347.858388
 30
0.0
 10
46.320719
 20
348.132515
 30
0.0
 10
46.441605
 20
348.406349
 30
0.0
 10
46.644552
 20
348.625960
 30
0.0
 10
46.915611
 20
348.786129
 30
0.0
 10
47.247092
 20
348.879978
 30
0.0
 10
47.613680
 20
348.906105
 30
0.0
 10
47.980215
 20
348.880012
 30
0.0
 10
48.311951
 20
348.786471
 30
0.0
 10
48.582127
 20
348.625544
 30
0.0
 10
48.784954
 20
348.406388
 30
0.0
 10
48.905775
 20
348.132505
 30
0.0
 10
48.936772
 20
347.858371
 30
0.0
 10
48.914802
 20
347.610244
 30
0.0
 10
48.846791
 20
347.404697
 30
0.0
 10
48.732581
 20
347.226998
 30
0.0
 10
48.580410
 20
347.078612
 30
0.0
 10
48.390733
 20
346.964041
 30
0.0
 10
48.247216
 20
346.921142
 30
0.0
 10
48.172752
 20
346.898884
 30
0.0
 11
47.056532
 21
346.898884
 31
0.0
 11
46.835128
 21
346.975134
 31
0.0
 11
46.648634
 21
347.086296
 31
0.0
 11
46.497052
 21
347.232370
 31
0.0
 11
46.386808
 21
347.407840
 31
0.0
 11
46.320661
 21
347.607196
 31
0.0
 11
46.298612
 21
347.830438
 31
0.0
 11
46.337504
 21
348.136363
 31
0.0
 11
46.454181
 21
348.396353
 31
0.0
 11
46.648642
 21
348.610408
 31
0.0
 11
46.912609
 21
348.769648
 31
0.0
 11
47.234149
 21
348.865192
 31
0.0
 11
47.613262
 21
348.897040
 31
0.0
 11
47.993603
 21
348.865192
 31
0.0
 11
48.315146
 21
348.769648
 31
0.0
 11
48.577892
 21
348.610408
 31
0.0
 11
48.772348
 21
348.396353
 31
0.0
 11
48.889021
 21
348.136363
 31
0.0
 11
48.927912
 21
347.830438
 31
0.0
 11
48.905558
 21
347.607196
 31
0.0
 11
48.838494
 21
347.407840
 31
0.0
 11
48.726722
 21
347.232370
 31
0.0
 11
48.576974
 21
347.086298
 31
0.0
 11
48.392318
 21
346.975136
 31
0.0
 11
48.172752
 21
346.898884
 31
0.0
  0
LWPOLYLINE
  5
145
100
AcDbEntity
  8
0
 62
5
100
AcDbPolyline
 90
1
 70
1
 10
47.613262
 20
346.661862
 30
0.0
  0
SPLINE
  5
146
100
AcDbEntity
  8
0
 62
5
100
AcDbSpline
 70
0
 71
3
 72
31
 73
27
 74
25
 40
0.000000
 40
0.000000
 40
0.000000
 40
0.000000
 40
0.261656
 40
0.503358
 40
0.737268
 40
0.969506
 40
1.204244
 40
1.454778
 40
1.824809
 40
2.154231
 40
2.472094
 40
2.801783
 40
3.165913
 40
3.586036
 40
4.006462
 40
4.371469
 40
4.702446
 40
5.019333
 40
5.348416
 40
5.718414
 40
5.968947
 40
6.203687
 40
6.435927
 40
6.670944
 40
6.913437
 40
7.175382
 40
7.175382
 40
7.175382
 40
7.175382
 10
48.172752
 20
346.898884
 30
0.0
 10
48.256935
 20
346.875035
 30
0.0
 10
48.418882
 20
346.829156
 30
0.0
 10
48.633318
 20
346.703249
 30
0.0
 10
48.804972
 20
346.538579
 30
0.0
 10
48.933161
 20
346.340513
 30
0.0
 10
49.009898
 20
346.111228
 30
0.0
 10
49.033983
 20
345.825498
 30
0.0
 10
49.002072
 20
345.507551
 30
0.0
 10
48.879224
 20
345.185848
 30
0.0
 10
48.665868
 20
344.932003
 30
0.0
 10
48.376015
 20
344.750232
 30
0.0
 10
48.015507
 20
344.646423
 30
0.0
 10
47.613177
 20
344.617947
 30
0.0
 10
47.210458
 20
344.646417
 30
0.0
 10
46.849393
 20
344.750536
 30
0.0
 10
46.558048
 20
344.931024
 30
0.0
 10
46.346121
 20
345.186272
 30
0.0
 10
46.224249
 20
345.507675
 30
0.0
 10
46.192583
 20
345.825504
 30
0.0
 10
46.216603
 20
346.111246
 30
0.0
 10
46.293429
 20
346.340454
 30
0.0
 10
46.421539
 20
346.539116
 30
0.0
 10
46.594838
 20
346.703055
 30
0.0
 10
46.809935
 20
346.829070
 30
0.0
 10
46.972247
 20
346.875022
 30
0.0
 10
47.056532
 20
346.898884
 30
0.0
 11
48.172752
 21
346.898884
 31
0.0
 11
48.421102
 21
346.816506
 31
0.0
 11
48.629645
 21
346.694320
 31
0.0
 11
48.798382
 21
346.532326
 31
0.0
 11
48.923932
 21
346.336951
 31
0.0
 11
48.999262
 21
346.114628
 31
0.0
 11
49.024372
 21
345.865356
 31
0.0
 11
48.983644
 21
345.497573
 31
0.0
 11
48.861461
 21
345.191648
 31
0.0
 11
48.657822
 21
344.947582
 31
0.0
 11
48.380066
 21
344.769968
 31
0.0
 11
48.031880
 21
344.663400
 31
0.0
 11
47.613262
 21
344.627877
 31
0.0
 11
47.194339
 21
344.663400
 31
0.0
 11
46.845235
 21
344.769968
 31
0.0
 11
46.565952
 21
344.947582
 31
0.0
 11
46.363841
 21
345.191648
 31
0.0
 11
46.242574
 21
345.497573
 31
0.0
 11
46.202152
 21
345.865356
 31
0.0
 11
46.227263
 21
346.114628
 31
0.0
 11
46.302596
 21
346.336951
 31
0.0
 11
46.428152
 21
346.532326
 31
0.0
 11
46.598416
 21
346.694322
 31
0.0
 11
46.807876
 21
346.816508
 31
0.0
 11
47.056532
 21
346.898884
 31
0.0
  0
LWPOLYLINE
  5
147
100
AcDbEntity
  8
0
 62
5
100
AcDbPolyline
 90
1
 70
1
 10
47.056532
 20
346.898884
 30
0.0
  0
SPLINE
  5
148
100
AcDbEntity
  8
0
 62
5
100
AcDbSpline
 70
0
 71
3
 72
31
 73
27
 74
25
 40
0.000000
 40
0.000000
 40
0.000000
 40
0.000000
 40
0.198746
 40
0.377701
 40
0.552030
 40
0.733625
 40
0.930322
 40
1.154142
 40
1.376441
 40
1.572264
 40
1.753604
 40
1.929888
 40
2.109532
 40
2.308346
 40
2.507161
 40
2.686805
 40
2.863089
 40
3.044428
 40
3.240252
 40
3.462550
 40
3.686371
 40
3.883067
 40
4.064663
 40
4.238991
 40
4.417947
 40
4.616693
 40
4.616693
 40
4.616693
 40
4.616693
 10
46.852592
 20
347.778073
 30
0.0
 10
46.856215
 20
347.711577
 30
0.0
 10
46.863100
 20
347.585206
 30
0.0
 10
46.932172
 20
347.410904
 30
0.0
 10
47.046492
 20
347.270503
 30
0.0
 10
47.203976
 20
347.169537
 30
0.0
 10
47.397965
 20
347.110655
 30
0.0
 10
47.612770
 20
347.094435
 30
0.0
 10
47.827190
 20
347.110717
 30
0.0
 10
48.020496
 20
347.169513
 30
0.0
 10
48.177177
 20
347.271505
 30
0.0
 10
48.295058
 20
347.410166
 30
0.0
 10
48.364271
 20
347.584926
 30
0.0
 10
48.383232
 20
347.778073
 30
0.0
 10
48.364271
 20
347.971220
 30
0.0
 10
48.295058
 20
348.145980
 30
0.0
 10
48.177177
 20
348.284641
 30
0.0
 10
48.020496
 20
348.386633
 30
0.0
 10
47.827190
 20
348.445429
 30
0.0
 10
47.612770
 20
348.461711
 30
0.0
 10
47.397965
 20
348.445491
 30
0.0
 10
47.203976
 20
348.386609
 30
0.0
 10
47.046492
 20
348.285643
 30
0.0
 10
46.932172
 20
348.145242
 30
0.0
 10
46.863100
 20
347.970940
 30
0.0
 10
46.856215
 20
347.844569
 30
0.0
 10
46.852592
 20
347.778073
 30
0.0
 11
46.852592
 21
347.778073
 31
0.0
 11
46.874640
 21
347.580554
 31
0.0
 11
46.940783
 21
347.414271
 31
0.0
 11
47.051022
 21
347.279223
 31
0.0
 11
47.202915
 21
347.179698
 31
0.0
 11
47.390329
 21
347.119983
 31
0.0
 11
47.613262
 21
347.100078
 31
0.0
 11
47.834668
 21
347.119983
 31
0.0
 11
48.021164
 21
347.179698
 31
0.0
 11
48.172752
 21
347.279223
 31
0.0
 11
48.286058
 21
347.414271
 31
0.0
 11
48.354041
 21
347.580554
 31
0.0
 11
48.376702
 21
347.778073
 31
0.0
 11
48.354041
 21
347.975592
 31
0.0
 11
48.286058
 21
348.141875
 31
0.0
 11
48.172752
 21
348.276923
 31
0.0
 11
48.021164
 21
348.376448
 31
0.0
 11
47.834668
 21
348.436163
 31
0.0
 11
47.613262
 21
348.456068
 31
0.0
 11
47.390329
 21
348.436163
 31
0.0
 11
47.202915
 21
348.376448
 31
0.0
 11
47.051022
 21
348.276923
 31
0.0
 11
46.940783
 21
348.141875
 31
0.0
 11
46.874640
 21
347.975592
 31
0.0
 11
46.852592
 21
347.778073
 31
0.0
  0
LWPOLYLINE
  5
149
100
AcDbEntity
  8
0
 62
5
100
AcDbPolyline
 90
1
 70
1
 10
46.852592
 20
347.778073
 30
0.0
  0
SPLINE
  5
14a
100
AcDbEntity
  8
0
 62
5
100
AcDbSpline
 70
0
 71
3
 72
31
 73
27
 74
25
 40
0.000000
 40
0.000000
 40
0.000000
 40
0.000000
 40
0.267247
 40
0.525368
 40
0.815319
 40
1.164937
 40
1.594473
 40
2.113472
 40
2.631247
 40
3.060784
 40
3.411554
 40
3.700260
 40
3.957878
 40
4.225072
 40
4.493467
 40
4.751082
 40
5.039073
 40
5.390366
 40
5.820057
 40
6.337846
 40
6.856859
 40
7.286550
 40
7.636693
 40
7.925931
 40
8.184048
 40
8.452498
 40
8.452498
 40
8.452498
 40
8.452498
 10
51.207192
 20
348.456068
 30
0.0
 10
51.117181
 20
348.447884
 30
0.0
 10
50.940232
 20
348.431795
 30
0.0
 10
50.707489
 20
348.271243
 30
0.0
 10
50.537406
 20
348.020025
 30
0.0
 10
50.422692
 20
347.679430
 30
0.0
 10
50.356314
 20
347.250607
 30
0.0
 10
50.338101
 20
346.761488
 30
0.0
 10
50.356268
 20
346.272374
 30
0.0
 10
50.423068
 20
345.843578
 30
0.0
 10
50.536660
 20
345.503022
 30
0.0
 10
50.707782
 20
345.251169
 30
0.0
 10
50.940455
 20
345.096480
 30
0.0
 10
51.207604
 20
345.054810
 30
0.0
 10
51.474709
 20
345.096313
 30
0.0
 10
51.707967
 20
345.250804
 30
0.0
 10
51.877188
 20
345.503787
 30
0.0
 10
51.993324
 20
345.843183
 30
0.0
 10
52.060584
 20
346.272371
 30
0.0
 10
52.079170
 20
346.761488
 30
0.0
 10
52.060538
 20
347.250610
 30
0.0
 10
51.993702
 20
347.679826
 30
0.0
 10
51.876442
 20
348.019263
 30
0.0
 10
51.708261
 20
348.271608
 30
0.0
 10
51.474935
 20
348.431978
 30
0.0
 10
51.297600
 20
348.447934
 30
0.0
 10
51.207192
 20
348.456068
 30
0.0
 11
51.207192
 21
348.456068
 31
0.0
 11
50.944139
 21
348.408908
 31
0.0
 11
50.728245
 21
348.267430
 31
0.0
 11
50.559512
 21
348.031632
 31
0.0
 11
50.440079
 21
347.703046
 31
0.0
 11
50.368419
 21
347.279529
 31
0.0
 11
50.344532
 21
346.761081
 31
0.0
 11
50.368419
 21
346.243857
 31
0.0
 11
50.440079
 21
345.820340
 31
0.0
 11
50.559512
 21
345.490529
 31
0.0
 11
50.728245
 21
345.256263
 31
0.0
 11
50.944139
 21
345.115703
 31
0.0
 11
51.207192
 21
345.068850
 31
0.0
 11
51.471466
 21
345.115703
 31
0.0
 11
51.687356
 21
345.256263
 31
0.0
 11
51.854862
 21
345.490529
 31
0.0
 11
51.975823
 21
345.820340
 31
0.0
 11
52.048400
 21
346.243857
 31
0.0
 11
52.072592
 21
346.761081
 31
0.0
 11
52.048400
 21
347.279529
 31
0.0
 11
51.975823
 21
347.703046
 31
0.0
 11
51.854862
 21
348.031632
 31
0.0
 11
51.687356
 21
348.267430
 31
0.0
 11
51.471466
 21
348.408908
 31
0.0
 11
51.207192
 21
348.456068
 31
0.0
  0
SPLINE
  5
14b
100
AcDbEntity
  8
0
 62
5
100
AcDbSpline
 70
0
 71
3
 72
10
 73
6
 74
4
 40
0.000000
 40
0.000000
 40
0.000000
 40
0.000000
 40
0.429088
 40
0.825606
 40
1.238726
 40
1.238726
 40
1.238726
 40
1.238726
 10
51.207192
 20
348.897040
 30
0.0
 10
51.350768
 20
348.886652
 30
0.0
 10
51.627023
 20
348.866665
 30
0.0
 10
52.008237
 20
348.671282
 30
0.0
 10
52.176768
 20
348.457608
 30
0.0
 10
52.262762
 20
348.348581
 30
0.0
 11
51.207192
 21
348.897040
 31
0.0
 11
51.631931
 21
348.836100
 31
0.0
 11
51.983788
 21
348.653280
 31
0.0
 11
52.262762
 21
348.348581
 31
0.0
  0
SPLINE
  5
14c
100
AcDbEntity
  8
0
 62
5
100
AcDbSpline
 70
0
 71
3
 72
19
 73
15
 74
13
 40
0.000000
 40
0.000000
 40
0.000000
 40
0.000000
 40
0.465798
 40
1.008888
 40
1.649594
 40
2.289077
 40
2.832167
 40
3.299068
 40
3.711060
 40
4.107155
 40
4.536200
 40
4.965554
 40
5.362470
 40
5.775503
 40
5.775503
 40
5.775503
 40
5.775503
 10
52.262762
 20
348.348581
 30
0.0
 10
52.337499
 20
348.211603
 30
0.0
 10
52.499373
 20
347.914919
 30
0.0
 10
52.606300
 20
347.368529
 30
0.0
 10
52.641213
 20
346.761893
 30
0.0
 10
52.608382
 20
346.152953
 30
0.0
 10
52.492568
 20
345.612252
 30
0.0
 10
52.291385
 20
345.177542
 30
0.0
 10
52.003797
 20
344.853692
 30
0.0
 10
51.628017
 20
344.661719
 30
0.0
 10
51.206754
 20
344.610084
 30
0.0
 10
50.787173
 20
344.662498
 30
0.0
 10
50.405220
 20
344.851215
 30
0.0
 10
50.235434
 20
345.064710
 30
0.0
 10
50.148852
 20
345.173581
 30
0.0
 11
52.262762
 21
348.348581
 31
0.0
 11
52.466406
 21
347.929657
 31
0.0
 11
52.588593
 21
347.400491
 31
0.0
 11
52.629322
 21
346.761081
 31
0.0
 11
52.588593
 21
346.122896
 31
0.0
 11
52.466406
 21
345.593729
 31
0.0
 11
52.262762
 21
345.173581
 31
0.0
 11
51.983788
 21
344.870412
 31
0.0
 11
51.631931
 21
344.688511
 31
0.0
 11
51.207192
 21
344.627877
 31
0.0
 11
50.782141
 21
344.688511
 31
0.0
 11
50.429361
 21
344.870412
 31
0.0
 11
50.148852
 21
345.173581
 31
0.0
  0
LWPOLYLINE
  5
14d
100
AcDbEntity
  8
0
 62
5
100
AcDbPolyline
 90
1
 70
1
 10
51.207192
 20
348.456068
 30
0.0
  0
SPLINE
  5
14e
100
AcDbEntity
  8
0
 62
5
100
AcDbSpline
 70
0
 71
3
 72
16
 73
12
 74
10
 40
0.000000
 40
0.000000
 40
0.000000
 40
0.000000
 40
0.466233
 40
1.009117
 40
1.648581
 40
2.289267
 40
2.832151
 40
3.297281
 40
3.711439
 40
4.108776
 40
4.538174
 40
4.538174
 40
4.538174
 40
4.538174
 10
50.148852
 20
345.173581
 30
0.0
 10
50.074687
 20
345.311014
 30
0.0
 10
49.914163
 20
345.608474
 30
0.0
 10
49.807929
 20
346.154508
 30
0.0
 10
49.773253
 20
346.761080
 30
0.0
 10
49.805782
 20
347.369980
 30
0.0
 10
49.920519
 20
347.910406
 30
0.0
 10
50.120718
 20
348.346249
 30
0.0
 10
50.409174
 20
348.668538
 30
0.0
 10
50.785754
 20
348.867303
 30
0.0
 10
51.063127
 20
348.886875
 30
0.0
 10
51.207192
 20
348.897040
 30
0.0
 11
50.148852
 21
345.173581
 31
0.0
 11
49.946741
 21
345.593729
 31
0.0
 11
49.825474
 21
346.122896
 31
0.0
 11
49.785052
 21
346.761081
 31
0.0
 11
49.825474
 21
347.400491
 31
0.0
 11
49.946741
 21
347.929657
 31
0.0
 11
50.148852
 21
348.348581
 31
0.0
 11
50.429361
 21
348.653280
 31
0.0
 11
50.782141
 21
348.836100
 31
0.0
 11
51.207192
 21
348.897040
 31
0.0
  0
LWPOLYLINE
  5
14f
100
AcDbEntity
  8
0
 62
5
100
AcDbPolyline
 90
1
 70
1
 10
51.207192
 20
348.897040
 30
0.0
  0
SPLINE
  5
150
100
AcDbEntity
  8
0
 62
5
100
AcDbSpline
 70
0
 71
3
 72
19
 73
15
 74
13
 40
0.000000
 40
0.000000
 40
0.000000
 40
0.000000
 40
0.247937
 40
0.474305
 40
0.685794
 40
0.893290
 40
1.107872
 40
1.337033
 40
1.636458
 40
1.909031
 40
2.183054
 40
2.477501
 40
2.808905
 40
3.193409
 40
3.193409
 40
3.193409
 40
3.193409
 10
57.739092
 20
347.202053
 30
0.0
 10
57.781865
 20
347.272942
 30
0.0
 10
57.863690
 20
347.408552
 30
0.0
 10
58.017604
 20
347.579571
 30
0.0
 10
58.188801
 20
347.711957
 30
0.0
 10
58.380504
 20
347.804174
 30
0.0
 10
58.592114
 20
347.858167
 30
0.0
 10
58.839952
 20
347.876787
 30
0.0
 10
59.108679
 20
347.848445
 30
0.0
 10
59.371257
 20
347.731407
 30
0.0
 10
59.576592
 20
347.533071
 30
0.0
 10
59.723030
 20
347.267302
 30
0.0
 10
59.809387
 20
346.938277
 30
0.0
 10
59.818037
 20
346.699275
 30
0.0
 10
59.822682
 20
346.570911
 30
0.0
 11
57.739092
 21
347.202053
 31
0.0
 11
57.874140
 21
347.409983
 31
0.0
 11
58.025723
 21
347.578104
 31
0.0
 11
58.193842
 21
347.706415
 31
0.0
 11
58.380641
 21
347.796753
 31
0.0
 11
58.588264
 21
347.850955
 31
0.0
 11
58.816712
 21
347.869023
 31
0.0
 11
59.113759
 21
347.831357
 31
0.0
 11
59.361805
 21
347.718358
 31
0.0
 11
59.560852
 21
347.530026
 31
0.0
 11
59.706313
 21
347.274017
 31
0.0
 11
59.793590
 21
346.954312
 31
0.0
 11
59.822682
 21
346.570911
 31
0.0
  0
LWPOLYLINE
  5
151
100
AcDbEntity
  8
0
 62
5
100
AcDbPolyline
 90
4
 70
0
 10
59.822682
 20
346.570911
 30
0.0
 10
59.822682
 20
344.707804
 30
0.0
 10
59.312812
 20
344.707804
 30
0.0
 10
59.312812
 20
346.554375
 30
0.0
  0
SPLINE
  5
152
100
AcDbEntity
  8
0
 62
5
100
AcDbSpline
 70
0
 71
3
 72
19
 73
15
 74
13
 40
0.000000
 40
0.000000
 40
0.000000
 40
0.000000
 40
0.270964
 40
0.496690
 40
0.686659
 40
0.858178
 40
1.033358
 40
1.231404
 40
1.477502
 40
1.702722
 40
1.927125
 40
2.160452
 40
2.410312
 40
2.691664
 40
2.691664
 40
2.691664
 40
2.691664
 10
59.312812
 20
346.554375
 30
0.0
 10
59.310128
 20
346.644811
 30
0.0
 10
59.305208
 20
346.810584
 30
0.0
 10
59.254727
 20
347.035552
 30
0.0
 10
59.167921
 20
347.213935
 30
0.0
 10
59.037618
 20
347.342220
 30
0.0
 10
58.867467
 20
347.415698
 30
0.0
 10
58.660031
 20
347.435598
 30
0.0
 10
58.436034
 20
347.411603
 30
0.0
 10
58.218008
 20
347.322259
 30
0.0
 10
58.042757
 20
347.171169
 30
0.0
 10
57.914148
 20
346.970123
 30
0.0
 10
57.836569
 20
346.723867
 30
0.0
 10
57.828700
 20
346.546396
 30
0.0
 10
57.824532
 20
346.452400
 30
0.0
 11
59.312812
 21
346.554375
 31
0.0
 11
59.295356
 21
346.824777
 31
0.0
 11
59.242990
 21
347.044344
 31
0.0
 11
59.155712
 21
347.213077
 31
0.0
 11
59.032605
 21
347.332507
 31
0.0
 11
58.872752
 21
347.404165
 31
0.0
 11
58.676152
 21
347.428051
 31
0.0
 11
58.431780
 21
347.398959
 31
0.0
 11
58.224156
 21
347.311683
 31
0.0
 11
58.053282
 21
347.166224
 31
0.0
 11
57.926199
 21
346.970543
 31
0.0
 11
57.849949
 21
346.732601
 31
0.0
 11
57.824532
 21
346.452400
 31
0.0
  0
LWPOLYLINE
  5
153
100
AcDbEntity
  8
0
 62
5
100
AcDbPolyline
 90
4
 70
0
 10
57.824532
 20
346.452400
 30
0.0
 10
57.824532
 20
344.707804
 30
0.0
 10
57.314652
 20
344.707804
 30
0.0
 10
57.314652
 20
346.554375
 30
0.0
  0
SPLINE
  5
154
100
AcDbEntity
  8
0
 62
5
100
AcDbSpline
 70
0
 71
3
 72
19
 73
15
 74
13
 40
0.000000
 40
0.000000
 40
0.000000
 40
0.000000
 40
0.272187
 40
0.497912
 40
0.686794
 40
0.858749
 40
1.035604
 40
1.236687
 40
1.479784
 40
1.703676
 40
1.928615
 40
2.161685
 40
2.410670
 40
2.690497
 40
2.690497
 40
2.690497
 40
2.690497
 10
57.314652
 20
346.554375
 30
0.0
 10
57.311969
 20
346.645209
 30
0.0
 10
57.307061
 20
346.811371
 30
0.0
 10
57.256871
 20
347.036530
 30
0.0
 10
57.169383
 20
347.214320
 30
0.0
 10
57.038572
 20
347.342637
 30
0.0
 10
56.866355
 20
347.415739
 30
0.0
 10
56.658416
 20
347.435618
 30
0.0
 10
56.434795
 20
347.411341
 30
0.0
 10
56.218568
 20
347.320637
 30
0.0
 10
56.045129
 20
347.168266
 30
0.0
 10
55.916026
 20
346.967956
 30
0.0
 10
55.838469
 20
346.722535
 30
0.0
 10
55.830558
 20
346.545879
 30
0.0
 10
55.826372
 20
346.452400
 30
0.0
 11
57.314652
 21
346.554375
 31
0.0
 11
57.297196
 21
346.826001
 31
0.0
 11
57.244830
 21
347.045569
 31
0.0
 11
57.157552
 21
347.213077
 31
0.0
 11
57.033839
 21
347.332507
 31
0.0
 11
56.872152
 21
347.404165
 31
0.0
 11
56.672492
 21
347.428051
 31
0.0
 11
56.431180
 21
347.398653
 31
0.0
 11
56.225390
 21
347.310459
 31
0.0
 11
56.055122
 21
347.163468
 31
0.0
 11
55.928039
 21
346.968093
 31
0.0
 11
55.851789
 21
346.731070
 31
0.0
 11
55.826372
 21
346.452400
 31
0.0
  0
LWPOLYLINE
  5
155
100
AcDbEntity
  8
0
 62
5
100
AcDbPolyline
 90
6
 70
0
 10
55.826372
 20
346.452400
 30
0.0
 10
55.826372
 20
344.707804
 30
0.0
 10
55.316502
 20
344.707804
 30
0.0
 10
55.316502
 20
347.794609
 30
0.0
 10
55.826372
 20
347.794609
 30
0.0
 10
55.826372
 20
347.315052
 30
0.0
  0
SPLINE
  5
156
100
AcDbEntity
  8
0
 62
5
100
AcDbSpline
 70
0
 71
3
 72
19
 73
15
 74
13
 40
0.000000
 40
0.000000
 40
0.000000
 40
0.000000
 40
0.212274
 40
0.409109
 40
0.596416
 40
0.783878
 40
0.981091
 40
1.193841
 40
1.407516
 40
1.606033
 40
1.798572
 40
1.993461
 40
2.195843
 40
2.414489
 40
2.414489
 40
2.414489
 40
2.414489
 10
55.826372
 20
347.315052
 30
0.0
 10
55.865601
 20
347.374105
 30
0.0
 10
55.941205
 20
347.487917
 30
0.0
 10
56.082418
 20
347.629764
 30
0.0
 10
56.239473
 20
347.739516
 30
0.0
 10
56.415642
 20
347.815675
 30
0.0
 10
56.610743
 20
347.860077
 30
0.0
 10
56.818828
 20
347.874188
 30
0.0
 10
57.027600
 20
347.858041
 30
0.0
 10
57.222675
 20
347.800854
 30
0.0
 10
57.394006
 20
347.703518
 30
0.0
 10
57.540289
 20
347.570028
 30
0.0
 10
57.660030
 20
347.400714
 30
0.0
 10
57.712068
 20
347.269957
 30
0.0
 10
57.739092
 20
347.202053
 30
0.0
 11
55.826372
 21
347.315052
 31
0.0
 11
55.949782
 21
347.487766
 31
0.0
 11
56.088505
 21
347.627408
 31
0.0
 11
56.242542
 21
347.733976
 31
0.0
 11
56.414335
 21
347.809002
 31
0.0
 11
56.606342
 21
347.854018
 31
0.0
 11
56.818562
 21
347.869023
 31
0.0
 11
57.031392
 21
347.850037
 31
0.0
 11
57.221562
 21
347.793078
 31
0.0
 11
57.389072
 21
347.698147
 31
0.0
 11
57.533305
 21
347.567080
 31
0.0
 11
57.649979
 21
347.401715
 31
0.0
 11
57.739092
 21
347.202053
 31
0.0
  0
LWPOLYLINE
  5
157
100
AcDbEntity
  8
0
 62
5
100
AcDbPolyline
 90
1
 70
1
 10
57.739092
 20
347.202053
 30
0.0
  0
SPLINE
  5
158
100
AcDbEntity
  8
0
 62
5
100
AcDbSpline
 70
0
 71
3
 72
19
 73
15
 74
13
 40
0.000000
 40
0.000000
 40
0.000000
 40
0.000000
 40
0.247935
 40
0.474302
 40
0.685795
 40
0.893291
 40
1.107873
 40
1.337034
 40
1.636455
 40
1.909028
 40
2.183054
 40
2.477501
 40
2.808905
 40
3.193408
 40
3.193408
 40
3.193408
 40
3.193408
 10
63.240222
 20
347.202053
 30
0.0
 10
63.282993
 20
347.272942
 30
0.0
 10
63.364815
 20
347.408553
 30
0.0
 10
63.518730
 20
347.579572
 30
0.0
 10
63.689930
 20
347.711955
 30
0.0
 10
63.881634
 20
347.804174
 30
0.0
 10
64.093244
 20
347.858167
 30
0.0
 10
64.341081
 20
347.876787
 30
0.0
 10
64.609806
 20
347.848445
 30
0.0
 10
64.872383
 20
347.731406
 30
0.0
 10
65.077723
 20
347.533073
 30
0.0
 10
65.224159
 20
347.267301
 30
0.0
 10
65.310517
 20
346.938277
 30
0.0
 10
65.319167
 20
346.699275
 30
0.0
 10
65.323812
 20
346.570911
 30
0.0
 11
63.240222
 21
347.202053
 31
0.0
 11
63.375265
 21
347.409983
 31
0.0
 11
63.526849
 21
347.578104
 31
0.0
 11
63.694972
 21
347.706415
 31
0.0
 11
63.881771
 21
347.796753
 31
0.0
 11
64.089394
 21
347.850955
 31
0.0
 11
64.317842
 21
347.869023
 31
0.0
 11
64.614884
 21
347.831357
 31
0.0
 11
64.862931
 21
347.718358
 31
0.0
 11
65.061982
 21
347.530026
 31
0.0
 11
65.207443
 21
347.274017
 31
0.0
 11
65.294720
 21
346.954312
 31
0.0
 11
65.323812
 21
346.570911
 31
0.0
  0
LWPOLYLINE
  5
159
100
AcDbEntity
  8
0
 62
5
100
AcDbPolyline
 90
4
 70
0
 10
65.323812
 20
346.570911
 30
0.0
 10
65.323812
 20
344.707804
 30
0.0
 10
64.813932
 20
344.707804
 30
0.0
 10
64.813932
 20
346.554375
 30
0.0
  0
SPLINE
  5
15a
100
AcDbEntity
  8
0
 62
5
100
AcDbSpline
 70
0
 71
3
 72
19
 73
15
 74
13
 40
0.000000
 40
0.000000
 40
0.000000
 40
0.000000
 40
0.270964
 40
0.496689
 40
0.686656
 40
0.858175
 40
1.033355
 40
1.231400
 40
1.477498
 40
1.702719
 40
1.927122
 40
2.160451
 40
2.410313
 40
2.691665
 40
2.691665
 40
2.691665
 40
2.691665
 10
64.813932
 20
346.554375
 30
0.0
 10
64.811248
 20
346.644811
 30
0.0
 10
64.806328
 20
346.810583
 30
0.0
 10
64.755850
 20
347.035551
 30
0.0
 10
64.669051
 20
347.213937
 30
0.0
 10
64.538748
 20
347.342220
 30
0.0
 10
64.368597
 20
347.415698
 30
0.0
 10
64.161161
 20
347.435598
 30
0.0
 10
63.937164
 20
347.411603
 30
0.0
 10
63.719138
 20
347.322260
 30
0.0
 10
63.543888
 20
347.171168
 30
0.0
 10
63.415272
 20
346.970124
 30
0.0
 10
63.337689
 20
346.723867
 30
0.0
 10
63.329820
 20
346.546396
 30
0.0
 10
63.325652
 20
346.452400
 30
0.0
 11
64.813932
 21
346.554375
 31
0.0
 11
64.796478
 21
346.824777
 31
0.0
 11
64.744114
 21
347.044344
 31
0.0
 11
64.656842
 21
347.213077
 31
0.0
 11
64.533735
 21
347.332507
 31
0.0
 11
64.373882
 21
347.404165
 31
0.0
 11
64.177282
 21
347.428051
 31
0.0
 11
63.932910
 21
347.398959
 31
0.0
 11
63.725286
 21
347.311683
 31
0.0
 11
63.554412
 21
347.166224
 31
0.0
 11
63.427323
 21
346.970543
 31
0.0
 11
63.351070
 21
346.732601
 31
0.0
 11
63.325652
 21
346.452400
 31
0.0
  0
LWPOLYLINE
  5
15b
100
AcDbEntity
  8
0
 62
5
100
AcDbPolyline
 90
4
 70
0
 10
63.325652
 20
346.452400
 30
0.0
 10
63.325652
 20
344.707804
 30
0.0
 10
62.815782
 20
344.707804
 30
0.0
 10
62.815782
 20
346.554375
 30
0.0
  0
SPLINE
  5
15c
100
AcDbEntity
  8
0
 62
5
100
AcDbSpline
 70
0
 71
3
 72
19
 73
15
 74
13
 40
0.000000
 40
0.000000
 40
0.000000
 40
0.000000
 40
0.272187
 40
0.497912
 40
0.686794
 40
0.858750
 40
1.035608
 40
1.236697
 40
1.479788
 40
1.703677
 40
1.928615
 40
2.161685
 40
2.410670
 40
2.690497
 40
2.690497
 40
2.690497
 40
2.690497
 10
62.815782
 20
346.554375
 30
0.0
 10
62.813099
 20
346.645209
 30
0.0
 10
62.808191
 20
346.811371
 30
0.0
 10
62.758001
 20
347.036530
 30
0.0
 10
62.670514
 20
347.214320
 30
0.0
 10
62.539700
 20
347.342638
 30
0.0
 10
62.367480
 20
347.415739
 30
0.0
 10
62.159539
 20
347.435618
 30
0.0
 10
61.935920
 20
347.411341
 30
0.0
 10
61.719696
 20
347.320636
 30
0.0
 10
61.546259
 20
347.168265
 30
0.0
 10
61.417156
 20
346.967956
 30
0.0
 10
61.339599
 20
346.722535
 30
0.0
 10
61.331688
 20
346.545879
 30
0.0
 10
61.327502
 20
346.452400
 30
0.0
 11
62.815782
 21
346.554375
 31
0.0
 11
62.798326
 21
346.826001
 31
0.0
 11
62.745960
 21
347.045569
 31
0.0
 11
62.658682
 21
347.213077
 31
0.0
 11
62.534968
 21
347.332507
 31
0.0
 11
62.373278
 21
347.404165
 31
0.0
 11
62.173612
 21
347.428051
 31
0.0
 11
61.932305
 21
347.398653
 31
0.0
 11
61.726519
 21
347.310459
 31
0.0
 11
61.556252
 21
347.163468
 31
0.0
 11
61.429169
 21
346.968093
 31
0.0
 11
61.352919
 21
346.731070
 31
0.0
 11
61.327502
 21
346.452400
 31
0.0
  0
LWPOLYLINE
  5
15d
100
AcDbEntity
  8
0
 62
5
100
AcDbPolyline
 90
6
 70
0
 10
61.327502
 20
346.452400
 30
0.0
 10
61.327502
 20
344.707804
 30
0.0
 10
60.817622
 20
344.707804
 30
0.0
 10
60.817622
 20
347.794609
 30
0.0
 10
61.327502
 20
347.794609
 30
0.0
 10
61.327502
 20
347.315052
 30
0.0
  0
LWPOLYLINE
  5
15e
100
AcDbEntity
  8
0
 62
5
100
AcDbPolyline
 90
1
 70
1
 10
63.240222
 20
347.202053
 30
0.0
  0
LWPOLYLINE
  5
15f
100
AcDbEntity
  8
0
 62
5
100
AcDbPolyline
 90
2
 70
0
 10
177.752272
 20
354.309640
 30
0.0
 10
177.752272
 20
332.664480
 30
0.0
  0
LWPOLYLINE
  5
160
100
AcDbEntity
  8
0
 62
5
100
AcDbPolyline
 90
2
 70
0
 10
-90.662438
 20
341.080470
 30
0.0
 10
-62.299568
 20
341.080470
 30
0.0
  0
LWPOLYLINE
  5
161
100
AcDbEntity
  8
0
 62
5
100
AcDbPolyline
 90
2
 70
0
 10
-90.747748
 20
354.309640
 30
0.0
 10
-90.747748
 20
332.664480
 30
0.0
  0
SPLINE
  5
162
100
AcDbEntity
  8
0
 62
5
100
AcDbSpline
 70
0
 71
3
 72
19
 73
15
 74
13
 40
0.000000
 40
0.000000
 40
0.000000
 40
0.000000
 40
0.212274
 40
0.409109
 40
0.596416
 40
0.783878
 40
0.981091
 40
1.193841
 40
1.407515
 40
1.606028
 40
1.798563
 40
1.993456
 40
2.195839
 40
2.414486
 40
2.414486
 40
2.414486
 40
2.414486
 10
61.327502
 20
347.315052
 30
0.0
 10
61.366731
 20
347.374105
 30
0.0
 10
61.442335
 20
347.487917
 30
0.0
 10
61.583548
 20
347.629764
 30
0.0
 10
61.740603
 20
347.739516
 30
0.0
 10
61.916772
 20
347.815675
 30
0.0
 10
62.111873
 20
347.860077
 30
0.0
 10
62.319958
 20
347.874188
 30
0.0
 10
62.528728
 20
347.858041
 30
0.0
 10
62.723801
 20
347.800855
 30
0.0
 10
62.895127
 20
347.703514
 30
0.0
 10
63.041414
 20
347.570030
 30
0.0
 10
63.161159
 20
347.400715
 30
0.0
 10
63.213197
 20
347.269957
 30
0.0
 10
63.240222
 20
347.202053
 30
0.0
 11
61.327502
 21
347.315052
 31
0.0
 11
61.450912
 21
347.487766
 31
0.0
 11
61.589635
 21
347.627408
 31
0.0
 11
61.743672
 21
347.733976
 31
0.0
 11
61.915465
 21
347.809002
 31
0.0
 11
62.107472
 21
347.854018
 31
0.0
 11
62.319692
 21
347.869023
 31
0.0
 11
62.532521
 21
347.850037
 31
0.0
 11
62.722688
 21
347.793078
 31
0.0
 11
62.890192
 21
347.698147
 31
0.0
 11
63.034431
 21
347.567080
 31
0.0
 11
63.151108
 21
347.401715
 31
0.0
 11
63.240222
 21
347.202053
 31
0.0
  0
LWPOLYLINE
  5
163
100
AcDbEntity
  8
0
 62
5
100
AcDbPolyline
 90
5
 70
0
 10
-87.315382
 20
345.176344
 30
0.0
 10
-85.372348
 20
345.176344
 30
0.0
 10
-85.372348
 20
344.707811
 30
0.0
 10
-87.985108
 20
344.707811
 30
0.0
 10
-87.985108
 20
345.176344
 30
0.0
  0
SPLINE
  5
164
100
AcDbEntity
  8
0
 62
5
100
AcDbSpline
 70
0
 71
3
 72
31
 73
27
 74
25
 40
0.000000
 40
0.000000
 40
0.000000
 40
0.000000
 40
0.339565
 40
0.750139
 40
1.231729
 40
1.688422
 40
2.019127
 40
2.223911
 40
2.472304
 40
2.681962
 40
2.854276
 40
3.005305
 40
3.146801
 40
3.282376
 40
3.489157
 40
3.683373
 40
3.881936
 40
4.085534
 40
4.296461
 40
4.528194
 40
4.706400
 40
4.893530
 40
5.091481
 40
5.301388
 40
5.527590
 40
5.771125
 40
5.771125
 40
5.771125
 40
5.771125
 10
-87.985108
 20
345.176344
 30
0.0
 10
-87.906276
 20
345.257567
 30
0.0
 10
-87.732127
 20
345.436997
 30
0.0
 10
-87.444409
 20
345.729902
 30
0.0
 10
-87.128219
 20
346.049560
 30
0.0
 10
-86.831129
 20
346.350664
 30
0.0
 10
-86.600739
 20
346.587952
 30
0.0
 10
-86.422426
 20
346.778995
 30
0.0
 10
-86.279469
 20
346.947621
 30
0.0
 10
-86.153642
 20
347.116148
 30
0.0
 10
-86.061455
 20
347.268500
 30
0.0
 10
-85.999246
 20
347.410941
 30
0.0
 10
-85.962166
 20
347.549454
 30
0.0
 10
-85.948178
 20
347.710773
 30
0.0
 10
-85.969081
 20
347.890643
 30
0.0
 10
-86.048853
 20
348.077289
 30
0.0
 10
-86.180983
 20
348.229380
 30
0.0
 10
-86.351353
 20
348.346416
 30
0.0
 10
-86.558050
 20
348.415682
 30
0.0
 10
-86.765716
 20
348.433393
 30
0.0
 10
-86.964692
 20
348.421228
 30
0.0
 10
-87.150213
 20
348.390301
 30
0.0
 10
-87.342170
 20
348.339290
 30
0.0
 10
-87.540912
 20
348.266773
 30
0.0
 10
-87.748190
 20
348.174794
 30
0.0
 10
-87.886066
 20
348.100483
 30
0.0
 10
-87.957548
 20
348.061956
 30
0.0
 11
-87.985108
 21
345.176344
 31
0.0
 11
-87.748392
 21
345.419797
 31
0.0
 11
-87.460841
 21
345.712860
 31
0.0
 11
-87.122456
 21
346.055533
 31
0.0
 11
-86.802139
 21
346.381056
 31
0.0
 11
-86.572466
 21
346.618997
 31
0.0
 11
-86.433437
 21
346.769356
 31
0.0
 11
-86.273279
 21
346.959219
 31
0.0
 11
-86.149255
 21
347.128259
 31
0.0
 11
-86.061367
 21
347.276475
 31
0.0
 11
-86.001652
 21
347.415197
 31
0.0
 11
-85.965823
 21
347.552082
 31
0.0
 11
-85.953880
 21
347.687130
 31
0.0
 11
-85.979603
 21
347.892305
 31
0.0
 11
-86.056774
 21
348.070531
 31
0.0
 11
-86.185390
 21
348.221809
 31
0.0
 11
-86.353511
 21
348.336645
 31
0.0
 11
-86.552867
 21
348.405547
 31
0.0
 11
-86.783459
 21
348.428514
 31
0.0
 11
-86.961379
 21
348.418408
 31
0.0
 11
-87.146036
 21
348.388092
 31
0.0
 11
-87.337430
 21
348.337564
 31
0.0
 11
-87.534949
 21
348.266519
 31
0.0
 11
-87.741655
 21
348.174649
 31
0.0
 11
-87.957548
 21
348.061956
 31
0.0
  0
LWPOLYLINE
  5
165
100
AcDbEntity
  8
0
 62
5
100
AcDbPolyline
 90
2
 70
0
 10
-87.957548
 20
348.061956
 30
0.0
 10
-87.957548
 20
348.624196
 30
0.0
  0
SPLINE
  5
166
100
AcDbEntity
  8
0
 62
5
100
AcDbSpline
 70
0
 71
3
 72
31
 73
27
 74
25
 40
0.000000
 40
0.000000
 40
0.000000
 40
0.000000
 40
0.234333
 40
0.454551
 40
0.661201
 40
0.854284
 40
1.033984
 40
1.201361
 40
1.600432
 40
1.956662
 40
2.290226
 40
2.607759
 40
2.919498
 40
3.254739
 40
3.421367
 40
3.585322
 40
3.749570
 40
3.928290
 40
4.140309
 40
4.387444
 40
4.505150
 40
4.717654
 40
5.024984
 40
5.426266
 40
5.923254
 40
6.515952
 40
6.515952
 40
6.515952
 40
6.515952
 10
-87.957548
 20
348.624196
 30
0.0
 10
-87.884723
 20
348.652480
 30
0.0
 10
-87.743461
 20
348.707345
 30
0.0
 10
-87.533663
 20
348.775274
 30
0.0
 10
-87.334044
 20
348.829110
 30
0.0
 10
-87.144688
 20
348.867809
 30
0.0
 10
-86.965989
 20
348.891577
 30
0.0
 10
-86.717323
 20
348.902525
 30
0.0
 10
-86.408789
 20
348.877269
 30
0.0
 10
-86.057764
 20
348.772209
 30
0.0
 10
-85.769288
 20
348.592517
 30
0.0
 10
-85.550110
 20
348.351373
 30
0.0
 10
-85.418706
 20
348.052004
 30
0.0
 10
-85.387747
 20
347.779031
 30
0.0
 10
-85.401259
 20
347.557122
 30
0.0
 10
-85.433698
 20
347.394817
 30
0.0
 10
-85.489149
 20
347.234678
 30
0.0
 10
-85.573099
 20
347.069199
 30
0.0
 10
-85.690844
 20
346.891998
 30
0.0
 10
-85.804755
 20
346.736536
 30
0.0
 10
-85.936200
 20
346.595810
 30
0.0
 10
-86.082353
 20
346.441594
 30
0.0
 10
-86.295005
 20
346.220084
 30
0.0
 10
-86.575780
 20
345.932582
 30
0.0
 10
-86.922932
 20
345.576934
 30
0.0
 10
-87.177124
 20
345.317470
 30
0.0
 10
-87.315382
 20
345.176343
 30
0.0
 11
-87.957548
 21
348.624196
 31
0.0
 11
-87.738286
 21
348.706878
 31
0.0
 11
-87.528825
 21
348.774862
 31
0.0
 11
-87.329162
 21
348.828146
 31
0.0
 11
-87.139912
 21
348.866424
 31
0.0
 11
-86.961685
 21
348.889390
 31
0.0
 11
-86.794483
 21
348.897046
 31
0.0
 11
-86.396996
 21
348.861523
 31
0.0
 11
-86.057080
 21
348.754955
 31
0.0
 11
-85.774735
 21
348.577342
 31
0.0
 11
-85.563436
 21
348.340319
 31
0.0
 11
-85.436656
 21
348.055525
 31
0.0
 11
-85.394397
 21
347.722958
 31
0.0
 11
-85.405115
 21
347.556675
 31
0.0
 11
-85.437269
 21
347.395904
 31
0.0
 11
-85.490860
 21
347.240645
 31
0.0
 11
-85.570786
 21
347.080792
 31
0.0
 11
-85.685623
 21
346.902566
 31
0.0
 11
-85.835369
 21
346.705966
 31
0.0
 11
-85.914683
 21
346.618995
 31
0.0
 11
-86.060755
 21
346.464654
 31
0.0
 11
-86.273585
 21
346.242945
 31
0.0
 11
-86.553480
 21
345.955394
 31
0.0
 11
-86.900746
 21
345.599860
 31
0.0
 11
-87.315382
 21
345.176343
 31
0.0
  0
LWPOLYLINE
  5
167
100
AcDbEntity
  8
0
 62
5
100
AcDbPolyline
 90
1
 70
1
 10
-87.315382
 20
345.176343
 30
0.0
  0
SPLINE
  5
168
100
AcDbEntity
  8
0
 62
5
100
AcDbSpline
 70
0
 71
3
 72
31
 73
27
 74
25
 40
0.000000
 40
0.000000
 40
0.000000
 40
0.000000
 40
0.247031
 40
0.467245
 40
0.675101
 40
0.877885
 40
1.086709
 40
1.318360
 40
1.550010
 40
1.758834
 40
1.961618
 40
2.169474
 40
2.389688
 40
2.636719
 40
2.883750
 40
3.103964
 40
3.311819
 40
3.516514
 40
3.725671
 40
3.956137
 40
4.187822
 40
4.396979
 40
4.600715
 40
4.807562
 40
5.027777
 40
5.276027
 40
5.276027
 40
5.276027
 40
5.276027
 10
-83.010390
 20
346.661870
 30
0.0
 10
-83.092955
 20
346.658007
 30
0.0
 10
-83.249122
 20
346.650700
 30
0.0
 10
-83.465499
 20
346.578163
 30
0.0
 10
-83.641948
 20
346.458681
 30
0.0
 10
-83.771957
 20
346.293851
 30
0.0
 10
-83.848270
 20
346.090195
 30
0.0
 10
-83.869248
 20
345.865361
 30
0.0
 10
-83.848270
 20
345.640540
 30
0.0
 10
-83.771957
 20
345.436849
 30
0.0
 10
-83.641948
 20
345.272143
 30
0.0
 10
-83.465499
 20
345.152183
 30
0.0
 10
-83.249123
 20
345.081622
 30
0.0
 10
-83.010388
 20
345.062106
 30
0.0
 10
-82.771668
 20
345.081631
 30
0.0
 10
-82.555252
 20
345.152150
 30
0.0
 10
-82.378404
 20
345.272621
 30
0.0
 10
-82.247632
 20
345.437601
 30
0.0
 10
-82.170047
 20
345.641185
 30
0.0
 10
-82.148654
 20
345.865782
 30
0.0
 10
-82.169985
 20
346.090313
 30
0.0
 10
-82.247235
 20
346.294265
 30
0.0
 10
-82.378778
 20
346.457786
 30
0.0
 10
-82.554124
 20
346.578597
 30
0.0
 10
-82.770901
 20
346.650735
 30
0.0
 10
-82.927438
 20
346.658013
 30
0.0
 10
-83.010390
 20
346.661870
 30
0.0
 11
-83.010390
 21
346.661870
 31
0.0
 11
-83.256294
 21
346.638290
 31
0.0
 11
-83.464837
 21
346.567551
 31
0.0
 11
-83.636020
 21
346.449652
 31
0.0
 11
-83.761574
 21
346.290412
 31
0.0
 11
-83.836907
 21
346.095649
 31
0.0
 11
-83.862018
 21
345.865363
 31
0.0
 11
-83.836907
 21
345.635078
 31
0.0
 11
-83.761574
 21
345.440315
 31
0.0
 11
-83.636020
 21
345.281075
 31
0.0
 11
-83.464837
 21
345.163176
 31
0.0
 11
-83.256294
 21
345.092437
 31
0.0
 11
-83.010390
 21
345.068857
 31
0.0
 11
-82.764487
 21
345.092437
 31
0.0
 11
-82.555944
 21
345.163176
 31
0.0
 11
-82.384761
 21
345.281075
 31
0.0
 11
-82.257675
 21
345.441540
 31
0.0
 11
-82.181424
 21
345.636303
 31
0.0
 11
-82.156007
 21
345.865363
 31
0.0
 11
-82.181424
 21
346.095649
 31
0.0
 11
-82.257675
 21
346.290412
 31
0.0
 11
-82.384761
 21
346.449652
 31
0.0
 11
-82.554719
 21
346.567551
 31
0.0
 11
-82.763262
 21
346.638290
 31
0.0
 11
-83.010390
 21
346.661870
 31
0.0
  0
SPLINE
  5
169
100
AcDbEntity
  8
0
 62
5
100
AcDbSpline
 70
0
 71
3
 72
31
 73
27
 74
25
 40
0.000000
 40
0.000000
 40
0.000000
 40
0.000000
 40
0.234167
 40
0.451278
 40
0.661789
 40
0.869017
 40
1.079060
 40
1.303389
 40
1.611775
 40
1.896745
 40
2.185939
 40
2.494221
 40
2.829658
 40
3.210107
 40
3.591776
 40
3.927213
 40
4.234447
 40
4.523641
 40
4.808610
 40
5.116997
 40
5.341356
 40
5.551691
 40
5.759737
 40
5.968928
 40
6.184463
 40
6.416894
 40
6.416894
 40
6.416894
 40
6.416894
 10
-83.567118
 20
346.898892
 30
0.0
 10
-83.642203
 20
346.921138
 30
0.0
 10
-83.786903
 20
346.964009
 30
0.0
 10
-83.978138
 20
347.078696
 30
0.0
 10
-84.132631
 20
347.225949
 30
0.0
 10
-84.244996
 20
347.405096
 30
0.0
 10
-84.312156
 20
347.610346
 30
0.0
 10
-84.333811
 20
347.858396
 30
0.0
 10
-84.302933
 20
348.132522
 30
0.0
 10
-84.182050
 20
348.406356
 30
0.0
 10
-83.979107
 20
348.625971
 30
0.0
 10
-83.708044
 20
348.786136
 30
0.0
 10
-83.376561
 20
348.879985
 30
0.0
 10
-83.009974
 20
348.906112
 30
0.0
 10
-82.643439
 20
348.880019
 30
0.0
 10
-82.311704
 20
348.786478
 30
0.0
 10
-82.041528
 20
348.625552
 30
0.0
 10
-81.838701
 20
348.406396
 30
0.0
 10
-81.717879
 20
348.132513
 30
0.0
 10
-81.686882
 20
347.858379
 30
0.0
 10
-81.708853
 20
347.610252
 30
0.0
 10
-81.776864
 20
347.404704
 30
0.0
 10
-81.891076
 20
347.227006
 30
0.0
 10
-82.043247
 20
347.078619
 30
0.0
 10
-82.232925
 20
346.964049
 30
0.0
 10
-82.376442
 20
346.921150
 30
0.0
 10
-82.450907
 20
346.898892
 30
0.0
 11
-83.567118
 21
346.898892
 31
0.0
 11
-83.788523
 21
346.975144
 31
0.0
 11
-83.975017
 21
347.086305
 31
0.0
 11
-84.126602
 21
347.232377
 31
0.0
 11
-84.236845
 21
347.407847
 31
0.0
 11
-84.302990
 21
347.607204
 31
0.0
 11
-84.325039
 21
347.830446
 31
0.0
 11
-84.286148
 21
348.136371
 31
0.0
 11
-84.169474
 21
348.396361
 31
0.0
 11
-83.975017
 21
348.610416
 31
0.0
 11
-83.711046
 21
348.769655
 31
0.0
 11
-83.389504
 21
348.865199
 31
0.0
 11
-83.010390
 21
348.897047
 31
0.0
 11
-82.630052
 21
348.865199
 31
0.0
 11
-82.308510
 21
348.769655
 31
0.0
 11
-82.045764
 21
348.610416
 31
0.0
 11
-81.851307
 21
348.396361
 31
0.0
 11
-81.734633
 21
348.136371
 31
0.0
 11
-81.695742
 21
347.830446
 31
0.0
 11
-81.718097
 21
347.607204
 31
0.0
 11
-81.785161
 21
347.407847
 31
0.0
 11
-81.896936
 21
347.232377
 31
0.0
 11
-82.046683
 21
347.086305
 31
0.0
 11
-82.231340
 21
346.975144
 31
0.0
 11
-82.450907
 21
346.898892
 31
0.0
  0
LWPOLYLINE
  5
16a
100
AcDbEntity
  8
0
 62
5
100
AcDbPolyline
 90
1
 70
1
 10
-83.010390
 20
346.661870
 30
0.0
  0
SPLINE
  5
16b
100
AcDbEntity
  8
0
 62
5
100
AcDbSpline
 70
0
 71
3
 72
31
 73
27
 74
25
 40
0.000000
 40
0.000000
 40
0.000000
 40
0.000000
 40
0.261659
 40
0.503360
 40
0.737269
 40
0.969509
 40
1.204249
 40
1.454782
 40
1.824813
 40
2.154236
 40
2.472102
 40
2.801787
 40
3.165915
 40
3.586037
 40
4.006464
 40
4.371470
 40
4.702447
 40
5.019334
 40
5.348417
 40
5.718414
 40
5.968948
 40
6.203688
 40
6.435928
 40
6.670944
 40
6.913439
 40
7.175388
 40
7.175388
 40
7.175388
 40
7.175388
 10
-82.450907
 20
346.898892
 30
0.0
 10
-82.366723
 20
346.875043
 30
0.0
 10
-82.204775
 20
346.829164
 30
0.0
 10
-81.990338
 20
346.703258
 30
0.0
 10
-81.818688
 20
346.538585
 30
0.0
 10
-81.690494
 20
346.340522
 30
0.0
 10
-81.613755
 20
346.111236
 30
0.0
 10
-81.589668
 20
345.825505
 30
0.0
 10
-81.621581
 20
345.507558
 30
0.0
 10
-81.744431
 20
345.185854
 30
0.0
 10
-81.957791
 20
344.932014
 30
0.0
 10
-82.247640
 20
344.750239
 30
0.0
 10
-82.608147
 20
344.646431
 30
0.0
 10
-83.010476
 20
344.617955
 30
0.0
 10
-83.413194
 20
344.646425
 30
0.0
 10
-83.774259
 20
344.750544
 30
0.0
 10
-84.065604
 20
344.931032
 30
0.0
 10
-84.277532
 20
345.186280
 30
0.0
 10
-84.399404
 20
345.507682
 30
0.0
 10
-84.431070
 20
345.825511
 30
0.0
 10
-84.407051
 20
346.111253
 30
0.0
 10
-84.330225
 20
346.340461
 30
0.0
 10
-84.202116
 20
346.539124
 30
0.0
 10
-84.028817
 20
346.703063
 30
0.0
 10
-83.813718
 20
346.829077
 30
0.0
 10
-83.651405
 20
346.875030
 30
0.0
 10
-83.567118
 20
346.898892
 30
0.0
 11
-82.450907
 21
346.898892
 31
0.0
 11
-82.202554
 21
346.816514
 31
0.0
 11
-81.994011
 21
346.694328
 31
0.0
 11
-81.825278
 21
346.532334
 31
0.0
 11
-81.699723
 21
346.336959
 31
0.0
 11
-81.624390
 21
346.114635
 31
0.0
 11
-81.599279
 21
345.865363
 31
0.0
 11
-81.640008
 21
345.497580
 31
0.0
 11
-81.762194
 21
345.191656
 31
0.0
 11
-81.965838
 21
344.947590
 31
0.0
 11
-82.243589
 21
344.769976
 31
0.0
 11
-82.591773
 21
344.663408
 31
0.0
 11
-83.010390
 21
344.627885
 31
0.0
 11
-83.429314
 21
344.663408
 31
0.0
 11
-83.778417
 21
344.769976
 31
0.0
 11
-84.057700
 21
344.947590
 31
0.0
 11
-84.259812
 21
345.191656
 31
0.0
 11
-84.381079
 21
345.497580
 31
0.0
 11
-84.421502
 21
345.865363
 31
0.0
 11
-84.396391
 21
346.114635
 31
0.0
 11
-84.321058
 21
346.336959
 31
0.0
 11
-84.195503
 21
346.532334
 31
0.0
 11
-84.025239
 21
346.694330
 31
0.0
 11
-83.815777
 21
346.816516
 31
0.0
 11
-83.567118
 21
346.898892
 31
0.0
  0
LWPOLYLINE
  5
16c
100
AcDbEntity
  8
0
 62
5
100
AcDbPolyline
 90
1
 70
1
 10
-83.567118
 20
346.898892
 30
0.0
  0
LWPOLYLINE
  5
16d
100
AcDbEntity
  8
0
 62
5
100
AcDbPolyline
 90
1
 70
1
 10
-83.771068
 20
347.778080
 30
0.0
  0
LWPOLYLINE
  5
16e
100
AcDbEntity
  8
0
 62
5
100
AcDbPolyline
 90
4
 70
1
 10
-80.607092
 20
345.407855
 30
0.0
 10
-80.025560
 20
345.407855
 30
0.0
 10
-80.025560
 20
344.707811
 30
0.0
 10
-80.607092
 20
344.707811
 30
0.0
  0
SPLINE
  5
16f
100
AcDbEntity
  8
0
 62
5
100
AcDbSpline
 70
0
 71
3
 72
31
 73
27
 74
25
 40
0.000000
 40
0.000000
 40
0.000000
 40
0.000000
 40
0.198745
 40
0.377701
 40
0.552033
 40
0.733625
 40
0.930322
 40
1.154145
 40
1.376443
 40
1.572264
 40
1.753601
 40
1.929885
 40
2.109528
 40
2.308342
 40
2.507157
 40
2.686800
 40
2.863084
 40
3.044421
 40
3.240242
 40
3.462540
 40
3.686363
 40
3.883060
 40
4.064652
 40
4.238984
 40
4.417940
 40
4.616686
 40
4.616686
 40
4.616686
 40
4.616686
 10
-83.771068
 20
347.778080
 30
0.0
 10
-83.767445
 20
347.711584
 30
0.0
 10
-83.760559
 20
347.585213
 30
0.0
 10
-83.691484
 20
347.410911
 30
0.0
 10
-83.577161
 20
347.270513
 30
0.0
 10
-83.419679
 20
347.169544
 30
0.0
 10
-83.225689
 20
347.110663
 30
0.0
 10
-83.010884
 20
347.094443
 30
0.0
 10
-82.796464
 20
347.110725
 30
0.0
 10
-82.603159
 20
347.169520
 30
0.0
 10
-82.446481
 20
347.271515
 30
0.0
 10
-82.328601
 20
347.410174
 30
0.0
 10
-82.259388
 20
347.584933
 30
0.0
 10
-82.240427
 20
347.778080
 30
0.0
 10
-82.259388
 20
347.971227
 30
0.0
 10
-82.328601
 20
348.145987
 30
0.0
 10
-82.446481
 20
348.284646
 30
0.0
 10
-82.603159
 20
348.386641
 30
0.0
 10
-82.796464
 20
348.445436
 30
0.0
 10
-83.010884
 20
348.461718
 30
0.0
 10
-83.225689
 20
348.445498
 30
0.0
 10
-83.419679
 20
348.386617
 30
0.0
 10
-83.577161
 20
348.285648
 30
0.0
 10
-83.691484
 20
348.145250
 30
0.0
 10
-83.760559
 20
347.970947
 30
0.0
 10
-83.767445
 20
347.844576
 30
0.0
 10
-83.771068
 20
347.778080
 30
0.0
 11
-83.771068
 21
347.778080
 31
0.0
 11
-83.749019
 21
347.580562
 31
0.0
 11
-83.682873
 21
347.414279
 31
0.0
 11
-83.572630
 21
347.279231
 31
0.0
 11
-83.420740
 21
347.179706
 31
0.0
 11
-83.233326
 21
347.119991
 31
0.0
 11
-83.010390
 21
347.100086
 31
0.0
 11
-82.788986
 21
347.119991
 31
0.0
 11
-82.602491
 21
347.179706
 31
0.0
 11
-82.450907
 21
347.279231
 31
0.0
 11
-82.337602
 21
347.414279
 31
0.0
 11
-82.269618
 21
347.580562
 31
0.0
 11
-82.246957
 21
347.778080
 31
0.0
 11
-82.269618
 21
347.975599
 31
0.0
 11
-82.337602
 21
348.141882
 31
0.0
 11
-82.450907
 21
348.276930
 31
0.0
 11
-82.602491
 21
348.376455
 31
0.0
 11
-82.788986
 21
348.436170
 31
0.0
 11
-83.010390
 21
348.456075
 31
0.0
 11
-83.233326
 21
348.436170
 31
0.0
 11
-83.420740
 21
348.376455
 31
0.0
 11
-83.572630
 21
348.276930
 31
0.0
 11
-83.682873
 21
348.141882
 31
0.0
 11
-83.749019
 21
347.975599
 31
0.0
 11
-83.771068
 21
347.778080
 31
0.0
  0
LWPOLYLINE
  5
170
100
AcDbEntity
  8
0
 62
5
100
AcDbPolyline
 90
5
 70
0
 10
-78.804618
 20
348.822633
 30
0.0
 10
-76.619049
 20
348.822633
 30
0.0
 10
-76.619049
 20
348.354100
 30
0.0
 10
-78.294744
 20
348.354100
 30
0.0
 10
-78.294744
 20
347.345376
 30
0.0
  0
SPLINE
  5
171
100
AcDbEntity
  8
0
 62
5
100
AcDbSpline
 70
0
 71
3
 72
31
 73
27
 74
25
 40
0.000000
 40
0.000000
 40
0.000000
 40
0.000000
 40
0.084655
 40
0.167987
 40
0.250269
 40
0.332037
 40
0.413215
 40
0.494098
 40
0.923650
 40
1.308608
 40
1.674759
 40
2.034167
 40
2.400444
 40
2.803177
 40
3.215785
 40
3.586833
 40
3.948188
 40
4.321834
 40
4.729197
 40
5.194921
 40
5.368929
 40
5.545929
 40
5.726438
 40
5.910040
 40
6.099890
 40
6.296371
 40
6.296371
 40
6.296371
 40
6.296371
 10
-78.294744
 20
347.345376
 30
0.0
 10
-78.267888
 20
347.354055
 30
0.0
 10
-78.214596
 20
347.371279
 30
0.0
 10
-78.133573
 20
347.391492
 30
0.0
 10
-78.052430
 20
347.406276
 30
0.0
 10
-77.971683
 20
347.419146
 30
0.0
 10
-77.890656
 20
347.426471
 30
0.0
 10
-77.693496
 20
347.431535
 30
0.0
 10
-77.393746
 20
347.404680
 30
0.0
 10
-77.016000
 20
347.279416
 30
0.0
 10
-76.707929
 20
347.064899
 30
0.0
 10
-76.477185
 20
346.776444
 30
0.0
 10
-76.340664
 20
346.419931
 30
0.0
 10
-76.302798
 20
346.024689
 30
0.0
 10
-76.340917
 20
345.627712
 30
0.0
 10
-76.480816
 20
345.266297
 30
0.0
 10
-76.719626
 20
344.977072
 30
0.0
 10
-77.045502
 20
344.769363
 30
0.0
 10
-77.447762
 20
344.649408
 30
0.0
 10
-77.797960
 20
344.623518
 30
0.0
 10
-78.070125
 20
344.631212
 30
0.0
 10
-78.246777
 20
344.646067
 30
0.0
 10
-78.425566
 20
344.670533
 30
0.0
 10
-78.606962
 20
344.705414
 30
0.0
 10
-78.791902
 20
344.749259
 30
0.0
 10
-78.915428
 20
344.785727
 30
0.0
 10
-78.978251
 20
344.804274
 30
0.0
 11
-78.294744
 21
347.345376
 31
0.0
 11
-78.213899
 21
347.370486
 31
0.0
 11
-78.133054
 21
347.390696
 31
0.0
 11
-78.052209
 21
347.406006
 31
0.0
 11
-77.971364
 21
347.418256
 31
0.0
 11
-77.890519
 21
347.425606
 31
0.0
 11
-77.809674
 21
347.428056
 31
0.0
 11
-77.382176
 21
347.386102
 31
0.0
 11
-77.018374
 21
347.260241
 31
0.0
 11
-76.718268
 21
347.050473
 31
0.0
 11
-76.494720
 21
346.769047
 31
0.0
 11
-76.360591
 21
346.428213
 31
0.0
 11
-76.315881
 21
346.027969
 31
0.0
 11
-76.361816
 21
345.617926
 31
0.0
 11
-76.499620
 21
345.273417
 31
0.0
 11
-76.729293
 21
344.994440
 31
0.0
 11
-77.042567
 21
344.790797
 31
0.0
 11
-77.431173
 21
344.668611
 31
0.0
 11
-77.895113
 21
344.627882
 31
0.0
 11
-78.069052
 21
344.632782
 31
0.0
 11
-78.245441
 21
344.647482
 31
0.0
 11
-78.424279
 21
344.671982
 31
0.0
 11
-78.604649
 21
344.706281
 31
0.0
 11
-78.789307
 21
344.750378
 31
0.0
 11
-78.978251
 21
344.804274
 31
0.0
  0
LWPOLYLINE
  5
172
100
AcDbEntity
  8
0
 62
5
100
AcDbPolyline
 90
2
 70
0
 10
-78.978251
 20
344.804274
 30
0.0
 10
-78.978251
 20
345.363758
 30
0.0
  0
SPLINE
  5
173
100
AcDbEntity
  8
0
 62
5
100
AcDbSpline
 70
0
 71
3
 72
31
 73
27
 74
25
 40
0.000000
 40
0.000000
 40
0.000000
 40
0.000000
 40
0.186393
 40
0.369959
 40
0.552021
 40
0.735497
 40
0.923291
 40
1.116662
 40
1.413790
 40
1.679032
 40
1.929076
 40
2.171820
 40
2.416975
 40
2.685489
 40
2.954003
 40
3.199158
 40
3.441902
 40
3.691947
 40
3.957188
 40
4.254316
 40
4.403247
 40
4.552991
 40
4.704350
 40
4.857661
 40
5.016868
 40
5.182703
 40
5.182703
 40
5.182703
 40
5.182703
 10
-78.978251
 20
345.363758
 30
0.0
 10
-78.922980
 20
345.335300
 30
0.0
 10
-78.813277
 20
345.278817
 30
0.0
 10
-78.641419
 20
345.212150
 30
0.0
 10
-78.465831
 20
345.159828
 30
0.0
 10
-78.284851
 20
345.122977
 30
0.0
 10
-78.097680
 20
345.101249
 30
0.0
 10
-77.871659
 20
345.092010
 30
0.0
 10
-77.618881
 20
345.111361
 30
0.0
 10
-77.358029
 20
345.194798
 30
0.0
 10
-77.144882
 20
345.336628
 30
0.0
 10
-76.984743
 20
345.528345
 30
0.0
 10
-76.889860
 20
345.766232
 30
0.0
 10
-76.863590
 20
346.027968
 30
0.0
 10
-76.889860
 20
346.289703
 30
0.0
 10
-76.984743
 20
346.527594
 30
0.0
 10
-77.144882
 20
346.719298
 30
0.0
 10
-77.358030
 20
346.861179
 30
0.0
 10
-77.618875
 20
346.944405
 30
0.0
 10
-77.856815
 20
346.963353
 30
0.0
 10
-78.055359
 20
346.955808
 30
0.0
 10
-78.204585
 20
346.939151
 30
0.0
 10
-78.353702
 20
346.911730
 30
0.0
 10
-78.503212
 20
346.871794
 30
0.0
 10
-78.654371
 20
346.820514
 30
0.0
 10
-78.753859
 20
346.777512
 30
0.0
 10
-78.804618
 20
346.755572
 30
0.0
 11
-78.978251
 21
345.363758
 31
0.0
 11
-78.811049
 21
345.281382
 31
0.0
 11
-78.640172
 21
345.214317
 31
0.0
 11
-78.465621
 21
345.162564
 31
0.0
 11
-78.285863
 21
345.125814
 31
0.0
 11
-78.099369
 21
345.103764
 31
0.0
 11
-77.906137
 21
345.096414
 31
0.0
 11
-77.610318
 21
345.124281
 31
0.0
 11
-77.358597
 21
345.207882
 31
0.0
 11
-77.150972
 21
345.347217
 31
0.0
 11
-76.996325
 21
345.534324
 31
0.0
 11
-76.903537
 21
345.761241
 31
0.0
 11
-76.872608
 21
346.027968
 31
0.0
 11
-76.903537
 21
346.294695
 31
0.0
 11
-76.996325
 21
346.521612
 31
0.0
 11
-77.150972
 21
346.708719
 31
0.0
 11
-77.358597
 21
346.848054
 31
0.0
 11
-77.610318
 21
346.931655
 31
0.0
 11
-77.906137
 21
346.959522
 31
0.0
 11
-78.054965
 21
346.954010
 31
0.0
 11
-78.203793
 21
346.937473
 31
0.0
 11
-78.352622
 21
346.909912
 31
0.0
 11
-78.500838
 21
346.870714
 31
0.0
 11
-78.651503
 21
346.819268
 31
0.0
 11
-78.804618
 21
346.755572
 31
0.0
  0
LWPOLYLINE
  5
174
100
AcDbEntity
  8
0
 62
5
100
AcDbPolyline
 90
2
 70
0
 10
-78.804618
 20
346.755572
 30
0.0
 10
-78.804618
 20
348.822633
 30
0.0
  0
SPLINE
  5
175
100
AcDbEntity
  8
0
 62
5
100
AcDbSpline
 70
0
 71
3
 72
19
 73
15
 74
13
 40
0.000000
 40
0.000000
 40
0.000000
 40
0.000000
 40
0.247938
 40
0.474306
 40
0.685796
 40
0.893294
 40
1.107877
 40
1.337039
 40
1.636461
 40
1.909034
 40
2.183059
 40
2.477506
 40
2.808910
 40
3.193413
 40
3.193413
 40
3.193413
 40
3.193413
 10
-72.884566
 20
347.202060
 30
0.0
 10
-72.841793
 20
347.272949
 30
0.0
 10
-72.759968
 20
347.408560
 30
0.0
 10
-72.606053
 20
347.579579
 30
0.0
 10
-72.434854
 20
347.711963
 30
0.0
 10
-72.243149
 20
347.804182
 30
0.0
 10
-72.031539
 20
347.858175
 30
0.0
 10
-71.783701
 20
347.876795
 30
0.0
 10
-71.514975
 20
347.848453
 30
0.0
 10
-71.252398
 20
347.731414
 30
0.0
 10
-71.047058
 20
347.533081
 30
0.0
 10
-70.900624
 20
347.267309
 30
0.0
 10
-70.814266
 20
346.938285
 30
0.0
 10
-70.805617
 20
346.699283
 30
0.0
 10
-70.800972
 20
346.570919
 30
0.0
 11
-72.884566
 21
347.202060
 31
0.0
 11
-72.749518
 21
347.409991
 31
0.0
 11
-72.597934
 21
347.578112
 31
0.0
 11
-72.429813
 21
347.706422
 31
0.0
 11
-72.243012
 21
347.796760
 31
0.0
 11
-72.035388
 21
347.850963
 31
0.0
 11
-71.806940
 21
347.869031
 31
0.0
 11
-71.509896
 21
347.831365
 31
0.0
 11
-71.261849
 21
347.718366
 31
0.0
 11
-71.062799
 21
347.530034
 31
0.0
 11
-70.917340
 21
347.274025
 31
0.0
 11
-70.830064
 21
346.954320
 31
0.0
 11
-70.800972
 21
346.570919
 31
0.0
  0
LWPOLYLINE
  5
176
100
AcDbEntity
  8
0
 62
5
100
AcDbPolyline
 90
4
 70
0
 10
-70.800972
 20
346.570919
 30
0.0
 10
-70.800972
 20
344.707811
 30
0.0
 10
-71.310846
 20
344.707811
 30
0.0
 10
-71.310846
 20
346.554383
 30
0.0
  0
SPLINE
  5
177
100
AcDbEntity
  8
0
 62
5
100
AcDbSpline
 70
0
 71
3
 72
19
 73
15
 74
13
 40
0.000000
 40
0.000000
 40
0.000000
 40
0.000000
 40
0.270964
 40
0.496690
 40
0.686658
 40
0.858176
 40
1.033355
 40
1.231400
 40
1.477498
 40
1.702720
 40
1.927125
 40
2.160453
 40
2.410313
 40
2.691664
 40
2.691664
 40
2.691664
 40
2.691664
 10
-71.310846
 20
346.554383
 30
0.0
 10
-71.313530
 20
346.644819
 30
0.0
 10
-71.318450
 20
346.810592
 30
0.0
 10
-71.368930
 20
347.035560
 30
0.0
 10
-71.455734
 20
347.213943
 30
0.0
 10
-71.586035
 20
347.342228
 30
0.0
 10
-71.756185
 20
347.415706
 30
0.0
 10
-71.963621
 20
347.435606
 30
0.0
 10
-72.187618
 20
347.411610
 30
0.0
 10
-72.405645
 20
347.322267
 30
0.0
 10
-72.580897
 20
347.171176
 30
0.0
 10
-72.709510
 20
346.970131
 30
0.0
 10
-72.787091
 20
346.723875
 30
0.0
 10
-72.794960
 20
346.546404
 30
0.0
 10
-72.799128
 20
346.452408
 30
0.0
 11
-71.310846
 21
346.554383
 31
0.0
 11
-71.328301
 21
346.824785
 31
0.0
 11
-71.380667
 21
347.044352
 31
0.0
 11
-71.467943
 21
347.213085
 31
0.0
 11
-71.591048
 21
347.332515
 31
0.0
 11
-71.750900
 21
347.404173
 31
0.0
 11
-71.947500
 21
347.428059
 31
0.0
 11
-72.191872
 21
347.398967
 31
0.0
 11
-72.399496
 21
347.311691
 31
0.0
 11
-72.570373
 21
347.166231
 31
0.0
 11
-72.697459
 21
346.970550
 31
0.0
 11
-72.773711
 21
346.732609
 31
0.0
 11
-72.799128
 21
346.452408
 31
0.0
  0
LWPOLYLINE
  5
178
100
AcDbEntity
  8
0
 62
5
100
AcDbPolyline
 90
4
 70
0
 10
-72.799128
 20
346.452408
 30
0.0
 10
-72.799128
 20
344.707811
 30
0.0
 10
-73.309002
 20
344.707811
 30
0.0
 10
-73.309002
 20
346.554383
 30
0.0
  0
SPLINE
  5
179
100
AcDbEntity
  8
0
 62
5
100
AcDbSpline
 70
0
 71
3
 72
19
 73
15
 74
13
 40
0.000000
 40
0.000000
 40
0.000000
 40
0.000000
 40
0.272187
 40
0.497912
 40
0.686793
 40
0.858751
 40
1.035608
 40
1.236695
 40
1.479788
 40
1.703678
 40
1.928614
 40
2.161686
 40
2.410671
 40
2.690498
 40
2.690498
 40
2.690498
 40
2.690498
 10
-73.309002
 20
346.554383
 30
0.0
 10
-73.311685
 20
346.645217
 30
0.0
 10
-73.316592
 20
346.811379
 30
0.0
 10
-73.366782
 20
347.036537
 30
0.0
 10
-73.454266
 20
347.214329
 30
0.0
 10
-73.585082
 20
347.342645
 30
0.0
 10
-73.757302
 20
347.415747
 30
0.0
 10
-73.965243
 20
347.435626
 30
0.0
 10
-74.188862
 20
347.411349
 30
0.0
 10
-74.405087
 20
347.320644
 30
0.0
 10
-74.578522
 20
347.168271
 30
0.0
 10
-74.707628
 20
346.967963
 30
0.0
 10
-74.785186
 20
346.722542
 30
0.0
 10
-74.793097
 20
346.545887
 30
0.0
 10
-74.797283
 20
346.452408
 30
0.0
 11
-73.309002
 21
346.554383
 31
0.0
 11
-73.326457
 21
346.826009
 31
0.0
 11
-73.378822
 21
347.045577
 31
0.0
 11
-73.466098
 21
347.213085
 31
0.0
 11
-73.589815
 21
347.332515
 31
0.0
 11
-73.751505
 21
347.404173
 31
0.0
 11
-73.951168
 21
347.428059
 31
0.0
 11
-74.192477
 21
347.398661
 31
0.0
 11
-74.398264
 21
347.310466
 31
0.0
 11
-74.568529
 21
347.163475
 31
0.0
 11
-74.695615
 21
346.968100
 31
0.0
 11
-74.771866
 21
346.731078
 31
0.0
 11
-74.797283
 21
346.452408
 31
0.0
  0
LWPOLYLINE
  5
17a
100
AcDbEntity
  8
0
 62
5
100
AcDbPolyline
 90
6
 70
0
 10
-74.797283
 20
346.452408
 30
0.0
 10
-74.797283
 20
344.707811
 30
0.0
 10
-75.307157
 20
344.707811
 30
0.0
 10
-75.307157
 20
347.794617
 30
0.0
 10
-74.797283
 20
347.794617
 30
0.0
 10
-74.797283
 20
347.315060
 30
0.0
  0
SPLINE
  5
17b
100
AcDbEntity
  8
0
 62
5
100
AcDbSpline
 70
0
 71
3
 72
19
 73
15
 74
13
 40
0.000000
 40
0.000000
 40
0.000000
 40
0.000000
 40
0.212274
 40
0.409108
 40
0.596414
 40
0.783877
 40
0.981090
 40
1.193837
 40
1.407513
 40
1.606029
 40
1.798567
 40
1.993458
 40
2.195839
 40
2.414486
 40
2.414486
 40
2.414486
 40
2.414486
 10
-74.797283
 20
347.315060
 30
0.0
 10
-74.758054
 20
347.374113
 30
0.0
 10
-74.682449
 20
347.487924
 30
0.0
 10
-74.541237
 20
347.629770
 30
0.0
 10
-74.384183
 20
347.739524
 30
0.0
 10
-74.208014
 20
347.815682
 30
0.0
 10
-74.012913
 20
347.860085
 30
0.0
 10
-73.804829
 20
347.874196
 30
0.0
 10
-73.596057
 20
347.858049
 30
0.0
 10
-73.400983
 20
347.800862
 30
0.0
 10
-73.229654
 20
347.703524
 30
0.0
 10
-73.083370
 20
347.570036
 30
0.0
 10
-72.963628
 20
347.400721
 30
0.0
 10
-72.911590
 20
347.269964
 30
0.0
 10
-72.884566
 20
347.202060
 30
0.0
 11
-74.797283
 21
347.315060
 31
0.0
 11
-74.673872
 21
347.487774
 31
0.0
 11
-74.535149
 21
347.627415
 31
0.0
 11
-74.381115
 21
347.733983
 31
0.0
 11
-74.209320
 21
347.809010
 31
0.0
 11
-74.017314
 21
347.854026
 31
0.0
 11
-73.805096
 21
347.869031
 31
0.0
 11
-73.592265
 21
347.850045
 31
0.0
 11
-73.402096
 21
347.793086
 31
0.0
 11
-73.234588
 21
347.698154
 31
0.0
 11
-73.090353
 21
347.567087
 31
0.0
 11
-72.973679
 21
347.401722
 31
0.0
 11
-72.884566
 21
347.202060
 31
0.0
  0
LWPOLYLINE
  5
17c
100
AcDbEntity
  8
0
 62
5
100
AcDbPolyline
 90
1
 70
1
 10
-72.884566
 20
347.202060
 30
0.0
  0
SPLINE
  5
17d
100
AcDbEntity
  8
0
 62
5
100
AcDbSpline
 70
0
 71
3
 72
19
 73
15
 74
13
 40
0.000000
 40
0.000000
 40
0.000000
 40
0.000000
 40
0.247938
 40
0.474306
 40
0.685796
 40
0.893294
 40
1.107877
 40
1.337039
 40
1.636461
 40
1.909034
 40
2.183059
 40
2.477506
 40
2.808910
 40
3.193413
 40
3.193413
 40
3.193413
 40
3.193413
 10
-67.383438
 20
347.202060
 30
0.0
 10
-67.340665
 20
347.272949
 30
0.0
 10
-67.258840
 20
347.408560
 30
0.0
 10
-67.104925
 20
347.579579
 30
0.0
 10
-66.933726
 20
347.711963
 30
0.0
 10
-66.742021
 20
347.804182
 30
0.0
 10
-66.530411
 20
347.858175
 30
0.0
 10
-66.282573
 20
347.876795
 30
0.0
 10
-66.013847
 20
347.848453
 30
0.0
 10
-65.751270
 20
347.731414
 30
0.0
 10
-65.545930
 20
347.533081
 30
0.0
 10
-65.399496
 20
347.267309
 30
0.0
 10
-65.313138
 20
346.938285
 30
0.0
 10
-65.304489
 20
346.699283
 30
0.0
 10
-65.299844
 20
346.570919
 30
0.0
 11
-67.383438
 21
347.202060
 31
0.0
 11
-67.248390
 21
347.409991
 31
0.0
 11
-67.096806
 21
347.578112
 31
0.0
 11
-66.928685
 21
347.706422
 31
0.0
 11
-66.741884
 21
347.796760
 31
0.0
 11
-66.534260
 21
347.850963
 31
0.0
 11
-66.305812
 21
347.869031
 31
0.0
 11
-66.008768
 21
347.831365
 31
0.0
 11
-65.760721
 21
347.718366
 31
0.0
 11
-65.561671
 21
347.530034
 31
0.0
 11
-65.416212
 21
347.274025
 31
0.0
 11
-65.328936
 21
346.954320
 31
0.0
 11
-65.299844
 21
346.570919
 31
0.0
  0
LWPOLYLINE
  5
17e
100
AcDbEntity
  8
0
 62
5
100
AcDbPolyline
 90
4
 70
0
 10
-65.299844
 20
346.570919
 30
0.0
 10
-65.299844
 20
344.707811
 30
0.0
 10
-65.809718
 20
344.707811
 30
0.0
 10
-65.809718
 20
346.554383
 30
0.0
  0
SPLINE
  5
17f
100
AcDbEntity
  8
0
 62
5
100
AcDbSpline
 70
0
 71
3
 72
19
 73
15
 74
13
 40
0.000000
 40
0.000000
 40
0.000000
 40
0.000000
 40
0.270964
 40
0.496690
 40
0.686658
 40
0.858176
 40
1.033355
 40
1.231400
 40
1.477498
 40
1.702720
 40
1.927125
 40
2.160453
 40
2.410313
 40
2.691664
 40
2.691664
 40
2.691664
 40
2.691664
 10
-65.809718
 20
346.554383
 30
0.0
 10
-65.812402
 20
346.644819
 30
0.0
 10
-65.817322
 20
346.810592
 30
0.0
 10
-65.867802
 20
347.035560
 30
0.0
 10
-65.954606
 20
347.213943
 30
0.0
 10
-66.084907
 20
347.342228
 30
0.0
 10
-66.255057
 20
347.415706
 30
0.0
 10
-66.462493
 20
347.435606
 30
0.0
 10
-66.686490
 20
347.411610
 30
0.0
 10
-66.904517
 20
347.322267
 30
0.0
 10
-67.079769
 20
347.171176
 30
0.0
 10
-67.208382
 20
346.970131
 30
0.0
 10
-67.285962
 20
346.723875
 30
0.0
 10
-67.293831
 20
346.546404
 30
0.0
 10
-67.297999
 20
346.452408
 30
0.0
 11
-65.809718
 21
346.554383
 31
0.0
 11
-65.827173
 21
346.824785
 31
0.0
 11
-65.879539
 21
347.044352
 31
0.0
 11
-65.966815
 21
347.213085
 31
0.0
 11
-66.089920
 21
347.332515
 31
0.0
 11
-66.249772
 21
347.404173
 31
0.0
 11
-66.446372
 21
347.428059
 31
0.0
 11
-66.690744
 21
347.398967
 31
0.0
 11
-66.898368
 21
347.311691
 31
0.0
 11
-67.069245
 21
347.166231
 31
0.0
 11
-67.196331
 21
346.970550
 31
0.0
 11
-67.272582
 21
346.732609
 31
0.0
 11
-67.297999
 21
346.452408
 31
0.0
  0
LWPOLYLINE
  5
180
100
AcDbEntity
  8
0
 62
5
100
AcDbPolyline
 90
4
 70
0
 10
-67.297999
 20
346.452408
 30
0.0
 10
-67.297999
 20
344.707811
 30
0.0
 10
-67.807874
 20
344.707811
 30
0.0
 10
-67.807874
 20
346.554383
 30
0.0
  0
SPLINE
  5
181
100
AcDbEntity
  8
0
 62
5
100
AcDbSpline
 70
0
 71
3
 72
19
 73
15
 74
13
 40
0.000000
 40
0.000000
 40
0.000000
 40
0.000000
 40
0.272187
 40
0.497912
 40
0.686793
 40
0.858751
 40
1.035608
 40
1.236694
 40
1.479788
 40
1.703677
 40
1.928614
 40
2.161685
 40
2.410671
 40
2.690497
 40
2.690497
 40
2.690497
 40
2.690497
 10
-67.807874
 20
346.554383
 30
0.0
 10
-67.810557
 20
346.645217
 30
0.0
 10
-67.815464
 20
346.811379
 30
0.0
 10
-67.865654
 20
347.036537
 30
0.0
 10
-67.953138
 20
347.214329
 30
0.0
 10
-68.083954
 20
347.342645
 30
0.0
 10
-68.256173
 20
347.415747
 30
0.0
 10
-68.464114
 20
347.435626
 30
0.0
 10
-68.687733
 20
347.411349
 30
0.0
 10
-68.903958
 20
347.320645
 30
0.0
 10
-69.077393
 20
347.168271
 30
0.0
 10
-69.206499
 20
346.967964
 30
0.0
 10
-69.284057
 20
346.722543
 30
0.0
 10
-69.291969
 20
346.545887
 30
0.0
 10
-69.296155
 20
346.452408
 30
0.0
 11
-67.807874
 21
346.554383
 31
0.0
 11
-67.825329
 21
346.826009
 31
0.0
 11
-67.877694
 21
347.045577
 31
0.0
 11
-67.964970
 21
347.213085
 31
0.0
 11
-68.088687
 21
347.332515
 31
0.0
 11
-68.250377
 21
347.404173
 31
0.0
 11
-68.450039
 21
347.428059
 31
0.0
 11
-68.691349
 21
347.398661
 31
0.0
 11
-68.897136
 21
347.310466
 31
0.0
 11
-69.067400
 21
347.163475
 31
0.0
 11
-69.194486
 21
346.968100
 31
0.0
 11
-69.270738
 21
346.731078
 31
0.0
 11
-69.296155
 21
346.452408
 31
0.0
  0
LWPOLYLINE
  5
182
100
AcDbEntity
  8
0
 62
5
100
AcDbPolyline
 90
6
 70
0
 10
-69.296155
 20
346.452408
 30
0.0
 10
-69.296155
 20
344.707811
 30
0.0
 10
-69.806029
 20
344.707811
 30
0.0
 10
-69.806029
 20
347.794617
 30
0.0
 10
-69.296155
 20
347.794617
 30
0.0
 10
-69.296155
 20
347.315060
 30
0.0
  0
LWPOLYLINE
  5
183
100
AcDbEntity
  8
0
 62
5
100
AcDbPolyline
 90
1
 70
1
 10
-67.383438
 20
347.202060
 30
0.0
  0
LWPOLYLINE
  5
184
100
AcDbEntity
  8
0
 62
5
100
AcDbPolyline
 90
2
 70
0
 10
177.700432
 20
341.080470
 30
0.0
 10
205.850272
 20
341.080470
 30
0.0
  0
LWPOLYLINE
  5
185
100
AcDbEntity
  8
0
 62
5
100
AcDbPolyline
 90
2
 70
0
 10
206.252262
 20
354.309640
 30
0.0
 10
206.252262
 20
332.664480
 30
0.0
  0
SPLINE
  5
186
100
AcDbEntity
  8
0
 62
5
100
AcDbSpline
 70
0
 71
3
 72
19
 73
15
 74
13
 40
0.000000
 40
0.000000
 40
0.000000
 40
0.000000
 40
0.212274
 40
0.409108
 40
0.596414
 40
0.783877
 40
0.981090
 40
1.193838
 40
1.407514
 40
1.606030
 40
1.798568
 40
1.993458
 40
2.195840
 40
2.414486
 40
2.414486
 40
2.414486
 40
2.414486
 10
-69.296155
 20
347.315060
 30
0.0
 10
-69.256926
 20
347.374113
 30
0.0
 10
-69.181321
 20
347.487924
 30
0.0
 10
-69.040109
 20
347.629770
 30
0.0
 10
-68.883055
 20
347.739524
 30
0.0
 10
-68.706886
 20
347.815682
 30
0.0
 10
-68.511785
 20
347.860085
 30
0.0
 10
-68.303700
 20
347.874196
 30
0.0
 10
-68.094929
 20
347.858049
 30
0.0
 10
-67.899854
 20
347.800862
 30
0.0
 10
-67.728525
 20
347.703524
 30
0.0
 10
-67.582241
 20
347.570036
 30
0.0
 10
-67.462500
 20
347.400721
 30
0.0
 10
-67.410462
 20
347.269964
 30
0.0
 10
-67.383438
 20
347.202060
 30
0.0
 11
-69.296155
 21
347.315060
 31
0.0
 11
-69.172744
 21
347.487774
 31
0.0
 11
-69.034021
 21
347.627415
 31
0.0
 11
-68.879987
 21
347.733983
 31
0.0
 11
-68.708192
 21
347.809010
 31
0.0
 11
-68.516185
 21
347.854026
 31
0.0
 11
-68.303967
 21
347.869031
 31
0.0
 11
-68.091137
 21
347.850045
 31
0.0
 11
-67.900967
 21
347.793086
 31
0.0
 11
-67.733459
 21
347.698154
 31
0.0
 11
-67.589225
 21
347.567087
 31
0.0
 11
-67.472551
 21
347.401722
 31
0.0
 11
-67.383438
 21
347.202060
 31
0.0
  0
LWPOLYLINE
  5
187
100
AcDbEntity
  8
0
 62
5
100
AcDbPolyline
 90
5
 70
0
 10
180.787102
 20
345.176344
 30
0.0
 10
182.730132
 20
345.176344
 30
0.0
 10
182.730132
 20
344.707811
 30
0.0
 10
180.117372
 20
344.707811
 30
0.0
 10
180.117372
 20
345.176344
 30
0.0
  0
SPLINE
  5
188
100
AcDbEntity
  8
0
 62
5
100
AcDbSpline
 70
0
 71
3
 72
31
 73
27
 74
25
 40
0.000000
 40
0.000000
 40
0.000000
 40
0.000000
 40
0.339565
 40
0.750139
 40
1.231728
 40
1.688421
 40
2.019126
 40
2.223911
 40
2.472304
 40
2.681961
 40
2.854275
 40
3.005305
 40
3.146801
 40
3.282376
 40
3.489157
 40
3.683373
 40
3.881936
 40
4.085536
 40
4.296463
 40
4.528194
 40
4.706402
 40
4.893531
 40
5.091481
 40
5.301389
 40
5.527592
 40
5.771128
 40
5.771128
 40
5.771128
 40
5.771128
 10
180.117372
 20
345.176344
 30
0.0
 10
180.196204
 20
345.257567
 30
0.0
 10
180.370354
 20
345.436997
 30
0.0
 10
180.658071
 20
345.729902
 30
0.0
 10
180.974259
 20
346.049561
 30
0.0
 10
181.271350
 20
346.350664
 30
0.0
 10
181.501740
 20
346.587952
 30
0.0
 10
181.680054
 20
346.778995
 30
0.0
 10
181.823011
 20
346.947621
 30
0.0
 10
181.948837
 20
347.116147
 30
0.0
 10
182.041023
 20
347.268500
 30
0.0
 10
182.103235
 20
347.410941
 30
0.0
 10
182.140316
 20
347.549454
 30
0.0
 10
182.154304
 20
347.710773
 30
0.0
 10
182.133401
 20
347.890643
 30
0.0
 10
182.053630
 20
348.077289
 30
0.0
 10
181.921499
 20
348.229381
 30
0.0
 10
181.751127
 20
348.346415
 30
0.0
 10
181.544430
 20
348.415682
 30
0.0
 10
181.336764
 20
348.433393
 30
0.0
 10
181.137789
 20
348.421228
 30
0.0
 10
180.952268
 20
348.390301
 30
0.0
 10
180.760312
 20
348.339289
 30
0.0
 10
180.561570
 20
348.266774
 30
0.0
 10
180.354290
 20
348.174794
 30
0.0
 10
180.216414
 20
348.100483
 30
0.0
 10
180.144932
 20
348.061956
 30
0.0
 11
180.117372
 21
345.176344
 31
0.0
 11
180.354089
 21
345.419797
 31
0.0
 11
180.641639
 21
345.712860
 31
0.0
 11
180.980022
 21
346.055533
 31
0.0
 11
181.300340
 21
346.381056
 31
0.0
 11
181.530013
 21
346.618997
 31
0.0
 11
181.669042
 21
346.769356
 31
0.0
 11
181.829201
 21
346.959219
 31
0.0
 11
181.953224
 21
347.128259
 31
0.0
 11
182.041112
 21
347.276475
 31
0.0
 11
182.100829
 21
347.415197
 31
0.0
 11
182.136659
 21
347.552082
 31
0.0
 11
182.148602
 21
347.687130
 31
0.0
 11
182.122879
 21
347.892305
 31
0.0
 11
182.045709
 21
348.070531
 31
0.0
 11
181.917092
 21
348.221809
 31
0.0
 11
181.748969
 21
348.336645
 31
0.0
 11
181.549612
 21
348.405547
 31
0.0
 11
181.319022
 21
348.428514
 31
0.0
 11
181.141101
 21
348.418408
 31
0.0
 11
180.956444
 21
348.388092
 31
0.0
 11
180.765052
 21
348.337564
 31
0.0
 11
180.567532
 21
348.266519
 31
0.0
 11
180.360825
 21
348.174649
 31
0.0
 11
180.144932
 21
348.061956
 31
0.0
  0
LWPOLYLINE
  5
189
100
AcDbEntity
  8
0
 62
5
100
AcDbPolyline
 90
2
 70
0
 10
180.144932
 20
348.061956
 30
0.0
 10
180.144932
 20
348.624196
 30
0.0
  0
SPLINE
  5
18a
100
AcDbEntity
  8
0
 62
5
100
AcDbSpline
 70
0
 71
3
 72
31
 73
27
 74
25
 40
0.000000
 40
0.000000
 40
0.000000
 40
0.000000
 40
0.234333
 40
0.454552
 40
0.661205
 40
0.854287
 40
1.033987
 40
1.201366
 40
1.600437
 40
1.956664
 40
2.290225
 40
2.607758
 40
2.919497
 40
3.254738
 40
3.421366
 40
3.585324
 40
3.749578
 40
3.928297
 40
4.140317
 40
4.387453
 40
4.505159
 40
4.717664
 40
5.024996
 40
5.426275
 40
5.923263
 40
6.515959
 40
6.515959
 40
6.515959
 40
6.515959
 10
180.144932
 20
348.624196
 30
0.0
 10
180.217756
 20
348.652480
 30
0.0
 10
180.359019
 20
348.707345
 30
0.0
 10
180.568819
 20
348.775274
 30
0.0
 10
180.768439
 20
348.829109
 30
0.0
 10
180.957795
 20
348.867809
 30
0.0
 10
181.136495
 20
348.891577
 30
0.0
 10
181.385161
 20
348.902525
 30
0.0
 10
181.693695
 20
348.877269
 30
0.0
 10
182.044718
 20
348.772210
 30
0.0
 10
182.333189
 20
348.592515
 30
0.0
 10
182.552368
 20
348.351374
 30
0.0
 10
182.683772
 20
348.052004
 30
0.0
 10
182.714733
 20
347.779031
 30
0.0
 10
182.701217
 20
347.557121
 30
0.0
 10
182.668766
 20
347.394814
 30
0.0
 10
182.613287
 20
347.234683
 30
0.0
 10
182.529349
 20
347.069197
 30
0.0
 10
182.411600
 20
346.891997
 30
0.0
 10
182.297686
 20
346.736537
 30
0.0
 10
182.166242
 20
346.595810
 30
0.0
 10
182.020087
 20
346.441594
 30
0.0
 10
181.807433
 20
346.220086
 30
0.0
 10
181.526661
 20
345.932581
 30
0.0
 10
181.179510
 20
345.576934
 30
0.0
 10
180.925320
 20
345.317470
 30
0.0
 10
180.787062
 20
345.176343
 30
0.0
 11
180.144932
 21
348.624196
 31
0.0
 11
180.364193
 21
348.706878
 31
0.0
 11
180.573656
 21
348.774862
 31
0.0
 11
180.773322
 21
348.828146
 31
0.0
 11
180.962571
 21
348.866424
 31
0.0
 11
181.140798
 21
348.889390
 31
0.0
 11
181.308002
 21
348.897046
 31
0.0
 11
181.705489
 21
348.861523
 31
0.0
 11
182.045402
 21
348.754955
 31
0.0
 11
182.327742
 21
348.577342
 31
0.0
 11
182.539042
 21
348.340319
 31
0.0
 11
182.665822
 21
348.055525
 31
0.0
 11
182.708082
 21
347.722958
 31
0.0
 11
182.697360
 21
347.556675
 31
0.0
 11
182.665193
 21
347.395904
 31
0.0
 11
182.611582
 21
347.240645
 31
0.0
 11
182.531659
 21
347.080792
 31
0.0
 11
182.416822
 21
346.902566
 31
0.0
 11
182.267072
 21
346.705966
 31
0.0
 11
182.187759
 21
346.618995
 31
0.0
 11
182.041685
 21
346.464654
 31
0.0
 11
181.828852
 21
346.242945
 31
0.0
 11
181.548960
 21
345.955394
 31
0.0
 11
181.201696
 21
345.599860
 31
0.0
 11
180.787062
 21
345.176343
 31
0.0
  0
LWPOLYLINE
  5
18b
100
AcDbEntity
  8
0
 62
5
100
AcDbPolyline
 90
1
 70
1
 10
180.787062
 20
345.176343
 30
0.0
  0
SPLINE
  5
18c
100
AcDbEntity
  8
0
 62
5
100
AcDbSpline
 70
0
 71
3
 72
31
 73
27
 74
25
 40
0.000000
 40
0.000000
 40
0.000000
 40
0.000000
 40
0.247033
 40
0.467248
 40
0.675101
 40
0.877886
 40
1.086711
 40
1.318362
 40
1.550012
 40
1.758836
 40
1.961621
 40
2.169475
 40
2.389689
 40
2.636722
 40
2.883752
 40
3.103966
 40
3.311823
 40
3.516516
 40
3.725673
 40
3.956139
 40
4.187823
 40
4.396980
 40
4.600715
 40
4.807563
 40
5.027777
 40
5.276027
 40
5.276027
 40
5.276027
 40
5.276027
 10
185.092092
 20
346.661870
 30
0.0
 10
185.009526
 20
346.658007
 30
0.0
 10
184.853359
 20
346.650700
 30
0.0
 10
184.636981
 20
346.578163
 30
0.0
 10
184.460534
 20
346.458680
 30
0.0
 10
184.330523
 20
346.293852
 30
0.0
 10
184.254210
 20
346.090195
 30
0.0
 10
184.233232
 20
345.865361
 30
0.0
 10
184.254210
 20
345.640540
 30
0.0
 10
184.330523
 20
345.436849
 30
0.0
 10
184.460534
 20
345.272144
 30
0.0
 10
184.636981
 20
345.152182
 30
0.0
 10
184.853358
 20
345.081622
 30
0.0
 10
185.092093
 20
345.062106
 30
0.0
 10
185.330813
 20
345.081631
 30
0.0
 10
185.547229
 20
345.152151
 30
0.0
 10
185.724079
 20
345.272620
 30
0.0
 10
185.854849
 20
345.437602
 30
0.0
 10
185.932432
 20
345.641185
 30
0.0
 10
185.953825
 20
345.865782
 30
0.0
 10
185.932495
 20
346.090313
 30
0.0
 10
185.855246
 20
346.294264
 30
0.0
 10
185.723706
 20
346.457787
 30
0.0
 10
185.548358
 20
346.578596
 30
0.0
 10
185.331581
 20
346.650735
 30
0.0
 10
185.175044
 20
346.658013
 30
0.0
 10
185.092092
 20
346.661870
 30
0.0
 11
185.092092
 21
346.661870
 31
0.0
 11
184.846186
 21
346.638290
 31
0.0
 11
184.637643
 21
346.567551
 31
0.0
 11
184.466462
 21
346.449652
 31
0.0
 11
184.340906
 21
346.290412
 31
0.0
 11
184.265573
 21
346.095649
 31
0.0
 11
184.240462
 21
345.865363
 31
0.0
 11
184.265573
 21
345.635078
 31
0.0
 11
184.340906
 21
345.440315
 31
0.0
 11
184.466462
 21
345.281075
 31
0.0
 11
184.637643
 21
345.163176
 31
0.0
 11
184.846186
 21
345.092437
 31
0.0
 11
185.092092
 21
345.068857
 31
0.0
 11
185.337993
 21
345.092437
 31
0.0
 11
185.546536
 21
345.163176
 31
0.0
 11
185.717722
 21
345.281075
 31
0.0
 11
185.844805
 21
345.441540
 31
0.0
 11
185.921055
 21
345.636303
 31
0.0
 11
185.946472
 21
345.865363
 31
0.0
 11
185.921055
 21
346.095649
 31
0.0
 11
185.844805
 21
346.290412
 31
0.0
 11
185.717722
 21
346.449652
 31
0.0
 11
185.547763
 21
346.567551
 31
0.0
 11
185.339220
 21
346.638290
 31
0.0
 11
185.092092
 21
346.661870
 31
0.0
  0
SPLINE
  5
18d
100
AcDbEntity
  8
0
 62
5
100
AcDbSpline
 70
0
 71
3
 72
31
 73
27
 74
25
 40
0.000000
 40
0.000000
 40
0.000000
 40
0.000000
 40
0.234166
 40
0.451276
 40
0.661787
 40
0.869015
 40
1.079059
 40
1.303388
 40
1.611774
 40
1.896744
 40
2.185937
 40
2.494220
 40
2.829658
 40
3.210108
 40
3.591776
 40
3.927214
 40
4.234451
 40
4.523644
 40
4.808613
 40
5.117000
 40
5.341359
 40
5.551694
 40
5.759743
 40
5.968931
 40
6.184466
 40
6.416899
 40
6.416899
 40
6.416899
 40
6.416899
 10
184.535362
 20
346.898892
 30
0.0
 10
184.460277
 20
346.921137
 30
0.0
 10
184.315578
 20
346.964007
 30
0.0
 10
184.124342
 20
347.078694
 30
0.0
 10
183.969854
 20
347.225950
 30
0.0
 10
183.857485
 20
347.405096
 30
0.0
 10
183.790325
 20
347.610346
 30
0.0
 10
183.768670
 20
347.858396
 30
0.0
 10
183.799548
 20
348.132522
 30
0.0
 10
183.920430
 20
348.406356
 30
0.0
 10
184.123373
 20
348.625972
 30
0.0
 10
184.394437
 20
348.786135
 30
0.0
 10
184.725920
 20
348.879985
 30
0.0
 10
185.092508
 20
348.906112
 30
0.0
 10
185.459042
 20
348.880019
 30
0.0
 10
185.790778
 20
348.786477
 30
0.0
 10
186.060957
 20
348.625554
 30
0.0
 10
186.263784
 20
348.406396
 30
0.0
 10
186.384605
 20
348.132513
 30
0.0
 10
186.415602
 20
347.858379
 30
0.0
 10
186.393631
 20
347.610252
 30
0.0
 10
186.325617
 20
347.404703
 30
0.0
 10
186.211401
 20
347.227008
 30
0.0
 10
186.059235
 20
347.078618
 30
0.0
 10
185.869556
 20
346.964049
 30
0.0
 10
185.726038
 20
346.921150
 30
0.0
 10
185.651572
 20
346.898892
 30
0.0
 11
184.535362
 21
346.898892
 31
0.0
 11
184.313958
 21
346.975141
 31
0.0
 11
184.127464
 21
347.086303
 31
0.0
 11
183.975882
 21
347.232377
 31
0.0
 11
183.865638
 21
347.407847
 31
0.0
 11
183.799491
 21
347.607204
 31
0.0
 11
183.777442
 21
347.830446
 31
0.0
 11
183.816333
 21
348.136371
 31
0.0
 11
183.933006
 21
348.396361
 31
0.0
 11
184.127462
 21
348.610416
 31
0.0
 11
184.391434
 21
348.769655
 31
0.0
 11
184.712978
 21
348.865199
 31
0.0
 11
185.092092
 21
348.897047
 31
0.0
 11
185.472429
 21
348.865199
 31
0.0
 11
185.793972
 21
348.769655
 31
0.0
 11
186.056722
 21
348.610416
 31
0.0
 11
186.251178
 21
348.396361
 31
0.0
 11
186.367851
 21
348.136371
 31
0.0
 11
186.406742
 21
347.830446
 31
0.0
 11
186.384386
 21
347.607204
 31
0.0
 11
186.317320
 21
347.407847
 31
0.0
 11
186.205542
 21
347.232377
 31
0.0
 11
186.055799
 21
347.086305
 31
0.0
 11
185.871142
 21
346.975144
 31
0.0
 11
185.651572
 21
346.898892
 31
0.0
  0
LWPOLYLINE
  5
18e
100
AcDbEntity
  8
0
 62
5
100
AcDbPolyline
 90
1
 70
1
 10
185.092092
 20
346.661870
 30
0.0
  0
SPLINE
  5
18f
100
AcDbEntity
  8
0
 62
5
100
AcDbSpline
 70
0
 71
3
 72
31
 73
27
 74
25
 40
0.000000
 40
0.000000
 40
0.000000
 40
0.000000
 40
0.261660
 40
0.503362
 40
0.737269
 40
0.969510
 40
1.204250
 40
1.454784
 40
1.824815
 40
2.154238
 40
2.472104
 40
2.801789
 40
3.165915
 40
3.586037
 40
4.006463
 40
4.371470
 40
4.702447
 40
5.019334
 40
5.348416
 40
5.718414
 40
5.968947
 40
6.203687
 40
6.435928
 40
6.670941
 40
6.913434
 40
7.175384
 40
7.175384
 40
7.175384
 40
7.175384
 10
185.651572
 20
346.898892
 30
0.0
 10
185.735757
 20
346.875043
 30
0.0
 10
185.897705
 20
346.829164
 30
0.0
 10
186.112143
 20
346.703259
 30
0.0
 10
186.283792
 20
346.538584
 30
0.0
 10
186.411987
 20
346.340522
 30
0.0
 10
186.488727
 20
346.111236
 30
0.0
 10
186.512813
 20
345.825505
 30
0.0
 10
186.480901
 20
345.507558
 30
0.0
 10
186.358050
 20
345.185854
 30
0.0
 10
186.144689
 20
344.932014
 30
0.0
 10
185.854841
 20
344.750239
 30
0.0
 10
185.494335
 20
344.646431
 30
0.0
 10
185.092007
 20
344.617955
 30
0.0
 10
184.689288
 20
344.646425
 30
0.0
 10
184.328223
 20
344.750544
 30
0.0
 10
184.036878
 20
344.931032
 30
0.0
 10
183.824951
 20
345.186280
 30
0.0
 10
183.703079
 20
345.507682
 30
0.0
 10
183.671413
 20
345.825511
 30
0.0
 10
183.695433
 20
346.111253
 30
0.0
 10
183.772259
 20
346.340462
 30
0.0
 10
183.900369
 20
346.539122
 30
0.0
 10
184.073664
 20
346.703064
 30
0.0
 10
184.288762
 20
346.829078
 30
0.0
 10
184.451075
 20
346.875030
 30
0.0
 10
184.535362
 20
346.898892
 30
0.0
 11
185.651572
 21
346.898892
 31
0.0
 11
185.899926
 21
346.816514
 31
0.0
 11
186.108470
 21
346.694328
 31
0.0
 11
186.277202
 21
346.532334
 31
0.0
 11
186.402758
 21
346.336959
 31
0.0
 11
186.478091
 21
346.114635
 31
0.0
 11
186.503202
 21
345.865363
 31
0.0
 11
186.462473
 21
345.497580
 31
0.0
 11
186.340286
 21
345.191656
 31
0.0
 11
186.136642
 21
344.947590
 31
0.0
 11
185.858892
 21
344.769976
 31
0.0
 11
185.510709
 21
344.663408
 31
0.0
 11
185.092092
 21
344.627885
 31
0.0
 11
184.673169
 21
344.663408
 31
0.0
 11
184.324065
 21
344.769976
 31
0.0
 11
184.044782
 21
344.947590
 31
0.0
 11
183.842671
 21
345.191656
 31
0.0
 11
183.721404
 21
345.497580
 31
0.0
 11
183.680982
 21
345.865363
 31
0.0
 11
183.706093
 21
346.114635
 31
0.0
 11
183.781426
 21
346.336959
 31
0.0
 11
183.906982
 21
346.532334
 31
0.0
 11
184.077242
 21
346.694330
 31
0.0
 11
184.286702
 21
346.816516
 31
0.0
 11
184.535362
 21
346.898892
 31
0.0
  0
LWPOLYLINE
  5
190
100
AcDbEntity
  8
0
 62
5
100
AcDbPolyline
 90
1
 70
1
 10
184.535362
 20
346.898892
 30
0.0
  0
LWPOLYLINE
  5
191
100
AcDbEntity
  8
0
 62
5
100
AcDbPolyline
 90
1
 70
1
 10
184.331412
 20
347.778080
 30
0.0
  0
LWPOLYLINE
  5
192
100
AcDbEntity
  8
0
 62
5
100
AcDbPolyline
 90
4
 70
1
 10
187.495392
 20
345.407855
 30
0.0
 10
188.076922
 20
345.407855
 30
0.0
 10
188.076922
 20
344.707811
 30
0.0
 10
187.495392
 20
344.707811
 30
0.0
  0
SPLINE
  5
193
100
AcDbEntity
  8
0
 62
5
100
AcDbSpline
 70
0
 71
3
 72
31
 73
27
 74
25
 40
0.000000
 40
0.000000
 40
0.000000
 40
0.000000
 40
0.198745
 40
0.377702
 40
0.552034
 40
0.733625
 40
0.930322
 40
1.154147
 40
1.376444
 40
1.572265
 40
1.753600
 40
1.929884
 40
2.109527
 40
2.308341
 40
2.507156
 40
2.686799
 40
2.863083
 40
3.044418
 40
3.240239
 40
3.462536
 40
3.686361
 40
3.883058
 40
4.064649
 40
4.238981
 40
4.417938
 40
4.616684
 40
4.616684
 40
4.616684
 40
4.616684
 10
184.331412
 20
347.778080
 30
0.0
 10
184.335035
 20
347.711584
 30
0.0
 10
184.341921
 20
347.585213
 30
0.0
 10
184.410997
 20
347.410910
 30
0.0
 10
184.525321
 20
347.270514
 30
0.0
 10
184.682802
 20
347.169543
 30
0.0
 10
184.876792
 20
347.110663
 30
0.0
 10
185.091598
 20
347.094443
 30
0.0
 10
185.306018
 20
347.110725
 30
0.0
 10
185.499322
 20
347.169520
 30
0.0
 10
185.655998
 20
347.271515
 30
0.0
 10
185.773878
 20
347.410174
 30
0.0
 10
185.843091
 20
347.584933
 30
0.0
 10
185.862052
 20
347.778080
 30
0.0
 10
185.843091
 20
347.971227
 30
0.0
 10
185.773878
 20
348.145987
 30
0.0
 10
185.655998
 20
348.284646
 30
0.0
 10
185.499322
 20
348.386641
 30
0.0
 10
185.306018
 20
348.445436
 30
0.0
 10
185.091598
 20
348.461718
 30
0.0
 10
184.876792
 20
348.445498
 30
0.0
 10
184.682802
 20
348.386618
 30
0.0
 10
184.525321
 20
348.285647
 30
0.0
 10
184.410996
 20
348.145251
 30
0.0
 10
184.341921
 20
347.970947
 30
0.0
 10
184.335035
 20
347.844576
 30
0.0
 10
184.331412
 20
347.778080
 30
0.0
 11
184.331412
 21
347.778080
 31
0.0
 11
184.353461
 21
347.580562
 31
0.0
 11
184.419608
 21
347.414279
 31
0.0
 11
184.529852
 21
347.279231
 31
0.0
 11
184.681741
 21
347.179706
 31
0.0
 11
184.869154
 21
347.119991
 31
0.0
 11
185.092092
 21
347.100086
 31
0.0
 11
185.313496
 21
347.119991
 31
0.0
 11
185.499990
 21
347.179706
 31
0.0
 11
185.651572
 21
347.279231
 31
0.0
 11
185.764878
 21
347.414279
 31
0.0
 11
185.832861
 21
347.580562
 31
0.0
 11
185.855522
 21
347.778080
 31
0.0
 11
185.832861
 21
347.975599
 31
0.0
 11
185.764878
 21
348.141882
 31
0.0
 11
185.651572
 21
348.276930
 31
0.0
 11
185.499990
 21
348.376455
 31
0.0
 11
185.313496
 21
348.436170
 31
0.0
 11
185.092092
 21
348.456075
 31
0.0
 11
184.869154
 21
348.436170
 31
0.0
 11
184.681741
 21
348.376455
 31
0.0
 11
184.529852
 21
348.276930
 31
0.0
 11
184.419608
 21
348.141882
 31
0.0
 11
184.353461
 21
347.975599
 31
0.0
 11
184.331412
 21
347.778080
 31
0.0
  0
LWPOLYLINE
  5
194
100
AcDbEntity
  8
0
 62
5
100
AcDbPolyline
 90
5
 70
0
 10
189.297862
 20
348.822633
 30
0.0
 10
191.483432
 20
348.822633
 30
0.0
 10
191.483432
 20
348.354100
 30
0.0
 10
189.807742
 20
348.354100
 30
0.0
 10
189.807742
 20
347.345376
 30
0.0
  0
SPLINE
  5
195
100
AcDbEntity
  8
0
 62
5
100
AcDbSpline
 70
0
 71
3
 72
31
 73
27
 74
25
 40
0.000000
 40
0.000000
 40
0.000000
 40
0.000000
 40
0.084651
 40
0.167982
 40
0.250265
 40
0.332033
 40
0.413210
 40
0.494088
 40
0.923641
 40
1.308600
 40
1.674752
 40
2.034162
 40
2.400439
 40
2.803172
 40
3.215780
 40
3.586828
 40
3.948183
 40
4.321828
 40
4.729191
 40
5.194915
 40
5.368923
 40
5.545924
 40
5.726436
 40
5.910038
 40
6.099887
 40
6.296367
 40
6.296367
 40
6.296367
 40
6.296367
 10
189.807742
 20
347.345376
 30
0.0
 10
189.834597
 20
347.354056
 30
0.0
 10
189.887887
 20
347.371279
 30
0.0
 10
189.968908
 20
347.391492
 30
0.0
 10
190.050051
 20
347.406276
 30
0.0
 10
190.130798
 20
347.419146
 30
0.0
 10
190.211823
 20
347.426471
 30
0.0
 10
190.408981
 20
347.431535
 30
0.0
 10
190.708731
 20
347.404680
 30
0.0
 10
191.086479
 20
347.279416
 30
0.0
 10
191.394551
 20
347.064899
 30
0.0
 10
191.625296
 20
346.776444
 30
0.0
 10
191.761819
 20
346.419931
 30
0.0
 10
191.799685
 20
346.024689
 30
0.0
 10
191.761566
 20
345.627712
 30
0.0
 10
191.621668
 20
345.266297
 30
0.0
 10
191.382859
 20
344.977072
 30
0.0
 10
191.056983
 20
344.769363
 30
0.0
 10
190.654724
 20
344.649407
 30
0.0
 10
190.304526
 20
344.623518
 30
0.0
 10
190.032359
 20
344.631212
 30
0.0
 10
189.855706
 20
344.646067
 30
0.0
 10
189.676916
 20
344.670533
 30
0.0
 10
189.495519
 20
344.705414
 30
0.0
 10
189.310580
 20
344.749259
 30
0.0
 10
189.187055
 20
344.785727
 30
0.0
 10
189.124232
 20
344.804274
 30
0.0
 11
189.807742
 21
347.345376
 31
0.0
 11
189.888583
 21
347.370486
 31
0.0
 11
189.969426
 21
347.390696
 31
0.0
 11
190.050272
 21
347.406006
 31
0.0
 11
190.131118
 21
347.418256
 31
0.0
 11
190.211961
 21
347.425606
 31
0.0
 11
190.292802
 21
347.428056
 31
0.0
 11
190.720301
 21
347.386102
 31
0.0
 11
191.084104
 21
347.260241
 31
0.0
 11
191.384212
 21
347.050473
 31
0.0
 11
191.607762
 21
346.769047
 31
0.0
 11
191.741892
 21
346.428213
 31
0.0
 11
191.786602
 21
346.027969
 31
0.0
 11
191.740668
 21
345.617926
 31
0.0
 11
191.602864
 21
345.273417
 31
0.0
 11
191.373192
 21
344.994440
 31
0.0
 11
191.059919
 21
344.790797
 31
0.0
 11
190.671312
 21
344.668611
 31
0.0
 11
190.207372
 21
344.627882
 31
0.0
 11
190.033433
 21
344.632782
 31
0.0
 11
189.857043
 21
344.647482
 31
0.0
 11
189.678202
 21
344.671982
 31
0.0
 11
189.497832
 21
344.706281
 31
0.0
 11
189.313175
 21
344.750378
 31
0.0
 11
189.124232
 21
344.804274
 31
0.0
  0
LWPOLYLINE
  5
196
100
AcDbEntity
  8
0
 62
5
100
AcDbPolyline
 90
2
 70
0
 10
189.124232
 20
344.804274
 30
0.0
 10
189.124232
 20
345.363758
 30
0.0
  0
SPLINE
  5
197
100
AcDbEntity
  8
0
 62
5
100
AcDbSpline
 70
0
 71
3
 72
31
 73
27
 74
25
 40
0.000000
 40
0.000000
 40
0.000000
 40
0.000000
 40
0.186394
 40
0.369960
 40
0.552021
 40
0.735495
 40
0.923287
 40
1.116658
 40
1.413786
 40
1.679029
 40
1.929076
 40
2.171819
 40
2.416973
 40
2.685488
 40
2.954002
 40
3.199156
 40
3.441899
 40
3.691946
 40
3.957189
 40
4.254317
 40
4.403246
 40
4.552988
 40
4.704346
 40
4.857659
 40
5.016867
 40
5.182703
 40
5.182703
 40
5.182703
 40
5.182703
 10
189.124232
 20
345.363758
 30
0.0
 10
189.179503
 20
345.335301
 30
0.0
 10
189.289207
 20
345.278817
 30
0.0
 10
189.461065
 20
345.212151
 30
0.0
 10
189.636652
 20
345.159828
 30
0.0
 10
189.817630
 20
345.122977
 30
0.0
 10
190.004800
 20
345.101249
 30
0.0
 10
190.230820
 20
345.092010
 30
0.0
 10
190.483599
 20
345.111361
 30
0.0
 10
190.744452
 20
345.194798
 30
0.0
 10
190.957601
 20
345.336626
 30
0.0
 10
191.117739
 20
345.528345
 30
0.0
 10
191.212620
 20
345.766233
 30
0.0
 10
191.238890
 20
346.027968
 30
0.0
 10
191.212620
 20
346.289703
 30
0.0
 10
191.117739
 20
346.527593
 30
0.0
 10
190.957602
 20
346.719300
 30
0.0
 10
190.744451
 20
346.861178
 30
0.0
 10
190.483605
 20
346.944405
 30
0.0
 10
190.245664
 20
346.963353
 30
0.0
 10
190.047122
 20
346.955808
 30
0.0
 10
189.897897
 20
346.939151
 30
0.0
 10
189.748780
 20
346.911730
 30
0.0
 10
189.599270
 20
346.871795
 30
0.0
 10
189.448110
 20
346.820514
 30
0.0
 10
189.348621
 20
346.777512
 30
0.0
 10
189.297862
 20
346.755572
 30
0.0
 11
189.124232
 21
345.363758
 31
0.0
 11
189.291435
 21
345.281382
 31
0.0
 11
189.462312
 21
345.214317
 31
0.0
 11
189.636862
 21
345.162564
 31
0.0
 11
189.816618
 21
345.125814
 31
0.0
 11
190.003111
 21
345.103764
 31
0.0
 11
190.196342
 21
345.096414
 31
0.0
 11
190.492161
 21
345.124281
 31
0.0
 11
190.743884
 21
345.207882
 31
0.0
 11
190.951512
 21
345.347217
 31
0.0
 11
191.106156
 21
345.534324
 31
0.0
 11
191.198943
 21
345.761241
 31
0.0
 11
191.229872
 21
346.027968
 31
0.0
 11
191.198943
 21
346.294695
 31
0.0
 11
191.106156
 21
346.521612
 31
0.0
 11
190.951512
 21
346.708719
 31
0.0
 11
190.743884
 21
346.848054
 31
0.0
 11
190.492161
 21
346.931655
 31
0.0
 11
190.196342
 21
346.959522
 31
0.0
 11
190.047515
 21
346.954010
 31
0.0
 11
189.898689
 21
346.937473
 31
0.0
 11
189.749862
 21
346.909912
 31
0.0
 11
189.601644
 21
346.870714
 31
0.0
 11
189.450978
 21
346.819268
 31
0.0
 11
189.297862
 21
346.755572
 31
0.0
  0
LWPOLYLINE
  5
198
100
AcDbEntity
  8
0
 62
5
100
AcDbPolyline
 90
2
 70
0
 10
189.297862
 20
346.755572
 30
0.0
 10
189.297862
 20
348.822633
 30
0.0
  0
SPLINE
  5
199
100
AcDbEntity
  8
0
 62
5
100
AcDbSpline
 70
0
 71
3
 72
19
 73
15
 74
13
 40
0.000000
 40
0.000000
 40
0.000000
 40
0.000000
 40
0.247938
 40
0.474308
 40
0.685801
 40
0.893298
 40
1.107880
 40
1.337041
 40
1.636462
 40
1.909034
 40
2.183060
 40
2.477508
 40
2.808912
 40
3.193415
 40
3.193415
 40
3.193415
 40
3.193415
 10
195.217912
 20
347.202060
 30
0.0
 10
195.260685
 20
347.272949
 30
0.0
 10
195.342511
 20
347.408560
 30
0.0
 10
195.496429
 20
347.579580
 30
0.0
 10
195.667630
 20
347.711962
 30
0.0
 10
195.859334
 20
347.804182
 30
0.0
 10
196.070944
 20
347.858175
 30
0.0
 10
196.318781
 20
347.876795
 30
0.0
 10
196.587506
 20
347.848453
 30
0.0
 10
196.850083
 20
347.731414
 30
0.0
 10
197.055423
 20
347.533081
 30
0.0
 10
197.201859
 20
347.267309
 30
0.0
 10
197.288217
 20
346.938285
 30
0.0
 10
197.296867
 20
346.699283
 30
0.0
 10
197.301512
 20
346.570919
 30
0.0
 11
195.217912
 21
347.202060
 31
0.0
 11
195.352961
 21
347.409991
 31
0.0
 11
195.504548
 21
347.578112
 31
0.0
 11
195.672672
 21
347.706422
 31
0.0
 11
195.859471
 21
347.796760
 31
0.0
 11
196.067094
 21
347.850963
 31
0.0
 11
196.295542
 21
347.869031
 31
0.0
 11
196.592584
 21
347.831365
 31
0.0
 11
196.840631
 21
347.718366
 31
0.0
 11
197.039682
 21
347.530034
 31
0.0
 11
197.185143
 21
347.274025
 31
0.0
 11
197.272420
 21
346.954320
 31
0.0
 11
197.301512
 21
346.570919
 31
0.0
  0
LWPOLYLINE
  5
19a
100
AcDbEntity
  8
0
 62
5
100
AcDbPolyline
 90
4
 70
0
 10
197.301512
 20
346.570919
 30
0.0
 10
197.301512
 20
344.707811
 30
0.0
 10
196.791632
 20
344.707811
 30
0.0
 10
196.791632
 20
346.554383
 30
0.0
  0
SPLINE
  5
19b
100
AcDbEntity
  8
0
 62
5
100
AcDbSpline
 70
0
 71
3
 72
19
 73
15
 74
13
 40
0.000000
 40
0.000000
 40
0.000000
 40
0.000000
 40
0.270964
 40
0.496689
 40
0.686656
 40
0.858175
 40
1.033355
 40
1.231400
 40
1.477498
 40
1.702719
 40
1.927122
 40
2.160452
 40
2.410313
 40
2.691664
 40
2.691664
 40
2.691664
 40
2.691664
 10
196.791632
 20
346.554383
 30
0.0
 10
196.788948
 20
346.644819
 30
0.0
 10
196.784028
 20
346.810591
 30
0.0
 10
196.733550
 20
347.035559
 30
0.0
 10
196.646751
 20
347.213945
 30
0.0
 10
196.516448
 20
347.342228
 30
0.0
 10
196.346297
 20
347.415706
 30
0.0
 10
196.138861
 20
347.435606
 30
0.0
 10
195.914864
 20
347.411611
 30
0.0
 10
195.696838
 20
347.322267
 30
0.0
 10
195.521588
 20
347.171175
 30
0.0
 10
195.392972
 20
346.970132
 30
0.0
 10
195.315389
 20
346.723875
 30
0.0
 10
195.307520
 20
346.546404
 30
0.0
 10
195.303352
 20
346.452408
 30
0.0
 11
196.791632
 21
346.554383
 31
0.0
 11
196.774178
 21
346.824785
 31
0.0
 11
196.721814
 21
347.044352
 31
0.0
 11
196.634542
 21
347.213085
 31
0.0
 11
196.511435
 21
347.332515
 31
0.0
 11
196.351582
 21
347.404173
 31
0.0
 11
196.154982
 21
347.428059
 31
0.0
 11
195.910610
 21
347.398967
 31
0.0
 11
195.702986
 21
347.311691
 31
0.0
 11
195.532112
 21
347.166231
 31
0.0
 11
195.405023
 21
346.970550
 31
0.0
 11
195.328770
 21
346.732609
 31
0.0
 11
195.303352
 21
346.452408
 31
0.0
  0
LWPOLYLINE
  5
19c
100
AcDbEntity
  8
0
 62
5
100
AcDbPolyline
 90
4
 70
0
 10
195.303352
 20
346.452408
 30
0.0
 10
195.303352
 20
344.707811
 30
0.0
 10
194.793482
 20
344.707811
 30
0.0
 10
194.793482
 20
346.554383
 30
0.0
  0
SPLINE
  5
19d
100
AcDbEntity
  8
0
 62
5
100
AcDbSpline
 70
0
 71
3
 72
19
 73
15
 74
13
 40
0.000000
 40
0.000000
 40
0.000000
 40
0.000000
 40
0.272187
 40
0.497912
 40
0.686794
 40
0.858753
 40
1.035611
 40
1.236696
 40
1.479786
 40
1.703676
 40
1.928614
 40
2.161684
 40
2.410669
 40
2.690495
 40
2.690495
 40
2.690495
 40
2.690495
 10
194.793482
 20
346.554383
 30
0.0
 10
194.790799
 20
346.645217
 30
0.0
 10
194.785891
 20
346.811379
 30
0.0
 10
194.735701
 20
347.036537
 30
0.0
 10
194.648214
 20
347.214330
 30
0.0
 10
194.517396
 20
347.342644
 30
0.0
 10
194.345177
 20
347.415746
 30
0.0
 10
194.137238
 20
347.435626
 30
0.0
 10
193.913620
 20
347.411349
 30
0.0
 10
193.697396
 20
347.320644
 30
0.0
 10
193.523959
 20
347.168272
 30
0.0
 10
193.394856
 20
346.967963
 30
0.0
 10
193.317299
 20
346.722542
 30
0.0
 10
193.309388
 20
346.545887
 30
0.0
 10
193.305202
 20
346.452408
 30
0.0
 11
194.793482
 21
346.554383
 31
0.0
 11
194.776026
 21
346.826009
 31
0.0
 11
194.723660
 21
347.045577
 31
0.0
 11
194.636382
 21
347.213085
 31
0.0
 11
194.512663
 21
347.332515
 31
0.0
 11
194.350973
 21
347.404173
 31
0.0
 11
194.151312
 21
347.428059
 31
0.0
 11
193.910005
 21
347.398661
 31
0.0
 11
193.704219
 21
347.310466
 31
0.0
 11
193.533952
 21
347.163475
 31
0.0
 11
193.406869
 21
346.968100
 31
0.0
 11
193.330619
 21
346.731078
 31
0.0
 11
193.305202
 21
346.452408
 31
0.0
  0
LWPOLYLINE
  5
19e
100
AcDbEntity
  8
0
 62
5
100
AcDbPolyline
 90
6
 70
0
 10
193.305202
 20
346.452408
 30
0.0
 10
193.305202
 20
344.707811
 30
0.0
 10
192.795322
 20
344.707811
 30
0.0
 10
192.795322
 20
347.794617
 30
0.0
 10
193.305202
 20
347.794617
 30
0.0
 10
193.305202
 20
347.315060
 30
0.0
  0
SPLINE
  5
19f
100
AcDbEntity
  8
0
 62
5
100
AcDbSpline
 70
0
 71
3
 72
19
 73
15
 74
13
 40
0.000000
 40
0.000000
 40
0.000000
 40
0.000000
 40
0.212273
 40
0.409105
 40
0.596408
 40
0.783874
 40
0.981087
 40
1.193832
 40
1.407512
 40
1.606029
 40
1.798565
 40
1.993454
 40
2.195835
 40
2.414482
 40
2.414482
 40
2.414482
 40
2.414482
 10
193.305202
 20
347.315060
 30
0.0
 10
193.344431
 20
347.374113
 30
0.0
 10
193.420034
 20
347.487923
 30
0.0
 10
193.561243
 20
347.629770
 30
0.0
 10
193.718295
 20
347.739525
 30
0.0
 10
193.894465
 20
347.815681
 30
0.0
 10
194.089566
 20
347.860085
 30
0.0
 10
194.297651
 20
347.874196
 30
0.0
 10
194.506423
 20
347.858049
 30
0.0
 10
194.701499
 20
347.800863
 30
0.0
 10
194.872826
 20
347.703523
 30
0.0
 10
195.019109
 20
347.570035
 30
0.0
 10
195.138850
 20
347.400721
 30
0.0
 10
195.190888
 20
347.269964
 30
0.0
 10
195.217912
 20
347.202060
 30
0.0
 11
193.305202
 21
347.315060
 31
0.0
 11
193.428611
 21
347.487774
 31
0.0
 11
193.567331
 21
347.627415
 31
0.0
 11
193.721362
 21
347.733983
 31
0.0
 11
193.893160
 21
347.809010
 31
0.0
 11
194.085166
 21
347.854026
 31
0.0
 11
194.297382
 21
347.869031
 31
0.0
 11
194.510216
 21
347.850045
 31
0.0
 11
194.700386
 21
347.793086
 31
0.0
 11
194.867892
 21
347.698154
 31
0.0
 11
195.012125
 21
347.567087
 31
0.0
 11
195.128799
 21
347.401722
 31
0.0
 11
195.217912
 21
347.202060
 31
0.0
  0
LWPOLYLINE
  5
1a0
100
AcDbEntity
  8
0
 62
5
100
AcDbPolyline
 90
1
 70
1
 10
195.217912
 20
347.202060
 30
0.0
  0
SPLINE
  5
1a1
100
AcDbEntity
  8
0
 62
5
100
AcDbSpline
 70
0
 71
3
 72
19
 73
15
 74
13
 40
0.000000
 40
0.000000
 40
0.000000
 40
0.000000
 40
0.247938
 40
0.474305
 40
0.685794
 40
0.893295
 40
1.107881
 40
1.337043
 40
1.636464
 40
1.909036
 40
2.183062
 40
2.477510
 40
2.808914
 40
3.193417
 40
3.193417
 40
3.193417
 40
3.193417
 10
200.719042
 20
347.202060
 30
0.0
 10
200.761815
 20
347.272949
 30
0.0
 10
200.843640
 20
347.408559
 30
0.0
 10
200.997554
 20
347.579578
 30
0.0
 10
201.168752
 20
347.711965
 30
0.0
 10
201.360460
 20
347.804181
 30
0.0
 10
201.572072
 20
347.858175
 30
0.0
 10
201.819910
 20
347.876795
 30
0.0
 10
202.088636
 20
347.848453
 30
0.0
 10
202.351213
 20
347.731414
 30
0.0
 10
202.556553
 20
347.533081
 30
0.0
 10
202.702989
 20
347.267309
 30
0.0
 10
202.789347
 20
346.938285
 30
0.0
 10
202.797997
 20
346.699283
 30
0.0
 10
202.802642
 20
346.570919
 30
0.0
 11
200.719042
 21
347.202060
 31
0.0
 11
200.854090
 21
347.409991
 31
0.0
 11
201.005673
 21
347.578112
 31
0.0
 11
201.173792
 21
347.706422
 31
0.0
 11
201.360596
 21
347.796760
 31
0.0
 11
201.568223
 21
347.850963
 31
0.0
 11
201.796672
 21
347.869031
 31
0.0
 11
202.093714
 21
347.831365
 31
0.0
 11
202.341761
 21
347.718366
 31
0.0
 11
202.540812
 21
347.530034
 31
0.0
 11
202.686273
 21
347.274025
 31
0.0
 11
202.773550
 21
346.954320
 31
0.0
 11
202.802642
 21
346.570919
 31
0.0
  0
LWPOLYLINE
  5
1a2
100
AcDbEntity
  8
0
 62
5
100
AcDbPolyline
 90
4
 70
0
 10
202.802642
 20
346.570919
 30
0.0
 10
202.802642
 20
344.707811
 30
0.0
 10
202.292762
 20
344.707811
 30
0.0
 10
202.292762
 20
346.554383
 30
0.0
  0
SPLINE
  5
1a3
100
AcDbEntity
  8
0
 62
5
100
AcDbSpline
 70
0
 71
3
 72
19
 73
15
 74
13
 40
0.000000
 40
0.000000
 40
0.000000
 40
0.000000
 40
0.270964
 40
0.496690
 40
0.686659
 40
0.858174
 40
1.033351
 40
1.231396
 40
1.477494
 40
1.702719
 40
1.927126
 40
2.160452
 40
2.410312
 40
2.691664
 40
2.691664
 40
2.691664
 40
2.691664
 10
202.292762
 20
346.554383
 30
0.0
 10
202.290078
 20
346.644819
 30
0.0
 10
202.285158
 20
346.810592
 30
0.0
 10
202.234677
 20
347.035561
 30
0.0
 10
202.147870
 20
347.213941
 30
0.0
 10
202.017574
 20
347.342229
 30
0.0
 10
201.847425
 20
347.415706
 30
0.0
 10
201.639990
 20
347.435606
 30
0.0
 10
201.415992
 20
347.411610
 30
0.0
 10
201.197964
 20
347.322266
 30
0.0
 10
201.022708
 20
347.171178
 30
0.0
 10
200.894098
 20
346.970130
 30
0.0
 10
200.816519
 20
346.723875
 30
0.0
 10
200.808650
 20
346.546404
 30
0.0
 10
200.804482
 20
346.452408
 30
0.0
 11
202.292762
 21
346.554383
 31
0.0
 11
202.275306
 21
346.824785
 31
0.0
 11
202.222940
 21
347.044352
 31
0.0
 11
202.135662
 21
347.213085
 31
0.0
 11
202.012561
 21
347.332515
 31
0.0
 11
201.852711
 21
347.404173
 31
0.0
 11
201.656112
 21
347.428059
 31
0.0
 11
201.411739
 21
347.398967
 31
0.0
 11
201.204112
 21
347.311691
 31
0.0
 11
201.033232
 21
347.166231
 31
0.0
 11
200.906149
 21
346.970550
 31
0.0
 11
200.829899
 21
346.732609
 31
0.0
 11
200.804482
 21
346.452408
 31
0.0
  0
LWPOLYLINE
  5
1a4
100
AcDbEntity
  8
0
 62
5
100
AcDbPolyline
 90
4
 70
0
 10
200.804482
 20
346.452408
 30
0.0
 10
200.804482
 20
344.707811
 30
0.0
 10
200.294612
 20
344.707811
 30
0.0
 10
200.294612
 20
346.554383
 30
0.0
  0
SPLINE
  5
1a5
100
AcDbEntity
  8
0
 62
5
100
AcDbSpline
 70
0
 71
3
 72
19
 73
15
 74
13
 40
0.000000
 40
0.000000
 40
0.000000
 40
0.000000
 40
0.272187
 40
0.497912
 40
0.686794
 40
0.858753
 40
1.035611
 40
1.236696
 40
1.479791
 40
1.703680
 40
1.928615
 40
2.161688
 40
2.410674
 40
2.690501
 40
2.690501
 40
2.690501
 40
2.690501
 10
200.294612
 20
346.554383
 30
0.0
 10
200.291929
 20
346.645217
 30
0.0
 10
200.287021
 20
346.811379
 30
0.0
 10
200.236831
 20
347.036537
 30
0.0
 10
200.149344
 20
347.214330
 30
0.0
 10
200.018526
 20
347.342644
 30
0.0
 10
199.846307
 20
347.415746
 30
0.0
 10
199.638366
 20
347.435626
 30
0.0
 10
199.414747
 20
347.411349
 30
0.0
 10
199.198522
 20
347.320645
 30
0.0
 10
199.025089
 20
347.168269
 30
0.0
 10
198.895980
 20
346.967964
 30
0.0
 10
198.818420
 20
346.722543
 30
0.0
 10
198.810508
 20
346.545887
 30
0.0
 10
198.806322
 20
346.452408
 30
0.0
 11
200.294612
 21
346.554383
 31
0.0
 11
200.277156
 21
346.826009
 31
0.0
 11
200.224790
 21
347.045577
 31
0.0
 11
200.137512
 21
347.213085
 31
0.0
 11
200.013793
 21
347.332515
 31
0.0
 11
199.852103
 21
347.404173
 31
0.0
 11
199.652442
 21
347.428059
 31
0.0
 11
199.411131
 21
347.398661
 31
0.0
 11
199.205344
 21
347.310466
 31
0.0
 11
199.035082
 21
347.163475
 31
0.0
 11
198.907993
 21
346.968100
 31
0.0
 11
198.831740
 21
346.731078
 31
0.0
 11
198.806322
 21
346.452408
 31
0.0
  0
LWPOLYLINE
  5
1a6
100
AcDbEntity
  8
0
 62
5
100
AcDbPolyline
 90
6
 70
0
 10
198.806322
 20
346.452408
 30
0.0
 10
198.806322
 20
344.707811
 30
0.0
 10
198.296452
 20
344.707811
 30
0.0
 10
198.296452
 20
347.794617
 30
0.0
 10
198.806322
 20
347.794617
 30
0.0
 10
198.806322
 20
347.315060
 30
0.0
  0
LWPOLYLINE
  5
1a7
100
AcDbEntity
  8
0
 62
5
100
AcDbPolyline
 90
1
 70
1
 10
200.719042
 20
347.202060
 30
0.0
  0
LWPOLYLINE
  5
1a8
100
AcDbEntity
  8
0
 62
5
100
AcDbPolyline
 90
2
 70
0
 10
-22.252203
 20
341.011210
 30
0.0
 10
17.516277
 20
341.011210
 30
0.0
  0
LWPOLYLINE
  5
1a9
100
AcDbEntity
  8
0
 62
5
100
AcDbPolyline
 90
2
 70
0
 10
137.447482
 20
341.198190
 30
0.0
 10
177.215932
 20
341.198190
 30
0.0
  0
LWPOLYLINE
  5
1aa
100
AcDbEntity
  8
0
 62
5
100
AcDbPolyline
 90
2
 70
0
 10
98.288901
 20
341.198200
 30
0.0
 10
138.057342
 20
341.198200
 30
0.0
  0
LWPOLYLINE
  5
1ab
100
AcDbEntity
  8
0
 62
5
100
AcDbPolyline
 90
2
 70
0
 10
137.650922
 20
354.581070
 30
0.0
 10
137.650922
 20
332.935910
 30
0.0
  0
LWPOLYLINE
  5
1ac
100
AcDbEntity
  8
0
 62
5
100
AcDbPolyline
 90
2
 70
0
 10
-22.441978
 20
354.309540
 30
0.0
 10
-22.441978
 20
332.664380
 30
0.0
  0
SPLINE
  5
1ad
100
AcDbEntity
  8
0
 62
5
100
AcDbSpline
 70
0
 71
3
 72
19
 73
15
 74
13
 40
0.000000
 40
0.000000
 40
0.000000
 40
0.000000
 40
0.212276
 40
0.409110
 40
0.596414
 40
0.783880
 40
0.981093
 40
1.193839
 40
1.407514
 40
1.606031
 40
1.798571
 40
1.993460
 40
2.195841
 40
2.414488
 40
2.414488
 40
2.414488
 40
2.414488
 10
198.806322
 20
347.315060
 30
0.0
 10
198.845552
 20
347.374113
 30
0.0
 10
198.921160
 20
347.487923
 30
0.0
 10
199.062372
 20
347.629769
 30
0.0
 10
199.219425
 20
347.739525
 30
0.0
 10
199.395595
 20
347.815681
 30
0.0
 10
199.590696
 20
347.860085
 30
0.0
 10
199.798779
 20
347.874196
 30
0.0
 10
200.007550
 20
347.858049
 30
0.0
 10
200.202626
 20
347.800862
 30
0.0
 10
200.373956
 20
347.703525
 30
0.0
 10
200.520239
 20
347.570035
 30
0.0
 10
200.639980
 20
347.400721
 30
0.0
 10
200.692018
 20
347.269964
 30
0.0
 10
200.719042
 20
347.202060
 30
0.0
 11
198.806322
 21
347.315060
 31
0.0
 11
198.929736
 21
347.487774
 31
0.0
 11
199.068460
 21
347.627415
 31
0.0
 11
199.222492
 21
347.733983
 31
0.0
 11
199.394290
 21
347.809010
 31
0.0
 11
199.586296
 21
347.854026
 31
0.0
 11
199.798512
 21
347.869031
 31
0.0
 11
200.011342
 21
347.850045
 31
0.0
 11
200.201512
 21
347.793086
 31
0.0
 11
200.369022
 21
347.698154
 31
0.0
 11
200.513255
 21
347.567087
 31
0.0
 11
200.629929
 21
347.401722
 31
0.0
 11
200.719042
 21
347.202060
 31
0.0
  0
LWPOLYLINE
  5
1ae
100
AcDbEntity
  8
0
 62
7
100
AcDbPolyline
 90
2
 70
0
 10
-91.082000
 20
159.655000
 30
0.0
 10
-91.082000
 20
319.655000
 30
0.0
  0
SPLINE
  5
1af
100
AcDbEntity
  8
0
 62
7
100
AcDbSpline
 70
0
 71
3
 72
13
 73
9
 74
7
 40
0.000000
 40
0.000000
 40
0.000000
 40
0.000000
 40
2.617749
 40
5.213835
 40
7.831584
 40
10.449332
 40
13.045418
 40
15.663167
 40
15.663167
 40
15.663167
 40
15.663167
 10
-91.082000
 20
319.655000
 30
0.0
 10
-91.015338
 20
320.530132
 30
0.0
 10
-90.882564
 20
322.273155
 30
0.0
 10
-89.833312
 20
324.711567
 30
0.0
 10
-88.236979
 20
326.809979
 30
0.0
 10
-86.138567
 20
328.406312
 30
0.0
 10
-83.700155
 20
329.455564
 30
0.0
 10
-81.957132
 20
329.588338
 30
0.0
 10
-81.082000
 20
329.655000
 30
0.0
 11
-91.082000
 21
319.655000
 31
0.0
 11
-90.739395
 21
322.250232
 31
0.0
 11
-89.745916
 21
324.648703
 31
0.0
 11
-88.153068
 21
326.726068
 31
0.0
 11
-86.075703
 21
328.318916
 31
0.0
 11
-83.677232
 21
329.312395
 31
0.0
 11
-81.082000
 21
329.655000
 31
0.0
  0
LWPOLYLINE
  5
1b0
100
AcDbEntity
  8
0
 62
7
100
AcDbPolyline
 90
2
 70
0
 10
-81.082000
 20
329.655000
 30
0.0
 10
195.918000
 20
329.655000
 30
0.0
  0
SPLINE
  5
1b1
100
AcDbEntity
  8
0
 62
7
100
AcDbSpline
 70
0
 71
3
 72
13
 73
9
 74
7
 40
0.000000
 40
0.000000
 40
0.000000
 40
0.000000
 40
2.617749
 40
5.213835
 40
7.831584
 40
10.449332
 40
13.045418
 40
15.663167
 40
15.663167
 40
15.663167
 40
15.663167
 10
195.918000
 20
329.655000
 30
0.0
 10
196.793132
 20
329.588338
 30
0.0
 10
198.536155
 20
329.455564
 30
0.0
 10
200.974567
 20
328.406312
 30
0.0
 10
203.072979
 20
326.809979
 30
0.0
 10
204.669312
 20
324.711567
 30
0.0
 10
205.718564
 20
322.273155
 30
0.0
 10
205.851338
 20
320.530132
 30
0.0
 10
205.918000
 20
319.655000
 30
0.0
 11
195.918000
 21
329.655000
 31
0.0
 11
198.513232
 21
329.312395
 31
0.0
 11
200.911703
 21
328.318916
 31
0.0
 11
202.989068
 21
326.726068
 31
0.0
 11
204.581916
 21
324.648703
 31
0.0
 11
205.575395
 21
322.250232
 31
0.0
 11
205.918000
 21
319.655000
 31
0.0
  0
LWPOLYLINE
  5
1b2
100
AcDbEntity
  8
0
 62
7
100
AcDbPolyline
 90
2
 70
0
 10
205.918000
 20
319.655000
 30
0.0
 10
205.918000
 20
159.655000
 30
0.0
  0
SPLINE
  5
1b3
100
AcDbEntity
  8
0
 62
7
100
AcDbSpline
 70
0
 71
3
 72
13
 73
9
 74
7
 40
0.000000
 40
0.000000
 40
0.000000
 40
0.000000
 40
10.470995
 40
20.855339
 40
31.326334
 40
41.797330
 40
52.181674
 40
62.652669
 40
62.652669
 40
62.652669
 40
62.652669
 10
205.918000
 20
159.655000
 30
0.0
 10
205.651350
 20
156.154470
 30
0.0
 10
205.120257
 20
149.182379
 30
0.0
 10
200.923249
 20
139.428733
 30
0.0
 10
194.537917
 20
131.035083
 30
0.0
 10
186.144267
 20
124.649751
 30
0.0
 10
176.390621
 20
120.452743
 30
0.0
 10
169.418530
 20
119.921650
 30
0.0
 10
165.918000
 20
119.655000
 30
0.0
 11
205.918000
 21
159.655000
 31
0.0
 11
204.547579
 21
149.274071
 31
0.0
 11
200.573662
 21
139.680188
 31
0.0
 11
194.202271
 21
131.370729
 31
0.0
 11
185.892812
 21
124.999338
 31
0.0
 11
176.298929
 21
121.025421
 31
0.0
 11
165.918000
 21
119.655000
 31
0.0
  0
SPLINE
  5
1b4
100
AcDbEntity
  8
0
 62
7
100
AcDbSpline
 70
0
 71
3
 72
13
 73
9
 74
7
 40
0.000000
 40
0.000000
 40
0.000000
 40
0.000000
 40
10.470995
 40
20.855339
 40
31.326334
 40
41.797330
 40
52.181674
 40
62.652669
 40
62.652669
 40
62.652669
 40
62.652669
 10
-51.082000
 20
119.655000
 30
0.0
 10
-54.582530
 20
119.921650
 30
0.0
 10
-61.554621
 20
120.452743
 30
0.0
 10
-71.308267
 20
124.649751
 30
0.0
 10
-79.701917
 20
131.035083
 30
0.0
 10
-86.087249
 20
139.428733
 30
0.0
 10
-90.284257
 20
149.182379
 30
0.0
 10
-90.815350
 20
156.154470
 30
0.0
 10
-91.082000
 20
159.655000
 30
0.0
 11
-51.082000
 21
119.655000
 31
0.0
 11
-61.462929
 21
121.025421
 31
0.0
 11
-71.056812
 21
124.999338
 31
0.0
 11
-79.366271
 21
131.370729
 31
0.0
 11
-85.737662
 21
139.680188
 31
0.0
 11
-89.711579
 21
149.274071
 31
0.0
 11
-91.082000
 21
159.655000
 31
0.0
  0
LWPOLYLINE
  5
1b5
100
AcDbEntity
  8
0
 62
7
100
AcDbPolyline
 90
2
 70
0
 10
165.918000
 20
119.655000
 30
0.0
 10
-51.082000
 20
119.655000
 30
0.0
  0
SPLINE
  5
1b6
100
AcDbEntity
  8
0
 62
7
100
AcDbSpline
 70
0
 71
3
 72
25
 73
21
 74
19
 40
0.000000
 40
0.000000
 40
0.000000
 40
0.000000
 40
1.177552
 40
2.334136
 40
3.511688
 40
4.689240
 40
5.845823
 40
7.023376
 40
8.200928
 40
9.357511
 40
10.535063
 40
11.712616
 40
12.869199
 40
14.046751
 40
14.832076
 40
15.610902
 40
16.396226
 40
17.181551
 40
17.960377
 40
18.745701
 40
18.745701
 40
18.745701
 40
18.745701
 10
-62.582000
 20
313.655000
 30
0.0
 10
-62.977052
 20
313.700585
 30
0.0
 10
-63.760121
 20
313.790945
 30
0.0
 10
-64.758025
 20
314.484102
 30
0.0
 10
-65.426672
 20
315.475178
 30
0.0
 10
-65.659719
 20
316.655755
 30
0.0
 10
-65.425578
 20
317.832356
 30
0.0
 10
-64.759218
 20
318.832246
 30
0.0
 10
-63.759463
 20
319.498572
 30
0.0
 10
-62.582358
 20
319.732714
 30
0.0
 10
-61.403690
 20
319.499699
 30
0.0
 10
-60.405504
 20
318.830922
 30
0.0
 10
-59.738576
 20
317.833499
 30
0.0
 10
-59.529668
 20
316.785347
 30
0.0
 10
-59.651109
 20
315.869724
 30
0.0
 10
-59.954106
 20
315.137984
 30
0.0
 10
-60.436179
 20
314.508519
 30
0.0
 10
-61.064852
 20
314.029603
 30
0.0
 10
-61.796598
 20
313.714832
 30
0.0
 10
-62.319475
 20
313.674999
 30
0.0
 10
-62.582000
 20
313.655000
 30
0.0
 11
-62.582000
 21
313.655000
 31
0.0
 11
-63.736669
 21
313.886019
 31
0.0
 11
-64.698332
 21
314.528582
 31
0.0
 11
-65.353639
 21
315.506950
 31
0.0
 11
-65.582078
 21
316.662132
 31
0.0
 11
-65.356439
 21
317.796491
 31
0.0
 11
-64.703320
 21
318.776320
 31
0.0
 11
-63.723491
 21
319.429439
 31
0.0
 11
-62.589132
 21
319.655078
 31
0.0
 11
-61.433950
 21
319.426639
 31
0.0
 11
-60.455582
 21
318.771332
 31
0.0
 11
-59.813019
 21
317.809669
 31
0.0
 11
-59.582000
 21
316.655000
 31
0.0
 11
-59.684782
 21
315.876430
 31
0.0
 11
-59.982825
 21
315.156889
 31
0.0
 11
-60.460680
 21
314.533680
 31
0.0
 11
-61.083889
 21
314.055825
 31
0.0
 11
-61.803430
 21
313.757782
 31
0.0
 11
-62.582000
 21
313.655000
 31
0.0
  0
LWPOLYLINE
  5
1b7
100
AcDbEntity
  8
0
 62
7
100
AcDbPolyline
 90
1
 70
1
 10
-62.582000
 20
313.655000
 30
0.0
  0
SPLINE
  5
1b8
100
AcDbEntity
  8
0
 62
7
100
AcDbSpline
 70
0
 71
3
 72
25
 73
21
 74
19
 40
0.000000
 40
0.000000
 40
0.000000
 40
0.000000
 40
1.177552
 40
2.334136
 40
3.511688
 40
4.689240
 40
5.845823
 40
7.023376
 40
8.200928
 40
9.357511
 40
10.535063
 40
11.712616
 40
12.869199
 40
14.046751
 40
14.832076
 40
15.610902
 40
16.396226
 40
17.181551
 40
17.960377
 40
18.745701
 40
18.745701
 40
18.745701
 40
18.745701
 10
-22.582000
 20
314.655000
 30
0.0
 10
-22.977052
 20
314.700585
 30
0.0
 10
-23.760121
 20
314.790945
 30
0.0
 10
-24.758025
 20
315.484102
 30
0.0
 10
-25.426672
 20
316.475178
 30
0.0
 10
-25.659719
 20
317.655755
 30
0.0
 10
-25.425578
 20
318.832356
 30
0.0
 10
-24.759218
 20
319.832246
 30
0.0
 10
-23.759463
 20
320.498572
 30
0.0
 10
-22.582358
 20
320.732714
 30
0.0
 10
-21.403690
 20
320.499699
 30
0.0
 10
-20.405504
 20
319.830922
 30
0.0
 10
-19.738576
 20
318.833499
 30
0.0
 10
-19.529668
 20
317.785347
 30
0.0
 10
-19.651109
 20
316.869724
 30
0.0
 10
-19.954106
 20
316.137984
 30
0.0
 10
-20.436179
 20
315.508519
 30
0.0
 10
-21.064852
 20
315.029603
 30
0.0
 10
-21.796598
 20
314.714832
 30
0.0
 10
-22.319475
 20
314.674999
 30
0.0
 10
-22.582000
 20
314.655000
 30
0.0
 11
-22.582000
 21
314.655000
 31
0.0
 11
-23.736669
 21
314.886019
 31
0.0
 11
-24.698332
 21
315.528582
 31
0.0
 11
-25.353639
 21
316.506950
 31
0.0
 11
-25.582078
 21
317.662132
 31
0.0
 11
-25.356439
 21
318.796491
 31
0.0
 11
-24.703320
 21
319.776320
 31
0.0
 11
-23.723491
 21
320.429439
 31
0.0
 11
-22.589132
 21
320.655078
 31
0.0
 11
-21.433950
 21
320.426639
 31
0.0
 11
-20.455582
 21
319.771332
 31
0.0
 11
-19.813019
 21
318.809669
 31
0.0
 11
-19.582000
 21
317.655000
 31
0.0
 11
-19.684782
 21
316.876430
 31
0.0
 11
-19.982825
 21
316.156889
 31
0.0
 11
-20.460680
 21
315.533680
 31
0.0
 11
-21.083889
 21
315.055825
 31
0.0
 11
-21.803430
 21
314.757782
 31
0.0
 11
-22.582000
 21
314.655000
 31
0.0
  0
LWPOLYLINE
  5
1b9
100
AcDbEntity
  8
0
 62
7
100
AcDbPolyline
 90
1
 70
1
 10
-22.582000
 20
314.655000
 30
0.0
  0
SPLINE
  5
1ba
100
AcDbEntity
  8
0
 62
7
100
AcDbSpline
 70
0
 71
3
 72
25
 73
21
 74
19
 40
0.000000
 40
0.000000
 40
0.000000
 40
0.000000
 40
1.177552
 40
2.334136
 40
3.511688
 40
4.689240
 40
5.845823
 40
7.023376
 40
8.200928
 40
9.357511
 40
10.535063
 40
11.712616
 40
12.869199
 40
14.046751
 40
14.832076
 40
15.610902
 40
16.396226
 40
17.181551
 40
17.960377
 40
18.745701
 40
18.745701
 40
18.745701
 40
18.745701
 10
17.418000
 20
314.655000
 30
0.0
 10
17.022948
 20
314.700585
 30
0.0
 10
16.239879
 20
314.790945
 30
0.0
 10
15.241975
 20
315.484102
 30
0.0
 10
14.573328
 20
316.475178
 30
0.0
 10
14.340281
 20
317.655755
 30
0.0
 10
14.574422
 20
318.832356
 30
0.0
 10
15.240782
 20
319.832246
 30
0.0
 10
16.240537
 20
320.498572
 30
0.0
 10
17.417642
 20
320.732714
 30
0.0
 10
18.596310
 20
320.499699
 30
0.0
 10
19.594496
 20
319.830922
 30
0.0
 10
20.261424
 20
318.833499
 30
0.0
 10
20.470332
 20
317.785347
 30
0.0
 10
20.348891
 20
316.869724
 30
0.0
 10
20.045894
 20
316.137984
 30
0.0
 10
19.563821
 20
315.508519
 30
0.0
 10
18.935148
 20
315.029603
 30
0.0
 10
18.203402
 20
314.714832
 30
0.0
 10
17.680525
 20
314.674999
 30
0.0
 10
17.418000
 20
314.655000
 30
0.0
 11
17.418000
 21
314.655000
 31
0.0
 11
16.263331
 21
314.886019
 31
0.0
 11
15.301668
 21
315.528582
 31
0.0
 11
14.646361
 21
316.506950
 31
0.0
 11
14.417922
 21
317.662132
 31
0.0
 11
14.643561
 21
318.796491
 31
0.0
 11
15.296680
 21
319.776320
 31
0.0
 11
16.276509
 21
320.429439
 31
0.0
 11
17.410868
 21
320.655078
 31
0.0
 11
18.566050
 21
320.426639
 31
0.0
 11
19.544418
 21
319.771332
 31
0.0
 11
20.186981
 21
318.809669
 31
0.0
 11
20.418000
 21
317.655000
 31
0.0
 11
20.315218
 21
316.876430
 31
0.0
 11
20.017175
 21
316.156889
 31
0.0
 11
19.539320
 21
315.533680
 31
0.0
 11
18.916111
 21
315.055825
 31
0.0
 11
18.196570
 21
314.757782
 31
0.0
 11
17.418000
 21
314.655000
 31
0.0
  0
LWPOLYLINE
  5
1bb
100
AcDbEntity
  8
0
 62
7
100
AcDbPolyline
 90
1
 70
1
 10
17.418000
 20
314.655000
 30
0.0
  0
SPLINE
  5
1bc
100
AcDbEntity
  8
0
 62
7
100
AcDbSpline
 70
0
 71
3
 72
25
 73
21
 74
19
 40
0.000000
 40
0.000000
 40
0.000000
 40
0.000000
 40
1.177552
 40
2.334136
 40
3.511688
 40
4.689240
 40
5.845823
 40
7.023376
 40
8.200928
 40
9.357511
 40
10.535063
 40
11.712616
 40
12.869199
 40
14.046751
 40
14.832076
 40
15.610902
 40
16.396226
 40
17.181551
 40
17.960377
 40
18.745701
 40
18.745701
 40
18.745701
 40
18.745701
 10
97.418000
 20
314.655000
 30
0.0
 10
97.022948
 20
314.700585
 30
0.0
 10
96.239879
 20
314.790945
 30
0.0
 10
95.241975
 20
315.484102
 30
0.0
 10
94.573328
 20
316.475178
 30
0.0
 10
94.340281
 20
317.655755
 30
0.0
 10
94.574422
 20
318.832356
 30
0.0
 10
95.240782
 20
319.832246
 30
0.0
 10
96.240537
 20
320.498572
 30
0.0
 10
97.417642
 20
320.732714
 30
0.0
 10
98.596310
 20
320.499699
 30
0.0
 10
99.594496
 20
319.830922
 30
0.0
 10
100.261424
 20
318.833499
 30
0.0
 10
100.470332
 20
317.785347
 30
0.0
 10
100.348891
 20
316.869724
 30
0.0
 10
100.045894
 20
316.137984
 30
0.0
 10
99.563821
 20
315.508519
 30
0.0
 10
98.935148
 20
315.029603
 30
0.0
 10
98.203402
 20
314.714832
 30
0.0
 10
97.680525
 20
314.674999
 30
0.0
 10
97.418000
 20
314.655000
 30
0.0
 11
97.418000
 21
314.655000
 31
0.0
 11
96.263331
 21
314.886019
 31
0.0
 11
95.301668
 21
315.528582
 31
0.0
 11
94.646361
 21
316.506950
 31
0.0
 11
94.417922
 21
317.662132
 31
0.0
 11
94.643561
 21
318.796491
 31
0.0
 11
95.296680
 21
319.776320
 31
0.0
 11
96.276509
 21
320.429439
 31
0.0
 11
97.410868
 21
320.655078
 31
0.0
 11
98.566050
 21
320.426639
 31
0.0
 11
99.544418
 21
319.771332
 31
0.0
 11
100.186981
 21
318.809669
 31
0.0
 11
100.418000
 21
317.655000
 31
0.0
 11
100.315218
 21
316.876430
 31
0.0
 11
100.017175
 21
316.156889
 31
0.0
 11
99.539320
 21
315.533680
 31
0.0
 11
98.916111
 21
315.055825
 31
0.0
 11
98.196570
 21
314.757782
 31
0.0
 11
97.418000
 21
314.655000
 31
0.0
  0
LWPOLYLINE
  5
1bd
100
AcDbEntity
  8
0
 62
7
100
AcDbPolyline
 90
1
 70
1
 10
97.418000
 20
314.655000
 30
0.0
  0
SPLINE
  5
1be
100
AcDbEntity
  8
0
 62
7
100
AcDbSpline
 70
0
 71
3
 72
25
 73
21
 74
19
 40
0.000000
 40
0.000000
 40
0.000000
 40
0.000000
 40
1.177552
 40
2.334136
 40
3.511688
 40
4.689240
 40
5.845823
 40
7.023376
 40
8.200928
 40
9.357511
 40
10.535063
 40
11.712616
 40
12.869199
 40
14.046751
 40
14.832076
 40
15.610902
 40
16.396226
 40
17.181551
 40
17.960377
 40
18.745701
 40
18.745701
 40
18.745701
 40
18.745701
 10
137.418000
 20
314.655000
 30
0.0
 10
137.022948
 20
314.700585
 30
0.0
 10
136.239879
 20
314.790945
 30
0.0
 10
135.241975
 20
315.484102
 30
0.0
 10
134.573328
 20
316.475178
 30
0.0
 10
134.340281
 20
317.655755
 30
0.0
 10
134.574422
 20
318.832356
 30
0.0
 10
135.240782
 20
319.832246
 30
0.0
 10
136.240537
 20
320.498572
 30
0.0
 10
137.417642
 20
320.732714
 30
0.0
 10
138.596310
 20
320.499699
 30
0.0
 10
139.594496
 20
319.830922
 30
0.0
 10
140.261424
 20
318.833499
 30
0.0
 10
140.470332
 20
317.785347
 30
0.0
 10
140.348891
 20
316.869724
 30
0.0
 10
140.045894
 20
316.137984
 30
0.0
 10
139.563821
 20
315.508519
 30
0.0
 10
138.935148
 20
315.029603
 30
0.0
 10
138.203402
 20
314.714832
 30
0.0
 10
137.680525
 20
314.674999
 30
0.0
 10
137.418000
 20
314.655000
 30
0.0
 11
137.418000
 21
314.655000
 31
0.0
 11
136.263331
 21
314.886019
 31
0.0
 11
135.301668
 21
315.528582
 31
0.0
 11
134.646361
 21
316.506950
 31
0.0
 11
134.417922
 21
317.662132
 31
0.0
 11
134.643561
 21
318.796491
 31
0.0
 11
135.296680
 21
319.776320
 31
0.0
 11
136.276509
 21
320.429439
 31
0.0
 11
137.410868
 21
320.655078
 31
0.0
 11
138.566050
 21
320.426639
 31
0.0
 11
139.544418
 21
319.771332
 31
0.0
 11
140.186981
 21
318.809669
 31
0.0
 11
140.418000
 21
317.655000
 31
0.0
 11
140.315218
 21
316.876430
 31
0.0
 11
140.017175
 21
316.156889
 31
0.0
 11
139.539320
 21
315.533680
 31
0.0
 11
138.916111
 21
315.055825
 31
0.0
 11
138.196570
 21
314.757782
 31
0.0
 11
137.418000
 21
314.655000
 31
0.0
  0
LWPOLYLINE
  5
1bf
100
AcDbEntity
  8
0
 62
7
100
AcDbPolyline
 90
1
 70
1
 10
137.418000
 20
314.655000
 30
0.0
  0
SPLINE
  5
1c0
100
AcDbEntity
  8
0
 62
7
100
AcDbSpline
 70
0
 71
3
 72
25
 73
21
 74
19
 40
0.000000
 40
0.000000
 40
0.000000
 40
0.000000
 40
1.177552
 40
2.334136
 40
3.511688
 40
4.689240
 40
5.845823
 40
7.023376
 40
8.200928
 40
9.357511
 40
10.535063
 40
11.712616
 40
12.869199
 40
14.046751
 40
14.832076
 40
15.610902
 40
16.396226
 40
17.181551
 40
17.960377
 40
18.745701
 40
18.745701
 40
18.745701
 40
18.745701
 10
177.418000
 20
313.655000
 30
0.0
 10
177.022948
 20
313.700585
 30
0.0
 10
176.239879
 20
313.790945
 30
0.0
 10
175.241975
 20
314.484102
 30
0.0
 10
174.573328
 20
315.475178
 30
0.0
 10
174.340281
 20
316.655755
 30
0.0
 10
174.574422
 20
317.832356
 30
0.0
 10
175.240782
 20
318.832246
 30
0.0
 10
176.240537
 20
319.498572
 30
0.0
 10
177.417642
 20
319.732714
 30
0.0
 10
178.596310
 20
319.499699
 30
0.0
 10
179.594496
 20
318.830922
 30
0.0
 10
180.261424
 20
317.833499
 30
0.0
 10
180.470332
 20
316.785347
 30
0.0
 10
180.348891
 20
315.869724
 30
0.0
 10
180.045894
 20
315.137984
 30
0.0
 10
179.563821
 20
314.508519
 30
0.0
 10
178.935148
 20
314.029603
 30
0.0
 10
178.203402
 20
313.714832
 30
0.0
 10
177.680525
 20
313.674999
 30
0.0
 10
177.418000
 20
313.655000
 30
0.0
 11
177.418000
 21
313.655000
 31
0.0
 11
176.263331
 21
313.886019
 31
0.0
 11
175.301668
 21
314.528582
 31
0.0
 11
174.646361
 21
315.506950
 31
0.0
 11
174.417922
 21
316.662132
 31
0.0
 11
174.643561
 21
317.796491
 31
0.0
 11
175.296680
 21
318.776320
 31
0.0
 11
176.276509
 21
319.429439
 31
0.0
 11
177.410868
 21
319.655078
 31
0.0
 11
178.566050
 21
319.426639
 31
0.0
 11
179.544418
 21
318.771332
 31
0.0
 11
180.186981
 21
317.809669
 31
0.0
 11
180.418000
 21
316.655000
 31
0.0
 11
180.315218
 21
315.876430
 31
0.0
 11
180.017175
 21
315.156889
 31
0.0
 11
179.539320
 21
314.533680
 31
0.0
 11
178.916111
 21
314.055825
 31
0.0
 11
178.196570
 21
313.757782
 31
0.0
 11
177.418000
 21
313.655000
 31
0.0
  0
LWPOLYLINE
  5
1c1
100
AcDbEntity
  8
0
 62
7
100
AcDbPolyline
 90
1
 70
1
 10
177.418000
 20
313.655000
 30
0.0
  0
ENDSEC
  0
SECTION
  2
OBJECTS
  0
DICTIONARY
  5
C
330
0
100
AcDbDictionary
  3
ACAD_GROUP
350
D
  3
ACAD_MLINESTYLE
350
17
  0
DICTIONARY
  5
D
330
C
100
AcDbDictionary
  0
DICTIONARY
  5
1A
330
C
100
AcDbDictionary
  0
DICTIONARY
  5
17
330
C
100
AcDbDictionary
  3
STANDARD
350
18
  0
DICTIONARY
  5
19
330
C
100
AcDbDictionary
  0
ENDSEC
  0
EOF
