  0
SECTION
  2
HEADER
  9
$ACADVER
  1
AC1014
  9
$HANDSEED
  5
FFFF
  9
$MEASUREMENT
 70
     1
  0
ENDSEC
  0
SECTION
  2
TABLES
  0
TABLE
  2
VPORT
  5
8
330
0
100
AcDbSymbolTable
 70
     4
  0
VPORT
  5
2E
330
8
100
AcDbSymbolTableRecord
100
AcDbViewportTableRecord
  2
*ACTIVE
 70
     0
 10
0.0
 20
0.0
 11
1.0
 21
1.0
 12
210.0
 22
148.5
 13
0.0
 23
0.0
 14
10.0
 24
10.0
 15
10.0
 25
10.0
 16
0.0
 26
0.0
 36
1.0
 17
0.0
 27
0.0
 37
0.0
 40
341.0
 41
1.24
 42
50.0
 43
0.0
 44
0.0
 50
0.0
 51
0.0
 71
     0
 72
   100
 73
     1
 74
     3
 75
     0
 76
     0
 77
     0
 78
     0
  0
ENDTAB
  0
TABLE
  2
LTYPE
  5
5
330
0
100
AcDbSymbolTable
 70
     1
  0
LTYPE
  5
14
330
5
100
AcDbSymbolTableRecord
100
AcDbLinetypeTableRecord
  2
BYBLOCK
 70
     0
  3

 72
    65
 73
     0
 40
0.0
  0
LTYPE
  5
15
330
5
100
AcDbSymbolTableRecord
100
AcDbLinetypeTableRecord
  2
BYLAYER
 70
     0
  3

 72
    65
 73
     0
 40
0.0
  0
LTYPE
  5
16
330
5
100
AcDbSymbolTableRecord
100
AcDbLinetypeTableRecord
  2
CONTINUOUS
 70
     0
  3
Solid line
 72
    65
 73
     0
 40
0.0
  0
ENDTAB
  0
TABLE
  2
LAYER
  5
2
100
AcDbSymbolTable
 70
1
  0
LAYER
  5
50
100
AcDbSymbolTableRecord
100
AcDbLayerTableRecord
  2
0
 70
0
  6
CONTINUOUS
  0
ENDTAB
  0
TABLE
  2
STYLE
  5
3
330
0
100
AcDbSymbolTable
 70
     1
  0
STYLE
  5
11
330
3
100
AcDbSymbolTableRecord
100
AcDbTextStyleTableRecord
  2
STANDARD
 70
     0
 40
0.0
 41
1.0
 50
0.0
 71
     0
 42
2.5
  3
txt
  4

  0
ENDTAB
  0
TABLE
  2
VIEW
  5
6
330
0
100
AcDbSymbolTable
 70
     0
  0
ENDTAB
  0
TABLE
  2
UCS
  5
7
330
0
100
AcDbSymbolTable
 70
     0
  0
ENDTAB
  0
TABLE
  2
APPID
  5
9
330
0
100
AcDbSymbolTable
 70
     2
  0
APPID
  5
12
330
9
100
AcDbSymbolTableRecord
100
AcDbRegAppTableRecord
  2
ACAD
 70
     0
  0
ENDTAB
  0
TABLE
  2
DIMSTYLE
  5
A
330
0
100
AcDbSymbolTable
 70
     1
  0
DIMSTYLE
105
27
330
A
100
AcDbSymbolTableRecord
100
AcDbDimStyleTableRecord
  2
ISO-25
 70
     0
  3

  4

  5

  6

  7

 40
1.0
 41
2.5
 42
0.625
 43
3.75
 44
1.25
 45
0.0
 46
0.0
 47
0.0
 48
0.0
140
2.5
141
2.5
142
0.0
143
0.03937007874016
144
1.0
145
0.0
146
1.0
147
0.625
 71
     0
 72
     0
 73
     0
 74
     0
 75
     0
 76
     0
 77
     1
 78
     8
170
     0
171
     3
172
     1
173
     0
174
     0
175
     0
176
     0
177
     0
178
     0
270
     2
271
     2
272
     2
273
     2
274
     3
340
11
275
     0
280
     0
281
     0
282
     0
283
     0
284
     8
285
     0
286
     0
287
     3
288
     0
  0
ENDTAB
  0
TABLE
  2
BLOCK_RECORD
  5
1
330
0
100
AcDbSymbolTable
 70
     1
  0
BLOCK_RECORD
  5
1F
330
1
100
AcDbSymbolTableRecord
100
AcDbBlockTableRecord
  2
*MODEL_SPACE
  0
BLOCK_RECORD
  5
1B
330
1
100
AcDbSymbolTableRecord
100
AcDbBlockTableRecord
  2
*PAPER_SPACE
  0
ENDTAB
  0
ENDSEC
  0
SECTION
  2
BLOCKS
  0
BLOCK
  5
20
330
1F
100
AcDbEntity
  8
0
100
AcDbBlockBegin
  2
*MODEL_SPACE
 70
     0
 10
0.0
 20
0.0
 30
0.0
  3
*MODEL_SPACE
  1

  0
ENDBLK
  5
21
330
1F
100
AcDbEntity
  8
0
100
AcDbBlockEnd
  0
BLOCK
  5
1C
330
1B
100
AcDbEntity
 67
     1
  8
0
100
AcDbBlockBegin
  2
*PAPER_SPACE
  1

  0
ENDBLK
  5
1D
330
1B
100
AcDbEntity
 67
     1
  8
0
100
AcDbBlockEnd
  0
ENDSEC
  0
SECTION
  2
ENTITIES
  0
LWPOLYLINE
  5
100
100
AcDbEntity
  8
0
 62
1
100
AcDbPolyline
 90
5
 70
0
 10
43.592998
 20
161.218105
 30
0.0
 10
43.592998
 20
168.218105
 30
0.0
 10
46.592998
 20
164.218105
 30
0.0
 10
49.592998
 20
168.218105
 30
0.0
 10
49.592998
 20
161.218105
 30
0.0
  0
LWPOLYLINE
  5
101
100
AcDbEntity
  8
0
 62
1
100
AcDbPolyline
 90
2
 70
0
 10
52.592999
 20
164.218105
 30
0.0
 10
58.592999
 20
164.218105
 30
0.0
  0
LWPOLYLINE
  5
102
100
AcDbEntity
  8
0
 62
1
100
AcDbPolyline
 90
4
 70
0
 10
61.593150
 20
167.218256
 30
0.0
 10
62.592999
 20
168.218105
 30
0.0
 10
62.592999
 20
161.218105
 30
0.0
 10
61.592999
 20
161.218105
 30
0.0
  0
LWPOLYLINE
  5
103
100
AcDbEntity
  8
0
 62
1
100
AcDbPolyline
 90
2
 70
0
 10
62.592999
 20
161.218105
 30
0.0
 10
63.592999
 20
161.218105
 30
0.0
  0
LWPOLYLINE
  5
104
100
AcDbEntity
  8
0
 62
1
100
AcDbPolyline
 90
2
 70
0
 10
71.547999
 20
164.186105
 30
0.0
 10
68.592999
 20
164.186105
 30
0.0
  0
SPLINE
  5
105
100
AcDbEntity
  8
0
 62
1
100
AcDbSpline
 70
0
 71
3
 72
13
 73
9
 74
7
 40
0.000000
 40
0.000000
 40
0.000000
 40
0.000000
 40
0.261775
 40
0.521384
 40
0.783158
 40
1.044933
 40
1.304542
 40
1.566317
 40
1.566317
 40
1.566317
 40
1.566317
 10
67.592999
 20
165.186105
 30
0.0
 10
67.599665
 20
165.098592
 30
0.0
 10
67.612943
 20
164.924289
 30
0.0
 10
67.717868
 20
164.680448
 30
0.0
 10
67.877501
 20
164.470607
 30
0.0
 10
68.087343
 20
164.310974
 30
0.0
 10
68.331184
 20
164.206048
 30
0.0
 10
68.505486
 20
164.192771
 30
0.0
 10
68.592999
 20
164.186105
 30
0.0
 11
67.592999
 21
165.186105
 31
0.0
 11
67.627260
 21
164.926582
 31
0.0
 11
67.726608
 21
164.686735
 31
0.0
 11
67.885892
 21
164.478998
 31
0.0
 11
68.093629
 21
164.319713
 31
0.0
 11
68.333476
 21
164.220365
 31
0.0
 11
68.592999
 21
164.186105
 31
0.0
  0
LWPOLYLINE
  5
106
100
AcDbEntity
  8
0
 62
1
100
AcDbPolyline
 90
2
 70
0
 10
67.592999
 20
165.186105
 30
0.0
 10
67.592999
 20
167.218105
 30
0.0
  0
SPLINE
  5
107
100
AcDbEntity
  8
0
 62
1
100
AcDbSpline
 70
0
 71
3
 72
13
 73
9
 74
7
 40
0.000000
 40
0.000000
 40
0.000000
 40
0.000000
 40
0.261775
 40
0.521384
 40
0.783158
 40
1.044933
 40
1.304542
 40
1.566317
 40
1.566317
 40
1.566317
 40
1.566317
 10
68.592999
 20
168.218105
 30
0.0
 10
68.505486
 20
168.211439
 30
0.0
 10
68.331184
 20
168.198161
 30
0.0
 10
68.087343
 20
168.093236
 30
0.0
 10
67.877501
 20
167.933603
 30
0.0
 10
67.717868
 20
167.723762
 30
0.0
 10
67.612943
 20
167.479920
 30
0.0
 10
67.599665
 20
167.305618
 30
0.0
 10
67.592999
 20
167.218105
 30
0.0
 11
68.592999
 21
168.218105
 31
0.0
 11
68.333476
 21
168.183844
 31
0.0
 11
68.093629
 21
168.084497
 31
0.0
 11
67.885892
 21
167.925212
 31
0.0
 11
67.726608
 21
167.717475
 31
0.0
 11
67.627260
 21
167.477628
 31
0.0
 11
67.592999
 21
167.218105
 31
0.0
  0
LWPOLYLINE
  5
108
100
AcDbEntity
  8
0
 62
1
100
AcDbPolyline
 90
2
 70
0
 10
68.592999
 20
168.218105
 30
0.0
 10
71.557999
 20
168.218105
 30
0.0
  0
SPLINE
  5
109
100
AcDbEntity
  8
0
 62
1
100
AcDbSpline
 70
0
 71
3
 72
13
 73
9
 74
7
 40
0.000000
 40
0.000000
 40
0.000000
 40
0.000000
 40
0.261775
 40
0.521384
 40
0.783158
 40
1.044933
 40
1.304542
 40
1.566317
 40
1.566317
 40
1.566317
 40
1.566317
 10
72.557999
 20
167.218105
 30
0.0
 10
72.551333
 20
167.305618
 30
0.0
 10
72.538056
 20
167.479920
 30
0.0
 10
72.433131
 20
167.723762
 30
0.0
 10
72.273497
 20
167.933603
 30
0.0
 10
72.063656
 20
168.093236
 30
0.0
 10
71.819815
 20
168.198161
 30
0.0
 10
71.645513
 20
168.211439
 30
0.0
 10
71.557999
 20
168.218105
 30
0.0
 11
72.557999
 21
167.218105
 31
0.0
 11
72.523739
 21
167.477628
 31
0.0
 11
72.424391
 21
167.717475
 31
0.0
 11
72.265106
 21
167.925212
 31
0.0
 11
72.057370
 21
168.084497
 31
0.0
 11
71.817523
 21
168.183844
 31
0.0
 11
71.557999
 21
168.218105
 31
0.0
  0
LWPOLYLINE
  5
10a
100
AcDbEntity
  8
0
 62
1
100
AcDbPolyline
 90
2
 70
0
 10
72.557999
 20
167.218105
 30
0.0
 10
72.557999
 20
162.198105
 30
0.0
  0
SPLINE
  5
10b
100
AcDbEntity
  8
0
 62
1
100
AcDbSpline
 70
0
 71
3
 72
13
 73
9
 74
7
 40
0.000000
 40
0.000000
 40
0.000000
 40
0.000000
 40
0.261775
 40
0.521384
 40
0.783158
 40
1.044933
 40
1.304542
 40
1.566317
 40
1.566317
 40
1.566317
 40
1.566317
 10
71.557999
 20
161.198105
 30
0.0
 10
71.645513
 20
161.204771
 30
0.0
 10
71.819815
 20
161.218048
 30
0.0
 10
72.063656
 20
161.322973
 30
0.0
 10
72.273497
 20
161.482607
 30
0.0
 10
72.433131
 20
161.692448
 30
0.0
 10
72.538056
 20
161.936289
 30
0.0
 10
72.551333
 20
162.110591
 30
0.0
 10
72.557999
 20
162.198105
 30
0.0
 11
71.557999
 21
161.198105
 31
0.0
 11
71.817523
 21
161.232365
 31
0.0
 11
72.057370
 21
161.331713
 31
0.0
 11
72.265106
 21
161.490998
 31
0.0
 11
72.424391
 21
161.698734
 31
0.0
 11
72.523739
 21
161.938581
 31
0.0
 11
72.557999
 21
162.198105
 31
0.0
  0
LWPOLYLINE
  5
10c
100
AcDbEntity
  8
0
 62
1
100
AcDbPolyline
 90
2
 70
0
 10
71.557999
 20
161.198105
 30
0.0
 10
68.547999
 20
161.198105
 30
0.0
  0
LWPOLYLINE
  5
10d
100
AcDbEntity
  8
0
 62
5
100
AcDbPolyline
 90
2
 70
0
 10
-33.314006
 20
283.991023
 30
0.0
 10
148.500009
 20
283.991023
 30
0.0
  0
LWPOLYLINE
  5
10e
100
AcDbEntity
  8
0
 62
5
100
AcDbPolyline
 90
2
 70
0
 10
-33.314006
 20
297.220193
 30
0.0
 10
-33.314006
 20
275.791542
 30
0.0
  0
LWPOLYLINE
  5
10f
100
AcDbEntity
  8
0
 62
5
100
AcDbPolyline
 90
2
 70
0
 10
148.500009
 20
297.220193
 30
0.0
 10
148.500009
 20
275.791542
 30
0.0
  0
SPLINE
  5
110
100
AcDbEntity
  8
0
 62
1
100
AcDbSpline
 70
0
 71
3
 72
13
 73
9
 74
7
 40
0.000000
 40
0.000000
 40
0.000000
 40
0.000000
 40
0.261775
 40
0.521384
 40
0.783158
 40
1.044933
 40
1.304542
 40
1.566317
 40
1.566317
 40
1.566317
 40
1.566317
 10
67.547999
 20
162.198105
 30
0.0
 10
67.554665
 20
162.110591
 30
0.0
 10
67.567943
 20
161.936289
 30
0.0
 10
67.672868
 20
161.692448
 30
0.0
 10
67.832501
 20
161.482607
 30
0.0
 10
68.042343
 20
161.322973
 30
0.0
 10
68.286184
 20
161.218048
 30
0.0
 10
68.460486
 20
161.204771
 30
0.0
 10
68.547999
 20
161.198105
 30
0.0
 11
67.547999
 21
162.198105
 31
0.0
 11
67.582260
 21
161.938581
 31
0.0
 11
67.681608
 21
161.698734
 31
0.0
 11
67.840892
 21
161.490998
 31
0.0
 11
68.048629
 21
161.331713
 31
0.0
 11
68.288476
 21
161.232365
 31
0.0
 11
68.547999
 21
161.198105
 31
0.0
  0
SPLINE
  5
111
100
AcDbEntity
  8
0
 62
1
100
AcDbSpline
 70
0
 71
3
 72
13
 73
9
 74
7
 40
0.000000
 40
0.000000
 40
0.000000
 40
0.000000
 40
4.550705
 40
8.966437
 40
13.517142
 40
18.067846
 40
22.483578
 40
27.034283
 40
27.034283
 40
27.034283
 40
27.034283
 10
131.093001
 20
262.057638
 30
0.0
 10
131.332367
 20
263.591926
 30
0.0
 10
131.803999
 20
266.614994
 30
0.0
 10
135.266370
 20
269.943195
 30
0.0
 10
139.796350
 20
271.176447
 30
0.0
 10
144.326371
 20
269.943346
 30
0.0
 10
147.788853
 20
266.615261
 30
0.0
 10
148.260585
 20
263.592208
 30
0.0
 10
148.500002
 20
262.057928
 30
0.0
 11
131.093001
 21
262.057638
 31
0.0
 11
132.281211
 21
266.450482
 31
0.0
 11
135.403553
 21
269.572928
 31
0.0
 11
139.796357
 21
270.761284
 31
0.0
 11
144.189200
 21
269.573074
 31
0.0
 11
147.311646
 21
266.450732
 31
0.0
 11
148.500002
 21
262.057928
 31
0.0
  0
SPLINE
  5
112
100
AcDbEntity
  8
0
 62
1
100
AcDbSpline
 70
0
 71
3
 72
10
 73
6
 74
4
 40
0.000000
 40
0.000000
 40
0.000000
 40
0.000000
 40
29.070904
 40
50.497680
 40
68.911882
 40
68.911882
 40
68.911882
 40
68.911882
 10
131.093001
 20
253.057638
 30
0.0
 10
130.800484
 20
243.311795
 30
0.0
 10
130.292366
 20
226.382757
 30
0.0
 10
120.353692
 20
204.659223
 30
0.0
 10
109.938294
 20
196.218872
 30
0.0
 10
105.124375
 20
192.317805
 30
0.0
 11
131.093001
 21
253.057638
 31
0.0
 11
127.970166
 21
224.154950
 31
0.0
 11
118.568643
 21
204.900910
 31
0.0
 11
105.124375
 21
192.317805
 31
0.0
  0
LWPOLYLINE
  5
113
100
AcDbEntity
  8
0
 62
1
100
AcDbPolyline
 90
2
 70
0
 10
131.093001
 20
262.057638
 30
0.0
 10
131.093001
 20
253.057638
 30
0.0
  0
SPLINE
  5
114
100
AcDbEntity
  8
0
 62
1
100
AcDbSpline
 70
0
 71
3
 72
10
 73
6
 74
4
 40
0.000000
 40
0.000000
 40
0.000000
 40
0.000000
 40
17.540242
 40
34.426557
 40
50.204781
 40
50.204781
 40
50.204781
 40
50.204781
 10
105.124375
 20
192.317805
 30
0.0
 10
100.025363
 20
189.426617
 30
0.0
 10
90.017437
 20
183.752028
 30
0.0
 10
73.723896
 20
179.149262
 30
0.0
 10
62.846970
 20
178.413185
 30
0.0
 10
57.592998
 20
178.057631
 30
0.0
 11
105.124375
 21
192.317805
 31
0.0
 11
89.524938
 21
184.297977
 31
0.0
 11
73.290534
 21
179.651282
 31
0.0
 11
57.592998
 21
178.057631
 31
0.0
  0
LWPOLYLINE
  5
115
100
AcDbEntity
  8
0
 62
1
100
AcDbPolyline
 90
2
 70
0
 10
148.500002
 20
246.557928
 30
0.0
 10
148.500002
 20
262.057638
 30
0.0
  0
SPLINE
  5
116
100
AcDbEntity
  8
0
 62
1
100
AcDbSpline
 70
0
 71
3
 72
16
 73
12
 74
10
 40
0.000000
 40
0.000000
 40
0.000000
 40
0.000000
 40
1.395857
 40
2.771736
 40
4.167593
 40
5.563449
 40
6.939329
 40
8.335185
 40
9.731042
 40
11.106922
 40
12.502778
 40
12.502778
 40
12.502778
 40
12.502778
 10
148.500002
 20
246.557928
 30
0.0
 10
148.452211
 20
246.090269
 30
0.0
 10
148.357313
 20
245.161645
 30
0.0
 10
147.621036
 20
243.934454
 30
0.0
 10
146.543055
 20
243.022069
 30
0.0
 10
145.207987
 20
242.538171
 30
0.0
 10
143.792017
 20
242.538171
 30
0.0
 10
142.456949
 20
243.022069
 30
0.0
 10
141.378968
 20
243.934454
 30
0.0
 10
140.642691
 20
245.161645
 30
0.0
 10
140.547793
 20
246.090269
 30
0.0
 10
140.500002
 20
246.557928
 30
0.0
 11
148.500002
 21
246.557928
 31
0.0
 11
148.256507
 21
245.183473
 31
0.0
 11
147.568567
 21
243.991926
 31
0.0
 11
146.500002
 21
243.093826
 31
0.0
 11
145.187942
 21
242.617472
 31
0.0
 11
143.812062
 21
242.617472
 31
0.0
 11
142.500002
 21
243.093826
 31
0.0
 11
141.431437
 21
243.991926
 31
0.0
 11
140.743497
 21
245.183473
 31
0.0
 11
140.500002
 21
246.557928
 31
0.0
  0
LWPOLYLINE
  5
117
100
AcDbEntity
  8
0
 62
1
100
AcDbPolyline
 90
2
 70
0
 10
140.500002
 20
250.557928
 30
0.0
 10
140.500002
 20
246.557928
 30
0.0
  0
LWPOLYLINE
  5
118
100
AcDbEntity
  8
0
 62
1
100
AcDbPolyline
 90
2
 70
0
 10
138.000002
 20
250.213928
 30
0.0
 10
138.000002
 20
250.557928
 30
0.0
  0
SPLINE
  5
119
100
AcDbEntity
  8
0
 62
1
100
AcDbSpline
 70
0
 71
3
 72
16
 73
12
 74
10
 40
0.000000
 40
0.000000
 40
0.000000
 40
0.000000
 40
0.436205
 40
0.866168
 40
1.302373
 40
1.738578
 40
2.168540
 40
2.604745
 40
3.040951
 40
3.470913
 40
3.907118
 40
3.907118
 40
3.907118
 40
3.907118
 10
138.000002
 20
250.557928
 30
0.0
 10
138.014936
 20
250.704071
 30
0.0
 10
138.044592
 20
250.994266
 30
0.0
 10
138.274679
 20
251.377764
 30
0.0
 10
138.611548
 20
251.662884
 30
0.0
 10
139.028756
 20
251.814102
 30
0.0
 10
139.471247
 20
251.814102
 30
0.0
 10
139.888456
 20
251.662884
 30
0.0
 10
140.225325
 20
251.377764
 30
0.0
 10
140.455411
 20
250.994266
 30
0.0
 10
140.485067
 20
250.704071
 30
0.0
 10
140.500002
 20
250.557928
 30
0.0
 11
138.000002
 21
250.557928
 31
0.0
 11
138.076094
 21
250.987445
 31
0.0
 11
138.291075
 21
251.359803
 31
0.0
 11
138.625002
 21
251.640460
 31
0.0
 11
139.035021
 21
251.789320
 31
0.0
 11
139.464983
 21
251.789320
 31
0.0
 11
139.875002
 21
251.640460
 31
0.0
 11
140.208928
 21
251.359803
 31
0.0
 11
140.423910
 21
250.987445
 31
0.0
 11
140.500002
 21
250.557928
 31
0.0
  0
SPLINE
  5
11a
100
AcDbEntity
  8
0
 62
1
100
AcDbSpline
 70
0
 71
3
 72
10
 73
6
 74
4
 40
0.000000
 40
0.000000
 40
0.000000
 40
0.000000
 40
21.912466
 40
45.916645
 40
75.015273
 40
75.015273
 40
75.015273
 40
75.015273
 10
98.973154
 20
158.239192
 30
0.0
 10
105.320525
 20
162.064557
 30
0.0
 10
118.621171
 20
170.080448
 30
0.0
 10
131.187409
 20
192.877812
 30
0.0
 10
134.525632
 20
210.262839
 30
0.0
 10
136.354871
 20
219.789274
 30
0.0
 11
98.973154
 21
158.239192
 31
0.0
 11
116.737890
 21
171.067688
 31
0.0
 11
129.198462
 21
191.584382
 31
0.0
 11
136.354871
 21
219.789274
 31
0.0
  0
SPLINE
  5
11b
100
AcDbEntity
  8
0
 62
1
100
AcDbSpline
 70
0
 71
3
 72
16
 73
12
 74
10
 40
0.000000
 40
0.000000
 40
0.000000
 40
0.000000
 40
1.421787
 40
2.808008
 40
4.229795
 40
5.651582
 40
7.037803
 40
8.459590
 40
9.881377
 40
11.267597
 40
12.689385
 40
12.689385
 40
12.689385
 40
12.689385
 10
136.816064
 20
224.839131
 30
0.0
 10
137.272572
 20
224.997176
 30
0.0
 10
138.174168
 20
225.309313
 30
0.0
 10
139.612009
 20
224.929303
 30
0.0
 10
140.717036
 20
223.982539
 30
0.0
 10
141.263471
 20
222.620242
 30
0.0
 10
141.130654
 20
221.165848
 30
0.0
 10
140.346503
 20
219.925061
 30
0.0
 10
139.088266
 20
219.194113
 30
0.0
 10
137.605376
 20
219.080826
 30
0.0
 10
136.775231
 20
219.551107
 30
0.0
 10
136.354902
 20
219.789226
 30
0.0
 11
136.816064
 21
224.839131
 31
0.0
 11
138.199158
 21
225.168567
 31
0.0
 11
139.546073
 21
224.840804
 31
0.0
 11
140.623154
 21
223.912701
 31
0.0
 11
141.152459
 21
222.593112
 31
0.0
 11
141.026393
 21
221.212636
 31
0.0
 11
140.266824
 21
220.010748
 31
0.0
 11
139.039451
 21
219.293090
 31
0.0
 11
137.655447
 21
219.214718
 31
0.0
 11
136.354902
 21
219.789226
 31
0.0
  0
SPLINE
  5
11c
100
AcDbEntity
  8
0
 62
1
100
AcDbSpline
 70
0
 71
3
 72
19
 73
15
 74
13
 40
0.000000
 40
0.000000
 40
0.000000
 40
0.000000
 40
1.350994
 40
2.671118
 40
4.022112
 40
5.373105
 40
6.693230
 40
8.044224
 40
9.395217
 40
10.715342
 40
12.066336
 40
12.204890
 40
12.343405
 40
12.481956
 40
12.481956
 40
12.481956
 40
12.481956
 10
98.973154
 20
158.239192
 30
0.0
 10
99.296093
 20
157.914185
 30
0.0
 10
99.934592
 20
157.271598
 30
0.0
 10
100.240664
 20
155.898030
 30
0.0
 10
99.956530
 20
154.548450
 30
0.0
 10
99.099238
 20
153.453975
 30
0.0
 10
97.856772
 20
152.842956
 30
0.0
 10
96.468994
 20
152.831193
 30
0.0
 10
95.216942
 20
153.430069
 30
0.0
 10
94.350127
 20
154.508619
 30
0.0
 10
94.132212
 20
155.458432
 30
0.0
 10
94.144951
 20
156.000821
 30
0.0
 10
94.154197
 20
156.139148
 30
0.0
 10
94.165732
 20
156.230794
 30
0.0
 10
94.171500
 20
156.276623
 30
0.0
 11
98.973154
 21
158.239192
 31
0.0
 11
99.830633
 21
157.195202
 31
0.0
 11
100.142577
 21
155.912463
 31
0.0
 11
99.860271
 21
154.591294
 31
0.0
 11
99.027223
 21
153.527708
 31
0.0
 11
97.842737
 21
152.944852
 31
0.0
 11
96.491789
 21
152.933747
 31
0.0
 11
95.272779
 21
153.516156
 31
0.0
 11
94.446785
 21
154.545944
 31
0.0
 11
94.142800
 21
155.862293
 31
0.0
 11
94.145951
 21
156.000812
 31
0.0
 11
94.155539
 21
156.138994
 31
0.0
 11
94.171500
 21
156.276623
 31
0.0
  0
SPLINE
  5
11d
100
AcDbEntity
  8
0
 62
1
100
AcDbSpline
 70
0
 71
3
 72
10
 73
6
 74
4
 40
0.000000
 40
0.000000
 40
0.000000
 40
0.000000
 40
14.136728
 40
26.445610
 40
37.103009
 40
37.103009
 40
37.103009
 40
37.103009
 10
57.592998
 20
151.217923
 30
0.0
 10
62.304302
 20
151.287445
 30
0.0
 10
71.117748
 20
151.417499
 30
0.0
 10
83.456954
 20
152.927017
 30
0.0
 10
90.775406
 20
155.214928
 30
0.0
 10
94.171501
 20
156.276623
 30
0.0
 11
57.592998
 21
151.217923
 31
0.0
 11
71.721613
 21
151.696774
 31
0.0
 11
83.914448
 21
153.383007
 31
0.0
 11
94.171501
 21
156.276623
 31
0.0
  0
SPLINE
  5
11e
100
AcDbEntity
  8
0
 62
1
100
AcDbSpline
 70
0
 71
3
 72
10
 73
6
 74
4
 40
0.000000
 40
0.000000
 40
0.000000
 40
0.000000
 40
29.070904
 40
50.497680
 40
68.911882
 40
68.911882
 40
68.911882
 40
68.911882
 10
-15.907006
 20
253.057638
 30
0.0
 10
-15.614488
 20
243.311795
 30
0.0
 10
-15.106370
 20
226.382757
 30
0.0
 10
-5.167696
 20
204.659223
 30
0.0
 10
5.247702
 20
196.218872
 30
0.0
 10
10.061621
 20
192.317805
 30
0.0
 11
-15.907006
 21
253.057638
 31
0.0
 11
-12.784170
 21
224.154950
 31
0.0
 11
-3.382647
 21
204.900910
 31
0.0
 11
10.061621
 21
192.317805
 31
0.0
  0
LWPOLYLINE
  5
11f
100
AcDbEntity
  8
0
 62
1
100
AcDbPolyline
 90
2
 70
0
 10
136.816064
 20
224.839131
 30
0.0
 10
138.000002
 20
250.213928
 30
0.0
  0
SPLINE
  5
120
100
AcDbEntity
  8
0
 62
1
100
AcDbSpline
 70
0
 71
3
 72
10
 73
6
 74
4
 40
0.000000
 40
0.000000
 40
0.000000
 40
0.000000
 40
17.540242
 40
34.426557
 40
50.204781
 40
50.204781
 40
50.204781
 40
50.204781
 10
10.061621
 20
192.317805
 30
0.0
 10
15.160633
 20
189.426617
 30
0.0
 10
25.168559
 20
183.752028
 30
0.0
 10
41.462100
 20
179.149262
 30
0.0
 10
52.339026
 20
178.413185
 30
0.0
 10
57.592998
 20
178.057631
 30
0.0
 11
10.061621
 21
192.317805
 31
0.0
 11
25.661058
 21
184.297977
 31
0.0
 11
41.895461
 21
179.651282
 31
0.0
 11
57.592998
 21
178.057631
 31
0.0
  0
LWPOLYLINE
  5
121
100
AcDbEntity
  8
0
 62
1
100
AcDbPolyline
 90
2
 70
0
 10
-15.907006
 20
262.057638
 30
0.0
 10
-15.907006
 20
253.057638
 30
0.0
  0
SPLINE
  5
122
100
AcDbEntity
  8
0
 62
1
100
AcDbSpline
 70
0
 71
3
 72
16
 73
12
 74
10
 40
0.000000
 40
0.000000
 40
0.000000
 40
0.000000
 40
3.037209
 40
6.030951
 40
9.068161
 40
12.105370
 40
15.099112
 40
18.136321
 40
21.173531
 40
24.167273
 40
27.204482
 40
27.204482
 40
27.204482
 40
27.204482
 10
-15.907006
 20
262.057638
 30
0.0
 10
-16.010976
 20
263.075207
 30
0.0
 10
-16.217429
 20
265.095780
 30
0.0
 10
-17.819431
 20
267.766022
 30
0.0
 10
-20.164949
 20
269.751295
 30
0.0
 10
-23.069873
 20
270.804246
 30
0.0
 10
-26.150848
 20
270.804297
 30
0.0
 10
-29.055807
 20
269.751444
 30
0.0
 10
-31.401390
 20
267.766248
 30
0.0
 10
-33.003481
 20
265.096060
 30
0.0
 10
-33.210002
 20
263.075493
 30
0.0
 10
-33.314006
 20
262.057928
 30
0.0
 11
-15.907006
 21
262.057638
 31
0.0
 11
-16.436771
 21
265.048289
 31
0.0
 11
-17.933599
 21
267.640970
 31
0.0
 11
-20.258630
 21
269.595163
 31
0.0
 11
-23.113492
 21
270.631698
 31
0.0
 11
-26.107234
 21
270.631748
 31
0.0
 11
-28.962131
 21
269.595308
 31
0.0
 11
-31.287227
 21
267.641193
 31
0.0
 11
-32.784141
 21
265.048561
 31
0.0
 11
-33.314006
 21
262.057928
 31
0.0
  0
SPLINE
  5
123
100
AcDbEntity
  8
0
 62
1
100
AcDbSpline
 70
0
 71
3
 72
16
 73
12
 74
10
 40
0.000000
 40
0.000000
 40
0.000000
 40
0.000000
 40
1.395857
 40
2.771736
 40
4.167593
 40
5.563449
 40
6.939329
 40
8.335185
 40
9.731042
 40
11.106922
 40
12.502778
 40
12.502778
 40
12.502778
 40
12.502778
 10
-33.314006
 20
246.557928
 30
0.0
 10
-33.266215
 20
246.090269
 30
0.0
 10
-33.171317
 20
245.161645
 30
0.0
 10
-32.435040
 20
243.934454
 30
0.0
 10
-31.357060
 20
243.022069
 30
0.0
 10
-30.021992
 20
242.538171
 30
0.0
 10
-28.606021
 20
242.538171
 30
0.0
 10
-27.270953
 20
243.022069
 30
0.0
 10
-26.192972
 20
243.934454
 30
0.0
 10
-25.456696
 20
245.161645
 30
0.0
 10
-25.361797
 20
246.090269
 30
0.0
 10
-25.314006
 20
246.557928
 30
0.0
 11
-33.314006
 21
246.557928
 31
0.0
 11
-33.070511
 21
245.183473
 31
0.0
 11
-32.382571
 21
243.991926
 31
0.0
 11
-31.314006
 21
243.093826
 31
0.0
 11
-30.001946
 21
242.617472
 31
0.0
 11
-28.626066
 21
242.617472
 31
0.0
 11
-27.314006
 21
243.093826
 31
0.0
 11
-26.245441
 21
243.991926
 31
0.0
 11
-25.557501
 21
245.183473
 31
0.0
 11
-25.314006
 21
246.557928
 31
0.0
  0
LWPOLYLINE
  5
124
100
AcDbEntity
  8
0
 62
1
100
AcDbPolyline
 90
2
 70
0
 10
-33.314006
 20
246.557928
 30
0.0
 10
-33.314006
 20
262.057638
 30
0.0
  0
SPLINE
  5
125
100
AcDbEntity
  8
0
 62
1
100
AcDbSpline
 70
0
 71
3
 72
10
 73
6
 74
4
 40
0.000000
 40
0.000000
 40
0.000000
 40
0.000000
 40
14.136728
 40
26.445610
 40
37.103009
 40
37.103009
 40
37.103009
 40
37.103009
 10
57.592998
 20
151.217923
 30
0.0
 10
52.881694
 20
151.287445
 30
0.0
 10
44.068247
 20
151.417499
 30
0.0
 10
31.729042
 20
152.927017
 30
0.0
 10
24.410590
 20
155.214928
 30
0.0
 10
21.014495
 20
156.276623
 30
0.0
 11
57.592998
 21
151.217923
 31
0.0
 11
43.464382
 21
151.696774
 31
0.0
 11
31.271548
 21
153.383007
 31
0.0
 11
21.014495
 21
156.276623
 31
0.0
  0
SPLINE
  5
126
100
AcDbEntity
  8
0
 62
1
100
AcDbSpline
 70
0
 71
3
 72
19
 73
15
 74
13
 40
0.000000
 40
0.000000
 40
0.000000
 40
0.000000
 40
1.350994
 40
2.671118
 40
4.022112
 40
5.373105
 40
6.693230
 40
8.044224
 40
9.395217
 40
10.715342
 40
12.066336
 40
12.204890
 40
12.343405
 40
12.481956
 40
12.481956
 40
12.481956
 40
12.481956
 10
16.212842
 20
158.239192
 30
0.0
 10
15.889903
 20
157.914185
 30
0.0
 10
15.251404
 20
157.271598
 30
0.0
 10
14.945332
 20
155.898030
 30
0.0
 10
15.229466
 20
154.548450
 30
0.0
 10
16.086757
 20
153.453975
 30
0.0
 10
17.329224
 20
152.842956
 30
0.0
 10
18.717002
 20
152.831193
 30
0.0
 10
19.969054
 20
153.430069
 30
0.0
 10
20.835869
 20
154.508619
 30
0.0
 10
21.053784
 20
155.458432
 30
0.0
 10
21.041045
 20
156.000821
 30
0.0
 10
21.031799
 20
156.139148
 30
0.0
 10
21.020264
 20
156.230794
 30
0.0
 10
21.014496
 20
156.276623
 30
0.0
 11
16.212842
 21
158.239192
 31
0.0
 11
15.355363
 21
157.195202
 31
0.0
 11
15.043419
 21
155.912463
 31
0.0
 11
15.325725
 21
154.591294
 31
0.0
 11
16.158773
 21
153.527708
 31
0.0
 11
17.343259
 21
152.944852
 31
0.0
 11
18.694207
 21
152.933747
 31
0.0
 11
19.913217
 21
153.516156
 31
0.0
 11
20.739210
 21
154.545944
 31
0.0
 11
21.043196
 21
155.862293
 31
0.0
 11
21.040045
 21
156.000812
 31
0.0
 11
21.030457
 21
156.138994
 31
0.0
 11
21.014496
 21
156.276623
 31
0.0
  0
LWPOLYLINE
  5
127
100
AcDbEntity
  8
0
 62
1
100
AcDbPolyline
 90
2
 70
0
 10
-25.314006
 20
250.557928
 30
0.0
 10
-25.314006
 20
246.557928
 30
0.0
  0
SPLINE
  5
128
100
AcDbEntity
  8
0
 62
1
100
AcDbSpline
 70
0
 71
3
 72
16
 73
12
 74
10
 40
0.000000
 40
0.000000
 40
0.000000
 40
0.000000
 40
0.436205
 40
0.866168
 40
1.302373
 40
1.738578
 40
2.168540
 40
2.604745
 40
3.040951
 40
3.470913
 40
3.907118
 40
3.907118
 40
3.907118
 40
3.907118
 10
-22.814006
 20
250.557928
 30
0.0
 10
-22.828941
 20
250.704071
 30
0.0
 10
-22.858596
 20
250.994266
 30
0.0
 10
-23.088683
 20
251.377764
 30
0.0
 10
-23.425552
 20
251.662884
 30
0.0
 10
-23.842761
 20
251.814102
 30
0.0
 10
-24.285251
 20
251.814102
 30
0.0
 10
-24.702460
 20
251.662884
 30
0.0
 10
-25.039329
 20
251.377764
 30
0.0
 10
-25.269416
 20
250.994266
 30
0.0
 10
-25.299071
 20
250.704071
 30
0.0
 10
-25.314006
 20
250.557928
 30
0.0
 11
-22.814006
 21
250.557928
 31
0.0
 11
-22.890098
 21
250.987445
 31
0.0
 11
-23.105079
 21
251.359803
 31
0.0
 11
-23.439006
 21
251.640460
 31
0.0
 11
-23.849025
 21
251.789320
 31
0.0
 11
-24.278987
 21
251.789320
 31
0.0
 11
-24.689006
 21
251.640460
 31
0.0
 11
-25.022933
 21
251.359803
 31
0.0
 11
-25.237914
 21
250.987445
 31
0.0
 11
-25.314006
 21
250.557928
 31
0.0
  0
LWPOLYLINE
  5
129
100
AcDbEntity
  8
0
 62
1
100
AcDbPolyline
 90
2
 70
0
 10
-22.814006
 20
250.213928
 30
0.0
 10
-22.814006
 20
250.557928
 30
0.0
  0
SPLINE
  5
12a
100
AcDbEntity
  8
0
 62
1
100
AcDbSpline
 70
0
 71
3
 72
10
 73
6
 74
4
 40
0.000000
 40
0.000000
 40
0.000000
 40
0.000000
 40
21.912466
 40
45.916645
 40
75.015273
 40
75.015273
 40
75.015273
 40
75.015273
 10
16.212842
 20
158.239192
 30
0.0
 10
9.865471
 20
162.064557
 30
0.0
 10
-3.435176
 20
170.080448
 30
0.0
 10
-16.001414
 20
192.877812
 30
0.0
 10
-19.339636
 20
210.262839
 30
0.0
 10
-21.168875
 20
219.789274
 30
0.0
 11
16.212842
 21
158.239192
 31
0.0
 11
-1.551894
 21
171.067688
 31
0.0
 11
-14.012466
 21
191.584382
 31
0.0
 11
-21.168875
 21
219.789274
 31
0.0
  0
LWPOLYLINE
  5
12b
100
AcDbEntity
  8
0
 62
1
100
AcDbPolyline
 90
2
 70
0
 10
-21.630068
 20
224.839131
 30
0.0
 10
-22.814006
 20
250.213928
 30
0.0
  0
SPLINE
  5
12c
100
AcDbEntity
  8
0
 62
1
100
AcDbSpline
 70
0
 71
3
 72
16
 73
12
 74
10
 40
0.000000
 40
0.000000
 40
0.000000
 40
0.000000
 40
1.421787
 40
2.808008
 40
4.229795
 40
5.651582
 40
7.037803
 40
8.459590
 40
9.881377
 40
11.267597
 40
12.689385
 40
12.689385
 40
12.689385
 40
12.689385
 10
-21.630068
 20
224.839131
 30
0.0
 10
-22.086576
 20
224.997176
 30
0.0
 10
-22.988172
 20
225.309313
 30
0.0
 10
-24.426013
 20
224.929303
 30
0.0
 10
-25.531040
 20
223.982539
 30
0.0
 10
-26.077475
 20
222.620242
 30
0.0
 10
-25.944658
 20
221.165848
 30
0.0
 10
-25.160507
 20
219.925061
 30
0.0
 10
-23.902270
 20
219.194113
 30
0.0
 10
-22.419380
 20
219.080826
 30
0.0
 10
-21.589236
 20
219.551107
 30
0.0
 10
-21.168906
 20
219.789226
 30
0.0
 11
-21.630068
 21
224.839131
 31
0.0
 11
-23.013162
 21
225.168567
 31
0.0
 11
-24.360077
 21
224.840804
 31
0.0
 11
-25.437158
 21
223.912701
 31
0.0
 11
-25.966463
 21
222.593112
 31
0.0
 11
-25.840397
 21
221.212636
 31
0.0
 11
-25.080828
 21
220.010748
 31
0.0
 11
-23.853455
 21
219.293090
 31
0.0
 11
-22.469451
 21
219.214718
 31
0.0
 11
-21.168906
 21
219.789226
 31
0.0
  0
SPLINE
  5
12d
100
AcDbEntity
  8
0
 62
1
100
AcDbSpline
 70
0
 71
3
 72
13
 73
9
 74
7
 40
0.000000
 40
0.000000
 40
0.000000
 40
0.000000
 40
0.522362
 40
1.029260
 40
1.551623
 40
2.073985
 40
2.580883
 40
3.103245
 40
3.103245
 40
3.103245
 40
3.103245
 10
136.796502
 20
255.057638
 30
0.0
 10
136.620438
 20
255.085389
 30
0.0
 10
136.273522
 20
255.140070
 30
0.0
 10
135.891881
 20
255.537797
 30
0.0
 10
135.750486
 20
256.057783
 30
0.0
 10
135.891881
 20
256.577769
 30
0.0
 10
136.273522
 20
256.975496
 30
0.0
 10
136.620438
 20
257.030177
 30
0.0
 10
136.796502
 20
257.057928
 30
0.0
 11
136.796502
 21
255.057638
 31
0.0
 11
136.292459
 21
255.194762
 31
0.0
 11
135.934338
 21
255.553503
 31
0.0
 11
135.798087
 21
256.057783
 31
0.0
 11
135.934338
 21
256.562063
 31
0.0
 11
136.292459
 21
256.920804
 31
0.0
 11
136.796502
 21
257.057928
 31
0.0
  0
LWPOLYLINE
  5
12e
100
AcDbEntity
  8
0
 62
1
100
AcDbPolyline
 90
2
 70
0
 10
142.796502
 20
257.057638
 30
0.0
 10
136.796502
 20
257.057638
 30
0.0
  0
LWPOLYLINE
  5
12f
100
AcDbEntity
  8
0
 62
1
100
AcDbPolyline
 90
2
 70
0
 10
142.796502
 20
255.057638
 30
0.0
 10
136.796502
 20
255.057638
 30
0.0
  0
SPLINE
  5
130
100
AcDbEntity
  8
0
 62
1
100
AcDbSpline
 70
0
 71
3
 72
16
 73
12
 74
10
 40
0.000000
 40
0.000000
 40
0.000000
 40
0.000000
 40
0.352743
 40
0.700335
 40
1.053078
 40
1.405821
 40
1.753412
 40
2.106155
 40
2.458898
 40
2.806490
 40
3.159233
 40
3.159233
 40
3.159233
 40
3.159233
 10
142.796502
 20
257.057638
 30
0.0
 10
142.914887
 20
257.047440
 30
0.0
 10
143.149927
 20
257.027191
 30
0.0
 10
143.462282
 20
256.844528
 30
0.0
 10
143.694975
 20
256.573798
 30
0.0
 10
143.818577
 20
256.236753
 30
0.0
 10
143.818577
 20
255.878813
 30
0.0
 10
143.694975
 20
255.541769
 30
0.0
 10
143.462282
 20
255.271039
 30
0.0
 10
143.149927
 20
255.088375
 30
0.0
 10
142.914887
 20
255.068127
 30
0.0
 10
142.796502
 20
255.057928
 30
0.0
 11
142.796502
 21
257.057638
 31
0.0
 11
143.144727
 21
257.001361
 31
0.0
 11
143.447704
 21
256.830994
 31
0.0
 11
143.676704
 21
256.562691
 31
0.0
 11
143.798328
 21
256.231579
 31
0.0
 11
143.798328
 21
255.883987
 31
0.0
 11
143.676704
 21
255.552875
 31
0.0
 11
143.447704
 21
255.284572
 31
0.0
 11
143.144727
 21
255.114205
 31
0.0
 11
142.796502
 21
255.057928
 31
0.0
  0
SPLINE
  5
131
100
AcDbEntity
  8
0
 62
1
100
AcDbSpline
 70
0
 71
3
 72
16
 73
12
 74
10
 40
0.000000
 40
0.000000
 40
0.000000
 40
0.000000
 40
0.349400
 40
0.693788
 40
1.043188
 40
1.392588
 40
1.736977
 40
2.086376
 40
2.435776
 40
2.780165
 40
3.129564
 40
3.129564
 40
3.129564
 40
3.129564
 10
136.796502
 20
261.057638
 30
0.0
 10
136.679419
 20
261.069412
 30
0.0
 10
136.446934
 20
261.092790
 30
0.0
 10
136.139526
 20
261.276748
 30
0.0
 10
135.910931
 20
261.546411
 30
0.0
 10
135.789672
 20
261.880561
 30
0.0
 10
135.789672
 20
262.235006
 30
0.0
 10
135.910931
 20
262.569156
 30
0.0
 10
136.139526
 20
262.838819
 30
0.0
 10
136.446934
 20
263.022776
 30
0.0
 10
136.679419
 20
263.046155
 30
0.0
 10
136.796502
 20
263.057929
 30
0.0
 11
136.796502
 21
261.057638
 31
0.0
 11
136.452366
 21
261.118059
 31
0.0
 11
136.153918
 21
261.289909
 31
0.0
 11
135.928906
 21
261.557210
 31
0.0
 11
135.809543
 21
261.885589
 31
0.0
 11
135.809543
 21
262.229978
 31
0.0
 11
135.928906
 21
262.558357
 31
0.0
 11
136.153918
 21
262.825658
 31
0.0
 11
136.452366
 21
262.997508
 31
0.0
 11
136.796502
 21
263.057929
 31
0.0
  0
LWPOLYLINE
  5
132
100
AcDbEntity
  8
0
 62
1
100
AcDbPolyline
 90
2
 70
0
 10
142.796502
 20
263.057639
 30
0.0
 10
136.796502
 20
263.057639
 30
0.0
  0
LWPOLYLINE
  5
133
100
AcDbEntity
  8
0
 62
1
100
AcDbPolyline
 90
2
 70
0
 10
142.796502
 20
261.057638
 30
0.0
 10
136.796502
 20
261.057638
 30
0.0
  0
SPLINE
  5
134
100
AcDbEntity
  8
0
 62
1
100
AcDbSpline
 70
0
 71
3
 72
13
 73
9
 74
7
 40
0.000000
 40
0.000000
 40
0.000000
 40
0.000000
 40
0.517221
 40
1.019382
 40
1.536603
 40
2.053823
 40
2.555985
 40
3.073205
 40
3.073205
 40
3.073205
 40
3.073205
 10
142.796502
 20
263.057639
 30
0.0
 10
142.970360
 20
263.027784
 30
0.0
 10
143.313013
 20
262.968944
 30
0.0
 10
143.687507
 20
262.572657
 30
0.0
 10
143.826136
 20
262.057783
 30
0.0
 10
143.687507
 20
261.542910
 30
0.0
 10
143.313013
 20
261.146623
 30
0.0
 10
142.970360
 20
261.087783
 30
0.0
 10
142.796502
 20
261.057928
 30
0.0
 11
142.796502
 21
263.057639
 31
0.0
 11
143.293821
 21
262.915542
 31
0.0
 11
143.645866
 21
262.557450
 31
0.0
 11
143.779473
 21
262.057783
 31
0.0
 11
143.645866
 21
261.558117
 31
0.0
 11
143.293821
 21
261.200025
 31
0.0
 11
142.796502
 21
261.057928
 31
0.0
  0
SPLINE
  5
135
100
AcDbEntity
  8
0
 62
1
100
AcDbSpline
 70
0
 71
3
 72
13
 73
9
 74
7
 40
0.000000
 40
0.000000
 40
0.000000
 40
0.000000
 40
0.522362
 40
1.029260
 40
1.551623
 40
2.073985
 40
2.580883
 40
3.103245
 40
3.103245
 40
3.103245
 40
3.103245
 10
-21.610506
 20
255.057638
 30
0.0
 10
-21.434442
 20
255.085389
 30
0.0
 10
-21.087526
 20
255.140070
 30
0.0
 10
-20.705885
 20
255.537797
 30
0.0
 10
-20.564490
 20
256.057783
 30
0.0
 10
-20.705885
 20
256.577769
 30
0.0
 10
-21.087526
 20
256.975496
 30
0.0
 10
-21.434442
 20
257.030177
 30
0.0
 10
-21.610506
 20
257.057928
 30
0.0
 11
-21.610506
 21
255.057638
 31
0.0
 11
-21.106463
 21
255.194762
 31
0.0
 11
-20.748342
 21
255.553503
 31
0.0
 11
-20.612091
 21
256.057783
 31
0.0
 11
-20.748342
 21
256.562063
 31
0.0
 11
-21.106463
 21
256.920804
 31
0.0
 11
-21.610506
 21
257.057928
 31
0.0
  0
LWPOLYLINE
  5
136
100
AcDbEntity
  8
0
 62
1
100
AcDbPolyline
 90
2
 70
0
 10
-27.610506
 20
257.057638
 30
0.0
 10
-21.610506
 20
257.057638
 30
0.0
  0
LWPOLYLINE
  5
137
100
AcDbEntity
  8
0
 62
1
100
AcDbPolyline
 90
2
 70
0
 10
-27.610506
 20
255.057638
 30
0.0
 10
-21.610506
 20
255.057638
 30
0.0
  0
SPLINE
  5
138
100
AcDbEntity
  8
0
 62
1
100
AcDbSpline
 70
0
 71
3
 72
16
 73
12
 74
10
 40
0.000000
 40
0.000000
 40
0.000000
 40
0.000000
 40
0.352743
 40
0.700335
 40
1.053078
 40
1.405821
 40
1.753412
 40
2.106155
 40
2.458898
 40
2.806490
 40
3.159233
 40
3.159233
 40
3.159233
 40
3.159233
 10
-27.610506
 20
257.057638
 30
0.0
 10
-27.728891
 20
257.047440
 30
0.0
 10
-27.963931
 20
257.027191
 30
0.0
 10
-28.276286
 20
256.844528
 30
0.0
 10
-28.508979
 20
256.573798
 30
0.0
 10
-28.632581
 20
256.236753
 30
0.0
 10
-28.632581
 20
255.878813
 30
0.0
 10
-28.508979
 20
255.541769
 30
0.0
 10
-28.276286
 20
255.271039
 30
0.0
 10
-27.963931
 20
255.088375
 30
0.0
 10
-27.728891
 20
255.068127
 30
0.0
 10
-27.610506
 20
255.057928
 30
0.0
 11
-27.610506
 21
257.057638
 31
0.0
 11
-27.958731
 21
257.001361
 31
0.0
 11
-28.261708
 21
256.830994
 31
0.0
 11
-28.490708
 21
256.562691
 31
0.0
 11
-28.612332
 21
256.231579
 31
0.0
 11
-28.612332
 21
255.883987
 31
0.0
 11
-28.490708
 21
255.552875
 31
0.0
 11
-28.261708
 21
255.284572
 31
0.0
 11
-27.958731
 21
255.114205
 31
0.0
 11
-27.610506
 21
255.057928
 31
0.0
  0
SPLINE
  5
139
100
AcDbEntity
  8
0
 62
1
100
AcDbSpline
 70
0
 71
3
 72
16
 73
12
 74
10
 40
0.000000
 40
0.000000
 40
0.000000
 40
0.000000
 40
0.349400
 40
0.693788
 40
1.043188
 40
1.392588
 40
1.736977
 40
2.086376
 40
2.435776
 40
2.780165
 40
3.129564
 40
3.129564
 40
3.129564
 40
3.129564
 10
-21.610506
 20
261.057638
 30
0.0
 10
-21.493423
 20
261.069412
 30
0.0
 10
-21.260938
 20
261.092790
 30
0.0
 10
-20.953530
 20
261.276748
 30
0.0
 10
-20.724935
 20
261.546411
 30
0.0
 10
-20.603676
 20
261.880561
 30
0.0
 10
-20.603676
 20
262.235006
 30
0.0
 10
-20.724935
 20
262.569156
 30
0.0
 10
-20.953530
 20
262.838819
 30
0.0
 10
-21.260938
 20
263.022776
 30
0.0
 10
-21.493423
 20
263.046155
 30
0.0
 10
-21.610506
 20
263.057929
 30
0.0
 11
-21.610506
 21
261.057638
 31
0.0
 11
-21.266370
 21
261.118059
 31
0.0
 11
-20.967922
 21
261.289909
 31
0.0
 11
-20.742910
 21
261.557210
 31
0.0
 11
-20.623547
 21
261.885589
 31
0.0
 11
-20.623547
 21
262.229978
 31
0.0
 11
-20.742910
 21
262.558357
 31
0.0
 11
-20.967922
 21
262.825658
 31
0.0
 11
-21.266370
 21
262.997508
 31
0.0
 11
-21.610506
 21
263.057929
 31
0.0
  0
LWPOLYLINE
  5
13a
100
AcDbEntity
  8
0
 62
1
100
AcDbPolyline
 90
2
 70
0
 10
-27.610506
 20
263.057639
 30
0.0
 10
-21.610506
 20
263.057639
 30
0.0
  0
SPLINE
  5
13b
100
AcDbEntity
  8
0
 62
1
100
AcDbSpline
 70
0
 71
3
 72
13
 73
9
 74
7
 40
0.000000
 40
0.000000
 40
0.000000
 40
0.000000
 40
0.517221
 40
1.019382
 40
1.536603
 40
2.053823
 40
2.555985
 40
3.073205
 40
3.073205
 40
3.073205
 40
3.073205
 10
-27.610506
 20
263.057639
 30
0.0
 10
-27.784364
 20
263.027784
 30
0.0
 10
-28.127017
 20
262.968944
 30
0.0
 10
-28.501511
 20
262.572657
 30
0.0
 10
-28.640140
 20
262.057783
 30
0.0
 10
-28.501511
 20
261.542910
 30
0.0
 10
-28.127017
 20
261.146623
 30
0.0
 10
-27.784364
 20
261.087783
 30
0.0
 10
-27.610506
 20
261.057928
 30
0.0
 11
-27.610506
 21
263.057639
 31
0.0
 11
-28.107825
 21
262.915542
 31
0.0
 11
-28.459870
 21
262.557450
 31
0.0
 11
-28.593477
 21
262.057783
 31
0.0
 11
-28.459870
 21
261.558117
 31
0.0
 11
-28.107825
 21
261.200025
 31
0.0
 11
-27.610506
 21
261.057928
 31
0.0
  0
LWPOLYLINE
  5
13c
100
AcDbEntity
  8
0
 62
1
100
AcDbPolyline
 90
2
 70
0
 10
-27.610506
 20
261.057638
 30
0.0
 10
-21.610506
 20
261.057638
 30
0.0
  0
SPLINE
  5
13d
100
AcDbEntity
  8
0
 62
1
100
AcDbSpline
 70
0
 71
3
 72
25
 73
21
 74
19
 40
0.000000
 40
0.000000
 40
0.000000
 40
0.000000
 40
0.872410
 40
1.732335
 40
2.604745
 40
3.477156
 40
4.337081
 40
5.209491
 40
6.081901
 40
6.941826
 40
7.814236
 40
8.686647
 40
9.546571
 40
10.418982
 40
11.291392
 40
12.151317
 40
13.023727
 40
13.896137
 40
14.756062
 40
15.628473
 40
15.628473
 40
15.628473
 40
15.628473
 10
87.092999
 20
168.057630
 30
0.0
 10
87.063129
 20
168.349917
 30
0.0
 10
87.003817
 20
168.930307
 30
0.0
 10
86.543650
 20
169.697301
 30
0.0
 10
85.869888
 20
170.267542
 30
0.0
 10
85.035561
 20
170.569978
 30
0.0
 10
84.150246
 20
170.569978
 30
0.0
 10
83.317087
 20
170.267542
 30
0.0
 10
82.638659
 20
169.697301
 30
0.0
 10
82.195828
 20
168.930307
 30
0.0
 10
82.041214
 20
168.057630
 30
0.0
 10
82.195828
 20
167.184953
 30
0.0
 10
82.638659
 20
166.417959
 30
0.0
 10
83.317087
 20
165.847718
 30
0.0
 10
84.150246
 20
165.545282
 30
0.0
 10
85.035561
 20
165.545282
 30
0.0
 10
85.869888
 20
165.847718
 30
0.0
 10
86.543650
 20
166.417959
 30
0.0
 10
87.003817
 20
167.184953
 30
0.0
 10
87.063129
 20
167.765343
 30
0.0
 10
87.092999
 20
168.057630
 30
0.0
 11
87.092999
 21
168.057630
 31
0.0
 11
86.940815
 21
168.916664
 31
0.0
 11
86.510852
 21
169.661381
 31
0.0
 11
85.842999
 21
170.222694
 31
0.0
 11
85.022962
 21
170.520415
 31
0.0
 11
84.163037
 21
170.520415
 31
0.0
 11
83.342999
 21
170.222694
 31
0.0
 11
82.675146
 21
169.661381
 31
0.0
 11
82.245184
 21
168.916664
 31
0.0
 11
82.092999
 21
168.057630
 31
0.0
 11
82.245184
 21
167.198596
 31
0.0
 11
82.675146
 21
166.453879
 31
0.0
 11
83.342999
 21
165.892566
 31
0.0
 11
84.163037
 21
165.594845
 31
0.0
 11
85.022962
 21
165.594845
 31
0.0
 11
85.842999
 21
165.892566
 31
0.0
 11
86.510852
 21
166.453879
 31
0.0
 11
86.940815
 21
167.198596
 31
0.0
 11
87.092999
 21
168.057630
 31
0.0
  0
LWPOLYLINE
  5
13e
100
AcDbEntity
  8
0
 62
1
100
AcDbPolyline
 90
1
 70
1
 10
87.092999
 20
168.057630
 30
0.0
  0
SPLINE
  5
13f
100
AcDbEntity
  8
0
 62
1
100
AcDbSpline
 70
0
 71
3
 72
25
 73
21
 74
19
 40
0.000000
 40
0.000000
 40
0.000000
 40
0.000000
 40
0.872410
 40
1.732335
 40
2.604745
 40
3.477156
 40
4.337081
 40
5.209491
 40
6.081901
 40
6.941826
 40
7.814236
 40
8.686647
 40
9.546571
 40
10.418982
 40
11.291392
 40
12.151317
 40
13.023727
 40
13.896137
 40
14.756062
 40
15.628473
 40
15.628473
 40
15.628473
 40
15.628473
 10
33.092997
 20
168.057630
 30
0.0
 10
33.063127
 20
168.349917
 30
0.0
 10
33.003815
 20
168.930307
 30
0.0
 10
32.543648
 20
169.697301
 30
0.0
 10
31.869886
 20
170.267542
 30
0.0
 10
31.035559
 20
170.569978
 30
0.0
 10
30.150243
 20
170.569978
 30
0.0
 10
29.317084
 20
170.267542
 30
0.0
 10
28.638657
 20
169.697301
 30
0.0
 10
28.195826
 20
168.930307
 30
0.0
 10
28.041211
 20
168.057630
 30
0.0
 10
28.195826
 20
167.184953
 30
0.0
 10
28.638657
 20
166.417959
 30
0.0
 10
29.317084
 20
165.847718
 30
0.0
 10
30.150243
 20
165.545282
 30
0.0
 10
31.035559
 20
165.545282
 30
0.0
 10
31.869886
 20
165.847718
 30
0.0
 10
32.543648
 20
166.417959
 30
0.0
 10
33.003815
 20
167.184953
 30
0.0
 10
33.063127
 20
167.765343
 30
0.0
 10
33.092997
 20
168.057630
 30
0.0
 11
33.092997
 21
168.057630
 31
0.0
 11
32.940812
 21
168.916664
 31
0.0
 11
32.510850
 21
169.661381
 31
0.0
 11
31.842997
 21
170.222694
 31
0.0
 11
31.022959
 21
170.520415
 31
0.0
 11
30.163034
 21
170.520415
 31
0.0
 11
29.342997
 21
170.222694
 31
0.0
 11
28.675144
 21
169.661381
 31
0.0
 11
28.245181
 21
168.916664
 31
0.0
 11
28.092997
 21
168.057630
 31
0.0
 11
28.245181
 21
167.198596
 31
0.0
 11
28.675144
 21
166.453879
 31
0.0
 11
29.342997
 21
165.892566
 31
0.0
 11
30.163034
 21
165.594845
 31
0.0
 11
31.022959
 21
165.594845
 31
0.0
 11
31.842997
 21
165.892566
 31
0.0
 11
32.510850
 21
166.453879
 31
0.0
 11
32.940812
 21
167.198596
 31
0.0
 11
33.092997
 21
168.057630
 31
0.0
  0
LWPOLYLINE
  5
140
100
AcDbEntity
  8
0
 62
1
100
AcDbPolyline
 90
1
 70
1
 10
33.092997
 20
168.057630
 30
0.0
  0
SPLINE
  5
141
100
AcDbEntity
  8
0
 62
1
100
AcDbSpline
 70
0
 71
3
 72
25
 73
21
 74
19
 40
0.000000
 40
0.000000
 40
0.000000
 40
0.000000
 40
0.872410
 40
1.732335
 40
2.604745
 40
3.477156
 40
4.337081
 40
5.209491
 40
6.081901
 40
6.941826
 40
7.814236
 40
8.686647
 40
9.546571
 40
10.418982
 40
11.291392
 40
12.151317
 40
13.023727
 40
13.896137
 40
14.756062
 40
15.628473
 40
15.628473
 40
15.628473
 40
15.628473
 10
114.093001
 20
183.057631
 30
0.0
 10
114.063131
 20
183.349917
 30
0.0
 10
114.003818
 20
183.930307
 30
0.0
 10
113.543652
 20
184.697302
 30
0.0
 10
112.869890
 20
185.267542
 30
0.0
 10
112.035562
 20
185.569979
 30
0.0
 10
111.150247
 20
185.569979
 30
0.0
 10
110.317088
 20
185.267542
 30
0.0
 10
109.638661
 20
184.697302
 30
0.0
 10
109.195830
 20
183.930307
 30
0.0
 10
109.041215
 20
183.057631
 30
0.0
 10
109.195830
 20
182.184954
 30
0.0
 10
109.638661
 20
181.417959
 30
0.0
 10
110.317088
 20
180.847719
 30
0.0
 10
111.150247
 20
180.545283
 30
0.0
 10
112.035562
 20
180.545283
 30
0.0
 10
112.869890
 20
180.847719
 30
0.0
 10
113.543652
 20
181.417959
 30
0.0
 10
114.003818
 20
182.184954
 30
0.0
 10
114.063131
 20
182.765344
 30
0.0
 10
114.093001
 20
183.057631
 30
0.0
 11
114.093001
 21
183.057631
 31
0.0
 11
113.940816
 21
183.916665
 31
0.0
 11
113.510854
 21
184.661382
 31
0.0
 11
112.843001
 21
185.222694
 31
0.0
 11
112.022963
 21
185.520416
 31
0.0
 11
111.163038
 21
185.520416
 31
0.0
 11
110.343000
 21
185.222694
 31
0.0
 11
109.675147
 21
184.661382
 31
0.0
 11
109.245185
 21
183.916665
 31
0.0
 11
109.093000
 21
183.057631
 31
0.0
 11
109.245185
 21
182.198597
 31
0.0
 11
109.675147
 21
181.453880
 31
0.0
 11
110.343000
 21
180.892567
 31
0.0
 11
111.163038
 21
180.594846
 31
0.0
 11
112.022963
 21
180.594846
 31
0.0
 11
112.843001
 21
180.892567
 31
0.0
 11
113.510854
 21
181.453880
 31
0.0
 11
113.940816
 21
182.198597
 31
0.0
 11
114.093001
 21
183.057631
 31
0.0
  0
LWPOLYLINE
  5
142
100
AcDbEntity
  8
0
 62
1
100
AcDbPolyline
 90
1
 70
1
 10
114.093001
 20
183.057631
 30
0.0
  0
LWPOLYLINE
  5
143
100
AcDbEntity
  8
0
 62
1
100
AcDbPolyline
 90
1
 70
1
 10
6.092995
 20
183.057631
 30
0.0
  0
SPLINE
  5
144
100
AcDbEntity
  8
0
 62
1
100
AcDbSpline
 70
0
 71
3
 72
25
 73
21
 74
19
 40
0.000000
 40
0.000000
 40
0.000000
 40
0.000000
 40
0.872410
 40
1.732335
 40
2.604745
 40
3.477156
 40
4.337081
 40
5.209491
 40
6.081901
 40
6.941826
 40
7.814236
 40
8.686647
 40
9.546571
 40
10.418982
 40
11.291392
 40
12.151317
 40
13.023727
 40
13.896137
 40
14.756062
 40
15.628473
 40
15.628473
 40
15.628473
 40
15.628473
 10
6.092995
 20
183.057631
 30
0.0
 10
6.063126
 20
183.349917
 30
0.0
 10
6.003813
 20
183.930307
 30
0.0
 10
5.543647
 20
184.697302
 30
0.0
 10
4.869885
 20
185.267542
 30
0.0
 10
4.035557
 20
185.569979
 30
0.0
 10
3.150242
 20
185.569979
 30
0.0
 10
2.317083
 20
185.267542
 30
0.0
 10
1.638656
 20
184.697302
 30
0.0
 10
1.195824
 20
183.930307
 30
0.0
 10
1.041210
 20
183.057631
 30
0.0
 10
1.195824
 20
182.184954
 30
0.0
 10
1.638656
 20
181.417959
 30
0.0
 10
2.317083
 20
180.847719
 30
0.0
 10
3.150242
 20
180.545283
 30
0.0
 10
4.035557
 20
180.545283
 30
0.0
 10
4.869885
 20
180.847719
 30
0.0
 10
5.543647
 20
181.417959
 30
0.0
 10
6.003813
 20
182.184954
 30
0.0
 10
6.063126
 20
182.765344
 30
0.0
 10
6.092995
 20
183.057631
 30
0.0
 11
6.092995
 21
183.057631
 31
0.0
 11
5.940811
 21
183.916665
 31
0.0
 11
5.510849
 21
184.661382
 31
0.0
 11
4.842995
 21
185.222694
 31
0.0
 11
4.022958
 21
185.520416
 31
0.0
 11
3.163033
 21
185.520416
 31
0.0
 11
2.342995
 21
185.222694
 31
0.0
 11
1.675142
 21
184.661382
 31
0.0
 11
1.245180
 21
183.916665
 31
0.0
 11
1.092995
 21
183.057631
 31
0.0
 11
1.245180
 21
182.198597
 31
0.0
 11
1.675142
 21
181.453880
 31
0.0
 11
2.342995
 21
180.892567
 31
0.0
 11
3.163033
 21
180.594846
 31
0.0
 11
4.022958
 21
180.594846
 31
0.0
 11
4.842995
 21
180.892567
 31
0.0
 11
5.510849
 21
181.453880
 31
0.0
 11
5.940811
 21
182.198597
 31
0.0
 11
6.092995
 21
183.057631
 31
0.0
  0
LWPOLYLINE
  5
145
100
AcDbEntity
  8
0
 62
5
100
AcDbPolyline
 90
11
 70
1
 10
38.876398
 20
290.814450
 30
0.0
 10
40.581720
 20
290.814450
 30
0.0
 10
40.581720
 20
296.700390
 30
0.0
 10
38.726536
 20
296.328320
 30
0.0
 10
38.726536
 20
297.279170
 30
0.0
 10
40.571385
 20
297.651240
 30
0.0
 10
41.615249
 20
297.651240
 30
0.0
 10
41.615249
 20
290.814450
 30
0.0
 10
43.320571
 20
290.814450
 30
0.0
 10
43.320571
 20
289.935950
 30
0.0
 10
38.876398
 20
289.935950
 30
0.0
  0
SPLINE
  5
146
100
AcDbEntity
  8
0
 62
5
100
AcDbSpline
 70
0
 71
3
 72
31
 73
27
 74
25
 40
0.000000
 40
0.000000
 40
0.000000
 40
0.000000
 40
0.463183
 40
0.876085
 40
1.265814
 40
1.646034
 40
2.037579
 40
2.471923
 40
2.906267
 40
3.297813
 40
3.678033
 40
4.067762
 40
4.480663
 40
4.943847
 40
5.407030
 40
5.819932
 40
6.209661
 40
6.593460
 40
6.985630
 40
7.417758
 40
7.852164
 40
8.244334
 40
8.626339
 40
9.014178
 40
9.427080
 40
9.892550
 40
9.892550
 40
9.892550
 40
9.892550
 10
47.666559
 20
293.599810
 30
0.0
 10
47.511750
 20
293.592567
 30
0.0
 10
47.218937
 20
293.578867
 30
0.0
 10
46.813230
 20
293.442858
 30
0.0
 10
46.482390
 20
293.218829
 30
0.0
 10
46.238621
 20
292.909774
 30
0.0
 10
46.095535
 20
292.527919
 30
0.0
 10
46.056201
 20
292.106356
 30
0.0
 10
46.095535
 20
291.684817
 30
0.0
 10
46.238622
 20
291.302896
 30
0.0
 10
46.482390
 20
290.994073
 30
0.0
 10
46.813231
 20
290.769147
 30
0.0
 10
47.218935
 20
290.636844
 30
0.0
 10
47.666564
 20
290.600251
 30
0.0
 10
48.114164
 20
290.636862
 30
0.0
 10
48.519944
 20
290.769085
 30
0.0
 10
48.851533
 20
290.994969
 30
0.0
 10
49.096732
 20
291.304304
 30
0.0
 10
49.242203
 20
291.686024
 30
0.0
 10
49.282316
 20
292.107144
 30
0.0
 10
49.242320
 20
292.528140
 30
0.0
 10
49.097476
 20
292.910549
 30
0.0
 10
48.850833
 20
293.217150
 30
0.0
 10
48.522059
 20
293.443672
 30
0.0
 10
48.115601
 20
293.578931
 30
0.0
 10
47.822095
 20
293.592578
 30
0.0
 10
47.666559
 20
293.599810
 30
0.0
 11
47.666559
 21
293.599810
 31
0.0
 11
47.205490
 21
293.555598
 31
0.0
 11
46.814472
 21
293.422961
 31
0.0
 11
46.493504
 21
293.201900
 31
0.0
 11
46.258089
 21
292.903324
 31
0.0
 11
46.116840
 21
292.538144
 31
0.0
 11
46.069757
 21
292.106360
 31
0.0
 11
46.116840
 21
291.674575
 31
0.0
 11
46.258089
 21
291.309395
 31
0.0
 11
46.493504
 21
291.010820
 31
0.0
 11
46.814472
 21
290.789759
 31
0.0
 11
47.205490
 21
290.657122
 31
0.0
 11
47.666559
 21
290.612910
 31
0.0
 11
48.127628
 21
290.657122
 31
0.0
 11
48.518646
 21
290.789759
 31
0.0
 11
48.839614
 21
291.010820
 31
0.0
 11
49.077900
 21
291.311689
 31
0.0
 11
49.220871
 21
291.676869
 31
0.0
 11
49.268528
 21
292.106360
 31
0.0
 11
49.220871
 21
292.538144
 31
0.0
 11
49.077900
 21
292.903324
 31
0.0
 11
48.839614
 21
293.201900
 31
0.0
 11
48.520943
 21
293.422961
 31
0.0
 11
48.129924
 21
293.555598
 31
0.0
 11
47.666559
 21
293.599810
 31
0.0
  0
SPLINE
  5
147
100
AcDbEntity
  8
0
 62
5
100
AcDbSpline
 70
0
 71
3
 72
10
 73
6
 74
4
 40
0.000000
 40
0.000000
 40
0.000000
 40
0.000000
 40
0.439065
 40
0.846149
 40
1.240857
 40
1.240857
 40
1.240857
 40
1.240857
 10
46.622695
 20
294.044220
 30
0.0
 10
46.482245
 20
294.086208
 30
0.0
 10
46.211573
 20
294.167126
 30
0.0
 10
45.848507
 20
294.378432
 30
0.0
 10
45.664330
 20
294.573488
 30
0.0
 10
45.573663
 20
294.669510
 30
0.0
 11
46.622695
 21
294.044220
 31
0.0
 11
46.207561
 21
294.187194
 31
0.0
 11
45.857884
 21
294.395624
 31
0.0
 11
45.573663
 21
294.669510
 31
0.0
  0
SPLINE
  5
148
100
AcDbEntity
  8
0
 62
5
100
AcDbSpline
 70
0
 71
3
 72
13
 73
9
 74
7
 40
0.000000
 40
0.000000
 40
0.000000
 40
0.000000
 40
0.388552
 40
0.782383
 40
1.203000
 40
1.781225
 40
2.315542
 40
2.857778
 40
2.857778
 40
2.857778
 40
2.857778
 10
45.573663
 20
294.669510
 30
0.0
 10
45.498880
 20
294.776051
 30
0.0
 10
45.348296
 20
294.990582
 30
0.0
 10
45.226766
 20
295.378938
 30
0.0
 10
45.184527
 20
295.843287
 30
0.0
 10
45.244375
 20
296.355805
 30
0.0
 10
45.465488
 20
296.876029
 30
0.0
 10
45.726445
 20
297.126948
 30
0.0
 10
45.857883
 20
297.253330
 30
0.0
 11
45.573663
 21
294.669510
 31
0.0
 11
45.366958
 21
294.998517
 31
0.0
 11
45.242934
 21
295.372310
 31
0.0
 11
45.201593
 21
295.790890
 31
0.0
 11
45.274514
 21
296.364499
 31
0.0
 11
45.493278
 21
296.851979
 31
0.0
 11
45.857883
 21
297.253330
 31
0.0
  0
SPLINE
  5
149
100
AcDbEntity
  8
0
 62
5
100
AcDbSpline
 70
0
 71
3
 72
19
 73
15
 74
13
 40
0.000000
 40
0.000000
 40
0.000000
 40
0.000000
 40
0.578031
 40
1.206976
 40
1.920318
 40
2.635949
 40
3.264894
 40
3.840959
 40
4.383196
 40
4.917512
 40
5.495738
 40
5.916411
 40
6.310789
 40
6.700876
 40
6.700876
 40
6.700876
 40
6.700876
 10
45.857883
 20
297.253330
 30
0.0
 10
46.018267
 20
297.362209
 30
0.0
 10
46.353161
 20
297.589558
 30
0.0
 10
46.981679
 20
297.756624
 30
0.0
 10
47.666860
 20
297.808380
 30
0.0
 10
48.354704
 20
297.758700
 30
0.0
 10
48.976573
 20
297.583481
 30
0.0
 10
49.483172
 20
297.281708
 30
0.0
 10
49.863501
 20
296.870777
 30
0.0
 10
50.089923
 20
296.357345
 30
0.0
 10
50.148482
 20
295.842977
 30
0.0
 10
50.106061
 20
295.378759
 30
0.0
 10
49.982498
 20
294.990063
 30
0.0
 10
49.830079
 20
294.775971
 30
0.0
 10
49.754287
 20
294.669510
 30
0.0
 11
45.857883
 21
297.253330
 31
0.0
 11
46.352829
 21
297.551908
 31
0.0
 11
46.955721
 21
297.731055
 31
0.0
 11
47.666559
 21
297.790770
 31
0.0
 11
48.379694
 21
297.731055
 31
0.0
 11
48.982586
 21
297.551908
 31
0.0
 11
49.475234
 21
297.253330
 31
0.0
 11
49.839840
 21
296.851979
 31
0.0
 11
50.058604
 21
296.364499
 31
0.0
 11
50.131525
 21
295.790890
 31
0.0
 11
50.089610
 21
295.372310
 31
0.0
 11
49.963864
 21
294.998517
 31
0.0
 11
49.754287
 21
294.669510
 31
0.0
  0
SPLINE
  5
14a
100
AcDbEntity
  8
0
 62
5
100
AcDbSpline
 70
0
 71
3
 72
10
 73
6
 74
4
 40
0.000000
 40
0.000000
 40
0.000000
 40
0.000000
 40
0.392235
 40
0.796363
 40
1.232172
 40
1.232172
 40
1.232172
 40
1.232172
 10
49.754287
 20
294.669510
 30
0.0
 10
49.664802
 20
294.573504
 30
0.0
 10
49.483118
 20
294.378582
 30
0.0
 10
49.123433
 20
294.167119
 30
0.0
 10
48.854914
 20
294.086204
 30
0.0
 10
48.715591
 20
294.044220
 30
0.0
 11
49.754287
 21
294.669510
 31
0.0
 11
49.473512
 21
294.395624
 31
0.0
 11
49.127280
 21
294.187194
 31
0.0
 11
48.715591
 21
294.044220
 31
0.0
  0
SPLINE
  5
14b
100
AcDbEntity
  8
0
 62
5
100
AcDbSpline
 70
0
 71
3
 72
10
 73
6
 74
4
 40
0.000000
 40
0.000000
 40
0.000000
 40
0.000000
 40
0.490609
 40
0.943799
 40
1.382376
 40
1.382376
 40
1.382376
 40
1.382376
 10
48.715591
 20
294.044220
 30
0.0
 10
48.873093
 20
293.999216
 30
0.0
 10
49.176083
 20
293.912641
 30
0.0
 10
49.582777
 20
293.680445
 30
0.0
 10
49.787809
 20
293.463584
 30
0.0
 10
49.888646
 20
293.356930
 30
0.0
 11
48.715591
 21
294.044220
 31
0.0
 11
49.181253
 21
293.889766
 31
0.0
 11
49.572271
 21
293.660669
 31
0.0
 11
49.888646
 21
293.356930
 31
0.0
  0
SPLINE
  5
14c
100
AcDbEntity
  8
0
 62
5
100
AcDbSpline
 70
0
 71
3
 72
13
 73
9
 74
7
 40
0.000000
 40
0.000000
 40
0.000000
 40
0.000000
 40
0.435451
 40
0.875588
 40
1.345337
 40
2.039147
 40
2.656816
 40
3.252817
 40
3.252817
 40
3.252817
 40
3.252817
 10
49.888646
 20
293.356930
 30
0.0
 10
49.973751
 20
293.238442
 30
0.0
 10
50.144876
 20
293.000192
 30
0.0
 10
50.284187
 20
292.566610
 30
0.0
 10
50.331156
 20
292.031608
 30
0.0
 10
50.268727
 20
291.437418
 30
0.0
 10
50.045800
 20
290.825781
 30
0.0
 10
49.763651
 20
290.530523
 30
0.0
 10
49.625096
 20
290.385530
 30
0.0
 11
49.888646
 21
293.356930
 31
0.0
 11
50.124061
 21
292.990600
 31
0.0
 11
50.265309
 21
292.573743
 31
0.0
 11
50.312392
 21
292.106360
 31
0.0
 11
50.236026
 21
291.416765
 31
0.0
 11
50.006927
 21
290.843155
 31
0.0
 11
49.625096
 21
290.385530
 31
0.0
  0
SPLINE
  5
14d
100
AcDbEntity
  8
0
 62
5
100
AcDbSpline
 70
0
 71
3
 72
13
 73
9
 74
7
 40
0.000000
 40
0.000000
 40
0.000000
 40
0.000000
 40
0.618158
 40
1.300897
 40
2.088626
 40
2.876926
 40
3.561313
 40
4.181892
 40
4.181892
 40
4.181892
 40
4.181892
 10
49.625096
 20
290.385530
 30
0.0
 10
49.456944
 20
290.263905
 30
0.0
 10
49.103074
 20
290.007950
 30
0.0
 10
48.418818
 20
289.823488
 30
0.0
 10
47.666376
 20
289.766042
 30
0.0
 10
46.913342
 20
289.823570
 30
0.0
 10
46.227665
 20
290.008204
 30
0.0
 10
45.871994
 20
290.263922
 30
0.0
 10
45.702854
 20
290.385530
 30
0.0
 11
49.625096
 21
290.385530
 31
0.0
 11
49.104312
 21
290.052508
 31
0.0
 11
48.451467
 21
289.852694
 31
0.0
 11
47.666559
 21
289.786090
 31
0.0
 11
46.881077
 21
289.852694
 31
0.0
 11
46.226509
 21
290.052508
 31
0.0
 11
45.702854
 21
290.385530
 31
0.0
  0
LWPOLYLINE
  5
14e
100
AcDbEntity
  8
0
 62
5
100
AcDbPolyline
 90
1
 70
1
 10
47.666559
 20
293.599810
 30
0.0
  0
SPLINE
  5
14f
100
AcDbEntity
  8
0
 62
5
100
AcDbSpline
 70
0
 71
3
 72
16
 73
12
 74
10
 40
0.000000
 40
0.000000
 40
0.000000
 40
0.000000
 40
0.594165
 40
1.211197
 40
1.904944
 40
2.374693
 40
2.814830
 40
3.250282
 40
3.690935
 40
4.145611
 40
4.636766
 40
4.636766
 40
4.636766
 40
4.636766
 10
45.702854
 20
290.385530
 30
0.0
 10
45.565315
 20
290.530608
 30
0.0
 10
45.284942
 20
290.826348
 30
0.0
 10
45.063955
 20
291.437818
 30
0.0
 10
45.002455
 20
292.031250
 30
0.0
 10
45.047889
 20
292.567482
 30
0.0
 10
45.191852
 20
292.997147
 30
0.0
 10
45.432077
 20
293.369666
 30
0.0
 10
45.757010
 20
293.677042
 30
0.0
 10
46.160321
 20
293.913319
 30
0.0
 10
46.464658
 20
293.999479
 30
0.0
 10
46.622695
 20
294.044220
 30
0.0
 11
45.702854
 21
290.385530
 31
0.0
 11
45.323894
 21
290.843155
 31
0.0
 11
45.096517
 21
291.416765
 31
0.0
 11
45.020725
 21
292.106360
 31
0.0
 11
45.067808
 21
292.573743
 31
0.0
 11
45.209057
 21
292.990600
 31
0.0
 11
45.444472
 21
293.356930
 31
0.0
 11
45.763718
 21
293.660669
 31
0.0
 11
46.156459
 21
293.889766
 31
0.0
 11
46.622695
 21
294.044220
 31
0.0
  0
LWPOLYLINE
  5
150
100
AcDbEntity
  8
0
 62
5
100
AcDbPolyline
 90
1
 70
1
 10
46.622695
 20
294.044220
 30
0.0
  0
LWPOLYLINE
  5
151
100
AcDbEntity
  8
0
 62
5
100
AcDbPolyline
 90
1
 70
1
 10
46.240289
 20
295.692700
 30
0.0
  0
SPLINE
  5
152
100
AcDbEntity
  8
0
 62
5
100
AcDbSpline
 70
0
 71
3
 72
31
 73
27
 74
25
 40
0.000000
 40
0.000000
 40
0.000000
 40
0.000000
 40
0.372645
 40
0.708187
 40
1.035059
 40
1.375546
 40
1.744353
 40
2.164021
 40
2.580829
 40
2.947995
 40
3.288002
 40
3.618535
 40
3.955366
 40
4.328140
 40
4.700920
 40
5.037754
 40
5.368287
 40
5.708292
 40
6.075456
 40
6.492265
 40
6.911932
 40
7.280738
 40
7.621223
 40
7.948095
 40
8.283641
 40
8.656291
 40
8.656291
 40
8.656291
 40
8.656291
 10
46.240289
 20
295.692700
 30
0.0
 10
46.247083
 20
295.568021
 30
0.0
 10
46.259993
 20
295.331077
 30
0.0
 10
46.389509
 20
295.004260
 30
0.0
 10
46.603865
 20
294.741015
 30
0.0
 10
46.899142
 20
294.551695
 30
0.0
 10
47.262874
 20
294.441291
 30
0.0
 10
47.665634
 20
294.410879
 30
0.0
 10
48.067671
 20
294.441409
 30
0.0
 10
48.430118
 20
294.551650
 30
0.0
 10
48.723889
 20
294.742892
 30
0.0
 10
48.944913
 20
295.002879
 30
0.0
 10
49.074688
 20
295.330552
 30
0.0
 10
49.110241
 20
295.692702
 30
0.0
 10
49.074688
 20
296.054853
 30
0.0
 10
48.944914
 20
296.382529
 30
0.0
 10
48.723891
 20
296.642519
 30
0.0
 10
48.430116
 20
296.833754
 30
0.0
 10
48.067671
 20
296.943992
 30
0.0
 10
47.665634
 20
296.974521
 30
0.0
 10
47.262874
 20
296.944110
 30
0.0
 10
46.899144
 20
296.833709
 30
0.0
 10
46.603863
 20
296.644396
 30
0.0
 10
46.389508
 20
296.381148
 30
0.0
 10
46.259993
 20
296.054328
 30
0.0
 10
46.247083
 20
295.817381
 30
0.0
 10
46.240289
 20
295.692700
 30
0.0
 11
46.240289
 21
295.692700
 31
0.0
 11
46.281631
 21
295.322356
 31
0.0
 11
46.405654
 21
295.010576
 31
0.0
 11
46.612359
 21
294.757360
 31
0.0
 11
46.897154
 21
294.570749
 31
0.0
 11
47.248554
 21
294.458782
 31
0.0
 11
47.666559
 21
294.421460
 31
0.0
 11
48.081693
 21
294.458782
 31
0.0
 11
48.431370
 21
294.570749
 31
0.0
 11
48.715591
 21
294.757360
 31
0.0
 11
48.928038
 21
295.010576
 31
0.0
 11
49.055507
 21
295.322356
 31
0.0
 11
49.097996
 21
295.692700
 31
0.0
 11
49.055507
 21
296.063050
 31
0.0
 11
48.928038
 21
296.374833
 31
0.0
 11
48.715591
 21
296.628050
 31
0.0
 11
48.431370
 21
296.814656
 31
0.0
 11
48.081693
 21
296.926619
 31
0.0
 11
47.666559
 21
296.963940
 31
0.0
 11
47.248554
 21
296.926619
 31
0.0
 11
46.897154
 21
296.814656
 31
0.0
 11
46.612359
 21
296.628050
 31
0.0
 11
46.405654
 21
296.374833
 31
0.0
 11
46.281631
 21
296.063050
 31
0.0
 11
46.240289
 21
295.692700
 31
0.0
  0
LWPOLYLINE
  5
153
100
AcDbEntity
  8
0
 62
5
100
AcDbPolyline
 90
5
 70
0
 10
53.071914
 20
290.814450
 30
0.0
 10
56.715102
 20
290.814450
 30
0.0
 10
56.715102
 20
289.935950
 30
0.0
 10
51.816176
 20
289.935950
 30
0.0
 10
51.816176
 20
290.814450
 30
0.0
  0
SPLINE
  5
154
100
AcDbEntity
  8
0
 62
5
100
AcDbSpline
 70
0
 71
3
 72
31
 73
27
 74
25
 40
0.000000
 40
0.000000
 40
0.000000
 40
0.000000
 40
0.636684
 40
1.406511
 40
2.309492
 40
3.165789
 40
3.785859
 40
4.169829
 40
4.635567
 40
5.028675
 40
5.351764
 40
5.634943
 40
5.900249
 40
6.154453
 40
6.542167
 40
6.906321
 40
7.278626
 40
7.660373
 40
8.055863
 40
8.490362
 40
8.824500
 40
9.175368
 40
9.546528
 40
9.940104
 40
10.364232
 40
10.820859
 40
10.820859
 40
10.820859
 40
10.820859
 10
51.816176
 20
290.814450
 30
0.0
 10
51.963987
 20
290.966743
 30
0.0
 10
52.290517
 20
291.303176
 30
0.0
 10
52.829989
 20
291.852371
 30
0.0
 10
53.422842
 20
292.451730
 30
0.0
 10
53.979889
 20
293.016298
 30
0.0
 10
54.411868
 20
293.461209
 30
0.0
 10
54.746208
 20
293.819413
 30
0.0
 10
55.014250
 20
294.135590
 30
0.0
 10
55.250175
 20
294.451577
 30
0.0
 10
55.423026
 20
294.737237
 30
0.0
 10
55.539668
 20
295.004314
 30
0.0
 10
55.609193
 20
295.264028
 30
0.0
 10
55.635421
 20
295.566500
 30
0.0
 10
55.596229
 20
295.903756
 30
0.0
 10
55.446656
 20
296.253717
 30
0.0
 10
55.198910
 20
296.538886
 30
0.0
 10
54.879468
 20
296.758333
 30
0.0
 10
54.491911
 20
296.888210
 30
0.0
 10
54.102537
 20
296.921418
 30
0.0
 10
53.729458
 20
296.898609
 30
0.0
 10
53.381605
 20
296.840618
 30
0.0
 10
53.021688
 20
296.744965
 30
0.0
 10
52.649046
 20
296.608999
 30
0.0
 10
52.260398
 20
296.436539
 30
0.0
 10
52.001881
 20
296.297207
 30
0.0
 10
51.867853
 20
296.224970
 30
0.0
 11
51.816176
 21
290.814450
 31
0.0
 11
52.260020
 21
291.270925
 31
0.0
 11
52.799177
 21
291.820419
 31
0.0
 11
53.433649
 21
292.462930
 31
0.0
 11
54.034244
 21
293.073282
 31
0.0
 11
54.464881
 21
293.519419
 31
0.0
 11
54.725560
 21
293.801340
 31
0.0
 11
55.025857
 21
294.157337
 31
0.0
 11
55.258401
 21
294.474287
 31
0.0
 11
55.423192
 21
294.752190
 31
0.0
 11
55.535157
 21
295.012294
 31
0.0
 11
55.602337
 21
295.268955
 31
0.0
 11
55.624730
 21
295.522170
 31
0.0
 11
55.576498
 21
295.906872
 31
0.0
 11
55.431804
 21
296.241046
 31
0.0
 11
55.190648
 21
296.524690
 31
0.0
 11
54.875421
 21
296.740012
 31
0.0
 11
54.501628
 21
296.869206
 31
0.0
 11
54.069269
 21
296.912270
 31
0.0
 11
53.735669
 21
296.893321
 31
0.0
 11
53.389437
 21
296.836475
 31
0.0
 11
53.030573
 21
296.741730
 31
0.0
 11
52.660225
 21
296.608521
 31
0.0
 11
52.272652
 21
296.436268
 31
0.0
 11
51.867853
 21
296.224970
 31
0.0
  0
SPLINE
  5
155
100
AcDbEntity
  8
0
 62
5
100
AcDbSpline
 70
0
 71
3
 72
25
 73
21
 74
19
 40
0.000000
 40
0.000000
 40
0.000000
 40
0.000000
 40
0.439373
 40
0.852281
 40
1.239750
 40
1.601782
 40
1.938719
 40
2.252552
 40
3.000811
 40
3.668742
 40
4.294177
 40
4.889552
 40
5.474062
 40
6.102637
 40
6.415064
 40
6.722481
 40
7.030448
 40
7.365550
 40
7.763084
 40
8.226460
 40
8.226460
 40
8.226460
 40
8.226460
 10
51.867853
 20
297.279170
 30
0.0
 10
52.004398
 20
297.332202
 30
0.0
 10
52.269265
 20
297.435072
 30
0.0
 10
52.662637
 20
297.562437
 30
0.0
 10
53.036923
 20
297.663376
 30
0.0
 10
53.391964
 20
297.735945
 30
0.0
 10
53.727025
 20
297.780515
 30
0.0
 10
54.193274
 20
297.801044
 30
0.0
 10
54.771776
 20
297.753687
 30
0.0
 10
55.429948
 20
297.556699
 30
0.0
 10
55.970839
 20
297.219773
 30
0.0
 10
56.381798
 20
296.767628
 30
0.0
 10
56.628182
 20
296.206309
 30
0.0
 10
56.686225
 20
295.694490
 30
0.0
 10
56.660901
 20
295.278402
 30
0.0
 10
56.600044
 20
294.974108
 30
0.0
 10
56.496203
 20
294.673736
 30
0.0
 10
56.338249
 20
294.363930
 30
0.0
 10
56.120080
 20
294.029460
 30
0.0
 10
55.942512
 20
293.803897
 30
0.0
 10
55.846938
 20
293.682490
 30
0.0
 11
51.867853
 21
297.279170
 31
0.0
 11
52.278968
 21
297.434197
 31
0.0
 11
52.671709
 21
297.561664
 31
0.0
 11
53.046076
 21
297.661570
 31
0.0
 11
53.400920
 21
297.733348
 31
0.0
 11
53.735095
 21
297.776415
 31
0.0
 11
54.048598
 21
297.790770
 31
0.0
 11
54.793887
 21
297.724165
 31
0.0
 11
55.431230
 21
297.524348
 31
0.0
 11
55.960626
 21
297.191320
 31
0.0
 11
56.356812
 21
296.746901
 31
0.0
 11
56.594524
 21
296.212911
 31
0.0
 11
56.673761
 21
295.589350
 31
0.0
 11
56.653665
 21
295.277570
 31
0.0
 11
56.593376
 21
294.976123
 31
0.0
 11
56.492894
 21
294.685010
 31
0.0
 11
56.343032
 21
294.385286
 31
0.0
 11
56.127714
 21
294.051112
 31
0.0
 11
55.846938
 21
293.682490
 31
0.0
  0
SPLINE
  5
156
100
AcDbEntity
  8
0
 62
5
100
AcDbSpline
 70
0
 71
3
 72
10
 73
6
 74
4
 40
0.000000
 40
0.000000
 40
0.000000
 40
0.000000
 40
0.220696
 40
0.619143
 40
1.195392
 40
1.195392
 40
1.195392
 40
1.195392
 10
55.846938
 20
293.682490
 30
0.0
 10
55.797543
 20
293.627971
 30
0.0
 10
55.658967
 20
293.475025
 30
0.0
 10
55.383422
 20
293.187139
 30
0.0
 10
55.158349
 20
292.952840
 30
0.0
 10
55.025283
 20
292.814320
 30
0.0
 11
55.846938
 21
293.682490
 31
0.0
 11
55.698225
 21
293.519422
 31
0.0
 11
55.424340
 21
293.230032
 31
0.0
 11
55.025283
 21
292.814320
 31
0.0
  0
LWPOLYLINE
  5
157
100
AcDbEntity
  8
0
 62
5
100
AcDbPolyline
 90
2
 70
0
 10
51.867853
 20
296.224970
 30
0.0
 10
51.867853
 20
297.279170
 30
0.0
  0
SPLINE
  5
158
100
AcDbEntity
  8
0
 62
5
100
AcDbSpline
 70
0
 71
3
 72
10
 73
6
 74
4
 40
0.000000
 40
0.000000
 40
0.000000
 40
0.000000
 40
0.752400
 40
1.684252
 40
2.795558
 40
2.795558
 40
2.795558
 40
2.795558
 10
55.025283
 20
292.814320
 30
0.0
 10
54.850411
 20
292.634541
 30
0.0
 10
54.458960
 20
292.232104
 30
0.0
 10
53.807660
 20
291.565651
 30
0.0
 10
53.331115
 20
291.079095
 30
0.0
 10
53.071914
 20
290.814450
 30
0.0
 11
55.025283
 21
292.814320
 31
0.0
 11
54.500480
 21
292.275165
 31
0.0
 11
53.849357
 21
291.608542
 31
0.0
 11
53.071914
 21
290.814450
 31
0.0
  0
SPLINE
  5
159
100
AcDbEntity
  8
0
 62
5
100
AcDbSpline
 70
0
 71
3
 72
16
 73
12
 74
10
 40
0.000000
 40
0.000000
 40
0.000000
 40
0.000000
 40
0.464884
 40
0.889324
 40
1.285868
 40
1.674927
 40
2.077270
 40
2.506948
 40
3.068364
 40
3.579439
 40
4.093236
 40
4.093236
 40
4.093236
 40
4.093236
 10
66.652481
 20
294.612660
 30
0.0
 10
66.732680
 20
294.745577
 30
0.0
 10
66.886101
 20
294.999847
 30
0.0
 10
67.174694
 20
295.320510
 30
0.0
 10
67.495685
 20
295.568727
 30
0.0
 10
67.855156
 20
295.741652
 30
0.0
 10
68.251833
 20
295.842822
 30
0.0
 10
68.716936
 20
295.878032
 30
0.0
 10
69.218860
 20
295.823473
 30
0.0
 10
69.718154
 20
295.609116
 30
0.0
 10
69.951373
 20
295.355004
 30
0.0
 10
70.068293
 20
295.227610
 30
0.0
 11
66.652481
 21
294.612660
 31
0.0
 11
66.905695
 21
295.002531
 31
0.0
 11
67.189916
 21
295.317758
 31
0.0
 11
67.505142
 21
295.558340
 31
0.0
 11
67.855393
 21
295.727723
 31
0.0
 11
68.244689
 21
295.829353
 31
0.0
 11
68.673029
 21
295.863230
 31
0.0
 11
69.229986
 21
295.792606
 31
0.0
 11
69.695074
 21
295.580732
 31
0.0
 11
70.068293
 21
295.227610
 31
0.0
  0
LWPOLYLINE
  5
15a
100
AcDbEntity
  8
0
 62
5
100
AcDbPolyline
 90
1
 70
1
 10
53.071914
 20
290.814450
 30
0.0
  0
SPLINE
  5
15b
100
AcDbEntity
  8
0
 62
5
100
AcDbSpline
 70
0
 71
3
 72
10
 73
6
 74
4
 40
0.000000
 40
0.000000
 40
0.000000
 40
0.000000
 40
0.552087
 40
1.173469
 40
1.894413
 40
1.894413
 40
1.894413
 40
1.894413
 10
70.068293
 20
295.227610
 30
0.0
 10
70.167839
 20
295.071651
 30
0.0
 10
70.379425
 20
294.740158
 30
0.0
 10
70.532096
 20
294.116475
 30
0.0
 10
70.549742
 20
293.669392
 30
0.0
 10
70.559220
 20
293.429270
 30
0.0
 11
70.068293
 21
295.227610
 31
0.0
 11
70.341030
 21
294.747594
 31
0.0
 11
70.504672
 21
294.148148
 31
0.0
 11
70.559220
 21
293.429270
 31
0.0
  0
LWPOLYLINE
  5
15c
100
AcDbEntity
  8
0
 62
5
100
AcDbPolyline
 90
4
 70
0
 10
70.559220
 20
293.429270
 30
0.0
 10
70.559220
 20
289.935950
 30
0.0
 10
69.603206
 20
289.935950
 30
0.0
 10
69.603206
 20
293.398270
 30
0.0
  0
SPLINE
  5
15d
100
AcDbEntity
  8
0
 62
5
100
AcDbSpline
 70
0
 71
3
 72
19
 73
15
 74
13
 40
0.000000
 40
0.000000
 40
0.000000
 40
0.000000
 40
0.508059
 40
0.931295
 40
1.287487
 40
1.609081
 40
1.937540
 40
2.308876
 40
2.770309
 40
3.192600
 40
3.613356
 40
4.050848
 40
4.519336
 40
5.046869
 40
5.046869
 40
5.046869
 40
5.046869
 10
69.603206
 20
293.398270
 30
0.0
 10
69.598173
 20
293.567837
 30
0.0
 10
69.588948
 20
293.878662
 30
0.0
 10
69.494298
 20
294.300478
 30
0.0
 10
69.331543
 20
294.634949
 30
0.0
 10
69.087226
 20
294.875480
 30
0.0
 10
68.768195
 20
295.013249
 30
0.0
 10
68.379253
 20
295.050561
 30
0.0
 10
67.959258
 20
295.005570
 30
0.0
 10
67.550458
 20
294.838053
 30
0.0
 10
67.221857
 20
294.554762
 30
0.0
 10
66.980711
 20
294.177800
 30
0.0
 10
66.835247
 20
293.716070
 30
0.0
 10
66.820492
 20
293.383312
 30
0.0
 10
66.812678
 20
293.207070
 30
0.0
 11
69.603206
 21
293.398270
 31
0.0
 11
69.570477
 21
293.905273
 31
0.0
 11
69.472292
 21
294.316963
 31
0.0
 11
69.308649
 21
294.633340
 31
0.0
 11
69.077828
 21
294.857268
 31
0.0
 11
68.778105
 21
294.991624
 31
0.0
 11
68.409479
 21
295.036410
 31
0.0
 11
67.951282
 21
294.981863
 31
0.0
 11
67.561986
 21
294.818223
 31
0.0
 11
67.241592
 21
294.545490
 31
0.0
 11
67.003306
 21
294.178586
 31
0.0
 11
66.860335
 21
293.732446
 31
0.0
 11
66.812678
 21
293.207070
 31
0.0
  0
LWPOLYLINE
  5
15e
100
AcDbEntity
  8
0
 62
5
100
AcDbPolyline
 90
4
 70
0
 10
66.812678
 20
293.207070
 30
0.0
 10
66.812678
 20
289.935950
 30
0.0
 10
65.856664
 20
289.935950
 30
0.0
 10
65.856664
 20
293.398270
 30
0.0
  0
SPLINE
  5
15f
100
AcDbEntity
  8
0
 62
5
100
AcDbSpline
 70
0
 71
3
 72
19
 73
15
 74
13
 40
0.000000
 40
0.000000
 40
0.000000
 40
0.000000
 40
0.510352
 40
0.933588
 40
1.287741
 40
1.610159
 40
1.941766
 40
2.318802
 40
2.774603
 40
3.194396
 40
3.616149
 40
4.053159
 40
4.520007
 40
5.044680
 40
5.044680
 40
5.044680
 40
5.044680
 10
65.856664
 20
293.398270
 30
0.0
 10
65.851634
 20
293.568584
 30
0.0
 10
65.842432
 20
293.880139
 30
0.0
 10
65.748327
 20
294.302311
 30
0.0
 10
65.584294
 20
294.635673
 30
0.0
 10
65.339011
 20
294.876261
 30
0.0
 10
65.016101
 20
295.013325
 30
0.0
 10
64.626213
 20
295.050597
 30
0.0
 10
64.206927
 20
295.005080
 30
0.0
 10
63.801505
 20
294.835010
 30
0.0
 10
63.476312
 20
294.549312
 30
0.0
 10
63.234241
 20
294.173734
 30
0.0
 10
63.088819
 20
293.713571
 30
0.0
 10
63.073986
 20
293.382342
 30
0.0
 10
63.066136
 20
293.207070
 30
0.0
 11
65.856664
 21
293.398270
 31
0.0
 11
65.823935
 21
293.907571
 31
0.0
 11
65.725750
 21
294.319261
 31
0.0
 11
65.562108
 21
294.633340
 31
0.0
 11
65.330138
 21
294.857268
 31
0.0
 11
65.026970
 21
294.991624
 31
0.0
 11
64.652603
 21
295.036410
 31
0.0
 11
64.200147
 21
294.981289
 31
0.0
 11
63.814296
 21
294.815926
 31
0.0
 11
63.495051
 21
294.540320
 31
0.0
 11
63.256765
 21
294.173990
 31
0.0
 11
63.113793
 21
293.729573
 31
0.0
 11
63.066136
 21
293.207070
 31
0.0
  0
LWPOLYLINE
  5
160
100
AcDbEntity
  8
0
 62
5
100
AcDbPolyline
 90
6
 70
0
 10
63.066136
 20
293.207070
 30
0.0
 10
63.066136
 20
289.935950
 30
0.0
 10
62.110122
 20
289.935950
 30
0.0
 10
62.110122
 20
295.723710
 30
0.0
 10
63.066136
 20
295.723710
 30
0.0
 10
63.066136
 20
294.824540
 30
0.0
  0
SPLINE
  5
161
100
AcDbEntity
  8
0
 62
5
100
AcDbSpline
 70
0
 71
3
 72
19
 73
15
 74
13
 40
0.000000
 40
0.000000
 40
0.000000
 40
0.000000
 40
0.398015
 40
0.767079
 40
1.118275
 40
1.469768
 40
1.839543
 40
2.238444
 40
2.639086
 40
3.011304
 40
3.372312
 40
3.737730
 40
4.117196
 40
4.527162
 40
4.527162
 40
4.527162
 40
4.527162
 10
63.066136
 20
294.824540
 30
0.0
 10
63.139691
 20
294.935265
 30
0.0
 10
63.281450
 20
295.148661
 30
0.0
 10
63.546221
 20
295.414623
 30
0.0
 10
63.840698
 20
295.620409
 30
0.0
 10
64.171016
 20
295.763202
 30
0.0
 10
64.536830
 20
295.846456
 30
0.0
 10
64.926988
 20
295.872915
 30
0.0
 10
65.318435
 20
295.842640
 30
0.0
 10
65.684200
 20
295.735415
 30
0.0
 10
66.005441
 20
295.552908
 30
0.0
 10
66.279724
 20
295.302620
 30
0.0
 10
66.504240
 20
294.985153
 30
0.0
 10
66.601811
 20
294.739982
 30
0.0
 10
66.652481
 20
294.612660
 30
0.0
 11
63.066136
 21
294.824540
 31
0.0
 11
63.297532
 21
295.148380
 31
0.0
 11
63.557637
 21
295.410207
 31
0.0
 11
63.846450
 21
295.610020
 31
0.0
 11
64.168567
 21
295.750692
 31
0.0
 11
64.528579
 21
295.835096
 31
0.0
 11
64.926488
 21
295.863230
 31
0.0
 11
65.325545
 21
295.827631
 31
0.0
 11
65.682112
 21
295.720835
 31
0.0
 11
65.996190
 21
295.542840
 31
0.0
 11
66.266630
 21
295.297091
 31
0.0
 11
66.485394
 21
294.987031
 31
0.0
 11
66.652481
 21
294.612660
 31
0.0
  0
SPLINE
  5
162
100
AcDbEntity
  8
0
 62
5
100
AcDbSpline
 70
0
 71
3
 72
16
 73
12
 74
10
 40
0.000000
 40
0.000000
 40
0.000000
 40
0.000000
 40
0.464884
 40
0.889324
 40
1.285868
 40
1.674927
 40
2.077270
 40
2.506947
 40
3.068364
 40
3.579439
 40
4.093236
 40
4.093236
 40
4.093236
 40
4.093236
 10
76.967097
 20
294.612660
 30
0.0
 10
77.047296
 20
294.745577
 30
0.0
 10
77.200717
 20
294.999847
 30
0.0
 10
77.489310
 20
295.320510
 30
0.0
 10
77.810301
 20
295.568727
 30
0.0
 10
78.169772
 20
295.741652
 30
0.0
 10
78.566449
 20
295.842822
 30
0.0
 10
79.031552
 20
295.878032
 30
0.0
 10
79.533476
 20
295.823473
 30
0.0
 10
80.032770
 20
295.609116
 30
0.0
 10
80.265990
 20
295.355004
 30
0.0
 10
80.382909
 20
295.227610
 30
0.0
 11
76.967097
 21
294.612660
 31
0.0
 11
77.220311
 21
295.002531
 31
0.0
 11
77.504532
 21
295.317758
 31
0.0
 11
77.819758
 21
295.558340
 31
0.0
 11
78.170009
 21
295.727723
 31
0.0
 11
78.559305
 21
295.829353
 31
0.0
 11
78.987645
 21
295.863230
 31
0.0
 11
79.544602
 21
295.792606
 31
0.0
 11
80.009690
 21
295.580732
 31
0.0
 11
80.382909
 21
295.227610
 31
0.0
  0
LWPOLYLINE
  5
163
100
AcDbEntity
  8
0
 62
5
100
AcDbPolyline
 90
1
 70
1
 10
66.652481
 20
294.612660
 30
0.0
  0
SPLINE
  5
164
100
AcDbEntity
  8
0
 62
5
100
AcDbSpline
 70
0
 71
3
 72
10
 73
6
 74
4
 40
0.000000
 40
0.000000
 40
0.000000
 40
0.000000
 40
0.552087
 40
1.173469
 40
1.894413
 40
1.894413
 40
1.894413
 40
1.894413
 10
80.382909
 20
295.227610
 30
0.0
 10
80.482455
 20
295.071651
 30
0.0
 10
80.694041
 20
294.740158
 30
0.0
 10
80.846711
 20
294.116475
 30
0.0
 10
80.864358
 20
293.669392
 30
0.0
 10
80.873835
 20
293.429270
 30
0.0
 11
80.382909
 21
295.227610
 31
0.0
 11
80.655646
 21
294.747594
 31
0.0
 11
80.819288
 21
294.148148
 31
0.0
 11
80.873835
 21
293.429270
 31
0.0
  0
LWPOLYLINE
  5
165
100
AcDbEntity
  8
0
 62
5
100
AcDbPolyline
 90
4
 70
0
 10
80.873835
 20
293.429270
 30
0.0
 10
80.873835
 20
289.935950
 30
0.0
 10
79.917821
 20
289.935950
 30
0.0
 10
79.917821
 20
293.398270
 30
0.0
  0
SPLINE
  5
166
100
AcDbEntity
  8
0
 62
5
100
AcDbSpline
 70
0
 71
3
 72
19
 73
15
 74
13
 40
0.000000
 40
0.000000
 40
0.000000
 40
0.000000
 40
0.508059
 40
0.931295
 40
1.287487
 40
1.609080
 40
1.937540
 40
2.308876
 40
2.770309
 40
3.192600
 40
3.613356
 40
4.050847
 40
4.519336
 40
5.046869
 40
5.046869
 40
5.046869
 40
5.046869
 10
79.917821
 20
293.398270
 30
0.0
 10
79.912788
 20
293.567837
 30
0.0
 10
79.903563
 20
293.878662
 30
0.0
 10
79.808913
 20
294.300478
 30
0.0
 10
79.646158
 20
294.634948
 30
0.0
 10
79.401842
 20
294.875480
 30
0.0
 10
79.082811
 20
295.013249
 30
0.0
 10
78.693868
 20
295.050561
 30
0.0
 10
78.273874
 20
295.005570
 30
0.0
 10
77.865074
 20
294.838053
 30
0.0
 10
77.536473
 20
294.554762
 30
0.0
 10
77.295327
 20
294.177800
 30
0.0
 10
77.149863
 20
293.716070
 30
0.0
 10
77.135109
 20
293.383312
 30
0.0
 10
77.127294
 20
293.207070
 30
0.0
 11
79.917821
 21
293.398270
 31
0.0
 11
79.885093
 21
293.905273
 31
0.0
 11
79.786907
 21
294.316963
 31
0.0
 11
79.623265
 21
294.633340
 31
0.0
 11
79.392444
 21
294.857268
 31
0.0
 11
79.092721
 21
294.991624
 31
0.0
 11
78.724095
 21
295.036410
 31
0.0
 11
78.265897
 21
294.981863
 31
0.0
 11
77.876602
 21
294.818223
 31
0.0
 11
77.556208
 21
294.545490
 31
0.0
 11
77.317922
 21
294.178586
 31
0.0
 11
77.174951
 21
293.732446
 31
0.0
 11
77.127294
 21
293.207070
 31
0.0
  0
LWPOLYLINE
  5
167
100
AcDbEntity
  8
0
 62
5
100
AcDbPolyline
 90
4
 70
0
 10
77.127294
 20
293.207070
 30
0.0
 10
77.127294
 20
289.935950
 30
0.0
 10
76.171280
 20
289.935950
 30
0.0
 10
76.171280
 20
293.398270
 30
0.0
  0
SPLINE
  5
168
100
AcDbEntity
  8
0
 62
5
100
AcDbSpline
 70
0
 71
3
 72
19
 73
15
 74
13
 40
0.000000
 40
0.000000
 40
0.000000
 40
0.000000
 40
0.510352
 40
0.933588
 40
1.287741
 40
1.610160
 40
1.941766
 40
2.318802
 40
2.774603
 40
3.194396
 40
3.616149
 40
4.053160
 40
4.520008
 40
5.044680
 40
5.044680
 40
5.044680
 40
5.044680
 10
76.171280
 20
293.398270
 30
0.0
 10
76.166250
 20
293.568584
 30
0.0
 10
76.157048
 20
293.880139
 30
0.0
 10
76.062942
 20
294.302311
 30
0.0
 10
75.898910
 20
294.635673
 30
0.0
 10
75.653627
 20
294.876261
 30
0.0
 10
75.330716
 20
295.013325
 30
0.0
 10
74.940828
 20
295.050597
 30
0.0
 10
74.521543
 20
295.005080
 30
0.0
 10
74.116121
 20
294.835010
 30
0.0
 10
73.790928
 20
294.549312
 30
0.0
 10
73.548857
 20
294.173734
 30
0.0
 10
73.403435
 20
293.713571
 30
0.0
 10
73.388601
 20
293.382342
 30
0.0
 10
73.380752
 20
293.207070
 30
0.0
 11
76.171280
 21
293.398270
 31
0.0
 11
76.138551
 21
293.907571
 31
0.0
 11
76.040366
 21
294.319261
 31
0.0
 11
75.876724
 21
294.633340
 31
0.0
 11
75.644754
 21
294.857268
 31
0.0
 11
75.341586
 21
294.991624
 31
0.0
 11
74.967219
 21
295.036410
 31
0.0
 11
74.514763
 21
294.981289
 31
0.0
 11
74.128912
 21
294.815926
 31
0.0
 11
73.809667
 21
294.540320
 31
0.0
 11
73.571381
 21
294.173990
 31
0.0
 11
73.428409
 21
293.729573
 31
0.0
 11
73.380752
 21
293.207070
 31
0.0
  0
LWPOLYLINE
  5
169
100
AcDbEntity
  8
0
 62
5
100
AcDbPolyline
 90
6
 70
0
 10
73.380752
 20
293.207070
 30
0.0
 10
73.380752
 20
289.935950
 30
0.0
 10
72.424738
 20
289.935950
 30
0.0
 10
72.424738
 20
295.723710
 30
0.0
 10
73.380752
 20
295.723710
 30
0.0
 10
73.380752
 20
294.824540
 30
0.0
  0
SPLINE
  5
16a
100
AcDbEntity
  8
0
 62
5
100
AcDbSpline
 70
0
 71
3
 72
19
 73
15
 74
13
 40
0.000000
 40
0.000000
 40
0.000000
 40
0.000000
 40
0.398016
 40
0.767079
 40
1.118275
 40
1.469768
 40
1.839543
 40
2.238445
 40
2.639086
 40
3.011304
 40
3.372312
 40
3.737730
 40
4.117196
 40
4.527162
 40
4.527162
 40
4.527162
 40
4.527162
 10
73.380752
 20
294.824540
 30
0.0
 10
73.454306
 20
294.935265
 30
0.0
 10
73.596065
 20
295.148661
 30
0.0
 10
73.860837
 20
295.414623
 30
0.0
 10
74.155314
 20
295.620409
 30
0.0
 10
74.485632
 20
295.763202
 30
0.0
 10
74.851446
 20
295.846456
 30
0.0
 10
75.241604
 20
295.872915
 30
0.0
 10
75.633050
 20
295.842640
 30
0.0
 10
75.998815
 20
295.735415
 30
0.0
 10
76.320057
 20
295.552909
 30
0.0
 10
76.594340
 20
295.302619
 30
0.0
 10
76.818856
 20
294.985153
 30
0.0
 10
76.916427
 20
294.739982
 30
0.0
 10
76.967097
 20
294.612660
 30
0.0
 11
73.380752
 21
294.824540
 31
0.0
 11
73.612147
 21
295.148380
 31
0.0
 11
73.872252
 21
295.410207
 31
0.0
 11
74.161066
 21
295.610020
 31
0.0
 11
74.483182
 21
295.750692
 31
0.0
 11
74.843195
 21
295.835096
 31
0.0
 11
75.241104
 21
295.863230
 31
0.0
 11
75.640160
 21
295.827631
 31
0.0
 11
75.996728
 21
295.720835
 31
0.0
 11
76.310806
 21
295.542840
 31
0.0
 11
76.581246
 21
295.297091
 31
0.0
 11
76.800009
 21
294.987031
 31
0.0
 11
76.967097
 21
294.612660
 31
0.0
  0
LWPOLYLINE
  5
16b
100
AcDbEntity
  8
0
 62
5
100
AcDbPolyline
 90
1
 70
1
 10
76.967097
 20
294.612660
 30
0.0
  0
ENDSEC
  0
SECTION
  2
OBJECTS
  0
DICTIONARY
  5
C
330
0
100
AcDbDictionary
  3
ACAD_GROUP
350
D
  3
ACAD_MLINESTYLE
350
17
  0
DICTIONARY
  5
D
330
C
100
AcDbDictionary
  0
DICTIONARY
  5
1A
330
C
100
AcDbDictionary
  0
DICTIONARY
  5
17
330
C
100
AcDbDictionary
  3
STANDARD
350
18
  0
DICTIONARY
  5
19
330
C
100
AcDbDictionary
  0
ENDSEC
  0
EOF
