  0
SECTION
  2
HEADER
  9
$ACADVER
  1
AC1014
  9
$HANDSEED
  5
FFFF
  9
$MEASUREMENT
 70
     1
  0
ENDSEC
  0
SECTION
  2
TABLES
  0
TABLE
  2
VPORT
  5
8
330
0
100
AcDbSymbolTable
 70
     4
  0
VPORT
  5
2E
330
8
100
AcDbSymbolTableRecord
100
AcDbViewportTableRecord
  2
*ACTIVE
 70
     0
 10
0.0
 20
0.0
 11
1.0
 21
1.0
 12
210.0
 22
148.5
 13
0.0
 23
0.0
 14
10.0
 24
10.0
 15
10.0
 25
10.0
 16
0.0
 26
0.0
 36
1.0
 17
0.0
 27
0.0
 37
0.0
 40
341.0
 41
1.24
 42
50.0
 43
0.0
 44
0.0
 50
0.0
 51
0.0
 71
     0
 72
   100
 73
     1
 74
     3
 75
     0
 76
     0
 77
     0
 78
     0
  0
ENDTAB
  0
TABLE
  2
LTYPE
  5
5
330
0
100
AcDbSymbolTable
 70
     1
  0
LTYPE
  5
14
330
5
100
AcDbSymbolTableRecord
100
AcDbLinetypeTableRecord
  2
BYBLOCK
 70
     0
  3

 72
    65
 73
     0
 40
0.0
  0
LTYPE
  5
15
330
5
100
AcDbSymbolTableRecord
100
AcDbLinetypeTableRecord
  2
BYLAYER
 70
     0
  3

 72
    65
 73
     0
 40
0.0
  0
LTYPE
  5
16
330
5
100
AcDbSymbolTableRecord
100
AcDbLinetypeTableRecord
  2
CONTINUOUS
 70
     0
  3
Solid line
 72
    65
 73
     0
 40
0.0
  0
ENDTAB
  0
TABLE
  2
LAYER
  5
2
100
AcDbSymbolTable
 70
2
  0
LAYER
  5
50
100
AcDbSymbolTableRecord
100
AcDbLayerTableRecord
  2
0
 70
0
  6
CONTINUOUS
  0
LAYER
  5
51
100
AcDbSymbolTableRecord
100
AcDbLayerTableRecord
  2
Layer_1
 70
0
  6
CONTINUOUS
  0
ENDTAB
  0
TABLE
  2
STYLE
  5
3
330
0
100
AcDbSymbolTable
 70
     1
  0
STYLE
  5
11
330
3
100
AcDbSymbolTableRecord
100
AcDbTextStyleTableRecord
  2
STANDARD
 70
     0
 40
0.0
 41
1.0
 50
0.0
 71
     0
 42
2.5
  3
txt
  4

  0
ENDTAB
  0
TABLE
  2
VIEW
  5
6
330
0
100
AcDbSymbolTable
 70
     0
  0
ENDTAB
  0
TABLE
  2
UCS
  5
7
330
0
100
AcDbSymbolTable
 70
     0
  0
ENDTAB
  0
TABLE
  2
APPID
  5
9
330
0
100
AcDbSymbolTable
 70
     2
  0
APPID
  5
12
330
9
100
AcDbSymbolTableRecord
100
AcDbRegAppTableRecord
  2
ACAD
 70
     0
  0
ENDTAB
  0
TABLE
  2
DIMSTYLE
  5
A
330
0
100
AcDbSymbolTable
 70
     1
  0
DIMSTYLE
105
27
330
A
100
AcDbSymbolTableRecord
100
AcDbDimStyleTableRecord
  2
ISO-25
 70
     0
  3

  4

  5

  6

  7

 40
1.0
 41
2.5
 42
0.625
 43
3.75
 44
1.25
 45
0.0
 46
0.0
 47
0.0
 48
0.0
140
2.5
141
2.5
142
0.0
143
0.03937007874016
144
1.0
145
0.0
146
1.0
147
0.625
 71
     0
 72
     0
 73
     0
 74
     0
 75
     0
 76
     0
 77
     1
 78
     8
170
     0
171
     3
172
     1
173
     0
174
     0
175
     0
176
     0
177
     0
178
     0
270
     2
271
     2
272
     2
273
     2
274
     3
340
11
275
     0
280
     0
281
     0
282
     0
283
     0
284
     8
285
     0
286
     0
287
     3
288
     0
  0
ENDTAB
  0
TABLE
  2
BLOCK_RECORD
  5
1
330
0
100
AcDbSymbolTable
 70
     1
  0
BLOCK_RECORD
  5
1F
330
1
100
AcDbSymbolTableRecord
100
AcDbBlockTableRecord
  2
*MODEL_SPACE
  0
BLOCK_RECORD
  5
1B
330
1
100
AcDbSymbolTableRecord
100
AcDbBlockTableRecord
  2
*PAPER_SPACE
  0
ENDTAB
  0
ENDSEC
  0
SECTION
  2
BLOCKS
  0
BLOCK
  5
20
330
1F
100
AcDbEntity
  8
0
100
AcDbBlockBegin
  2
*MODEL_SPACE
 70
     0
 10
0.0
 20
0.0
 30
0.0
  3
*MODEL_SPACE
  1

  0
ENDBLK
  5
21
330
1F
100
AcDbEntity
  8
0
100
AcDbBlockEnd
  0
BLOCK
  5
1C
330
1B
100
AcDbEntity
 67
     1
  8
0
100
AcDbBlockBegin
  2
*PAPER_SPACE
  1

  0
ENDBLK
  5
1D
330
1B
100
AcDbEntity
 67
     1
  8
0
100
AcDbBlockEnd
  0
ENDSEC
  0
SECTION
  2
ENTITIES
  0
LWPOLYLINE
  5
100
100
AcDbEntity
  8
Layer_1
 62
5
100
AcDbPolyline
 90
3
 70
0
 10
59.965000
 20
167.387190
 30
0.0
 10
62.541069
 20
167.387190
 30
0.0
 10
237.035000
 20
167.387190
 30
0.0
  0
LWPOLYLINE
  5
101
100
AcDbEntity
  8
Layer_1
 62
5
100
AcDbPolyline
 90
2
 70
0
 10
59.965000
 20
167.387190
 30
0.0
 10
59.965000
 20
150.284060
 30
0.0
  0
LWPOLYLINE
  5
102
100
AcDbEntity
  8
Layer_1
 62
5
100
AcDbPolyline
 90
2
 70
0
 10
237.035000
 20
167.387190
 30
0.0
 10
237.035000
 20
150.284060
 30
0.0
  0
LWPOLYLINE
  5
103
100
AcDbEntity
  8
Layer_1
 62
1
100
AcDbPolyline
 90
2
 70
0
 10
137.651332
 20
48.017096
 30
0.0
 10
137.651332
 20
42.460853
 30
0.0
  0
LWPOLYLINE
  5
104
100
AcDbEntity
  8
Layer_1
 62
1
100
AcDbPolyline
 90
2
 70
0
 10
137.651332
 20
48.017096
 30
0.0
 10
139.767996
 20
42.460853
 30
0.0
  0
LWPOLYLINE
  5
105
100
AcDbEntity
  8
Layer_1
 62
1
100
AcDbPolyline
 90
2
 70
0
 10
141.884660
 20
48.017096
 30
0.0
 10
139.767996
 20
42.460853
 30
0.0
  0
LWPOLYLINE
  5
106
100
AcDbEntity
  8
Layer_1
 62
1
100
AcDbPolyline
 90
2
 70
0
 10
141.884660
 20
48.017096
 30
0.0
 10
141.884660
 20
42.460853
 30
0.0
  0
LWPOLYLINE
  5
107
100
AcDbEntity
  8
Layer_1
 62
1
100
AcDbPolyline
 90
2
 70
0
 10
144.001324
 20
44.842100
 30
0.0
 10
148.763818
 20
44.842100
 30
0.0
  0
LWPOLYLINE
  5
108
100
AcDbEntity
  8
Layer_1
 62
1
100
AcDbPolyline
 90
4
 70
0
 10
151.409648
 20
46.958764
 30
0.0
 10
151.938814
 20
47.223347
 30
0.0
 10
152.732563
 20
48.017096
 30
0.0
 10
152.732563
 20
42.460853
 30
0.0
  0
LWPOLYLINE
  5
109
100
AcDbEntity
  8
Layer_1
 62
1
100
AcDbPolyline
 90
23
 70
0
 10
159.347138
 20
46.165015
 30
0.0
 10
159.082555
 20
45.371266
 30
0.0
 10
158.553389
 20
44.842100
 30
0.0
 10
157.759640
 20
44.577517
 30
0.0
 10
157.495057
 20
44.577517
 30
0.0
 10
156.701308
 20
44.842100
 30
0.0
 10
156.172142
 20
45.371266
 30
0.0
 10
155.907559
 20
46.165015
 30
0.0
 10
155.907559
 20
46.429598
 30
0.0
 10
156.172142
 20
47.223347
 30
0.0
 10
156.701308
 20
47.752513
 30
0.0
 10
157.495057
 20
48.017096
 30
0.0
 10
157.759640
 20
48.017096
 30
0.0
 10
158.553389
 20
47.752513
 30
0.0
 10
159.082555
 20
47.223347
 30
0.0
 10
159.347138
 20
46.165015
 30
0.0
 10
159.347138
 20
44.842100
 30
0.0
 10
159.082555
 20
43.519185
 30
0.0
 10
158.553389
 20
42.725436
 30
0.0
 10
157.759640
 20
42.460853
 30
0.0
 10
157.230474
 20
42.460853
 30
0.0
 10
156.436725
 20
42.725436
 30
0.0
 10
156.172142
 20
43.254602
 30
0.0
  0
SPLINE
  5
10a
100
AcDbEntity
  8
Layer_1
 62
1
100
AcDbSpline
 70
0
 71
3
 72
16
 73
12
 74
10
 40
0.000000
 40
0.000000
 40
0.000000
 40
0.000000
 40
2.623338
 40
5.209131
 40
7.832469
 40
10.455807
 40
13.041601
 40
15.664938
 40
18.288276
 40
20.874070
 40
23.497407
 40
23.497407
 40
23.497407
 40
23.497407
 10
221.999400
 20
142.766710
 30
0.0
 10
222.089201
 20
143.645618
 30
0.0
 10
222.267516
 20
145.390854
 30
0.0
 10
223.651212
 20
147.697233
 30
0.0
 10
225.677109
 20
149.411985
 30
0.0
 10
228.186184
 20
150.321459
 30
0.0
 10
230.847324
 20
150.321511
 30
0.0
 10
233.356435
 20
149.412133
 30
0.0
 10
235.382398
 20
147.697459
 30
0.0
 10
236.766182
 20
145.391134
 30
0.0
 10
236.944566
 20
143.645904
 30
0.0
 10
237.034400
 20
142.767000
 30
0.0
 11
221.999400
 21
142.766710
 31
0.0
 11
222.456969
 21
145.349834
 31
0.0
 11
223.749823
 21
147.589222
 31
0.0
 11
225.758024
 21
149.277128
 31
0.0
 11
228.223860
 21
150.172424
 31
0.0
 11
230.809654
 21
150.172474
 31
0.0
 11
233.275524
 21
149.277273
 31
0.0
 11
235.283791
 21
147.589445
 31
0.0
 11
236.576731
 21
145.350107
 31
0.0
 11
237.034400
 21
142.767000
 31
0.0
  0
SPLINE
  5
10b
100
AcDbEntity
  8
Layer_1
 62
1
100
AcDbSpline
 70
0
 71
3
 72
10
 73
6
 74
4
 40
0.000000
 40
0.000000
 40
0.000000
 40
0.000000
 40
29.070903
 40
50.497677
 40
68.911879
 40
68.911879
 40
68.911879
 40
68.911879
 10
221.999400
 20
133.766710
 30
0.0
 10
221.706883
 20
124.020868
 30
0.0
 10
221.198765
 20
107.091830
 30
0.0
 10
211.260091
 20
85.368297
 30
0.0
 10
200.844694
 20
76.927947
 30
0.0
 10
196.030775
 20
73.026880
 30
0.0
 11
221.999400
 21
133.766710
 31
0.0
 11
218.876565
 21
104.864023
 31
0.0
 11
209.475042
 21
85.609984
 31
0.0
 11
196.030775
 21
73.026880
 31
0.0
  0
LWPOLYLINE
  5
10c
100
AcDbEntity
  8
Layer_1
 62
1
100
AcDbPolyline
 90
2
 70
0
 10
221.999400
 20
142.766710
 30
0.0
 10
221.999400
 20
133.766710
 30
0.0
  0
SPLINE
  5
10d
100
AcDbEntity
  8
Layer_1
 62
1
100
AcDbSpline
 70
0
 71
3
 72
10
 73
6
 74
4
 40
0.000000
 40
0.000000
 40
0.000000
 40
0.000000
 40
17.540241
 40
34.426555
 40
50.204779
 40
50.204779
 40
50.204779
 40
50.204779
 10
196.030775
 20
73.026880
 30
0.0
 10
190.931763
 20
70.135692
 30
0.0
 10
180.923837
 20
64.461103
 30
0.0
 10
164.630298
 20
59.858337
 30
0.0
 10
153.753372
 20
59.122260
 30
0.0
 10
148.499400
 20
58.766707
 30
0.0
 11
196.030775
 21
73.026880
 31
0.0
 11
180.431339
 21
65.007053
 31
0.0
 11
164.196936
 21
60.360358
 31
0.0
 11
148.499400
 21
58.766707
 31
0.0
  0
LWPOLYLINE
  5
10e
100
AcDbEntity
  8
Layer_1
 62
1
100
AcDbPolyline
 90
2
 70
0
 10
237.034400
 20
127.288753
 30
0.0
 10
237.034400
 20
142.766710
 30
0.0
  0
SPLINE
  5
10f
100
AcDbEntity
  8
Layer_1
 62
1
100
AcDbSpline
 70
0
 71
3
 72
13
 73
9
 74
7
 40
0.000000
 40
0.000000
 40
0.000000
 40
0.000000
 40
2.124900
 40
4.186775
 40
6.311675
 40
8.436574
 40
10.498450
 40
12.623349
 40
12.623349
 40
12.623349
 40
12.623349
 10
237.034400
 20
127.288753
 30
0.0
 10
236.922615
 20
126.572338
 30
0.0
 10
236.702360
 20
125.160755
 30
0.0
 10
235.085611
 20
123.606726
 30
0.0
 10
232.970375
 20
123.030921
 30
0.0
 10
230.855147
 20
123.606751
 30
0.0
 10
229.238415
 20
125.160798
 30
0.0
 10
229.018177
 20
126.572383
 30
0.0
 10
228.906400
 20
127.288800
 30
0.0
 11
237.034400
 21
127.288753
 31
0.0
 11
236.479533
 21
125.237578
 31
0.0
 11
235.021558
 21
123.779620
 31
0.0
 11
232.970377
 21
123.224777
 31
0.0
 11
230.919201
 21
123.779643
 31
0.0
 11
229.461243
 21
125.237618
 31
0.0
 11
228.906400
 21
127.288800
 31
0.0
  0
SPLINE
  5
110
100
AcDbEntity
  8
Layer_1
 62
1
100
AcDbSpline
 70
0
 71
3
 72
16
 73
12
 74
10
 40
0.000000
 40
0.000000
 40
0.000000
 40
0.000000
 40
1.419619
 40
2.803821
 40
4.223441
 40
5.643060
 40
7.027262
 40
8.446881
 40
9.866500
 40
11.250703
 40
12.670322
 40
12.670322
 40
12.670322
 40
12.670322
 10
227.739943
 20
105.557075
 30
0.0
 10
228.196715
 20
105.711989
 30
0.0
 10
229.098863
 20
106.017954
 30
0.0
 10
230.532240
 20
105.630776
 30
0.0
 10
231.631019
 20
104.680337
 30
0.0
 10
232.171136
 20
103.318084
 30
0.0
 10
232.033790
 20
101.866471
 30
0.0
 10
231.247762
 20
100.629694
 30
0.0
 10
229.990223
 20
99.902201
 30
0.0
 10
228.509665
 20
99.790730
 30
0.0
 10
227.680911
 20
100.260465
 30
0.0
 10
227.261300
 20
100.498300
 30
0.0
 11
227.739943
 21
105.557075
 31
0.0
 11
229.122930
 21
105.877490
 31
0.0
 11
230.466081
 21
105.542886
 31
0.0
 11
231.537128
 21
104.611126
 31
0.0
 11
232.060370
 21
103.291453
 31
0.0
 11
231.929984
 21
101.913405
 31
0.0
 11
231.168518
 21
100.715287
 31
0.0
 11
229.941722
 21
100.000940
 31
0.0
 11
228.559650
 21
99.924187
 31
0.0
 11
227.261300
 21
100.498300
 31
0.0
  0
SPLINE
  5
111
100
AcDbEntity
  8
Layer_1
 62
1
100
AcDbSpline
 70
0
 71
3
 72
10
 73
6
 74
4
 40
0.000000
 40
0.000000
 40
0.000000
 40
0.000000
 40
10.619769
 40
22.152894
 40
34.721221
 40
34.721221
 40
34.721221
 40
34.721221
 10
217.857873
 20
67.201308
 30
0.0
 10
219.268964
 20
70.451449
 30
0.0
 10
222.212507
 20
77.231260
 30
0.0
 10
225.279546
 20
88.434421
 30
0.0
 10
226.582046
 20
96.363516
 30
0.0
 10
227.261269
 20
100.498348
 30
0.0
 11
217.857873
 21
67.201308
 31
0.0
 11
221.864391
 21
77.036312
 31
0.0
 11
224.998856
 21
88.135325
 31
0.0
 11
227.261269
 21
100.498348
 31
0.0
  0
SPLINE
  5
112
100
AcDbEntity
  8
Layer_1
 62
1
100
AcDbSpline
 70
0
 71
3
 72
10
 73
6
 74
4
 40
0.000000
 40
0.000000
 40
0.000000
 40
0.000000
 40
11.544006
 40
23.170660
 40
35.433527
 40
35.433527
 40
35.433527
 40
35.433527
 10
189.879554
 20
38.948268
 30
0.0
 10
193.306169
 20
40.726513
 30
0.0
 10
200.183930
 20
44.295735
 30
0.0
 10
208.933189
 20
52.497051
 30
0.0
 10
213.250972
 20
59.207575
 30
0.0
 10
215.467358
 20
62.652193
 30
0.0
 11
189.879554
 21
38.948268
 31
0.0
 11
199.872343
 21
44.728254
 31
0.0
 11
208.401611
 21
52.629563
 31
0.0
 11
215.467358
 21
62.652193
 31
0.0
  0
SPLINE
  5
113
100
AcDbEntity
  8
Layer_1
 62
1
100
AcDbSpline
 70
0
 71
3
 72
16
 73
12
 74
10
 40
0.000000
 40
0.000000
 40
0.000000
 40
0.000000
 40
1.407466
 40
2.780347
 40
4.187813
 40
5.595280
 40
6.968160
 40
8.375627
 40
9.783093
 40
11.155974
 40
12.563440
 40
12.563440
 40
12.563440
 40
12.563440
 10
217.857873
 20
67.201308
 30
0.0
 10
218.334399
 20
67.163303
 30
0.0
 10
219.275741
 20
67.088227
 30
0.0
 10
220.432847
 20
66.180024
 30
0.0
 10
221.072050
 20
64.889980
 30
0.0
 10
221.048721
 20
63.438087
 30
0.0
 10
220.376585
 20
62.159002
 30
0.0
 10
219.194106
 20
61.316222
 30
0.0
 10
217.769104
 20
61.110879
 30
0.0
 10
216.364795
 20
61.548652
 30
0.0
 10
215.769002
 20
62.281313
 30
0.0
 10
215.467400
 20
62.652200
 30
0.0
 11
217.857873
 21
67.201308
 31
0.0
 11
219.243086
 21
66.952016
 31
0.0
 11
220.339455
 21
66.125714
 31
0.0
 11
220.960716
 21
64.862782
 31
0.0
 11
220.938144
 21
63.455497
 31
0.0
 11
220.299524
 21
62.240192
 31
0.0
 11
219.153351
 21
61.423339
 31
0.0
 11
217.760856
 21
61.218599
 31
0.0
 11
216.458449
 21
61.652809
 31
0.0
 11
215.467400
 21
62.652200
 31
0.0
  0
SPLINE
  5
114
100
AcDbEntity
  8
Layer_1
 62
1
100
AcDbSpline
 70
0
 71
3
 72
19
 73
15
 74
13
 40
0.000000
 40
0.000000
 40
0.000000
 40
0.000000
 40
1.350994
 40
2.671118
 40
4.022112
 40
5.373105
 40
6.693230
 40
8.044223
 40
9.395217
 40
10.715342
 40
12.066335
 40
12.204889
 40
12.343404
 40
12.481956
 40
12.481956
 40
12.481956
 40
12.481956
 10
189.879554
 20
38.948268
 30
0.0
 10
190.202493
 20
38.623261
 30
0.0
 10
190.840992
 20
37.980674
 30
0.0
 10
191.147064
 20
36.607106
 30
0.0
 10
190.862930
 20
35.257527
 30
0.0
 10
190.005638
 20
34.163052
 30
0.0
 10
188.763172
 20
33.552032
 30
0.0
 10
187.375394
 20
33.540270
 30
0.0
 10
186.123342
 20
34.139146
 30
0.0
 10
185.256528
 20
35.217695
 30
0.0
 10
185.038613
 20
36.167509
 30
0.0
 10
185.051352
 20
36.709898
 30
0.0
 10
185.060597
 20
36.848225
 30
0.0
 10
185.072132
 20
36.939871
 30
0.0
 10
185.077900
 20
36.985700
 30
0.0
 11
189.879554
 21
38.948268
 31
0.0
 11
190.737033
 21
37.904279
 31
0.0
 11
191.048977
 21
36.621539
 31
0.0
 11
190.766671
 21
35.300371
 31
0.0
 11
189.933623
 21
34.236785
 31
0.0
 11
188.749137
 21
33.653928
 31
0.0
 11
187.398189
 21
33.642824
 31
0.0
 11
186.179179
 21
34.225232
 31
0.0
 11
185.353186
 21
35.255020
 31
0.0
 11
185.049200
 21
36.571370
 31
0.0
 11
185.052351
 21
36.709888
 31
0.0
 11
185.061939
 21
36.848071
 31
0.0
 11
185.077900
 21
36.985700
 31
0.0
  0
SPLINE
  5
115
100
AcDbEntity
  8
Layer_1
 62
1
100
AcDbSpline
 70
0
 71
3
 72
10
 73
6
 74
4
 40
0.000000
 40
0.000000
 40
0.000000
 40
0.000000
 40
14.136727
 40
26.445609
 40
37.103007
 40
37.103007
 40
37.103007
 40
37.103007
 10
148.499400
 20
31.927000
 30
0.0
 10
153.210703
 20
31.996522
 30
0.0
 10
162.024150
 20
32.126576
 30
0.0
 10
174.363355
 20
33.636094
 30
0.0
 10
181.681807
 20
35.924005
 30
0.0
 10
185.077901
 20
36.985699
 30
0.0
 11
148.499400
 21
31.927000
 31
0.0
 11
162.628015
 21
32.405851
 31
0.0
 11
174.820848
 21
34.092084
 31
0.0
 11
185.077901
 21
36.985699
 31
0.0
  0
SPLINE
  5
116
100
AcDbEntity
  8
Layer_1
 62
1
100
AcDbSpline
 70
0
 71
3
 72
10
 73
6
 74
4
 40
0.000000
 40
0.000000
 40
0.000000
 40
0.000000
 40
29.070903
 40
50.497677
 40
68.911879
 40
68.911879
 40
68.911879
 40
68.911879
 10
74.999400
 20
133.766710
 30
0.0
 10
75.291917
 20
124.020868
 30
0.0
 10
75.800035
 20
107.091830
 30
0.0
 10
85.738709
 20
85.368297
 30
0.0
 10
96.154106
 20
76.927947
 30
0.0
 10
100.968025
 20
73.026880
 30
0.0
 11
74.999400
 21
133.766710
 31
0.0
 11
78.122235
 21
104.864023
 31
0.0
 11
87.523758
 21
85.609984
 31
0.0
 11
100.968025
 21
73.026880
 31
0.0
  0
LWPOLYLINE
  5
117
100
AcDbEntity
  8
Layer_1
 62
1
100
AcDbPolyline
 90
2
 70
0
 10
227.739943
 20
105.557075
 30
0.0
 10
228.906400
 20
127.288753
 30
0.0
  0
SPLINE
  5
118
100
AcDbEntity
  8
Layer_1
 62
1
100
AcDbSpline
 70
0
 71
3
 72
10
 73
6
 74
4
 40
0.000000
 40
0.000000
 40
0.000000
 40
0.000000
 40
17.540241
 40
34.426555
 40
50.204779
 40
50.204779
 40
50.204779
 40
50.204779
 10
100.968025
 20
73.026880
 30
0.0
 10
106.067037
 20
70.135692
 30
0.0
 10
116.074963
 20
64.461103
 30
0.0
 10
132.368502
 20
59.858337
 30
0.0
 10
143.245428
 20
59.122260
 30
0.0
 10
148.499400
 20
58.766707
 30
0.0
 11
100.968025
 21
73.026880
 31
0.0
 11
116.567461
 21
65.007053
 31
0.0
 11
132.801864
 21
60.360358
 31
0.0
 11
148.499400
 21
58.766707
 31
0.0
  0
LWPOLYLINE
  5
119
100
AcDbEntity
  8
Layer_1
 62
1
100
AcDbPolyline
 90
2
 70
0
 10
74.999400
 20
142.766710
 30
0.0
 10
74.999400
 20
133.766710
 30
0.0
  0
SPLINE
  5
11a
100
AcDbEntity
  8
Layer_1
 62
1
100
AcDbSpline
 70
0
 71
3
 72
16
 73
12
 74
10
 40
0.000000
 40
0.000000
 40
0.000000
 40
0.000000
 40
2.623338
 40
5.209131
 40
7.832469
 40
10.455807
 40
13.041601
 40
15.664938
 40
18.288276
 40
20.874070
 40
23.497407
 40
23.497407
 40
23.497407
 40
23.497407
 10
74.999400
 20
142.766710
 30
0.0
 10
74.909599
 20
143.645618
 30
0.0
 10
74.731284
 20
145.390854
 30
0.0
 10
73.347588
 20
147.697233
 30
0.0
 10
71.321691
 20
149.411985
 30
0.0
 10
68.812616
 20
150.321459
 30
0.0
 10
66.151476
 20
150.321511
 30
0.0
 10
63.642365
 20
149.412133
 30
0.0
 10
61.616402
 20
147.697459
 30
0.0
 10
60.232618
 20
145.391134
 30
0.0
 10
60.054234
 20
143.645904
 30
0.0
 10
59.964400
 20
142.767000
 30
0.0
 11
74.999400
 21
142.766710
 31
0.0
 11
74.541831
 21
145.349834
 31
0.0
 11
73.248977
 21
147.589222
 31
0.0
 11
71.240776
 21
149.277128
 31
0.0
 11
68.774940
 21
150.172424
 31
0.0
 11
66.189146
 21
150.172474
 31
0.0
 11
63.723276
 21
149.277273
 31
0.0
 11
61.715009
 21
147.589445
 31
0.0
 11
60.422069
 21
145.350107
 31
0.0
 11
59.964400
 21
142.767000
 31
0.0
  0
SPLINE
  5
11b
100
AcDbEntity
  8
Layer_1
 62
1
100
AcDbSpline
 70
0
 71
3
 72
16
 73
12
 74
10
 40
0.000000
 40
0.000000
 40
0.000000
 40
0.000000
 40
1.418190
 40
2.816084
 40
4.234274
 40
5.652464
 40
7.050358
 40
8.468548
 40
9.886738
 40
11.284632
 40
12.702822
 40
12.702822
 40
12.702822
 40
12.702822
 10
59.964400
 20
127.288753
 30
0.0
 10
60.012959
 20
126.813612
 30
0.0
 10
60.109381
 20
125.870131
 30
0.0
 10
60.857445
 20
124.623309
 30
0.0
 10
61.952679
 20
123.696332
 30
0.0
 10
63.309110
 20
123.204700
 30
0.0
 10
64.747737
 20
123.204708
 30
0.0
 10
66.104163
 20
123.696356
 30
0.0
 10
67.199386
 20
124.623345
 30
0.0
 10
67.947436
 20
125.870176
 30
0.0
 10
68.043847
 20
126.813659
 30
0.0
 10
68.092400
 20
127.288800
 30
0.0
 11
59.964400
 21
127.288753
 31
0.0
 11
60.211799
 21
125.892309
 31
0.0
 11
60.910753
 21
124.681701
 31
0.0
 11
61.996420
 21
123.769238
 31
0.0
 11
63.329476
 21
123.285269
 31
0.0
 11
64.727370
 21
123.285278
 31
0.0
 11
66.060420
 21
123.769261
 31
0.0
 11
67.146077
 21
124.681737
 31
0.0
 11
67.845017
 21
125.892353
 31
0.0
 11
68.092400
 21
127.288800
 31
0.0
  0
LWPOLYLINE
  5
11c
100
AcDbEntity
  8
Layer_1
 62
1
100
AcDbPolyline
 90
2
 70
0
 10
59.964400
 20
127.288753
 30
0.0
 10
59.964400
 20
142.766710
 30
0.0
  0
SPLINE
  5
11d
100
AcDbEntity
  8
Layer_1
 62
1
100
AcDbSpline
 70
0
 71
3
 72
10
 73
6
 74
4
 40
0.000000
 40
0.000000
 40
0.000000
 40
0.000000
 40
14.136727
 40
26.445609
 40
37.103007
 40
37.103007
 40
37.103007
 40
37.103007
 10
148.499400
 20
31.927000
 30
0.0
 10
143.788097
 20
31.996522
 30
0.0
 10
134.974650
 20
32.126576
 30
0.0
 10
122.635445
 20
33.636094
 30
0.0
 10
115.316993
 20
35.924005
 30
0.0
 10
111.920899
 20
36.985699
 30
0.0
 11
148.499400
 21
31.927000
 31
0.0
 11
134.370785
 21
32.405851
 31
0.0
 11
122.177952
 21
34.092084
 31
0.0
 11
111.920899
 21
36.985699
 31
0.0
  0
SPLINE
  5
11e
100
AcDbEntity
  8
Layer_1
 62
1
100
AcDbSpline
 70
0
 71
3
 72
19
 73
15
 74
13
 40
0.000000
 40
0.000000
 40
0.000000
 40
0.000000
 40
1.350994
 40
2.671118
 40
4.022112
 40
5.373105
 40
6.693230
 40
8.044223
 40
9.395217
 40
10.715342
 40
12.066335
 40
12.204889
 40
12.343404
 40
12.481956
 40
12.481956
 40
12.481956
 40
12.481956
 10
107.119246
 20
38.948268
 30
0.0
 10
106.796307
 20
38.623261
 30
0.0
 10
106.157808
 20
37.980674
 30
0.0
 10
105.851736
 20
36.607106
 30
0.0
 10
106.135870
 20
35.257527
 30
0.0
 10
106.993162
 20
34.163052
 30
0.0
 10
108.235628
 20
33.552032
 30
0.0
 10
109.623406
 20
33.540270
 30
0.0
 10
110.875458
 20
34.139146
 30
0.0
 10
111.742272
 20
35.217695
 30
0.0
 10
111.960187
 20
36.167509
 30
0.0
 10
111.947448
 20
36.709898
 30
0.0
 10
111.938203
 20
36.848225
 30
0.0
 10
111.926668
 20
36.939871
 30
0.0
 10
111.920900
 20
36.985700
 30
0.0
 11
107.119246
 21
38.948268
 31
0.0
 11
106.261767
 21
37.904279
 31
0.0
 11
105.949823
 21
36.621539
 31
0.0
 11
106.232129
 21
35.300371
 31
0.0
 11
107.065177
 21
34.236785
 31
0.0
 11
108.249663
 21
33.653928
 31
0.0
 11
109.600611
 21
33.642824
 31
0.0
 11
110.819621
 21
34.225232
 31
0.0
 11
111.645614
 21
35.255020
 31
0.0
 11
111.949600
 21
36.571370
 31
0.0
 11
111.946449
 21
36.709888
 31
0.0
 11
111.936861
 21
36.848071
 31
0.0
 11
111.920900
 21
36.985700
 31
0.0
  0
SPLINE
  5
11f
100
AcDbEntity
  8
Layer_1
 62
1
100
AcDbSpline
 70
0
 71
3
 72
16
 73
12
 74
10
 40
0.000000
 40
0.000000
 40
0.000000
 40
0.000000
 40
1.419619
 40
2.803821
 40
4.223441
 40
5.643060
 40
7.027262
 40
8.446881
 40
9.866500
 40
11.250703
 40
12.670322
 40
12.670322
 40
12.670322
 40
12.670322
 10
69.258857
 20
105.557075
 30
0.0
 10
68.802085
 20
105.711989
 30
0.0
 10
67.899937
 20
106.017954
 30
0.0
 10
66.466560
 20
105.630776
 30
0.0
 10
65.367781
 20
104.680337
 30
0.0
 10
64.827664
 20
103.318084
 30
0.0
 10
64.965010
 20
101.866471
 30
0.0
 10
65.751038
 20
100.629694
 30
0.0
 10
67.008577
 20
99.902201
 30
0.0
 10
68.489135
 20
99.790730
 30
0.0
 10
69.317889
 20
100.260465
 30
0.0
 10
69.737500
 20
100.498300
 30
0.0
 11
69.258857
 21
105.557075
 31
0.0
 11
67.875870
 21
105.877490
 31
0.0
 11
66.532719
 21
105.542886
 31
0.0
 11
65.461672
 21
104.611126
 31
0.0
 11
64.938430
 21
103.291453
 31
0.0
 11
65.068816
 21
101.913405
 31
0.0
 11
65.830282
 21
100.715287
 31
0.0
 11
67.057078
 21
100.000940
 31
0.0
 11
68.439150
 21
99.924187
 31
0.0
 11
69.737500
 21
100.498300
 31
0.0
  0
SPLINE
  5
120
100
AcDbEntity
  8
Layer_1
 62
1
100
AcDbSpline
 70
0
 71
3
 72
10
 73
6
 74
4
 40
0.000000
 40
0.000000
 40
0.000000
 40
0.000000
 40
10.619769
 40
22.152894
 40
34.721221
 40
34.721221
 40
34.721221
 40
34.721221
 10
79.140927
 20
67.201308
 30
0.0
 10
77.729836
 20
70.451449
 30
0.0
 10
74.786293
 20
77.231260
 30
0.0
 10
71.719254
 20
88.434421
 30
0.0
 10
70.416754
 20
96.363516
 30
0.0
 10
69.737531
 20
100.498348
 30
0.0
 11
79.140927
 21
67.201308
 31
0.0
 11
75.134409
 21
77.036312
 31
0.0
 11
71.999944
 21
88.135325
 31
0.0
 11
69.737531
 21
100.498348
 31
0.0
  0
SPLINE
  5
121
100
AcDbEntity
  8
Layer_1
 62
1
100
AcDbSpline
 70
0
 71
3
 72
10
 73
6
 74
4
 40
0.000000
 40
0.000000
 40
0.000000
 40
0.000000
 40
11.544006
 40
23.170660
 40
35.433527
 40
35.433527
 40
35.433527
 40
35.433527
 10
107.119246
 20
38.948268
 30
0.0
 10
103.692631
 20
40.726513
 30
0.0
 10
96.814870
 20
44.295735
 30
0.0
 10
88.065611
 20
52.497051
 30
0.0
 10
83.747828
 20
59.207575
 30
0.0
 10
81.531442
 20
62.652193
 30
0.0
 11
107.119246
 21
38.948268
 31
0.0
 11
97.126457
 21
44.728254
 31
0.0
 11
88.597189
 21
52.629563
 31
0.0
 11
81.531442
 21
62.652193
 31
0.0
  0
LWPOLYLINE
  5
122
100
AcDbEntity
  8
Layer_1
 62
1
100
AcDbPolyline
 90
2
 70
0
 10
69.258857
 20
105.557075
 30
0.0
 10
68.092400
 20
127.288753
 30
0.0
  0
SPLINE
  5
123
100
AcDbEntity
  8
Layer_1
 62
1
100
AcDbSpline
 70
0
 71
3
 72
16
 73
12
 74
10
 40
0.000000
 40
0.000000
 40
0.000000
 40
0.000000
 40
1.407466
 40
2.780347
 40
4.187813
 40
5.595280
 40
6.968160
 40
8.375627
 40
9.783093
 40
11.155974
 40
12.563440
 40
12.563440
 40
12.563440
 40
12.563440
 10
79.140927
 20
67.201308
 30
0.0
 10
78.664401
 20
67.163303
 30
0.0
 10
77.723059
 20
67.088227
 30
0.0
 10
76.565953
 20
66.180024
 30
0.0
 10
75.926750
 20
64.889980
 30
0.0
 10
75.950079
 20
63.438087
 30
0.0
 10
76.622215
 20
62.159002
 30
0.0
 10
77.804694
 20
61.316222
 30
0.0
 10
79.229696
 20
61.110879
 30
0.0
 10
80.634005
 20
61.548652
 30
0.0
 10
81.229798
 20
62.281313
 30
0.0
 10
81.531400
 20
62.652200
 30
0.0
 11
79.140927
 21
67.201308
 31
0.0
 11
77.755714
 21
66.952016
 31
0.0
 11
76.659345
 21
66.125714
 31
0.0
 11
76.038084
 21
64.862782
 31
0.0
 11
76.060656
 21
63.455497
 31
0.0
 11
76.699276
 21
62.240192
 31
0.0
 11
77.845449
 21
61.423339
 31
0.0
 11
79.237944
 21
61.218599
 31
0.0
 11
80.540351
 21
61.652809
 31
0.0
 11
81.531400
 21
62.652200
 31
0.0
  0
SPLINE
  5
124
100
AcDbEntity
  8
Layer_1
 62
1
100
AcDbSpline
 70
0
 71
3
 72
13
 73
9
 74
7
 40
0.000000
 40
0.000000
 40
0.000000
 40
0.000000
 40
0.522362
 40
1.029260
 40
1.551623
 40
2.073985
 40
2.580883
 40
3.103245
 40
3.103245
 40
3.103245
 40
3.103245
 10
70.481900
 20
135.766710
 30
0.0
 10
70.657964
 20
135.794461
 30
0.0
 10
71.004879
 20
135.849142
 30
0.0
 10
71.386520
 20
136.246869
 30
0.0
 10
71.527916
 20
136.766855
 30
0.0
 10
71.386520
 20
137.286841
 30
0.0
 10
71.004879
 20
137.684568
 30
0.0
 10
70.657964
 20
137.739249
 30
0.0
 10
70.481900
 20
137.767000
 30
0.0
 11
70.481900
 21
135.766710
 31
0.0
 11
70.985943
 21
135.903834
 31
0.0
 11
71.344064
 21
136.262575
 31
0.0
 11
71.480314
 21
136.766855
 31
0.0
 11
71.344064
 21
137.271135
 31
0.0
 11
70.985943
 21
137.629876
 31
0.0
 11
70.481900
 21
137.767000
 31
0.0
  0
LWPOLYLINE
  5
125
100
AcDbEntity
  8
Layer_1
 62
1
100
AcDbPolyline
 90
2
 70
0
 10
64.481900
 20
137.766710
 30
0.0
 10
70.481900
 20
137.766710
 30
0.0
  0
LWPOLYLINE
  5
126
100
AcDbEntity
  8
Layer_1
 62
1
100
AcDbPolyline
 90
2
 70
0
 10
64.481900
 20
135.766710
 30
0.0
 10
70.481900
 20
135.766710
 30
0.0
  0
SPLINE
  5
127
100
AcDbEntity
  8
Layer_1
 62
1
100
AcDbSpline
 70
0
 71
3
 72
16
 73
12
 74
10
 40
0.000000
 40
0.000000
 40
0.000000
 40
0.000000
 40
0.352743
 40
0.700335
 40
1.053078
 40
1.405820
 40
1.753412
 40
2.106155
 40
2.458898
 40
2.806490
 40
3.159233
 40
3.159233
 40
3.159233
 40
3.159233
 10
64.481900
 20
137.766710
 30
0.0
 10
64.363515
 20
137.756511
 30
0.0
 10
64.128475
 20
137.736263
 30
0.0
 10
63.816120
 20
137.553600
 30
0.0
 10
63.583427
 20
137.282869
 30
0.0
 10
63.459825
 20
136.945825
 30
0.0
 10
63.459825
 20
136.587885
 30
0.0
 10
63.583427
 20
136.250841
 30
0.0
 10
63.816120
 20
135.980110
 30
0.0
 10
64.128475
 20
135.797447
 30
0.0
 10
64.363515
 20
135.777199
 30
0.0
 10
64.481900
 20
135.767000
 30
0.0
 11
64.481900
 21
137.766710
 31
0.0
 11
64.133675
 21
137.710433
 31
0.0
 11
63.830698
 21
137.540066
 31
0.0
 11
63.601698
 21
137.271763
 31
0.0
 11
63.480074
 21
136.940651
 31
0.0
 11
63.480074
 21
136.593059
 31
0.0
 11
63.601698
 21
136.261947
 31
0.0
 11
63.830698
 21
135.993644
 31
0.0
 11
64.133675
 21
135.823277
 31
0.0
 11
64.481900
 21
135.767000
 31
0.0
  0
SPLINE
  5
128
100
AcDbEntity
  8
Layer_1
 62
1
100
AcDbSpline
 70
0
 71
3
 72
13
 73
9
 74
7
 40
0.000000
 40
0.000000
 40
0.000000
 40
0.000000
 40
0.522362
 40
1.029260
 40
1.551623
 40
2.073985
 40
2.580883
 40
3.103245
 40
3.103245
 40
3.103245
 40
3.103245
 10
70.481900
 20
141.766710
 30
0.0
 10
70.657964
 20
141.794461
 30
0.0
 10
71.004879
 20
141.849142
 30
0.0
 10
71.386520
 20
142.246869
 30
0.0
 10
71.527916
 20
142.766855
 30
0.0
 10
71.386520
 20
143.286841
 30
0.0
 10
71.004879
 20
143.684568
 30
0.0
 10
70.657964
 20
143.739249
 30
0.0
 10
70.481900
 20
143.767000
 30
0.0
 11
70.481900
 21
141.766710
 31
0.0
 11
70.985943
 21
141.903834
 31
0.0
 11
71.344064
 21
142.262575
 31
0.0
 11
71.480314
 21
142.766855
 31
0.0
 11
71.344064
 21
143.271135
 31
0.0
 11
70.985943
 21
143.629876
 31
0.0
 11
70.481900
 21
143.767000
 31
0.0
  0
LWPOLYLINE
  5
129
100
AcDbEntity
  8
Layer_1
 62
1
100
AcDbPolyline
 90
2
 70
0
 10
64.481900
 20
143.766710
 30
0.0
 10
70.481900
 20
143.766710
 30
0.0
  0
LWPOLYLINE
  5
12a
100
AcDbEntity
  8
Layer_1
 62
1
100
AcDbPolyline
 90
2
 70
0
 10
64.481900
 20
141.766710
 30
0.0
 10
70.481900
 20
141.766710
 30
0.0
  0
SPLINE
  5
12b
100
AcDbEntity
  8
Layer_1
 62
1
100
AcDbSpline
 70
0
 71
3
 72
13
 73
9
 74
7
 40
0.000000
 40
0.000000
 40
0.000000
 40
0.000000
 40
0.517221
 40
1.019382
 40
1.536603
 40
2.053823
 40
2.555984
 40
3.073205
 40
3.073205
 40
3.073205
 40
3.073205
 10
64.481900
 20
143.766710
 30
0.0
 10
64.308042
 20
143.736855
 30
0.0
 10
63.965389
 20
143.678015
 30
0.0
 10
63.590895
 20
143.281728
 30
0.0
 10
63.452266
 20
142.766855
 30
0.0
 10
63.590895
 20
142.251982
 30
0.0
 10
63.965389
 20
141.855695
 30
0.0
 10
64.308042
 20
141.796855
 30
0.0
 10
64.481900
 20
141.767000
 30
0.0
 11
64.481900
 21
143.766710
 31
0.0
 11
63.984581
 21
143.624613
 31
0.0
 11
63.632536
 21
143.266521
 31
0.0
 11
63.498929
 21
142.766855
 31
0.0
 11
63.632536
 21
142.267189
 31
0.0
 11
63.984581
 21
141.909097
 31
0.0
 11
64.481900
 21
141.767000
 31
0.0
  0
SPLINE
  5
12c
100
AcDbEntity
  8
Layer_1
 62
1
100
AcDbSpline
 70
0
 71
3
 72
13
 73
9
 74
7
 40
0.000000
 40
0.000000
 40
0.000000
 40
0.000000
 40
0.522362
 40
1.029260
 40
1.551623
 40
2.073985
 40
2.580883
 40
3.103245
 40
3.103245
 40
3.103245
 40
3.103245
 10
226.516900
 20
135.766710
 30
0.0
 10
226.340836
 20
135.794461
 30
0.0
 10
225.993921
 20
135.849142
 30
0.0
 10
225.612280
 20
136.246869
 30
0.0
 10
225.470884
 20
136.766855
 30
0.0
 10
225.612280
 20
137.286841
 30
0.0
 10
225.993921
 20
137.684568
 30
0.0
 10
226.340836
 20
137.739249
 30
0.0
 10
226.516900
 20
137.767000
 30
0.0
 11
226.516900
 21
135.766710
 31
0.0
 11
226.012857
 21
135.903834
 31
0.0
 11
225.654736
 21
136.262575
 31
0.0
 11
225.518486
 21
136.766855
 31
0.0
 11
225.654736
 21
137.271135
 31
0.0
 11
226.012857
 21
137.629876
 31
0.0
 11
226.516900
 21
137.767000
 31
0.0
  0
LWPOLYLINE
  5
12d
100
AcDbEntity
  8
Layer_1
 62
1
100
AcDbPolyline
 90
2
 70
0
 10
232.516900
 20
137.766710
 30
0.0
 10
226.516900
 20
137.766710
 30
0.0
  0
LWPOLYLINE
  5
12e
100
AcDbEntity
  8
Layer_1
 62
1
100
AcDbPolyline
 90
2
 70
0
 10
232.516900
 20
135.766710
 30
0.0
 10
226.516900
 20
135.766710
 30
0.0
  0
SPLINE
  5
12f
100
AcDbEntity
  8
Layer_1
 62
1
100
AcDbSpline
 70
0
 71
3
 72
16
 73
12
 74
10
 40
0.000000
 40
0.000000
 40
0.000000
 40
0.000000
 40
0.352743
 40
0.700335
 40
1.053078
 40
1.405820
 40
1.753412
 40
2.106155
 40
2.458898
 40
2.806490
 40
3.159233
 40
3.159233
 40
3.159233
 40
3.159233
 10
232.516900
 20
137.766710
 30
0.0
 10
232.635285
 20
137.756511
 30
0.0
 10
232.870325
 20
137.736263
 30
0.0
 10
233.182680
 20
137.553600
 30
0.0
 10
233.415373
 20
137.282869
 30
0.0
 10
233.538975
 20
136.945825
 30
0.0
 10
233.538975
 20
136.587885
 30
0.0
 10
233.415373
 20
136.250841
 30
0.0
 10
233.182680
 20
135.980110
 30
0.0
 10
232.870325
 20
135.797447
 30
0.0
 10
232.635285
 20
135.777199
 30
0.0
 10
232.516900
 20
135.767000
 30
0.0
 11
232.516900
 21
137.766710
 31
0.0
 11
232.865125
 21
137.710433
 31
0.0
 11
233.168102
 21
137.540066
 31
0.0
 11
233.397102
 21
137.271763
 31
0.0
 11
233.518726
 21
136.940651
 31
0.0
 11
233.518726
 21
136.593059
 31
0.0
 11
233.397102
 21
136.261947
 31
0.0
 11
233.168102
 21
135.993644
 31
0.0
 11
232.865125
 21
135.823277
 31
0.0
 11
232.516900
 21
135.767000
 31
0.0
  0
SPLINE
  5
130
100
AcDbEntity
  8
Layer_1
 62
1
100
AcDbSpline
 70
0
 71
3
 72
13
 73
9
 74
7
 40
0.000000
 40
0.000000
 40
0.000000
 40
0.000000
 40
0.522362
 40
1.029260
 40
1.551623
 40
2.073985
 40
2.580883
 40
3.103245
 40
3.103245
 40
3.103245
 40
3.103245
 10
226.516900
 20
141.766710
 30
0.0
 10
226.340836
 20
141.794461
 30
0.0
 10
225.993921
 20
141.849142
 30
0.0
 10
225.612280
 20
142.246869
 30
0.0
 10
225.470884
 20
142.766855
 30
0.0
 10
225.612280
 20
143.286841
 30
0.0
 10
225.993921
 20
143.684568
 30
0.0
 10
226.340836
 20
143.739249
 30
0.0
 10
226.516900
 20
143.767000
 30
0.0
 11
226.516900
 21
141.766710
 31
0.0
 11
226.012857
 21
141.903834
 31
0.0
 11
225.654736
 21
142.262575
 31
0.0
 11
225.518486
 21
142.766855
 31
0.0
 11
225.654736
 21
143.271135
 31
0.0
 11
226.012857
 21
143.629876
 31
0.0
 11
226.516900
 21
143.767000
 31
0.0
  0
LWPOLYLINE
  5
131
100
AcDbEntity
  8
Layer_1
 62
1
100
AcDbPolyline
 90
2
 70
0
 10
232.516900
 20
143.766710
 30
0.0
 10
226.516900
 20
143.766710
 30
0.0
  0
SPLINE
  5
132
100
AcDbEntity
  8
Layer_1
 62
1
100
AcDbSpline
 70
0
 71
3
 72
13
 73
9
 74
7
 40
0.000000
 40
0.000000
 40
0.000000
 40
0.000000
 40
0.517221
 40
1.019382
 40
1.536603
 40
2.053823
 40
2.555984
 40
3.073205
 40
3.073205
 40
3.073205
 40
3.073205
 10
232.516900
 20
143.766710
 30
0.0
 10
232.690758
 20
143.736855
 30
0.0
 10
233.033411
 20
143.678015
 30
0.0
 10
233.407905
 20
143.281728
 30
0.0
 10
233.546534
 20
142.766855
 30
0.0
 10
233.407905
 20
142.251982
 30
0.0
 10
233.033411
 20
141.855695
 30
0.0
 10
232.690758
 20
141.796855
 30
0.0
 10
232.516900
 20
141.767000
 30
0.0
 11
232.516900
 21
143.766710
 31
0.0
 11
233.014219
 21
143.624613
 31
0.0
 11
233.366264
 21
143.266521
 31
0.0
 11
233.499871
 21
142.766855
 31
0.0
 11
233.366264
 21
142.267189
 31
0.0
 11
233.014219
 21
141.909097
 31
0.0
 11
232.516900
 21
141.767000
 31
0.0
  0
LWPOLYLINE
  5
133
100
AcDbEntity
  8
Layer_1
 62
1
100
AcDbPolyline
 90
2
 70
0
 10
232.516900
 20
141.766710
 30
0.0
 10
226.516900
 20
141.766710
 30
0.0
  0
SPLINE
  5
134
100
AcDbEntity
  8
Layer_1
 62
1
100
AcDbSpline
 70
0
 71
3
 72
25
 73
21
 74
19
 40
0.000000
 40
0.000000
 40
0.000000
 40
0.000000
 40
0.981294
 40
1.945113
 40
2.926406
 40
3.907700
 40
4.871519
 40
5.852813
 40
6.834107
 40
7.797926
 40
8.779219
 40
9.760513
 40
10.724332
 40
11.705626
 40
12.360063
 40
13.009085
 40
13.663522
 40
14.317959
 40
14.966981
 40
15.621418
 40
15.621418
 40
15.621418
 40
15.621418
 10
121.499400
 20
46.427000
 30
0.0
 10
121.170190
 20
46.464988
 30
0.0
 10
120.517633
 20
46.540287
 30
0.0
 10
119.686046
 20
47.117918
 30
0.0
 10
119.128840
 20
47.943815
 30
0.0
 10
118.934634
 20
48.927629
 30
0.0
 10
119.129752
 20
49.908130
 30
0.0
 10
119.685052
 20
50.741372
 30
0.0
 10
120.518181
 20
51.296644
 30
0.0
 10
121.499102
 20
51.491762
 30
0.0
 10
122.481325
 20
51.297583
 30
0.0
 10
123.313146
 20
50.740269
 30
0.0
 10
123.868920
 20
49.909083
 30
0.0
 10
124.043010
 20
49.035623
 30
0.0
 10
123.941809
 20
48.272603
 30
0.0
 10
123.689312
 20
47.662820
 30
0.0
 10
123.287585
 20
47.138265
 30
0.0
 10
122.763690
 20
46.739169
 30
0.0
 10
122.153902
 20
46.476860
 30
0.0
 10
121.718171
 20
46.443666
 30
0.0
 10
121.499400
 20
46.427000
 30
0.0
 11
121.499400
 21
46.427000
 31
0.0
 11
120.537176
 21
46.619516
 31
0.0
 11
119.735790
 21
47.154985
 31
0.0
 11
119.189701
 21
47.970291
 31
0.0
 11
118.999335
 21
48.932943
 31
0.0
 11
119.187367
 21
49.878243
 31
0.0
 11
119.731633
 21
50.694767
 31
0.0
 11
120.548157
 21
51.239033
 31
0.0
 11
121.493457
 21
51.427065
 31
0.0
 11
122.456109
 21
51.236699
 31
0.0
 11
123.271415
 21
50.690610
 31
0.0
 11
123.806884
 21
49.889224
 31
0.0
 11
123.999400
 21
48.927000
 31
0.0
 11
123.913749
 21
48.278192
 31
0.0
 11
123.665379
 21
47.678574
 31
0.0
 11
123.267167
 21
47.159233
 31
0.0
 11
122.747826
 21
46.761021
 31
0.0
 11
122.148208
 21
46.512651
 31
0.0
 11
121.499400
 21
46.427000
 31
0.0
  0
LWPOLYLINE
  5
135
100
AcDbEntity
  8
Layer_1
 62
1
100
AcDbPolyline
 90
1
 70
1
 10
121.499400
 20
46.427000
 30
0.0
  0
SPLINE
  5
136
100
AcDbEntity
  8
Layer_1
 62
1
100
AcDbSpline
 70
0
 71
3
 72
25
 73
21
 74
19
 40
0.000000
 40
0.000000
 40
0.000000
 40
0.000000
 40
0.981294
 40
1.945113
 40
2.926406
 40
3.907700
 40
4.871519
 40
5.852813
 40
6.834107
 40
7.797926
 40
8.779219
 40
9.760513
 40
10.724332
 40
11.705626
 40
12.360063
 40
13.009085
 40
13.663522
 40
14.317959
 40
14.966981
 40
15.621418
 40
15.621418
 40
15.621418
 40
15.621418
 10
94.499400
 20
61.427000
 30
0.0
 10
94.170190
 20
61.464988
 30
0.0
 10
93.517633
 20
61.540287
 30
0.0
 10
92.686046
 20
62.117918
 30
0.0
 10
92.128840
 20
62.943815
 30
0.0
 10
91.934634
 20
63.927629
 30
0.0
 10
92.129752
 20
64.908130
 30
0.0
 10
92.685052
 20
65.741372
 30
0.0
 10
93.518181
 20
66.296644
 30
0.0
 10
94.499102
 20
66.491762
 30
0.0
 10
95.481325
 20
66.297583
 30
0.0
 10
96.313146
 20
65.740269
 30
0.0
 10
96.868920
 20
64.909083
 30
0.0
 10
97.043010
 20
64.035623
 30
0.0
 10
96.941809
 20
63.272603
 30
0.0
 10
96.689312
 20
62.662820
 30
0.0
 10
96.287585
 20
62.138265
 30
0.0
 10
95.763690
 20
61.739169
 30
0.0
 10
95.153902
 20
61.476860
 30
0.0
 10
94.718171
 20
61.443666
 30
0.0
 10
94.499400
 20
61.427000
 30
0.0
 11
94.499400
 21
61.427000
 31
0.0
 11
93.537176
 21
61.619516
 31
0.0
 11
92.735790
 21
62.154985
 31
0.0
 11
92.189701
 21
62.970291
 31
0.0
 11
91.999335
 21
63.932943
 31
0.0
 11
92.187367
 21
64.878243
 31
0.0
 11
92.731633
 21
65.694767
 31
0.0
 11
93.548157
 21
66.239033
 31
0.0
 11
94.493457
 21
66.427065
 31
0.0
 11
95.456109
 21
66.236699
 31
0.0
 11
96.271415
 21
65.690610
 31
0.0
 11
96.806884
 21
64.889224
 31
0.0
 11
96.999400
 21
63.927000
 31
0.0
 11
96.913749
 21
63.278192
 31
0.0
 11
96.665379
 21
62.678574
 31
0.0
 11
96.267167
 21
62.159233
 31
0.0
 11
95.747826
 21
61.761021
 31
0.0
 11
95.148208
 21
61.512651
 31
0.0
 11
94.499400
 21
61.427000
 31
0.0
  0
LWPOLYLINE
  5
137
100
AcDbEntity
  8
Layer_1
 62
1
100
AcDbPolyline
 90
1
 70
1
 10
94.499400
 20
61.427000
 30
0.0
  0
SPLINE
  5
138
100
AcDbEntity
  8
Layer_1
 62
1
100
AcDbSpline
 70
0
 71
3
 72
25
 73
21
 74
19
 40
0.000000
 40
0.000000
 40
0.000000
 40
0.000000
 40
0.981294
 40
1.945113
 40
2.926406
 40
3.907700
 40
4.871519
 40
5.852813
 40
6.834107
 40
7.797926
 40
8.779219
 40
9.760513
 40
10.724332
 40
11.705626
 40
12.360063
 40
13.009085
 40
13.663522
 40
14.317959
 40
14.966981
 40
15.621418
 40
15.621418
 40
15.621418
 40
15.621418
 10
175.499400
 20
46.427000
 30
0.0
 10
175.170190
 20
46.464988
 30
0.0
 10
174.517633
 20
46.540287
 30
0.0
 10
173.686046
 20
47.117918
 30
0.0
 10
173.128840
 20
47.943815
 30
0.0
 10
172.934634
 20
48.927629
 30
0.0
 10
173.129752
 20
49.908130
 30
0.0
 10
173.685052
 20
50.741372
 30
0.0
 10
174.518181
 20
51.296644
 30
0.0
 10
175.499102
 20
51.491762
 30
0.0
 10
176.481325
 20
51.297583
 30
0.0
 10
177.313146
 20
50.740269
 30
0.0
 10
177.868920
 20
49.909083
 30
0.0
 10
178.043010
 20
49.035623
 30
0.0
 10
177.941809
 20
48.272603
 30
0.0
 10
177.689312
 20
47.662820
 30
0.0
 10
177.287585
 20
47.138265
 30
0.0
 10
176.763690
 20
46.739169
 30
0.0
 10
176.153902
 20
46.476860
 30
0.0
 10
175.718171
 20
46.443666
 30
0.0
 10
175.499400
 20
46.427000
 30
0.0
 11
175.499400
 21
46.427000
 31
0.0
 11
174.537176
 21
46.619516
 31
0.0
 11
173.735790
 21
47.154985
 31
0.0
 11
173.189701
 21
47.970291
 31
0.0
 11
172.999335
 21
48.932943
 31
0.0
 11
173.187367
 21
49.878243
 31
0.0
 11
173.731633
 21
50.694767
 31
0.0
 11
174.548157
 21
51.239033
 31
0.0
 11
175.493457
 21
51.427065
 31
0.0
 11
176.456109
 21
51.236699
 31
0.0
 11
177.271415
 21
50.690610
 31
0.0
 11
177.806884
 21
49.889224
 31
0.0
 11
177.999400
 21
48.927000
 31
0.0
 11
177.913749
 21
48.278192
 31
0.0
 11
177.665379
 21
47.678574
 31
0.0
 11
177.267167
 21
47.159233
 31
0.0
 11
176.747826
 21
46.761021
 31
0.0
 11
176.148208
 21
46.512651
 31
0.0
 11
175.499400
 21
46.427000
 31
0.0
  0
LWPOLYLINE
  5
139
100
AcDbEntity
  8
Layer_1
 62
1
100
AcDbPolyline
 90
1
 70
1
 10
175.499400
 20
46.427000
 30
0.0
  0
LWPOLYLINE
  5
13a
100
AcDbEntity
  8
Layer_1
 62
1
100
AcDbPolyline
 90
1
 70
1
 10
202.499400
 20
61.427000
 30
0.0
  0
LWPOLYLINE
  5
13b
100
AcDbEntity
  8
Layer_1
 62
7
100
AcDbPolyline
 90
2
 70
0
 10
68.092360
 20
127.288790
 30
0.0
 10
68.092360
 20
132.288790
 30
0.0
  0
SPLINE
  5
13c
100
AcDbEntity
  8
Layer_1
 62
1
100
AcDbSpline
 70
0
 71
3
 72
25
 73
21
 74
19
 40
0.000000
 40
0.000000
 40
0.000000
 40
0.000000
 40
0.981294
 40
1.945113
 40
2.926406
 40
3.907700
 40
4.871519
 40
5.852813
 40
6.834107
 40
7.797926
 40
8.779219
 40
9.760513
 40
10.724332
 40
11.705626
 40
12.360063
 40
13.009085
 40
13.663522
 40
14.317959
 40
14.966981
 40
15.621418
 40
15.621418
 40
15.621418
 40
15.621418
 10
202.499400
 20
61.427000
 30
0.0
 10
202.170190
 20
61.464988
 30
0.0
 10
201.517633
 20
61.540287
 30
0.0
 10
200.686046
 20
62.117918
 30
0.0
 10
200.128840
 20
62.943815
 30
0.0
 10
199.934634
 20
63.927629
 30
0.0
 10
200.129752
 20
64.908130
 30
0.0
 10
200.685052
 20
65.741372
 30
0.0
 10
201.518181
 20
66.296644
 30
0.0
 10
202.499102
 20
66.491762
 30
0.0
 10
203.481325
 20
66.297583
 30
0.0
 10
204.313146
 20
65.740269
 30
0.0
 10
204.868920
 20
64.909083
 30
0.0
 10
205.043010
 20
64.035623
 30
0.0
 10
204.941809
 20
63.272603
 30
0.0
 10
204.689312
 20
62.662820
 30
0.0
 10
204.287585
 20
62.138265
 30
0.0
 10
203.763690
 20
61.739169
 30
0.0
 10
203.153902
 20
61.476860
 30
0.0
 10
202.718171
 20
61.443666
 30
0.0
 10
202.499400
 20
61.427000
 30
0.0
 11
202.499400
 21
61.427000
 31
0.0
 11
201.537176
 21
61.619516
 31
0.0
 11
200.735790
 21
62.154985
 31
0.0
 11
200.189701
 21
62.970291
 31
0.0
 11
199.999335
 21
63.932943
 31
0.0
 11
200.187367
 21
64.878243
 31
0.0
 11
200.731633
 21
65.694767
 31
0.0
 11
201.548157
 21
66.239033
 31
0.0
 11
202.493457
 21
66.427065
 31
0.0
 11
203.456109
 21
66.236699
 31
0.0
 11
204.271415
 21
65.690610
 31
0.0
 11
204.806884
 21
64.889224
 31
0.0
 11
204.999400
 21
63.927000
 31
0.0
 11
204.913749
 21
63.278192
 31
0.0
 11
204.665379
 21
62.678574
 31
0.0
 11
204.267167
 21
62.159233
 31
0.0
 11
203.747826
 21
61.761021
 31
0.0
 11
203.148208
 21
61.512651
 31
0.0
 11
202.499400
 21
61.427000
 31
0.0
  0
LWPOLYLINE
  5
13d
100
AcDbEntity
  8
Layer_1
 62
7
100
AcDbPolyline
 90
2
 70
0
 10
228.906360
 20
127.288790
 30
0.0
 10
228.906360
 20
132.288790
 30
0.0
  0
ENDSEC
  0
SECTION
  2
OBJECTS
  0
DICTIONARY
  5
C
330
0
100
AcDbDictionary
  3
ACAD_GROUP
350
D
  3
ACAD_MLINESTYLE
350
17
  0
DICTIONARY
  5
D
330
C
100
AcDbDictionary
  0
DICTIONARY
  5
1A
330
C
100
AcDbDictionary
  0
DICTIONARY
  5
17
330
C
100
AcDbDictionary
  3
STANDARD
350
18
  0
DICTIONARY
  5
19
330
C
100
AcDbDictionary
  0
ENDSEC
  0
EOF
