  0
SECTION
  2
HEADER
  9
$ACADVER
  1
AC1014
  9
$HANDSEED
  5
FFFF
  9
$MEASUREMENT
 70
     1
  0
ENDSEC
  0
SECTION
  2
TABLES
  0
TABLE
  2
VPORT
  5
8
330
0
100
AcDbSymbolTable
 70
     4
  0
VPORT
  5
2E
330
8
100
AcDbSymbolTableRecord
100
AcDbViewportTableRecord
  2
*ACTIVE
 70
     0
 10
0.0
 20
0.0
 11
1.0
 21
1.0
 12
210.0
 22
148.5
 13
0.0
 23
0.0
 14
10.0
 24
10.0
 15
10.0
 25
10.0
 16
0.0
 26
0.0
 36
1.0
 17
0.0
 27
0.0
 37
0.0
 40
341.0
 41
1.24
 42
50.0
 43
0.0
 44
0.0
 50
0.0
 51
0.0
 71
     0
 72
   100
 73
     1
 74
     3
 75
     0
 76
     0
 77
     0
 78
     0
  0
ENDTAB
  0
TABLE
  2
LTYPE
  5
5
330
0
100
AcDbSymbolTable
 70
     1
  0
LTYPE
  5
14
330
5
100
AcDbSymbolTableRecord
100
AcDbLinetypeTableRecord
  2
BYBLOCK
 70
     0
  3

 72
    65
 73
     0
 40
0.0
  0
LTYPE
  5
15
330
5
100
AcDbSymbolTableRecord
100
AcDbLinetypeTableRecord
  2
BYLAYER
 70
     0
  3

 72
    65
 73
     0
 40
0.0
  0
LTYPE
  5
16
330
5
100
AcDbSymbolTableRecord
100
AcDbLinetypeTableRecord
  2
CONTINUOUS
 70
     0
  3
Solid line
 72
    65
 73
     0
 40
0.0
  0
ENDTAB
  0
TABLE
  2
LAYER
  5
2
100
AcDbSymbolTable
 70
1
  0
LAYER
  5
50
100
AcDbSymbolTableRecord
100
AcDbLayerTableRecord
  2
0
 70
0
  6
CONTINUOUS
  0
ENDTAB
  0
TABLE
  2
STYLE
  5
3
330
0
100
AcDbSymbolTable
 70
     1
  0
STYLE
  5
11
330
3
100
AcDbSymbolTableRecord
100
AcDbTextStyleTableRecord
  2
STANDARD
 70
     0
 40
0.0
 41
1.0
 50
0.0
 71
     0
 42
2.5
  3
txt
  4

  0
ENDTAB
  0
TABLE
  2
VIEW
  5
6
330
0
100
AcDbSymbolTable
 70
     0
  0
ENDTAB
  0
TABLE
  2
UCS
  5
7
330
0
100
AcDbSymbolTable
 70
     0
  0
ENDTAB
  0
TABLE
  2
APPID
  5
9
330
0
100
AcDbSymbolTable
 70
     2
  0
APPID
  5
12
330
9
100
AcDbSymbolTableRecord
100
AcDbRegAppTableRecord
  2
ACAD
 70
     0
  0
ENDTAB
  0
TABLE
  2
DIMSTYLE
  5
A
330
0
100
AcDbSymbolTable
 70
     1
  0
DIMSTYLE
105
27
330
A
100
AcDbSymbolTableRecord
100
AcDbDimStyleTableRecord
  2
ISO-25
 70
     0
  3

  4

  5

  6

  7

 40
1.0
 41
2.5
 42
0.625
 43
3.75
 44
1.25
 45
0.0
 46
0.0
 47
0.0
 48
0.0
140
2.5
141
2.5
142
0.0
143
0.03937007874016
144
1.0
145
0.0
146
1.0
147
0.625
 71
     0
 72
     0
 73
     0
 74
     0
 75
     0
 76
     0
 77
     1
 78
     8
170
     0
171
     3
172
     1
173
     0
174
     0
175
     0
176
     0
177
     0
178
     0
270
     2
271
     2
272
     2
273
     2
274
     3
340
11
275
     0
280
     0
281
     0
282
     0
283
     0
284
     8
285
     0
286
     0
287
     3
288
     0
  0
ENDTAB
  0
TABLE
  2
BLOCK_RECORD
  5
1
330
0
100
AcDbSymbolTable
 70
     1
  0
BLOCK_RECORD
  5
1F
330
1
100
AcDbSymbolTableRecord
100
AcDbBlockTableRecord
  2
*MODEL_SPACE
  0
BLOCK_RECORD
  5
1B
330
1
100
AcDbSymbolTableRecord
100
AcDbBlockTableRecord
  2
*PAPER_SPACE
  0
ENDTAB
  0
ENDSEC
  0
SECTION
  2
BLOCKS
  0
BLOCK
  5
20
330
1F
100
AcDbEntity
  8
0
100
AcDbBlockBegin
  2
*MODEL_SPACE
 70
     0
 10
0.0
 20
0.0
 30
0.0
  3
*MODEL_SPACE
  1

  0
ENDBLK
  5
21
330
1F
100
AcDbEntity
  8
0
100
AcDbBlockEnd
  0
BLOCK
  5
1C
330
1B
100
AcDbEntity
 67
     1
  8
0
100
AcDbBlockBegin
  2
*PAPER_SPACE
  1

  0
ENDBLK
  5
1D
330
1B
100
AcDbEntity
 67
     1
  8
0
100
AcDbBlockEnd
  0
ENDSEC
  0
SECTION
  2
ENTITIES
  0
LWPOLYLINE
  5
100
100
AcDbEntity
  8
0
 62
5
100
AcDbPolyline
 90
2
 70
0
 10
-33.314006
 20
283.991583
 30
0.0
 10
148.500009
 20
283.991583
 30
0.0
  0
LWPOLYLINE
  5
101
100
AcDbEntity
  8
0
 62
5
100
AcDbPolyline
 90
2
 70
0
 10
-33.314006
 20
297.220753
 30
0.0
 10
-33.314006
 20
275.792102
 30
0.0
  0
LWPOLYLINE
  5
102
100
AcDbEntity
  8
0
 62
5
100
AcDbPolyline
 90
2
 70
0
 10
148.500009
 20
297.220753
 30
0.0
 10
148.500009
 20
275.792102
 30
0.0
  0
LWPOLYLINE
  5
103
100
AcDbEntity
  8
0
 62
5
100
AcDbPolyline
 90
11
 70
1
 10
38.876398
 20
290.815015
 30
0.0
 10
40.581720
 20
290.815015
 30
0.0
 10
40.581720
 20
296.700955
 30
0.0
 10
38.726536
 20
296.328885
 30
0.0
 10
38.726536
 20
297.279735
 30
0.0
 10
40.571385
 20
297.651805
 30
0.0
 10
41.615249
 20
297.651805
 30
0.0
 10
41.615249
 20
290.815015
 30
0.0
 10
43.320571
 20
290.815015
 30
0.0
 10
43.320571
 20
289.936515
 30
0.0
 10
38.876398
 20
289.936515
 30
0.0
  0
SPLINE
  5
104
100
AcDbEntity
  8
0
 62
5
100
AcDbSpline
 70
0
 71
3
 72
31
 73
27
 74
25
 40
0.000000
 40
0.000000
 40
0.000000
 40
0.000000
 40
0.463183
 40
0.876085
 40
1.265814
 40
1.646034
 40
2.037579
 40
2.471923
 40
2.906267
 40
3.297813
 40
3.678033
 40
4.067762
 40
4.480663
 40
4.943847
 40
5.407030
 40
5.819932
 40
6.209661
 40
6.593460
 40
6.985630
 40
7.417758
 40
7.852164
 40
8.244334
 40
8.626339
 40
9.014178
 40
9.427080
 40
9.892550
 40
9.892550
 40
9.892550
 40
9.892550
 10
47.666559
 20
293.600375
 30
0.0
 10
47.511750
 20
293.593132
 30
0.0
 10
47.218937
 20
293.579432
 30
0.0
 10
46.813230
 20
293.443423
 30
0.0
 10
46.482390
 20
293.219394
 30
0.0
 10
46.238621
 20
292.910339
 30
0.0
 10
46.095535
 20
292.528484
 30
0.0
 10
46.056201
 20
292.106921
 30
0.0
 10
46.095535
 20
291.685382
 30
0.0
 10
46.238622
 20
291.303461
 30
0.0
 10
46.482390
 20
290.994638
 30
0.0
 10
46.813231
 20
290.769712
 30
0.0
 10
47.218935
 20
290.637409
 30
0.0
 10
47.666564
 20
290.600816
 30
0.0
 10
48.114164
 20
290.637427
 30
0.0
 10
48.519944
 20
290.769650
 30
0.0
 10
48.851533
 20
290.995534
 30
0.0
 10
49.096732
 20
291.304869
 30
0.0
 10
49.242203
 20
291.686589
 30
0.0
 10
49.282316
 20
292.107709
 30
0.0
 10
49.242320
 20
292.528705
 30
0.0
 10
49.097476
 20
292.911114
 30
0.0
 10
48.850833
 20
293.217715
 30
0.0
 10
48.522059
 20
293.444237
 30
0.0
 10
48.115601
 20
293.579496
 30
0.0
 10
47.822095
 20
293.593143
 30
0.0
 10
47.666559
 20
293.600375
 30
0.0
 11
47.666559
 21
293.600375
 31
0.0
 11
47.205490
 21
293.556163
 31
0.0
 11
46.814472
 21
293.423526
 31
0.0
 11
46.493504
 21
293.202465
 31
0.0
 11
46.258089
 21
292.903889
 31
0.0
 11
46.116840
 21
292.538709
 31
0.0
 11
46.069757
 21
292.106925
 31
0.0
 11
46.116840
 21
291.675140
 31
0.0
 11
46.258089
 21
291.309960
 31
0.0
 11
46.493504
 21
291.011385
 31
0.0
 11
46.814472
 21
290.790324
 31
0.0
 11
47.205490
 21
290.657687
 31
0.0
 11
47.666559
 21
290.613475
 31
0.0
 11
48.127628
 21
290.657687
 31
0.0
 11
48.518646
 21
290.790324
 31
0.0
 11
48.839614
 21
291.011385
 31
0.0
 11
49.077900
 21
291.312254
 31
0.0
 11
49.220871
 21
291.677434
 31
0.0
 11
49.268528
 21
292.106925
 31
0.0
 11
49.220871
 21
292.538709
 31
0.0
 11
49.077900
 21
292.903889
 31
0.0
 11
48.839614
 21
293.202465
 31
0.0
 11
48.520943
 21
293.423526
 31
0.0
 11
48.129924
 21
293.556163
 31
0.0
 11
47.666559
 21
293.600375
 31
0.0
  0
SPLINE
  5
105
100
AcDbEntity
  8
0
 62
5
100
AcDbSpline
 70
0
 71
3
 72
10
 73
6
 74
4
 40
0.000000
 40
0.000000
 40
0.000000
 40
0.000000
 40
0.439065
 40
0.846149
 40
1.240857
 40
1.240857
 40
1.240857
 40
1.240857
 10
46.622695
 20
294.044785
 30
0.0
 10
46.482245
 20
294.086773
 30
0.0
 10
46.211573
 20
294.167691
 30
0.0
 10
45.848507
 20
294.378997
 30
0.0
 10
45.664330
 20
294.574053
 30
0.0
 10
45.573663
 20
294.670075
 30
0.0
 11
46.622695
 21
294.044785
 31
0.0
 11
46.207561
 21
294.187759
 31
0.0
 11
45.857884
 21
294.396189
 31
0.0
 11
45.573663
 21
294.670075
 31
0.0
  0
SPLINE
  5
106
100
AcDbEntity
  8
0
 62
5
100
AcDbSpline
 70
0
 71
3
 72
13
 73
9
 74
7
 40
0.000000
 40
0.000000
 40
0.000000
 40
0.000000
 40
0.388552
 40
0.782383
 40
1.203000
 40
1.781225
 40
2.315542
 40
2.857778
 40
2.857778
 40
2.857778
 40
2.857778
 10
45.573663
 20
294.670075
 30
0.0
 10
45.498880
 20
294.776616
 30
0.0
 10
45.348296
 20
294.991147
 30
0.0
 10
45.226766
 20
295.379503
 30
0.0
 10
45.184527
 20
295.843852
 30
0.0
 10
45.244375
 20
296.356370
 30
0.0
 10
45.465488
 20
296.876594
 30
0.0
 10
45.726445
 20
297.127513
 30
0.0
 10
45.857883
 20
297.253895
 30
0.0
 11
45.573663
 21
294.670075
 31
0.0
 11
45.366958
 21
294.999082
 31
0.0
 11
45.242934
 21
295.372875
 31
0.0
 11
45.201593
 21
295.791455
 31
0.0
 11
45.274514
 21
296.365064
 31
0.0
 11
45.493278
 21
296.852544
 31
0.0
 11
45.857883
 21
297.253895
 31
0.0
  0
SPLINE
  5
107
100
AcDbEntity
  8
0
 62
5
100
AcDbSpline
 70
0
 71
3
 72
19
 73
15
 74
13
 40
0.000000
 40
0.000000
 40
0.000000
 40
0.000000
 40
0.578031
 40
1.206976
 40
1.920318
 40
2.635949
 40
3.264894
 40
3.840959
 40
4.383196
 40
4.917512
 40
5.495738
 40
5.916411
 40
6.310789
 40
6.700876
 40
6.700876
 40
6.700876
 40
6.700876
 10
45.857883
 20
297.253895
 30
0.0
 10
46.018267
 20
297.362774
 30
0.0
 10
46.353161
 20
297.590123
 30
0.0
 10
46.981679
 20
297.757189
 30
0.0
 10
47.666860
 20
297.808945
 30
0.0
 10
48.354704
 20
297.759265
 30
0.0
 10
48.976573
 20
297.584046
 30
0.0
 10
49.483172
 20
297.282273
 30
0.0
 10
49.863501
 20
296.871342
 30
0.0
 10
50.089923
 20
296.357910
 30
0.0
 10
50.148482
 20
295.843542
 30
0.0
 10
50.106061
 20
295.379324
 30
0.0
 10
49.982498
 20
294.990628
 30
0.0
 10
49.830079
 20
294.776536
 30
0.0
 10
49.754287
 20
294.670075
 30
0.0
 11
45.857883
 21
297.253895
 31
0.0
 11
46.352829
 21
297.552473
 31
0.0
 11
46.955721
 21
297.731620
 31
0.0
 11
47.666559
 21
297.791335
 31
0.0
 11
48.379694
 21
297.731620
 31
0.0
 11
48.982586
 21
297.552473
 31
0.0
 11
49.475234
 21
297.253895
 31
0.0
 11
49.839840
 21
296.852544
 31
0.0
 11
50.058604
 21
296.365064
 31
0.0
 11
50.131525
 21
295.791455
 31
0.0
 11
50.089610
 21
295.372875
 31
0.0
 11
49.963864
 21
294.999082
 31
0.0
 11
49.754287
 21
294.670075
 31
0.0
  0
SPLINE
  5
108
100
AcDbEntity
  8
0
 62
5
100
AcDbSpline
 70
0
 71
3
 72
10
 73
6
 74
4
 40
0.000000
 40
0.000000
 40
0.000000
 40
0.000000
 40
0.392235
 40
0.796363
 40
1.232172
 40
1.232172
 40
1.232172
 40
1.232172
 10
49.754287
 20
294.670075
 30
0.0
 10
49.664802
 20
294.574069
 30
0.0
 10
49.483118
 20
294.379147
 30
0.0
 10
49.123433
 20
294.167684
 30
0.0
 10
48.854914
 20
294.086769
 30
0.0
 10
48.715591
 20
294.044785
 30
0.0
 11
49.754287
 21
294.670075
 31
0.0
 11
49.473512
 21
294.396189
 31
0.0
 11
49.127280
 21
294.187759
 31
0.0
 11
48.715591
 21
294.044785
 31
0.0
  0
SPLINE
  5
109
100
AcDbEntity
  8
0
 62
5
100
AcDbSpline
 70
0
 71
3
 72
10
 73
6
 74
4
 40
0.000000
 40
0.000000
 40
0.000000
 40
0.000000
 40
0.490609
 40
0.943799
 40
1.382376
 40
1.382376
 40
1.382376
 40
1.382376
 10
48.715591
 20
294.044785
 30
0.0
 10
48.873093
 20
293.999781
 30
0.0
 10
49.176083
 20
293.913206
 30
0.0
 10
49.582777
 20
293.681010
 30
0.0
 10
49.787809
 20
293.464149
 30
0.0
 10
49.888646
 20
293.357495
 30
0.0
 11
48.715591
 21
294.044785
 31
0.0
 11
49.181253
 21
293.890331
 31
0.0
 11
49.572271
 21
293.661234
 31
0.0
 11
49.888646
 21
293.357495
 31
0.0
  0
SPLINE
  5
10a
100
AcDbEntity
  8
0
 62
5
100
AcDbSpline
 70
0
 71
3
 72
13
 73
9
 74
7
 40
0.000000
 40
0.000000
 40
0.000000
 40
0.000000
 40
0.435451
 40
0.875588
 40
1.345337
 40
2.039147
 40
2.656816
 40
3.252817
 40
3.252817
 40
3.252817
 40
3.252817
 10
49.888646
 20
293.357495
 30
0.0
 10
49.973751
 20
293.239007
 30
0.0
 10
50.144876
 20
293.000757
 30
0.0
 10
50.284187
 20
292.567175
 30
0.0
 10
50.331156
 20
292.032173
 30
0.0
 10
50.268727
 20
291.437983
 30
0.0
 10
50.045800
 20
290.826346
 30
0.0
 10
49.763651
 20
290.531088
 30
0.0
 10
49.625096
 20
290.386095
 30
0.0
 11
49.888646
 21
293.357495
 31
0.0
 11
50.124061
 21
292.991165
 31
0.0
 11
50.265309
 21
292.574308
 31
0.0
 11
50.312392
 21
292.106925
 31
0.0
 11
50.236026
 21
291.417330
 31
0.0
 11
50.006927
 21
290.843720
 31
0.0
 11
49.625096
 21
290.386095
 31
0.0
  0
SPLINE
  5
10b
100
AcDbEntity
  8
0
 62
5
100
AcDbSpline
 70
0
 71
3
 72
13
 73
9
 74
7
 40
0.000000
 40
0.000000
 40
0.000000
 40
0.000000
 40
0.618158
 40
1.300897
 40
2.088626
 40
2.876926
 40
3.561313
 40
4.181892
 40
4.181892
 40
4.181892
 40
4.181892
 10
49.625096
 20
290.386095
 30
0.0
 10
49.456944
 20
290.264470
 30
0.0
 10
49.103074
 20
290.008515
 30
0.0
 10
48.418818
 20
289.824053
 30
0.0
 10
47.666376
 20
289.766607
 30
0.0
 10
46.913342
 20
289.824135
 30
0.0
 10
46.227665
 20
290.008769
 30
0.0
 10
45.871994
 20
290.264487
 30
0.0
 10
45.702854
 20
290.386095
 30
0.0
 11
49.625096
 21
290.386095
 31
0.0
 11
49.104312
 21
290.053073
 31
0.0
 11
48.451467
 21
289.853259
 31
0.0
 11
47.666559
 21
289.786655
 31
0.0
 11
46.881077
 21
289.853259
 31
0.0
 11
46.226509
 21
290.053073
 31
0.0
 11
45.702854
 21
290.386095
 31
0.0
  0
LWPOLYLINE
  5
10c
100
AcDbEntity
  8
0
 62
5
100
AcDbPolyline
 90
1
 70
1
 10
47.666559
 20
293.600375
 30
0.0
  0
SPLINE
  5
10d
100
AcDbEntity
  8
0
 62
5
100
AcDbSpline
 70
0
 71
3
 72
16
 73
12
 74
10
 40
0.000000
 40
0.000000
 40
0.000000
 40
0.000000
 40
0.594165
 40
1.211197
 40
1.904944
 40
2.374693
 40
2.814830
 40
3.250282
 40
3.690935
 40
4.145611
 40
4.636766
 40
4.636766
 40
4.636766
 40
4.636766
 10
45.702854
 20
290.386095
 30
0.0
 10
45.565315
 20
290.531173
 30
0.0
 10
45.284942
 20
290.826913
 30
0.0
 10
45.063955
 20
291.438383
 30
0.0
 10
45.002455
 20
292.031815
 30
0.0
 10
45.047889
 20
292.568047
 30
0.0
 10
45.191852
 20
292.997712
 30
0.0
 10
45.432077
 20
293.370231
 30
0.0
 10
45.757010
 20
293.677607
 30
0.0
 10
46.160321
 20
293.913884
 30
0.0
 10
46.464658
 20
294.000044
 30
0.0
 10
46.622695
 20
294.044785
 30
0.0
 11
45.702854
 21
290.386095
 31
0.0
 11
45.323894
 21
290.843720
 31
0.0
 11
45.096517
 21
291.417330
 31
0.0
 11
45.020725
 21
292.106925
 31
0.0
 11
45.067808
 21
292.574308
 31
0.0
 11
45.209057
 21
292.991165
 31
0.0
 11
45.444472
 21
293.357495
 31
0.0
 11
45.763718
 21
293.661234
 31
0.0
 11
46.156459
 21
293.890331
 31
0.0
 11
46.622695
 21
294.044785
 31
0.0
  0
LWPOLYLINE
  5
10e
100
AcDbEntity
  8
0
 62
5
100
AcDbPolyline
 90
1
 70
1
 10
46.622695
 20
294.044785
 30
0.0
  0
LWPOLYLINE
  5
10f
100
AcDbEntity
  8
0
 62
5
100
AcDbPolyline
 90
1
 70
1
 10
46.240289
 20
295.693265
 30
0.0
  0
SPLINE
  5
110
100
AcDbEntity
  8
0
 62
5
100
AcDbSpline
 70
0
 71
3
 72
31
 73
27
 74
25
 40
0.000000
 40
0.000000
 40
0.000000
 40
0.000000
 40
0.372645
 40
0.708187
 40
1.035059
 40
1.375546
 40
1.744353
 40
2.164021
 40
2.580829
 40
2.947995
 40
3.288002
 40
3.618535
 40
3.955366
 40
4.328140
 40
4.700920
 40
5.037754
 40
5.368287
 40
5.708292
 40
6.075456
 40
6.492265
 40
6.911932
 40
7.280738
 40
7.621223
 40
7.948095
 40
8.283641
 40
8.656291
 40
8.656291
 40
8.656291
 40
8.656291
 10
46.240289
 20
295.693265
 30
0.0
 10
46.247083
 20
295.568586
 30
0.0
 10
46.259993
 20
295.331642
 30
0.0
 10
46.389509
 20
295.004825
 30
0.0
 10
46.603865
 20
294.741580
 30
0.0
 10
46.899142
 20
294.552260
 30
0.0
 10
47.262874
 20
294.441856
 30
0.0
 10
47.665634
 20
294.411444
 30
0.0
 10
48.067671
 20
294.441974
 30
0.0
 10
48.430118
 20
294.552215
 30
0.0
 10
48.723889
 20
294.743457
 30
0.0
 10
48.944913
 20
295.003444
 30
0.0
 10
49.074688
 20
295.331117
 30
0.0
 10
49.110241
 20
295.693267
 30
0.0
 10
49.074688
 20
296.055418
 30
0.0
 10
48.944914
 20
296.383094
 30
0.0
 10
48.723891
 20
296.643084
 30
0.0
 10
48.430116
 20
296.834319
 30
0.0
 10
48.067671
 20
296.944557
 30
0.0
 10
47.665634
 20
296.975086
 30
0.0
 10
47.262874
 20
296.944675
 30
0.0
 10
46.899144
 20
296.834274
 30
0.0
 10
46.603863
 20
296.644961
 30
0.0
 10
46.389508
 20
296.381713
 30
0.0
 10
46.259993
 20
296.054893
 30
0.0
 10
46.247083
 20
295.817946
 30
0.0
 10
46.240289
 20
295.693265
 30
0.0
 11
46.240289
 21
295.693265
 31
0.0
 11
46.281631
 21
295.322921
 31
0.0
 11
46.405654
 21
295.011141
 31
0.0
 11
46.612359
 21
294.757925
 31
0.0
 11
46.897154
 21
294.571314
 31
0.0
 11
47.248554
 21
294.459347
 31
0.0
 11
47.666559
 21
294.422025
 31
0.0
 11
48.081693
 21
294.459347
 31
0.0
 11
48.431370
 21
294.571314
 31
0.0
 11
48.715591
 21
294.757925
 31
0.0
 11
48.928038
 21
295.011141
 31
0.0
 11
49.055507
 21
295.322921
 31
0.0
 11
49.097996
 21
295.693265
 31
0.0
 11
49.055507
 21
296.063615
 31
0.0
 11
48.928038
 21
296.375398
 31
0.0
 11
48.715591
 21
296.628615
 31
0.0
 11
48.431370
 21
296.815221
 31
0.0
 11
48.081693
 21
296.927184
 31
0.0
 11
47.666559
 21
296.964505
 31
0.0
 11
47.248554
 21
296.927184
 31
0.0
 11
46.897154
 21
296.815221
 31
0.0
 11
46.612359
 21
296.628615
 31
0.0
 11
46.405654
 21
296.375398
 31
0.0
 11
46.281631
 21
296.063615
 31
0.0
 11
46.240289
 21
295.693265
 31
0.0
  0
LWPOLYLINE
  5
111
100
AcDbEntity
  8
0
 62
5
100
AcDbPolyline
 90
5
 70
0
 10
53.071914
 20
290.815015
 30
0.0
 10
56.715102
 20
290.815015
 30
0.0
 10
56.715102
 20
289.936515
 30
0.0
 10
51.816176
 20
289.936515
 30
0.0
 10
51.816176
 20
290.815015
 30
0.0
  0
SPLINE
  5
112
100
AcDbEntity
  8
0
 62
5
100
AcDbSpline
 70
0
 71
3
 72
31
 73
27
 74
25
 40
0.000000
 40
0.000000
 40
0.000000
 40
0.000000
 40
0.636684
 40
1.406511
 40
2.309492
 40
3.165789
 40
3.785859
 40
4.169829
 40
4.635567
 40
5.028675
 40
5.351764
 40
5.634943
 40
5.900249
 40
6.154453
 40
6.542167
 40
6.906321
 40
7.278626
 40
7.660373
 40
8.055863
 40
8.490362
 40
8.824500
 40
9.175368
 40
9.546528
 40
9.940104
 40
10.364232
 40
10.820859
 40
10.820859
 40
10.820859
 40
10.820859
 10
51.816176
 20
290.815015
 30
0.0
 10
51.963987
 20
290.967308
 30
0.0
 10
52.290517
 20
291.303741
 30
0.0
 10
52.829989
 20
291.852936
 30
0.0
 10
53.422842
 20
292.452295
 30
0.0
 10
53.979889
 20
293.016863
 30
0.0
 10
54.411868
 20
293.461774
 30
0.0
 10
54.746208
 20
293.819978
 30
0.0
 10
55.014250
 20
294.136155
 30
0.0
 10
55.250175
 20
294.452142
 30
0.0
 10
55.423026
 20
294.737802
 30
0.0
 10
55.539668
 20
295.004879
 30
0.0
 10
55.609193
 20
295.264593
 30
0.0
 10
55.635421
 20
295.567065
 30
0.0
 10
55.596229
 20
295.904321
 30
0.0
 10
55.446656
 20
296.254282
 30
0.0
 10
55.198910
 20
296.539451
 30
0.0
 10
54.879468
 20
296.758898
 30
0.0
 10
54.491911
 20
296.888775
 30
0.0
 10
54.102537
 20
296.921983
 30
0.0
 10
53.729458
 20
296.899174
 30
0.0
 10
53.381605
 20
296.841183
 30
0.0
 10
53.021688
 20
296.745530
 30
0.0
 10
52.649046
 20
296.609564
 30
0.0
 10
52.260398
 20
296.437104
 30
0.0
 10
52.001881
 20
296.297772
 30
0.0
 10
51.867853
 20
296.225535
 30
0.0
 11
51.816176
 21
290.815015
 31
0.0
 11
52.260020
 21
291.271490
 31
0.0
 11
52.799177
 21
291.820984
 31
0.0
 11
53.433649
 21
292.463495
 31
0.0
 11
54.034244
 21
293.073847
 31
0.0
 11
54.464881
 21
293.519984
 31
0.0
 11
54.725560
 21
293.801905
 31
0.0
 11
55.025857
 21
294.157902
 31
0.0
 11
55.258401
 21
294.474852
 31
0.0
 11
55.423192
 21
294.752755
 31
0.0
 11
55.535157
 21
295.012859
 31
0.0
 11
55.602337
 21
295.269520
 31
0.0
 11
55.624730
 21
295.522735
 31
0.0
 11
55.576498
 21
295.907437
 31
0.0
 11
55.431804
 21
296.241611
 31
0.0
 11
55.190648
 21
296.525255
 31
0.0
 11
54.875421
 21
296.740577
 31
0.0
 11
54.501628
 21
296.869771
 31
0.0
 11
54.069269
 21
296.912835
 31
0.0
 11
53.735669
 21
296.893886
 31
0.0
 11
53.389437
 21
296.837040
 31
0.0
 11
53.030573
 21
296.742295
 31
0.0
 11
52.660225
 21
296.609086
 31
0.0
 11
52.272652
 21
296.436833
 31
0.0
 11
51.867853
 21
296.225535
 31
0.0
  0
SPLINE
  5
113
100
AcDbEntity
  8
0
 62
5
100
AcDbSpline
 70
0
 71
3
 72
25
 73
21
 74
19
 40
0.000000
 40
0.000000
 40
0.000000
 40
0.000000
 40
0.439373
 40
0.852281
 40
1.239750
 40
1.601782
 40
1.938719
 40
2.252552
 40
3.000811
 40
3.668742
 40
4.294177
 40
4.889552
 40
5.474062
 40
6.102637
 40
6.415064
 40
6.722481
 40
7.030448
 40
7.365550
 40
7.763084
 40
8.226460
 40
8.226460
 40
8.226460
 40
8.226460
 10
51.867853
 20
297.279735
 30
0.0
 10
52.004398
 20
297.332767
 30
0.0
 10
52.269265
 20
297.435637
 30
0.0
 10
52.662637
 20
297.563002
 30
0.0
 10
53.036923
 20
297.663941
 30
0.0
 10
53.391964
 20
297.736510
 30
0.0
 10
53.727025
 20
297.781080
 30
0.0
 10
54.193274
 20
297.801609
 30
0.0
 10
54.771776
 20
297.754252
 30
0.0
 10
55.429948
 20
297.557264
 30
0.0
 10
55.970839
 20
297.220338
 30
0.0
 10
56.381798
 20
296.768193
 30
0.0
 10
56.628182
 20
296.206874
 30
0.0
 10
56.686225
 20
295.695055
 30
0.0
 10
56.660901
 20
295.278967
 30
0.0
 10
56.600044
 20
294.974673
 30
0.0
 10
56.496203
 20
294.674301
 30
0.0
 10
56.338249
 20
294.364495
 30
0.0
 10
56.120080
 20
294.030025
 30
0.0
 10
55.942512
 20
293.804462
 30
0.0
 10
55.846938
 20
293.683055
 30
0.0
 11
51.867853
 21
297.279735
 31
0.0
 11
52.278968
 21
297.434762
 31
0.0
 11
52.671709
 21
297.562229
 31
0.0
 11
53.046076
 21
297.662135
 31
0.0
 11
53.400920
 21
297.733913
 31
0.0
 11
53.735095
 21
297.776980
 31
0.0
 11
54.048598
 21
297.791335
 31
0.0
 11
54.793887
 21
297.724730
 31
0.0
 11
55.431230
 21
297.524913
 31
0.0
 11
55.960626
 21
297.191885
 31
0.0
 11
56.356812
 21
296.747466
 31
0.0
 11
56.594524
 21
296.213476
 31
0.0
 11
56.673761
 21
295.589915
 31
0.0
 11
56.653665
 21
295.278135
 31
0.0
 11
56.593376
 21
294.976688
 31
0.0
 11
56.492894
 21
294.685575
 31
0.0
 11
56.343032
 21
294.385851
 31
0.0
 11
56.127714
 21
294.051677
 31
0.0
 11
55.846938
 21
293.683055
 31
0.0
  0
SPLINE
  5
114
100
AcDbEntity
  8
0
 62
5
100
AcDbSpline
 70
0
 71
3
 72
10
 73
6
 74
4
 40
0.000000
 40
0.000000
 40
0.000000
 40
0.000000
 40
0.220696
 40
0.619143
 40
1.195392
 40
1.195392
 40
1.195392
 40
1.195392
 10
55.846938
 20
293.683055
 30
0.0
 10
55.797543
 20
293.628536
 30
0.0
 10
55.658967
 20
293.475590
 30
0.0
 10
55.383422
 20
293.187704
 30
0.0
 10
55.158349
 20
292.953405
 30
0.0
 10
55.025283
 20
292.814885
 30
0.0
 11
55.846938
 21
293.683055
 31
0.0
 11
55.698225
 21
293.519987
 31
0.0
 11
55.424340
 21
293.230597
 31
0.0
 11
55.025283
 21
292.814885
 31
0.0
  0
LWPOLYLINE
  5
115
100
AcDbEntity
  8
0
 62
5
100
AcDbPolyline
 90
2
 70
0
 10
51.867853
 20
296.225535
 30
0.0
 10
51.867853
 20
297.279735
 30
0.0
  0
SPLINE
  5
116
100
AcDbEntity
  8
0
 62
5
100
AcDbSpline
 70
0
 71
3
 72
10
 73
6
 74
4
 40
0.000000
 40
0.000000
 40
0.000000
 40
0.000000
 40
0.752400
 40
1.684252
 40
2.795558
 40
2.795558
 40
2.795558
 40
2.795558
 10
55.025283
 20
292.814885
 30
0.0
 10
54.850411
 20
292.635106
 30
0.0
 10
54.458960
 20
292.232669
 30
0.0
 10
53.807660
 20
291.566216
 30
0.0
 10
53.331115
 20
291.079660
 30
0.0
 10
53.071914
 20
290.815015
 30
0.0
 11
55.025283
 21
292.814885
 31
0.0
 11
54.500480
 21
292.275730
 31
0.0
 11
53.849357
 21
291.609107
 31
0.0
 11
53.071914
 21
290.815015
 31
0.0
  0
SPLINE
  5
117
100
AcDbEntity
  8
0
 62
5
100
AcDbSpline
 70
0
 71
3
 72
16
 73
12
 74
10
 40
0.000000
 40
0.000000
 40
0.000000
 40
0.000000
 40
0.464884
 40
0.889324
 40
1.285868
 40
1.674927
 40
2.077270
 40
2.506948
 40
3.068364
 40
3.579439
 40
4.093236
 40
4.093236
 40
4.093236
 40
4.093236
 10
66.652481
 20
294.613225
 30
0.0
 10
66.732680
 20
294.746142
 30
0.0
 10
66.886101
 20
295.000412
 30
0.0
 10
67.174694
 20
295.321075
 30
0.0
 10
67.495685
 20
295.569292
 30
0.0
 10
67.855156
 20
295.742217
 30
0.0
 10
68.251833
 20
295.843387
 30
0.0
 10
68.716936
 20
295.878597
 30
0.0
 10
69.218860
 20
295.824038
 30
0.0
 10
69.718154
 20
295.609681
 30
0.0
 10
69.951373
 20
295.355569
 30
0.0
 10
70.068293
 20
295.228175
 30
0.0
 11
66.652481
 21
294.613225
 31
0.0
 11
66.905695
 21
295.003096
 31
0.0
 11
67.189916
 21
295.318323
 31
0.0
 11
67.505142
 21
295.558905
 31
0.0
 11
67.855393
 21
295.728288
 31
0.0
 11
68.244689
 21
295.829918
 31
0.0
 11
68.673029
 21
295.863795
 31
0.0
 11
69.229986
 21
295.793171
 31
0.0
 11
69.695074
 21
295.581297
 31
0.0
 11
70.068293
 21
295.228175
 31
0.0
  0
LWPOLYLINE
  5
118
100
AcDbEntity
  8
0
 62
5
100
AcDbPolyline
 90
1
 70
1
 10
53.071914
 20
290.815015
 30
0.0
  0
SPLINE
  5
119
100
AcDbEntity
  8
0
 62
5
100
AcDbSpline
 70
0
 71
3
 72
10
 73
6
 74
4
 40
0.000000
 40
0.000000
 40
0.000000
 40
0.000000
 40
0.552087
 40
1.173469
 40
1.894413
 40
1.894413
 40
1.894413
 40
1.894413
 10
70.068293
 20
295.228175
 30
0.0
 10
70.167839
 20
295.072216
 30
0.0
 10
70.379425
 20
294.740723
 30
0.0
 10
70.532096
 20
294.117040
 30
0.0
 10
70.549742
 20
293.669957
 30
0.0
 10
70.559220
 20
293.429835
 30
0.0
 11
70.068293
 21
295.228175
 31
0.0
 11
70.341030
 21
294.748159
 31
0.0
 11
70.504672
 21
294.148713
 31
0.0
 11
70.559220
 21
293.429835
 31
0.0
  0
LWPOLYLINE
  5
11a
100
AcDbEntity
  8
0
 62
5
100
AcDbPolyline
 90
4
 70
0
 10
70.559220
 20
293.429835
 30
0.0
 10
70.559220
 20
289.936515
 30
0.0
 10
69.603206
 20
289.936515
 30
0.0
 10
69.603206
 20
293.398835
 30
0.0
  0
SPLINE
  5
11b
100
AcDbEntity
  8
0
 62
5
100
AcDbSpline
 70
0
 71
3
 72
19
 73
15
 74
13
 40
0.000000
 40
0.000000
 40
0.000000
 40
0.000000
 40
0.508059
 40
0.931295
 40
1.287487
 40
1.609081
 40
1.937540
 40
2.308876
 40
2.770309
 40
3.192600
 40
3.613356
 40
4.050848
 40
4.519336
 40
5.046869
 40
5.046869
 40
5.046869
 40
5.046869
 10
69.603206
 20
293.398835
 30
0.0
 10
69.598173
 20
293.568402
 30
0.0
 10
69.588948
 20
293.879227
 30
0.0
 10
69.494298
 20
294.301043
 30
0.0
 10
69.331543
 20
294.635514
 30
0.0
 10
69.087226
 20
294.876045
 30
0.0
 10
68.768195
 20
295.013814
 30
0.0
 10
68.379253
 20
295.051126
 30
0.0
 10
67.959258
 20
295.006135
 30
0.0
 10
67.550458
 20
294.838618
 30
0.0
 10
67.221857
 20
294.555327
 30
0.0
 10
66.980711
 20
294.178365
 30
0.0
 10
66.835247
 20
293.716635
 30
0.0
 10
66.820492
 20
293.383877
 30
0.0
 10
66.812678
 20
293.207635
 30
0.0
 11
69.603206
 21
293.398835
 31
0.0
 11
69.570477
 21
293.905838
 31
0.0
 11
69.472292
 21
294.317528
 31
0.0
 11
69.308649
 21
294.633905
 31
0.0
 11
69.077828
 21
294.857833
 31
0.0
 11
68.778105
 21
294.992189
 31
0.0
 11
68.409479
 21
295.036975
 31
0.0
 11
67.951282
 21
294.982428
 31
0.0
 11
67.561986
 21
294.818788
 31
0.0
 11
67.241592
 21
294.546055
 31
0.0
 11
67.003306
 21
294.179151
 31
0.0
 11
66.860335
 21
293.733011
 31
0.0
 11
66.812678
 21
293.207635
 31
0.0
  0
LWPOLYLINE
  5
11c
100
AcDbEntity
  8
0
 62
5
100
AcDbPolyline
 90
4
 70
0
 10
66.812678
 20
293.207635
 30
0.0
 10
66.812678
 20
289.936515
 30
0.0
 10
65.856664
 20
289.936515
 30
0.0
 10
65.856664
 20
293.398835
 30
0.0
  0
SPLINE
  5
11d
100
AcDbEntity
  8
0
 62
5
100
AcDbSpline
 70
0
 71
3
 72
19
 73
15
 74
13
 40
0.000000
 40
0.000000
 40
0.000000
 40
0.000000
 40
0.510352
 40
0.933588
 40
1.287741
 40
1.610159
 40
1.941766
 40
2.318802
 40
2.774603
 40
3.194396
 40
3.616149
 40
4.053159
 40
4.520007
 40
5.044680
 40
5.044680
 40
5.044680
 40
5.044680
 10
65.856664
 20
293.398835
 30
0.0
 10
65.851634
 20
293.569149
 30
0.0
 10
65.842432
 20
293.880704
 30
0.0
 10
65.748327
 20
294.302876
 30
0.0
 10
65.584294
 20
294.636238
 30
0.0
 10
65.339011
 20
294.876826
 30
0.0
 10
65.016101
 20
295.013890
 30
0.0
 10
64.626213
 20
295.051162
 30
0.0
 10
64.206927
 20
295.005645
 30
0.0
 10
63.801505
 20
294.835575
 30
0.0
 10
63.476312
 20
294.549877
 30
0.0
 10
63.234241
 20
294.174299
 30
0.0
 10
63.088819
 20
293.714136
 30
0.0
 10
63.073986
 20
293.382907
 30
0.0
 10
63.066136
 20
293.207635
 30
0.0
 11
65.856664
 21
293.398835
 31
0.0
 11
65.823935
 21
293.908136
 31
0.0
 11
65.725750
 21
294.319826
 31
0.0
 11
65.562108
 21
294.633905
 31
0.0
 11
65.330138
 21
294.857833
 31
0.0
 11
65.026970
 21
294.992189
 31
0.0
 11
64.652603
 21
295.036975
 31
0.0
 11
64.200147
 21
294.981854
 31
0.0
 11
63.814296
 21
294.816491
 31
0.0
 11
63.495051
 21
294.540885
 31
0.0
 11
63.256765
 21
294.174555
 31
0.0
 11
63.113793
 21
293.730138
 31
0.0
 11
63.066136
 21
293.207635
 31
0.0
  0
LWPOLYLINE
  5
11e
100
AcDbEntity
  8
0
 62
5
100
AcDbPolyline
 90
6
 70
0
 10
63.066136
 20
293.207635
 30
0.0
 10
63.066136
 20
289.936515
 30
0.0
 10
62.110122
 20
289.936515
 30
0.0
 10
62.110122
 20
295.724275
 30
0.0
 10
63.066136
 20
295.724275
 30
0.0
 10
63.066136
 20
294.825105
 30
0.0
  0
SPLINE
  5
11f
100
AcDbEntity
  8
0
 62
5
100
AcDbSpline
 70
0
 71
3
 72
19
 73
15
 74
13
 40
0.000000
 40
0.000000
 40
0.000000
 40
0.000000
 40
0.398015
 40
0.767079
 40
1.118275
 40
1.469768
 40
1.839543
 40
2.238444
 40
2.639086
 40
3.011304
 40
3.372312
 40
3.737730
 40
4.117196
 40
4.527162
 40
4.527162
 40
4.527162
 40
4.527162
 10
63.066136
 20
294.825105
 30
0.0
 10
63.139691
 20
294.935830
 30
0.0
 10
63.281450
 20
295.149226
 30
0.0
 10
63.546221
 20
295.415188
 30
0.0
 10
63.840698
 20
295.620974
 30
0.0
 10
64.171016
 20
295.763767
 30
0.0
 10
64.536830
 20
295.847021
 30
0.0
 10
64.926988
 20
295.873480
 30
0.0
 10
65.318435
 20
295.843205
 30
0.0
 10
65.684200
 20
295.735980
 30
0.0
 10
66.005441
 20
295.553473
 30
0.0
 10
66.279724
 20
295.303185
 30
0.0
 10
66.504240
 20
294.985718
 30
0.0
 10
66.601811
 20
294.740547
 30
0.0
 10
66.652481
 20
294.613225
 30
0.0
 11
63.066136
 21
294.825105
 31
0.0
 11
63.297532
 21
295.148945
 31
0.0
 11
63.557637
 21
295.410772
 31
0.0
 11
63.846450
 21
295.610585
 31
0.0
 11
64.168567
 21
295.751257
 31
0.0
 11
64.528579
 21
295.835661
 31
0.0
 11
64.926488
 21
295.863795
 31
0.0
 11
65.325545
 21
295.828196
 31
0.0
 11
65.682112
 21
295.721400
 31
0.0
 11
65.996190
 21
295.543405
 31
0.0
 11
66.266630
 21
295.297656
 31
0.0
 11
66.485394
 21
294.987596
 31
0.0
 11
66.652481
 21
294.613225
 31
0.0
  0
SPLINE
  5
120
100
AcDbEntity
  8
0
 62
5
100
AcDbSpline
 70
0
 71
3
 72
16
 73
12
 74
10
 40
0.000000
 40
0.000000
 40
0.000000
 40
0.000000
 40
0.464884
 40
0.889324
 40
1.285868
 40
1.674927
 40
2.077270
 40
2.506947
 40
3.068364
 40
3.579439
 40
4.093236
 40
4.093236
 40
4.093236
 40
4.093236
 10
76.967097
 20
294.613225
 30
0.0
 10
77.047296
 20
294.746142
 30
0.0
 10
77.200717
 20
295.000412
 30
0.0
 10
77.489310
 20
295.321075
 30
0.0
 10
77.810301
 20
295.569292
 30
0.0
 10
78.169772
 20
295.742217
 30
0.0
 10
78.566449
 20
295.843387
 30
0.0
 10
79.031552
 20
295.878597
 30
0.0
 10
79.533476
 20
295.824038
 30
0.0
 10
80.032770
 20
295.609681
 30
0.0
 10
80.265990
 20
295.355569
 30
0.0
 10
80.382909
 20
295.228175
 30
0.0
 11
76.967097
 21
294.613225
 31
0.0
 11
77.220311
 21
295.003096
 31
0.0
 11
77.504532
 21
295.318323
 31
0.0
 11
77.819758
 21
295.558905
 31
0.0
 11
78.170009
 21
295.728288
 31
0.0
 11
78.559305
 21
295.829918
 31
0.0
 11
78.987645
 21
295.863795
 31
0.0
 11
79.544602
 21
295.793171
 31
0.0
 11
80.009690
 21
295.581297
 31
0.0
 11
80.382909
 21
295.228175
 31
0.0
  0
LWPOLYLINE
  5
121
100
AcDbEntity
  8
0
 62
5
100
AcDbPolyline
 90
1
 70
1
 10
66.652481
 20
294.613225
 30
0.0
  0
SPLINE
  5
122
100
AcDbEntity
  8
0
 62
5
100
AcDbSpline
 70
0
 71
3
 72
10
 73
6
 74
4
 40
0.000000
 40
0.000000
 40
0.000000
 40
0.000000
 40
0.552087
 40
1.173469
 40
1.894413
 40
1.894413
 40
1.894413
 40
1.894413
 10
80.382909
 20
295.228175
 30
0.0
 10
80.482455
 20
295.072216
 30
0.0
 10
80.694041
 20
294.740723
 30
0.0
 10
80.846711
 20
294.117040
 30
0.0
 10
80.864358
 20
293.669957
 30
0.0
 10
80.873835
 20
293.429835
 30
0.0
 11
80.382909
 21
295.228175
 31
0.0
 11
80.655646
 21
294.748159
 31
0.0
 11
80.819288
 21
294.148713
 31
0.0
 11
80.873835
 21
293.429835
 31
0.0
  0
LWPOLYLINE
  5
123
100
AcDbEntity
  8
0
 62
5
100
AcDbPolyline
 90
4
 70
0
 10
80.873835
 20
293.429835
 30
0.0
 10
80.873835
 20
289.936515
 30
0.0
 10
79.917821
 20
289.936515
 30
0.0
 10
79.917821
 20
293.398835
 30
0.0
  0
SPLINE
  5
124
100
AcDbEntity
  8
0
 62
5
100
AcDbSpline
 70
0
 71
3
 72
19
 73
15
 74
13
 40
0.000000
 40
0.000000
 40
0.000000
 40
0.000000
 40
0.508059
 40
0.931295
 40
1.287487
 40
1.609080
 40
1.937540
 40
2.308876
 40
2.770309
 40
3.192600
 40
3.613356
 40
4.050847
 40
4.519336
 40
5.046869
 40
5.046869
 40
5.046869
 40
5.046869
 10
79.917821
 20
293.398835
 30
0.0
 10
79.912788
 20
293.568402
 30
0.0
 10
79.903563
 20
293.879227
 30
0.0
 10
79.808913
 20
294.301043
 30
0.0
 10
79.646158
 20
294.635513
 30
0.0
 10
79.401842
 20
294.876045
 30
0.0
 10
79.082811
 20
295.013814
 30
0.0
 10
78.693868
 20
295.051126
 30
0.0
 10
78.273874
 20
295.006135
 30
0.0
 10
77.865074
 20
294.838618
 30
0.0
 10
77.536473
 20
294.555327
 30
0.0
 10
77.295327
 20
294.178365
 30
0.0
 10
77.149863
 20
293.716635
 30
0.0
 10
77.135109
 20
293.383877
 30
0.0
 10
77.127294
 20
293.207635
 30
0.0
 11
79.917821
 21
293.398835
 31
0.0
 11
79.885093
 21
293.905838
 31
0.0
 11
79.786907
 21
294.317528
 31
0.0
 11
79.623265
 21
294.633905
 31
0.0
 11
79.392444
 21
294.857833
 31
0.0
 11
79.092721
 21
294.992189
 31
0.0
 11
78.724095
 21
295.036975
 31
0.0
 11
78.265897
 21
294.982428
 31
0.0
 11
77.876602
 21
294.818788
 31
0.0
 11
77.556208
 21
294.546055
 31
0.0
 11
77.317922
 21
294.179151
 31
0.0
 11
77.174951
 21
293.733011
 31
0.0
 11
77.127294
 21
293.207635
 31
0.0
  0
LWPOLYLINE
  5
125
100
AcDbEntity
  8
0
 62
5
100
AcDbPolyline
 90
4
 70
0
 10
77.127294
 20
293.207635
 30
0.0
 10
77.127294
 20
289.936515
 30
0.0
 10
76.171280
 20
289.936515
 30
0.0
 10
76.171280
 20
293.398835
 30
0.0
  0
SPLINE
  5
126
100
AcDbEntity
  8
0
 62
5
100
AcDbSpline
 70
0
 71
3
 72
19
 73
15
 74
13
 40
0.000000
 40
0.000000
 40
0.000000
 40
0.000000
 40
0.510352
 40
0.933588
 40
1.287741
 40
1.610160
 40
1.941766
 40
2.318802
 40
2.774603
 40
3.194396
 40
3.616149
 40
4.053160
 40
4.520008
 40
5.044680
 40
5.044680
 40
5.044680
 40
5.044680
 10
76.171280
 20
293.398835
 30
0.0
 10
76.166250
 20
293.569149
 30
0.0
 10
76.157048
 20
293.880704
 30
0.0
 10
76.062942
 20
294.302876
 30
0.0
 10
75.898910
 20
294.636238
 30
0.0
 10
75.653627
 20
294.876826
 30
0.0
 10
75.330716
 20
295.013890
 30
0.0
 10
74.940828
 20
295.051162
 30
0.0
 10
74.521543
 20
295.005645
 30
0.0
 10
74.116121
 20
294.835575
 30
0.0
 10
73.790928
 20
294.549877
 30
0.0
 10
73.548857
 20
294.174299
 30
0.0
 10
73.403435
 20
293.714136
 30
0.0
 10
73.388601
 20
293.382907
 30
0.0
 10
73.380752
 20
293.207635
 30
0.0
 11
76.171280
 21
293.398835
 31
0.0
 11
76.138551
 21
293.908136
 31
0.0
 11
76.040366
 21
294.319826
 31
0.0
 11
75.876724
 21
294.633905
 31
0.0
 11
75.644754
 21
294.857833
 31
0.0
 11
75.341586
 21
294.992189
 31
0.0
 11
74.967219
 21
295.036975
 31
0.0
 11
74.514763
 21
294.981854
 31
0.0
 11
74.128912
 21
294.816491
 31
0.0
 11
73.809667
 21
294.540885
 31
0.0
 11
73.571381
 21
294.174555
 31
0.0
 11
73.428409
 21
293.730138
 31
0.0
 11
73.380752
 21
293.207635
 31
0.0
  0
LWPOLYLINE
  5
127
100
AcDbEntity
  8
0
 62
5
100
AcDbPolyline
 90
6
 70
0
 10
73.380752
 20
293.207635
 30
0.0
 10
73.380752
 20
289.936515
 30
0.0
 10
72.424738
 20
289.936515
 30
0.0
 10
72.424738
 20
295.724275
 30
0.0
 10
73.380752
 20
295.724275
 30
0.0
 10
73.380752
 20
294.825105
 30
0.0
  0
LWPOLYLINE
  5
128
100
AcDbEntity
  8
0
 62
5
100
AcDbPolyline
 90
1
 70
1
 10
76.967097
 20
294.613225
 30
0.0
  0
SPLINE
  5
129
100
AcDbEntity
  8
0
 62
5
100
AcDbSpline
 70
0
 71
3
 72
19
 73
15
 74
13
 40
0.000000
 40
0.000000
 40
0.000000
 40
0.000000
 40
0.398016
 40
0.767079
 40
1.118275
 40
1.469768
 40
1.839543
 40
2.238445
 40
2.639086
 40
3.011304
 40
3.372312
 40
3.737730
 40
4.117196
 40
4.527162
 40
4.527162
 40
4.527162
 40
4.527162
 10
73.380752
 20
294.825105
 30
0.0
 10
73.454306
 20
294.935830
 30
0.0
 10
73.596065
 20
295.149226
 30
0.0
 10
73.860837
 20
295.415188
 30
0.0
 10
74.155314
 20
295.620974
 30
0.0
 10
74.485632
 20
295.763767
 30
0.0
 10
74.851446
 20
295.847021
 30
0.0
 10
75.241604
 20
295.873480
 30
0.0
 10
75.633050
 20
295.843205
 30
0.0
 10
75.998815
 20
295.735980
 30
0.0
 10
76.320057
 20
295.553474
 30
0.0
 10
76.594340
 20
295.303184
 30
0.0
 10
76.818856
 20
294.985718
 30
0.0
 10
76.916427
 20
294.740547
 30
0.0
 10
76.967097
 20
294.613225
 30
0.0
 11
73.380752
 21
294.825105
 31
0.0
 11
73.612147
 21
295.148945
 31
0.0
 11
73.872252
 21
295.410772
 31
0.0
 11
74.161066
 21
295.610585
 31
0.0
 11
74.483182
 21
295.751257
 31
0.0
 11
74.843195
 21
295.835661
 31
0.0
 11
75.241104
 21
295.863795
 31
0.0
 11
75.640160
 21
295.828196
 31
0.0
 11
75.996728
 21
295.721400
 31
0.0
 11
76.310806
 21
295.543405
 31
0.0
 11
76.581246
 21
295.297656
 31
0.0
 11
76.800009
 21
294.987596
 31
0.0
 11
76.967097
 21
294.613225
 31
0.0
  0
SPLINE
  5
12a
100
AcDbEntity
  8
0
 62
1
100
AcDbSpline
 70
0
 71
3
 72
13
 73
9
 74
7
 40
0.000000
 40
0.000000
 40
0.000000
 40
0.000000
 40
4.158560
 40
8.193779
 40
12.352339
 40
16.510900
 40
20.546118
 40
24.704679
 40
24.704679
 40
24.704679
 40
24.704679
 10
129.593025
 20
262.057071
 30
0.0
 10
129.811762
 20
263.459146
 30
0.0
 10
130.242748
 20
266.221711
 30
0.0
 10
133.406753
 20
269.263118
 30
0.0
 10
137.546373
 20
270.390105
 30
0.0
 10
141.686035
 20
269.263269
 30
0.0
 10
144.850151
 20
266.221977
 30
0.0
 10
145.281238
 20
263.459428
 30
0.0
 10
145.500026
 20
262.057361
 30
0.0
 11
129.593025
 21
262.057071
 31
0.0
 11
130.678838
 21
266.071375
 31
0.0
 11
133.532116
 21
268.924758
 31
0.0
 11
137.546380
 21
270.010717
 31
0.0
 11
141.560684
 21
268.924904
 31
0.0
 11
144.414067
 21
266.071626
 31
0.0
 11
145.500026
 21
262.057361
 31
0.0
  0
SPLINE
  5
12b
100
AcDbEntity
  8
0
 62
1
100
AcDbSpline
 70
0
 71
3
 72
10
 73
6
 74
4
 40
0.000000
 40
0.000000
 40
0.000000
 40
0.000000
 40
29.070904
 40
50.497680
 40
68.911882
 40
68.911882
 40
68.911882
 40
68.911882
 10
129.593025
 20
253.057071
 30
0.0
 10
129.300508
 20
243.311228
 30
0.0
 10
128.792390
 20
226.382190
 30
0.0
 10
118.853715
 20
204.658656
 30
0.0
 10
108.438318
 20
196.218305
 30
0.0
 10
103.624399
 20
192.317238
 30
0.0
 11
129.593025
 21
253.057071
 31
0.0
 11
126.470190
 21
224.154383
 31
0.0
 11
117.068666
 21
204.900343
 31
0.0
 11
103.624399
 21
192.317238
 31
0.0
  0
LWPOLYLINE
  5
12c
100
AcDbEntity
  8
0
 62
1
100
AcDbPolyline
 90
2
 70
0
 10
129.593025
 20
262.057071
 30
0.0
 10
129.593025
 20
253.057071
 30
0.0
  0
SPLINE
  5
12d
100
AcDbEntity
  8
0
 62
1
100
AcDbSpline
 70
0
 71
3
 72
10
 73
6
 74
4
 40
0.000000
 40
0.000000
 40
0.000000
 40
0.000000
 40
17.540242
 40
34.426557
 40
50.204781
 40
50.204781
 40
50.204781
 40
50.204781
 10
103.624399
 20
192.317238
 30
0.0
 10
98.525386
 20
189.426050
 30
0.0
 10
88.517460
 20
183.751461
 30
0.0
 10
72.223920
 20
179.148695
 30
0.0
 10
61.346994
 20
178.412618
 30
0.0
 10
56.093022
 20
178.057064
 30
0.0
 11
103.624399
 21
192.317238
 31
0.0
 11
88.024962
 21
184.297410
 31
0.0
 11
71.790558
 21
179.650715
 31
0.0
 11
56.093022
 21
178.057064
 31
0.0
  0
LWPOLYLINE
  5
12e
100
AcDbEntity
  8
0
 62
1
100
AcDbPolyline
 90
2
 70
0
 10
145.500026
 20
246.557361
 30
0.0
 10
145.500026
 20
262.057071
 30
0.0
  0
SPLINE
  5
12f
100
AcDbEntity
  8
0
 62
1
100
AcDbSpline
 70
0
 71
3
 72
16
 73
12
 74
10
 40
0.000000
 40
0.000000
 40
0.000000
 40
0.000000
 40
1.395857
 40
2.771736
 40
4.167593
 40
5.563449
 40
6.939329
 40
8.335185
 40
9.731042
 40
11.106922
 40
12.502778
 40
12.502778
 40
12.502778
 40
12.502778
 10
145.500026
 20
246.557361
 30
0.0
 10
145.452235
 20
246.089702
 30
0.0
 10
145.357336
 20
245.161078
 30
0.0
 10
144.621059
 20
243.933887
 30
0.0
 10
143.543079
 20
243.021502
 30
0.0
 10
142.208011
 20
242.537604
 30
0.0
 10
140.792040
 20
242.537604
 30
0.0
 10
139.456972
 20
243.021502
 30
0.0
 10
138.378992
 20
243.933887
 30
0.0
 10
137.642715
 20
245.161078
 30
0.0
 10
137.547817
 20
246.089702
 30
0.0
 10
137.500025
 20
246.557361
 30
0.0
 11
145.500026
 21
246.557361
 31
0.0
 11
145.256530
 21
245.182906
 31
0.0
 11
144.568591
 21
243.991359
 31
0.0
 11
143.500026
 21
243.093259
 31
0.0
 11
142.187965
 21
242.616905
 31
0.0
 11
140.812086
 21
242.616905
 31
0.0
 11
139.500025
 21
243.093259
 31
0.0
 11
138.431461
 21
243.991359
 31
0.0
 11
137.743521
 21
245.182906
 31
0.0
 11
137.500025
 21
246.557361
 31
0.0
  0
LWPOLYLINE
  5
130
100
AcDbEntity
  8
0
 62
1
100
AcDbPolyline
 90
2
 70
0
 10
137.500025
 20
250.557361
 30
0.0
 10
137.500025
 20
246.557361
 30
0.0
  0
LWPOLYLINE
  5
131
100
AcDbEntity
  8
0
 62
1
100
AcDbPolyline
 90
2
 70
0
 10
136.500025
 20
250.213361
 30
0.0
 10
136.500025
 20
250.557361
 30
0.0
  0
SPLINE
  5
132
100
AcDbEntity
  8
0
 62
1
100
AcDbSpline
 70
0
 71
3
 72
16
 73
12
 74
10
 40
0.000000
 40
0.000000
 40
0.000000
 40
0.000000
 40
0.174482
 40
0.346467
 40
0.520949
 40
0.695431
 40
0.867416
 40
1.041898
 40
1.216380
 40
1.388365
 40
1.562847
 40
1.562847
 40
1.562847
 40
1.562847
 10
136.500025
 20
250.557361
 30
0.0
 10
136.505999
 20
250.615818
 30
0.0
 10
136.517862
 20
250.731896
 30
0.0
 10
136.609896
 20
250.885295
 30
0.0
 10
136.744644
 20
250.999343
 30
0.0
 10
136.911527
 20
251.059831
 30
0.0
 10
137.088524
 20
251.059831
 30
0.0
 10
137.255407
 20
250.999343
 30
0.0
 10
137.390155
 20
250.885295
 30
0.0
 10
137.482189
 20
250.731896
 30
0.0
 10
137.494052
 20
250.615818
 30
0.0
 10
137.500025
 20
250.557361
 30
0.0
 11
136.500025
 21
250.557361
 31
0.0
 11
136.530462
 21
250.729168
 31
0.0
 11
136.616455
 21
250.878111
 31
0.0
 11
136.750025
 21
250.990374
 31
0.0
 11
136.914033
 21
251.049918
 31
0.0
 11
137.086018
 21
251.049918
 31
0.0
 11
137.250025
 21
250.990374
 31
0.0
 11
137.383596
 21
250.878111
 31
0.0
 11
137.469588
 21
250.729168
 31
0.0
 11
137.500025
 21
250.557361
 31
0.0
  0
SPLINE
  5
133
100
AcDbEntity
  8
0
 62
1
100
AcDbSpline
 70
0
 71
3
 72
10
 73
6
 74
4
 40
0.000000
 40
0.000000
 40
0.000000
 40
0.000000
 40
21.912466
 40
45.916645
 40
75.015273
 40
75.015273
 40
75.015273
 40
75.015273
 10
97.473177
 20
158.238625
 30
0.0
 10
103.820548
 20
162.063990
 30
0.0
 10
117.121195
 20
170.079881
 30
0.0
 10
129.687433
 20
192.877245
 30
0.0
 10
133.025656
 20
210.262272
 30
0.0
 10
134.854894
 20
219.788707
 30
0.0
 11
97.473177
 21
158.238625
 31
0.0
 11
115.237913
 21
171.067121
 31
0.0
 11
127.698486
 21
191.583815
 31
0.0
 11
134.854894
 21
219.788707
 31
0.0
  0
SPLINE
  5
134
100
AcDbEntity
  8
0
 62
1
100
AcDbSpline
 70
0
 71
3
 72
16
 73
12
 74
10
 40
0.000000
 40
0.000000
 40
0.000000
 40
0.000000
 40
1.421787
 40
2.808008
 40
4.229795
 40
5.651582
 40
7.037803
 40
8.459590
 40
9.881377
 40
11.267597
 40
12.689385
 40
12.689385
 40
12.689385
 40
12.689385
 10
135.316087
 20
224.838564
 30
0.0
 10
135.772595
 20
224.996609
 30
0.0
 10
136.674191
 20
225.308746
 30
0.0
 10
138.112032
 20
224.928736
 30
0.0
 10
139.217059
 20
223.981972
 30
0.0
 10
139.763494
 20
222.619675
 30
0.0
 10
139.630678
 20
221.165281
 30
0.0
 10
138.846527
 20
219.924494
 30
0.0
 10
137.588289
 20
219.193546
 30
0.0
 10
136.105400
 20
219.080259
 30
0.0
 10
135.275255
 20
219.550540
 30
0.0
 10
134.854925
 20
219.788659
 30
0.0
 11
135.316087
 21
224.838564
 31
0.0
 11
136.699182
 21
225.168000
 31
0.0
 11
138.046097
 21
224.840237
 31
0.0
 11
139.123178
 21
223.912134
 31
0.0
 11
139.652483
 21
222.592545
 31
0.0
 11
139.526416
 21
221.212069
 31
0.0
 11
138.766848
 21
220.010181
 31
0.0
 11
137.539474
 21
219.292523
 31
0.0
 11
136.155471
 21
219.214151
 31
0.0
 11
134.854925
 21
219.788659
 31
0.0
  0
SPLINE
  5
135
100
AcDbEntity
  8
0
 62
1
100
AcDbSpline
 70
0
 71
3
 72
19
 73
15
 74
13
 40
0.000000
 40
0.000000
 40
0.000000
 40
0.000000
 40
1.350994
 40
2.671118
 40
4.022112
 40
5.373105
 40
6.693230
 40
8.044224
 40
9.395217
 40
10.715342
 40
12.066336
 40
12.204890
 40
12.343405
 40
12.481956
 40
12.481956
 40
12.481956
 40
12.481956
 10
97.473177
 20
158.238625
 30
0.0
 10
97.796116
 20
157.913618
 30
0.0
 10
98.434615
 20
157.271031
 30
0.0
 10
98.740688
 20
155.897463
 30
0.0
 10
98.456553
 20
154.547883
 30
0.0
 10
97.599262
 20
153.453408
 30
0.0
 10
96.356796
 20
152.842389
 30
0.0
 10
94.969018
 20
152.830626
 30
0.0
 10
93.716965
 20
153.429502
 30
0.0
 10
92.850151
 20
154.508052
 30
0.0
 10
92.632236
 20
155.457865
 30
0.0
 10
92.644975
 20
156.000254
 30
0.0
 10
92.654221
 20
156.138581
 30
0.0
 10
92.665755
 20
156.230227
 30
0.0
 10
92.671523
 20
156.276056
 30
0.0
 11
97.473177
 21
158.238625
 31
0.0
 11
98.330656
 21
157.194635
 31
0.0
 11
98.642600
 21
155.911896
 31
0.0
 11
98.360294
 21
154.590727
 31
0.0
 11
97.527246
 21
153.527141
 31
0.0
 11
96.342760
 21
152.944285
 31
0.0
 11
94.991812
 21
152.933180
 31
0.0
 11
93.772803
 21
153.515589
 31
0.0
 11
92.946809
 21
154.545377
 31
0.0
 11
92.642823
 21
155.861726
 31
0.0
 11
92.645974
 21
156.000245
 31
0.0
 11
92.655562
 21
156.138427
 31
0.0
 11
92.671523
 21
156.276056
 31
0.0
  0
SPLINE
  5
136
100
AcDbEntity
  8
0
 62
1
100
AcDbSpline
 70
0
 71
3
 72
10
 73
6
 74
4
 40
0.000000
 40
0.000000
 40
0.000000
 40
0.000000
 40
14.136728
 40
26.445610
 40
37.103009
 40
37.103009
 40
37.103009
 40
37.103009
 10
56.093022
 20
151.217356
 30
0.0
 10
60.804325
 20
151.286878
 30
0.0
 10
69.617772
 20
151.416932
 30
0.0
 10
81.956978
 20
152.926450
 30
0.0
 10
89.275430
 20
155.214361
 30
0.0
 10
92.671524
 20
156.276056
 30
0.0
 11
56.093022
 21
151.217356
 31
0.0
 11
70.221637
 21
151.696207
 31
0.0
 11
82.414471
 21
153.382440
 31
0.0
 11
92.671524
 21
156.276056
 31
0.0
  0
SPLINE
  5
137
100
AcDbEntity
  8
0
 62
1
100
AcDbSpline
 70
0
 71
3
 72
10
 73
6
 74
4
 40
0.000000
 40
0.000000
 40
0.000000
 40
0.000000
 40
29.070904
 40
50.497680
 40
68.911882
 40
68.911882
 40
68.911882
 40
68.911882
 10
-17.406982
 20
253.057071
 30
0.0
 10
-17.114465
 20
243.311228
 30
0.0
 10
-16.606347
 20
226.382190
 30
0.0
 10
-6.667672
 20
204.658656
 30
0.0
 10
3.747725
 20
196.218305
 30
0.0
 10
8.561644
 20
192.317238
 30
0.0
 11
-17.406982
 21
253.057071
 31
0.0
 11
-14.284147
 21
224.154383
 31
0.0
 11
-4.882623
 21
204.900343
 31
0.0
 11
8.561644
 21
192.317238
 31
0.0
  0
LWPOLYLINE
  5
138
100
AcDbEntity
  8
0
 62
1
100
AcDbPolyline
 90
2
 70
0
 10
135.316087
 20
224.838564
 30
0.0
 10
136.500025
 20
250.213361
 30
0.0
  0
SPLINE
  5
139
100
AcDbEntity
  8
0
 62
1
100
AcDbSpline
 70
0
 71
3
 72
10
 73
6
 74
4
 40
0.000000
 40
0.000000
 40
0.000000
 40
0.000000
 40
17.540242
 40
34.426557
 40
50.204781
 40
50.204781
 40
50.204781
 40
50.204781
 10
8.561644
 20
192.317238
 30
0.0
 10
13.660657
 20
189.426050
 30
0.0
 10
23.668583
 20
183.751461
 30
0.0
 10
39.962123
 20
179.148695
 30
0.0
 10
50.839049
 20
178.412618
 30
0.0
 10
56.093022
 20
178.057064
 30
0.0
 11
8.561644
 21
192.317238
 31
0.0
 11
24.161081
 21
184.297410
 31
0.0
 11
40.395485
 21
179.650715
 31
0.0
 11
56.093022
 21
178.057064
 31
0.0
  0
LWPOLYLINE
  5
13a
100
AcDbEntity
  8
0
 62
1
100
AcDbPolyline
 90
2
 70
0
 10
-17.406982
 20
262.057071
 30
0.0
 10
-17.406982
 20
253.057071
 30
0.0
  0
SPLINE
  5
13b
100
AcDbEntity
  8
0
 62
1
100
AcDbSpline
 70
0
 71
3
 72
16
 73
12
 74
10
 40
0.000000
 40
0.000000
 40
0.000000
 40
0.000000
 40
2.775486
 40
5.511251
 40
8.286737
 40
11.062223
 40
13.797988
 40
16.573474
 40
19.348960
 40
22.084725
 40
24.860211
 40
24.860211
 40
24.860211
 40
24.860211
 10
-17.406982
 20
262.057071
 30
0.0
 10
-17.501992
 20
262.986954
 30
0.0
 10
-17.690652
 20
264.833410
 30
0.0
 10
-19.154602
 20
267.273553
 30
0.0
 10
-21.297998
 20
269.087755
 30
0.0
 10
-23.952596
 20
270.049975
 30
0.0
 10
-26.768077
 20
270.050026
 30
0.0
 10
-29.422710
 20
269.087903
 30
0.0
 10
-31.566173
 20
267.273780
 30
0.0
 10
-33.030212
 20
264.833690
 30
0.0
 10
-33.218939
 20
262.987240
 30
0.0
 10
-33.313983
 20
262.057361
 30
0.0
 11
-17.406982
 21
262.057071
 31
0.0
 11
-17.891092
 21
264.790011
 31
0.0
 11
-19.258931
 21
267.159278
 31
0.0
 11
-21.383607
 21
268.945077
 31
0.0
 11
-23.992457
 21
269.892296
 31
0.0
 11
-26.728222
 21
269.892345
 31
0.0
 11
-29.337107
 21
268.945222
 31
0.0
 11
-31.461847
 21
267.159501
 31
0.0
 11
-32.829773
 21
264.790284
 31
0.0
 11
-33.313983
 21
262.057361
 31
0.0
  0
SPLINE
  5
13c
100
AcDbEntity
  8
0
 62
1
100
AcDbSpline
 70
0
 71
3
 72
16
 73
12
 74
10
 40
0.000000
 40
0.000000
 40
0.000000
 40
0.000000
 40
1.395857
 40
2.771736
 40
4.167593
 40
5.563449
 40
6.939329
 40
8.335185
 40
9.731042
 40
11.106922
 40
12.502778
 40
12.502778
 40
12.502778
 40
12.502778
 10
-33.313983
 20
246.557361
 30
0.0
 10
-33.266192
 20
246.089702
 30
0.0
 10
-33.171293
 20
245.161078
 30
0.0
 10
-32.435016
 20
243.933887
 30
0.0
 10
-31.357036
 20
243.021502
 30
0.0
 10
-30.021968
 20
242.537604
 30
0.0
 10
-28.605997
 20
242.537604
 30
0.0
 10
-27.270929
 20
243.021502
 30
0.0
 10
-26.192949
 20
243.933887
 30
0.0
 10
-25.456672
 20
245.161078
 30
0.0
 10
-25.361774
 20
246.089702
 30
0.0
 10
-25.313982
 20
246.557361
 30
0.0
 11
-33.313983
 21
246.557361
 31
0.0
 11
-33.070487
 21
245.182906
 31
0.0
 11
-32.382548
 21
243.991359
 31
0.0
 11
-31.313983
 21
243.093259
 31
0.0
 11
-30.001922
 21
242.616905
 31
0.0
 11
-28.626043
 21
242.616905
 31
0.0
 11
-27.313982
 21
243.093259
 31
0.0
 11
-26.245418
 21
243.991359
 31
0.0
 11
-25.557478
 21
245.182906
 31
0.0
 11
-25.313982
 21
246.557361
 31
0.0
  0
LWPOLYLINE
  5
13d
100
AcDbEntity
  8
0
 62
1
100
AcDbPolyline
 90
2
 70
0
 10
-33.313983
 20
246.557361
 30
0.0
 10
-33.313983
 20
262.057071
 30
0.0
  0
SPLINE
  5
13e
100
AcDbEntity
  8
0
 62
1
100
AcDbSpline
 70
0
 71
3
 72
10
 73
6
 74
4
 40
0.000000
 40
0.000000
 40
0.000000
 40
0.000000
 40
14.136728
 40
26.445610
 40
37.103009
 40
37.103009
 40
37.103009
 40
37.103009
 10
56.093022
 20
151.217356
 30
0.0
 10
51.381718
 20
151.286878
 30
0.0
 10
42.568271
 20
151.416932
 30
0.0
 10
30.229065
 20
152.926450
 30
0.0
 10
22.910613
 20
155.214361
 30
0.0
 10
19.514519
 20
156.276056
 30
0.0
 11
56.093022
 21
151.217356
 31
0.0
 11
41.964406
 21
151.696207
 31
0.0
 11
29.771572
 21
153.382440
 31
0.0
 11
19.514519
 21
156.276056
 31
0.0
  0
SPLINE
  5
13f
100
AcDbEntity
  8
0
 62
1
100
AcDbSpline
 70
0
 71
3
 72
19
 73
15
 74
13
 40
0.000000
 40
0.000000
 40
0.000000
 40
0.000000
 40
1.350994
 40
2.671118
 40
4.022112
 40
5.373105
 40
6.693230
 40
8.044224
 40
9.395217
 40
10.715342
 40
12.066336
 40
12.204890
 40
12.343405
 40
12.481956
 40
12.481956
 40
12.481956
 40
12.481956
 10
14.712866
 20
158.238625
 30
0.0
 10
14.389927
 20
157.913618
 30
0.0
 10
13.751428
 20
157.271031
 30
0.0
 10
13.445355
 20
155.897463
 30
0.0
 10
13.729490
 20
154.547883
 30
0.0
 10
14.586781
 20
153.453408
 30
0.0
 10
15.829247
 20
152.842389
 30
0.0
 10
17.217025
 20
152.830626
 30
0.0
 10
18.469078
 20
153.429502
 30
0.0
 10
19.335892
 20
154.508052
 30
0.0
 10
19.553807
 20
155.457865
 30
0.0
 10
19.541068
 20
156.000254
 30
0.0
 10
19.531822
 20
156.138581
 30
0.0
 10
19.520288
 20
156.230227
 30
0.0
 10
19.514520
 20
156.276056
 30
0.0
 11
14.712866
 21
158.238625
 31
0.0
 11
13.855387
 21
157.194635
 31
0.0
 11
13.543443
 21
155.911896
 31
0.0
 11
13.825749
 21
154.590727
 31
0.0
 11
14.658797
 21
153.527141
 31
0.0
 11
15.843283
 21
152.944285
 31
0.0
 11
17.194231
 21
152.933180
 31
0.0
 11
18.413240
 21
153.515589
 31
0.0
 11
19.239234
 21
154.545377
 31
0.0
 11
19.543220
 21
155.861726
 31
0.0
 11
19.540069
 21
156.000245
 31
0.0
 11
19.530481
 21
156.138427
 31
0.0
 11
19.514520
 21
156.276056
 31
0.0
  0
LWPOLYLINE
  5
140
100
AcDbEntity
  8
0
 62
1
100
AcDbPolyline
 90
2
 70
0
 10
-25.313982
 20
250.557361
 30
0.0
 10
-25.313982
 20
246.557361
 30
0.0
  0
SPLINE
  5
141
100
AcDbEntity
  8
0
 62
1
100
AcDbSpline
 70
0
 71
3
 72
16
 73
12
 74
10
 40
0.000000
 40
0.000000
 40
0.000000
 40
0.000000
 40
0.174482
 40
0.346467
 40
0.520949
 40
0.695431
 40
0.867416
 40
1.041898
 40
1.216380
 40
1.388365
 40
1.562847
 40
1.562847
 40
1.562847
 40
1.562847
 10
-24.313982
 20
250.557361
 30
0.0
 10
-24.319956
 20
250.615818
 30
0.0
 10
-24.331818
 20
250.731896
 30
0.0
 10
-24.423853
 20
250.885295
 30
0.0
 10
-24.558601
 20
250.999343
 30
0.0
 10
-24.725484
 20
251.059831
 30
0.0
 10
-24.902481
 20
251.059831
 30
0.0
 10
-25.069364
 20
250.999343
 30
0.0
 10
-25.204112
 20
250.885295
 30
0.0
 10
-25.296146
 20
250.731896
 30
0.0
 10
-25.308008
 20
250.615818
 30
0.0
 10
-25.313982
 20
250.557361
 30
0.0
 11
-24.313982
 21
250.557361
 31
0.0
 11
-24.344419
 21
250.729168
 31
0.0
 11
-24.430412
 21
250.878111
 31
0.0
 11
-24.563982
 21
250.990374
 31
0.0
 11
-24.727990
 21
251.049918
 31
0.0
 11
-24.899975
 21
251.049918
 31
0.0
 11
-25.063982
 21
250.990374
 31
0.0
 11
-25.197553
 21
250.878111
 31
0.0
 11
-25.283545
 21
250.729168
 31
0.0
 11
-25.313982
 21
250.557361
 31
0.0
  0
LWPOLYLINE
  5
142
100
AcDbEntity
  8
0
 62
1
100
AcDbPolyline
 90
2
 70
0
 10
-24.313982
 20
250.213361
 30
0.0
 10
-24.313982
 20
250.557361
 30
0.0
  0
SPLINE
  5
143
100
AcDbEntity
  8
0
 62
1
100
AcDbSpline
 70
0
 71
3
 72
10
 73
6
 74
4
 40
0.000000
 40
0.000000
 40
0.000000
 40
0.000000
 40
21.912466
 40
45.916645
 40
75.015273
 40
75.015273
 40
75.015273
 40
75.015273
 10
14.712866
 20
158.238625
 30
0.0
 10
8.365495
 20
162.063990
 30
0.0
 10
-4.935152
 20
170.079881
 30
0.0
 10
-17.501390
 20
192.877245
 30
0.0
 10
-20.839613
 20
210.262272
 30
0.0
 10
-22.668851
 20
219.788707
 30
0.0
 11
14.712866
 21
158.238625
 31
0.0
 11
-3.051870
 21
171.067121
 31
0.0
 11
-15.512443
 21
191.583815
 31
0.0
 11
-22.668851
 21
219.788707
 31
0.0
  0
LWPOLYLINE
  5
144
100
AcDbEntity
  8
0
 62
1
100
AcDbPolyline
 90
2
 70
0
 10
-23.130044
 20
224.838564
 30
0.0
 10
-24.313982
 20
250.213361
 30
0.0
  0
SPLINE
  5
145
100
AcDbEntity
  8
0
 62
1
100
AcDbSpline
 70
0
 71
3
 72
16
 73
12
 74
10
 40
0.000000
 40
0.000000
 40
0.000000
 40
0.000000
 40
1.421787
 40
2.808008
 40
4.229795
 40
5.651582
 40
7.037803
 40
8.459590
 40
9.881377
 40
11.267597
 40
12.689385
 40
12.689385
 40
12.689385
 40
12.689385
 10
-23.130044
 20
224.838564
 30
0.0
 10
-23.586552
 20
224.996609
 30
0.0
 10
-24.488148
 20
225.308746
 30
0.0
 10
-25.925989
 20
224.928736
 30
0.0
 10
-27.031016
 20
223.981972
 30
0.0
 10
-27.577451
 20
222.619675
 30
0.0
 10
-27.444635
 20
221.165281
 30
0.0
 10
-26.660483
 20
219.924494
 30
0.0
 10
-25.402246
 20
219.193546
 30
0.0
 10
-23.919357
 20
219.080259
 30
0.0
 10
-23.089212
 20
219.550540
 30
0.0
 10
-22.668882
 20
219.788659
 30
0.0
 11
-23.130044
 21
224.838564
 31
0.0
 11
-24.513139
 21
225.168000
 31
0.0
 11
-25.860054
 21
224.840237
 31
0.0
 11
-26.937135
 21
223.912134
 31
0.0
 11
-27.466440
 21
222.592545
 31
0.0
 11
-27.340373
 21
221.212069
 31
0.0
 11
-26.580805
 21
220.010181
 31
0.0
 11
-25.353431
 21
219.292523
 31
0.0
 11
-23.969428
 21
219.214151
 31
0.0
 11
-22.668882
 21
219.788659
 31
0.0
  0
SPLINE
  5
146
100
AcDbEntity
  8
0
 62
1
100
AcDbSpline
 70
0
 71
3
 72
16
 73
12
 74
10
 40
0.000000
 40
0.000000
 40
0.000000
 40
0.000000
 40
0.349400
 40
0.693788
 40
1.043188
 40
1.392588
 40
1.736977
 40
2.086376
 40
2.435776
 40
2.780165
 40
3.129564
 40
3.129564
 40
3.129564
 40
3.129564
 10
-22.360482
 20
261.057071
 30
0.0
 10
-22.243400
 20
261.068845
 30
0.0
 10
-22.010914
 20
261.092223
 30
0.0
 10
-21.703507
 20
261.276181
 30
0.0
 10
-21.474911
 20
261.545844
 30
0.0
 10
-21.353653
 20
261.879994
 30
0.0
 10
-21.353653
 20
262.234439
 30
0.0
 10
-21.474911
 20
262.568589
 30
0.0
 10
-21.703507
 20
262.838252
 30
0.0
 10
-22.010914
 20
263.022209
 30
0.0
 10
-22.243400
 20
263.045588
 30
0.0
 10
-22.360482
 20
263.057362
 30
0.0
 11
-22.360482
 21
261.057071
 31
0.0
 11
-22.016346
 21
261.117492
 31
0.0
 11
-21.717898
 21
261.289342
 31
0.0
 11
-21.492887
 21
261.556643
 31
0.0
 11
-21.373524
 21
261.885022
 31
0.0
 11
-21.373524
 21
262.229411
 31
0.0
 11
-21.492887
 21
262.557790
 31
0.0
 11
-21.717898
 21
262.825091
 31
0.0
 11
-22.016346
 21
262.996941
 31
0.0
 11
-22.360482
 21
263.057362
 31
0.0
  0
LWPOLYLINE
  5
147
100
AcDbEntity
  8
0
 62
1
100
AcDbPolyline
 90
2
 70
0
 10
-28.360482
 20
263.057072
 30
0.0
 10
-22.360482
 20
263.057072
 30
0.0
  0
LWPOLYLINE
  5
148
100
AcDbEntity
  8
0
 62
1
100
AcDbPolyline
 90
2
 70
0
 10
-28.360482
 20
261.057071
 30
0.0
 10
-22.360482
 20
261.057071
 30
0.0
  0
SPLINE
  5
149
100
AcDbEntity
  8
0
 62
1
100
AcDbSpline
 70
0
 71
3
 72
13
 73
9
 74
7
 40
0.000000
 40
0.000000
 40
0.000000
 40
0.000000
 40
0.517221
 40
1.019382
 40
1.536603
 40
2.053823
 40
2.555985
 40
3.073205
 40
3.073205
 40
3.073205
 40
3.073205
 10
-28.360482
 20
263.057072
 30
0.0
 10
-28.534340
 20
263.027217
 30
0.0
 10
-28.876994
 20
262.968377
 30
0.0
 10
-29.251488
 20
262.572090
 30
0.0
 10
-29.390116
 20
262.057216
 30
0.0
 10
-29.251488
 20
261.542343
 30
0.0
 10
-28.876994
 20
261.146056
 30
0.0
 10
-28.534340
 20
261.087216
 30
0.0
 10
-28.360482
 20
261.057361
 30
0.0
 11
-28.360482
 21
263.057072
 31
0.0
 11
-28.857801
 21
262.914975
 31
0.0
 11
-29.209846
 21
262.556883
 31
0.0
 11
-29.343454
 21
262.057216
 31
0.0
 11
-29.209846
 21
261.557550
 31
0.0
 11
-28.857801
 21
261.199458
 31
0.0
 11
-28.360482
 21
261.057361
 31
0.0
  0
SPLINE
  5
14a
100
AcDbEntity
  8
0
 62
1
100
AcDbSpline
 70
0
 71
3
 72
13
 73
9
 74
7
 40
0.000000
 40
0.000000
 40
0.000000
 40
0.000000
 40
0.522362
 40
1.029260
 40
1.551623
 40
2.073985
 40
2.580883
 40
3.103245
 40
3.103245
 40
3.103245
 40
3.103245
 10
-22.360482
 20
255.057071
 30
0.0
 10
-22.184418
 20
255.084822
 30
0.0
 10
-21.837503
 20
255.139503
 30
0.0
 10
-21.455862
 20
255.537230
 30
0.0
 10
-21.314466
 20
256.057216
 30
0.0
 10
-21.455862
 20
256.577202
 30
0.0
 10
-21.837503
 20
256.974929
 30
0.0
 10
-22.184418
 20
257.029610
 30
0.0
 10
-22.360482
 20
257.057361
 30
0.0
 11
-22.360482
 21
255.057071
 31
0.0
 11
-21.856439
 21
255.194195
 31
0.0
 11
-21.498319
 21
255.552936
 31
0.0
 11
-21.362068
 21
256.057216
 31
0.0
 11
-21.498319
 21
256.561496
 31
0.0
 11
-21.856439
 21
256.920237
 31
0.0
 11
-22.360482
 21
257.057361
 31
0.0
  0
LWPOLYLINE
  5
14b
100
AcDbEntity
  8
0
 62
1
100
AcDbPolyline
 90
2
 70
0
 10
-28.360482
 20
257.057071
 30
0.0
 10
-22.360482
 20
257.057071
 30
0.0
  0
LWPOLYLINE
  5
14c
100
AcDbEntity
  8
0
 62
1
100
AcDbPolyline
 90
2
 70
0
 10
-28.360482
 20
255.057071
 30
0.0
 10
-22.360482
 20
255.057071
 30
0.0
  0
SPLINE
  5
14d
100
AcDbEntity
  8
0
 62
1
100
AcDbSpline
 70
0
 71
3
 72
16
 73
12
 74
10
 40
0.000000
 40
0.000000
 40
0.000000
 40
0.000000
 40
0.352743
 40
0.700335
 40
1.053078
 40
1.405821
 40
1.753412
 40
2.106155
 40
2.458898
 40
2.806490
 40
3.159233
 40
3.159233
 40
3.159233
 40
3.159233
 10
-28.360482
 20
257.057071
 30
0.0
 10
-28.478867
 20
257.046873
 30
0.0
 10
-28.713908
 20
257.026624
 30
0.0
 10
-29.026263
 20
256.843961
 30
0.0
 10
-29.258955
 20
256.573231
 30
0.0
 10
-29.382557
 20
256.236186
 30
0.0
 10
-29.382557
 20
255.878246
 30
0.0
 10
-29.258955
 20
255.541202
 30
0.0
 10
-29.026263
 20
255.270472
 30
0.0
 10
-28.713908
 20
255.087808
 30
0.0
 10
-28.478867
 20
255.067560
 30
0.0
 10
-28.360482
 20
255.057361
 30
0.0
 11
-28.360482
 21
257.057071
 31
0.0
 11
-28.708707
 21
257.000794
 31
0.0
 11
-29.011684
 21
256.830427
 31
0.0
 11
-29.240685
 21
256.562124
 31
0.0
 11
-29.362308
 21
256.231012
 31
0.0
 11
-29.362308
 21
255.883420
 31
0.0
 11
-29.240685
 21
255.552308
 31
0.0
 11
-29.011684
 21
255.284005
 31
0.0
 11
-28.708707
 21
255.113638
 31
0.0
 11
-28.360482
 21
255.057361
 31
0.0
  0
SPLINE
  5
14e
100
AcDbEntity
  8
0
 62
1
100
AcDbSpline
 70
0
 71
3
 72
16
 73
12
 74
10
 40
0.000000
 40
0.000000
 40
0.000000
 40
0.000000
 40
0.349400
 40
0.693788
 40
1.043188
 40
1.392588
 40
1.736977
 40
2.086376
 40
2.435776
 40
2.780165
 40
3.129564
 40
3.129564
 40
3.129564
 40
3.129564
 10
134.546525
 20
261.057071
 30
0.0
 10
134.429443
 20
261.068845
 30
0.0
 10
134.196957
 20
261.092223
 30
0.0
 10
133.889550
 20
261.276181
 30
0.0
 10
133.660954
 20
261.545844
 30
0.0
 10
133.539696
 20
261.879994
 30
0.0
 10
133.539696
 20
262.234439
 30
0.0
 10
133.660954
 20
262.568589
 30
0.0
 10
133.889550
 20
262.838252
 30
0.0
 10
134.196957
 20
263.022209
 30
0.0
 10
134.429443
 20
263.045588
 30
0.0
 10
134.546525
 20
263.057362
 30
0.0
 11
134.546525
 21
261.057071
 31
0.0
 11
134.202390
 21
261.117492
 31
0.0
 11
133.903941
 21
261.289342
 31
0.0
 11
133.678930
 21
261.556643
 31
0.0
 11
133.559567
 21
261.885022
 31
0.0
 11
133.559567
 21
262.229411
 31
0.0
 11
133.678930
 21
262.557790
 31
0.0
 11
133.903941
 21
262.825091
 31
0.0
 11
134.202390
 21
262.996941
 31
0.0
 11
134.546525
 21
263.057362
 31
0.0
  0
LWPOLYLINE
  5
14f
100
AcDbEntity
  8
0
 62
1
100
AcDbPolyline
 90
2
 70
0
 10
140.546526
 20
263.057072
 30
0.0
 10
134.546525
 20
263.057072
 30
0.0
  0
LWPOLYLINE
  5
150
100
AcDbEntity
  8
0
 62
1
100
AcDbPolyline
 90
2
 70
0
 10
140.546526
 20
261.057071
 30
0.0
 10
134.546525
 20
261.057071
 30
0.0
  0
SPLINE
  5
151
100
AcDbEntity
  8
0
 62
1
100
AcDbSpline
 70
0
 71
3
 72
13
 73
9
 74
7
 40
0.000000
 40
0.000000
 40
0.000000
 40
0.000000
 40
0.517221
 40
1.019382
 40
1.536603
 40
2.053823
 40
2.555985
 40
3.073205
 40
3.073205
 40
3.073205
 40
3.073205
 10
140.546526
 20
263.057072
 30
0.0
 10
140.720383
 20
263.027217
 30
0.0
 10
141.063037
 20
262.968377
 30
0.0
 10
141.437531
 20
262.572090
 30
0.0
 10
141.576159
 20
262.057216
 30
0.0
 10
141.437531
 20
261.542343
 30
0.0
 10
141.063037
 20
261.146056
 30
0.0
 10
140.720383
 20
261.087216
 30
0.0
 10
140.546526
 20
261.057361
 30
0.0
 11
140.546526
 21
263.057072
 31
0.0
 11
141.043844
 21
262.914975
 31
0.0
 11
141.395890
 21
262.556883
 31
0.0
 11
141.529497
 21
262.057216
 31
0.0
 11
141.395890
 21
261.557550
 31
0.0
 11
141.043844
 21
261.199458
 31
0.0
 11
140.546526
 21
261.057361
 31
0.0
  0
SPLINE
  5
152
100
AcDbEntity
  8
0
 62
1
100
AcDbSpline
 70
0
 71
3
 72
13
 73
9
 74
7
 40
0.000000
 40
0.000000
 40
0.000000
 40
0.000000
 40
0.522362
 40
1.029260
 40
1.551623
 40
2.073985
 40
2.580883
 40
3.103245
 40
3.103245
 40
3.103245
 40
3.103245
 10
134.546525
 20
255.057071
 30
0.0
 10
134.370461
 20
255.084822
 30
0.0
 10
134.023546
 20
255.139503
 30
0.0
 10
133.641905
 20
255.537230
 30
0.0
 10
133.500509
 20
256.057216
 30
0.0
 10
133.641905
 20
256.577202
 30
0.0
 10
134.023546
 20
256.974929
 30
0.0
 10
134.370461
 20
257.029610
 30
0.0
 10
134.546525
 20
257.057361
 30
0.0
 11
134.546525
 21
255.057071
 31
0.0
 11
134.042482
 21
255.194195
 31
0.0
 11
133.684362
 21
255.552936
 31
0.0
 11
133.548111
 21
256.057216
 31
0.0
 11
133.684362
 21
256.561496
 31
0.0
 11
134.042482
 21
256.920237
 31
0.0
 11
134.546525
 21
257.057361
 31
0.0
  0
LWPOLYLINE
  5
153
100
AcDbEntity
  8
0
 62
1
100
AcDbPolyline
 90
2
 70
0
 10
140.546526
 20
257.057071
 30
0.0
 10
134.546525
 20
257.057071
 30
0.0
  0
SPLINE
  5
154
100
AcDbEntity
  8
0
 62
1
100
AcDbSpline
 70
0
 71
3
 72
16
 73
12
 74
10
 40
0.000000
 40
0.000000
 40
0.000000
 40
0.000000
 40
0.352743
 40
0.700335
 40
1.053078
 40
1.405821
 40
1.753412
 40
2.106155
 40
2.458898
 40
2.806490
 40
3.159233
 40
3.159233
 40
3.159233
 40
3.159233
 10
140.546526
 20
257.057071
 30
0.0
 10
140.664910
 20
257.046873
 30
0.0
 10
140.899951
 20
257.026624
 30
0.0
 10
141.212306
 20
256.843961
 30
0.0
 10
141.444998
 20
256.573231
 30
0.0
 10
141.568600
 20
256.236186
 30
0.0
 10
141.568600
 20
255.878246
 30
0.0
 10
141.444998
 20
255.541202
 30
0.0
 10
141.212306
 20
255.270472
 30
0.0
 10
140.899951
 20
255.087808
 30
0.0
 10
140.664910
 20
255.067560
 30
0.0
 10
140.546526
 20
255.057361
 30
0.0
 11
140.546526
 21
257.057071
 31
0.0
 11
140.894750
 21
257.000794
 31
0.0
 11
141.197727
 21
256.830427
 31
0.0
 11
141.426728
 21
256.562124
 31
0.0
 11
141.548351
 21
256.231012
 31
0.0
 11
141.548351
 21
255.883420
 31
0.0
 11
141.426728
 21
255.552308
 31
0.0
 11
141.197727
 21
255.284005
 31
0.0
 11
140.894750
 21
255.113638
 31
0.0
 11
140.546526
 21
255.057361
 31
0.0
  0
LWPOLYLINE
  5
155
100
AcDbEntity
  8
0
 62
1
100
AcDbPolyline
 90
2
 70
0
 10
140.546526
 20
255.057071
 30
0.0
 10
134.546525
 20
255.057071
 30
0.0
  0
SPLINE
  5
156
100
AcDbEntity
  8
0
 62
1
100
AcDbSpline
 70
0
 71
3
 72
25
 73
21
 74
19
 40
0.000000
 40
0.000000
 40
0.000000
 40
0.000000
 40
0.872410
 40
1.732335
 40
2.604745
 40
3.477156
 40
4.337081
 40
5.209491
 40
6.081901
 40
6.941826
 40
7.814236
 40
8.686647
 40
9.546571
 40
10.418982
 40
11.291392
 40
12.151317
 40
13.023727
 40
13.896137
 40
14.756062
 40
15.628473
 40
15.628473
 40
15.628473
 40
15.628473
 10
31.593020
 20
168.057063
 30
0.0
 10
31.563150
 20
168.349350
 30
0.0
 10
31.503838
 20
168.929740
 30
0.0
 10
31.043671
 20
169.696734
 30
0.0
 10
30.369909
 20
170.266975
 30
0.0
 10
29.535582
 20
170.569411
 30
0.0
 10
28.650267
 20
170.569411
 30
0.0
 10
27.817108
 20
170.266975
 30
0.0
 10
27.138680
 20
169.696734
 30
0.0
 10
26.695849
 20
168.929740
 30
0.0
 10
26.541235
 20
168.057063
 30
0.0
 10
26.695849
 20
167.184386
 30
0.0
 10
27.138680
 20
166.417392
 30
0.0
 10
27.817108
 20
165.847151
 30
0.0
 10
28.650267
 20
165.544715
 30
0.0
 10
29.535582
 20
165.544715
 30
0.0
 10
30.369909
 20
165.847151
 30
0.0
 10
31.043671
 20
166.417392
 30
0.0
 10
31.503838
 20
167.184386
 30
0.0
 10
31.563150
 20
167.764776
 30
0.0
 10
31.593020
 20
168.057063
 30
0.0
 11
31.593020
 21
168.057063
 31
0.0
 11
31.440836
 21
168.916097
 31
0.0
 11
31.010873
 21
169.660814
 31
0.0
 11
30.343020
 21
170.222127
 31
0.0
 11
29.522983
 21
170.519848
 31
0.0
 11
28.663058
 21
170.519848
 31
0.0
 11
27.843020
 21
170.222127
 31
0.0
 11
27.175167
 21
169.660814
 31
0.0
 11
26.745205
 21
168.916097
 31
0.0
 11
26.593020
 21
168.057063
 31
0.0
 11
26.745205
 21
167.198029
 31
0.0
 11
27.175167
 21
166.453312
 31
0.0
 11
27.843020
 21
165.891999
 31
0.0
 11
28.663058
 21
165.594278
 31
0.0
 11
29.522983
 21
165.594278
 31
0.0
 11
30.343020
 21
165.891999
 31
0.0
 11
31.010873
 21
166.453312
 31
0.0
 11
31.440836
 21
167.198029
 31
0.0
 11
31.593020
 21
168.057063
 31
0.0
  0
LWPOLYLINE
  5
157
100
AcDbEntity
  8
0
 62
1
100
AcDbPolyline
 90
1
 70
1
 10
31.593020
 20
168.057063
 30
0.0
  0
SPLINE
  5
158
100
AcDbEntity
  8
0
 62
1
100
AcDbSpline
 70
0
 71
3
 72
25
 73
21
 74
19
 40
0.000000
 40
0.000000
 40
0.000000
 40
0.000000
 40
0.872410
 40
1.732335
 40
2.604745
 40
3.477156
 40
4.337081
 40
5.209491
 40
6.081901
 40
6.941826
 40
7.814236
 40
8.686647
 40
9.546571
 40
10.418982
 40
11.291392
 40
12.151317
 40
13.023727
 40
13.896137
 40
14.756062
 40
15.628473
 40
15.628473
 40
15.628473
 40
15.628473
 10
4.593019
 20
183.057064
 30
0.0
 10
4.563149
 20
183.349350
 30
0.0
 10
4.503837
 20
183.929740
 30
0.0
 10
4.043670
 20
184.696735
 30
0.0
 10
3.369908
 20
185.266975
 30
0.0
 10
2.535581
 20
185.569412
 30
0.0
 10
1.650266
 20
185.569412
 30
0.0
 10
0.817107
 20
185.266975
 30
0.0
 10
0.138679
 20
184.696735
 30
0.0
 10
-0.304152
 20
183.929740
 30
0.0
 10
-0.458766
 20
183.057064
 30
0.0
 10
-0.304152
 20
182.184387
 30
0.0
 10
0.138679
 20
181.417392
 30
0.0
 10
0.817107
 20
180.847152
 30
0.0
 10
1.650266
 20
180.544716
 30
0.0
 10
2.535581
 20
180.544716
 30
0.0
 10
3.369908
 20
180.847152
 30
0.0
 10
4.043670
 20
181.417392
 30
0.0
 10
4.503837
 20
182.184387
 30
0.0
 10
4.563149
 20
182.764777
 30
0.0
 10
4.593019
 20
183.057064
 30
0.0
 11
4.593019
 21
183.057064
 31
0.0
 11
4.440834
 21
183.916098
 31
0.0
 11
4.010872
 21
184.660815
 31
0.0
 11
3.343019
 21
185.222127
 31
0.0
 11
2.522981
 21
185.519849
 31
0.0
 11
1.663057
 21
185.519849
 31
0.0
 11
0.843019
 21
185.222127
 31
0.0
 11
0.175166
 21
184.660815
 31
0.0
 11
-0.254797
 21
183.916098
 31
0.0
 11
-0.406981
 21
183.057064
 31
0.0
 11
-0.254797
 21
182.198030
 31
0.0
 11
0.175166
 21
181.453313
 31
0.0
 11
0.843019
 21
180.892000
 31
0.0
 11
1.663057
 21
180.594279
 31
0.0
 11
2.522981
 21
180.594279
 31
0.0
 11
3.343019
 21
180.892000
 31
0.0
 11
4.010872
 21
181.453313
 31
0.0
 11
4.440834
 21
182.198030
 31
0.0
 11
4.593019
 21
183.057064
 31
0.0
  0
LWPOLYLINE
  5
159
100
AcDbEntity
  8
0
 62
1
100
AcDbPolyline
 90
1
 70
1
 10
4.593019
 20
183.057064
 30
0.0
  0
SPLINE
  5
15a
100
AcDbEntity
  8
0
 62
1
100
AcDbSpline
 70
0
 71
3
 72
25
 73
21
 74
19
 40
0.000000
 40
0.000000
 40
0.000000
 40
0.000000
 40
0.872410
 40
1.732335
 40
2.604745
 40
3.477156
 40
4.337081
 40
5.209491
 40
6.081901
 40
6.941826
 40
7.814236
 40
8.686647
 40
9.546571
 40
10.418982
 40
11.291392
 40
12.151317
 40
13.023727
 40
13.896137
 40
14.756062
 40
15.628473
 40
15.628473
 40
15.628473
 40
15.628473
 10
85.593023
 20
168.057063
 30
0.0
 10
85.563153
 20
168.349350
 30
0.0
 10
85.503841
 20
168.929740
 30
0.0
 10
85.043674
 20
169.696734
 30
0.0
 10
84.369912
 20
170.266975
 30
0.0
 10
83.535585
 20
170.569411
 30
0.0
 10
82.650269
 20
170.569411
 30
0.0
 10
81.817111
 20
170.266975
 30
0.0
 10
81.138683
 20
169.696734
 30
0.0
 10
80.695852
 20
168.929740
 30
0.0
 10
80.541238
 20
168.057063
 30
0.0
 10
80.695852
 20
167.184386
 30
0.0
 10
81.138683
 20
166.417392
 30
0.0
 10
81.817111
 20
165.847151
 30
0.0
 10
82.650269
 20
165.544715
 30
0.0
 10
83.535585
 20
165.544715
 30
0.0
 10
84.369912
 20
165.847151
 30
0.0
 10
85.043674
 20
166.417392
 30
0.0
 10
85.503841
 20
167.184386
 30
0.0
 10
85.563153
 20
167.764776
 30
0.0
 10
85.593023
 20
168.057063
 30
0.0
 11
85.593023
 21
168.057063
 31
0.0
 11
85.440838
 21
168.916097
 31
0.0
 11
85.010876
 21
169.660814
 31
0.0
 11
84.343023
 21
170.222127
 31
0.0
 11
83.522985
 21
170.519848
 31
0.0
 11
82.663060
 21
170.519848
 31
0.0
 11
81.843023
 21
170.222127
 31
0.0
 11
81.175170
 21
169.660814
 31
0.0
 11
80.745207
 21
168.916097
 31
0.0
 11
80.593023
 21
168.057063
 31
0.0
 11
80.745207
 21
167.198029
 31
0.0
 11
81.175170
 21
166.453312
 31
0.0
 11
81.843023
 21
165.891999
 31
0.0
 11
82.663060
 21
165.594278
 31
0.0
 11
83.522985
 21
165.594278
 31
0.0
 11
84.343023
 21
165.891999
 31
0.0
 11
85.010876
 21
166.453312
 31
0.0
 11
85.440838
 21
167.198029
 31
0.0
 11
85.593023
 21
168.057063
 31
0.0
  0
LWPOLYLINE
  5
15b
100
AcDbEntity
  8
0
 62
1
100
AcDbPolyline
 90
1
 70
1
 10
85.593023
 20
168.057063
 30
0.0
  0
LWPOLYLINE
  5
15c
100
AcDbEntity
  8
0
 62
1
100
AcDbPolyline
 90
1
 70
1
 10
112.593024
 20
183.057064
 30
0.0
  0
LWPOLYLINE
  5
15d
100
AcDbEntity
  8
0
 62
1
100
AcDbPolyline
 90
2
 70
0
 10
41.589569
 20
168.568667
 30
0.0
 10
41.589569
 20
161.218667
 30
0.0
  0
LWPOLYLINE
  5
15e
100
AcDbEntity
  8
0
 62
1
100
AcDbPolyline
 90
2
 70
0
 10
41.589569
 20
168.568667
 30
0.0
 10
44.419511
 20
161.218667
 30
0.0
  0
LWPOLYLINE
  5
15f
100
AcDbEntity
  8
0
 62
1
100
AcDbPolyline
 90
2
 70
0
 10
47.249453
 20
168.568667
 30
0.0
 10
44.419511
 20
161.218667
 30
0.0
  0
LWPOLYLINE
  5
160
100
AcDbEntity
  8
0
 62
1
100
AcDbPolyline
 90
2
 70
0
 10
47.249453
 20
168.568667
 30
0.0
 10
47.249453
 20
161.218667
 30
0.0
  0
LWPOLYLINE
  5
161
100
AcDbEntity
  8
0
 62
1
100
AcDbPolyline
 90
2
 70
0
 10
50.079395
 20
164.368667
 30
0.0
 10
56.446764
 20
164.368667
 30
0.0
  0
LWPOLYLINE
  5
162
100
AcDbEntity
  8
0
 62
1
100
AcDbPolyline
 90
4
 70
0
 10
59.984192
 20
167.168667
 30
0.0
 10
60.691677
 20
167.518667
 30
0.0
 10
61.752905
 20
168.568667
 30
0.0
 10
61.752905
 20
161.218667
 30
0.0
  0
SPLINE
  5
163
100
AcDbEntity
  8
0
 62
1
100
AcDbSpline
 70
0
 71
3
 72
25
 73
21
 74
19
 40
0.000000
 40
0.000000
 40
0.000000
 40
0.000000
 40
0.872410
 40
1.732335
 40
2.604745
 40
3.477156
 40
4.337081
 40
5.209491
 40
6.081901
 40
6.941826
 40
7.814236
 40
8.686647
 40
9.546571
 40
10.418982
 40
11.291392
 40
12.151317
 40
13.023727
 40
13.896137
 40
14.756062
 40
15.628473
 40
15.628473
 40
15.628473
 40
15.628473
 10
112.593024
 20
183.057064
 30
0.0
 10
112.563154
 20
183.349350
 30
0.0
 10
112.503842
 20
183.929740
 30
0.0
 10
112.043675
 20
184.696735
 30
0.0
 10
111.369913
 20
185.266975
 30
0.0
 10
110.535586
 20
185.569412
 30
0.0
 10
109.650271
 20
185.569412
 30
0.0
 10
108.817112
 20
185.266975
 30
0.0
 10
108.138684
 20
184.696735
 30
0.0
 10
107.695853
 20
183.929740
 30
0.0
 10
107.541239
 20
183.057064
 30
0.0
 10
107.695853
 20
182.184387
 30
0.0
 10
108.138684
 20
181.417392
 30
0.0
 10
108.817112
 20
180.847152
 30
0.0
 10
109.650271
 20
180.544716
 30
0.0
 10
110.535586
 20
180.544716
 30
0.0
 10
111.369913
 20
180.847152
 30
0.0
 10
112.043675
 20
181.417392
 30
0.0
 10
112.503842
 20
182.184387
 30
0.0
 10
112.563154
 20
182.764777
 30
0.0
 10
112.593024
 20
183.057064
 30
0.0
 11
112.593024
 21
183.057064
 31
0.0
 11
112.440840
 21
183.916098
 31
0.0
 11
112.010877
 21
184.660815
 31
0.0
 11
111.343024
 21
185.222127
 31
0.0
 11
110.522986
 21
185.519849
 31
0.0
 11
109.663062
 21
185.519849
 31
0.0
 11
108.843024
 21
185.222127
 31
0.0
 11
108.175171
 21
184.660815
 31
0.0
 11
107.745209
 21
183.916098
 31
0.0
 11
107.593024
 21
183.057064
 31
0.0
 11
107.745209
 21
182.198030
 31
0.0
 11
108.175171
 21
181.453313
 31
0.0
 11
108.843024
 21
180.892000
 31
0.0
 11
109.663062
 21
180.594279
 31
0.0
 11
110.522986
 21
180.594279
 31
0.0
 11
111.343024
 21
180.892000
 31
0.0
 11
112.010877
 21
181.453313
 31
0.0
 11
112.440840
 21
182.198030
 31
0.0
 11
112.593024
 21
183.057064
 31
0.0
  0
LWPOLYLINE
  5
164
100
AcDbEntity
  8
0
 62
1
100
AcDbPolyline
 90
23
 70
0
 10
70.596474
 20
166.118667
 30
0.0
 10
70.242731
 20
165.068667
 30
0.0
 10
69.535246
 20
164.368667
 30
0.0
 10
68.474017
 20
164.018667
 30
0.0
 10
68.120275
 20
164.018667
 30
0.0
 10
67.059047
 20
164.368667
 30
0.0
 10
66.351561
 20
165.068667
 30
0.0
 10
65.997818
 20
166.118667
 30
0.0
 10
65.997818
 20
166.468667
 30
0.0
 10
66.351561
 20
167.518667
 30
0.0
 10
67.059047
 20
168.218667
 30
0.0
 10
68.120275
 20
168.568667
 30
0.0
 10
68.474017
 20
168.568667
 30
0.0
 10
69.535246
 20
168.218667
 30
0.0
 10
70.242731
 20
167.518667
 30
0.0
 10
70.596474
 20
166.118667
 30
0.0
 10
70.596474
 20
164.368667
 30
0.0
 10
70.242731
 20
162.618667
 30
0.0
 10
69.535246
 20
161.568667
 30
0.0
 10
68.474017
 20
161.218667
 30
0.0
 10
67.766532
 20
161.218667
 30
0.0
 10
66.705304
 20
161.568667
 30
0.0
 10
66.351561
 20
162.268667
 30
0.0
  0
ENDSEC
  0
SECTION
  2
OBJECTS
  0
DICTIONARY
  5
C
330
0
100
AcDbDictionary
  3
ACAD_GROUP
350
D
  3
ACAD_MLINESTYLE
350
17
  0
DICTIONARY
  5
D
330
C
100
AcDbDictionary
  0
DICTIONARY
  5
1A
330
C
100
AcDbDictionary
  0
DICTIONARY
  5
17
330
C
100
AcDbDictionary
  3
STANDARD
350
18
  0
DICTIONARY
  5
19
330
C
100
AcDbDictionary
  0
ENDSEC
  0
EOF
