  0
SECTION
  2
HEADER
  9
$ACADVER
  1
AC1014
  9
$HANDSEED
  5
FFFF
  9
$MEASUREMENT
 70
     1
  0
ENDSEC
  0
SECTION
  2
TABLES
  0
TABLE
  2
VPORT
  5
8
330
0
100
AcDbSymbolTable
 70
     4
  0
VPORT
  5
2E
330
8
100
AcDbSymbolTableRecord
100
AcDbViewportTableRecord
  2
*ACTIVE
 70
     0
 10
0.0
 20
0.0
 11
1.0
 21
1.0
 12
210.0
 22
148.5
 13
0.0
 23
0.0
 14
10.0
 24
10.0
 15
10.0
 25
10.0
 16
0.0
 26
0.0
 36
1.0
 17
0.0
 27
0.0
 37
0.0
 40
341.0
 41
1.24
 42
50.0
 43
0.0
 44
0.0
 50
0.0
 51
0.0
 71
     0
 72
   100
 73
     1
 74
     3
 75
     0
 76
     0
 77
     0
 78
     0
  0
ENDTAB
  0
TABLE
  2
LTYPE
  5
5
330
0
100
AcDbSymbolTable
 70
     1
  0
LTYPE
  5
14
330
5
100
AcDbSymbolTableRecord
100
AcDbLinetypeTableRecord
  2
BYBLOCK
 70
     0
  3

 72
    65
 73
     0
 40
0.0
  0
LTYPE
  5
15
330
5
100
AcDbSymbolTableRecord
100
AcDbLinetypeTableRecord
  2
BYLAYER
 70
     0
  3

 72
    65
 73
     0
 40
0.0
  0
LTYPE
  5
16
330
5
100
AcDbSymbolTableRecord
100
AcDbLinetypeTableRecord
  2
CONTINUOUS
 70
     0
  3
Solid line
 72
    65
 73
     0
 40
0.0
  0
ENDTAB
  0
TABLE
  2
LAYER
  5
2
100
AcDbSymbolTable
 70
1
  0
LAYER
  5
50
100
AcDbSymbolTableRecord
100
AcDbLayerTableRecord
  2
0
 70
0
  6
CONTINUOUS
  0
ENDTAB
  0
TABLE
  2
STYLE
  5
3
330
0
100
AcDbSymbolTable
 70
     1
  0
STYLE
  5
11
330
3
100
AcDbSymbolTableRecord
100
AcDbTextStyleTableRecord
  2
STANDARD
 70
     0
 40
0.0
 41
1.0
 50
0.0
 71
     0
 42
2.5
  3
txt
  4

  0
ENDTAB
  0
TABLE
  2
VIEW
  5
6
330
0
100
AcDbSymbolTable
 70
     0
  0
ENDTAB
  0
TABLE
  2
UCS
  5
7
330
0
100
AcDbSymbolTable
 70
     0
  0
ENDTAB
  0
TABLE
  2
APPID
  5
9
330
0
100
AcDbSymbolTable
 70
     2
  0
APPID
  5
12
330
9
100
AcDbSymbolTableRecord
100
AcDbRegAppTableRecord
  2
ACAD
 70
     0
  0
ENDTAB
  0
TABLE
  2
DIMSTYLE
  5
A
330
0
100
AcDbSymbolTable
 70
     1
  0
DIMSTYLE
105
27
330
A
100
AcDbSymbolTableRecord
100
AcDbDimStyleTableRecord
  2
ISO-25
 70
     0
  3

  4

  5

  6

  7

 40
1.0
 41
2.5
 42
0.625
 43
3.75
 44
1.25
 45
0.0
 46
0.0
 47
0.0
 48
0.0
140
2.5
141
2.5
142
0.0
143
0.03937007874016
144
1.0
145
0.0
146
1.0
147
0.625
 71
     0
 72
     0
 73
     0
 74
     0
 75
     0
 76
     0
 77
     1
 78
     8
170
     0
171
     3
172
     1
173
     0
174
     0
175
     0
176
     0
177
     0
178
     0
270
     2
271
     2
272
     2
273
     2
274
     3
340
11
275
     0
280
     0
281
     0
282
     0
283
     0
284
     8
285
     0
286
     0
287
     3
288
     0
  0
ENDTAB
  0
TABLE
  2
BLOCK_RECORD
  5
1
330
0
100
AcDbSymbolTable
 70
     1
  0
BLOCK_RECORD
  5
1F
330
1
100
AcDbSymbolTableRecord
100
AcDbBlockTableRecord
  2
*MODEL_SPACE
  0
BLOCK_RECORD
  5
1B
330
1
100
AcDbSymbolTableRecord
100
AcDbBlockTableRecord
  2
*PAPER_SPACE
  0
ENDTAB
  0
ENDSEC
  0
SECTION
  2
BLOCKS
  0
BLOCK
  5
20
330
1F
100
AcDbEntity
  8
0
100
AcDbBlockBegin
  2
*MODEL_SPACE
 70
     0
 10
0.0
 20
0.0
 30
0.0
  3
*MODEL_SPACE
  1

  0
ENDBLK
  5
21
330
1F
100
AcDbEntity
  8
0
100
AcDbBlockEnd
  0
BLOCK
  5
1C
330
1B
100
AcDbEntity
 67
     1
  8
0
100
AcDbBlockBegin
  2
*PAPER_SPACE
  1

  0
ENDBLK
  5
1D
330
1B
100
AcDbEntity
 67
     1
  8
0
100
AcDbBlockEnd
  0
ENDSEC
  0
SECTION
  2
ENTITIES
  0
LWPOLYLINE
  5
100
100
AcDbEntity
  8
0
 62
1
100
AcDbPolyline
 90
4
 70
1
 10
-90.459221
 20
329.338330
 30
0.0
 10
206.349369
 20
329.338330
 30
0.0
 10
206.349369
 20
119.529750
 30
0.0
 10
-90.459221
 20
119.529750
 30
0.0
  0
SPLINE
  5
101
100
AcDbEntity
  8
0
 62
1
100
AcDbSpline
 70
0
 71
3
 72
22
 73
18
 74
16
 40
0.000000
 40
0.000000
 40
0.000000
 40
0.000000
 40
1.557234
 40
3.068281
 40
4.625515
 40
6.182749
 40
7.693795
 40
9.251029
 40
10.290351
 40
11.314798
 40
12.354120
 40
13.393441
 40
14.417889
 40
15.457210
 40
16.496532
 40
17.520979
 40
18.560300
 40
18.560300
 40
18.560300
 40
18.560300
 10
100.951670
 20
317.462320
 30
0.0
 10
100.869811
 20
316.937293
 30
0.0
 10
100.708521
 20
315.902810
 30
0.0
 10
99.522817
 20
314.763953
 30
0.0
 10
97.976070
 20
314.341882
 30
0.0
 10
96.413252
 20
314.764180
 30
0.0
 10
95.274807
 20
315.901925
 30
0.0
 10
94.901436
 20
317.290654
 30
0.0
 10
95.117821
 20
318.501556
 30
0.0
 10
95.645047
 20
319.415805
 30
0.0
 10
96.453361
 20
320.095007
 30
0.0
 10
97.445898
 20
320.455343
 30
0.0
 10
98.500600
 20
320.455333
 30
0.0
 10
99.494551
 20
320.095037
 30
0.0
 10
100.297219
 20
319.415696
 30
0.0
 10
100.845425
 20
318.501959
 30
0.0
 10
100.916085
 20
317.810527
 30
0.0
 10
100.951670
 20
317.462320
 30
0.0
 11
100.951670
 21
317.462320
 31
0.0
 11
100.545044
 21
315.959113
 31
0.0
 11
99.476572
 21
314.890641
 31
0.0
 11
97.973365
 21
314.484015
 31
0.0
 11
96.470157
 21
314.890641
 31
0.0
 11
95.401686
 21
315.959113
 31
0.0
 11
94.995060
 21
317.462320
 31
0.0
 11
95.176361
 21
318.485706
 31
0.0
 11
95.688584
 21
319.372903
 31
0.0
 11
96.484212
 21
320.041608
 31
0.0
 11
97.461141
 21
320.396290
 31
0.0
 11
98.485588
 21
320.396290
 31
0.0
 11
99.462517
 21
320.041608
 31
0.0
 11
100.258145
 21
319.372903
 31
0.0
 11
100.770369
 21
318.485706
 31
0.0
 11
100.951670
 21
317.462320
 31
0.0
  0
LWPOLYLINE
  5
102
100
AcDbEntity
  8
0
 62
1
100
AcDbPolyline
 90
1
 70
1
 10
100.951670
 20
317.462320
 30
0.0
  0
LWPOLYLINE
  5
103
100
AcDbEntity
  8
0
 62
1
100
AcDbPolyline
 90
1
 70
1
 10
180.954227
 20
317.463620
 30
0.0
  0
LWPOLYLINE
  5
104
100
AcDbEntity
  8
0
 62
5
100
AcDbPolyline
 90
2
 70
0
 10
-61.823443
 20
341.080669
 30
0.0
 10
-22.055002
 20
341.080669
 30
0.0
  0
SPLINE
  5
105
100
AcDbEntity
  8
0
 62
1
100
AcDbSpline
 70
0
 71
3
 72
25
 73
21
 74
19
 40
0.000000
 40
0.000000
 40
0.000000
 40
0.000000
 40
1.039764
 40
2.064647
 40
3.104411
 40
4.144175
 40
5.169058
 40
6.208822
 40
7.248586
 40
8.273469
 40
9.313233
 40
10.352996
 40
11.377880
 40
12.417644
 40
13.457407
 40
14.482291
 40
15.522054
 40
16.561818
 40
17.586702
 40
18.626465
 40
18.626465
 40
18.626465
 40
18.626465
 10
180.954227
 20
317.463620
 30
0.0
 10
180.918627
 20
317.115264
 30
0.0
 10
180.847937
 20
316.423539
 30
0.0
 10
180.299497
 20
315.509412
 30
0.0
 10
179.496488
 20
314.829784
 30
0.0
 10
178.502113
 20
314.469331
 30
0.0
 10
177.446968
 20
314.469331
 30
0.0
 10
176.453986
 20
314.829784
 30
0.0
 10
175.645416
 20
315.509412
 30
0.0
 10
175.117637
 20
316.423539
 30
0.0
 10
174.933363
 20
317.463620
 30
0.0
 10
175.117637
 20
318.503701
 30
0.0
 10
175.645416
 20
319.417828
 30
0.0
 10
176.453986
 20
320.097456
 30
0.0
 10
177.446968
 20
320.457909
 30
0.0
 10
178.502113
 20
320.457909
 30
0.0
 10
179.496488
 20
320.097456
 30
0.0
 10
180.299497
 20
319.417828
 30
0.0
 10
180.847937
 20
318.503701
 30
0.0
 10
180.918627
 20
317.811976
 30
0.0
 10
180.954227
 20
317.463620
 30
0.0
 11
180.954227
 21
317.463620
 31
0.0
 11
180.772849
 21
316.439798
 31
0.0
 11
180.260408
 21
315.552223
 31
0.0
 11
179.464441
 21
314.883235
 31
0.0
 11
178.487096
 21
314.528402
 31
0.0
 11
177.462213
 21
314.528402
 31
0.0
 11
176.484869
 21
314.883235
 31
0.0
 11
175.688902
 21
315.552223
 31
0.0
 11
175.176460
 21
316.439798
 31
0.0
 11
174.995082
 21
317.463620
 31
0.0
 11
175.176460
 21
318.487442
 31
0.0
 11
175.688902
 21
319.375017
 31
0.0
 11
176.484869
 21
320.044005
 31
0.0
 11
177.462213
 21
320.398838
 31
0.0
 11
178.487096
 21
320.398838
 31
0.0
 11
179.464441
 21
320.044005
 31
0.0
 11
180.260408
 21
319.375017
 31
0.0
 11
180.772849
 21
318.487442
 31
0.0
 11
180.954227
 21
317.463620
 31
0.0
  0
LWPOLYLINE
  5
106
100
AcDbEntity
  8
0
 62
5
100
AcDbPolyline
 90
2
 70
0
 10
-62.003110
 20
354.309835
 30
0.0
 10
-62.003110
 20
332.664679
 30
0.0
  0
SPLINE
  5
107
100
AcDbEntity
  8
0
 62
1
100
AcDbSpline
 70
0
 71
3
 72
25
 73
21
 74
19
 40
0.000000
 40
0.000000
 40
0.000000
 40
0.000000
 40
1.038821
 40
2.062774
 40
3.101595
 40
4.140416
 40
5.164369
 40
6.203190
 40
7.242011
 40
8.265964
 40
9.304785
 40
10.343606
 40
11.367559
 40
12.406380
 40
13.445201
 40
14.469154
 40
15.507975
 40
16.546795
 40
17.570749
 40
18.609570
 40
18.609570
 40
18.609570
 40
18.609570
 10
20.948807
 20
317.460891
 30
0.0
 10
20.913240
 20
317.112851
 30
0.0
 10
20.842614
 20
316.421753
 30
0.0
 10
20.294671
 20
315.508456
 30
0.0
 10
19.492391
 20
314.829444
 30
0.0
 10
18.498917
 20
314.469318
 30
0.0
 10
17.444730
 20
314.469318
 30
0.0
 10
16.452648
 20
314.829444
 30
0.0
 10
15.644812
 20
315.508456
 30
0.0
 10
15.117512
 20
316.421753
 30
0.0
 10
14.933405
 20
317.460891
 30
0.0
 10
15.117512
 20
318.500029
 30
0.0
 10
15.644812
 20
319.413326
 30
0.0
 10
16.452648
 20
320.092338
 30
0.0
 10
17.444730
 20
320.452464
 30
0.0
 10
18.498917
 20
320.452464
 30
0.0
 10
19.492391
 20
320.092338
 30
0.0
 10
20.294671
 20
319.413326
 30
0.0
 10
20.842614
 20
318.500029
 30
0.0
 10
20.913240
 20
317.808931
 30
0.0
 10
20.948807
 20
317.460891
 30
0.0
 11
20.948807
 21
317.460891
 31
0.0
 11
20.767594
 21
316.437998
 31
0.0
 11
20.255617
 21
315.551228
 31
0.0
 11
19.460373
 21
314.882846
 31
0.0
 11
18.483915
 21
314.528335
 31
0.0
 11
17.459961
 21
314.528335
 31
0.0
 11
16.483503
 21
314.882846
 31
0.0
 11
15.688258
 21
315.551228
 31
0.0
 11
15.176282
 21
316.437998
 31
0.0
 11
14.995068
 21
317.460891
 31
0.0
 11
15.176282
 21
318.483784
 31
0.0
 11
15.688258
 21
319.370554
 31
0.0
 11
16.483503
 21
320.038936
 31
0.0
 11
17.459961
 21
320.393447
 31
0.0
 11
18.483915
 21
320.393447
 31
0.0
 11
19.460373
 21
320.038936
 31
0.0
 11
20.255617
 21
319.370554
 31
0.0
 11
20.767594
 21
318.483784
 31
0.0
 11
20.948807
 21
317.460891
 31
0.0
  0
LWPOLYLINE
  5
108
100
AcDbEntity
  8
0
 62
1
100
AcDbPolyline
 90
1
 70
1
 10
20.948807
 20
317.460891
 30
0.0
  0
LWPOLYLINE
  5
109
100
AcDbEntity
  8
0
 62
1
100
AcDbPolyline
 90
1
 70
1
 10
-59.045787
 20
317.463592
 30
0.0
  0
LWPOLYLINE
  5
10a
100
AcDbEntity
  8
0
 62
5
100
AcDbPolyline
 90
2
 70
0
 10
17.945068
 20
341.080669
 30
0.0
 10
97.945068
 20
341.080669
 30
0.0
  0
LWPOLYLINE
  5
10b
100
AcDbEntity
  8
0
 62
5
100
AcDbPolyline
 90
2
 70
0
 10
17.996888
 20
354.309835
 30
0.0
 10
17.996888
 20
332.664679
 30
0.0
  0
SPLINE
  5
10c
100
AcDbEntity
  8
0
 62
1
100
AcDbSpline
 70
0
 71
3
 72
25
 73
21
 74
19
 40
0.000000
 40
0.000000
 40
0.000000
 40
0.000000
 40
1.039764
 40
2.064647
 40
3.104411
 40
4.144175
 40
5.169058
 40
6.208822
 40
7.248586
 40
8.273469
 40
9.313233
 40
10.352996
 40
11.377880
 40
12.417644
 40
13.457407
 40
14.482291
 40
15.522054
 40
16.561818
 40
17.586702
 40
18.626465
 40
18.626465
 40
18.626465
 40
18.626465
 10
-59.045787
 20
317.463592
 30
0.0
 10
-59.081387
 20
317.115236
 30
0.0
 10
-59.152077
 20
316.423511
 30
0.0
 10
-59.700517
 20
315.509384
 30
0.0
 10
-60.503526
 20
314.829756
 30
0.0
 10
-61.497901
 20
314.469303
 30
0.0
 10
-62.553046
 20
314.469303
 30
0.0
 10
-63.546028
 20
314.829756
 30
0.0
 10
-64.354598
 20
315.509384
 30
0.0
 10
-64.882377
 20
316.423511
 30
0.0
 10
-65.066651
 20
317.463592
 30
0.0
 10
-64.882377
 20
318.503673
 30
0.0
 10
-64.354598
 20
319.417800
 30
0.0
 10
-63.546028
 20
320.097428
 30
0.0
 10
-62.553046
 20
320.457881
 30
0.0
 10
-61.497901
 20
320.457881
 30
0.0
 10
-60.503526
 20
320.097428
 30
0.0
 10
-59.700517
 20
319.417800
 30
0.0
 10
-59.152077
 20
318.503673
 30
0.0
 10
-59.081387
 20
317.811948
 30
0.0
 10
-59.045787
 20
317.463592
 30
0.0
 11
-59.045787
 21
317.463592
 31
0.0
 11
-59.227165
 21
316.439770
 31
0.0
 11
-59.739606
 21
315.552195
 31
0.0
 11
-60.535573
 21
314.883207
 31
0.0
 11
-61.512918
 21
314.528374
 31
0.0
 11
-62.537801
 21
314.528374
 31
0.0
 11
-63.515145
 21
314.883207
 31
0.0
 11
-64.311112
 21
315.552195
 31
0.0
 11
-64.823554
 21
316.439770
 31
0.0
 11
-65.004932
 21
317.463592
 31
0.0
 11
-64.823554
 21
318.487414
 31
0.0
 11
-64.311112
 21
319.374989
 31
0.0
 11
-63.515145
 21
320.043977
 31
0.0
 11
-62.537801
 21
320.398810
 31
0.0
 11
-61.512918
 21
320.398810
 31
0.0
 11
-60.535573
 21
320.043977
 31
0.0
 11
-59.739606
 21
319.374989
 31
0.0
 11
-59.227165
 21
318.487414
 31
0.0
 11
-59.045787
 21
317.463592
 31
0.0
  0
LWPOLYLINE
  5
10d
100
AcDbEntity
  8
0
 62
5
100
AcDbPolyline
 90
2
 70
0
 10
97.996888
 20
354.309835
 30
0.0
 10
97.996888
 20
332.664679
 30
0.0
  0
SPLINE
  5
10e
100
AcDbEntity
  8
0
 62
5
100
AcDbSpline
 70
0
 71
3
 72
31
 73
27
 74
25
 40
0.000000
 40
0.000000
 40
0.000000
 40
0.000000
 40
0.247029
 40
0.467243
 40
0.675101
 40
0.877885
 40
1.086710
 40
1.318360
 40
1.550011
 40
1.758835
 40
1.961619
 40
2.169477
 40
2.389691
 40
2.636720
 40
2.883754
 40
3.103968
 40
3.311822
 40
3.516518
 40
3.725676
 40
3.956142
 40
4.187826
 40
4.396984
 40
4.600722
 40
4.807570
 40
5.027784
 40
5.276034
 40
5.276034
 40
5.276034
 40
5.276034
 10
47.857878
 20
346.661882
 30
0.0
 10
47.775313
 20
346.658019
 30
0.0
 10
47.619147
 20
346.650712
 30
0.0
 10
47.402771
 20
346.578174
 30
0.0
 10
47.226320
 20
346.458693
 30
0.0
 10
47.096309
 20
346.293864
 30
0.0
 10
47.019996
 20
346.090208
 30
0.0
 10
46.999018
 20
345.865374
 30
0.0
 10
47.019996
 20
345.640552
 30
0.0
 10
47.096309
 20
345.436861
 30
0.0
 10
47.226320
 20
345.272155
 30
0.0
 10
47.402771
 20
345.152197
 30
0.0
 10
47.619147
 20
345.081635
 30
0.0
 10
47.857882
 20
345.062119
 30
0.0
 10
48.096602
 20
345.081644
 30
0.0
 10
48.313019
 20
345.152162
 30
0.0
 10
48.489865
 20
345.272636
 30
0.0
 10
48.620640
 20
345.437613
 30
0.0
 10
48.698227
 20
345.641198
 30
0.0
 10
48.719621
 20
345.865795
 30
0.0
 10
48.698290
 20
346.090326
 30
0.0
 10
48.621037
 20
346.294278
 30
0.0
 10
48.489491
 20
346.457797
 30
0.0
 10
48.314144
 20
346.578609
 30
0.0
 10
48.097367
 20
346.650747
 30
0.0
 10
47.940830
 20
346.658025
 30
0.0
 10
47.857878
 20
346.661882
 30
0.0
 11
47.857878
 21
346.661882
 31
0.0
 11
47.611977
 21
346.638302
 31
0.0
 11
47.403433
 21
346.567563
 31
0.0
 11
47.232248
 21
346.449664
 31
0.0
 11
47.106692
 21
346.290424
 31
0.0
 11
47.031359
 21
346.095661
 31
0.0
 11
47.006248
 21
345.865376
 31
0.0
 11
47.031359
 21
345.635090
 31
0.0
 11
47.106692
 21
345.440328
 31
0.0
 11
47.232248
 21
345.281088
 31
0.0
 11
47.403433
 21
345.163189
 31
0.0
 11
47.611977
 21
345.092450
 31
0.0
 11
47.857878
 21
345.068870
 31
0.0
 11
48.103783
 21
345.092450
 31
0.0
 11
48.312327
 21
345.163189
 31
0.0
 11
48.483508
 21
345.281088
 31
0.0
 11
48.610597
 21
345.441553
 31
0.0
 11
48.686850
 21
345.636316
 31
0.0
 11
48.712268
 21
345.865376
 31
0.0
 11
48.686850
 21
346.095661
 31
0.0
 11
48.610597
 21
346.290424
 31
0.0
 11
48.483508
 21
346.449664
 31
0.0
 11
48.313549
 21
346.567563
 31
0.0
 11
48.105006
 21
346.638302
 31
0.0
 11
47.857878
 21
346.661882
 31
0.0
  0
SPLINE
  5
10f
100
AcDbEntity
  8
0
 62
5
100
AcDbSpline
 70
0
 71
3
 72
31
 73
27
 74
25
 40
0.000000
 40
0.000000
 40
0.000000
 40
0.000000
 40
0.234166
 40
0.451276
 40
0.661788
 40
0.869016
 40
1.079059
 40
1.303387
 40
1.611774
 40
1.896745
 40
2.185942
 40
2.494220
 40
2.829655
 40
3.210104
 40
3.591776
 40
3.927215
 40
4.234448
 40
4.523641
 40
4.808611
 40
5.116997
 40
5.341356
 40
5.551690
 40
5.759735
 40
5.968927
 40
6.184462
 40
6.416891
 40
6.416891
 40
6.416891
 40
6.416891
 10
47.301148
 20
346.898904
 30
0.0
 10
47.226063
 20
346.921149
 30
0.0
 10
47.081363
 20
346.964019
 30
0.0
 10
46.890128
 20
347.078706
 30
0.0
 10
46.735640
 20
347.225963
 30
0.0
 10
46.623271
 20
347.405108
 30
0.0
 10
46.556111
 20
347.610358
 30
0.0
 10
46.534455
 20
347.858408
 30
0.0
 10
46.565335
 20
348.132535
 30
0.0
 10
46.686221
 20
348.406369
 30
0.0
 10
46.889168
 20
348.625980
 30
0.0
 10
47.160227
 20
348.786149
 30
0.0
 10
47.491708
 20
348.879998
 30
0.0
 10
47.858296
 20
348.906125
 30
0.0
 10
48.224831
 20
348.880032
 30
0.0
 10
48.556567
 20
348.786491
 30
0.0
 10
48.826743
 20
348.625564
 30
0.0
 10
49.029570
 20
348.406408
 30
0.0
 10
49.150391
 20
348.132525
 30
0.0
 10
49.181387
 20
347.858391
 30
0.0
 10
49.159417
 20
347.610264
 30
0.0
 10
49.091407
 20
347.404717
 30
0.0
 10
48.977197
 20
347.227018
 30
0.0
 10
48.825026
 20
347.078632
 30
0.0
 10
48.635349
 20
346.964061
 30
0.0
 10
48.491832
 20
346.921162
 30
0.0
 10
48.417368
 20
346.898904
 30
0.0
 11
47.301148
 21
346.898904
 31
0.0
 11
47.079743
 21
346.975154
 31
0.0
 11
46.893250
 21
347.086316
 31
0.0
 11
46.741668
 21
347.232390
 31
0.0
 11
46.631423
 21
347.407860
 31
0.0
 11
46.565277
 21
347.607216
 31
0.0
 11
46.543228
 21
347.830458
 31
0.0
 11
46.582120
 21
348.136383
 31
0.0
 11
46.698797
 21
348.396373
 31
0.0
 11
46.893258
 21
348.610428
 31
0.0
 11
47.157224
 21
348.769668
 31
0.0
 11
47.478764
 21
348.865212
 31
0.0
 11
47.857878
 21
348.897060
 31
0.0
 11
48.238219
 21
348.865212
 31
0.0
 11
48.559762
 21
348.769668
 31
0.0
 11
48.822508
 21
348.610428
 31
0.0
 11
49.016963
 21
348.396373
 31
0.0
 11
49.133637
 21
348.136383
 31
0.0
 11
49.172528
 21
347.830458
 31
0.0
 11
49.150173
 21
347.607216
 31
0.0
 11
49.083110
 21
347.407860
 31
0.0
 11
48.971338
 21
347.232390
 31
0.0
 11
48.821590
 21
347.086318
 31
0.0
 11
48.636933
 21
346.975156
 31
0.0
 11
48.417368
 21
346.898904
 31
0.0
  0
LWPOLYLINE
  5
110
100
AcDbEntity
  8
0
 62
5
100
AcDbPolyline
 90
1
 70
1
 10
47.857878
 20
346.661882
 30
0.0
  0
SPLINE
  5
111
100
AcDbEntity
  8
0
 62
5
100
AcDbSpline
 70
0
 71
3
 72
31
 73
27
 74
25
 40
0.000000
 40
0.000000
 40
0.000000
 40
0.000000
 40
0.261656
 40
0.503358
 40
0.737268
 40
0.969506
 40
1.204244
 40
1.454778
 40
1.824809
 40
2.154231
 40
2.472094
 40
2.801783
 40
3.165913
 40
3.586036
 40
4.006462
 40
4.371469
 40
4.702446
 40
5.019333
 40
5.348416
 40
5.718414
 40
5.968947
 40
6.203687
 40
6.435927
 40
6.670944
 40
6.913437
 40
7.175382
 40
7.175382
 40
7.175382
 40
7.175382
 10
48.417368
 20
346.898904
 30
0.0
 10
48.501551
 20
346.875055
 30
0.0
 10
48.663498
 20
346.829176
 30
0.0
 10
48.877934
 20
346.703269
 30
0.0
 10
49.049588
 20
346.538599
 30
0.0
 10
49.177777
 20
346.340533
 30
0.0
 10
49.254513
 20
346.111248
 30
0.0
 10
49.278599
 20
345.825518
 30
0.0
 10
49.246687
 20
345.507571
 30
0.0
 10
49.123840
 20
345.185868
 30
0.0
 10
48.910484
 20
344.932023
 30
0.0
 10
48.620631
 20
344.750252
 30
0.0
 10
48.260123
 20
344.646443
 30
0.0
 10
47.857793
 20
344.617967
 30
0.0
 10
47.455074
 20
344.646437
 30
0.0
 10
47.094009
 20
344.750556
 30
0.0
 10
46.802664
 20
344.931044
 30
0.0
 10
46.590736
 20
345.186292
 30
0.0
 10
46.468865
 20
345.507695
 30
0.0
 10
46.437199
 20
345.825524
 30
0.0
 10
46.461219
 20
346.111266
 30
0.0
 10
46.538045
 20
346.340474
 30
0.0
 10
46.666155
 20
346.539136
 30
0.0
 10
46.839454
 20
346.703075
 30
0.0
 10
47.054551
 20
346.829090
 30
0.0
 10
47.216862
 20
346.875042
 30
0.0
 10
47.301148
 20
346.898904
 30
0.0
 11
48.417368
 21
346.898904
 31
0.0
 11
48.665718
 21
346.816526
 31
0.0
 11
48.874261
 21
346.694340
 31
0.0
 11
49.042998
 21
346.532346
 31
0.0
 11
49.168548
 21
346.336971
 31
0.0
 11
49.243878
 21
346.114648
 31
0.0
 11
49.268988
 21
345.865376
 31
0.0
 11
49.228260
 21
345.497593
 31
0.0
 11
49.106077
 21
345.191668
 31
0.0
 11
48.902438
 21
344.947602
 31
0.0
 11
48.624682
 21
344.769988
 31
0.0
 11
48.276496
 21
344.663420
 31
0.0
 11
47.857878
 21
344.627897
 31
0.0
 11
47.438954
 21
344.663420
 31
0.0
 11
47.089851
 21
344.769988
 31
0.0
 11
46.810568
 21
344.947602
 31
0.0
 11
46.608457
 21
345.191668
 31
0.0
 11
46.487190
 21
345.497593
 31
0.0
 11
46.446768
 21
345.865376
 31
0.0
 11
46.471879
 21
346.114648
 31
0.0
 11
46.547212
 21
346.336971
 31
0.0
 11
46.672768
 21
346.532346
 31
0.0
 11
46.843032
 21
346.694342
 31
0.0
 11
47.052492
 21
346.816528
 31
0.0
 11
47.301148
 21
346.898904
 31
0.0
  0
LWPOLYLINE
  5
112
100
AcDbEntity
  8
0
 62
5
100
AcDbPolyline
 90
1
 70
1
 10
47.301148
 20
346.898904
 30
0.0
  0
SPLINE
  5
113
100
AcDbEntity
  8
0
 62
5
100
AcDbSpline
 70
0
 71
3
 72
31
 73
27
 74
25
 40
0.000000
 40
0.000000
 40
0.000000
 40
0.000000
 40
0.198746
 40
0.377701
 40
0.552030
 40
0.733625
 40
0.930322
 40
1.154142
 40
1.376441
 40
1.572264
 40
1.753604
 40
1.929888
 40
2.109532
 40
2.308346
 40
2.507161
 40
2.686805
 40
2.863089
 40
3.044428
 40
3.240252
 40
3.462550
 40
3.686371
 40
3.883067
 40
4.064663
 40
4.238991
 40
4.417947
 40
4.616693
 40
4.616693
 40
4.616693
 40
4.616693
 10
47.097208
 20
347.778093
 30
0.0
 10
47.100831
 20
347.711597
 30
0.0
 10
47.107716
 20
347.585226
 30
0.0
 10
47.176788
 20
347.410924
 30
0.0
 10
47.291107
 20
347.270523
 30
0.0
 10
47.448592
 20
347.169557
 30
0.0
 10
47.642581
 20
347.110675
 30
0.0
 10
47.857386
 20
347.094455
 30
0.0
 10
48.071805
 20
347.110737
 30
0.0
 10
48.265112
 20
347.169533
 30
0.0
 10
48.421793
 20
347.271525
 30
0.0
 10
48.539674
 20
347.410186
 30
0.0
 10
48.608887
 20
347.584946
 30
0.0
 10
48.627848
 20
347.778093
 30
0.0
 10
48.608887
 20
347.971240
 30
0.0
 10
48.539674
 20
348.146000
 30
0.0
 10
48.421793
 20
348.284661
 30
0.0
 10
48.265112
 20
348.386653
 30
0.0
 10
48.071805
 20
348.445449
 30
0.0
 10
47.857386
 20
348.461731
 30
0.0
 10
47.642581
 20
348.445511
 30
0.0
 10
47.448592
 20
348.386629
 30
0.0
 10
47.291107
 20
348.285663
 30
0.0
 10
47.176788
 20
348.145262
 30
0.0
 10
47.107716
 20
347.970960
 30
0.0
 10
47.100831
 20
347.844589
 30
0.0
 10
47.097208
 20
347.778093
 30
0.0
 11
47.097208
 21
347.778093
 31
0.0
 11
47.119256
 21
347.580574
 31
0.0
 11
47.185399
 21
347.414291
 31
0.0
 11
47.295638
 21
347.279243
 31
0.0
 11
47.447531
 21
347.179718
 31
0.0
 11
47.634944
 21
347.120003
 31
0.0
 11
47.857878
 21
347.100098
 31
0.0
 11
48.079283
 21
347.120003
 31
0.0
 11
48.265780
 21
347.179718
 31
0.0
 11
48.417368
 21
347.279243
 31
0.0
 11
48.530673
 21
347.414291
 31
0.0
 11
48.598657
 21
347.580574
 31
0.0
 11
48.621318
 21
347.778093
 31
0.0
 11
48.598657
 21
347.975612
 31
0.0
 11
48.530673
 21
348.141895
 31
0.0
 11
48.417368
 21
348.276943
 31
0.0
 11
48.265780
 21
348.376468
 31
0.0
 11
48.079283
 21
348.436183
 31
0.0
 11
47.857878
 21
348.456088
 31
0.0
 11
47.634944
 21
348.436183
 31
0.0
 11
47.447531
 21
348.376468
 31
0.0
 11
47.295638
 21
348.276943
 31
0.0
 11
47.185399
 21
348.141895
 31
0.0
 11
47.119256
 21
347.975612
 31
0.0
 11
47.097208
 21
347.778093
 31
0.0
  0
LWPOLYLINE
  5
114
100
AcDbEntity
  8
0
 62
5
100
AcDbPolyline
 90
1
 70
1
 10
47.097208
 20
347.778093
 30
0.0
  0
SPLINE
  5
115
100
AcDbEntity
  8
0
 62
5
100
AcDbSpline
 70
0
 71
3
 72
31
 73
27
 74
25
 40
0.000000
 40
0.000000
 40
0.000000
 40
0.000000
 40
0.267247
 40
0.525368
 40
0.815319
 40
1.164937
 40
1.594473
 40
2.113472
 40
2.631247
 40
3.060784
 40
3.411554
 40
3.700260
 40
3.957878
 40
4.225072
 40
4.493467
 40
4.751082
 40
5.039073
 40
5.390366
 40
5.820057
 40
6.337846
 40
6.856859
 40
7.286550
 40
7.636693
 40
7.925931
 40
8.184048
 40
8.452498
 40
8.452498
 40
8.452498
 40
8.452498
 10
51.451808
 20
348.456088
 30
0.0
 10
51.361797
 20
348.447904
 30
0.0
 10
51.184848
 20
348.431815
 30
0.0
 10
50.952105
 20
348.271263
 30
0.0
 10
50.782021
 20
348.020045
 30
0.0
 10
50.667308
 20
347.679450
 30
0.0
 10
50.600930
 20
347.250627
 30
0.0
 10
50.582717
 20
346.761508
 30
0.0
 10
50.600884
 20
346.272394
 30
0.0
 10
50.667684
 20
345.843598
 30
0.0
 10
50.781276
 20
345.503042
 30
0.0
 10
50.952398
 20
345.251189
 30
0.0
 10
51.185070
 20
345.096500
 30
0.0
 10
51.452220
 20
345.054830
 30
0.0
 10
51.719324
 20
345.096333
 30
0.0
 10
51.952583
 20
345.250824
 30
0.0
 10
52.121804
 20
345.503807
 30
0.0
 10
52.237940
 20
345.843203
 30
0.0
 10
52.305200
 20
346.272391
 30
0.0
 10
52.323786
 20
346.761508
 30
0.0
 10
52.305154
 20
347.250630
 30
0.0
 10
52.238318
 20
347.679846
 30
0.0
 10
52.121058
 20
348.019283
 30
0.0
 10
51.952877
 20
348.271628
 30
0.0
 10
51.719551
 20
348.431998
 30
0.0
 10
51.542215
 20
348.447954
 30
0.0
 10
51.451808
 20
348.456088
 30
0.0
 11
51.451808
 21
348.456088
 31
0.0
 11
51.188754
 21
348.408928
 31
0.0
 11
50.972861
 21
348.267450
 31
0.0
 11
50.804128
 21
348.031652
 31
0.0
 11
50.684694
 21
347.703066
 31
0.0
 11
50.613034
 21
347.279549
 31
0.0
 11
50.589148
 21
346.761101
 31
0.0
 11
50.613034
 21
346.243877
 31
0.0
 11
50.684694
 21
345.820360
 31
0.0
 11
50.804128
 21
345.490549
 31
0.0
 11
50.972861
 21
345.256283
 31
0.0
 11
51.188754
 21
345.115723
 31
0.0
 11
51.451808
 21
345.068870
 31
0.0
 11
51.716082
 21
345.115723
 31
0.0
 11
51.931972
 21
345.256283
 31
0.0
 11
52.099478
 21
345.490549
 31
0.0
 11
52.220439
 21
345.820360
 31
0.0
 11
52.293016
 21
346.243877
 31
0.0
 11
52.317208
 21
346.761101
 31
0.0
 11
52.293016
 21
347.279549
 31
0.0
 11
52.220439
 21
347.703066
 31
0.0
 11
52.099478
 21
348.031652
 31
0.0
 11
51.931972
 21
348.267450
 31
0.0
 11
51.716082
 21
348.408928
 31
0.0
 11
51.451808
 21
348.456088
 31
0.0
  0
SPLINE
  5
116
100
AcDbEntity
  8
0
 62
5
100
AcDbSpline
 70
0
 71
3
 72
10
 73
6
 74
4
 40
0.000000
 40
0.000000
 40
0.000000
 40
0.000000
 40
0.429088
 40
0.825606
 40
1.238726
 40
1.238726
 40
1.238726
 40
1.238726
 10
51.451808
 20
348.897060
 30
0.0
 10
51.595384
 20
348.886672
 30
0.0
 10
51.871638
 20
348.866685
 30
0.0
 10
52.252853
 20
348.671302
 30
0.0
 10
52.421384
 20
348.457629
 30
0.0
 10
52.507378
 20
348.348601
 30
0.0
 11
51.451808
 21
348.897060
 31
0.0
 11
51.876547
 21
348.836120
 31
0.0
 11
52.228403
 21
348.653300
 31
0.0
 11
52.507378
 21
348.348601
 31
0.0
  0
SPLINE
  5
117
100
AcDbEntity
  8
0
 62
5
100
AcDbSpline
 70
0
 71
3
 72
19
 73
15
 74
13
 40
0.000000
 40
0.000000
 40
0.000000
 40
0.000000
 40
0.465798
 40
1.008888
 40
1.649594
 40
2.289077
 40
2.832167
 40
3.299068
 40
3.711060
 40
4.107155
 40
4.536200
 40
4.965554
 40
5.362470
 40
5.775503
 40
5.775503
 40
5.775503
 40
5.775503
 10
52.507378
 20
348.348601
 30
0.0
 10
52.582114
 20
348.211623
 30
0.0
 10
52.743989
 20
347.914939
 30
0.0
 10
52.850915
 20
347.368549
 30
0.0
 10
52.885828
 20
346.761913
 30
0.0
 10
52.852998
 20
346.152973
 30
0.0
 10
52.737184
 20
345.612272
 30
0.0
 10
52.536001
 20
345.177562
 30
0.0
 10
52.248413
 20
344.853712
 30
0.0
 10
51.872632
 20
344.661739
 30
0.0
 10
51.451370
 20
344.610104
 30
0.0
 10
51.031789
 20
344.662518
 30
0.0
 10
50.649835
 20
344.851235
 30
0.0
 10
50.480050
 20
345.064730
 30
0.0
 10
50.393468
 20
345.173601
 30
0.0
 11
52.507378
 21
348.348601
 31
0.0
 11
52.711022
 21
347.929677
 31
0.0
 11
52.833209
 21
347.400511
 31
0.0
 11
52.873938
 21
346.761101
 31
0.0
 11
52.833209
 21
346.122916
 31
0.0
 11
52.711022
 21
345.593749
 31
0.0
 11
52.507378
 21
345.173601
 31
0.0
 11
52.228403
 21
344.870432
 31
0.0
 11
51.876547
 21
344.688531
 31
0.0
 11
51.451808
 21
344.627897
 31
0.0
 11
51.026757
 21
344.688531
 31
0.0
 11
50.673977
 21
344.870432
 31
0.0
 11
50.393468
 21
345.173601
 31
0.0
  0
LWPOLYLINE
  5
118
100
AcDbEntity
  8
0
 62
5
100
AcDbPolyline
 90
1
 70
1
 10
51.451808
 20
348.456088
 30
0.0
  0
SPLINE
  5
119
100
AcDbEntity
  8
0
 62
5
100
AcDbSpline
 70
0
 71
3
 72
16
 73
12
 74
10
 40
0.000000
 40
0.000000
 40
0.000000
 40
0.000000
 40
0.466233
 40
1.009117
 40
1.648581
 40
2.289267
 40
2.832151
 40
3.297281
 40
3.711439
 40
4.108776
 40
4.538174
 40
4.538174
 40
4.538174
 40
4.538174
 10
50.393468
 20
345.173601
 30
0.0
 10
50.319302
 20
345.311034
 30
0.0
 10
50.158778
 20
345.608494
 30
0.0
 10
50.052545
 20
346.154528
 30
0.0
 10
50.017869
 20
346.761100
 30
0.0
 10
50.050397
 20
347.370000
 30
0.0
 10
50.165135
 20
347.910426
 30
0.0
 10
50.365334
 20
348.346269
 30
0.0
 10
50.653790
 20
348.668558
 30
0.0
 10
51.030370
 20
348.867323
 30
0.0
 10
51.307743
 20
348.886895
 30
0.0
 10
51.451808
 20
348.897060
 30
0.0
 11
50.393468
 21
345.173601
 31
0.0
 11
50.191357
 21
345.593749
 31
0.0
 11
50.070090
 21
346.122916
 31
0.0
 11
50.029668
 21
346.761101
 31
0.0
 11
50.070090
 21
347.400511
 31
0.0
 11
50.191357
 21
347.929677
 31
0.0
 11
50.393468
 21
348.348601
 31
0.0
 11
50.673977
 21
348.653300
 31
0.0
 11
51.026757
 21
348.836120
 31
0.0
 11
51.451808
 21
348.897060
 31
0.0
  0
LWPOLYLINE
  5
11a
100
AcDbEntity
  8
0
 62
5
100
AcDbPolyline
 90
1
 70
1
 10
51.451808
 20
348.897060
 30
0.0
  0
SPLINE
  5
11b
100
AcDbEntity
  8
0
 62
5
100
AcDbSpline
 70
0
 71
3
 72
19
 73
15
 74
13
 40
0.000000
 40
0.000000
 40
0.000000
 40
0.000000
 40
0.247937
 40
0.474305
 40
0.685794
 40
0.893290
 40
1.107872
 40
1.337033
 40
1.636458
 40
1.909031
 40
2.183054
 40
2.477501
 40
2.808905
 40
3.193409
 40
3.193409
 40
3.193409
 40
3.193409
 10
57.983708
 20
347.202073
 30
0.0
 10
58.026481
 20
347.272962
 30
0.0
 10
58.108306
 20
347.408572
 30
0.0
 10
58.262220
 20
347.579591
 30
0.0
 10
58.433416
 20
347.711977
 30
0.0
 10
58.625120
 20
347.804194
 30
0.0
 10
58.836729
 20
347.858187
 30
0.0
 10
59.084568
 20
347.876807
 30
0.0
 10
59.353294
 20
347.848465
 30
0.0
 10
59.615873
 20
347.731427
 30
0.0
 10
59.821208
 20
347.533091
 30
0.0
 10
59.967645
 20
347.267322
 30
0.0
 10
60.054003
 20
346.938297
 30
0.0
 10
60.062652
 20
346.699295
 30
0.0
 10
60.067298
 20
346.570931
 30
0.0
 11
57.983708
 21
347.202073
 31
0.0
 11
58.118756
 21
347.410003
 31
0.0
 11
58.270339
 21
347.578124
 31
0.0
 11
58.438458
 21
347.706435
 31
0.0
 11
58.625257
 21
347.796773
 31
0.0
 11
58.832880
 21
347.850975
 31
0.0
 11
59.061328
 21
347.869043
 31
0.0
 11
59.358374
 21
347.831377
 31
0.0
 11
59.606421
 21
347.718378
 31
0.0
 11
59.805468
 21
347.530046
 31
0.0
 11
59.950929
 21
347.274037
 31
0.0
 11
60.038206
 21
346.954332
 31
0.0
 11
60.067298
 21
346.570931
 31
0.0
  0
LWPOLYLINE
  5
11c
100
AcDbEntity
  8
0
 62
5
100
AcDbPolyline
 90
4
 70
0
 10
60.067298
 20
346.570931
 30
0.0
 10
60.067298
 20
344.707824
 30
0.0
 10
59.557428
 20
344.707824
 30
0.0
 10
59.557428
 20
346.554395
 30
0.0
  0
SPLINE
  5
11d
100
AcDbEntity
  8
0
 62
5
100
AcDbSpline
 70
0
 71
3
 72
19
 73
15
 74
13
 40
0.000000
 40
0.000000
 40
0.000000
 40
0.000000
 40
0.270964
 40
0.496690
 40
0.686659
 40
0.858178
 40
1.033358
 40
1.231404
 40
1.477502
 40
1.702722
 40
1.927125
 40
2.160452
 40
2.410312
 40
2.691664
 40
2.691664
 40
2.691664
 40
2.691664
 10
59.557428
 20
346.554395
 30
0.0
 10
59.554744
 20
346.644831
 30
0.0
 10
59.549823
 20
346.810604
 30
0.0
 10
59.499343
 20
347.035572
 30
0.0
 10
59.412537
 20
347.213955
 30
0.0
 10
59.282234
 20
347.342240
 30
0.0
 10
59.112083
 20
347.415718
 30
0.0
 10
58.904647
 20
347.435618
 30
0.0
 10
58.680650
 20
347.411623
 30
0.0
 10
58.462624
 20
347.322279
 30
0.0
 10
58.287373
 20
347.171189
 30
0.0
 10
58.158763
 20
346.970143
 30
0.0
 10
58.081185
 20
346.723887
 30
0.0
 10
58.073316
 20
346.546416
 30
0.0
 10
58.069148
 20
346.452420
 30
0.0
 11
59.557428
 21
346.554395
 31
0.0
 11
59.539972
 21
346.824797
 31
0.0
 11
59.487606
 21
347.044364
 31
0.0
 11
59.400328
 21
347.213097
 31
0.0
 11
59.277221
 21
347.332527
 31
0.0
 11
59.117368
 21
347.404185
 31
0.0
 11
58.920768
 21
347.428071
 31
0.0
 11
58.676396
 21
347.398979
 31
0.0
 11
58.468772
 21
347.311703
 31
0.0
 11
58.297898
 21
347.166244
 31
0.0
 11
58.170814
 21
346.970563
 31
0.0
 11
58.094564
 21
346.732621
 31
0.0
 11
58.069148
 21
346.452420
 31
0.0
  0
LWPOLYLINE
  5
11e
100
AcDbEntity
  8
0
 62
5
100
AcDbPolyline
 90
4
 70
0
 10
58.069148
 20
346.452420
 30
0.0
 10
58.069148
 20
344.707824
 30
0.0
 10
57.559268
 20
344.707824
 30
0.0
 10
57.559268
 20
346.554395
 30
0.0
  0
SPLINE
  5
11f
100
AcDbEntity
  8
0
 62
5
100
AcDbSpline
 70
0
 71
3
 72
19
 73
15
 74
13
 40
0.000000
 40
0.000000
 40
0.000000
 40
0.000000
 40
0.272187
 40
0.497912
 40
0.686794
 40
0.858749
 40
1.035604
 40
1.236687
 40
1.479784
 40
1.703676
 40
1.928615
 40
2.161685
 40
2.410670
 40
2.690497
 40
2.690497
 40
2.690497
 40
2.690497
 10
57.559268
 20
346.554395
 30
0.0
 10
57.556585
 20
346.645229
 30
0.0
 10
57.551677
 20
346.811391
 30
0.0
 10
57.501487
 20
347.036550
 30
0.0
 10
57.413999
 20
347.214340
 30
0.0
 10
57.283188
 20
347.342657
 30
0.0
 10
57.110971
 20
347.415759
 30
0.0
 10
56.903031
 20
347.435638
 30
0.0
 10
56.679411
 20
347.411361
 30
0.0
 10
56.463184
 20
347.320657
 30
0.0
 10
56.289744
 20
347.168286
 30
0.0
 10
56.160642
 20
346.967976
 30
0.0
 10
56.083085
 20
346.722555
 30
0.0
 10
56.075174
 20
346.545899
 30
0.0
 10
56.070988
 20
346.452420
 30
0.0
 11
57.559268
 21
346.554395
 31
0.0
 11
57.541812
 21
346.826021
 31
0.0
 11
57.489446
 21
347.045589
 31
0.0
 11
57.402168
 21
347.213097
 31
0.0
 11
57.278454
 21
347.332527
 31
0.0
 11
57.116768
 21
347.404185
 31
0.0
 11
56.917108
 21
347.428071
 31
0.0
 11
56.675796
 21
347.398673
 31
0.0
 11
56.470006
 21
347.310479
 31
0.0
 11
56.299738
 21
347.163488
 31
0.0
 11
56.172654
 21
346.968113
 31
0.0
 11
56.096404
 21
346.731090
 31
0.0
 11
56.070988
 21
346.452420
 31
0.0
  0
LWPOLYLINE
  5
120
100
AcDbEntity
  8
0
 62
5
100
AcDbPolyline
 90
6
 70
0
 10
56.070988
 20
346.452420
 30
0.0
 10
56.070988
 20
344.707824
 30
0.0
 10
55.561118
 20
344.707824
 30
0.0
 10
55.561118
 20
347.794629
 30
0.0
 10
56.070988
 20
347.794629
 30
0.0
 10
56.070988
 20
347.315072
 30
0.0
  0
SPLINE
  5
121
100
AcDbEntity
  8
0
 62
5
100
AcDbSpline
 70
0
 71
3
 72
19
 73
15
 74
13
 40
0.000000
 40
0.000000
 40
0.000000
 40
0.000000
 40
0.212274
 40
0.409109
 40
0.596416
 40
0.783878
 40
0.981091
 40
1.193841
 40
1.407516
 40
1.606033
 40
1.798572
 40
1.993461
 40
2.195843
 40
2.414489
 40
2.414489
 40
2.414489
 40
2.414489
 10
56.070988
 20
347.315072
 30
0.0
 10
56.110217
 20
347.374125
 30
0.0
 10
56.185821
 20
347.487937
 30
0.0
 10
56.327033
 20
347.629784
 30
0.0
 10
56.484089
 20
347.739536
 30
0.0
 10
56.660258
 20
347.815695
 30
0.0
 10
56.855359
 20
347.860097
 30
0.0
 10
57.063444
 20
347.874208
 30
0.0
 10
57.272216
 20
347.858061
 30
0.0
 10
57.467291
 20
347.800874
 30
0.0
 10
57.638622
 20
347.703538
 30
0.0
 10
57.784904
 20
347.570048
 30
0.0
 10
57.904645
 20
347.400734
 30
0.0
 10
57.956684
 20
347.269977
 30
0.0
 10
57.983708
 20
347.202073
 30
0.0
 11
56.070988
 21
347.315072
 31
0.0
 11
56.194398
 21
347.487786
 31
0.0
 11
56.333121
 21
347.627428
 31
0.0
 11
56.487158
 21
347.733996
 31
0.0
 11
56.658951
 21
347.809022
 31
0.0
 11
56.850958
 21
347.854038
 31
0.0
 11
57.063178
 21
347.869043
 31
0.0
 11
57.276008
 21
347.850057
 31
0.0
 11
57.466178
 21
347.793098
 31
0.0
 11
57.633688
 21
347.698167
 31
0.0
 11
57.777921
 21
347.567100
 31
0.0
 11
57.894594
 21
347.401735
 31
0.0
 11
57.983708
 21
347.202073
 31
0.0
  0
LWPOLYLINE
  5
122
100
AcDbEntity
  8
0
 62
5
100
AcDbPolyline
 90
1
 70
1
 10
57.983708
 20
347.202073
 30
0.0
  0
SPLINE
  5
123
100
AcDbEntity
  8
0
 62
5
100
AcDbSpline
 70
0
 71
3
 72
19
 73
15
 74
13
 40
0.000000
 40
0.000000
 40
0.000000
 40
0.000000
 40
0.247935
 40
0.474302
 40
0.685795
 40
0.893291
 40
1.107873
 40
1.337034
 40
1.636455
 40
1.909028
 40
2.183054
 40
2.477501
 40
2.808905
 40
3.193408
 40
3.193408
 40
3.193408
 40
3.193408
 10
63.484838
 20
347.202073
 30
0.0
 10
63.527609
 20
347.272962
 30
0.0
 10
63.609431
 20
347.408573
 30
0.0
 10
63.763346
 20
347.579592
 30
0.0
 10
63.934546
 20
347.711975
 30
0.0
 10
64.126250
 20
347.804194
 30
0.0
 10
64.337859
 20
347.858187
 30
0.0
 10
64.585697
 20
347.876807
 30
0.0
 10
64.854422
 20
347.848465
 30
0.0
 10
65.116998
 20
347.731426
 30
0.0
 10
65.322338
 20
347.533093
 30
0.0
 10
65.468775
 20
347.267321
 30
0.0
 10
65.555133
 20
346.938297
 30
0.0
 10
65.563782
 20
346.699295
 30
0.0
 10
65.568428
 20
346.570931
 30
0.0
 11
63.484838
 21
347.202073
 31
0.0
 11
63.619881
 21
347.410003
 31
0.0
 11
63.771464
 21
347.578124
 31
0.0
 11
63.939588
 21
347.706435
 31
0.0
 11
64.126387
 21
347.796773
 31
0.0
 11
64.334010
 21
347.850975
 31
0.0
 11
64.562458
 21
347.869043
 31
0.0
 11
64.859500
 21
347.831377
 31
0.0
 11
65.107547
 21
347.718378
 31
0.0
 11
65.306598
 21
347.530046
 31
0.0
 11
65.452059
 21
347.274037
 31
0.0
 11
65.539336
 21
346.954332
 31
0.0
 11
65.568428
 21
346.570931
 31
0.0
  0
LWPOLYLINE
  5
124
100
AcDbEntity
  8
0
 62
5
100
AcDbPolyline
 90
4
 70
0
 10
65.568428
 20
346.570931
 30
0.0
 10
65.568428
 20
344.707824
 30
0.0
 10
65.058548
 20
344.707824
 30
0.0
 10
65.058548
 20
346.554395
 30
0.0
  0
SPLINE
  5
125
100
AcDbEntity
  8
0
 62
5
100
AcDbSpline
 70
0
 71
3
 72
19
 73
15
 74
13
 40
0.000000
 40
0.000000
 40
0.000000
 40
0.000000
 40
0.270964
 40
0.496689
 40
0.686656
 40
0.858175
 40
1.033355
 40
1.231400
 40
1.477498
 40
1.702719
 40
1.927122
 40
2.160451
 40
2.410313
 40
2.691665
 40
2.691665
 40
2.691665
 40
2.691665
 10
65.058548
 20
346.554395
 30
0.0
 10
65.055864
 20
346.644831
 30
0.0
 10
65.050944
 20
346.810603
 30
0.0
 10
65.000466
 20
347.035571
 30
0.0
 10
64.913667
 20
347.213957
 30
0.0
 10
64.783364
 20
347.342240
 30
0.0
 10
64.613213
 20
347.415718
 30
0.0
 10
64.405777
 20
347.435618
 30
0.0
 10
64.181780
 20
347.411623
 30
0.0
 10
63.963753
 20
347.322280
 30
0.0
 10
63.788504
 20
347.171188
 30
0.0
 10
63.659887
 20
346.970144
 30
0.0
 10
63.582305
 20
346.723887
 30
0.0
 10
63.574436
 20
346.546416
 30
0.0
 10
63.570268
 20
346.452420
 30
0.0
 11
65.058548
 21
346.554395
 31
0.0
 11
65.041093
 21
346.824797
 31
0.0
 11
64.988730
 21
347.044364
 31
0.0
 11
64.901458
 21
347.213097
 31
0.0
 11
64.778351
 21
347.332527
 31
0.0
 11
64.618498
 21
347.404185
 31
0.0
 11
64.421898
 21
347.428071
 31
0.0
 11
64.177526
 21
347.398979
 31
0.0
 11
63.969902
 21
347.311703
 31
0.0
 11
63.799028
 21
347.166244
 31
0.0
 11
63.671939
 21
346.970563
 31
0.0
 11
63.595686
 21
346.732621
 31
0.0
 11
63.570268
 21
346.452420
 31
0.0
  0
LWPOLYLINE
  5
126
100
AcDbEntity
  8
0
 62
5
100
AcDbPolyline
 90
4
 70
0
 10
63.570268
 20
346.452420
 30
0.0
 10
63.570268
 20
344.707824
 30
0.0
 10
63.060398
 20
344.707824
 30
0.0
 10
63.060398
 20
346.554395
 30
0.0
  0
SPLINE
  5
127
100
AcDbEntity
  8
0
 62
5
100
AcDbSpline
 70
0
 71
3
 72
19
 73
15
 74
13
 40
0.000000
 40
0.000000
 40
0.000000
 40
0.000000
 40
0.272187
 40
0.497912
 40
0.686794
 40
0.858750
 40
1.035608
 40
1.236697
 40
1.479788
 40
1.703677
 40
1.928615
 40
2.161685
 40
2.410670
 40
2.690497
 40
2.690497
 40
2.690497
 40
2.690497
 10
63.060398
 20
346.554395
 30
0.0
 10
63.057715
 20
346.645229
 30
0.0
 10
63.052807
 20
346.811391
 30
0.0
 10
63.002617
 20
347.036550
 30
0.0
 10
62.915129
 20
347.214340
 30
0.0
 10
62.784316
 20
347.342658
 30
0.0
 10
62.612095
 20
347.415759
 30
0.0
 10
62.404155
 20
347.435638
 30
0.0
 10
62.180536
 20
347.411361
 30
0.0
 10
61.964312
 20
347.320656
 30
0.0
 10
61.790874
 20
347.168285
 30
0.0
 10
61.661772
 20
346.967976
 30
0.0
 10
61.584215
 20
346.722555
 30
0.0
 10
61.576304
 20
346.545899
 30
0.0
 10
61.572118
 20
346.452420
 30
0.0
 11
63.060398
 21
346.554395
 31
0.0
 11
63.042942
 21
346.826021
 31
0.0
 11
62.990576
 21
347.045589
 31
0.0
 11
62.903298
 21
347.213097
 31
0.0
 11
62.779583
 21
347.332527
 31
0.0
 11
62.617893
 21
347.404185
 31
0.0
 11
62.418228
 21
347.428071
 31
0.0
 11
62.176921
 21
347.398673
 31
0.0
 11
61.971134
 21
347.310479
 31
0.0
 11
61.800868
 21
347.163488
 31
0.0
 11
61.673784
 21
346.968113
 31
0.0
 11
61.597534
 21
346.731090
 31
0.0
 11
61.572118
 21
346.452420
 31
0.0
  0
LWPOLYLINE
  5
128
100
AcDbEntity
  8
0
 62
5
100
AcDbPolyline
 90
6
 70
0
 10
61.572118
 20
346.452420
 30
0.0
 10
61.572118
 20
344.707824
 30
0.0
 10
61.062238
 20
344.707824
 30
0.0
 10
61.062238
 20
347.794629
 30
0.0
 10
61.572118
 20
347.794629
 30
0.0
 10
61.572118
 20
347.315072
 30
0.0
  0
LWPOLYLINE
  5
129
100
AcDbEntity
  8
0
 62
5
100
AcDbPolyline
 90
1
 70
1
 10
63.484838
 20
347.202073
 30
0.0
  0
LWPOLYLINE
  5
12a
100
AcDbEntity
  8
0
 62
5
100
AcDbPolyline
 90
2
 70
0
 10
177.996888
 20
354.309835
 30
0.0
 10
177.996888
 20
332.664679
 30
0.0
  0
LWPOLYLINE
  5
12b
100
AcDbEntity
  8
0
 62
5
100
AcDbPolyline
 90
2
 70
0
 10
-90.417794
 20
341.080669
 30
0.0
 10
-62.054932
 20
341.080669
 30
0.0
  0
LWPOLYLINE
  5
12c
100
AcDbEntity
  8
0
 62
5
100
AcDbPolyline
 90
2
 70
0
 10
-90.503110
 20
354.309835
 30
0.0
 10
-90.503110
 20
332.664679
 30
0.0
  0
SPLINE
  5
12d
100
AcDbEntity
  8
0
 62
5
100
AcDbSpline
 70
0
 71
3
 72
19
 73
15
 74
13
 40
0.000000
 40
0.000000
 40
0.000000
 40
0.000000
 40
0.212274
 40
0.409109
 40
0.596416
 40
0.783878
 40
0.981091
 40
1.193841
 40
1.407515
 40
1.606028
 40
1.798563
 40
1.993456
 40
2.195839
 40
2.414486
 40
2.414486
 40
2.414486
 40
2.414486
 10
61.572118
 20
347.315072
 30
0.0
 10
61.611347
 20
347.374125
 30
0.0
 10
61.686951
 20
347.487937
 30
0.0
 10
61.828163
 20
347.629784
 30
0.0
 10
61.985219
 20
347.739536
 30
0.0
 10
62.161388
 20
347.815695
 30
0.0
 10
62.356489
 20
347.860097
 30
0.0
 10
62.564573
 20
347.874208
 30
0.0
 10
62.773344
 20
347.858061
 30
0.0
 10
62.968417
 20
347.800875
 30
0.0
 10
63.139743
 20
347.703534
 30
0.0
 10
63.286030
 20
347.570050
 30
0.0
 10
63.405774
 20
347.400735
 30
0.0
 10
63.457813
 20
347.269977
 30
0.0
 10
63.484838
 20
347.202073
 30
0.0
 11
61.572118
 21
347.315072
 31
0.0
 11
61.695528
 21
347.487786
 31
0.0
 11
61.834251
 21
347.627428
 31
0.0
 11
61.988288
 21
347.733996
 31
0.0
 11
62.160081
 21
347.809022
 31
0.0
 11
62.352088
 21
347.854038
 31
0.0
 11
62.564308
 21
347.869043
 31
0.0
 11
62.777137
 21
347.850057
 31
0.0
 11
62.967303
 21
347.793098
 31
0.0
 11
63.134808
 21
347.698167
 31
0.0
 11
63.279047
 21
347.567100
 31
0.0
 11
63.395723
 21
347.401735
 31
0.0
 11
63.484838
 21
347.202073
 31
0.0
  0
LWPOLYLINE
  5
12e
100
AcDbEntity
  8
0
 62
5
100
AcDbPolyline
 90
5
 70
0
 10
-87.070766
 20
345.176364
 30
0.0
 10
-85.127732
 20
345.176364
 30
0.0
 10
-85.127732
 20
344.707831
 30
0.0
 10
-87.740493
 20
344.707831
 30
0.0
 10
-87.740493
 20
345.176364
 30
0.0
  0
SPLINE
  5
12f
100
AcDbEntity
  8
0
 62
5
100
AcDbSpline
 70
0
 71
3
 72
31
 73
27
 74
25
 40
0.000000
 40
0.000000
 40
0.000000
 40
0.000000
 40
0.339565
 40
0.750139
 40
1.231729
 40
1.688422
 40
2.019127
 40
2.223911
 40
2.472304
 40
2.681962
 40
2.854276
 40
3.005305
 40
3.146801
 40
3.282376
 40
3.489157
 40
3.683373
 40
3.881936
 40
4.085534
 40
4.296461
 40
4.528194
 40
4.706400
 40
4.893530
 40
5.091481
 40
5.301388
 40
5.527590
 40
5.771125
 40
5.771125
 40
5.771125
 40
5.771125
 10
-87.740493
 20
345.176364
 30
0.0
 10
-87.661661
 20
345.257587
 30
0.0
 10
-87.487511
 20
345.437017
 30
0.0
 10
-87.199793
 20
345.729922
 30
0.0
 10
-86.883604
 20
346.049580
 30
0.0
 10
-86.586513
 20
346.350684
 30
0.0
 10
-86.356124
 20
346.587972
 30
0.0
 10
-86.177810
 20
346.779015
 30
0.0
 10
-86.034853
 20
346.947641
 30
0.0
 10
-85.909027
 20
347.116168
 30
0.0
 10
-85.816840
 20
347.268520
 30
0.0
 10
-85.754631
 20
347.410961
 30
0.0
 10
-85.717550
 20
347.549474
 30
0.0
 10
-85.703562
 20
347.710793
 30
0.0
 10
-85.724465
 20
347.890663
 30
0.0
 10
-85.804237
 20
348.077309
 30
0.0
 10
-85.936367
 20
348.229400
 30
0.0
 10
-86.106738
 20
348.346436
 30
0.0
 10
-86.313434
 20
348.415702
 30
0.0
 10
-86.521100
 20
348.433413
 30
0.0
 10
-86.720076
 20
348.421248
 30
0.0
 10
-86.905597
 20
348.390321
 30
0.0
 10
-87.097554
 20
348.339310
 30
0.0
 10
-87.296296
 20
348.266793
 30
0.0
 10
-87.503574
 20
348.174814
 30
0.0
 10
-87.641450
 20
348.100503
 30
0.0
 10
-87.712932
 20
348.061976
 30
0.0
 11
-87.740493
 21
345.176364
 31
0.0
 11
-87.503776
 21
345.419817
 31
0.0
 11
-87.216226
 21
345.712880
 31
0.0
 11
-86.877841
 21
346.055553
 31
0.0
 11
-86.557523
 21
346.381076
 31
0.0
 11
-86.327850
 21
346.619017
 31
0.0
 11
-86.188822
 21
346.769376
 31
0.0
 11
-86.028663
 21
346.959239
 31
0.0
 11
-85.904640
 21
347.128279
 31
0.0
 11
-85.816751
 21
347.276495
 31
0.0
 11
-85.757036
 21
347.415217
 31
0.0
 11
-85.721207
 21
347.552102
 31
0.0
 11
-85.709264
 21
347.687150
 31
0.0
 11
-85.734988
 21
347.892325
 31
0.0
 11
-85.812158
 21
348.070551
 31
0.0
 11
-85.940775
 21
348.221829
 31
0.0
 11
-86.108895
 21
348.336665
 31
0.0
 11
-86.308252
 21
348.405567
 31
0.0
 11
-86.538843
 21
348.428534
 31
0.0
 11
-86.716763
 21
348.418428
 31
0.0
 11
-86.901420
 21
348.388112
 31
0.0
 11
-87.092815
 21
348.337584
 31
0.0
 11
-87.290333
 21
348.266539
 31
0.0
 11
-87.497039
 21
348.174669
 31
0.0
 11
-87.712932
 21
348.061976
 31
0.0
  0
LWPOLYLINE
  5
130
100
AcDbEntity
  8
0
 62
5
100
AcDbPolyline
 90
2
 70
0
 10
-87.712932
 20
348.061976
 30
0.0
 10
-87.712932
 20
348.624216
 30
0.0
  0
SPLINE
  5
131
100
AcDbEntity
  8
0
 62
5
100
AcDbSpline
 70
0
 71
3
 72
31
 73
27
 74
25
 40
0.000000
 40
0.000000
 40
0.000000
 40
0.000000
 40
0.234333
 40
0.454551
 40
0.661201
 40
0.854284
 40
1.033984
 40
1.201361
 40
1.600432
 40
1.956662
 40
2.290226
 40
2.607759
 40
2.919498
 40
3.254739
 40
3.421367
 40
3.585322
 40
3.749570
 40
3.928290
 40
4.140309
 40
4.387444
 40
4.505150
 40
4.717654
 40
5.024984
 40
5.426266
 40
5.923254
 40
6.515952
 40
6.515952
 40
6.515952
 40
6.515952
 10
-87.712932
 20
348.624216
 30
0.0
 10
-87.640108
 20
348.652500
 30
0.0
 10
-87.498846
 20
348.707365
 30
0.0
 10
-87.289047
 20
348.775294
 30
0.0
 10
-87.089428
 20
348.829130
 30
0.0
 10
-86.900073
 20
348.867829
 30
0.0
 10
-86.721373
 20
348.891597
 30
0.0
 10
-86.472707
 20
348.902545
 30
0.0
 10
-86.164173
 20
348.877289
 30
0.0
 10
-85.813148
 20
348.772229
 30
0.0
 10
-85.524672
 20
348.592537
 30
0.0
 10
-85.305494
 20
348.351393
 30
0.0
 10
-85.174090
 20
348.052024
 30
0.0
 10
-85.143131
 20
347.779051
 30
0.0
 10
-85.156643
 20
347.557142
 30
0.0
 10
-85.189083
 20
347.394837
 30
0.0
 10
-85.244533
 20
347.234698
 30
0.0
 10
-85.328483
 20
347.069219
 30
0.0
 10
-85.446228
 20
346.892018
 30
0.0
 10
-85.560139
 20
346.736556
 30
0.0
 10
-85.691584
 20
346.595830
 30
0.0
 10
-85.837737
 20
346.441614
 30
0.0
 10
-86.050389
 20
346.220104
 30
0.0
 10
-86.331164
 20
345.932602
 30
0.0
 10
-86.678316
 20
345.576954
 30
0.0
 10
-86.932508
 20
345.317490
 30
0.0
 10
-87.070766
 20
345.176363
 30
0.0
 11
-87.712932
 21
348.624216
 31
0.0
 11
-87.493671
 21
348.706898
 31
0.0
 11
-87.284209
 21
348.774882
 31
0.0
 11
-87.084546
 21
348.828166
 31
0.0
 11
-86.895296
 21
348.866444
 31
0.0
 11
-86.717070
 21
348.889410
 31
0.0
 11
-86.549868
 21
348.897066
 31
0.0
 11
-86.152380
 21
348.861543
 31
0.0
 11
-85.812464
 21
348.754975
 31
0.0
 11
-85.530119
 21
348.577362
 31
0.0
 11
-85.318820
 21
348.340339
 31
0.0
 11
-85.192041
 21
348.055545
 31
0.0
 11
-85.149781
 21
347.722978
 31
0.0
 11
-85.160499
 21
347.556695
 31
0.0
 11
-85.192653
 21
347.395924
 31
0.0
 11
-85.246244
 21
347.240665
 31
0.0
 11
-85.326170
 21
347.080812
 31
0.0
 11
-85.441007
 21
346.902586
 31
0.0
 11
-85.590753
 21
346.705986
 31
0.0
 11
-85.670067
 21
346.619015
 31
0.0
 11
-85.816139
 21
346.464674
 31
0.0
 11
-86.028970
 21
346.242965
 31
0.0
 11
-86.308864
 21
345.955414
 31
0.0
 11
-86.656130
 21
345.599880
 31
0.0
 11
-87.070766
 21
345.176363
 31
0.0
  0
LWPOLYLINE
  5
132
100
AcDbEntity
  8
0
 62
5
100
AcDbPolyline
 90
1
 70
1
 10
-87.070766
 20
345.176363
 30
0.0
  0
SPLINE
  5
133
100
AcDbEntity
  8
0
 62
5
100
AcDbSpline
 70
0
 71
3
 72
31
 73
27
 74
25
 40
0.000000
 40
0.000000
 40
0.000000
 40
0.000000
 40
0.247031
 40
0.467245
 40
0.675101
 40
0.877885
 40
1.086709
 40
1.318360
 40
1.550010
 40
1.758834
 40
1.961618
 40
2.169474
 40
2.389688
 40
2.636719
 40
2.883750
 40
3.103964
 40
3.311819
 40
3.516514
 40
3.725671
 40
3.956137
 40
4.187822
 40
4.396979
 40
4.600715
 40
4.807562
 40
5.027777
 40
5.276027
 40
5.276027
 40
5.276027
 40
5.276027
 10
-82.765775
 20
346.661890
 30
0.0
 10
-82.848340
 20
346.658027
 30
0.0
 10
-83.004507
 20
346.650720
 30
0.0
 10
-83.220883
 20
346.578183
 30
0.0
 10
-83.397332
 20
346.458701
 30
0.0
 10
-83.527342
 20
346.293871
 30
0.0
 10
-83.603654
 20
346.090215
 30
0.0
 10
-83.624633
 20
345.865381
 30
0.0
 10
-83.603654
 20
345.640560
 30
0.0
 10
-83.527342
 20
345.436869
 30
0.0
 10
-83.397332
 20
345.272163
 30
0.0
 10
-83.220883
 20
345.152203
 30
0.0
 10
-83.004507
 20
345.081642
 30
0.0
 10
-82.765772
 20
345.062126
 30
0.0
 10
-82.527052
 20
345.081651
 30
0.0
 10
-82.310636
 20
345.152170
 30
0.0
 10
-82.133788
 20
345.272641
 30
0.0
 10
-82.003016
 20
345.437621
 30
0.0
 10
-81.925431
 20
345.641205
 30
0.0
 10
-81.904038
 20
345.865802
 30
0.0
 10
-81.925369
 20
346.090333
 30
0.0
 10
-82.002619
 20
346.294285
 30
0.0
 10
-82.134162
 20
346.457806
 30
0.0
 10
-82.309508
 20
346.578617
 30
0.0
 10
-82.526286
 20
346.650755
 30
0.0
 10
-82.682822
 20
346.658033
 30
0.0
 10
-82.765775
 20
346.661890
 30
0.0
 11
-82.765775
 21
346.661890
 31
0.0
 11
-83.011678
 21
346.638310
 31
0.0
 11
-83.220221
 21
346.567571
 31
0.0
 11
-83.391404
 21
346.449672
 31
0.0
 11
-83.516959
 21
346.290432
 31
0.0
 11
-83.592291
 21
346.095669
 31
0.0
 11
-83.617402
 21
345.865383
 31
0.0
 11
-83.592291
 21
345.635098
 31
0.0
 11
-83.516959
 21
345.440335
 31
0.0
 11
-83.391404
 21
345.281095
 31
0.0
 11
-83.220221
 21
345.163196
 31
0.0
 11
-83.011678
 21
345.092457
 31
0.0
 11
-82.765775
 21
345.068877
 31
0.0
 11
-82.519871
 21
345.092457
 31
0.0
 11
-82.311328
 21
345.163196
 31
0.0
 11
-82.140145
 21
345.281095
 31
0.0
 11
-82.013060
 21
345.441560
 31
0.0
 11
-81.936808
 21
345.636323
 31
0.0
 11
-81.911391
 21
345.865383
 31
0.0
 11
-81.936808
 21
346.095669
 31
0.0
 11
-82.013060
 21
346.290432
 31
0.0
 11
-82.140145
 21
346.449672
 31
0.0
 11
-82.310103
 21
346.567571
 31
0.0
 11
-82.518647
 21
346.638310
 31
0.0
 11
-82.765775
 21
346.661890
 31
0.0
  0
SPLINE
  5
134
100
AcDbEntity
  8
0
 62
5
100
AcDbSpline
 70
0
 71
3
 72
31
 73
27
 74
25
 40
0.000000
 40
0.000000
 40
0.000000
 40
0.000000
 40
0.234167
 40
0.451278
 40
0.661789
 40
0.869017
 40
1.079060
 40
1.303389
 40
1.611775
 40
1.896745
 40
2.185939
 40
2.494221
 40
2.829658
 40
3.210107
 40
3.591776
 40
3.927213
 40
4.234447
 40
4.523641
 40
4.808610
 40
5.116997
 40
5.341356
 40
5.551691
 40
5.759737
 40
5.968928
 40
6.184463
 40
6.416894
 40
6.416894
 40
6.416894
 40
6.416894
 10
-83.322502
 20
346.898912
 30
0.0
 10
-83.397587
 20
346.921158
 30
0.0
 10
-83.542287
 20
346.964029
 30
0.0
 10
-83.733522
 20
347.078716
 30
0.0
 10
-83.888015
 20
347.225969
 30
0.0
 10
-84.000381
 20
347.405116
 30
0.0
 10
-84.067540
 20
347.610366
 30
0.0
 10
-84.089195
 20
347.858416
 30
0.0
 10
-84.058317
 20
348.132542
 30
0.0
 10
-83.937434
 20
348.406376
 30
0.0
 10
-83.734491
 20
348.625991
 30
0.0
 10
-83.463428
 20
348.786156
 30
0.0
 10
-83.131945
 20
348.880005
 30
0.0
 10
-82.765358
 20
348.906132
 30
0.0
 10
-82.398823
 20
348.880039
 30
0.0
 10
-82.067089
 20
348.786498
 30
0.0
 10
-81.796913
 20
348.625572
 30
0.0
 10
-81.594085
 20
348.406416
 30
0.0
 10
-81.473263
 20
348.132533
 30
0.0
 10
-81.442267
 20
347.858399
 30
0.0
 10
-81.464237
 20
347.610272
 30
0.0
 10
-81.532249
 20
347.404724
 30
0.0
 10
-81.646460
 20
347.227026
 30
0.0
 10
-81.798631
 20
347.078639
 30
0.0
 10
-81.988309
 20
346.964069
 30
0.0
 10
-82.131826
 20
346.921170
 30
0.0
 10
-82.206291
 20
346.898912
 30
0.0
 11
-83.322502
 21
346.898912
 31
0.0
 11
-83.543907
 21
346.975164
 31
0.0
 11
-83.730402
 21
347.086325
 31
0.0
 11
-83.881986
 21
347.232397
 31
0.0
 11
-83.992229
 21
347.407867
 31
0.0
 11
-84.058375
 21
347.607224
 31
0.0
 11
-84.080423
 21
347.830466
 31
0.0
 11
-84.041532
 21
348.136391
 31
0.0
 11
-83.924858
 21
348.396381
 31
0.0
 11
-83.730402
 21
348.610436
 31
0.0
 11
-83.466431
 21
348.769675
 31
0.0
 11
-83.144888
 21
348.865219
 31
0.0
 11
-82.765775
 21
348.897067
 31
0.0
 11
-82.385436
 21
348.865219
 31
0.0
 11
-82.063894
 21
348.769675
 31
0.0
 11
-81.801148
 21
348.610436
 31
0.0
 11
-81.606692
 21
348.396381
 31
0.0
 11
-81.490018
 21
348.136391
 31
0.0
 11
-81.451126
 21
347.830466
 31
0.0
 11
-81.473481
 21
347.607224
 31
0.0
 11
-81.540546
 21
347.407867
 31
0.0
 11
-81.652320
 21
347.232397
 31
0.0
 11
-81.802067
 21
347.086325
 31
0.0
 11
-81.986724
 21
346.975164
 31
0.0
 11
-82.206291
 21
346.898912
 31
0.0
  0
LWPOLYLINE
  5
135
100
AcDbEntity
  8
0
 62
5
100
AcDbPolyline
 90
1
 70
1
 10
-82.765775
 20
346.661890
 30
0.0
  0
SPLINE
  5
136
100
AcDbEntity
  8
0
 62
5
100
AcDbSpline
 70
0
 71
3
 72
31
 73
27
 74
25
 40
0.000000
 40
0.000000
 40
0.000000
 40
0.000000
 40
0.261659
 40
0.503360
 40
0.737269
 40
0.969509
 40
1.204249
 40
1.454782
 40
1.824813
 40
2.154236
 40
2.472102
 40
2.801787
 40
3.165915
 40
3.586037
 40
4.006464
 40
4.371470
 40
4.702447
 40
5.019334
 40
5.348417
 40
5.718414
 40
5.968948
 40
6.203688
 40
6.435928
 40
6.670944
 40
6.913439
 40
7.175388
 40
7.175388
 40
7.175388
 40
7.175388
 10
-82.206291
 20
346.898912
 30
0.0
 10
-82.122107
 20
346.875063
 30
0.0
 10
-81.960159
 20
346.829184
 30
0.0
 10
-81.745722
 20
346.703278
 30
0.0
 10
-81.574072
 20
346.538605
 30
0.0
 10
-81.445878
 20
346.340542
 30
0.0
 10
-81.369139
 20
346.111256
 30
0.0
 10
-81.345052
 20
345.825525
 30
0.0
 10
-81.376965
 20
345.507578
 30
0.0
 10
-81.499815
 20
345.185874
 30
0.0
 10
-81.713175
 20
344.932034
 30
0.0
 10
-82.003024
 20
344.750259
 30
0.0
 10
-82.363531
 20
344.646451
 30
0.0
 10
-82.765860
 20
344.617975
 30
0.0
 10
-83.168579
 20
344.646445
 30
0.0
 10
-83.529644
 20
344.750564
 30
0.0
 10
-83.820988
 20
344.931052
 30
0.0
 10
-84.032916
 20
345.186300
 30
0.0
 10
-84.154788
 20
345.507702
 30
0.0
 10
-84.186455
 20
345.825531
 30
0.0
 10
-84.162435
 20
346.111273
 30
0.0
 10
-84.085609
 20
346.340481
 30
0.0
 10
-83.957501
 20
346.539144
 30
0.0
 10
-83.784201
 20
346.703083
 30
0.0
 10
-83.569102
 20
346.829097
 30
0.0
 10
-83.406789
 20
346.875050
 30
0.0
 10
-83.322502
 20
346.898912
 30
0.0
 11
-82.206291
 21
346.898912
 31
0.0
 11
-81.957938
 21
346.816534
 31
0.0
 11
-81.749395
 21
346.694348
 31
0.0
 11
-81.580662
 21
346.532354
 31
0.0
 11
-81.455107
 21
346.336979
 31
0.0
 11
-81.379775
 21
346.114655
 31
0.0
 11
-81.354664
 21
345.865383
 31
0.0
 11
-81.395392
 21
345.497600
 31
0.0
 11
-81.517578
 21
345.191676
 31
0.0
 11
-81.721222
 21
344.947610
 31
0.0
 11
-81.998973
 21
344.769996
 31
0.0
 11
-82.347157
 21
344.663428
 31
0.0
 11
-82.765775
 21
344.627905
 31
0.0
 11
-83.184698
 21
344.663428
 31
0.0
 11
-83.533801
 21
344.769996
 31
0.0
 11
-83.813084
 21
344.947610
 31
0.0
 11
-84.015196
 21
345.191676
 31
0.0
 11
-84.136463
 21
345.497600
 31
0.0
 11
-84.176886
 21
345.865383
 31
0.0
 11
-84.151775
 21
346.114655
 31
0.0
 11
-84.076442
 21
346.336979
 31
0.0
 11
-83.950888
 21
346.532354
 31
0.0
 11
-83.780623
 21
346.694350
 31
0.0
 11
-83.571162
 21
346.816536
 31
0.0
 11
-83.322502
 21
346.898912
 31
0.0
  0
LWPOLYLINE
  5
137
100
AcDbEntity
  8
0
 62
5
100
AcDbPolyline
 90
1
 70
1
 10
-83.322502
 20
346.898912
 30
0.0
  0
LWPOLYLINE
  5
138
100
AcDbEntity
  8
0
 62
5
100
AcDbPolyline
 90
1
 70
1
 10
-83.526452
 20
347.778100
 30
0.0
  0
LWPOLYLINE
  5
139
100
AcDbEntity
  8
0
 62
5
100
AcDbPolyline
 90
4
 70
1
 10
-80.362476
 20
345.407875
 30
0.0
 10
-79.780944
 20
345.407875
 30
0.0
 10
-79.780944
 20
344.707831
 30
0.0
 10
-80.362476
 20
344.707831
 30
0.0
  0
SPLINE
  5
13a
100
AcDbEntity
  8
0
 62
5
100
AcDbSpline
 70
0
 71
3
 72
31
 73
27
 74
25
 40
0.000000
 40
0.000000
 40
0.000000
 40
0.000000
 40
0.198745
 40
0.377701
 40
0.552033
 40
0.733625
 40
0.930322
 40
1.154145
 40
1.376443
 40
1.572264
 40
1.753601
 40
1.929885
 40
2.109528
 40
2.308342
 40
2.507157
 40
2.686800
 40
2.863084
 40
3.044421
 40
3.240242
 40
3.462540
 40
3.686363
 40
3.883060
 40
4.064652
 40
4.238984
 40
4.417940
 40
4.616686
 40
4.616686
 40
4.616686
 40
4.616686
 10
-83.526452
 20
347.778100
 30
0.0
 10
-83.522829
 20
347.711604
 30
0.0
 10
-83.515943
 20
347.585233
 30
0.0
 10
-83.446868
 20
347.410931
 30
0.0
 10
-83.332545
 20
347.270533
 30
0.0
 10
-83.175063
 20
347.169564
 30
0.0
 10
-82.981073
 20
347.110683
 30
0.0
 10
-82.766268
 20
347.094463
 30
0.0
 10
-82.551848
 20
347.110745
 30
0.0
 10
-82.358544
 20
347.169540
 30
0.0
 10
-82.201865
 20
347.271535
 30
0.0
 10
-82.083986
 20
347.410194
 30
0.0
 10
-82.014773
 20
347.584953
 30
0.0
 10
-81.995811
 20
347.778100
 30
0.0
 10
-82.014773
 20
347.971247
 30
0.0
 10
-82.083986
 20
348.146007
 30
0.0
 10
-82.201865
 20
348.284666
 30
0.0
 10
-82.358544
 20
348.386661
 30
0.0
 10
-82.551848
 20
348.445456
 30
0.0
 10
-82.766268
 20
348.461738
 30
0.0
 10
-82.981073
 20
348.445518
 30
0.0
 10
-83.175063
 20
348.386637
 30
0.0
 10
-83.332545
 20
348.285668
 30
0.0
 10
-83.446868
 20
348.145270
 30
0.0
 10
-83.515943
 20
347.970967
 30
0.0
 10
-83.522829
 20
347.844596
 30
0.0
 10
-83.526452
 20
347.778100
 30
0.0
 11
-83.526452
 21
347.778100
 31
0.0
 11
-83.504403
 21
347.580582
 31
0.0
 11
-83.438257
 21
347.414299
 31
0.0
 11
-83.328014
 21
347.279251
 31
0.0
 11
-83.176124
 21
347.179726
 31
0.0
 11
-82.988711
 21
347.120011
 31
0.0
 11
-82.765775
 21
347.100106
 31
0.0
 11
-82.544370
 21
347.120011
 31
0.0
 11
-82.357875
 21
347.179726
 31
0.0
 11
-82.206291
 21
347.279251
 31
0.0
 11
-82.092986
 21
347.414299
 31
0.0
 11
-82.025003
 21
347.580582
 31
0.0
 11
-82.002342
 21
347.778100
 31
0.0
 11
-82.025003
 21
347.975619
 31
0.0
 11
-82.092986
 21
348.141902
 31
0.0
 11
-82.206291
 21
348.276950
 31
0.0
 11
-82.357875
 21
348.376475
 31
0.0
 11
-82.544370
 21
348.436190
 31
0.0
 11
-82.765775
 21
348.456095
 31
0.0
 11
-82.988711
 21
348.436190
 31
0.0
 11
-83.176124
 21
348.376475
 31
0.0
 11
-83.328014
 21
348.276950
 31
0.0
 11
-83.438257
 21
348.141902
 31
0.0
 11
-83.504403
 21
347.975619
 31
0.0
 11
-83.526452
 21
347.778100
 31
0.0
  0
LWPOLYLINE
  5
13b
100
AcDbEntity
  8
0
 62
5
100
AcDbPolyline
 90
5
 70
0
 10
-78.560002
 20
348.822653
 30
0.0
 10
-76.374433
 20
348.822653
 30
0.0
 10
-76.374433
 20
348.354120
 30
0.0
 10
-78.050128
 20
348.354120
 30
0.0
 10
-78.050128
 20
347.345396
 30
0.0
  0
SPLINE
  5
13c
100
AcDbEntity
  8
0
 62
5
100
AcDbSpline
 70
0
 71
3
 72
31
 73
27
 74
25
 40
0.000000
 40
0.000000
 40
0.000000
 40
0.000000
 40
0.084655
 40
0.167987
 40
0.250269
 40
0.332037
 40
0.413215
 40
0.494098
 40
0.923650
 40
1.308608
 40
1.674759
 40
2.034167
 40
2.400444
 40
2.803177
 40
3.215785
 40
3.586833
 40
3.948188
 40
4.321834
 40
4.729197
 40
5.194921
 40
5.368929
 40
5.545929
 40
5.726438
 40
5.910040
 40
6.099890
 40
6.296371
 40
6.296371
 40
6.296371
 40
6.296371
 10
-78.050128
 20
347.345396
 30
0.0
 10
-78.023272
 20
347.354075
 30
0.0
 10
-77.969980
 20
347.371299
 30
0.0
 10
-77.888957
 20
347.391512
 30
0.0
 10
-77.807814
 20
347.406296
 30
0.0
 10
-77.727067
 20
347.419166
 30
0.0
 10
-77.646040
 20
347.426491
 30
0.0
 10
-77.448881
 20
347.431555
 30
0.0
 10
-77.149130
 20
347.404700
 30
0.0
 10
-76.771384
 20
347.279436
 30
0.0
 10
-76.463313
 20
347.064919
 30
0.0
 10
-76.232569
 20
346.776464
 30
0.0
 10
-76.096048
 20
346.419951
 30
0.0
 10
-76.058182
 20
346.024709
 30
0.0
 10
-76.096302
 20
345.627732
 30
0.0
 10
-76.236200
 20
345.266317
 30
0.0
 10
-76.475010
 20
344.977092
 30
0.0
 10
-76.800886
 20
344.769383
 30
0.0
 10
-77.203146
 20
344.649428
 30
0.0
 10
-77.553344
 20
344.623538
 30
0.0
 10
-77.825509
 20
344.631232
 30
0.0
 10
-78.002161
 20
344.646087
 30
0.0
 10
-78.180950
 20
344.670553
 30
0.0
 10
-78.362346
 20
344.705434
 30
0.0
 10
-78.547286
 20
344.749279
 30
0.0
 10
-78.670812
 20
344.785747
 30
0.0
 10
-78.733635
 20
344.804294
 30
0.0
 11
-78.050128
 21
347.345396
 31
0.0
 11
-77.969283
 21
347.370506
 31
0.0
 11
-77.888438
 21
347.390716
 31
0.0
 11
-77.807593
 21
347.406026
 31
0.0
 11
-77.726748
 21
347.418276
 31
0.0
 11
-77.645903
 21
347.425626
 31
0.0
 11
-77.565058
 21
347.428076
 31
0.0
 11
-77.137560
 21
347.386122
 31
0.0
 11
-76.773758
 21
347.260261
 31
0.0
 11
-76.473652
 21
347.050493
 31
0.0
 11
-76.250104
 21
346.769067
 31
0.0
 11
-76.115975
 21
346.428233
 31
0.0
 11
-76.071265
 21
346.027989
 31
0.0
 11
-76.117200
 21
345.617946
 31
0.0
 11
-76.255004
 21
345.273437
 31
0.0
 11
-76.484677
 21
344.994460
 31
0.0
 11
-76.797951
 21
344.790817
 31
0.0
 11
-77.186558
 21
344.668631
 31
0.0
 11
-77.650497
 21
344.627902
 31
0.0
 11
-77.824436
 21
344.632802
 31
0.0
 11
-78.000825
 21
344.647502
 31
0.0
 11
-78.179663
 21
344.672002
 31
0.0
 11
-78.360033
 21
344.706301
 31
0.0
 11
-78.544691
 21
344.750398
 31
0.0
 11
-78.733635
 21
344.804294
 31
0.0
  0
LWPOLYLINE
  5
13d
100
AcDbEntity
  8
0
 62
5
100
AcDbPolyline
 90
2
 70
0
 10
-78.733635
 20
344.804294
 30
0.0
 10
-78.733635
 20
345.363778
 30
0.0
  0
SPLINE
  5
13e
100
AcDbEntity
  8
0
 62
5
100
AcDbSpline
 70
0
 71
3
 72
31
 73
27
 74
25
 40
0.000000
 40
0.000000
 40
0.000000
 40
0.000000
 40
0.186393
 40
0.369959
 40
0.552021
 40
0.735497
 40
0.923291
 40
1.116662
 40
1.413790
 40
1.679032
 40
1.929076
 40
2.171820
 40
2.416975
 40
2.685489
 40
2.954003
 40
3.199158
 40
3.441902
 40
3.691947
 40
3.957188
 40
4.254316
 40
4.403247
 40
4.552991
 40
4.704350
 40
4.857661
 40
5.016868
 40
5.182703
 40
5.182703
 40
5.182703
 40
5.182703
 10
-78.733635
 20
345.363778
 30
0.0
 10
-78.678364
 20
345.335321
 30
0.0
 10
-78.568661
 20
345.278837
 30
0.0
 10
-78.396803
 20
345.212170
 30
0.0
 10
-78.221215
 20
345.159848
 30
0.0
 10
-78.040236
 20
345.122997
 30
0.0
 10
-77.853064
 20
345.101269
 30
0.0
 10
-77.627043
 20
345.092030
 30
0.0
 10
-77.374265
 20
345.111381
 30
0.0
 10
-77.113413
 20
345.194818
 30
0.0
 10
-76.900267
 20
345.336648
 30
0.0
 10
-76.740127
 20
345.528365
 30
0.0
 10
-76.645245
 20
345.766252
 30
0.0
 10
-76.618974
 20
346.027988
 30
0.0
 10
-76.645244
 20
346.289723
 30
0.0
 10
-76.740127
 20
346.527614
 30
0.0
 10
-76.900266
 20
346.719318
 30
0.0
 10
-77.113414
 20
346.861199
 30
0.0
 10
-77.374259
 20
346.944425
 30
0.0
 10
-77.612200
 20
346.963373
 30
0.0
 10
-77.810743
 20
346.955828
 30
0.0
 10
-77.959969
 20
346.939171
 30
0.0
 10
-78.109087
 20
346.911751
 30
0.0
 10
-78.258596
 20
346.871814
 30
0.0
 10
-78.409755
 20
346.820534
 30
0.0
 10
-78.509244
 20
346.777532
 30
0.0
 10
-78.560002
 20
346.755592
 30
0.0
 11
-78.733635
 21
345.363778
 31
0.0
 11
-78.566433
 21
345.281402
 31
0.0
 11
-78.395557
 21
345.214337
 31
0.0
 11
-78.221005
 21
345.162584
 31
0.0
 11
-78.041247
 21
345.125834
 31
0.0
 11
-77.854753
 21
345.103784
 31
0.0
 11
-77.661521
 21
345.096434
 31
0.0
 11
-77.365702
 21
345.124301
 31
0.0
 11
-77.113981
 21
345.207902
 31
0.0
 11
-76.906356
 21
345.347237
 31
0.0
 11
-76.751710
 21
345.534344
 31
0.0
 11
-76.658922
 21
345.761261
 31
0.0
 11
-76.627992
 21
346.027988
 31
0.0
 11
-76.658922
 21
346.294715
 31
0.0
 11
-76.751710
 21
346.521632
 31
0.0
 11
-76.906356
 21
346.708739
 31
0.0
 11
-77.113981
 21
346.848074
 31
0.0
 11
-77.365702
 21
346.931675
 31
0.0
 11
-77.661521
 21
346.959542
 31
0.0
 11
-77.810349
 21
346.954030
 31
0.0
 11
-77.959178
 21
346.937493
 31
0.0
 11
-78.108006
 21
346.909932
 31
0.0
 11
-78.256222
 21
346.870734
 31
0.0
 11
-78.406887
 21
346.819288
 31
0.0
 11
-78.560002
 21
346.755592
 31
0.0
  0
LWPOLYLINE
  5
13f
100
AcDbEntity
  8
0
 62
5
100
AcDbPolyline
 90
2
 70
0
 10
-78.560002
 20
346.755592
 30
0.0
 10
-78.560002
 20
348.822653
 30
0.0
  0
SPLINE
  5
140
100
AcDbEntity
  8
0
 62
5
100
AcDbSpline
 70
0
 71
3
 72
19
 73
15
 74
13
 40
0.000000
 40
0.000000
 40
0.000000
 40
0.000000
 40
0.247938
 40
0.474306
 40
0.685796
 40
0.893294
 40
1.107877
 40
1.337039
 40
1.636461
 40
1.909034
 40
2.183059
 40
2.477506
 40
2.808910
 40
3.193413
 40
3.193413
 40
3.193413
 40
3.193413
 10
-72.639950
 20
347.202080
 30
0.0
 10
-72.597177
 20
347.272969
 30
0.0
 10
-72.515353
 20
347.408580
 30
0.0
 10
-72.361437
 20
347.579599
 30
0.0
 10
-72.190238
 20
347.711983
 30
0.0
 10
-71.998533
 20
347.804202
 30
0.0
 10
-71.786923
 20
347.858195
 30
0.0
 10
-71.539085
 20
347.876815
 30
0.0
 10
-71.270359
 20
347.848473
 30
0.0
 10
-71.007782
 20
347.731434
 30
0.0
 10
-70.802442
 20
347.533101
 30
0.0
 10
-70.656008
 20
347.267329
 30
0.0
 10
-70.569651
 20
346.938305
 30
0.0
 10
-70.561002
 20
346.699303
 30
0.0
 10
-70.556356
 20
346.570939
 30
0.0
 11
-72.639950
 21
347.202080
 31
0.0
 11
-72.504903
 21
347.410011
 31
0.0
 11
-72.353318
 21
347.578132
 31
0.0
 11
-72.185197
 21
347.706442
 31
0.0
 11
-71.998397
 21
347.796780
 31
0.0
 11
-71.790772
 21
347.850983
 31
0.0
 11
-71.562324
 21
347.869051
 31
0.0
 11
-71.265281
 21
347.831385
 31
0.0
 11
-71.017234
 21
347.718386
 31
0.0
 11
-70.818183
 21
347.530054
 31
0.0
 11
-70.672724
 21
347.274045
 31
0.0
 11
-70.585448
 21
346.954340
 31
0.0
 11
-70.556356
 21
346.570939
 31
0.0
  0
LWPOLYLINE
  5
141
100
AcDbEntity
  8
0
 62
5
100
AcDbPolyline
 90
4
 70
0
 10
-70.556356
 20
346.570939
 30
0.0
 10
-70.556356
 20
344.707831
 30
0.0
 10
-71.066230
 20
344.707831
 30
0.0
 10
-71.066230
 20
346.554403
 30
0.0
  0
SPLINE
  5
142
100
AcDbEntity
  8
0
 62
5
100
AcDbSpline
 70
0
 71
3
 72
19
 73
15
 74
13
 40
0.000000
 40
0.000000
 40
0.000000
 40
0.000000
 40
0.270964
 40
0.496690
 40
0.686658
 40
0.858176
 40
1.033355
 40
1.231400
 40
1.477498
 40
1.702720
 40
1.927125
 40
2.160453
 40
2.410313
 40
2.691664
 40
2.691664
 40
2.691664
 40
2.691664
 10
-71.066230
 20
346.554403
 30
0.0
 10
-71.068914
 20
346.644839
 30
0.0
 10
-71.073834
 20
346.810612
 30
0.0
 10
-71.124314
 20
347.035580
 30
0.0
 10
-71.211118
 20
347.213963
 30
0.0
 10
-71.341419
 20
347.342248
 30
0.0
 10
-71.511569
 20
347.415726
 30
0.0
 10
-71.719005
 20
347.435626
 30
0.0
 10
-71.943002
 20
347.411630
 30
0.0
 10
-72.161029
 20
347.322287
 30
0.0
 10
-72.336281
 20
347.171196
 30
0.0
 10
-72.464894
 20
346.970151
 30
0.0
 10
-72.542475
 20
346.723895
 30
0.0
 10
-72.550344
 20
346.546424
 30
0.0
 10
-72.554512
 20
346.452428
 30
0.0
 11
-71.066230
 21
346.554403
 31
0.0
 11
-71.083685
 21
346.824805
 31
0.0
 11
-71.136051
 21
347.044372
 31
0.0
 11
-71.223327
 21
347.213105
 31
0.0
 11
-71.346432
 21
347.332535
 31
0.0
 11
-71.506284
 21
347.404193
 31
0.0
 11
-71.702884
 21
347.428079
 31
0.0
 11
-71.947256
 21
347.398987
 31
0.0
 11
-72.154881
 21
347.311711
 31
0.0
 11
-72.325757
 21
347.166251
 31
0.0
 11
-72.452843
 21
346.970570
 31
0.0
 11
-72.529095
 21
346.732629
 31
0.0
 11
-72.554512
 21
346.452428
 31
0.0
  0
LWPOLYLINE
  5
143
100
AcDbEntity
  8
0
 62
5
100
AcDbPolyline
 90
4
 70
0
 10
-72.554512
 20
346.452428
 30
0.0
 10
-72.554512
 20
344.707831
 30
0.0
 10
-73.064386
 20
344.707831
 30
0.0
 10
-73.064386
 20
346.554403
 30
0.0
  0
SPLINE
  5
144
100
AcDbEntity
  8
0
 62
5
100
AcDbSpline
 70
0
 71
3
 72
19
 73
15
 74
13
 40
0.000000
 40
0.000000
 40
0.000000
 40
0.000000
 40
0.272187
 40
0.497912
 40
0.686793
 40
0.858751
 40
1.035608
 40
1.236695
 40
1.479788
 40
1.703678
 40
1.928614
 40
2.161686
 40
2.410671
 40
2.690498
 40
2.690498
 40
2.690498
 40
2.690498
 10
-73.064386
 20
346.554403
 30
0.0
 10
-73.067069
 20
346.645237
 30
0.0
 10
-73.071977
 20
346.811399
 30
0.0
 10
-73.122166
 20
347.036557
 30
0.0
 10
-73.209650
 20
347.214349
 30
0.0
 10
-73.340467
 20
347.342665
 30
0.0
 10
-73.512686
 20
347.415767
 30
0.0
 10
-73.720627
 20
347.435646
 30
0.0
 10
-73.944246
 20
347.411369
 30
0.0
 10
-74.160471
 20
347.320664
 30
0.0
 10
-74.333906
 20
347.168291
 30
0.0
 10
-74.463012
 20
346.967983
 30
0.0
 10
-74.540570
 20
346.722562
 30
0.0
 10
-74.548481
 20
346.545907
 30
0.0
 10
-74.552667
 20
346.452428
 30
0.0
 11
-73.064386
 21
346.554403
 31
0.0
 11
-73.081841
 21
346.826029
 31
0.0
 11
-73.134207
 21
347.045597
 31
0.0
 11
-73.221482
 21
347.213105
 31
0.0
 11
-73.345199
 21
347.332535
 31
0.0
 11
-73.506889
 21
347.404193
 31
0.0
 11
-73.706552
 21
347.428079
 31
0.0
 11
-73.947862
 21
347.398681
 31
0.0
 11
-74.153649
 21
347.310486
 31
0.0
 11
-74.323913
 21
347.163495
 31
0.0
 11
-74.450999
 21
346.968120
 31
0.0
 11
-74.527250
 21
346.731098
 31
0.0
 11
-74.552667
 21
346.452428
 31
0.0
  0
LWPOLYLINE
  5
145
100
AcDbEntity
  8
0
 62
5
100
AcDbPolyline
 90
6
 70
0
 10
-74.552667
 20
346.452428
 30
0.0
 10
-74.552667
 20
344.707831
 30
0.0
 10
-75.062541
 20
344.707831
 30
0.0
 10
-75.062541
 20
347.794637
 30
0.0
 10
-74.552667
 20
347.794637
 30
0.0
 10
-74.552667
 20
347.315080
 30
0.0
  0
SPLINE
  5
146
100
AcDbEntity
  8
0
 62
5
100
AcDbSpline
 70
0
 71
3
 72
19
 73
15
 74
13
 40
0.000000
 40
0.000000
 40
0.000000
 40
0.000000
 40
0.212274
 40
0.409108
 40
0.596414
 40
0.783877
 40
0.981090
 40
1.193837
 40
1.407513
 40
1.606029
 40
1.798568
 40
1.993458
 40
2.195839
 40
2.414486
 40
2.414486
 40
2.414486
 40
2.414486
 10
-74.552667
 20
347.315080
 30
0.0
 10
-74.513438
 20
347.374133
 30
0.0
 10
-74.437833
 20
347.487944
 30
0.0
 10
-74.296621
 20
347.629790
 30
0.0
 10
-74.139567
 20
347.739544
 30
0.0
 10
-73.963398
 20
347.815702
 30
0.0
 10
-73.768298
 20
347.860105
 30
0.0
 10
-73.560213
 20
347.874216
 30
0.0
 10
-73.351442
 20
347.858069
 30
0.0
 10
-73.156367
 20
347.800882
 30
0.0
 10
-72.985038
 20
347.703544
 30
0.0
 10
-72.838754
 20
347.570056
 30
0.0
 10
-72.719012
 20
347.400741
 30
0.0
 10
-72.666974
 20
347.269984
 30
0.0
 10
-72.639950
 20
347.202080
 30
0.0
 11
-74.552667
 21
347.315080
 31
0.0
 11
-74.429256
 21
347.487794
 31
0.0
 11
-74.290533
 21
347.627435
 31
0.0
 11
-74.136499
 21
347.734003
 31
0.0
 11
-73.964704
 21
347.809030
 31
0.0
 11
-73.772698
 21
347.854046
 31
0.0
 11
-73.560480
 21
347.869051
 31
0.0
 11
-73.347650
 21
347.850065
 31
0.0
 11
-73.157480
 21
347.793106
 31
0.0
 11
-72.989972
 21
347.698174
 31
0.0
 11
-72.845737
 21
347.567107
 31
0.0
 11
-72.729063
 21
347.401742
 31
0.0
 11
-72.639950
 21
347.202080
 31
0.0
  0
LWPOLYLINE
  5
147
100
AcDbEntity
  8
0
 62
5
100
AcDbPolyline
 90
1
 70
1
 10
-72.639950
 20
347.202080
 30
0.0
  0
SPLINE
  5
148
100
AcDbEntity
  8
0
 62
5
100
AcDbSpline
 70
0
 71
3
 72
19
 73
15
 74
13
 40
0.000000
 40
0.000000
 40
0.000000
 40
0.000000
 40
0.247938
 40
0.474306
 40
0.685796
 40
0.893294
 40
1.107877
 40
1.337039
 40
1.636461
 40
1.909034
 40
2.183059
 40
2.477506
 40
2.808910
 40
3.193413
 40
3.193413
 40
3.193413
 40
3.193413
 10
-67.138822
 20
347.202080
 30
0.0
 10
-67.096049
 20
347.272969
 30
0.0
 10
-67.014225
 20
347.408580
 30
0.0
 10
-66.860309
 20
347.579599
 30
0.0
 10
-66.689110
 20
347.711983
 30
0.0
 10
-66.497405
 20
347.804202
 30
0.0
 10
-66.285795
 20
347.858195
 30
0.0
 10
-66.037957
 20
347.876815
 30
0.0
 10
-65.769231
 20
347.848473
 30
0.0
 10
-65.506654
 20
347.731434
 30
0.0
 10
-65.301314
 20
347.533101
 30
0.0
 10
-65.154880
 20
347.267329
 30
0.0
 10
-65.068523
 20
346.938305
 30
0.0
 10
-65.059874
 20
346.699303
 30
0.0
 10
-65.055228
 20
346.570939
 30
0.0
 11
-67.138822
 21
347.202080
 31
0.0
 11
-67.003775
 21
347.410011
 31
0.0
 11
-66.852190
 21
347.578132
 31
0.0
 11
-66.684069
 21
347.706442
 31
0.0
 11
-66.497269
 21
347.796780
 31
0.0
 11
-66.289644
 21
347.850983
 31
0.0
 11
-66.061196
 21
347.869051
 31
0.0
 11
-65.764153
 21
347.831385
 31
0.0
 11
-65.516106
 21
347.718386
 31
0.0
 11
-65.317055
 21
347.530054
 31
0.0
 11
-65.171596
 21
347.274045
 31
0.0
 11
-65.084320
 21
346.954340
 31
0.0
 11
-65.055228
 21
346.570939
 31
0.0
  0
LWPOLYLINE
  5
149
100
AcDbEntity
  8
0
 62
5
100
AcDbPolyline
 90
4
 70
0
 10
-65.055228
 20
346.570939
 30
0.0
 10
-65.055228
 20
344.707831
 30
0.0
 10
-65.565102
 20
344.707831
 30
0.0
 10
-65.565102
 20
346.554403
 30
0.0
  0
SPLINE
  5
14a
100
AcDbEntity
  8
0
 62
5
100
AcDbSpline
 70
0
 71
3
 72
19
 73
15
 74
13
 40
0.000000
 40
0.000000
 40
0.000000
 40
0.000000
 40
0.270964
 40
0.496690
 40
0.686658
 40
0.858176
 40
1.033355
 40
1.231400
 40
1.477498
 40
1.702720
 40
1.927125
 40
2.160453
 40
2.410313
 40
2.691664
 40
2.691664
 40
2.691664
 40
2.691664
 10
-65.565102
 20
346.554403
 30
0.0
 10
-65.567786
 20
346.644839
 30
0.0
 10
-65.572706
 20
346.810612
 30
0.0
 10
-65.623186
 20
347.035580
 30
0.0
 10
-65.709990
 20
347.213963
 30
0.0
 10
-65.840291
 20
347.342248
 30
0.0
 10
-66.010441
 20
347.415726
 30
0.0
 10
-66.217877
 20
347.435626
 30
0.0
 10
-66.441874
 20
347.411630
 30
0.0
 10
-66.659901
 20
347.322287
 30
0.0
 10
-66.835153
 20
347.171196
 30
0.0
 10
-66.963766
 20
346.970151
 30
0.0
 10
-67.041346
 20
346.723895
 30
0.0
 10
-67.049215
 20
346.546424
 30
0.0
 10
-67.053383
 20
346.452428
 30
0.0
 11
-65.565102
 21
346.554403
 31
0.0
 11
-65.582557
 21
346.824805
 31
0.0
 11
-65.634923
 21
347.044372
 31
0.0
 11
-65.722199
 21
347.213105
 31
0.0
 11
-65.845304
 21
347.332535
 31
0.0
 11
-66.005156
 21
347.404193
 31
0.0
 11
-66.201756
 21
347.428079
 31
0.0
 11
-66.446128
 21
347.398987
 31
0.0
 11
-66.653753
 21
347.311711
 31
0.0
 11
-66.824629
 21
347.166251
 31
0.0
 11
-66.951715
 21
346.970570
 31
0.0
 11
-67.027966
 21
346.732629
 31
0.0
 11
-67.053383
 21
346.452428
 31
0.0
  0
LWPOLYLINE
  5
14b
100
AcDbEntity
  8
0
 62
5
100
AcDbPolyline
 90
4
 70
0
 10
-67.053383
 20
346.452428
 30
0.0
 10
-67.053383
 20
344.707831
 30
0.0
 10
-67.563258
 20
344.707831
 30
0.0
 10
-67.563258
 20
346.554403
 30
0.0
  0
SPLINE
  5
14c
100
AcDbEntity
  8
0
 62
5
100
AcDbSpline
 70
0
 71
3
 72
19
 73
15
 74
13
 40
0.000000
 40
0.000000
 40
0.000000
 40
0.000000
 40
0.272187
 40
0.497912
 40
0.686793
 40
0.858751
 40
1.035608
 40
1.236694
 40
1.479788
 40
1.703677
 40
1.928614
 40
2.161685
 40
2.410671
 40
2.690497
 40
2.690497
 40
2.690497
 40
2.690497
 10
-67.563258
 20
346.554403
 30
0.0
 10
-67.565941
 20
346.645237
 30
0.0
 10
-67.570849
 20
346.811399
 30
0.0
 10
-67.621038
 20
347.036557
 30
0.0
 10
-67.708522
 20
347.214349
 30
0.0
 10
-67.839338
 20
347.342665
 30
0.0
 10
-68.011558
 20
347.415767
 30
0.0
 10
-68.219498
 20
347.435646
 30
0.0
 10
-68.443117
 20
347.411369
 30
0.0
 10
-68.659343
 20
347.320665
 30
0.0
 10
-68.832777
 20
347.168291
 30
0.0
 10
-68.961883
 20
346.967984
 30
0.0
 10
-69.039442
 20
346.722563
 30
0.0
 10
-69.047353
 20
346.545907
 30
0.0
 10
-69.051539
 20
346.452428
 30
0.0
 11
-67.563258
 21
346.554403
 31
0.0
 11
-67.580713
 21
346.826029
 31
0.0
 11
-67.633079
 21
347.045597
 31
0.0
 11
-67.720354
 21
347.213105
 31
0.0
 11
-67.844071
 21
347.332535
 31
0.0
 11
-68.005761
 21
347.404193
 31
0.0
 11
-68.205423
 21
347.428079
 31
0.0
 11
-68.446733
 21
347.398681
 31
0.0
 11
-68.652520
 21
347.310486
 31
0.0
 11
-68.822784
 21
347.163495
 31
0.0
 11
-68.949870
 21
346.968120
 31
0.0
 11
-69.026122
 21
346.731098
 31
0.0
 11
-69.051539
 21
346.452428
 31
0.0
  0
LWPOLYLINE
  5
14d
100
AcDbEntity
  8
0
 62
5
100
AcDbPolyline
 90
6
 70
0
 10
-69.051539
 20
346.452428
 30
0.0
 10
-69.051539
 20
344.707831
 30
0.0
 10
-69.561413
 20
344.707831
 30
0.0
 10
-69.561413
 20
347.794637
 30
0.0
 10
-69.051539
 20
347.794637
 30
0.0
 10
-69.051539
 20
347.315080
 30
0.0
  0
LWPOLYLINE
  5
14e
100
AcDbEntity
  8
0
 62
5
100
AcDbPolyline
 90
1
 70
1
 10
-67.138822
 20
347.202080
 30
0.0
  0
LWPOLYLINE
  5
14f
100
AcDbEntity
  8
0
 62
5
100
AcDbPolyline
 90
2
 70
0
 10
177.945068
 20
341.080669
 30
0.0
 10
206.094898
 20
341.080669
 30
0.0
  0
LWPOLYLINE
  5
150
100
AcDbEntity
  8
0
 62
5
100
AcDbPolyline
 90
2
 70
0
 10
206.496888
 20
354.309835
 30
0.0
 10
206.496888
 20
332.664679
 30
0.0
  0
SPLINE
  5
151
100
AcDbEntity
  8
0
 62
5
100
AcDbSpline
 70
0
 71
3
 72
19
 73
15
 74
13
 40
0.000000
 40
0.000000
 40
0.000000
 40
0.000000
 40
0.212274
 40
0.409108
 40
0.596414
 40
0.783877
 40
0.981090
 40
1.193838
 40
1.407514
 40
1.606030
 40
1.798568
 40
1.993458
 40
2.195840
 40
2.414486
 40
2.414486
 40
2.414486
 40
2.414486
 10
-69.051539
 20
347.315080
 30
0.0
 10
-69.012310
 20
347.374133
 30
0.0
 10
-68.936705
 20
347.487944
 30
0.0
 10
-68.795493
 20
347.629790
 30
0.0
 10
-68.638439
 20
347.739544
 30
0.0
 10
-68.462270
 20
347.815702
 30
0.0
 10
-68.267169
 20
347.860105
 30
0.0
 10
-68.059085
 20
347.874216
 30
0.0
 10
-67.850313
 20
347.858069
 30
0.0
 10
-67.655238
 20
347.800882
 30
0.0
 10
-67.483909
 20
347.703544
 30
0.0
 10
-67.337626
 20
347.570056
 30
0.0
 10
-67.217884
 20
347.400741
 30
0.0
 10
-67.165846
 20
347.269984
 30
0.0
 10
-67.138822
 20
347.202080
 30
0.0
 11
-69.051539
 21
347.315080
 31
0.0
 11
-68.928128
 21
347.487794
 31
0.0
 11
-68.789405
 21
347.627435
 31
0.0
 11
-68.635371
 21
347.734003
 31
0.0
 11
-68.463576
 21
347.809030
 31
0.0
 11
-68.271569
 21
347.854046
 31
0.0
 11
-68.059351
 21
347.869051
 31
0.0
 11
-67.846521
 21
347.850065
 31
0.0
 11
-67.656352
 21
347.793106
 31
0.0
 11
-67.488843
 21
347.698174
 31
0.0
 11
-67.344609
 21
347.567107
 31
0.0
 11
-67.227935
 21
347.401742
 31
0.0
 11
-67.138822
 21
347.202080
 31
0.0
  0
LWPOLYLINE
  5
152
100
AcDbEntity
  8
0
 62
5
100
AcDbPolyline
 90
5
 70
0
 10
181.031718
 20
345.176364
 30
0.0
 10
182.974748
 20
345.176364
 30
0.0
 10
182.974748
 20
344.707831
 30
0.0
 10
180.361988
 20
344.707831
 30
0.0
 10
180.361988
 20
345.176364
 30
0.0
  0
SPLINE
  5
153
100
AcDbEntity
  8
0
 62
5
100
AcDbSpline
 70
0
 71
3
 72
31
 73
27
 74
25
 40
0.000000
 40
0.000000
 40
0.000000
 40
0.000000
 40
0.339565
 40
0.750139
 40
1.231728
 40
1.688421
 40
2.019126
 40
2.223911
 40
2.472304
 40
2.681961
 40
2.854275
 40
3.005305
 40
3.146801
 40
3.282376
 40
3.489157
 40
3.683373
 40
3.881936
 40
4.085536
 40
4.296463
 40
4.528194
 40
4.706402
 40
4.893531
 40
5.091481
 40
5.301389
 40
5.527592
 40
5.771128
 40
5.771128
 40
5.771128
 40
5.771128
 10
180.361988
 20
345.176364
 30
0.0
 10
180.440820
 20
345.257587
 30
0.0
 10
180.614969
 20
345.437017
 30
0.0
 10
180.902687
 20
345.729922
 30
0.0
 10
181.218875
 20
346.049581
 30
0.0
 10
181.515966
 20
346.350684
 30
0.0
 10
181.746356
 20
346.587972
 30
0.0
 10
181.924670
 20
346.779015
 30
0.0
 10
182.067626
 20
346.947641
 30
0.0
 10
182.193453
 20
347.116167
 30
0.0
 10
182.285639
 20
347.268520
 30
0.0
 10
182.347850
 20
347.410961
 30
0.0
 10
182.384931
 20
347.549474
 30
0.0
 10
182.398920
 20
347.710793
 30
0.0
 10
182.378017
 20
347.890663
 30
0.0
 10
182.298245
 20
348.077309
 30
0.0
 10
182.166115
 20
348.229401
 30
0.0
 10
181.995742
 20
348.346435
 30
0.0
 10
181.789046
 20
348.415702
 30
0.0
 10
181.581380
 20
348.433413
 30
0.0
 10
181.382405
 20
348.421248
 30
0.0
 10
181.196884
 20
348.390321
 30
0.0
 10
181.004928
 20
348.339309
 30
0.0
 10
180.806186
 20
348.266794
 30
0.0
 10
180.598906
 20
348.174814
 30
0.0
 10
180.461030
 20
348.100503
 30
0.0
 10
180.389548
 20
348.061976
 30
0.0
 11
180.361988
 21
345.176364
 31
0.0
 11
180.598704
 21
345.419817
 31
0.0
 11
180.886254
 21
345.712880
 31
0.0
 11
181.224638
 21
346.055553
 31
0.0
 11
181.544956
 21
346.381076
 31
0.0
 11
181.774629
 21
346.619017
 31
0.0
 11
181.913658
 21
346.769376
 31
0.0
 11
182.073817
 21
346.959239
 31
0.0
 11
182.197840
 21
347.128279
 31
0.0
 11
182.285728
 21
347.276495
 31
0.0
 11
182.345444
 21
347.415217
 31
0.0
 11
182.381274
 21
347.552102
 31
0.0
 11
182.393218
 21
347.687150
 31
0.0
 11
182.367494
 21
347.892325
 31
0.0
 11
182.290324
 21
348.070551
 31
0.0
 11
182.161708
 21
348.221829
 31
0.0
 11
181.993584
 21
348.336665
 31
0.0
 11
181.794228
 21
348.405567
 31
0.0
 11
181.563638
 21
348.428534
 31
0.0
 11
181.385717
 21
348.418428
 31
0.0
 11
181.201060
 21
348.388112
 31
0.0
 11
181.009668
 21
348.337584
 31
0.0
 11
180.812148
 21
348.266539
 31
0.0
 11
180.605441
 21
348.174669
 31
0.0
 11
180.389548
 21
348.061976
 31
0.0
  0
LWPOLYLINE
  5
154
100
AcDbEntity
  8
0
 62
5
100
AcDbPolyline
 90
2
 70
0
 10
180.389548
 20
348.061976
 30
0.0
 10
180.389548
 20
348.624216
 30
0.0
  0
SPLINE
  5
155
100
AcDbEntity
  8
0
 62
5
100
AcDbSpline
 70
0
 71
3
 72
31
 73
27
 74
25
 40
0.000000
 40
0.000000
 40
0.000000
 40
0.000000
 40
0.234333
 40
0.454552
 40
0.661205
 40
0.854287
 40
1.033987
 40
1.201366
 40
1.600437
 40
1.956664
 40
2.290225
 40
2.607758
 40
2.919497
 40
3.254738
 40
3.421366
 40
3.585324
 40
3.749578
 40
3.928297
 40
4.140317
 40
4.387453
 40
4.505159
 40
4.717664
 40
5.024996
 40
5.426275
 40
5.923263
 40
6.515959
 40
6.515959
 40
6.515959
 40
6.515959
 10
180.389548
 20
348.624216
 30
0.0
 10
180.462372
 20
348.652500
 30
0.0
 10
180.603634
 20
348.707365
 30
0.0
 10
180.813435
 20
348.775294
 30
0.0
 10
181.013055
 20
348.829129
 30
0.0
 10
181.202411
 20
348.867829
 30
0.0
 10
181.381110
 20
348.891597
 30
0.0
 10
181.629777
 20
348.902545
 30
0.0
 10
181.938311
 20
348.877289
 30
0.0
 10
182.289334
 20
348.772230
 30
0.0
 10
182.577805
 20
348.592535
 30
0.0
 10
182.796984
 20
348.351394
 30
0.0
 10
182.928388
 20
348.052024
 30
0.0
 10
182.959349
 20
347.779051
 30
0.0
 10
182.945833
 20
347.557141
 30
0.0
 10
182.913382
 20
347.394834
 30
0.0
 10
182.857903
 20
347.234703
 30
0.0
 10
182.773965
 20
347.069217
 30
0.0
 10
182.656216
 20
346.892017
 30
0.0
 10
182.542302
 20
346.736557
 30
0.0
 10
182.410858
 20
346.595830
 30
0.0
 10
182.264703
 20
346.441614
 30
0.0
 10
182.052048
 20
346.220106
 30
0.0
 10
181.771277
 20
345.932601
 30
0.0
 10
181.424126
 20
345.576954
 30
0.0
 10
181.169936
 20
345.317490
 30
0.0
 10
181.031678
 20
345.176363
 30
0.0
 11
180.389548
 21
348.624216
 31
0.0
 11
180.608809
 21
348.706898
 31
0.0
 11
180.818272
 21
348.774882
 31
0.0
 11
181.017938
 21
348.828166
 31
0.0
 11
181.207187
 21
348.866444
 31
0.0
 11
181.385413
 21
348.889410
 31
0.0
 11
181.552618
 21
348.897066
 31
0.0
 11
181.950104
 21
348.861543
 31
0.0
 11
182.290018
 21
348.754975
 31
0.0
 11
182.572358
 21
348.577362
 31
0.0
 11
182.783658
 21
348.340339
 31
0.0
 11
182.910438
 21
348.055545
 31
0.0
 11
182.952698
 21
347.722978
 31
0.0
 11
182.941976
 21
347.556695
 31
0.0
 11
182.909809
 21
347.395924
 31
0.0
 11
182.856198
 21
347.240665
 31
0.0
 11
182.776274
 21
347.080812
 31
0.0
 11
182.661438
 21
346.902586
 31
0.0
 11
182.511688
 21
346.705986
 31
0.0
 11
182.432374
 21
346.619015
 31
0.0
 11
182.286301
 21
346.464674
 31
0.0
 11
182.073468
 21
346.242965
 31
0.0
 11
181.793576
 21
345.955414
 31
0.0
 11
181.446312
 21
345.599880
 31
0.0
 11
181.031678
 21
345.176363
 31
0.0
  0
LWPOLYLINE
  5
156
100
AcDbEntity
  8
0
 62
5
100
AcDbPolyline
 90
1
 70
1
 10
181.031678
 20
345.176363
 30
0.0
  0
SPLINE
  5
157
100
AcDbEntity
  8
0
 62
5
100
AcDbSpline
 70
0
 71
3
 72
31
 73
27
 74
25
 40
0.000000
 40
0.000000
 40
0.000000
 40
0.000000
 40
0.247033
 40
0.467248
 40
0.675101
 40
0.877886
 40
1.086711
 40
1.318362
 40
1.550012
 40
1.758836
 40
1.961621
 40
2.169475
 40
2.389689
 40
2.636722
 40
2.883752
 40
3.103966
 40
3.311823
 40
3.516516
 40
3.725673
 40
3.956139
 40
4.187823
 40
4.396980
 40
4.600715
 40
4.807563
 40
5.027777
 40
5.276027
 40
5.276027
 40
5.276027
 40
5.276027
 10
185.336708
 20
346.661890
 30
0.0
 10
185.254142
 20
346.658027
 30
0.0
 10
185.097974
 20
346.650720
 30
0.0
 10
184.881597
 20
346.578183
 30
0.0
 10
184.705150
 20
346.458700
 30
0.0
 10
184.575139
 20
346.293872
 30
0.0
 10
184.498826
 20
346.090215
 30
0.0
 10
184.477848
 20
345.865381
 30
0.0
 10
184.498826
 20
345.640560
 30
0.0
 10
184.575139
 20
345.436869
 30
0.0
 10
184.705150
 20
345.272164
 30
0.0
 10
184.881597
 20
345.152202
 30
0.0
 10
185.097974
 20
345.081642
 30
0.0
 10
185.336709
 20
345.062126
 30
0.0
 10
185.575429
 20
345.081651
 30
0.0
 10
185.791845
 20
345.152171
 30
0.0
 10
185.968695
 20
345.272640
 30
0.0
 10
186.099464
 20
345.437622
 30
0.0
 10
186.177048
 20
345.641205
 30
0.0
 10
186.198441
 20
345.865802
 30
0.0
 10
186.177110
 20
346.090333
 30
0.0
 10
186.099862
 20
346.294284
 30
0.0
 10
185.968321
 20
346.457807
 30
0.0
 10
185.792974
 20
346.578616
 30
0.0
 10
185.576197
 20
346.650755
 30
0.0
 10
185.419660
 20
346.658033
 30
0.0
 10
185.336708
 20
346.661890
 30
0.0
 11
185.336708
 21
346.661890
 31
0.0
 11
185.090802
 21
346.638310
 31
0.0
 11
184.882259
 21
346.567571
 31
0.0
 11
184.711078
 21
346.449672
 31
0.0
 11
184.585522
 21
346.290432
 31
0.0
 11
184.510189
 21
346.095669
 31
0.0
 11
184.485078
 21
345.865383
 31
0.0
 11
184.510189
 21
345.635098
 31
0.0
 11
184.585522
 21
345.440335
 31
0.0
 11
184.711078
 21
345.281095
 31
0.0
 11
184.882259
 21
345.163196
 31
0.0
 11
185.090802
 21
345.092457
 31
0.0
 11
185.336708
 21
345.068877
 31
0.0
 11
185.582609
 21
345.092457
 31
0.0
 11
185.791152
 21
345.163196
 31
0.0
 11
185.962338
 21
345.281095
 31
0.0
 11
186.089421
 21
345.441560
 31
0.0
 11
186.165671
 21
345.636323
 31
0.0
 11
186.191088
 21
345.865383
 31
0.0
 11
186.165671
 21
346.095669
 31
0.0
 11
186.089421
 21
346.290432
 31
0.0
 11
185.962338
 21
346.449672
 31
0.0
 11
185.792379
 21
346.567571
 31
0.0
 11
185.583836
 21
346.638310
 31
0.0
 11
185.336708
 21
346.661890
 31
0.0
  0
SPLINE
  5
158
100
AcDbEntity
  8
0
 62
5
100
AcDbSpline
 70
0
 71
3
 72
31
 73
27
 74
25
 40
0.000000
 40
0.000000
 40
0.000000
 40
0.000000
 40
0.234166
 40
0.451276
 40
0.661787
 40
0.869015
 40
1.079059
 40
1.303388
 40
1.611774
 40
1.896744
 40
2.185937
 40
2.494220
 40
2.829658
 40
3.210108
 40
3.591776
 40
3.927214
 40
4.234451
 40
4.523644
 40
4.808613
 40
5.117000
 40
5.341359
 40
5.551694
 40
5.759743
 40
5.968931
 40
6.184466
 40
6.416899
 40
6.416899
 40
6.416899
 40
6.416899
 10
184.779978
 20
346.898912
 30
0.0
 10
184.704893
 20
346.921157
 30
0.0
 10
184.560193
 20
346.964027
 30
0.0
 10
184.368958
 20
347.078714
 30
0.0
 10
184.214470
 20
347.225970
 30
0.0
 10
184.102101
 20
347.405116
 30
0.0
 10
184.034941
 20
347.610366
 30
0.0
 10
184.013286
 20
347.858416
 30
0.0
 10
184.044164
 20
348.132542
 30
0.0
 10
184.165046
 20
348.406376
 30
0.0
 10
184.367988
 20
348.625992
 30
0.0
 10
184.639053
 20
348.786155
 30
0.0
 10
184.970536
 20
348.880005
 30
0.0
 10
185.337124
 20
348.906132
 30
0.0
 10
185.703658
 20
348.880039
 30
0.0
 10
186.035393
 20
348.786497
 30
0.0
 10
186.305573
 20
348.625574
 30
0.0
 10
186.508400
 20
348.406416
 30
0.0
 10
186.629221
 20
348.132533
 30
0.0
 10
186.660218
 20
347.858399
 30
0.0
 10
186.638247
 20
347.610272
 30
0.0
 10
186.570233
 20
347.404723
 30
0.0
 10
186.456017
 20
347.227028
 30
0.0
 10
186.303851
 20
347.078638
 30
0.0
 10
186.114171
 20
346.964069
 30
0.0
 10
185.970654
 20
346.921170
 30
0.0
 10
185.896188
 20
346.898912
 30
0.0
 11
184.779978
 21
346.898912
 31
0.0
 11
184.558573
 21
346.975161
 31
0.0
 11
184.372080
 21
347.086323
 31
0.0
 11
184.220498
 21
347.232397
 31
0.0
 11
184.110253
 21
347.407867
 31
0.0
 11
184.044107
 21
347.607224
 31
0.0
 11
184.022058
 21
347.830466
 31
0.0
 11
184.060949
 21
348.136391
 31
0.0
 11
184.177622
 21
348.396381
 31
0.0
 11
184.372078
 21
348.610436
 31
0.0
 11
184.636050
 21
348.769675
 31
0.0
 11
184.957593
 21
348.865219
 31
0.0
 11
185.336708
 21
348.897067
 31
0.0
 11
185.717044
 21
348.865219
 31
0.0
 11
186.038588
 21
348.769675
 31
0.0
 11
186.301338
 21
348.610436
 31
0.0
 11
186.495793
 21
348.396381
 31
0.0
 11
186.612467
 21
348.136391
 31
0.0
 11
186.651358
 21
347.830466
 31
0.0
 11
186.629002
 21
347.607224
 31
0.0
 11
186.561936
 21
347.407867
 31
0.0
 11
186.450158
 21
347.232397
 31
0.0
 11
186.300414
 21
347.086325
 31
0.0
 11
186.115758
 21
346.975164
 31
0.0
 11
185.896188
 21
346.898912
 31
0.0
  0
LWPOLYLINE
  5
159
100
AcDbEntity
  8
0
 62
5
100
AcDbPolyline
 90
1
 70
1
 10
185.336708
 20
346.661890
 30
0.0
  0
SPLINE
  5
15a
100
AcDbEntity
  8
0
 62
5
100
AcDbSpline
 70
0
 71
3
 72
31
 73
27
 74
25
 40
0.000000
 40
0.000000
 40
0.000000
 40
0.000000
 40
0.261660
 40
0.503362
 40
0.737269
 40
0.969510
 40
1.204250
 40
1.454784
 40
1.824815
 40
2.154238
 40
2.472104
 40
2.801789
 40
3.165915
 40
3.586037
 40
4.006463
 40
4.371470
 40
4.702447
 40
5.019334
 40
5.348416
 40
5.718414
 40
5.968947
 40
6.203687
 40
6.435928
 40
6.670941
 40
6.913434
 40
7.175384
 40
7.175384
 40
7.175384
 40
7.175384
 10
185.896188
 20
346.898912
 30
0.0
 10
185.980373
 20
346.875063
 30
0.0
 10
186.142321
 20
346.829184
 30
0.0
 10
186.356759
 20
346.703279
 30
0.0
 10
186.528408
 20
346.538604
 30
0.0
 10
186.656603
 20
346.340542
 30
0.0
 10
186.733343
 20
346.111256
 30
0.0
 10
186.757429
 20
345.825525
 30
0.0
 10
186.725517
 20
345.507578
 30
0.0
 10
186.602666
 20
345.185874
 30
0.0
 10
186.389305
 20
344.932034
 30
0.0
 10
186.099457
 20
344.750259
 30
0.0
 10
185.738951
 20
344.646451
 30
0.0
 10
185.336623
 20
344.617975
 30
0.0
 10
184.933904
 20
344.646445
 30
0.0
 10
184.572839
 20
344.750564
 30
0.0
 10
184.281494
 20
344.931052
 30
0.0
 10
184.069566
 20
345.186300
 30
0.0
 10
183.947695
 20
345.507702
 30
0.0
 10
183.916029
 20
345.825531
 30
0.0
 10
183.940049
 20
346.111273
 30
0.0
 10
184.016875
 20
346.340482
 30
0.0
 10
184.144985
 20
346.539142
 30
0.0
 10
184.318280
 20
346.703084
 30
0.0
 10
184.533378
 20
346.829098
 30
0.0
 10
184.695691
 20
346.875050
 30
0.0
 10
184.779978
 20
346.898912
 30
0.0
 11
185.896188
 21
346.898912
 31
0.0
 11
186.144542
 21
346.816534
 31
0.0
 11
186.353086
 21
346.694348
 31
0.0
 11
186.521818
 21
346.532354
 31
0.0
 11
186.647373
 21
346.336979
 31
0.0
 11
186.722707
 21
346.114655
 31
0.0
 11
186.747818
 21
345.865383
 31
0.0
 11
186.707089
 21
345.497600
 31
0.0
 11
186.584902
 21
345.191676
 31
0.0
 11
186.381258
 21
344.947610
 31
0.0
 11
186.103508
 21
344.769996
 31
0.0
 11
185.755324
 21
344.663428
 31
0.0
 11
185.336708
 21
344.627905
 31
0.0
 11
184.917784
 21
344.663428
 31
0.0
 11
184.568681
 21
344.769996
 31
0.0
 11
184.289398
 21
344.947610
 31
0.0
 11
184.087287
 21
345.191676
 31
0.0
 11
183.966020
 21
345.497600
 31
0.0
 11
183.925598
 21
345.865383
 31
0.0
 11
183.950709
 21
346.114655
 31
0.0
 11
184.026042
 21
346.336979
 31
0.0
 11
184.151598
 21
346.532354
 31
0.0
 11
184.321858
 21
346.694350
 31
0.0
 11
184.531318
 21
346.816536
 31
0.0
 11
184.779978
 21
346.898912
 31
0.0
  0
LWPOLYLINE
  5
15b
100
AcDbEntity
  8
0
 62
5
100
AcDbPolyline
 90
1
 70
1
 10
184.779978
 20
346.898912
 30
0.0
  0
LWPOLYLINE
  5
15c
100
AcDbEntity
  8
0
 62
5
100
AcDbPolyline
 90
1
 70
1
 10
184.576028
 20
347.778100
 30
0.0
  0
LWPOLYLINE
  5
15d
100
AcDbEntity
  8
0
 62
5
100
AcDbPolyline
 90
4
 70
1
 10
187.740008
 20
345.407875
 30
0.0
 10
188.321538
 20
345.407875
 30
0.0
 10
188.321538
 20
344.707831
 30
0.0
 10
187.740008
 20
344.707831
 30
0.0
  0
SPLINE
  5
15e
100
AcDbEntity
  8
0
 62
5
100
AcDbSpline
 70
0
 71
3
 72
31
 73
27
 74
25
 40
0.000000
 40
0.000000
 40
0.000000
 40
0.000000
 40
0.198745
 40
0.377702
 40
0.552034
 40
0.733625
 40
0.930322
 40
1.154147
 40
1.376444
 40
1.572265
 40
1.753600
 40
1.929884
 40
2.109527
 40
2.308341
 40
2.507156
 40
2.686799
 40
2.863083
 40
3.044418
 40
3.240239
 40
3.462536
 40
3.686361
 40
3.883058
 40
4.064649
 40
4.238981
 40
4.417938
 40
4.616684
 40
4.616684
 40
4.616684
 40
4.616684
 10
184.576028
 20
347.778100
 30
0.0
 10
184.579651
 20
347.711604
 30
0.0
 10
184.586536
 20
347.585233
 30
0.0
 10
184.655612
 20
347.410930
 30
0.0
 10
184.769937
 20
347.270534
 30
0.0
 10
184.927417
 20
347.169563
 30
0.0
 10
185.121408
 20
347.110683
 30
0.0
 10
185.336214
 20
347.094463
 30
0.0
 10
185.550634
 20
347.110745
 30
0.0
 10
185.743937
 20
347.169540
 30
0.0
 10
185.900614
 20
347.271535
 30
0.0
 10
186.018494
 20
347.410194
 30
0.0
 10
186.087707
 20
347.584953
 30
0.0
 10
186.106668
 20
347.778100
 30
0.0
 10
186.087707
 20
347.971247
 30
0.0
 10
186.018494
 20
348.146007
 30
0.0
 10
185.900614
 20
348.284666
 30
0.0
 10
185.743937
 20
348.386661
 30
0.0
 10
185.550634
 20
348.445456
 30
0.0
 10
185.336214
 20
348.461738
 30
0.0
 10
185.121408
 20
348.445518
 30
0.0
 10
184.927417
 20
348.386638
 30
0.0
 10
184.769937
 20
348.285667
 30
0.0
 10
184.655612
 20
348.145271
 30
0.0
 10
184.586536
 20
347.970967
 30
0.0
 10
184.579651
 20
347.844596
 30
0.0
 10
184.576028
 20
347.778100
 30
0.0
 11
184.576028
 21
347.778100
 31
0.0
 11
184.598077
 21
347.580582
 31
0.0
 11
184.664223
 21
347.414299
 31
0.0
 11
184.774468
 21
347.279251
 31
0.0
 11
184.926357
 21
347.179726
 31
0.0
 11
185.113770
 21
347.120011
 31
0.0
 11
185.336708
 21
347.100106
 31
0.0
 11
185.558112
 21
347.120011
 31
0.0
 11
185.744606
 21
347.179726
 31
0.0
 11
185.896188
 21
347.279251
 31
0.0
 11
186.009493
 21
347.414299
 31
0.0
 11
186.077477
 21
347.580582
 31
0.0
 11
186.100138
 21
347.778100
 31
0.0
 11
186.077477
 21
347.975619
 31
0.0
 11
186.009493
 21
348.141902
 31
0.0
 11
185.896188
 21
348.276950
 31
0.0
 11
185.744606
 21
348.376475
 31
0.0
 11
185.558112
 21
348.436190
 31
0.0
 11
185.336708
 21
348.456095
 31
0.0
 11
185.113770
 21
348.436190
 31
0.0
 11
184.926357
 21
348.376475
 31
0.0
 11
184.774468
 21
348.276950
 31
0.0
 11
184.664223
 21
348.141902
 31
0.0
 11
184.598077
 21
347.975619
 31
0.0
 11
184.576028
 21
347.778100
 31
0.0
  0
LWPOLYLINE
  5
15f
100
AcDbEntity
  8
0
 62
5
100
AcDbPolyline
 90
5
 70
0
 10
189.542478
 20
348.822653
 30
0.0
 10
191.728048
 20
348.822653
 30
0.0
 10
191.728048
 20
348.354120
 30
0.0
 10
190.052358
 20
348.354120
 30
0.0
 10
190.052358
 20
347.345396
 30
0.0
  0
SPLINE
  5
160
100
AcDbEntity
  8
0
 62
5
100
AcDbSpline
 70
0
 71
3
 72
31
 73
27
 74
25
 40
0.000000
 40
0.000000
 40
0.000000
 40
0.000000
 40
0.084651
 40
0.167982
 40
0.250265
 40
0.332033
 40
0.413210
 40
0.494088
 40
0.923641
 40
1.308600
 40
1.674752
 40
2.034162
 40
2.400439
 40
2.803172
 40
3.215780
 40
3.586828
 40
3.948183
 40
4.321828
 40
4.729191
 40
5.194915
 40
5.368923
 40
5.545924
 40
5.726436
 40
5.910038
 40
6.099887
 40
6.296367
 40
6.296367
 40
6.296367
 40
6.296367
 10
190.052358
 20
347.345396
 30
0.0
 10
190.079212
 20
347.354076
 30
0.0
 10
190.132503
 20
347.371299
 30
0.0
 10
190.213524
 20
347.391512
 30
0.0
 10
190.294667
 20
347.406296
 30
0.0
 10
190.375414
 20
347.419166
 30
0.0
 10
190.456439
 20
347.426491
 30
0.0
 10
190.653597
 20
347.431555
 30
0.0
 10
190.953347
 20
347.404700
 30
0.0
 10
191.331094
 20
347.279436
 30
0.0
 10
191.639166
 20
347.064919
 30
0.0
 10
191.869912
 20
346.776464
 30
0.0
 10
192.006434
 20
346.419951
 30
0.0
 10
192.044301
 20
346.024709
 30
0.0
 10
192.006181
 20
345.627732
 30
0.0
 10
191.866284
 20
345.266317
 30
0.0
 10
191.627475
 20
344.977092
 30
0.0
 10
191.301599
 20
344.769383
 30
0.0
 10
190.899340
 20
344.649427
 30
0.0
 10
190.549141
 20
344.623538
 30
0.0
 10
190.276975
 20
344.631232
 30
0.0
 10
190.100322
 20
344.646087
 30
0.0
 10
189.921532
 20
344.670553
 30
0.0
 10
189.740135
 20
344.705434
 30
0.0
 10
189.555196
 20
344.749279
 30
0.0
 10
189.431671
 20
344.785747
 30
0.0
 10
189.368848
 20
344.804294
 30
0.0
 11
190.052358
 21
347.345396
 31
0.0
 11
190.133199
 21
347.370506
 31
0.0
 11
190.214042
 21
347.390716
 31
0.0
 11
190.294888
 21
347.406026
 31
0.0
 11
190.375733
 21
347.418276
 31
0.0
 11
190.456577
 21
347.425626
 31
0.0
 11
190.537418
 21
347.428076
 31
0.0
 11
190.964917
 21
347.386122
 31
0.0
 11
191.328720
 21
347.260261
 31
0.0
 11
191.628828
 21
347.050493
 31
0.0
 11
191.852378
 21
346.769067
 31
0.0
 11
191.986508
 21
346.428233
 31
0.0
 11
192.031218
 21
346.027989
 31
0.0
 11
191.985283
 21
345.617946
 31
0.0
 11
191.847480
 21
345.273437
 31
0.0
 11
191.617808
 21
344.994460
 31
0.0
 11
191.304534
 21
344.790817
 31
0.0
 11
190.915928
 21
344.668631
 31
0.0
 11
190.451988
 21
344.627902
 31
0.0
 11
190.278049
 21
344.632802
 31
0.0
 11
190.101659
 21
344.647502
 31
0.0
 11
189.922818
 21
344.672002
 31
0.0
 11
189.742448
 21
344.706301
 31
0.0
 11
189.557791
 21
344.750398
 31
0.0
 11
189.368848
 21
344.804294
 31
0.0
  0
LWPOLYLINE
  5
161
100
AcDbEntity
  8
0
 62
5
100
AcDbPolyline
 90
2
 70
0
 10
189.368848
 20
344.804294
 30
0.0
 10
189.368848
 20
345.363778
 30
0.0
  0
SPLINE
  5
162
100
AcDbEntity
  8
0
 62
5
100
AcDbSpline
 70
0
 71
3
 72
31
 73
27
 74
25
 40
0.000000
 40
0.000000
 40
0.000000
 40
0.000000
 40
0.186394
 40
0.369960
 40
0.552021
 40
0.735495
 40
0.923287
 40
1.116658
 40
1.413786
 40
1.679029
 40
1.929076
 40
2.171819
 40
2.416973
 40
2.685488
 40
2.954002
 40
3.199156
 40
3.441899
 40
3.691946
 40
3.957189
 40
4.254317
 40
4.403246
 40
4.552988
 40
4.704346
 40
4.857659
 40
5.016867
 40
5.182703
 40
5.182703
 40
5.182703
 40
5.182703
 10
189.368848
 20
345.363778
 30
0.0
 10
189.424119
 20
345.335321
 30
0.0
 10
189.533823
 20
345.278837
 30
0.0
 10
189.705680
 20
345.212171
 30
0.0
 10
189.881268
 20
345.159848
 30
0.0
 10
190.062245
 20
345.122997
 30
0.0
 10
190.249416
 20
345.101269
 30
0.0
 10
190.475436
 20
345.092030
 30
0.0
 10
190.728214
 20
345.111381
 30
0.0
 10
190.989068
 20
345.194818
 30
0.0
 10
191.202217
 20
345.336646
 30
0.0
 10
191.362354
 20
345.528365
 30
0.0
 10
191.457236
 20
345.766253
 30
0.0
 10
191.483506
 20
346.027988
 30
0.0
 10
191.457236
 20
346.289723
 30
0.0
 10
191.362354
 20
346.527613
 30
0.0
 10
191.202218
 20
346.719320
 30
0.0
 10
190.989066
 20
346.861198
 30
0.0
 10
190.728221
 20
346.944425
 30
0.0
 10
190.490280
 20
346.963373
 30
0.0
 10
190.291738
 20
346.955828
 30
0.0
 10
190.142513
 20
346.939171
 30
0.0
 10
189.993396
 20
346.911750
 30
0.0
 10
189.843886
 20
346.871815
 30
0.0
 10
189.692725
 20
346.820534
 30
0.0
 10
189.593236
 20
346.777532
 30
0.0
 10
189.542478
 20
346.755592
 30
0.0
 11
189.368848
 21
345.363778
 31
0.0
 11
189.536051
 21
345.281402
 31
0.0
 11
189.706928
 21
345.214337
 31
0.0
 11
189.881478
 21
345.162584
 31
0.0
 11
190.061233
 21
345.125834
 31
0.0
 11
190.247727
 21
345.103784
 31
0.0
 11
190.440958
 21
345.096434
 31
0.0
 11
190.736777
 21
345.124301
 31
0.0
 11
190.988500
 21
345.207902
 31
0.0
 11
191.196128
 21
345.347237
 31
0.0
 11
191.350772
 21
345.534344
 31
0.0
 11
191.443559
 21
345.761261
 31
0.0
 11
191.474488
 21
346.027988
 31
0.0
 11
191.443559
 21
346.294715
 31
0.0
 11
191.350772
 21
346.521632
 31
0.0
 11
191.196128
 21
346.708739
 31
0.0
 11
190.988500
 21
346.848074
 31
0.0
 11
190.736777
 21
346.931675
 31
0.0
 11
190.440958
 21
346.959542
 31
0.0
 11
190.292131
 21
346.954030
 31
0.0
 11
190.143304
 21
346.937493
 31
0.0
 11
189.994478
 21
346.909932
 31
0.0
 11
189.846260
 21
346.870734
 31
0.0
 11
189.695593
 21
346.819288
 31
0.0
 11
189.542478
 21
346.755592
 31
0.0
  0
LWPOLYLINE
  5
163
100
AcDbEntity
  8
0
 62
5
100
AcDbPolyline
 90
2
 70
0
 10
189.542478
 20
346.755592
 30
0.0
 10
189.542478
 20
348.822653
 30
0.0
  0
SPLINE
  5
164
100
AcDbEntity
  8
0
 62
5
100
AcDbSpline
 70
0
 71
3
 72
19
 73
15
 74
13
 40
0.000000
 40
0.000000
 40
0.000000
 40
0.000000
 40
0.247938
 40
0.474308
 40
0.685801
 40
0.893298
 40
1.107880
 40
1.337041
 40
1.636462
 40
1.909034
 40
2.183060
 40
2.477508
 40
2.808912
 40
3.193415
 40
3.193415
 40
3.193415
 40
3.193415
 10
195.462528
 20
347.202080
 30
0.0
 10
195.505301
 20
347.272969
 30
0.0
 10
195.587127
 20
347.408580
 30
0.0
 10
195.741044
 20
347.579600
 30
0.0
 10
195.912246
 20
347.711982
 30
0.0
 10
196.103950
 20
347.804202
 30
0.0
 10
196.315559
 20
347.858195
 30
0.0
 10
196.563397
 20
347.876815
 30
0.0
 10
196.832122
 20
347.848473
 30
0.0
 10
197.094698
 20
347.731434
 30
0.0
 10
197.300039
 20
347.533101
 30
0.0
 10
197.446475
 20
347.267329
 30
0.0
 10
197.532833
 20
346.938305
 30
0.0
 10
197.541482
 20
346.699303
 30
0.0
 10
197.546128
 20
346.570939
 30
0.0
 11
195.462528
 21
347.202080
 31
0.0
 11
195.597577
 21
347.410011
 31
0.0
 11
195.749163
 21
347.578132
 31
0.0
 11
195.917288
 21
347.706442
 31
0.0
 11
196.104087
 21
347.796780
 31
0.0
 11
196.311710
 21
347.850983
 31
0.0
 11
196.540158
 21
347.869051
 31
0.0
 11
196.837200
 21
347.831385
 31
0.0
 11
197.085247
 21
347.718386
 31
0.0
 11
197.284298
 21
347.530054
 31
0.0
 11
197.429759
 21
347.274045
 31
0.0
 11
197.517036
 21
346.954340
 31
0.0
 11
197.546128
 21
346.570939
 31
0.0
  0
LWPOLYLINE
  5
165
100
AcDbEntity
  8
0
 62
5
100
AcDbPolyline
 90
4
 70
0
 10
197.546128
 20
346.570939
 30
0.0
 10
197.546128
 20
344.707831
 30
0.0
 10
197.036248
 20
344.707831
 30
0.0
 10
197.036248
 20
346.554403
 30
0.0
  0
SPLINE
  5
166
100
AcDbEntity
  8
0
 62
5
100
AcDbSpline
 70
0
 71
3
 72
19
 73
15
 74
13
 40
0.000000
 40
0.000000
 40
0.000000
 40
0.000000
 40
0.270964
 40
0.496689
 40
0.686656
 40
0.858175
 40
1.033355
 40
1.231400
 40
1.477498
 40
1.702719
 40
1.927122
 40
2.160452
 40
2.410313
 40
2.691664
 40
2.691664
 40
2.691664
 40
2.691664
 10
197.036248
 20
346.554403
 30
0.0
 10
197.033564
 20
346.644839
 30
0.0
 10
197.028644
 20
346.810611
 30
0.0
 10
196.978166
 20
347.035579
 30
0.0
 10
196.891367
 20
347.213965
 30
0.0
 10
196.761064
 20
347.342248
 30
0.0
 10
196.590913
 20
347.415726
 30
0.0
 10
196.383477
 20
347.435626
 30
0.0
 10
196.159480
 20
347.411631
 30
0.0
 10
195.941453
 20
347.322287
 30
0.0
 10
195.766204
 20
347.171195
 30
0.0
 10
195.637587
 20
346.970152
 30
0.0
 10
195.560005
 20
346.723895
 30
0.0
 10
195.552136
 20
346.546424
 30
0.0
 10
195.547968
 20
346.452428
 30
0.0
 11
197.036248
 21
346.554403
 31
0.0
 11
197.018793
 21
346.824805
 31
0.0
 11
196.966430
 21
347.044372
 31
0.0
 11
196.879158
 21
347.213105
 31
0.0
 11
196.756051
 21
347.332535
 31
0.0
 11
196.596198
 21
347.404193
 31
0.0
 11
196.399598
 21
347.428079
 31
0.0
 11
196.155226
 21
347.398987
 31
0.0
 11
195.947602
 21
347.311711
 31
0.0
 11
195.776728
 21
347.166251
 31
0.0
 11
195.649639
 21
346.970570
 31
0.0
 11
195.573386
 21
346.732629
 31
0.0
 11
195.547968
 21
346.452428
 31
0.0
  0
LWPOLYLINE
  5
167
100
AcDbEntity
  8
0
 62
5
100
AcDbPolyline
 90
4
 70
0
 10
195.547968
 20
346.452428
 30
0.0
 10
195.547968
 20
344.707831
 30
0.0
 10
195.038098
 20
344.707831
 30
0.0
 10
195.038098
 20
346.554403
 30
0.0
  0
SPLINE
  5
168
100
AcDbEntity
  8
0
 62
5
100
AcDbSpline
 70
0
 71
3
 72
19
 73
15
 74
13
 40
0.000000
 40
0.000000
 40
0.000000
 40
0.000000
 40
0.272187
 40
0.497912
 40
0.686794
 40
0.858753
 40
1.035611
 40
1.236696
 40
1.479786
 40
1.703676
 40
1.928614
 40
2.161684
 40
2.410669
 40
2.690495
 40
2.690495
 40
2.690495
 40
2.690495
 10
195.038098
 20
346.554403
 30
0.0
 10
195.035415
 20
346.645237
 30
0.0
 10
195.030507
 20
346.811399
 30
0.0
 10
194.980317
 20
347.036557
 30
0.0
 10
194.892830
 20
347.214350
 30
0.0
 10
194.762012
 20
347.342664
 30
0.0
 10
194.589793
 20
347.415766
 30
0.0
 10
194.381854
 20
347.435646
 30
0.0
 10
194.158236
 20
347.411369
 30
0.0
 10
193.942012
 20
347.320664
 30
0.0
 10
193.768575
 20
347.168292
 30
0.0
 10
193.639472
 20
346.967983
 30
0.0
 10
193.561915
 20
346.722562
 30
0.0
 10
193.554004
 20
346.545907
 30
0.0
 10
193.549818
 20
346.452428
 30
0.0
 11
195.038098
 21
346.554403
 31
0.0
 11
195.020642
 21
346.826029
 31
0.0
 11
194.968276
 21
347.045597
 31
0.0
 11
194.880998
 21
347.213105
 31
0.0
 11
194.757279
 21
347.332535
 31
0.0
 11
194.595589
 21
347.404193
 31
0.0
 11
194.395928
 21
347.428079
 31
0.0
 11
194.154621
 21
347.398681
 31
0.0
 11
193.948834
 21
347.310486
 31
0.0
 11
193.778568
 21
347.163495
 31
0.0
 11
193.651484
 21
346.968120
 31
0.0
 11
193.575234
 21
346.731098
 31
0.0
 11
193.549818
 21
346.452428
 31
0.0
  0
LWPOLYLINE
  5
169
100
AcDbEntity
  8
0
 62
5
100
AcDbPolyline
 90
6
 70
0
 10
193.549818
 20
346.452428
 30
0.0
 10
193.549818
 20
344.707831
 30
0.0
 10
193.039938
 20
344.707831
 30
0.0
 10
193.039938
 20
347.794637
 30
0.0
 10
193.549818
 20
347.794637
 30
0.0
 10
193.549818
 20
347.315080
 30
0.0
  0
SPLINE
  5
16a
100
AcDbEntity
  8
0
 62
5
100
AcDbSpline
 70
0
 71
3
 72
19
 73
15
 74
13
 40
0.000000
 40
0.000000
 40
0.000000
 40
0.000000
 40
0.212273
 40
0.409105
 40
0.596408
 40
0.783874
 40
0.981087
 40
1.193832
 40
1.407512
 40
1.606029
 40
1.798565
 40
1.993454
 40
2.195835
 40
2.414482
 40
2.414482
 40
2.414482
 40
2.414482
 10
193.549818
 20
347.315080
 30
0.0
 10
193.589046
 20
347.374133
 30
0.0
 10
193.664650
 20
347.487943
 30
0.0
 10
193.805859
 20
347.629790
 30
0.0
 10
193.962911
 20
347.739545
 30
0.0
 10
194.139081
 20
347.815701
 30
0.0
 10
194.334182
 20
347.860105
 30
0.0
 10
194.542267
 20
347.874216
 30
0.0
 10
194.751039
 20
347.858069
 30
0.0
 10
194.946115
 20
347.800883
 30
0.0
 10
195.117442
 20
347.703543
 30
0.0
 10
195.263724
 20
347.570055
 30
0.0
 10
195.383465
 20
347.400741
 30
0.0
 10
195.435504
 20
347.269984
 30
0.0
 10
195.462528
 20
347.202080
 30
0.0
 11
193.549818
 21
347.315080
 31
0.0
 11
193.673227
 21
347.487794
 31
0.0
 11
193.811947
 21
347.627435
 31
0.0
 11
193.965978
 21
347.734003
 31
0.0
 11
194.137776
 21
347.809030
 31
0.0
 11
194.329782
 21
347.854046
 31
0.0
 11
194.541998
 21
347.869051
 31
0.0
 11
194.754832
 21
347.850065
 31
0.0
 11
194.945002
 21
347.793106
 31
0.0
 11
195.112508
 21
347.698174
 31
0.0
 11
195.256741
 21
347.567107
 31
0.0
 11
195.373414
 21
347.401742
 31
0.0
 11
195.462528
 21
347.202080
 31
0.0
  0
LWPOLYLINE
  5
16b
100
AcDbEntity
  8
0
 62
5
100
AcDbPolyline
 90
1
 70
1
 10
195.462528
 20
347.202080
 30
0.0
  0
SPLINE
  5
16c
100
AcDbEntity
  8
0
 62
5
100
AcDbSpline
 70
0
 71
3
 72
19
 73
15
 74
13
 40
0.000000
 40
0.000000
 40
0.000000
 40
0.000000
 40
0.247938
 40
0.474305
 40
0.685794
 40
0.893295
 40
1.107881
 40
1.337043
 40
1.636464
 40
1.909036
 40
2.183062
 40
2.477510
 40
2.808914
 40
3.193417
 40
3.193417
 40
3.193417
 40
3.193417
 10
200.963658
 20
347.202080
 30
0.0
 10
201.006431
 20
347.272969
 30
0.0
 10
201.088255
 20
347.408579
 30
0.0
 10
201.242170
 20
347.579598
 30
0.0
 10
201.413368
 20
347.711985
 30
0.0
 10
201.605075
 20
347.804201
 30
0.0
 10
201.816688
 20
347.858195
 30
0.0
 10
202.064526
 20
347.876815
 30
0.0
 10
202.333252
 20
347.848473
 30
0.0
 10
202.595828
 20
347.731434
 30
0.0
 10
202.801169
 20
347.533101
 30
0.0
 10
202.947605
 20
347.267329
 30
0.0
 10
203.033963
 20
346.938305
 30
0.0
 10
203.042612
 20
346.699303
 30
0.0
 10
203.047258
 20
346.570939
 30
0.0
 11
200.963658
 21
347.202080
 31
0.0
 11
201.098706
 21
347.410011
 31
0.0
 11
201.250289
 21
347.578132
 31
0.0
 11
201.418408
 21
347.706442
 31
0.0
 11
201.605212
 21
347.796780
 31
0.0
 11
201.812839
 21
347.850983
 31
0.0
 11
202.041288
 21
347.869051
 31
0.0
 11
202.338330
 21
347.831385
 31
0.0
 11
202.586377
 21
347.718386
 31
0.0
 11
202.785428
 21
347.530054
 31
0.0
 11
202.930889
 21
347.274045
 31
0.0
 11
203.018166
 21
346.954340
 31
0.0
 11
203.047258
 21
346.570939
 31
0.0
  0
LWPOLYLINE
  5
16d
100
AcDbEntity
  8
0
 62
5
100
AcDbPolyline
 90
4
 70
0
 10
203.047258
 20
346.570939
 30
0.0
 10
203.047258
 20
344.707831
 30
0.0
 10
202.537378
 20
344.707831
 30
0.0
 10
202.537378
 20
346.554403
 30
0.0
  0
SPLINE
  5
16e
100
AcDbEntity
  8
0
 62
5
100
AcDbSpline
 70
0
 71
3
 72
19
 73
15
 74
13
 40
0.000000
 40
0.000000
 40
0.000000
 40
0.000000
 40
0.270964
 40
0.496690
 40
0.686659
 40
0.858174
 40
1.033351
 40
1.231396
 40
1.477494
 40
1.702719
 40
1.927126
 40
2.160452
 40
2.410312
 40
2.691664
 40
2.691664
 40
2.691664
 40
2.691664
 10
202.537378
 20
346.554403
 30
0.0
 10
202.534694
 20
346.644839
 30
0.0
 10
202.529773
 20
346.810612
 30
0.0
 10
202.479293
 20
347.035581
 30
0.0
 10
202.392486
 20
347.213961
 30
0.0
 10
202.262190
 20
347.342249
 30
0.0
 10
202.092041
 20
347.415726
 30
0.0
 10
201.884606
 20
347.435626
 30
0.0
 10
201.660608
 20
347.411630
 30
0.0
 10
201.442579
 20
347.322286
 30
0.0
 10
201.267323
 20
347.171198
 30
0.0
 10
201.138714
 20
346.970150
 30
0.0
 10
201.061135
 20
346.723895
 30
0.0
 10
201.053266
 20
346.546424
 30
0.0
 10
201.049098
 20
346.452428
 30
0.0
 11
202.537378
 21
346.554403
 31
0.0
 11
202.519922
 21
346.824805
 31
0.0
 11
202.467556
 21
347.044372
 31
0.0
 11
202.380278
 21
347.213105
 31
0.0
 11
202.257177
 21
347.332535
 31
0.0
 11
202.097327
 21
347.404193
 31
0.0
 11
201.900728
 21
347.428079
 31
0.0
 11
201.656354
 21
347.398987
 31
0.0
 11
201.448728
 21
347.311711
 31
0.0
 11
201.277848
 21
347.166251
 31
0.0
 11
201.150764
 21
346.970570
 31
0.0
 11
201.074514
 21
346.732629
 31
0.0
 11
201.049098
 21
346.452428
 31
0.0
  0
LWPOLYLINE
  5
16f
100
AcDbEntity
  8
0
 62
5
100
AcDbPolyline
 90
4
 70
0
 10
201.049098
 20
346.452428
 30
0.0
 10
201.049098
 20
344.707831
 30
0.0
 10
200.539228
 20
344.707831
 30
0.0
 10
200.539228
 20
346.554403
 30
0.0
  0
SPLINE
  5
170
100
AcDbEntity
  8
0
 62
5
100
AcDbSpline
 70
0
 71
3
 72
19
 73
15
 74
13
 40
0.000000
 40
0.000000
 40
0.000000
 40
0.000000
 40
0.272187
 40
0.497912
 40
0.686794
 40
0.858753
 40
1.035611
 40
1.236696
 40
1.479791
 40
1.703680
 40
1.928615
 40
2.161688
 40
2.410674
 40
2.690501
 40
2.690501
 40
2.690501
 40
2.690501
 10
200.539228
 20
346.554403
 30
0.0
 10
200.536545
 20
346.645237
 30
0.0
 10
200.531637
 20
346.811399
 30
0.0
 10
200.481447
 20
347.036557
 30
0.0
 10
200.393960
 20
347.214350
 30
0.0
 10
200.263142
 20
347.342664
 30
0.0
 10
200.090923
 20
347.415766
 30
0.0
 10
199.882982
 20
347.435646
 30
0.0
 10
199.659363
 20
347.411369
 30
0.0
 10
199.443137
 20
347.320665
 30
0.0
 10
199.269705
 20
347.168289
 30
0.0
 10
199.140596
 20
346.967984
 30
0.0
 10
199.063036
 20
346.722563
 30
0.0
 10
199.055124
 20
346.545907
 30
0.0
 10
199.050938
 20
346.452428
 30
0.0
 11
200.539228
 21
346.554403
 31
0.0
 11
200.521772
 21
346.826029
 31
0.0
 11
200.469406
 21
347.045597
 31
0.0
 11
200.382128
 21
347.213105
 31
0.0
 11
200.258409
 21
347.332535
 31
0.0
 11
200.096719
 21
347.404193
 31
0.0
 11
199.897058
 21
347.428079
 31
0.0
 11
199.655747
 21
347.398681
 31
0.0
 11
199.449960
 21
347.310486
 31
0.0
 11
199.279698
 21
347.163495
 31
0.0
 11
199.152609
 21
346.968120
 31
0.0
 11
199.076356
 21
346.731098
 31
0.0
 11
199.050938
 21
346.452428
 31
0.0
  0
LWPOLYLINE
  5
171
100
AcDbEntity
  8
0
 62
5
100
AcDbPolyline
 90
6
 70
0
 10
199.050938
 20
346.452428
 30
0.0
 10
199.050938
 20
344.707831
 30
0.0
 10
198.541068
 20
344.707831
 30
0.0
 10
198.541068
 20
347.794637
 30
0.0
 10
199.050938
 20
347.794637
 30
0.0
 10
199.050938
 20
347.315080
 30
0.0
  0
SPLINE
  5
172
100
AcDbEntity
  8
0
 62
5
100
AcDbSpline
 70
0
 71
3
 72
19
 73
15
 74
13
 40
0.000000
 40
0.000000
 40
0.000000
 40
0.000000
 40
0.212276
 40
0.409110
 40
0.596414
 40
0.783880
 40
0.981093
 40
1.193839
 40
1.407514
 40
1.606031
 40
1.798571
 40
1.993460
 40
2.195841
 40
2.414488
 40
2.414488
 40
2.414488
 40
2.414488
 10
199.050938
 20
347.315080
 30
0.0
 10
199.090168
 20
347.374133
 30
0.0
 10
199.165775
 20
347.487943
 30
0.0
 10
199.306987
 20
347.629789
 30
0.0
 10
199.464041
 20
347.739545
 30
0.0
 10
199.640211
 20
347.815701
 30
0.0
 10
199.835312
 20
347.860105
 30
0.0
 10
200.043395
 20
347.874216
 30
0.0
 10
200.252166
 20
347.858069
 30
0.0
 10
200.447241
 20
347.800882
 30
0.0
 10
200.618571
 20
347.703545
 30
0.0
 10
200.764854
 20
347.570055
 30
0.0
 10
200.884595
 20
347.400741
 30
0.0
 10
200.936634
 20
347.269984
 30
0.0
 10
200.963658
 20
347.202080
 30
0.0
 11
199.050938
 21
347.315080
 31
0.0
 11
199.174352
 21
347.487794
 31
0.0
 11
199.313076
 21
347.627435
 31
0.0
 11
199.467108
 21
347.734003
 31
0.0
 11
199.638906
 21
347.809030
 31
0.0
 11
199.830912
 21
347.854046
 31
0.0
 11
200.043128
 21
347.869051
 31
0.0
 11
200.255958
 21
347.850065
 31
0.0
 11
200.446128
 21
347.793106
 31
0.0
 11
200.613638
 21
347.698174
 31
0.0
 11
200.757871
 21
347.567107
 31
0.0
 11
200.874544
 21
347.401742
 31
0.0
 11
200.963658
 21
347.202080
 31
0.0
  0
LWPOLYLINE
  5
173
100
AcDbEntity
  8
0
 62
5
100
AcDbPolyline
 90
1
 70
1
 10
200.963658
 20
347.202080
 30
0.0
  0
SPLINE
  5
174
100
AcDbEntity
  8
0
 62
1
100
AcDbSpline
 70
0
 71
3
 72
25
 73
21
 74
19
 40
0.000000
 40
0.000000
 40
0.000000
 40
0.000000
 40
1.039764
 40
2.064647
 40
3.104411
 40
4.144175
 40
5.169058
 40
6.208822
 40
7.248586
 40
8.273470
 40
9.313233
 40
10.352997
 40
11.377881
 40
12.417645
 40
13.457409
 40
14.482292
 40
15.522056
 40
16.561820
 40
17.586703
 40
18.626467
 40
18.626467
 40
18.626467
 40
18.626467
 10
-19.045856
 20
317.463584
 30
0.0
 10
-19.081456
 20
317.115228
 30
0.0
 10
-19.152146
 20
316.423503
 30
0.0
 10
-19.700586
 20
315.509376
 30
0.0
 10
-20.503596
 20
314.829747
 30
0.0
 10
-21.497971
 20
314.469295
 30
0.0
 10
-22.553116
 20
314.469295
 30
0.0
 10
-23.546098
 20
314.829747
 30
0.0
 10
-24.354668
 20
315.509376
 30
0.0
 10
-24.882447
 20
316.423503
 30
0.0
 10
-25.066721
 20
317.463584
 30
0.0
 10
-24.882447
 20
318.503665
 30
0.0
 10
-24.354668
 20
319.417792
 30
0.0
 10
-23.546098
 20
320.097421
 30
0.0
 10
-22.553116
 20
320.457873
 30
0.0
 10
-21.497971
 20
320.457873
 30
0.0
 10
-20.503596
 20
320.097421
 30
0.0
 10
-19.700586
 20
319.417792
 30
0.0
 10
-19.152146
 20
318.503665
 30
0.0
 10
-19.081456
 20
317.811940
 30
0.0
 10
-19.045856
 20
317.463584
 30
0.0
 11
-19.045856
 21
317.463584
 31
0.0
 11
-19.227234
 21
316.439762
 31
0.0
 11
-19.739676
 21
315.552187
 31
0.0
 11
-20.535643
 21
314.883199
 31
0.0
 11
-21.512988
 21
314.528366
 31
0.0
 11
-22.537871
 21
314.528366
 31
0.0
 11
-23.515216
 21
314.883199
 31
0.0
 11
-24.311182
 21
315.552187
 31
0.0
 11
-24.823624
 21
316.439762
 31
0.0
 11
-25.005002
 21
317.463584
 31
0.0
 11
-24.823624
 21
318.487406
 31
0.0
 11
-24.311182
 21
319.374981
 31
0.0
 11
-23.515216
 21
320.043969
 31
0.0
 11
-22.537871
 21
320.398802
 31
0.0
 11
-21.512988
 21
320.398802
 31
0.0
 11
-20.535643
 21
320.043969
 31
0.0
 11
-19.739676
 21
319.374981
 31
0.0
 11
-19.227234
 21
318.487406
 31
0.0
 11
-19.045856
 21
317.463584
 31
0.0
  0
LWPOLYLINE
  5
175
100
AcDbEntity
  8
0
 62
1
100
AcDbPolyline
 90
1
 70
1
 10
-19.045856
 20
317.463584
 30
0.0
  0
LWPOLYLINE
  5
176
100
AcDbEntity
  8
0
 62
1
100
AcDbPolyline
 90
1
 70
1
 10
140.954141
 20
317.463317
 30
0.0
  0
LWPOLYLINE
  5
177
100
AcDbEntity
  8
0
 62
5
100
AcDbPolyline
 90
2
 70
0
 10
-22.007576
 20
341.011409
 30
0.0
 10
17.760908
 20
341.011409
 30
0.0
  0
LWPOLYLINE
  5
178
100
AcDbEntity
  8
0
 62
5
100
AcDbPolyline
 90
2
 70
0
 10
137.692108
 20
341.198392
 30
0.0
 10
177.460548
 20
341.198392
 30
0.0
  0
LWPOLYLINE
  5
179
100
AcDbEntity
  8
0
 62
5
100
AcDbPolyline
 90
2
 70
0
 10
98.533528
 20
341.198397
 30
0.0
 10
138.301968
 20
341.198397
 30
0.0
  0
SPLINE
  5
17a
100
AcDbEntity
  8
0
 62
1
100
AcDbSpline
 70
0
 71
3
 72
25
 73
21
 74
19
 40
0.000000
 40
0.000000
 40
0.000000
 40
0.000000
 40
1.039764
 40
2.064647
 40
3.104411
 40
4.144175
 40
5.169058
 40
6.208822
 40
7.248586
 40
8.273470
 40
9.313233
 40
10.352997
 40
11.377881
 40
12.417645
 40
13.457409
 40
14.482292
 40
15.522056
 40
16.561820
 40
17.586703
 40
18.626467
 40
18.626467
 40
18.626467
 40
18.626467
 10
140.954141
 20
317.463317
 30
0.0
 10
140.918541
 20
317.114961
 30
0.0
 10
140.847851
 20
316.423236
 30
0.0
 10
140.299411
 20
315.509109
 30
0.0
 10
139.496401
 20
314.829480
 30
0.0
 10
138.502026
 20
314.469028
 30
0.0
 10
137.446881
 20
314.469028
 30
0.0
 10
136.453899
 20
314.829480
 30
0.0
 10
135.645329
 20
315.509109
 30
0.0
 10
135.117550
 20
316.423236
 30
0.0
 10
134.933276
 20
317.463317
 30
0.0
 10
135.117550
 20
318.503398
 30
0.0
 10
135.645329
 20
319.417525
 30
0.0
 10
136.453899
 20
320.097154
 30
0.0
 10
137.446881
 20
320.457606
 30
0.0
 10
138.502026
 20
320.457606
 30
0.0
 10
139.496401
 20
320.097154
 30
0.0
 10
140.299411
 20
319.417525
 30
0.0
 10
140.847851
 20
318.503398
 30
0.0
 10
140.918541
 20
317.811673
 30
0.0
 10
140.954141
 20
317.463317
 30
0.0
 11
140.954141
 21
317.463317
 31
0.0
 11
140.772763
 21
316.439495
 31
0.0
 11
140.260321
 21
315.551920
 31
0.0
 11
139.464354
 21
314.882932
 31
0.0
 11
138.487009
 21
314.528099
 31
0.0
 11
137.462126
 21
314.528099
 31
0.0
 11
136.484781
 21
314.882932
 31
0.0
 11
135.688815
 21
315.551920
 31
0.0
 11
135.176373
 21
316.439495
 31
0.0
 11
134.994995
 21
317.463317
 31
0.0
 11
135.176373
 21
318.487139
 31
0.0
 11
135.688815
 21
319.374714
 31
0.0
 11
136.484781
 21
320.043702
 31
0.0
 11
137.462126
 21
320.398535
 31
0.0
 11
138.487009
 21
320.398535
 31
0.0
 11
139.464354
 21
320.043702
 31
0.0
 11
140.260321
 21
319.374714
 31
0.0
 11
140.772763
 21
318.487139
 31
0.0
 11
140.954141
 21
317.463317
 31
0.0
  0
LWPOLYLINE
  5
17b
100
AcDbEntity
  8
0
 62
5
100
AcDbPolyline
 90
2
 70
0
 10
137.895548
 20
354.581269
 30
0.0
 10
137.895548
 20
332.936113
 30
0.0
  0
ENDSEC
  0
SECTION
  2
OBJECTS
  0
DICTIONARY
  5
C
330
0
100
AcDbDictionary
  3
ACAD_GROUP
350
D
  3
ACAD_MLINESTYLE
350
17
  0
DICTIONARY
  5
D
330
C
100
AcDbDictionary
  0
DICTIONARY
  5
1A
330
C
100
AcDbDictionary
  0
DICTIONARY
  5
17
330
C
100
AcDbDictionary
  3
STANDARD
350
18
  0
DICTIONARY
  5
19
330
C
100
AcDbDictionary
  0
ENDSEC
  0
EOF
