<?xml version="1.0" encoding="UTF-8" standalone="no"?>
<svg
   xmlns:dc="http://purl.org/dc/elements/1.1/"
   xmlns:cc="http://creativecommons.org/ns#"
   xmlns:rdf="http://www.w3.org/1999/02/22-rdf-syntax-ns#"
   xmlns:svg="http://www.w3.org/2000/svg"
   xmlns="http://www.w3.org/2000/svg"
   xmlns:sodipodi="http://sodipodi.sourceforge.net/DTD/sodipodi-0.dtd"
   xmlns:inkscape="http://www.inkscape.org/namespaces/inkscape"
   width="297mm"
   height="420mm"
   viewBox="-90.907 -119.47975 297 419.99999"
   version="1.1"
   id="svg79"
   sodipodi:docname="M-19_v100k.svg"
   inkscape:version="0.92.5 (0.92.5+68)">
  <metadata
     id="metadata85">
    <rdf:RDF>
      <cc:Work
         rdf:about="">
        <dc:format>image/svg+xml</dc:format>
        <dc:type
           rdf:resource="http://purl.org/dc/dcmitype/StillImage" />
        <dc:title />
      </cc:Work>
    </rdf:RDF>
  </metadata>
  <defs
     id="defs83">
    <marker
       inkscape:stockid="Arrow1Lstart"
       style="overflow:visible"
       refY="0"
       refX="0"
       orient="auto"
       id="Arrow1Lstart">
      <path
         id="path896"
         style="fill-rule:evenodd;stroke:#000000;stroke-width:1.00000003pt;marker-start:none"
         transform="matrix(0.8,0,0,0.8,10,0)"
         d="M 0,0 5,-5 -12.5,0 5,5 Z"
         inkscape:connector-curvature="0" />
    </marker>
    <marker
       inkscape:stockid="Arrow1Lend"
       style="overflow:visible"
       refY="0"
       refX="0"
       orient="auto"
       id="Arrow1Lend">
      <path
         id="path899"
         style="fill-rule:evenodd;stroke:#000000;stroke-width:1.00000003pt;marker-start:none"
         transform="matrix(-0.8,0,0,-0.8,-10,0)"
         d="M 0,0 5,-5 -12.5,0 5,5 Z"
         inkscape:connector-curvature="0" />
    </marker>
    <marker
       inkscape:stockid="Arrow1Lstart"
       style="overflow:visible"
       refY="0"
       refX="0"
       orient="auto"
       id="Arrow1Lstart-2">
      <path
         inkscape:connector-curvature="0"
         id="path4773"
         style="fill-rule:evenodd;stroke:#000000;stroke-width:1.00000003pt;marker-start:none"
         transform="matrix(0.8,0,0,0.8,10,0)"
         d="M 0,0 5,-5 -12.5,0 5,5 Z" />
    </marker>
    <marker
       inkscape:stockid="Arrow1Lend"
       style="overflow:visible"
       refY="0"
       refX="0"
       orient="auto"
       id="Arrow1Lend-8">
      <path
         inkscape:connector-curvature="0"
         id="path4776"
         style="fill-rule:evenodd;stroke:#000000;stroke-width:1.00000003pt;marker-start:none"
         transform="matrix(-0.8,0,0,-0.8,-10,0)"
         d="M 0,0 5,-5 -12.5,0 5,5 Z" />
    </marker>
    <marker
       inkscape:stockid="Arrow1Lstart"
       style="overflow:visible"
       refY="0"
       refX="0"
       orient="auto"
       id="Arrow1Lstart-4">
      <path
         inkscape:connector-curvature="0"
         id="path4773-6"
         style="fill-rule:evenodd;stroke:#000000;stroke-width:1.00000003pt;marker-start:none"
         transform="matrix(0.8,0,0,0.8,10,0)"
         d="M 0,0 5,-5 -12.5,0 5,5 Z" />
    </marker>
    <marker
       inkscape:stockid="Arrow1Lend"
       style="overflow:visible"
       refY="0"
       refX="0"
       orient="auto"
       id="Arrow1Lend-2">
      <path
         inkscape:connector-curvature="0"
         id="path4776-5"
         style="fill-rule:evenodd;stroke:#000000;stroke-width:1.00000003pt;marker-start:none"
         transform="matrix(-0.8,0,0,-0.8,-10,0)"
         d="M 0,0 5,-5 -12.5,0 5,5 Z" />
    </marker>
    <marker
       inkscape:stockid="Arrow1Lstart"
       style="overflow:visible"
       refY="0"
       refX="0"
       orient="auto"
       id="Arrow1Lstart-7">
      <path
         inkscape:connector-curvature="0"
         id="path4773-2"
         style="fill-rule:evenodd;stroke:#000000;stroke-width:1.00000003pt;marker-start:none"
         transform="matrix(0.8,0,0,0.8,10,0)"
         d="M 0,0 5,-5 -12.5,0 5,5 Z" />
    </marker>
    <marker
       inkscape:stockid="Arrow1Lend"
       style="overflow:visible"
       refY="0"
       refX="0"
       orient="auto"
       id="Arrow1Lend-4">
      <path
         inkscape:connector-curvature="0"
         id="path4776-0"
         style="fill-rule:evenodd;stroke:#000000;stroke-width:1.00000003pt;marker-start:none"
         transform="matrix(-0.8,0,0,-0.8,-10,0)"
         d="M 0,0 5,-5 -12.5,0 5,5 Z" />
    </marker>
    <marker
       inkscape:stockid="Arrow1Lstart"
       style="overflow:visible"
       refY="0"
       refX="0"
       orient="auto"
       id="Arrow1Lstart-8">
      <path
         inkscape:connector-curvature="0"
         id="path4773-1"
         style="fill-rule:evenodd;stroke:#000000;stroke-width:1.00000003pt;marker-start:none"
         transform="matrix(0.8,0,0,0.8,10,0)"
         d="M 0,0 5,-5 -12.5,0 5,5 Z" />
    </marker>
    <marker
       inkscape:stockid="Arrow1Lend"
       style="overflow:visible"
       refY="0"
       refX="0"
       orient="auto"
       id="Arrow1Lend-3">
      <path
         inkscape:connector-curvature="0"
         id="path4776-1"
         style="fill-rule:evenodd;stroke:#000000;stroke-width:1.00000003pt;marker-start:none"
         transform="matrix(-0.8,0,0,-0.8,-10,0)"
         d="M 0,0 5,-5 -12.5,0 5,5 Z" />
    </marker>
    <marker
       inkscape:stockid="Arrow1Lstart"
       style="overflow:visible"
       refY="0"
       refX="0"
       orient="auto"
       id="Arrow1Lstart-8-9">
      <path
         inkscape:connector-curvature="0"
         id="path4773-1-1"
         style="fill-rule:evenodd;stroke:#000000;stroke-width:1.00000003pt;marker-start:none"
         transform="matrix(0.8,0,0,0.8,10,0)"
         d="M 0,0 5,-5 -12.5,0 5,5 Z" />
    </marker>
    <marker
       inkscape:stockid="Arrow1Lend"
       style="overflow:visible"
       refY="0"
       refX="0"
       orient="auto"
       id="Arrow1Lend-3-9">
      <path
         inkscape:connector-curvature="0"
         id="path4776-1-6"
         style="fill-rule:evenodd;stroke:#000000;stroke-width:1.00000003pt;marker-start:none"
         transform="matrix(-0.8,0,0,-0.8,-10,0)"
         d="M 0,0 5,-5 -12.5,0 5,5 Z" />
    </marker>
    <marker
       id="Arrow1Lstart-6"
       orient="auto"
       refX="0.0"
       refY="0.0"
       style="overflow:visible"
       inkscape:stockid="Arrow1Lstart">
      <path
         d="M 0.0,0.0 L 5.0,-5.0 L -12.5,0.0 L 5.0,5.0 L 0.0,0.0 z "
         transform="scale(0.8) translate(12.5,0)"
         style="fill-rule:evenodd;stroke:#000000;stroke-width:1.0pt;marker-start:none"
         id="path1478" />
    </marker>
    <marker
       id="Arrow1Lend-0"
       orient="auto"
       refX="0.0"
       refY="0.0"
       style="overflow:visible"
       inkscape:stockid="Arrow1Lend">
      <path
         d="M 0.0,0.0 L 5.0,-5.0 L -12.5,0.0 L 5.0,5.0 L 0.0,0.0 z "
         transform="scale(0.8) rotate(180) translate(12.5,0)"
         style="fill-rule:evenodd;stroke:#000000;stroke-width:1.0pt;marker-start:none"
         id="path1481" />
    </marker>
  </defs>
  <sodipodi:namedview
     pagecolor="#ffffff"
     bordercolor="#666666"
     borderopacity="1"
     objecttolerance="10"
     gridtolerance="10"
     guidetolerance="10"
     inkscape:pageopacity="0"
     inkscape:pageshadow="2"
     inkscape:window-width="1920"
     inkscape:window-height="993"
     id="namedview81"
     showgrid="false"
     inkscape:zoom="0.26130648"
     inkscape:cx="699.3445"
     inkscape:cy="429.37199"
     inkscape:window-x="0"
     inkscape:window-y="46"
     inkscape:window-maximized="1"
     inkscape:current-layer="g1385"
     fit-margin-top="0"
     fit-margin-left="0"
     fit-margin-right="0"
     fit-margin-bottom="0" />
  <g
     id="g987"
     style="fill:none;stroke:#000000"
     transform="translate(0.51365219,300.33878)">
    <rect
       style="fill:none;fill-opacity:1;stroke:#040000;stroke-width:0.1;stroke-linecap:square;stroke-linejoin:miter;stroke-miterlimit:2.61313009;stroke-dasharray:none;stroke-opacity:1;paint-order:markers stroke fill"
       id="rect815"
       width="296.80859"
       height="209.80858"
       x="-91.217506"
       y="-209.67711" />
    <ellipse
       style="fill:none;fill-opacity:1;stroke:#040000;stroke-width:0.1;stroke-linecap:square;stroke-linejoin:miter;stroke-miterlimit:2.61313009;stroke-dasharray:none;stroke-opacity:1;paint-order:markers stroke fill"
       id="path4651"
       cx="97.21508"
       cy="-197.8011"
       rx="2.9783051"
       ry="2.9783049" />
    <ellipse
       style="fill:none;fill-opacity:1;stroke:#040000;stroke-width:0.1;stroke-linecap:square;stroke-linejoin:miter;stroke-miterlimit:2.61313009;stroke-dasharray:none;stroke-opacity:1;paint-order:markers stroke fill"
       id="path4653"
       cx="177.21637"
       cy="-197.8024"
       rx="2.9795725"
       ry="2.9795723" />
    <g
       transform="translate(-91.313217,-296.7728)"
       style="fill:none;stroke:#000000"
       id="g4867">
      <path
         id="path4853"
         d="M 28.992483,75.353351 H 108.5"
         inkscape:connector-curvature="0"
         style="fill:#0000fe;fill-opacity:1;stroke:#0000fe;stroke-width:0.25446859;stroke-opacity:1;marker-start:url(#Arrow1Lstart-2);marker-end:url(#Arrow1Lend-8)" />
      <path
         id="path4855"
         d="M 28.551822,62.124185 V 83.769341"
         inkscape:connector-curvature="0"
         style="fill:#0000fe;fill-opacity:1;stroke:#0000fe;stroke-width:0.10364437;stroke-opacity:1" />
      <ellipse
         style="fill:none;fill-opacity:1;stroke:#040000;stroke-width:0.1;stroke-linecap:square;stroke-linejoin:miter;stroke-miterlimit:2.61313009;stroke-dasharray:none;stroke-opacity:1;paint-order:markers stroke fill"
         id="path4649"
         cx="108.52687"
         cy="98.973129"
         rx="2.9768696"
         ry="2.9768698" />
      <ellipse
         style="fill:none;fill-opacity:1;stroke:#040000;stroke-width:0.1;stroke-linecap:square;stroke-linejoin:miter;stroke-miterlimit:2.61313009;stroke-dasharray:none;stroke-opacity:1;paint-order:markers stroke fill"
         id="path4647"
         cx="28.529573"
         cy="98.970428"
         rx="2.9795725"
         ry="2.9795723" />
      <g
         aria-label="80 mm"
         style="font-style:normal;font-weight:normal;font-size:10.58333302px;line-height:1.25;font-family:sans-serif;letter-spacing:0px;word-spacing:0px;fill:#0000fe;fill-opacity:1;stroke:#0000fe;stroke-width:0.26458332;stroke-opacity:1"
         id="text4910">
        <path
           inkscape:connector-curvature="0"
           d="m 59.397775,69.77213 q -0.396875,0 -0.62563,0.212218 -0.225998,0.212218 -0.225998,0.584289 0,0.37207 0.225998,0.584288 0.228755,0.212218 0.62563,0.212218 0.396875,0 0.625629,-0.212218 0.228754,-0.214974 0.228754,-0.584288 0,-0.372071 -0.228754,-0.584289 -0.225998,-0.212218 -0.625629,-0.212218 z m -0.556728,-0.237022 q -0.35829,-0.08819 -0.559483,-0.333485 -0.198438,-0.245291 -0.198438,-0.598069 0,-0.493338 0.350022,-0.77997 0.352778,-0.286631 0.964627,-0.286631 0.614605,0 0.964627,0.286631 0.350021,0.286632 0.350021,0.77997 0,0.352778 -0.201193,0.598069 -0.198438,0.24529 -0.553972,0.333485 0.402387,0.09371 0.62563,0.366558 0.225998,0.272852 0.225998,0.666971 0,0.598068 -0.366558,0.917773 -0.363802,0.319705 -1.044553,0.319705 -0.680751,0 -1.047309,-0.319705 -0.363802,-0.319705 -0.363802,-0.917773 0,-0.394119 0.225998,-0.666971 0.225998,-0.272851 0.628385,-0.366558 z M 58.637098,68.65592 q 0,0.319704 0.198437,0.498849 0.201194,0.179145 0.56224,0.179145 0.35829,0 0.559483,-0.179145 0.20395,-0.179145 0.20395,-0.498849 0,-0.319705 -0.20395,-0.49885 -0.201193,-0.179145 -0.559483,-0.179145 -0.361046,0 -0.56224,0.179145 -0.198437,0.179145 -0.198437,0.49885 z"
           style="font-size:5.64444447px;fill:#0000fe;fill-opacity:1;stroke:#0000fe;stroke-width:0.26458332;stroke-opacity:1"
           id="path5353" />
        <path
           inkscape:connector-curvature="0"
           d="m 62.991698,67.977925 q -0.429948,0 -0.647678,0.424436 -0.214974,0.421679 -0.214974,1.270551 0,0.846115 0.214974,1.270551 0.21773,0.42168 0.647678,0.42168 0.432704,0 0.647678,-0.42168 0.21773,-0.424436 0.21773,-1.270551 0,-0.848872 -0.21773,-1.270551 -0.214974,-0.424436 -0.647678,-0.424436 z m 0,-0.440972 q 0.691776,0 1.055578,0.548459 0.366558,0.545703 0.366558,1.5875 0,1.039041 -0.366558,1.5875 -0.363802,0.545703 -1.055578,0.545703 -0.691775,0 -1.058333,-0.545703 -0.363802,-0.548459 -0.363802,-1.5875 0,-1.041797 0.363802,-1.5875 0.366558,-0.548459 1.058333,-0.548459 z"
           style="font-size:5.64444447px;fill:#0000fe;fill-opacity:1;stroke:#0000fe;stroke-width:0.26458332;stroke-opacity:1"
           id="path5355" />
        <path
           inkscape:connector-curvature="0"
           d="m 69.523599,69.23194 q 0.19017,-0.341754 0.454753,-0.504362 0.264583,-0.162609 0.622873,-0.162609 0.482314,0 0.744141,0.338997 0.261827,0.336242 0.261827,0.959115 v 1.863108 h -0.509874 v -1.846572 q 0,-0.443728 -0.157096,-0.658702 -0.157097,-0.214974 -0.479558,-0.214974 -0.394119,0 -0.622873,0.261828 -0.228754,0.261827 -0.228754,0.713823 v 1.744597 h -0.509874 v -1.846572 q 0,-0.446484 -0.157097,-0.658702 -0.157096,-0.214974 -0.485069,-0.214974 -0.388607,0 -0.617361,0.264584 -0.228755,0.261827 -0.228755,0.711067 v 1.744597 h -0.509874 v -3.086806 h 0.509874 v 0.479557 q 0.173633,-0.283875 0.416168,-0.418923 0.242535,-0.135048 0.57602,-0.135048 0.336241,0 0.570508,0.170877 0.237022,0.170877 0.350021,0.496094 z"
           style="font-size:5.64444447px;fill:#0000fe;fill-opacity:1;stroke:#0000fe;stroke-width:0.26458332;stroke-opacity:1"
           id="path5357" />
        <path
           inkscape:connector-curvature="0"
           d="m 75.024728,69.23194 q 0.190169,-0.341754 0.454752,-0.504362 0.264583,-0.162609 0.622873,-0.162609 0.482314,0 0.744141,0.338997 0.261827,0.336242 0.261827,0.959115 v 1.863108 h -0.509874 v -1.846572 q 0,-0.443728 -0.157096,-0.658702 -0.157097,-0.214974 -0.479558,-0.214974 -0.394118,0 -0.622873,0.261828 -0.228754,0.261827 -0.228754,0.713823 v 1.744597 h -0.509874 v -1.846572 q 0,-0.446484 -0.157097,-0.658702 -0.157096,-0.214974 -0.485069,-0.214974 -0.388607,0 -0.617361,0.264584 -0.228755,0.261827 -0.228755,0.711067 v 1.744597 h -0.509874 v -3.086806 h 0.509874 v 0.479557 q 0.173633,-0.283875 0.416168,-0.418923 0.242535,-0.135048 0.57602,-0.135048 0.336241,0 0.570508,0.170877 0.237022,0.170877 0.350022,0.496094 z"
           style="font-size:5.64444447px;fill:#0000fe;fill-opacity:1;stroke:#0000fe;stroke-width:0.26458332;stroke-opacity:1"
           id="path5359" />
      </g>
      <path
         id="path4853-8"
         d="m 108.5,75.353351 h 80"
         inkscape:connector-curvature="0"
         style="fill:#0000fe;fill-opacity:1;stroke:#0000fe;stroke-width:0.25525549;stroke-opacity:1;marker-start:url(#Arrow1Lstart-4);marker-end:url(#Arrow1Lend-2)" />
      <path
         id="path4855-6"
         d="M 108.55182,62.124185 V 83.769341"
         inkscape:connector-curvature="0"
         style="fill:#0000fe;fill-opacity:1;stroke:#0000fe;stroke-width:0.10364437;stroke-opacity:1" />
      <path
         id="path4857-2"
         d="M 188.55182,62.124185 V 83.769341"
         inkscape:connector-curvature="0"
         style="fill:#0000fe;fill-opacity:1;stroke:#0000fe;stroke-width:0.10364437;stroke-opacity:1" />
      <g
         aria-label="80 mm"
         style="font-style:normal;font-weight:normal;font-size:10.58333302px;line-height:1.25;font-family:sans-serif;letter-spacing:0px;word-spacing:0px;fill:#0000fe;fill-opacity:1;stroke:#0000fe;stroke-width:0.26458332;stroke-opacity:1"
         id="text4910-8">
        <path
           inkscape:connector-curvature="0"
           d="m 138.41281,69.772138 q -0.39687,0 -0.62563,0.212218 -0.226,0.212218 -0.226,0.584288 0,0.372071 0.226,0.584288 0.22876,0.212218 0.62563,0.212218 0.39688,0 0.62563,-0.212218 0.22876,-0.214974 0.22876,-0.584288 0,-0.37207 -0.22876,-0.584288 -0.226,-0.212218 -0.62563,-0.212218 z m -0.55673,-0.237022 q -0.35829,-0.08819 -0.55948,-0.333486 -0.19844,-0.24529 -0.19844,-0.598068 0,-0.493338 0.35003,-0.77997 0.35277,-0.286632 0.96462,-0.286632 0.61461,0 0.96463,0.286632 0.35002,0.286632 0.35002,0.77997 0,0.352778 -0.20119,0.598068 -0.19844,0.245291 -0.55397,0.333486 0.40238,0.09371 0.62563,0.366558 0.22599,0.272851 0.22599,0.66697 0,0.598069 -0.36655,0.917774 -0.36381,0.319705 -1.04456,0.319705 -0.68075,0 -1.04731,-0.319705 -0.3638,-0.319705 -0.3638,-0.917774 0,-0.394119 0.226,-0.66697 0.226,-0.272852 0.62838,-0.366558 z m -0.20394,-0.879189 q 0,0.319705 0.19843,0.49885 0.2012,0.179145 0.56224,0.179145 0.35829,0 0.55949,-0.179145 0.20395,-0.179145 0.20395,-0.49885 0,-0.319705 -0.20395,-0.49885 -0.2012,-0.179145 -0.55949,-0.179145 -0.36104,0 -0.56224,0.179145 -0.19843,0.179145 -0.19843,0.49885 z"
           style="font-size:5.64444447px;fill:#0000fe;fill-opacity:1;stroke:#0000fe;stroke-width:0.26458332;stroke-opacity:1"
           id="path5344" />
        <path
           inkscape:connector-curvature="0"
           d="m 142.00674,67.977932 q -0.42995,0 -0.64768,0.424436 -0.21498,0.42168 -0.21498,1.270551 0,0.846116 0.21498,1.270552 0.21773,0.421679 0.64768,0.421679 0.4327,0 0.64767,-0.421679 0.21773,-0.424436 0.21773,-1.270552 0,-0.848871 -0.21773,-1.270551 -0.21497,-0.424436 -0.64767,-0.424436 z m 0,-0.440972 q 0.69177,0 1.05557,0.548459 0.36656,0.545703 0.36656,1.5875 0,1.039041 -0.36656,1.5875 -0.3638,0.545704 -1.05557,0.545704 -0.69178,0 -1.05834,-0.545704 -0.3638,-0.548459 -0.3638,-1.5875 0,-1.041797 0.3638,-1.5875 0.36656,-0.548459 1.05834,-0.548459 z"
           style="font-size:5.64444447px;fill:#0000fe;fill-opacity:1;stroke:#0000fe;stroke-width:0.26458332;stroke-opacity:1"
           id="path5346" />
        <path
           inkscape:connector-curvature="0"
           d="m 148.53864,69.231947 q 0.19017,-0.341753 0.45475,-0.504362 0.26458,-0.162608 0.62287,-0.162608 0.48232,0 0.74414,0.338997 0.26183,0.336241 0.26183,0.959115 v 1.863107 h -0.50987 v -1.846571 q 0,-0.443728 -0.1571,-0.658702 -0.1571,-0.214974 -0.47956,-0.214974 -0.39412,0 -0.62287,0.261827 -0.22875,0.261827 -0.22875,0.713824 v 1.744596 h -0.50988 v -1.846571 q 0,-0.446484 -0.1571,-0.658702 -0.15709,-0.214974 -0.48506,-0.214974 -0.38861,0 -0.61737,0.264583 -0.22875,0.261827 -0.22875,0.711068 v 1.744596 h -0.50987 v -3.086805 h 0.50987 v 0.479557 q 0.17363,-0.283876 0.41617,-0.418924 0.24253,-0.135047 0.57602,-0.135047 0.33624,0 0.57051,0.170876 0.23702,0.170877 0.35002,0.496094 z"
           style="font-size:5.64444447px;fill:#0000fe;fill-opacity:1;stroke:#0000fe;stroke-width:0.26458332;stroke-opacity:1"
           id="path5348" />
        <path
           inkscape:connector-curvature="0"
           d="m 154.03977,69.231947 q 0.19016,-0.341753 0.45475,-0.504362 0.26458,-0.162608 0.62287,-0.162608 0.48231,0 0.74414,0.338997 0.26183,0.336241 0.26183,0.959115 v 1.863107 h -0.50988 v -1.846571 q 0,-0.443728 -0.15709,-0.658702 -0.1571,-0.214974 -0.47956,-0.214974 -0.39412,0 -0.62287,0.261827 -0.22876,0.261827 -0.22876,0.713824 v 1.744596 h -0.50987 v -1.846571 q 0,-0.446484 -0.1571,-0.658702 -0.15709,-0.214974 -0.48507,-0.214974 -0.3886,0 -0.61736,0.264583 -0.22875,0.261827 -0.22875,0.711068 v 1.744596 h -0.50988 v -3.086805 h 0.50988 v 0.479557 q 0.17363,-0.283876 0.41617,-0.418924 0.24253,-0.135047 0.57602,-0.135047 0.33624,0 0.5705,0.170876 0.23703,0.170877 0.35003,0.496094 z"
           style="font-size:5.64444447px;fill:#0000fe;fill-opacity:1;stroke:#0000fe;stroke-width:0.26458332;stroke-opacity:1"
           id="path5350" />
      </g>
      <path
         id="path4853-6"
         d="m 188.5,75.353351 h 80"
         inkscape:connector-curvature="0"
         style="fill:#0000fe;fill-opacity:1;stroke:#0000fe;stroke-width:0.25525546;stroke-opacity:1;marker-start:url(#Arrow1Lstart-7);marker-end:url(#Arrow1Lend-4)" />
      <path
         id="path4857-9"
         d="M 268.55182,62.124185 V 83.769341"
         inkscape:connector-curvature="0"
         style="fill:#0000fe;fill-opacity:1;stroke:#0000fe;stroke-width:0.10364437;stroke-opacity:1" />
      <g
         aria-label="80 mm"
         style="font-style:normal;font-weight:normal;font-size:10.58333302px;line-height:1.25;font-family:sans-serif;letter-spacing:0px;word-spacing:0px;fill:#0000fe;fill-opacity:1;stroke:#0000fe;stroke-width:0.26458332;stroke-opacity:1"
         id="text4910-9">
        <path
           inkscape:connector-curvature="0"
           d="m 217.42786,69.77213 q -0.39688,0 -0.62563,0.212218 -0.226,0.212218 -0.226,0.584289 0,0.37207 0.226,0.584288 0.22875,0.212218 0.62563,0.212218 0.39687,0 0.62563,-0.212218 0.22875,-0.214974 0.22875,-0.584288 0,-0.372071 -0.22875,-0.584289 -0.226,-0.212218 -0.62563,-0.212218 z m -0.55673,-0.237022 q -0.35829,-0.08819 -0.55948,-0.333485 -0.19844,-0.245291 -0.19844,-0.598069 0,-0.493338 0.35002,-0.77997 0.35278,-0.286631 0.96463,-0.286631 0.6146,0 0.96462,0.286631 0.35003,0.286632 0.35003,0.77997 0,0.352778 -0.2012,0.598069 -0.19844,0.24529 -0.55397,0.333485 0.40239,0.09371 0.62563,0.366558 0.226,0.272852 0.226,0.666971 0,0.598068 -0.36656,0.917773 -0.3638,0.319705 -1.04455,0.319705 -0.68075,0 -1.04731,-0.319705 -0.3638,-0.319705 -0.3638,-0.917773 0,-0.394119 0.22599,-0.666971 0.226,-0.272851 0.62839,-0.366558 z m -0.20395,-0.879188 q 0,0.319704 0.19844,0.498849 0.20119,0.179145 0.56224,0.179145 0.35829,0 0.55948,-0.179145 0.20395,-0.179145 0.20395,-0.498849 0,-0.319705 -0.20395,-0.49885 -0.20119,-0.179145 -0.55948,-0.179145 -0.36105,0 -0.56224,0.179145 -0.19844,0.179145 -0.19844,0.49885 z"
           style="font-size:5.64444447px;fill:#0000fe;fill-opacity:1;stroke:#0000fe;stroke-width:0.26458332;stroke-opacity:1"
           id="path5335" />
        <path
           inkscape:connector-curvature="0"
           d="m 221.02178,67.977925 q -0.42995,0 -0.64768,0.424436 -0.21497,0.421679 -0.21497,1.270551 0,0.846115 0.21497,1.270551 0.21773,0.42168 0.64768,0.42168 0.43271,0 0.64768,-0.42168 0.21773,-0.424436 0.21773,-1.270551 0,-0.848872 -0.21773,-1.270551 -0.21497,-0.424436 -0.64768,-0.424436 z m 0,-0.440972 q 0.69178,0 1.05558,0.548459 0.36656,0.545703 0.36656,1.5875 0,1.039041 -0.36656,1.5875 -0.3638,0.545703 -1.05558,0.545703 -0.69177,0 -1.05833,-0.545703 -0.3638,-0.548459 -0.3638,-1.5875 0,-1.041797 0.3638,-1.5875 0.36656,-0.548459 1.05833,-0.548459 z"
           style="font-size:5.64444447px;fill:#0000fe;fill-opacity:1;stroke:#0000fe;stroke-width:0.26458332;stroke-opacity:1"
           id="path5337" />
        <path
           inkscape:connector-curvature="0"
           d="m 227.55368,69.23194 q 0.19017,-0.341754 0.45475,-0.504362 0.26459,-0.162609 0.62288,-0.162609 0.48231,0 0.74414,0.338997 0.26183,0.336242 0.26183,0.959115 v 1.863108 h -0.50988 v -1.846572 q 0,-0.443728 -0.15709,-0.658702 -0.1571,-0.214974 -0.47956,-0.214974 -0.39412,0 -0.62288,0.261828 -0.22875,0.261827 -0.22875,0.713823 v 1.744597 h -0.50987 v -1.846572 q 0,-0.446484 -0.1571,-0.658702 -0.1571,-0.214974 -0.48507,-0.214974 -0.38861,0 -0.61736,0.264584 -0.22876,0.261827 -0.22876,0.711067 v 1.744597 h -0.50987 v -3.086806 h 0.50987 v 0.479557 q 0.17364,-0.283875 0.41617,-0.418923 0.24254,-0.135048 0.57602,-0.135048 0.33624,0 0.57051,0.170877 0.23702,0.170877 0.35002,0.496094 z"
           style="font-size:5.64444447px;fill:#0000fe;fill-opacity:1;stroke:#0000fe;stroke-width:0.26458332;stroke-opacity:1"
           id="path5339" />
        <path
           inkscape:connector-curvature="0"
           d="m 233.05481,69.23194 q 0.19017,-0.341754 0.45475,-0.504362 0.26459,-0.162609 0.62288,-0.162609 0.48231,0 0.74414,0.338997 0.26182,0.336242 0.26182,0.959115 v 1.863108 h -0.50987 v -1.846572 q 0,-0.443728 -0.1571,-0.658702 -0.15709,-0.214974 -0.47955,-0.214974 -0.39412,0 -0.62288,0.261828 -0.22875,0.261827 -0.22875,0.713823 v 1.744597 h -0.50988 v -1.846572 q 0,-0.446484 -0.15709,-0.658702 -0.1571,-0.214974 -0.48507,-0.214974 -0.38861,0 -0.61736,0.264584 -0.22876,0.261827 -0.22876,0.711067 v 1.744597 h -0.50987 v -3.086806 h 0.50987 v 0.479557 q 0.17364,-0.283875 0.41617,-0.418923 0.24254,-0.135048 0.57602,-0.135048 0.33624,0 0.57051,0.170877 0.23702,0.170877 0.35002,0.496094 z"
           style="font-size:5.64444447px;fill:#0000fe;fill-opacity:1;stroke:#0000fe;stroke-width:0.26458332;stroke-opacity:1"
           id="path5341" />
      </g>
      <path
         id="path4853-1"
         d="M 0.13713798,75.353351 H 28.5"
         inkscape:connector-curvature="0"
         style="fill:#0000fe;fill-opacity:1;stroke:#0000fe;stroke-width:0.25199091;stroke-opacity:1;marker-start:url(#Arrow1Lstart-8);marker-end:url(#Arrow1Lend-3)"
         sodipodi:nodetypes="cc" />
      <path
         id="path4855-0"
         d="M 0.05182219,62.124185 V 83.769341"
         inkscape:connector-curvature="0"
         style="fill:#0000fe;fill-opacity:1;stroke:#0000fe;stroke-width:0.10364437;stroke-opacity:1" />
      <g
         aria-label="28.5mm"
         style="font-style:normal;font-weight:normal;font-size:10.58333302px;line-height:1.25;font-family:sans-serif;letter-spacing:0px;word-spacing:0px;fill:#0000fe;fill-opacity:1;stroke:#0000fe;stroke-width:0.26458332;stroke-opacity:1"
         id="text4910-4">
        <path
           inkscape:connector-curvature="0"
           d="M 3.4841662,71.257656 H 5.4272 v 0.468533 H 2.8144396 v -0.468533 q 0.3169488,-0.327973 0.8626519,-0.879189 0.5484592,-0.553971 0.6890191,-0.713823 0.2673394,-0.300413 0.3720703,-0.507119 0.107487,-0.209461 0.107487,-0.410655 0,-0.327973 -0.2315104,-0.534679 -0.2287543,-0.206705 -0.5980686,-0.206705 -0.2618272,0 -0.5539713,0.09095 -0.2893881,0.09095 -0.6201172,0.275608 v -0.56224 q 0.3362413,-0.135048 0.6283854,-0.20395 0.2921441,-0.0689 0.5346788,-0.0689 0.6394097,0 1.0197483,0.319704 0.3803385,0.319705 0.3803385,0.854384 0,0.253559 -0.096463,0.482313 -0.093707,0.225999 -0.3445096,0.534679 -0.068902,0.07993 -0.4382161,0.463021 -0.3693143,0.380339 -1.0417969,1.066602 z"
           style="font-size:5.64444447px;fill:#0000fe;fill-opacity:1;stroke:#0000fe;stroke-width:0.26458332;stroke-opacity:1"
           id="path5322" />
        <path
           inkscape:connector-curvature="0"
           d="m 7.7891575,69.77213 q -0.396875,0 -0.6256294,0.212218 -0.2259982,0.212218 -0.2259982,0.584289 0,0.37207 0.2259982,0.584288 0.2287544,0.212218 0.6256294,0.212218 0.396875,0 0.6256293,-0.212218 0.2287543,-0.214974 0.2287543,-0.584288 0,-0.372071 -0.2287543,-0.584289 Q 8.1887885,69.77213 7.7891575,69.77213 Z M 7.23243,69.535108 Q 6.8741401,69.446913 6.6729465,69.201623 6.474509,68.956332 6.474509,68.603554 q 0,-0.493338 0.3500217,-0.77997 0.3527778,-0.286631 0.9646268,-0.286631 0.614605,0 0.9646267,0.286631 0.3500217,0.286632 0.3500217,0.77997 0,0.352778 -0.2011936,0.598069 -0.1984375,0.24529 -0.5539713,0.333485 0.4023871,0.09371 0.6256293,0.366558 0.2259983,0.272852 0.2259983,0.666971 0,0.598068 -0.3665582,0.917773 -0.3638021,0.319705 -1.0445529,0.319705 -0.6807509,0 -1.0473091,-0.319705 -0.3638021,-0.319705 -0.3638021,-0.917773 0,-0.394119 0.2259983,-0.666971 Q 6.8300429,69.628815 7.23243,69.535108 Z M 7.0284804,68.65592 q 0,0.319704 0.1984375,0.498849 0.2011936,0.179145 0.5622396,0.179145 0.3582899,0 0.5594835,-0.179145 0.2039496,-0.179145 0.2039496,-0.498849 0,-0.319705 -0.2039496,-0.49885 -0.2011936,-0.179145 -0.5594835,-0.179145 -0.361046,0 -0.5622396,0.179145 -0.1984375,0.179145 -0.1984375,0.49885 z"
           style="font-size:5.64444447px;fill:#0000fe;fill-opacity:1;stroke:#0000fe;stroke-width:0.26458332;stroke-opacity:1"
           id="path5324" />
        <path
           inkscape:connector-curvature="0"
           d="m 10.192456,71.026145 h 0.581532 v 0.700044 h -0.581532 z"
           style="font-size:5.64444447px;fill:#0000fe;fill-opacity:1;stroke:#0000fe;stroke-width:0.26458332;stroke-opacity:1"
           id="path5326" />
        <path
           inkscape:connector-curvature="0"
           d="m 11.99493,67.611367 h 2.185569 V 68.0799 h -1.675695 v 1.008724 q 0.121267,-0.04134 0.242535,-0.06063 0.121267,-0.02205 0.242535,-0.02205 0.689019,0 1.091406,0.377583 0.402387,0.377582 0.402387,1.022504 0,0.664214 -0.413412,1.033529 -0.413411,0.366558 -1.16582,0.366558 -0.259071,0 -0.529166,-0.0441 -0.26734,-0.0441 -0.553972,-0.132292 v -0.559484 q 0.248047,0.135048 0.51263,0.201194 0.264584,0.06615 0.559484,0.06615 0.476801,0 0.755165,-0.250803 0.278364,-0.250803 0.278364,-0.680751 0,-0.429948 -0.278364,-0.680751 -0.278364,-0.250803 -0.755165,-0.250803 -0.223242,0 -0.446485,0.04961 -0.220486,0.04961 -0.451996,0.15434 z"
           style="font-size:5.64444447px;fill:#0000fe;fill-opacity:1;stroke:#0000fe;stroke-width:0.26458332;stroke-opacity:1"
           id="path5328" />
        <path
           inkscape:connector-curvature="0"
           d="m 17.914982,69.23194 q 0.190169,-0.341754 0.454753,-0.504362 0.264583,-0.162609 0.622873,-0.162609 0.482313,0 0.744141,0.338997 0.261827,0.336242 0.261827,0.959115 v 1.863108 h -0.509874 v -1.846572 q 0,-0.443728 -0.157097,-0.658702 -0.157096,-0.214974 -0.479557,-0.214974 -0.394119,0 -0.622873,0.261828 -0.228755,0.261827 -0.228755,0.713823 v 1.744597 h -0.509874 v -1.846572 q 0,-0.446484 -0.157096,-0.658702 -0.157096,-0.214974 -0.48507,-0.214974 -0.388606,0 -0.617361,0.264584 -0.228754,0.261827 -0.228754,0.711067 v 1.744597 h -0.509874 v -3.086806 h 0.509874 v 0.479557 q 0.173633,-0.283875 0.416168,-0.418923 0.242534,-0.135048 0.576019,-0.135048 0.336242,0 0.570508,0.170877 0.237023,0.170877 0.350022,0.496094 z"
           style="font-size:5.64444447px;fill:#0000fe;fill-opacity:1;stroke:#0000fe;stroke-width:0.26458332;stroke-opacity:1"
           id="path5330" />
        <path
           inkscape:connector-curvature="0"
           d="m 23.41611,69.23194 q 0.190169,-0.341754 0.454753,-0.504362 0.264583,-0.162609 0.622873,-0.162609 0.482313,0 0.744141,0.338997 0.261827,0.336242 0.261827,0.959115 v 1.863108 H 24.98983 v -1.846572 q 0,-0.443728 -0.157097,-0.658702 -0.157096,-0.214974 -0.479557,-0.214974 -0.394119,0 -0.622873,0.261828 -0.228754,0.261827 -0.228754,0.713823 v 1.744597 h -0.509875 v -1.846572 q 0,-0.446484 -0.157096,-0.658702 -0.157096,-0.214974 -0.485069,-0.214974 -0.388607,0 -0.617361,0.264584 -0.228755,0.261827 -0.228755,0.711067 v 1.744597 h -0.509874 v -3.086806 h 0.509874 v 0.479557 q 0.173633,-0.283875 0.416168,-0.418923 0.242534,-0.135048 0.57602,-0.135048 0.336241,0 0.570508,0.170877 0.237022,0.170877 0.350021,0.496094 z"
           style="font-size:5.64444447px;fill:#0000fe;fill-opacity:1;stroke:#0000fe;stroke-width:0.26458332;stroke-opacity:1"
           id="path5332" />
      </g>
      <path
         id="path4853-1-3"
         d="m 268.5,75.353351 h 28.14983"
         inkscape:connector-curvature="0"
         style="fill:#0000fe;fill-opacity:1;stroke:#0000fe;stroke-width:0.25104281;stroke-opacity:1;marker-start:url(#Arrow1Lstart-8-9);marker-end:url(#Arrow1Lend-3-9)"
         sodipodi:nodetypes="cc" />
      <path
         id="path4857-3-8"
         d="M 297.05182,62.124185 V 83.769341"
         inkscape:connector-curvature="0"
         style="fill:#0000fe;fill-opacity:1;stroke:#0000fe;stroke-width:0.10364437;stroke-opacity:1" />
      <g
         aria-label="28.5mm"
         style="font-style:normal;font-weight:normal;font-size:10.58333302px;line-height:1.25;font-family:sans-serif;letter-spacing:0px;word-spacing:0px;fill:#0000fe;fill-opacity:1;stroke:#0000fe;stroke-width:0.26458332;stroke-opacity:1"
         id="text4910-4-0">
        <path
           inkscape:connector-curvature="0"
           d="m 271.58665,71.257656 h 1.94303 v 0.468533 h -2.61276 v -0.468533 q 0.31695,-0.327973 0.86265,-0.879189 0.54846,-0.553971 0.68902,-0.713823 0.26734,-0.300413 0.37207,-0.507119 0.10749,-0.209461 0.10749,-0.410655 0,-0.327973 -0.23151,-0.534679 -0.22876,-0.206705 -0.59807,-0.206705 -0.26183,0 -0.55397,0.09095 -0.28939,0.09095 -0.62012,0.275608 v -0.56224 q 0.33624,-0.135048 0.62839,-0.20395 0.29214,-0.0689 0.53468,-0.0689 0.63941,0 1.01974,0.319704 0.38034,0.319705 0.38034,0.854384 0,0.253559 -0.0965,0.482313 -0.0937,0.225999 -0.34451,0.534679 -0.0689,0.07993 -0.43822,0.463021 -0.36931,0.380339 -1.04179,1.066602 z"
           style="font-size:5.64444447px;fill:#0000fe;fill-opacity:1;stroke:#0000fe;stroke-width:0.26458332;stroke-opacity:1"
           id="path5309" />
        <path
           inkscape:connector-curvature="0"
           d="m 275.89164,69.77213 q -0.39688,0 -0.62563,0.212218 -0.226,0.212218 -0.226,0.584289 0,0.37207 0.226,0.584288 0.22875,0.212218 0.62563,0.212218 0.39687,0 0.62563,-0.212218 0.22875,-0.214974 0.22875,-0.584288 0,-0.372071 -0.22875,-0.584289 -0.226,-0.212218 -0.62563,-0.212218 z m -0.55673,-0.237022 q -0.35829,-0.08819 -0.55948,-0.333485 -0.19844,-0.245291 -0.19844,-0.598069 0,-0.493338 0.35002,-0.77997 0.35278,-0.286631 0.96463,-0.286631 0.6146,0 0.96463,0.286631 0.35002,0.286632 0.35002,0.77997 0,0.352778 -0.2012,0.598069 -0.19843,0.24529 -0.55397,0.333485 0.40239,0.09371 0.62563,0.366558 0.226,0.272852 0.226,0.666971 0,0.598068 -0.36656,0.917773 -0.3638,0.319705 -1.04455,0.319705 -0.68075,0 -1.04731,-0.319705 -0.3638,-0.319705 -0.3638,-0.917773 0,-0.394119 0.226,-0.666971 0.22599,-0.272851 0.62838,-0.366558 z m -0.20395,-0.879188 q 0,0.319704 0.19844,0.498849 0.20119,0.179145 0.56224,0.179145 0.35829,0 0.55948,-0.179145 0.20395,-0.179145 0.20395,-0.498849 0,-0.319705 -0.20395,-0.49885 -0.20119,-0.179145 -0.55948,-0.179145 -0.36105,0 -0.56224,0.179145 -0.19844,0.179145 -0.19844,0.49885 z"
           style="font-size:5.64444447px;fill:#0000fe;fill-opacity:1;stroke:#0000fe;stroke-width:0.26458332;stroke-opacity:1"
           id="path5311" />
        <path
           inkscape:connector-curvature="0"
           d="m 278.29494,71.026145 h 0.58153 v 0.700044 h -0.58153 z"
           style="font-size:5.64444447px;fill:#0000fe;fill-opacity:1;stroke:#0000fe;stroke-width:0.26458332;stroke-opacity:1"
           id="path5313" />
        <path
           inkscape:connector-curvature="0"
           d="m 280.09741,67.611367 h 2.18557 V 68.0799 h -1.67569 v 1.008724 q 0.12126,-0.04134 0.24253,-0.06063 0.12127,-0.02205 0.24253,-0.02205 0.68902,0 1.09141,0.377583 0.40239,0.377582 0.40239,1.022504 0,0.664214 -0.41341,1.033529 -0.41341,0.366558 -1.16582,0.366558 -0.25907,0 -0.52917,-0.0441 -0.26734,-0.0441 -0.55397,-0.132292 v -0.559484 q 0.24805,0.135048 0.51263,0.201194 0.26458,0.06615 0.55948,0.06615 0.4768,0 0.75517,-0.250803 0.27836,-0.250803 0.27836,-0.680751 0,-0.429948 -0.27836,-0.680751 -0.27837,-0.250803 -0.75517,-0.250803 -0.22324,0 -0.44648,0.04961 -0.22049,0.04961 -0.452,0.15434 z"
           style="font-size:5.64444447px;fill:#0000fe;fill-opacity:1;stroke:#0000fe;stroke-width:0.26458332;stroke-opacity:1"
           id="path5315" />
        <path
           inkscape:connector-curvature="0"
           d="m 286.01746,69.23194 q 0.19017,-0.341754 0.45476,-0.504362 0.26458,-0.162609 0.62287,-0.162609 0.48231,0 0.74414,0.338997 0.26183,0.336242 0.26183,0.959115 v 1.863108 h -0.50988 v -1.846572 q 0,-0.443728 -0.15709,-0.658702 -0.1571,-0.214974 -0.47956,-0.214974 -0.39412,0 -0.62287,0.261828 -0.22876,0.261827 -0.22876,0.713823 v 1.744597 h -0.50987 v -1.846572 q 0,-0.446484 -0.1571,-0.658702 -0.1571,-0.214974 -0.48507,-0.214974 -0.3886,0 -0.61736,0.264584 -0.22875,0.261827 -0.22875,0.711067 v 1.744597 h -0.50988 v -3.086806 h 0.50988 v 0.479557 q 0.17363,-0.283875 0.41616,-0.418923 0.24254,-0.135048 0.57602,-0.135048 0.33625,0 0.57051,0.170877 0.23702,0.170877 0.35002,0.496094 z"
           style="font-size:5.64444447px;fill:#0000fe;fill-opacity:1;stroke:#0000fe;stroke-width:0.26458332;stroke-opacity:1"
           id="path5317" />
        <path
           inkscape:connector-curvature="0"
           d="m 291.51859,69.23194 q 0.19017,-0.341754 0.45475,-0.504362 0.26459,-0.162609 0.62288,-0.162609 0.48231,0 0.74414,0.338997 0.26183,0.336242 0.26183,0.959115 v 1.863108 h -0.50988 v -1.846572 q 0,-0.443728 -0.1571,-0.658702 -0.15709,-0.214974 -0.47955,-0.214974 -0.39412,0 -0.62288,0.261828 -0.22875,0.261827 -0.22875,0.713823 v 1.744597 h -0.50987 v -1.846572 q 0,-0.446484 -0.1571,-0.658702 -0.1571,-0.214974 -0.48507,-0.214974 -0.38861,0 -0.61736,0.264584 -0.22876,0.261827 -0.22876,0.711067 v 1.744597 H 289.096 v -3.086806 h 0.50987 v 0.479557 q 0.17364,-0.283875 0.41617,-0.418923 0.24254,-0.135048 0.57602,-0.135048 0.33624,0 0.57051,0.170877 0.23702,0.170877 0.35002,0.496094 z"
           style="font-size:5.64444447px;fill:#0000fe;fill-opacity:1;stroke:#0000fe;stroke-width:0.26458332;stroke-opacity:1"
           id="path5319" />
      </g>
    </g>
    <g
       id="g1385"
       transform="translate(55.57937,-268.28749)">
      <g
         transform="translate(-147.00002,-243.2379)"
         id="layer1"
         inkscape:label="Layer 1">
        <g
           id="Shape2DView"
           transform="matrix(1,0,0,-1,148.5,251.17545)">
          <title
             id="title1198">b'Shape2DView'</title>
          <text
             transform="scale(1,-1)"
             id="text1407"
             y="-77.395683"
             x="-24.901789"
             style="font-style:normal;font-weight:normal;font-size:10.58333302px;line-height:1.25;font-family:sans-serif;letter-spacing:0px;word-spacing:0px;fill:#000000;fill-opacity:1;stroke:none;stroke-width:0.26458332"
             xml:space="preserve"><tspan
               style="stroke-width:0.26458332"
               y="-68.031914"
               x="-24.901789"
               id="tspan1405"
               sodipodi:role="line" /></text>
          <g
             style="stroke:#ff1919;stroke-opacity:1"
             inkscape:label="Hershey Text"
             transform="matrix(0.26458333,0,0,-0.26458333,-11.90625,12.915418)"
             id="g1468">
            <path
               inkscape:connector-curvature="0"
               d="M -8,-12 V 9 M -8,-12 0,9 M 8,-12 0,9 M 8,-12 V 9"
               style="fill:none;stroke:#ff1919;stroke-opacity:1"
               transform="translate(12)"
               id="path1460" />
            <path
               inkscape:connector-curvature="0"
               d="M -9,0 H 9"
               style="fill:none;stroke:#ff1919;stroke-opacity:1"
               transform="translate(37)"
               id="path1462" />
            <path
               inkscape:connector-curvature="0"
               d="m -4,-8 2,-1 3,-3 V 9"
               style="fill:none;stroke:#ff1919;stroke-opacity:1"
               transform="translate(60)"
               id="path1464" />
            <path
               inkscape:connector-curvature="0"
               d="M 6,-5 5,-2 3,0 0,1 H -1 L -4,0 -6,-2 -7,-5 v -1 l 1,-3 2,-2 3,-1 h 1 l 3,1 2,2 1,4 V 0 L 5,5 3,8 0,9 H -2 L -5,8 -6,6"
               style="fill:none;stroke:#ff1919;stroke-opacity:1"
               transform="translate(80)"
               id="path1466" />
          </g>
          <g
             id="g1552"
             style="fill:none;stroke:#000000">
            <g
               style="fill:#0000ff;fill-opacity:1;stroke:#0000fe;stroke-opacity:1"
               id="g1620">
              <path
                 sodipodi:nodetypes="ccc"
                 id="path1495"
                 d="M -88.535,135.46049 H -85.958931 88.535"
                 inkscape:connector-curvature="0"
                 style="fill:#0000ff;fill-opacity:1;stroke:#0000fe;stroke-width:0.26499999;stroke-miterlimit:4;stroke-dasharray:none;stroke-opacity:1;marker-start:url(#Arrow1Lstart-6);marker-end:url(#Arrow1Lend-0)" />
              <path
                 id="path1497"
                 d="M -88.535,135.46049 V 118.35736"
                 inkscape:connector-curvature="0"
                 style="fill:#0000ff;fill-opacity:1;stroke:#0000fe;stroke-width:0.04546245;stroke-opacity:1" />
              <path
                 id="path1499"
                 d="M 88.535,135.46049 V 118.35736"
                 inkscape:connector-curvature="0"
                 style="fill:#0000ff;fill-opacity:1;stroke:#0000fe;stroke-width:0.04546245;stroke-opacity:1" />
            </g>
            <g
               id="g1403">
              <path
                 inkscape:connector-curvature="0"
                 id="Shape2DView_nwe0000"
                 d="m 73.5,110.83971 v -9"
                 style="fill:none;fill-rule:evenodd;stroke:#191919;stroke-width:0.34999999;stroke-miterlimit:4;stroke-dasharray:none" />
              <path
                 inkscape:connector-curvature="0"
                 id="Shape2DView_nwe0001"
                 d="M 73.5,110.83971 A 7.5175,7.5175 0 0 0 88.535,110.84"
                 style="fill:none;fill-rule:evenodd;stroke:#191919;stroke-width:0.34999999;stroke-miterlimit:4;stroke-dasharray:none" />
              <path
                 inkscape:connector-curvature="0"
                 id="Shape2DView_nwe0002"
                 d="M 73.5,101.83971 C 74.261824,67.120128 62.251699,51.340088 47.531375,41.09988 32.640033,31.28679 15.038491,27.013532 0,26.839707"
                 style="fill:none;fill-rule:evenodd;stroke:#191919;stroke-width:0.34999999;stroke-miterlimit:4;stroke-dasharray:none" />
              <path
                 inkscape:connector-curvature="0"
                 id="Shape2DView_nwe0003"
                 d="M 88.535,95.361753 V 110.83971"
                 style="fill:none;fill-rule:evenodd;stroke:#191919;stroke-width:0.34999999;stroke-miterlimit:4;stroke-dasharray:none" />
              <path
                 inkscape:connector-curvature="0"
                 id="Shape2DView_nwe0004"
                 d="m 88.535,95.361753 a 4.064,4.064 0 0 0 -8.128,4.7e-5"
                 style="fill:none;fill-rule:evenodd;stroke:#191919;stroke-width:0.34999999;stroke-miterlimit:4;stroke-dasharray:none" />
              <path
                 inkscape:connector-curvature="0"
                 id="Shape2DView_nwe0005"
                 d="M 79.240543,73.630075 80.407,95.361753"
                 style="fill:none;fill-rule:evenodd;stroke:#191919;stroke-width:0.34999999;stroke-miterlimit:4;stroke-dasharray:none" />
              <path
                 inkscape:connector-curvature="0"
                 id="Shape2DView_nwe0006"
                 d="m 41.380154,7.021268 q 30.625225,13.476595 37.381715,61.55008"
                 style="fill:none;fill-rule:evenodd;stroke:#191919;stroke-width:0.34999999;stroke-miterlimit:4;stroke-dasharray:none" />
              <path
                 inkscape:connector-curvature="0"
                 id="Shape2DView_nwe0007"
                 d="M 79.240543,73.630075 A 3,3 0 1 0 78.7619,68.5713"
                 style="fill:none;fill-rule:evenodd;stroke:#191919;stroke-width:0.34999999;stroke-miterlimit:4;stroke-dasharray:none" />
              <path
                 inkscape:connector-curvature="0"
                 id="Shape2DView_nwe0008"
                 d="M 41.380154,7.021268 A 3,3 0 1 0 36.5498,4.64437"
                 style="fill:none;fill-rule:evenodd;stroke:#191919;stroke-width:0.34999999;stroke-miterlimit:4;stroke-dasharray:none" />
              <path
                 inkscape:connector-curvature="0"
                 id="Shape2DView_nwe0009"
                 d="M 36.549752,4.6443736 A 3,3 0 0 0 36.5785,5.0587"
                 style="fill:none;fill-rule:evenodd;stroke:#191919;stroke-width:0.34999999;stroke-miterlimit:4;stroke-dasharray:none" />
              <path
                 inkscape:connector-curvature="0"
                 id="Shape2DView_nwe0010"
                 d="M 0,0 Q 22.644758,-0.18726056 36.578501,5.0586992"
                 style="fill:none;fill-rule:evenodd;stroke:#191919;stroke-width:0.34999999;stroke-miterlimit:4;stroke-dasharray:none" />
              <path
                 inkscape:connector-curvature="0"
                 id="Shape2DView_nwe0011"
                 d="M -73.5,101.83971 C -74.261824,67.120128 -62.251699,51.340088 -47.531375,41.09988 -32.640033,31.28679 -15.038491,27.013532 0,26.839707"
                 style="fill:none;fill-rule:evenodd;stroke:#191919;stroke-width:0.34999999;stroke-miterlimit:4;stroke-dasharray:none" />
              <path
                 inkscape:connector-curvature="0"
                 id="Shape2DView_nwe0012"
                 d="m -73.5,110.83971 v -9"
                 style="fill:none;fill-rule:evenodd;stroke:#191919;stroke-width:0.34999999;stroke-miterlimit:4;stroke-dasharray:none" />
              <path
                 inkscape:connector-curvature="0"
                 id="Shape2DView_nwe0013"
                 d="M -73.5,110.83971 A 7.5175,7.5175 0 0 1 -88.535,110.84"
                 style="fill:none;fill-rule:evenodd;stroke:#191919;stroke-width:0.34999999;stroke-miterlimit:4;stroke-dasharray:none" />
              <path
                 inkscape:connector-curvature="0"
                 id="Shape2DView_nwe0014"
                 d="M -88.535,95.361753 V 110.83971"
                 style="fill:none;fill-rule:evenodd;stroke:#191919;stroke-width:0.34999999;stroke-miterlimit:4;stroke-dasharray:none" />
              <path
                 inkscape:connector-curvature="0"
                 id="Shape2DView_nwe0015"
                 d="m -88.535,95.361753 a 4.064,4.064 0 0 1 8.128,4.7e-5"
                 style="fill:none;fill-rule:evenodd;stroke:#191919;stroke-width:0.34999999;stroke-miterlimit:4;stroke-dasharray:none" />
              <path
                 inkscape:connector-curvature="0"
                 id="Shape2DView_nwe0016"
                 d="M 0,0 Q -22.644758,-0.18726056 -36.578501,5.0586992"
                 style="fill:none;fill-rule:evenodd;stroke:#191919;stroke-width:0.34999999;stroke-miterlimit:4;stroke-dasharray:none" />
              <path
                 inkscape:connector-curvature="0"
                 id="Shape2DView_nwe0017"
                 d="M -79.240543,73.630075 -80.407,95.361753"
                 style="fill:none;fill-rule:evenodd;stroke:#191919;stroke-width:0.34999999;stroke-miterlimit:4;stroke-dasharray:none" />
              <path
                 inkscape:connector-curvature="0"
                 id="Shape2DView_nwe0018"
                 d="M -41.380154,7.021268 A 3,3 0 1 1 -36.5498,4.64437"
                 style="fill:none;fill-rule:evenodd;stroke:#191919;stroke-width:0.34999999;stroke-miterlimit:4;stroke-dasharray:none" />
              <path
                 inkscape:connector-curvature="0"
                 id="Shape2DView_nwe0019"
                 d="M -36.549752,4.6443736 A 3,3 0 0 1 -36.5785,5.0587"
                 style="fill:none;fill-rule:evenodd;stroke:#191919;stroke-width:0.34999999;stroke-miterlimit:4;stroke-dasharray:none" />
              <path
                 inkscape:connector-curvature="0"
                 id="Shape2DView_nwe0020"
                 d="M -79.240543,73.630075 A 3,3 0 1 1 -78.7619,68.5713"
                 style="fill:none;fill-rule:evenodd;stroke:#191919;stroke-width:0.34999999;stroke-miterlimit:4;stroke-dasharray:none" />
              <path
                 inkscape:connector-curvature="0"
                 id="Shape2DView_nwe0021"
                 d="m -41.380154,7.021268 q -30.625225,13.476595 -37.381715,61.55008"
                 style="fill:none;fill-rule:evenodd;stroke:#191919;stroke-width:0.34999999;stroke-miterlimit:4;stroke-dasharray:none" />
              <path
                 inkscape:connector-curvature="0"
                 id="Shape2DView_nwe0022"
                 d="m -84.0175,105.83971 h 6"
                 style="fill:none;fill-rule:evenodd;stroke:#191919;stroke-width:0.34999999;stroke-miterlimit:4;stroke-dasharray:none" />
              <path
                 inkscape:connector-curvature="0"
                 id="Shape2DView_nwe0023"
                 d="m -78.0175,103.83971 a 1.0001465,1.0001465 0 0 1 0,2.00029"
                 style="fill:none;fill-rule:evenodd;stroke:#191919;stroke-width:0.34999999;stroke-miterlimit:4;stroke-dasharray:none" />
              <path
                 inkscape:connector-curvature="0"
                 id="Shape2DView_nwe0024"
                 d="m -84.0175,105.83971 a 1,1 0 1 1 0,-1.99971"
                 style="fill:none;fill-rule:evenodd;stroke:#191919;stroke-width:0.34999999;stroke-miterlimit:4;stroke-dasharray:none" />
              <path
                 inkscape:connector-curvature="0"
                 id="Shape2DView_nwe0025"
                 d="m -84.0175,103.83971 h 6"
                 style="fill:none;fill-rule:evenodd;stroke:#191919;stroke-width:0.34999999;stroke-miterlimit:4;stroke-dasharray:none" />
              <path
                 inkscape:connector-curvature="0"
                 id="Shape2DView_nwe0026"
                 d="m -84.0175,111.83971 h 6"
                 style="fill:none;fill-rule:evenodd;stroke:#191919;stroke-width:0.34999999;stroke-miterlimit:4;stroke-dasharray:none" />
              <path
                 inkscape:connector-curvature="0"
                 id="Shape2DView_nwe0027"
                 d="m -78.0175,109.83971 a 1.0001465,1.0001465 0 0 1 0,2.00029"
                 style="fill:none;fill-rule:evenodd;stroke:#191919;stroke-width:0.34999999;stroke-miterlimit:4;stroke-dasharray:none" />
              <path
                 inkscape:connector-curvature="0"
                 id="Shape2DView_nwe0028"
                 d="m -84.0175,111.83971 a 1,1 0 0 1 0,-1.99971"
                 style="fill:none;fill-rule:evenodd;stroke:#191919;stroke-width:0.34999999;stroke-miterlimit:4;stroke-dasharray:none" />
              <path
                 inkscape:connector-curvature="0"
                 id="Shape2DView_nwe0029"
                 d="m -84.0175,109.83971 h 6"
                 style="fill:none;fill-rule:evenodd;stroke:#191919;stroke-width:0.34999999;stroke-miterlimit:4;stroke-dasharray:none" />
              <path
                 inkscape:connector-curvature="0"
                 id="Shape2DView_nwe0030"
                 d="m 84.0175,105.83971 h -6"
                 style="fill:none;fill-rule:evenodd;stroke:#191919;stroke-width:0.34999999;stroke-miterlimit:4;stroke-dasharray:none" />
              <path
                 inkscape:connector-curvature="0"
                 id="Shape2DView_nwe0031"
                 d="m 78.0175,103.83971 a 1.0001465,1.0001465 0 0 0 0,2.00029"
                 style="fill:none;fill-rule:evenodd;stroke:#191919;stroke-width:0.34999999;stroke-miterlimit:4;stroke-dasharray:none" />
              <path
                 inkscape:connector-curvature="0"
                 id="Shape2DView_nwe0032"
                 d="m 84.0175,105.83971 a 1,1 0 1 0 0,-1.99971"
                 style="fill:none;fill-rule:evenodd;stroke:#191919;stroke-width:0.34999999;stroke-miterlimit:4;stroke-dasharray:none" />
              <path
                 inkscape:connector-curvature="0"
                 id="Shape2DView_nwe0033"
                 d="m 84.0175,103.83971 h -6"
                 style="fill:none;fill-rule:evenodd;stroke:#191919;stroke-width:0.34999999;stroke-miterlimit:4;stroke-dasharray:none" />
              <path
                 inkscape:connector-curvature="0"
                 id="Shape2DView_nwe0034"
                 d="m 84.0175,111.83971 h -6"
                 style="fill:none;fill-rule:evenodd;stroke:#191919;stroke-width:0.34999999;stroke-miterlimit:4;stroke-dasharray:none" />
              <path
                 inkscape:connector-curvature="0"
                 id="Shape2DView_nwe0035"
                 d="m 78.0175,109.83971 a 1.0001465,1.0001465 0 0 0 0,2.00029"
                 style="fill:none;fill-rule:evenodd;stroke:#191919;stroke-width:0.34999999;stroke-miterlimit:4;stroke-dasharray:none" />
              <path
                 inkscape:connector-curvature="0"
                 id="Shape2DView_nwe0036"
                 d="m 84.0175,111.83971 a 1,1 0 0 0 0,-1.99971"
                 style="fill:none;fill-rule:evenodd;stroke:#191919;stroke-width:0.34999999;stroke-miterlimit:4;stroke-dasharray:none" />
              <path
                 inkscape:connector-curvature="0"
                 id="Shape2DView_nwe0037"
                 d="m 84.0175,109.83971 h -6"
                 style="fill:none;fill-rule:evenodd;stroke:#191919;stroke-width:0.34999999;stroke-miterlimit:4;stroke-dasharray:none" />
              <circle
                 cx="-27"
                 cy="16.839706"
                 r="2.5"
                 style="fill:none;stroke:#191919;stroke-width:0.34999999;stroke-miterlimit:4;stroke-dasharray:none"
                 id="circle1190" />
              <circle
                 cx="-54"
                 cy="31.839706"
                 r="2.5"
                 style="fill:none;stroke:#191919;stroke-width:0.34999999;stroke-miterlimit:4;stroke-dasharray:none"
                 id="circle1192" />
              <path
                 inkscape:connector-curvature="0"
                 d="m 24.5,16.839707 0.002,0.100024 0.006,0.09986 0.01,0.09954 0.01397,0.09906 0.01792,0.09843 0.02184,0.09763 0.02573,0.09668 0.02958,0.09557 0.03338,0.09431 0.03713,0.0929 0.04081,0.09134 0.04443,0.08964 0.04799,0.08779 0.05146,0.08579 0.05485,0.08367 0.05815,0.08141 0.06137,0.07901 0.06448,0.0765 0.06749,0.07385 0.07039,0.07109 0.07317,0.06822 0.07585,0.06524 0.0784,0.06215 0.08082,0.05897 0.08311,0.05569 0.08528,0.05232 0.0873,0.04886 0.08918,0.04533 0.09093,0.04173 0.09252,0.03805 0.09397,0.03432 0.09527,0.03054 0.09642,0.0267 0.09741,0.02282 0.09824,0.0189 0.09892,0.01496 0.09944,0.01099 0.0998,0.007 0.1,0.003 0.100039,-10e-4 0.09992,-0.005 0.09964,-0.009 0.0992,-0.01298 0.0986,-0.01693 0.09784,-0.02087 0.09693,-0.02476 0.09586,-0.02862 0.09464,-0.03243 0.09327,-0.03619 0.09174,-0.0399 0.09007,-0.04354 0.08826,-0.04711 0.08631,-0.0506 0.08421,-0.05401 0.08198,-0.05734 0.07962,-0.06057 0.07714,-0.06371 0.07453,-0.06674 0.0718,-0.06967 0.06895,-0.07249 0.066,-0.07519 0.06293,-0.07777 0.05977,-0.08022 0.05651,-0.08255 0.05317,-0.08475 0.04973,-0.08681 0.04622,-0.08873 0.04263,-0.09051 0.03898,-0.09214 0.03526,-0.09362 0.03149,-0.09496 0.02766,-0.09614 0.02379,-0.09717 0.01989,-0.09805 0.01595,-0.09876 0.01198,-0.09932 0.008,-0.09972 0.004,-0.09996 v -0.100044 l -0.004,-0.09996 -0.008,-0.09972 -0.01198,-0.09932 -0.01595,-0.09876 -0.01989,-0.09805 -0.02379,-0.09717 -0.02766,-0.09614 -0.03149,-0.09496 -0.03526,-0.09363 -0.03898,-0.09214 -0.04263,-0.09051 -0.04622,-0.08873 -0.04973,-0.08681 -0.05317,-0.08475 -0.05651,-0.08255 -0.05977,-0.08023 -0.06293,-0.07777 -0.066,-0.07519 -0.06895,-0.07249 -0.0718,-0.06967 -0.07453,-0.06674 -0.07714,-0.06371 -0.07962,-0.06057 -0.08198,-0.05734 -0.08421,-0.05401 -0.08631,-0.0506 -0.08826,-0.04711 -0.09007,-0.04354 -0.09174,-0.0399 -0.09327,-0.03619 -0.09464,-0.03243 -0.09586,-0.02862 -0.09693,-0.02476 -0.09784,-0.02087 -0.0986,-0.01693 -0.0992,-0.01298 -0.09964,-0.009 -0.09992,-0.005 -0.100039,-10e-4 -0.1,0.003 -0.0998,0.007 -0.09944,0.01099 -0.09892,0.01496 -0.09824,0.0189 -0.09741,0.02282 -0.09642,0.0267 -0.09527,0.03053 -0.09397,0.03432 -0.09252,0.03805 -0.09093,0.04173 -0.08918,0.04533 -0.0873,0.04886 -0.08528,0.05232 -0.08311,0.05568 -0.08082,0.05897 -0.0784,0.06215 -0.07585,0.06524 -0.07317,0.06822 -0.07039,0.07109 -0.06749,0.07385 -0.06448,0.07649 -0.06137,0.07901 -0.05815,0.08141 -0.05485,0.08367 -0.05146,0.08579 -0.04799,0.08779 -0.04443,0.08964 -0.04081,0.09134 -0.03713,0.0929 -0.03338,0.09431 -0.02958,0.09557 -0.02573,0.09668 -0.02184,0.09763 -0.01792,0.09843 -0.01397,0.09906 -0.01,0.09954 -0.006,0.09986 -0.002,0.100024"
                 style="fill:none;stroke:#191919;stroke-width:0.34999999;stroke-miterlimit:4;stroke-dasharray:none"
                 id="path1194" />
              <path
                 inkscape:connector-curvature="0"
                 d="m 51.5,31.839707 0.002,0.100024 0.006,0.09986 0.01,0.09954 0.01397,0.09906 0.01792,0.09843 0.02184,0.09763 0.02573,0.09668 0.02958,0.09557 0.03338,0.09431 0.03713,0.0929 0.04081,0.09134 0.04443,0.08964 0.04799,0.08778 0.05146,0.08579 0.05485,0.08367 0.05815,0.0814 0.06137,0.07901 0.06448,0.0765 0.06749,0.07385 0.07039,0.07109 0.07317,0.06822 0.07585,0.06524 0.0784,0.06215 0.08082,0.05897 0.08311,0.05568 0.08528,0.05232 0.0873,0.04886 0.08919,0.04533 0.09093,0.04173 0.09252,0.03805 0.09397,0.03432 0.09527,0.03054 0.09642,0.0267 0.09741,0.02282 0.09824,0.0189 0.09892,0.01496 0.09944,0.01099 0.0998,0.007 0.1,0.003 0.100039,-0.001 0.09992,-0.005 0.09964,-0.009 0.0992,-0.01298 0.0986,-0.01693 0.09784,-0.02087 0.09693,-0.02476 0.09586,-0.02862 0.09464,-0.03243 0.09327,-0.03619 0.09175,-0.0399 0.09007,-0.04354 0.08826,-0.04711 0.08631,-0.0506 0.08421,-0.05401 0.08198,-0.05734 0.07962,-0.06057 0.07714,-0.06371 0.07453,-0.06674 0.07179,-0.06967 0.06895,-0.07249 0.066,-0.07519 0.06293,-0.07777 0.05977,-0.08022 0.05651,-0.08255 0.05317,-0.08475 0.04973,-0.08681 0.04622,-0.08873 0.04263,-0.09051 0.03898,-0.09214 0.03526,-0.09363 0.03149,-0.09496 0.02766,-0.09614 0.02379,-0.09717 0.01988,-0.09805 0.01595,-0.09876 0.01198,-0.09932 0.008,-0.09972 0.004,-0.09996 v -0.100044 l -0.004,-0.09996 -0.008,-0.09972 -0.01198,-0.09932 -0.01595,-0.09876 -0.01988,-0.09805 -0.02379,-0.09717 -0.02766,-0.09614 -0.03149,-0.09496 -0.03526,-0.09363 -0.03898,-0.09214 -0.04263,-0.09051 -0.04622,-0.08873 -0.04973,-0.08681 -0.05317,-0.08475 -0.05651,-0.08255 -0.05977,-0.08023 -0.06293,-0.07777 -0.066,-0.07519 -0.06895,-0.07249 -0.07179,-0.06967 -0.07453,-0.06674 -0.07714,-0.06371 -0.07962,-0.06057 -0.08198,-0.05734 -0.08421,-0.05401 -0.08631,-0.0506 -0.08826,-0.04711 -0.09007,-0.04354 -0.09175,-0.0399 -0.09327,-0.03619 -0.09464,-0.03243 -0.09586,-0.02862 -0.09693,-0.02476 -0.09784,-0.02087 -0.0986,-0.01693 -0.0992,-0.01298 -0.09964,-0.009 -0.09992,-0.005 -0.100039,-0.001 -0.1,0.003 -0.0998,0.007 -0.09944,0.01099 -0.09892,0.01496 -0.09824,0.0189 -0.09741,0.02282 -0.09642,0.0267 -0.09527,0.03054 -0.09397,0.03432 -0.09252,0.03805 -0.09093,0.04173 -0.08919,0.04533 -0.0873,0.04886 -0.08528,0.05232 -0.08311,0.05569 -0.08082,0.05897 -0.0784,0.06215 -0.07585,0.06524 -0.07317,0.06822 -0.07039,0.07109 -0.06749,0.07385 -0.06448,0.0765 -0.06137,0.07901 -0.05815,0.08141 -0.05485,0.08367 -0.05146,0.08579 -0.04799,0.08779 -0.04443,0.08963 -0.04081,0.09134 -0.03713,0.0929 -0.03338,0.09431 -0.02958,0.09557 -0.02573,0.09668 -0.02184,0.09763 -0.01792,0.09843 -0.01397,0.09906 -0.01,0.09954 -0.006,0.09986 -0.002,0.100024"
                 style="fill:none;stroke:#191919;stroke-width:0.34999999;stroke-miterlimit:4;stroke-dasharray:none"
                 id="path1196" />
              <path
                 inkscape:connector-curvature="0"
                 id="Shape2DView_nwe0014-8"
                 d="m -80.407,95.361753 v 4.999997"
                 style="fill:none;fill-rule:evenodd;stroke:#191919;stroke-width:0.34999999;stroke-miterlimit:4;stroke-dasharray:none" />
              <path
                 inkscape:connector-curvature="0"
                 id="Shape2DView_nwe0014-8-9"
                 d="m 80.407,95.3618 v 5"
                 style="fill:none;fill-rule:evenodd;stroke:#191919;stroke-width:0.34999999;stroke-miterlimit:4;stroke-dasharray:none" />
            </g>
            <text
               transform="scale(1,-1)"
               id="text1615"
               y="-148.07722"
               x="-18.854168"
               style="font-style:normal;font-weight:normal;font-size:10.58333302px;line-height:1.25;font-family:sans-serif;letter-spacing:0px;word-spacing:0px;fill:#000000;fill-opacity:1;stroke:none;stroke-width:0.26458332"
               xml:space="preserve"><tspan
                 style="stroke-width:0.26458332"
                 y="-138.71346"
                 x="-18.854168"
                 id="tspan1613"
                 sodipodi:role="line" /></text>
            <text
               transform="scale(1,-1)"
               id="text1624"
               y="-138.61369"
               x="-27.290323"
               style="font-style:normal;font-weight:normal;font-size:10.58333302px;line-height:1.25;font-family:sans-serif;letter-spacing:0px;word-spacing:0px;fill:#0000ff;fill-opacity:1;stroke:none;stroke-width:0.26458332"
               xml:space="preserve"><tspan
                 style="fill:#0000ff;stroke-width:0.26458332"
                 y="-138.61369"
                 x="-27.290323"
                 id="tspan1622"
                 sodipodi:role="line">177.5 mm</tspan></text>
          </g>
        </g>
      </g>
    </g>
  </g>
</svg>
