  0
SECTION
  2
HEADER
  9
$ACADVER
  1
AC1014
  9
$HANDSEED
  5
FFFF
  9
$MEASUREMENT
 70
     1
  0
ENDSEC
  0
SECTION
  2
TABLES
  0
TABLE
  2
VPORT
  5
8
330
0
100
AcDbSymbolTable
 70
     4
  0
VPORT
  5
2E
330
8
100
AcDbSymbolTableRecord
100
AcDbViewportTableRecord
  2
*ACTIVE
 70
     0
 10
0.0
 20
0.0
 11
1.0
 21
1.0
 12
210.0
 22
148.5
 13
0.0
 23
0.0
 14
10.0
 24
10.0
 15
10.0
 25
10.0
 16
0.0
 26
0.0
 36
1.0
 17
0.0
 27
0.0
 37
0.0
 40
341.0
 41
1.24
 42
50.0
 43
0.0
 44
0.0
 50
0.0
 51
0.0
 71
     0
 72
   100
 73
     1
 74
     3
 75
     0
 76
     0
 77
     0
 78
     0
  0
ENDTAB
  0
TABLE
  2
LTYPE
  5
5
330
0
100
AcDbSymbolTable
 70
     1
  0
LTYPE
  5
14
330
5
100
AcDbSymbolTableRecord
100
AcDbLinetypeTableRecord
  2
BYBLOCK
 70
     0
  3

 72
    65
 73
     0
 40
0.0
  0
LTYPE
  5
15
330
5
100
AcDbSymbolTableRecord
100
AcDbLinetypeTableRecord
  2
BYLAYER
 70
     0
  3

 72
    65
 73
     0
 40
0.0
  0
LTYPE
  5
16
330
5
100
AcDbSymbolTableRecord
100
AcDbLinetypeTableRecord
  2
CONTINUOUS
 70
     0
  3
Solid line
 72
    65
 73
     0
 40
0.0
  0
ENDTAB
  0
TABLE
  2
LAYER
  5
2
100
AcDbSymbolTable
 70
1
  0
LAYER
  5
50
100
AcDbSymbolTableRecord
100
AcDbLayerTableRecord
  2
0
 70
0
  6
CONTINUOUS
  0
ENDTAB
  0
TABLE
  2
STYLE
  5
3
330
0
100
AcDbSymbolTable
 70
     1
  0
STYLE
  5
11
330
3
100
AcDbSymbolTableRecord
100
AcDbTextStyleTableRecord
  2
STANDARD
 70
     0
 40
0.0
 41
1.0
 50
0.0
 71
     0
 42
2.5
  3
txt
  4

  0
ENDTAB
  0
TABLE
  2
VIEW
  5
6
330
0
100
AcDbSymbolTable
 70
     0
  0
ENDTAB
  0
TABLE
  2
UCS
  5
7
330
0
100
AcDbSymbolTable
 70
     0
  0
ENDTAB
  0
TABLE
  2
APPID
  5
9
330
0
100
AcDbSymbolTable
 70
     2
  0
APPID
  5
12
330
9
100
AcDbSymbolTableRecord
100
AcDbRegAppTableRecord
  2
ACAD
 70
     0
  0
ENDTAB
  0
TABLE
  2
DIMSTYLE
  5
A
330
0
100
AcDbSymbolTable
 70
     1
  0
DIMSTYLE
105
27
330
A
100
AcDbSymbolTableRecord
100
AcDbDimStyleTableRecord
  2
ISO-25
 70
     0
  3

  4

  5

  6

  7

 40
1.0
 41
2.5
 42
0.625
 43
3.75
 44
1.25
 45
0.0
 46
0.0
 47
0.0
 48
0.0
140
2.5
141
2.5
142
0.0
143
0.03937007874016
144
1.0
145
0.0
146
1.0
147
0.625
 71
     0
 72
     0
 73
     0
 74
     0
 75
     0
 76
     0
 77
     1
 78
     8
170
     0
171
     3
172
     1
173
     0
174
     0
175
     0
176
     0
177
     0
178
     0
270
     2
271
     2
272
     2
273
     2
274
     3
340
11
275
     0
280
     0
281
     0
282
     0
283
     0
284
     8
285
     0
286
     0
287
     3
288
     0
  0
ENDTAB
  0
TABLE
  2
BLOCK_RECORD
  5
1
330
0
100
AcDbSymbolTable
 70
     1
  0
BLOCK_RECORD
  5
1F
330
1
100
AcDbSymbolTableRecord
100
AcDbBlockTableRecord
  2
*MODEL_SPACE
  0
BLOCK_RECORD
  5
1B
330
1
100
AcDbSymbolTableRecord
100
AcDbBlockTableRecord
  2
*PAPER_SPACE
  0
ENDTAB
  0
ENDSEC
  0
SECTION
  2
BLOCKS
  0
BLOCK
  5
20
330
1F
100
AcDbEntity
  8
0
100
AcDbBlockBegin
  2
*MODEL_SPACE
 70
     0
 10
0.0
 20
0.0
 30
0.0
  3
*MODEL_SPACE
  1

  0
ENDBLK
  5
21
330
1F
100
AcDbEntity
  8
0
100
AcDbBlockEnd
  0
BLOCK
  5
1C
330
1B
100
AcDbEntity
 67
     1
  8
0
100
AcDbBlockBegin
  2
*PAPER_SPACE
  1

  0
ENDBLK
  5
1D
330
1B
100
AcDbEntity
 67
     1
  8
0
100
AcDbBlockEnd
  0
ENDSEC
  0
SECTION
  2
ENTITIES
  0
LWPOLYLINE
  5
100
100
AcDbEntity
  8
0
 62
1
100
AcDbPolyline
 90
2
 70
0
 10
46.745087
 20
396.101587
 30
0.0
 10
46.745087
 20
390.545337
 30
0.0
  0
LWPOLYLINE
  5
101
100
AcDbEntity
  8
0
 62
1
100
AcDbPolyline
 90
2
 70
0
 10
46.745087
 20
396.101587
 30
0.0
 10
48.861753
 20
390.545337
 30
0.0
  0
LWPOLYLINE
  5
102
100
AcDbEntity
  8
0
 62
1
100
AcDbPolyline
 90
2
 70
0
 10
50.978420
 20
396.101587
 30
0.0
 10
48.861753
 20
390.545337
 30
0.0
  0
LWPOLYLINE
  5
103
100
AcDbEntity
  8
0
 62
1
100
AcDbPolyline
 90
2
 70
0
 10
50.978420
 20
396.101587
 30
0.0
 10
50.978420
 20
390.545337
 30
0.0
  0
LWPOLYLINE
  5
104
100
AcDbEntity
  8
0
 62
1
100
AcDbPolyline
 90
2
 70
0
 10
53.095087
 20
392.926587
 30
0.0
 10
57.857587
 20
392.926587
 30
0.0
  0
LWPOLYLINE
  5
105
100
AcDbEntity
  8
0
 62
1
100
AcDbPolyline
 90
4
 70
0
 10
60.503420
 20
395.043254
 30
0.0
 10
61.032587
 20
395.307837
 30
0.0
 10
61.826337
 20
396.101587
 30
0.0
 10
61.826337
 20
390.545337
 30
0.0
  0
LWPOLYLINE
  5
106
100
AcDbEntity
  8
0
 62
1
100
AcDbPolyline
 90
23
 70
0
 10
68.440920
 20
394.249504
 30
0.0
 10
68.176337
 20
393.455754
 30
0.0
 10
67.647170
 20
392.926587
 30
0.0
 10
66.853420
 20
392.662004
 30
0.0
 10
66.588837
 20
392.662004
 30
0.0
 10
65.795087
 20
392.926587
 30
0.0
 10
65.265920
 20
393.455754
 30
0.0
 10
65.001337
 20
394.249504
 30
0.0
 10
65.001337
 20
394.514087
 30
0.0
 10
65.265920
 20
395.307837
 30
0.0
 10
65.795087
 20
395.837004
 30
0.0
 10
66.588837
 20
396.101587
 30
0.0
 10
66.853420
 20
396.101587
 30
0.0
 10
67.647170
 20
395.837004
 30
0.0
 10
68.176337
 20
395.307837
 30
0.0
 10
68.440920
 20
394.249504
 30
0.0
 10
68.440920
 20
392.926587
 30
0.0
 10
68.176337
 20
391.603671
 30
0.0
 10
67.647170
 20
390.809921
 30
0.0
 10
66.853420
 20
390.545337
 30
0.0
 10
66.324254
 20
390.545337
 30
0.0
 10
65.530504
 20
390.809921
 30
0.0
 10
65.265920
 20
391.339087
 30
0.0
  0
LWPOLYLINE
  5
107
100
AcDbEntity
  8
0
 62
5
100
AcDbPolyline
 90
3
 70
0
 10
-30.941999
 20
515.471662
 30
0.0
 10
-28.365929
 20
515.471662
 30
0.0
 10
146.128006
 20
515.471662
 30
0.0
  0
LWPOLYLINE
  5
108
100
AcDbEntity
  8
0
 62
5
100
AcDbPolyline
 90
2
 70
0
 10
-30.941999
 20
515.471662
 30
0.0
 10
-30.941999
 20
498.368532
 30
0.0
  0
LWPOLYLINE
  5
109
100
AcDbEntity
  8
0
 62
5
100
AcDbPolyline
 90
2
 70
0
 10
146.128006
 20
515.471662
 30
0.0
 10
146.128006
 20
498.368532
 30
0.0
  0
LWPOLYLINE
  5
10a
100
AcDbEntity
  8
0
 62
1
100
AcDbPolyline
 90
4
 70
1
 10
-90.703880
 20
329.338355
 30
0.0
 10
206.104717
 20
329.338355
 30
0.0
 10
206.104717
 20
119.529760
 30
0.0
 10
-90.703880
 20
119.529760
 30
0.0
  0
SPLINE
  5
10b
100
AcDbEntity
  8
0
 62
1
100
AcDbSpline
 70
0
 71
3
 72
19
 73
15
 74
13
 40
0.000000
 40
0.000000
 40
0.000000
 40
0.000000
 40
1.557234
 40
3.068281
 40
4.625515
 40
6.182749
 40
7.693796
 40
9.251030
 40
10.808264
 40
12.319311
 40
13.876545
 40
15.433779
 40
16.944826
 40
18.502060
 40
18.502060
 40
18.502060
 40
18.502060
 10
100.707037
 20
317.462348
 30
0.0
 10
100.625179
 20
316.937322
 30
0.0
 10
100.463890
 20
315.902842
 30
0.0
 10
99.278177
 20
314.763964
 30
0.0
 10
97.731465
 20
314.341975
 30
0.0
 10
96.168514
 20
314.763964
 30
0.0
 10
95.030554
 20
315.902842
 30
0.0
 10
94.608254
 20
317.462348
 30
0.0
 10
95.030555
 20
319.021854
 30
0.0
 10
96.168514
 20
320.160731
 30
0.0
 10
97.731465
 20
320.582720
 30
0.0
 10
99.278177
 20
320.160731
 30
0.0
 10
100.463890
 20
319.021854
 30
0.0
 10
100.625179
 20
317.987374
 30
0.0
 10
100.707037
 20
317.462348
 30
0.0
 11
100.707037
 21
317.462348
 31
0.0
 11
100.300411
 21
315.959140
 31
0.0
 11
99.231939
 21
314.890668
 31
0.0
 11
97.728732
 21
314.484043
 31
0.0
 11
96.225524
 21
314.890668
 31
0.0
 11
95.157052
 21
315.959140
 31
0.0
 11
94.750426
 21
317.462348
 31
0.0
 11
95.157052
 21
318.965555
 31
0.0
 11
96.225524
 21
320.034027
 31
0.0
 11
97.728732
 21
320.440653
 31
0.0
 11
99.231939
 21
320.034027
 31
0.0
 11
100.300411
 21
318.965555
 31
0.0
 11
100.707037
 21
317.462348
 31
0.0
  0
LWPOLYLINE
  5
10c
100
AcDbEntity
  8
0
 62
1
100
AcDbPolyline
 90
1
 70
1
 10
100.707037
 20
317.462348
 30
0.0
  0
LWPOLYLINE
  5
10d
100
AcDbEntity
  8
0
 62
1
100
AcDbPolyline
 90
1
 70
1
 10
180.709629
 20
317.463645
 30
0.0
  0
LWPOLYLINE
  5
10e
100
AcDbEntity
  8
0
 62
5
100
AcDbPolyline
 90
2
 70
0
 10
-62.068079
 20
341.080697
 30
0.0
 10
-22.299633
 20
341.080697
 30
0.0
  0
SPLINE
  5
10f
100
AcDbEntity
  8
0
 62
1
100
AcDbSpline
 70
0
 71
3
 72
25
 73
21
 74
19
 40
0.000000
 40
0.000000
 40
0.000000
 40
0.000000
 40
1.039764
 40
2.064647
 40
3.104411
 40
4.144175
 40
5.169059
 40
6.208823
 40
7.248586
 40
8.273470
 40
9.313234
 40
10.352998
 40
11.377881
 40
12.417645
 40
13.457409
 40
14.482292
 40
15.522056
 40
16.561820
 40
17.586703
 40
18.626467
 40
18.626467
 40
18.626467
 40
18.626467
 10
180.709629
 20
317.463645
 30
0.0
 10
180.674029
 20
317.115289
 30
0.0
 10
180.603339
 20
316.423563
 30
0.0
 10
180.054899
 20
315.509437
 30
0.0
 10
179.251890
 20
314.829808
 30
0.0
 10
178.257515
 20
314.469355
 30
0.0
 10
177.202370
 20
314.469355
 30
0.0
 10
176.209387
 20
314.829808
 30
0.0
 10
175.400817
 20
315.509437
 30
0.0
 10
174.873038
 20
316.423563
 30
0.0
 10
174.688764
 20
317.463645
 30
0.0
 10
174.873038
 20
318.503726
 30
0.0
 10
175.400817
 20
319.417852
 30
0.0
 10
176.209387
 20
320.097481
 30
0.0
 10
177.202370
 20
320.457934
 30
0.0
 10
178.257515
 20
320.457934
 30
0.0
 10
179.251890
 20
320.097481
 30
0.0
 10
180.054899
 20
319.417852
 30
0.0
 10
180.603339
 20
318.503726
 30
0.0
 10
180.674029
 20
317.812000
 30
0.0
 10
180.709629
 20
317.463645
 30
0.0
 11
180.709629
 21
317.463645
 31
0.0
 11
180.528251
 21
316.439823
 31
0.0
 11
180.015810
 21
315.552248
 31
0.0
 11
179.219843
 21
314.883259
 31
0.0
 11
178.242498
 21
314.528426
 31
0.0
 11
177.217615
 21
314.528426
 31
0.0
 11
176.240270
 21
314.883259
 31
0.0
 11
175.444303
 21
315.552248
 31
0.0
 11
174.931862
 21
316.439823
 31
0.0
 11
174.750484
 21
317.463645
 31
0.0
 11
174.931862
 21
318.487466
 31
0.0
 11
175.444303
 21
319.375041
 31
0.0
 11
176.240270
 21
320.044030
 31
0.0
 11
177.217615
 21
320.398863
 31
0.0
 11
178.242498
 21
320.398863
 31
0.0
 11
179.219843
 21
320.044030
 31
0.0
 11
180.015810
 21
319.375041
 31
0.0
 11
180.528251
 21
318.487466
 31
0.0
 11
180.709629
 21
317.463645
 31
0.0
  0
LWPOLYLINE
  5
110
100
AcDbEntity
  8
0
 62
5
100
AcDbPolyline
 90
2
 70
0
 10
-62.247749
 20
354.309867
 30
0.0
 10
-62.247749
 20
332.664707
 30
0.0
  0
SPLINE
  5
111
100
AcDbEntity
  8
0
 62
1
100
AcDbSpline
 70
0
 71
3
 72
25
 73
21
 74
19
 40
0.000000
 40
0.000000
 40
0.000000
 40
0.000000
 40
1.038821
 40
2.062774
 40
3.101595
 40
4.140416
 40
5.164369
 40
6.203190
 40
7.242011
 40
8.265964
 40
9.304785
 40
10.343606
 40
11.367559
 40
12.406380
 40
13.445201
 40
14.469154
 40
15.507975
 40
16.546796
 40
17.570749
 40
18.609570
 40
18.609570
 40
18.609570
 40
18.609570
 10
20.704180
 20
317.460921
 30
0.0
 10
20.668613
 20
317.112881
 30
0.0
 10
20.597987
 20
316.421783
 30
0.0
 10
20.050044
 20
315.508486
 30
0.0
 10
19.247764
 20
314.829473
 30
0.0
 10
18.254290
 20
314.469348
 30
0.0
 10
17.200103
 20
314.469348
 30
0.0
 10
16.208021
 20
314.829473
 30
0.0
 10
15.400185
 20
315.508486
 30
0.0
 10
14.872885
 20
316.421783
 30
0.0
 10
14.688778
 20
317.460921
 30
0.0
 10
14.872885
 20
318.500059
 30
0.0
 10
15.400185
 20
319.413356
 30
0.0
 10
16.208021
 20
320.092368
 30
0.0
 10
17.200103
 20
320.452494
 30
0.0
 10
18.254290
 20
320.452494
 30
0.0
 10
19.247764
 20
320.092368
 30
0.0
 10
20.050044
 20
319.413356
 30
0.0
 10
20.597987
 20
318.500059
 30
0.0
 10
20.668613
 20
317.808960
 30
0.0
 10
20.704180
 20
317.460921
 30
0.0
 11
20.704180
 21
317.460921
 31
0.0
 11
20.522967
 21
316.438027
 31
0.0
 11
20.010990
 21
315.551258
 31
0.0
 11
19.215745
 21
314.882876
 31
0.0
 11
18.239287
 21
314.528365
 31
0.0
 11
17.215334
 21
314.528365
 31
0.0
 11
16.238876
 21
314.882876
 31
0.0
 11
15.443631
 21
315.551258
 31
0.0
 11
14.931654
 21
316.438027
 31
0.0
 11
14.750441
 21
317.460921
 31
0.0
 11
14.931654
 21
318.483814
 31
0.0
 11
15.443631
 21
319.370583
 31
0.0
 11
16.238876
 21
320.038965
 31
0.0
 11
17.215334
 21
320.393477
 31
0.0
 11
18.239287
 21
320.393477
 31
0.0
 11
19.215745
 21
320.038965
 31
0.0
 11
20.010990
 21
319.370583
 31
0.0
 11
20.522967
 21
318.483814
 31
0.0
 11
20.704180
 21
317.460921
 31
0.0
  0
LWPOLYLINE
  5
112
100
AcDbEntity
  8
0
 62
1
100
AcDbPolyline
 90
1
 70
1
 10
20.704180
 20
317.460921
 30
0.0
  0
LWPOLYLINE
  5
113
100
AcDbEntity
  8
0
 62
1
100
AcDbPolyline
 90
1
 70
1
 10
-59.290406
 20
317.463614
 30
0.0
  0
LWPOLYLINE
  5
114
100
AcDbEntity
  8
0
 62
5
100
AcDbPolyline
 90
2
 70
0
 10
17.700438
 20
341.080697
 30
0.0
 10
97.700445
 20
341.080697
 30
0.0
  0
LWPOLYLINE
  5
115
100
AcDbEntity
  8
0
 62
5
100
AcDbPolyline
 90
2
 70
0
 10
17.752258
 20
354.309867
 30
0.0
 10
17.752258
 20
332.664707
 30
0.0
  0
SPLINE
  5
116
100
AcDbEntity
  8
0
 62
1
100
AcDbSpline
 70
0
 71
3
 72
25
 73
21
 74
19
 40
0.000000
 40
0.000000
 40
0.000000
 40
0.000000
 40
1.039764
 40
2.064647
 40
3.104411
 40
4.144175
 40
5.169059
 40
6.208823
 40
7.248586
 40
8.273470
 40
9.313234
 40
10.352998
 40
11.377881
 40
12.417645
 40
13.457409
 40
14.482292
 40
15.522056
 40
16.561820
 40
17.586703
 40
18.626467
 40
18.626467
 40
18.626467
 40
18.626467
 10
-59.290406
 20
317.463614
 30
0.0
 10
-59.326006
 20
317.115258
 30
0.0
 10
-59.396696
 20
316.423532
 30
0.0
 10
-59.945136
 20
315.509406
 30
0.0
 10
-60.748146
 20
314.829777
 30
0.0
 10
-61.742521
 20
314.469324
 30
0.0
 10
-62.797666
 20
314.469324
 30
0.0
 10
-63.790649
 20
314.829777
 30
0.0
 10
-64.599218
 20
315.509406
 30
0.0
 10
-65.126997
 20
316.423532
 30
0.0
 10
-65.311271
 20
317.463614
 30
0.0
 10
-65.126997
 20
318.503695
 30
0.0
 10
-64.599218
 20
319.417821
 30
0.0
 10
-63.790649
 20
320.097450
 30
0.0
 10
-62.797666
 20
320.457903
 30
0.0
 10
-61.742521
 20
320.457903
 30
0.0
 10
-60.748146
 20
320.097450
 30
0.0
 10
-59.945136
 20
319.417821
 30
0.0
 10
-59.396696
 20
318.503695
 30
0.0
 10
-59.326006
 20
317.811969
 30
0.0
 10
-59.290406
 20
317.463614
 30
0.0
 11
-59.290406
 21
317.463614
 31
0.0
 11
-59.471784
 21
316.439792
 31
0.0
 11
-59.984226
 21
315.552217
 31
0.0
 11
-60.780193
 21
314.883228
 31
0.0
 11
-61.757538
 21
314.528395
 31
0.0
 11
-62.782421
 21
314.528395
 31
0.0
 11
-63.759766
 21
314.883228
 31
0.0
 11
-64.555732
 21
315.552217
 31
0.0
 11
-65.068174
 21
316.439792
 31
0.0
 11
-65.249552
 21
317.463614
 31
0.0
 11
-65.068174
 21
318.487435
 31
0.0
 11
-64.555732
 21
319.375010
 31
0.0
 11
-63.759766
 21
320.043999
 31
0.0
 11
-62.782421
 21
320.398832
 31
0.0
 11
-61.757538
 21
320.398832
 31
0.0
 11
-60.780193
 21
320.043999
 31
0.0
 11
-59.984226
 21
319.375010
 31
0.0
 11
-59.471784
 21
318.487435
 31
0.0
 11
-59.290406
 21
317.463614
 31
0.0
  0
LWPOLYLINE
  5
117
100
AcDbEntity
  8
0
 62
5
100
AcDbPolyline
 90
2
 70
0
 10
97.752266
 20
354.309867
 30
0.0
 10
97.752266
 20
332.664707
 30
0.0
  0
SPLINE
  5
118
100
AcDbEntity
  8
0
 62
5
100
AcDbSpline
 70
0
 71
3
 72
31
 73
27
 74
25
 40
0.000000
 40
0.000000
 40
0.000000
 40
0.000000
 40
0.247029
 40
0.467243
 40
0.675101
 40
0.877885
 40
1.086710
 40
1.318360
 40
1.550011
 40
1.758835
 40
1.961619
 40
2.169477
 40
2.389691
 40
2.636720
 40
2.883754
 40
3.103968
 40
3.311822
 40
3.516518
 40
3.725676
 40
3.956142
 40
4.187826
 40
4.396984
 40
4.600722
 40
4.807570
 40
5.027784
 40
5.276034
 40
5.276034
 40
5.276034
 40
5.276034
 10
47.613243
 20
346.661909
 30
0.0
 10
47.530679
 20
346.658046
 30
0.0
 10
47.374513
 20
346.650739
 30
0.0
 10
47.158136
 20
346.578201
 30
0.0
 10
46.981686
 20
346.458721
 30
0.0
 10
46.851675
 20
346.293891
 30
0.0
 10
46.775361
 20
346.090235
 30
0.0
 10
46.754383
 20
345.865401
 30
0.0
 10
46.775361
 20
345.640580
 30
0.0
 10
46.851675
 20
345.436889
 30
0.0
 10
46.981686
 20
345.272183
 30
0.0
 10
47.158136
 20
345.152224
 30
0.0
 10
47.374512
 20
345.081662
 30
0.0
 10
47.613247
 20
345.062146
 30
0.0
 10
47.851967
 20
345.081672
 30
0.0
 10
48.068384
 20
345.152190
 30
0.0
 10
48.245231
 20
345.272663
 30
0.0
 10
48.376006
 20
345.437641
 30
0.0
 10
48.453593
 20
345.641225
 30
0.0
 10
48.474987
 20
345.865822
 30
0.0
 10
48.453655
 20
346.090353
 30
0.0
 10
48.376403
 20
346.294305
 30
0.0
 10
48.244857
 20
346.457824
 30
0.0
 10
48.069510
 20
346.578636
 30
0.0
 10
47.852732
 20
346.650774
 30
0.0
 10
47.696196
 20
346.658052
 30
0.0
 10
47.613243
 20
346.661909
 30
0.0
 11
47.613243
 21
346.661909
 31
0.0
 11
47.367342
 21
346.638329
 31
0.0
 11
47.158799
 21
346.567590
 31
0.0
 11
46.987613
 21
346.449691
 31
0.0
 11
46.862058
 21
346.290451
 31
0.0
 11
46.786724
 21
346.095689
 31
0.0
 11
46.761613
 21
345.865403
 31
0.0
 11
46.786724
 21
345.635117
 31
0.0
 11
46.862058
 21
345.440355
 31
0.0
 11
46.987613
 21
345.281115
 31
0.0
 11
47.158799
 21
345.163216
 31
0.0
 11
47.367342
 21
345.092477
 31
0.0
 11
47.613243
 21
345.068897
 31
0.0
 11
47.859149
 21
345.092477
 31
0.0
 11
48.067692
 21
345.163216
 31
0.0
 11
48.238873
 21
345.281115
 31
0.0
 11
48.365962
 21
345.441580
 31
0.0
 11
48.442216
 21
345.636343
 31
0.0
 11
48.467633
 21
345.865403
 31
0.0
 11
48.442216
 21
346.095689
 31
0.0
 11
48.365962
 21
346.290451
 31
0.0
 11
48.238873
 21
346.449691
 31
0.0
 11
48.068914
 21
346.567590
 31
0.0
 11
47.860371
 21
346.638329
 31
0.0
 11
47.613243
 21
346.661909
 31
0.0
  0
SPLINE
  5
119
100
AcDbEntity
  8
0
 62
5
100
AcDbSpline
 70
0
 71
3
 72
31
 73
27
 74
25
 40
0.000000
 40
0.000000
 40
0.000000
 40
0.000000
 40
0.234166
 40
0.451276
 40
0.661788
 40
0.869016
 40
1.079059
 40
1.303387
 40
1.611774
 40
1.896745
 40
2.185942
 40
2.494221
 40
2.829656
 40
3.210104
 40
3.591776
 40
3.927215
 40
4.234448
 40
4.523642
 40
4.808611
 40
5.116998
 40
5.341356
 40
5.551690
 40
5.759735
 40
5.968927
 40
6.184462
 40
6.416891
 40
6.416891
 40
6.416891
 40
6.416891
 10
47.056513
 20
346.898931
 30
0.0
 10
46.981429
 20
346.921176
 30
0.0
 10
46.836729
 20
346.964046
 30
0.0
 10
46.645494
 20
347.078734
 30
0.0
 10
46.491005
 20
347.225990
 30
0.0
 10
46.378637
 20
347.405136
 30
0.0
 10
46.311476
 20
347.610385
 30
0.0
 10
46.289821
 20
347.858436
 30
0.0
 10
46.320700
 20
348.132562
 30
0.0
 10
46.441586
 20
348.406397
 30
0.0
 10
46.644533
 20
348.626008
 30
0.0
 10
46.915592
 20
348.786176
 30
0.0
 10
47.247074
 20
348.880025
 30
0.0
 10
47.613661
 20
348.906153
 30
0.0
 10
47.980197
 20
348.880060
 30
0.0
 10
48.311933
 20
348.786518
 30
0.0
 10
48.582109
 20
348.625592
 30
0.0
 10
48.784935
 20
348.406435
 30
0.0
 10
48.905757
 20
348.132552
 30
0.0
 10
48.936753
 20
347.858418
 30
0.0
 10
48.914783
 20
347.610292
 30
0.0
 10
48.846773
 20
347.404744
 30
0.0
 10
48.732563
 20
347.227045
 30
0.0
 10
48.580392
 20
347.078659
 30
0.0
 10
48.390714
 20
346.964089
 30
0.0
 10
48.247198
 20
346.921190
 30
0.0
 10
48.172733
 20
346.898931
 30
0.0
 11
47.056513
 21
346.898931
 31
0.0
 11
46.835109
 21
346.975181
 31
0.0
 11
46.648616
 21
347.086343
 31
0.0
 11
46.497033
 21
347.232417
 31
0.0
 11
46.386789
 21
347.407887
 31
0.0
 11
46.320642
 21
347.607243
 31
0.0
 11
46.298593
 21
347.830485
 31
0.0
 11
46.337486
 21
348.136410
 31
0.0
 11
46.454162
 21
348.396400
 31
0.0
 11
46.648623
 21
348.610455
 31
0.0
 11
46.912590
 21
348.769695
 31
0.0
 11
47.234130
 21
348.865239
 31
0.0
 11
47.613243
 21
348.897087
 31
0.0
 11
47.993584
 21
348.865239
 31
0.0
 11
48.315128
 21
348.769695
 31
0.0
 11
48.577873
 21
348.610455
 31
0.0
 11
48.772329
 21
348.396400
 31
0.0
 11
48.889002
 21
348.136410
 31
0.0
 11
48.927893
 21
347.830485
 31
0.0
 11
48.905539
 21
347.607243
 31
0.0
 11
48.838476
 21
347.407887
 31
0.0
 11
48.726703
 21
347.232417
 31
0.0
 11
48.576956
 21
347.086345
 31
0.0
 11
48.392299
 21
346.975183
 31
0.0
 11
48.172733
 21
346.898931
 31
0.0
  0
LWPOLYLINE
  5
11a
100
AcDbEntity
  8
0
 62
5
100
AcDbPolyline
 90
1
 70
1
 10
47.613243
 20
346.661909
 30
0.0
  0
SPLINE
  5
11b
100
AcDbEntity
  8
0
 62
5
100
AcDbSpline
 70
0
 71
3
 72
31
 73
27
 74
25
 40
0.000000
 40
0.000000
 40
0.000000
 40
0.000000
 40
0.261656
 40
0.503358
 40
0.737268
 40
0.969506
 40
1.204244
 40
1.454778
 40
1.824809
 40
2.154231
 40
2.472094
 40
2.801783
 40
3.165913
 40
3.586036
 40
4.006462
 40
4.371469
 40
4.702446
 40
5.019333
 40
5.348416
 40
5.718414
 40
5.968947
 40
6.203687
 40
6.435927
 40
6.670944
 40
6.913437
 40
7.175382
 40
7.175382
 40
7.175382
 40
7.175382
 10
48.172733
 20
346.898931
 30
0.0
 10
48.256917
 20
346.875082
 30
0.0
 10
48.418864
 20
346.829203
 30
0.0
 10
48.633300
 20
346.703296
 30
0.0
 10
48.804954
 20
346.538627
 30
0.0
 10
48.933142
 20
346.340561
 30
0.0
 10
49.009879
 20
346.111276
 30
0.0
 10
49.033964
 20
345.825545
 30
0.0
 10
49.002053
 20
345.507598
 30
0.0
 10
48.879206
 20
345.185895
 30
0.0
 10
48.665850
 20
344.932050
 30
0.0
 10
48.375997
 20
344.750279
 30
0.0
 10
48.015488
 20
344.646470
 30
0.0
 10
47.613158
 20
344.617995
 30
0.0
 10
47.210439
 20
344.646465
 30
0.0
 10
46.849374
 20
344.750583
 30
0.0
 10
46.558029
 20
344.931071
 30
0.0
 10
46.346102
 20
345.186320
 30
0.0
 10
46.224231
 20
345.507722
 30
0.0
 10
46.192564
 20
345.825551
 30
0.0
 10
46.216584
 20
346.111293
 30
0.0
 10
46.293411
 20
346.340501
 30
0.0
 10
46.421521
 20
346.539163
 30
0.0
 10
46.594820
 20
346.703102
 30
0.0
 10
46.809916
 20
346.829117
 30
0.0
 10
46.972228
 20
346.875069
 30
0.0
 10
47.056513
 20
346.898931
 30
0.0
 11
48.172733
 21
346.898931
 31
0.0
 11
48.421083
 21
346.816554
 31
0.0
 11
48.629627
 21
346.694368
 31
0.0
 11
48.798363
 21
346.532373
 31
0.0
 11
48.923913
 21
346.336998
 31
0.0
 11
48.999243
 21
346.114675
 31
0.0
 11
49.024353
 21
345.865403
 31
0.0
 11
48.983626
 21
345.497620
 31
0.0
 11
48.861442
 21
345.191695
 31
0.0
 11
48.657803
 21
344.947629
 31
0.0
 11
48.380048
 21
344.770015
 31
0.0
 11
48.031861
 21
344.663447
 31
0.0
 11
47.613243
 21
344.627924
 31
0.0
 11
47.194320
 21
344.663447
 31
0.0
 11
46.845217
 21
344.770015
 31
0.0
 11
46.565933
 21
344.947629
 31
0.0
 11
46.363822
 21
345.191695
 31
0.0
 11
46.242556
 21
345.497620
 31
0.0
 11
46.202133
 21
345.865403
 31
0.0
 11
46.227244
 21
346.114675
 31
0.0
 11
46.302578
 21
346.336998
 31
0.0
 11
46.428133
 21
346.532373
 31
0.0
 11
46.598398
 21
346.694369
 31
0.0
 11
46.807858
 21
346.816555
 31
0.0
 11
47.056513
 21
346.898931
 31
0.0
  0
LWPOLYLINE
  5
11c
100
AcDbEntity
  8
0
 62
5
100
AcDbPolyline
 90
1
 70
1
 10
47.056513
 20
346.898931
 30
0.0
  0
SPLINE
  5
11d
100
AcDbEntity
  8
0
 62
5
100
AcDbSpline
 70
0
 71
3
 72
31
 73
27
 74
25
 40
0.000000
 40
0.000000
 40
0.000000
 40
0.000000
 40
0.198746
 40
0.377701
 40
0.552030
 40
0.733625
 40
0.930322
 40
1.154142
 40
1.376441
 40
1.572264
 40
1.753604
 40
1.929888
 40
2.109532
 40
2.308346
 40
2.507161
 40
2.686805
 40
2.863089
 40
3.044428
 40
3.240252
 40
3.462551
 40
3.686371
 40
3.883068
 40
4.064663
 40
4.238991
 40
4.417947
 40
4.616693
 40
4.616693
 40
4.616693
 40
4.616693
 10
46.852573
 20
347.778120
 30
0.0
 10
46.856196
 20
347.711624
 30
0.0
 10
46.863081
 20
347.585253
 30
0.0
 10
46.932153
 20
347.410951
 30
0.0
 10
47.046473
 20
347.270550
 30
0.0
 10
47.203957
 20
347.169584
 30
0.0
 10
47.397946
 20
347.110702
 30
0.0
 10
47.612751
 20
347.094482
 30
0.0
 10
47.827171
 20
347.110765
 30
0.0
 10
48.020477
 20
347.169560
 30
0.0
 10
48.177159
 20
347.271553
 30
0.0
 10
48.295039
 20
347.410213
 30
0.0
 10
48.364252
 20
347.584973
 30
0.0
 10
48.383214
 20
347.778120
 30
0.0
 10
48.364252
 20
347.971268
 30
0.0
 10
48.295039
 20
348.146027
 30
0.0
 10
48.177159
 20
348.284688
 30
0.0
 10
48.020477
 20
348.386681
 30
0.0
 10
47.827171
 20
348.445476
 30
0.0
 10
47.612751
 20
348.461759
 30
0.0
 10
47.397946
 20
348.445539
 30
0.0
 10
47.203957
 20
348.386656
 30
0.0
 10
47.046473
 20
348.285690
 30
0.0
 10
46.932153
 20
348.145289
 30
0.0
 10
46.863081
 20
347.970987
 30
0.0
 10
46.856196
 20
347.844616
 30
0.0
 10
46.852573
 20
347.778120
 30
0.0
 11
46.852573
 21
347.778120
 31
0.0
 11
46.874621
 21
347.580601
 31
0.0
 11
46.940764
 21
347.414318
 31
0.0
 11
47.051003
 21
347.279270
 31
0.0
 11
47.202897
 21
347.179745
 31
0.0
 11
47.390310
 21
347.120030
 31
0.0
 11
47.613243
 21
347.100125
 31
0.0
 11
47.834649
 21
347.120030
 31
0.0
 11
48.021146
 21
347.179745
 31
0.0
 11
48.172733
 21
347.279270
 31
0.0
 11
48.286039
 21
347.414318
 31
0.0
 11
48.354022
 21
347.580601
 31
0.0
 11
48.376683
 21
347.778120
 31
0.0
 11
48.354022
 21
347.975639
 31
0.0
 11
48.286039
 21
348.141923
 31
0.0
 11
48.172733
 21
348.276970
 31
0.0
 11
48.021146
 21
348.376495
 31
0.0
 11
47.834649
 21
348.436210
 31
0.0
 11
47.613243
 21
348.456115
 31
0.0
 11
47.390310
 21
348.436210
 31
0.0
 11
47.202897
 21
348.376495
 31
0.0
 11
47.051003
 21
348.276970
 31
0.0
 11
46.940764
 21
348.141923
 31
0.0
 11
46.874621
 21
347.975639
 31
0.0
 11
46.852573
 21
347.778120
 31
0.0
  0
LWPOLYLINE
  5
11e
100
AcDbEntity
  8
0
 62
5
100
AcDbPolyline
 90
1
 70
1
 10
46.852573
 20
347.778120
 30
0.0
  0
SPLINE
  5
11f
100
AcDbEntity
  8
0
 62
5
100
AcDbSpline
 70
0
 71
3
 72
31
 73
27
 74
25
 40
0.000000
 40
0.000000
 40
0.000000
 40
0.000000
 40
0.267247
 40
0.525368
 40
0.815319
 40
1.164937
 40
1.594473
 40
2.113472
 40
2.631247
 40
3.060784
 40
3.411554
 40
3.700261
 40
3.957878
 40
4.225072
 40
4.493467
 40
4.751082
 40
5.039073
 40
5.390366
 40
5.820057
 40
6.337847
 40
6.856859
 40
7.286550
 40
7.636693
 40
7.925931
 40
8.184048
 40
8.452498
 40
8.452498
 40
8.452498
 40
8.452498
 10
51.207173
 20
348.456115
 30
0.0
 10
51.117162
 20
348.447931
 30
0.0
 10
50.940214
 20
348.431842
 30
0.0
 10
50.707471
 20
348.271290
 30
0.0
 10
50.537387
 20
348.020073
 30
0.0
 10
50.422674
 20
347.679477
 30
0.0
 10
50.356296
 20
347.250655
 30
0.0
 10
50.338083
 20
346.761535
 30
0.0
 10
50.356250
 20
346.272422
 30
0.0
 10
50.423050
 20
345.843625
 30
0.0
 10
50.536642
 20
345.503070
 30
0.0
 10
50.707763
 20
345.251216
 30
0.0
 10
50.940436
 20
345.096527
 30
0.0
 10
51.207586
 20
345.054857
 30
0.0
 10
51.474690
 20
345.096360
 30
0.0
 10
51.707949
 20
345.250852
 30
0.0
 10
51.877170
 20
345.503835
 30
0.0
 10
51.993306
 20
345.843230
 30
0.0
 10
52.060565
 20
346.272418
 30
0.0
 10
52.079152
 20
346.761535
 30
0.0
 10
52.060519
 20
347.250657
 30
0.0
 10
51.993684
 20
347.679873
 30
0.0
 10
51.876423
 20
348.019310
 30
0.0
 10
51.708242
 20
348.271655
 30
0.0
 10
51.474917
 20
348.432025
 30
0.0
 10
51.297581
 20
348.447981
 30
0.0
 10
51.207173
 20
348.456115
 30
0.0
 11
51.207173
 21
348.456115
 31
0.0
 11
50.944120
 21
348.408956
 31
0.0
 11
50.728227
 21
348.267477
 31
0.0
 11
50.559493
 21
348.031679
 31
0.0
 11
50.440060
 21
347.703094
 31
0.0
 11
50.368400
 21
347.279577
 31
0.0
 11
50.344513
 21
346.761128
 31
0.0
 11
50.368400
 21
346.243904
 31
0.0
 11
50.440060
 21
345.820387
 31
0.0
 11
50.559493
 21
345.490576
 31
0.0
 11
50.728227
 21
345.256310
 31
0.0
 11
50.944120
 21
345.115750
 31
0.0
 11
51.207173
 21
345.068897
 31
0.0
 11
51.471448
 21
345.115750
 31
0.0
 11
51.687338
 21
345.256310
 31
0.0
 11
51.854843
 21
345.490576
 31
0.0
 11
51.975805
 21
345.820387
 31
0.0
 11
52.048381
 21
346.243904
 31
0.0
 11
52.072573
 21
346.761128
 31
0.0
 11
52.048381
 21
347.279577
 31
0.0
 11
51.975805
 21
347.703094
 31
0.0
 11
51.854843
 21
348.031679
 31
0.0
 11
51.687338
 21
348.267477
 31
0.0
 11
51.471448
 21
348.408956
 31
0.0
 11
51.207173
 21
348.456115
 31
0.0
  0
SPLINE
  5
120
100
AcDbEntity
  8
0
 62
5
100
AcDbSpline
 70
0
 71
3
 72
10
 73
6
 74
4
 40
0.000000
 40
0.000000
 40
0.000000
 40
0.000000
 40
0.429088
 40
0.825606
 40
1.238726
 40
1.238726
 40
1.238726
 40
1.238726
 10
51.207173
 20
348.897087
 30
0.0
 10
51.350750
 20
348.886699
 30
0.0
 10
51.627004
 20
348.866712
 30
0.0
 10
52.008218
 20
348.671329
 30
0.0
 10
52.176750
 20
348.457656
 30
0.0
 10
52.262743
 20
348.348628
 30
0.0
 11
51.207173
 21
348.897087
 31
0.0
 11
51.631912
 21
348.836147
 31
0.0
 11
51.983769
 21
348.653328
 31
0.0
 11
52.262743
 21
348.348628
 31
0.0
  0
SPLINE
  5
121
100
AcDbEntity
  8
0
 62
5
100
AcDbSpline
 70
0
 71
3
 72
19
 73
15
 74
13
 40
0.000000
 40
0.000000
 40
0.000000
 40
0.000000
 40
0.465798
 40
1.008888
 40
1.649594
 40
2.289077
 40
2.832168
 40
3.299068
 40
3.711061
 40
4.107156
 40
4.536201
 40
4.965555
 40
5.362470
 40
5.775503
 40
5.775503
 40
5.775503
 40
5.775503
 10
52.262743
 20
348.348628
 30
0.0
 10
52.337480
 20
348.211651
 30
0.0
 10
52.499355
 20
347.914966
 30
0.0
 10
52.606281
 20
347.368577
 30
0.0
 10
52.641194
 20
346.761940
 30
0.0
 10
52.608363
 20
346.153000
 30
0.0
 10
52.492550
 20
345.612300
 30
0.0
 10
52.291367
 20
345.177589
 30
0.0
 10
52.003779
 20
344.853739
 30
0.0
 10
51.627998
 20
344.661766
 30
0.0
 10
51.206735
 20
344.610131
 30
0.0
 10
50.787154
 20
344.662545
 30
0.0
 10
50.405201
 20
344.851262
 30
0.0
 10
50.235416
 20
345.064757
 30
0.0
 10
50.148833
 20
345.173628
 30
0.0
 11
52.262743
 21
348.348628
 31
0.0
 11
52.466388
 21
347.929705
 31
0.0
 11
52.588575
 21
347.400538
 31
0.0
 11
52.629303
 21
346.761128
 31
0.0
 11
52.588575
 21
346.122943
 31
0.0
 11
52.466388
 21
345.593777
 31
0.0
 11
52.262743
 21
345.173628
 31
0.0
 11
51.983769
 21
344.870459
 31
0.0
 11
51.631912
 21
344.688558
 31
0.0
 11
51.207173
 21
344.627924
 31
0.0
 11
50.782122
 21
344.688558
 31
0.0
 11
50.429342
 21
344.870459
 31
0.0
 11
50.148833
 21
345.173628
 31
0.0
  0
LWPOLYLINE
  5
122
100
AcDbEntity
  8
0
 62
5
100
AcDbPolyline
 90
1
 70
1
 10
51.207173
 20
348.456115
 30
0.0
  0
SPLINE
  5
123
100
AcDbEntity
  8
0
 62
5
100
AcDbSpline
 70
0
 71
3
 72
16
 73
12
 74
10
 40
0.000000
 40
0.000000
 40
0.000000
 40
0.000000
 40
0.466233
 40
1.009117
 40
1.648581
 40
2.289267
 40
2.832151
 40
3.297281
 40
3.711439
 40
4.108777
 40
4.538174
 40
4.538174
 40
4.538174
 40
4.538174
 10
50.148833
 20
345.173628
 30
0.0
 10
50.074668
 20
345.311061
 30
0.0
 10
49.914144
 20
345.608521
 30
0.0
 10
49.807911
 20
346.154555
 30
0.0
 10
49.773235
 20
346.761127
 30
0.0
 10
49.805763
 20
347.370027
 30
0.0
 10
49.920500
 20
347.910453
 30
0.0
 10
50.120699
 20
348.346296
 30
0.0
 10
50.409155
 20
348.668586
 30
0.0
 10
50.785735
 20
348.867351
 30
0.0
 10
51.063109
 20
348.886922
 30
0.0
 10
51.207173
 20
348.897087
 30
0.0
 11
50.148833
 21
345.173628
 31
0.0
 11
49.946722
 21
345.593777
 31
0.0
 11
49.825456
 21
346.122943
 31
0.0
 11
49.785033
 21
346.761128
 31
0.0
 11
49.825456
 21
347.400538
 31
0.0
 11
49.946722
 21
347.929705
 31
0.0
 11
50.148833
 21
348.348628
 31
0.0
 11
50.429342
 21
348.653328
 31
0.0
 11
50.782122
 21
348.836147
 31
0.0
 11
51.207173
 21
348.897087
 31
0.0
  0
LWPOLYLINE
  5
124
100
AcDbEntity
  8
0
 62
5
100
AcDbPolyline
 90
1
 70
1
 10
51.207173
 20
348.897087
 30
0.0
  0
SPLINE
  5
125
100
AcDbEntity
  8
0
 62
5
100
AcDbSpline
 70
0
 71
3
 72
19
 73
15
 74
13
 40
0.000000
 40
0.000000
 40
0.000000
 40
0.000000
 40
0.247937
 40
0.474305
 40
0.685794
 40
0.893290
 40
1.107872
 40
1.337033
 40
1.636458
 40
1.909031
 40
2.183054
 40
2.477501
 40
2.808905
 40
3.193409
 40
3.193409
 40
3.193409
 40
3.193409
 10
57.739074
 20
347.202100
 30
0.0
 10
57.781847
 20
347.272989
 30
0.0
 10
57.863671
 20
347.408599
 30
0.0
 10
58.017586
 20
347.579618
 30
0.0
 10
58.188782
 20
347.712004
 30
0.0
 10
58.380486
 20
347.804222
 30
0.0
 10
58.592095
 20
347.858215
 30
0.0
 10
58.839934
 20
347.876835
 30
0.0
 10
59.108660
 20
347.848492
 30
0.0
 10
59.371239
 20
347.731455
 30
0.0
 10
59.576574
 20
347.533118
 30
0.0
 10
59.723011
 20
347.267349
 30
0.0
 10
59.809369
 20
346.938324
 30
0.0
 10
59.818018
 20
346.699323
 30
0.0
 10
59.822664
 20
346.570958
 30
0.0
 11
57.739074
 21
347.202100
 31
0.0
 11
57.874121
 21
347.410031
 31
0.0
 11
58.025705
 21
347.578151
 31
0.0
 11
58.193824
 21
347.706462
 31
0.0
 11
58.380622
 21
347.796800
 31
0.0
 11
58.588246
 21
347.851003
 31
0.0
 11
58.816694
 21
347.869070
 31
0.0
 11
59.113740
 21
347.831404
 31
0.0
 11
59.361787
 21
347.718405
 31
0.0
 11
59.560834
 21
347.530073
 31
0.0
 11
59.706295
 21
347.274064
 31
0.0
 11
59.793571
 21
346.954359
 31
0.0
 11
59.822664
 21
346.570958
 31
0.0
  0
LWPOLYLINE
  5
126
100
AcDbEntity
  8
0
 62
5
100
AcDbPolyline
 90
4
 70
0
 10
59.822664
 20
346.570958
 30
0.0
 10
59.822664
 20
344.707851
 30
0.0
 10
59.312794
 20
344.707851
 30
0.0
 10
59.312794
 20
346.554422
 30
0.0
  0
SPLINE
  5
127
100
AcDbEntity
  8
0
 62
5
100
AcDbSpline
 70
0
 71
3
 72
19
 73
15
 74
13
 40
0.000000
 40
0.000000
 40
0.000000
 40
0.000000
 40
0.270964
 40
0.496690
 40
0.686659
 40
0.858178
 40
1.033358
 40
1.231404
 40
1.477502
 40
1.702723
 40
1.927125
 40
2.160452
 40
2.410312
 40
2.691664
 40
2.691664
 40
2.691664
 40
2.691664
 10
59.312794
 20
346.554422
 30
0.0
 10
59.310109
 20
346.644858
 30
0.0
 10
59.305189
 20
346.810631
 30
0.0
 10
59.254708
 20
347.035599
 30
0.0
 10
59.167902
 20
347.213983
 30
0.0
 10
59.037600
 20
347.342267
 30
0.0
 10
58.867449
 20
347.415745
 30
0.0
 10
58.660013
 20
347.435646
 30
0.0
 10
58.436016
 20
347.411650
 30
0.0
 10
58.217990
 20
347.322307
 30
0.0
 10
58.042739
 20
347.171216
 30
0.0
 10
57.914129
 20
346.970170
 30
0.0
 10
57.836550
 20
346.723914
 30
0.0
 10
57.828681
 20
346.546443
 30
0.0
 10
57.824514
 20
346.452447
 30
0.0
 11
59.312794
 21
346.554422
 31
0.0
 11
59.295338
 21
346.824824
 31
0.0
 11
59.242971
 21
347.044391
 31
0.0
 11
59.155694
 21
347.213124
 31
0.0
 11
59.032587
 21
347.332554
 31
0.0
 11
58.872734
 21
347.404212
 31
0.0
 11
58.676134
 21
347.428098
 31
0.0
 11
58.431761
 21
347.399006
 31
0.0
 11
58.224138
 21
347.311731
 31
0.0
 11
58.053264
 21
347.166271
 31
0.0
 11
57.926180
 21
346.970590
 31
0.0
 11
57.849930
 21
346.732649
 31
0.0
 11
57.824514
 21
346.452447
 31
0.0
  0
LWPOLYLINE
  5
128
100
AcDbEntity
  8
0
 62
5
100
AcDbPolyline
 90
4
 70
0
 10
57.824514
 20
346.452447
 30
0.0
 10
57.824514
 20
344.707851
 30
0.0
 10
57.314634
 20
344.707851
 30
0.0
 10
57.314634
 20
346.554422
 30
0.0
  0
SPLINE
  5
129
100
AcDbEntity
  8
0
 62
5
100
AcDbSpline
 70
0
 71
3
 72
19
 73
15
 74
13
 40
0.000000
 40
0.000000
 40
0.000000
 40
0.000000
 40
0.272187
 40
0.497912
 40
0.686794
 40
0.858749
 40
1.035604
 40
1.236687
 40
1.479784
 40
1.703676
 40
1.928615
 40
2.161685
 40
2.410670
 40
2.690497
 40
2.690497
 40
2.690497
 40
2.690497
 10
57.314634
 20
346.554422
 30
0.0
 10
57.311951
 20
346.645256
 30
0.0
 10
57.307043
 20
346.811418
 30
0.0
 10
57.256853
 20
347.036577
 30
0.0
 10
57.169365
 20
347.214367
 30
0.0
 10
57.038554
 20
347.342684
 30
0.0
 10
56.866337
 20
347.415786
 30
0.0
 10
56.658397
 20
347.435665
 30
0.0
 10
56.434777
 20
347.411389
 30
0.0
 10
56.218549
 20
347.320684
 30
0.0
 10
56.045110
 20
347.168313
 30
0.0
 10
55.916007
 20
346.968003
 30
0.0
 10
55.838451
 20
346.722582
 30
0.0
 10
55.830540
 20
346.545927
 30
0.0
 10
55.826354
 20
346.452447
 30
0.0
 11
57.314634
 21
346.554422
 31
0.0
 11
57.297178
 21
346.826049
 31
0.0
 11
57.244811
 21
347.045616
 31
0.0
 11
57.157534
 21
347.213124
 31
0.0
 11
57.033820
 21
347.332554
 31
0.0
 11
56.872134
 21
347.404212
 31
0.0
 11
56.672474
 21
347.428098
 31
0.0
 11
56.431161
 21
347.398700
 31
0.0
 11
56.225371
 21
347.310506
 31
0.0
 11
56.055104
 21
347.163515
 31
0.0
 11
55.928020
 21
346.968140
 31
0.0
 11
55.851770
 21
346.731117
 31
0.0
 11
55.826354
 21
346.452447
 31
0.0
  0
LWPOLYLINE
  5
12a
100
AcDbEntity
  8
0
 62
5
100
AcDbPolyline
 90
6
 70
0
 10
55.826354
 20
346.452447
 30
0.0
 10
55.826354
 20
344.707851
 30
0.0
 10
55.316484
 20
344.707851
 30
0.0
 10
55.316484
 20
347.794656
 30
0.0
 10
55.826354
 20
347.794656
 30
0.0
 10
55.826354
 20
347.315099
 30
0.0
  0
SPLINE
  5
12b
100
AcDbEntity
  8
0
 62
5
100
AcDbSpline
 70
0
 71
3
 72
19
 73
15
 74
13
 40
0.000000
 40
0.000000
 40
0.000000
 40
0.000000
 40
0.212274
 40
0.409109
 40
0.596416
 40
0.783878
 40
0.981091
 40
1.193841
 40
1.407516
 40
1.606033
 40
1.798572
 40
1.993461
 40
2.195843
 40
2.414489
 40
2.414489
 40
2.414489
 40
2.414489
 10
55.826354
 20
347.315099
 30
0.0
 10
55.865582
 20
347.374153
 30
0.0
 10
55.941187
 20
347.487964
 30
0.0
 10
56.082399
 20
347.629811
 30
0.0
 10
56.239455
 20
347.739563
 30
0.0
 10
56.415624
 20
347.815722
 30
0.0
 10
56.610724
 20
347.860124
 30
0.0
 10
56.818809
 20
347.874236
 30
0.0
 10
57.027582
 20
347.858089
 30
0.0
 10
57.222657
 20
347.800901
 30
0.0
 10
57.393987
 20
347.703565
 30
0.0
 10
57.540270
 20
347.570076
 30
0.0
 10
57.660011
 20
347.400761
 30
0.0
 10
57.712049
 20
347.270004
 30
0.0
 10
57.739074
 20
347.202100
 30
0.0
 11
55.826354
 21
347.315099
 31
0.0
 11
55.949764
 21
347.487814
 31
0.0
 11
56.088487
 21
347.627455
 31
0.0
 11
56.242524
 21
347.734023
 31
0.0
 11
56.414317
 21
347.809049
 31
0.0
 11
56.606324
 21
347.854065
 31
0.0
 11
56.818544
 21
347.869070
 31
0.0
 11
57.031374
 21
347.850084
 31
0.0
 11
57.221544
 21
347.793125
 31
0.0
 11
57.389054
 21
347.698194
 31
0.0
 11
57.533287
 21
347.567127
 31
0.0
 11
57.649960
 21
347.401763
 31
0.0
 11
57.739074
 21
347.202100
 31
0.0
  0
LWPOLYLINE
  5
12c
100
AcDbEntity
  8
0
 62
5
100
AcDbPolyline
 90
1
 70
1
 10
57.739074
 20
347.202100
 30
0.0
  0
SPLINE
  5
12d
100
AcDbEntity
  8
0
 62
5
100
AcDbSpline
 70
0
 71
3
 72
19
 73
15
 74
13
 40
0.000000
 40
0.000000
 40
0.000000
 40
0.000000
 40
0.247935
 40
0.474302
 40
0.685795
 40
0.893291
 40
1.107873
 40
1.337034
 40
1.636455
 40
1.909028
 40
2.183054
 40
2.477501
 40
2.808905
 40
3.193409
 40
3.193409
 40
3.193409
 40
3.193409
 10
63.240204
 20
347.202100
 30
0.0
 10
63.282975
 20
347.272989
 30
0.0
 10
63.364797
 20
347.408600
 30
0.0
 10
63.518712
 20
347.579620
 30
0.0
 10
63.689912
 20
347.712003
 30
0.0
 10
63.881616
 20
347.804222
 30
0.0
 10
64.093225
 20
347.858215
 30
0.0
 10
64.341063
 20
347.876835
 30
0.0
 10
64.609788
 20
347.848492
 30
0.0
 10
64.872364
 20
347.731453
 30
0.0
 10
65.077704
 20
347.533120
 30
0.0
 10
65.224141
 20
347.267349
 30
0.0
 10
65.310499
 20
346.938324
 30
0.0
 10
65.319148
 20
346.699323
 30
0.0
 10
65.323794
 20
346.570958
 30
0.0
 11
63.240204
 21
347.202100
 31
0.0
 11
63.375247
 21
347.410031
 31
0.0
 11
63.526830
 21
347.578151
 31
0.0
 11
63.694954
 21
347.706462
 31
0.0
 11
63.881753
 21
347.796800
 31
0.0
 11
64.089376
 21
347.851003
 31
0.0
 11
64.317824
 21
347.869070
 31
0.0
 11
64.614866
 21
347.831404
 31
0.0
 11
64.862913
 21
347.718405
 31
0.0
 11
65.061964
 21
347.530073
 31
0.0
 11
65.207425
 21
347.274064
 31
0.0
 11
65.294702
 21
346.954359
 31
0.0
 11
65.323794
 21
346.570958
 31
0.0
  0
LWPOLYLINE
  5
12e
100
AcDbEntity
  8
0
 62
5
100
AcDbPolyline
 90
4
 70
0
 10
65.323794
 20
346.570958
 30
0.0
 10
65.323794
 20
344.707851
 30
0.0
 10
64.813914
 20
344.707851
 30
0.0
 10
64.813914
 20
346.554422
 30
0.0
  0
SPLINE
  5
12f
100
AcDbEntity
  8
0
 62
5
100
AcDbSpline
 70
0
 71
3
 72
19
 73
15
 74
13
 40
0.000000
 40
0.000000
 40
0.000000
 40
0.000000
 40
0.270964
 40
0.496689
 40
0.686656
 40
0.858175
 40
1.033355
 40
1.231400
 40
1.477498
 40
1.702719
 40
1.927122
 40
2.160451
 40
2.410313
 40
2.691665
 40
2.691665
 40
2.691665
 40
2.691665
 10
64.813914
 20
346.554422
 30
0.0
 10
64.811230
 20
346.644858
 30
0.0
 10
64.806310
 20
346.810631
 30
0.0
 10
64.755832
 20
347.035598
 30
0.0
 10
64.669033
 20
347.213984
 30
0.0
 10
64.538730
 20
347.342267
 30
0.0
 10
64.368579
 20
347.415745
 30
0.0
 10
64.161143
 20
347.435646
 30
0.0
 10
63.937146
 20
347.411650
 30
0.0
 10
63.719119
 20
347.322307
 30
0.0
 10
63.543870
 20
347.171215
 30
0.0
 10
63.415253
 20
346.970172
 30
0.0
 10
63.337671
 20
346.723915
 30
0.0
 10
63.329802
 20
346.546443
 30
0.0
 10
63.325634
 20
346.452447
 30
0.0
 11
64.813914
 21
346.554422
 31
0.0
 11
64.796459
 21
346.824824
 31
0.0
 11
64.744096
 21
347.044391
 31
0.0
 11
64.656824
 21
347.213124
 31
0.0
 11
64.533717
 21
347.332554
 31
0.0
 11
64.373864
 21
347.404212
 31
0.0
 11
64.177264
 21
347.428098
 31
0.0
 11
63.932891
 21
347.399006
 31
0.0
 11
63.725268
 21
347.311731
 31
0.0
 11
63.554394
 21
347.166271
 31
0.0
 11
63.427305
 21
346.970590
 31
0.0
 11
63.351051
 21
346.732649
 31
0.0
 11
63.325634
 21
346.452447
 31
0.0
  0
LWPOLYLINE
  5
130
100
AcDbEntity
  8
0
 62
5
100
AcDbPolyline
 90
4
 70
0
 10
63.325634
 20
346.452447
 30
0.0
 10
63.325634
 20
344.707851
 30
0.0
 10
62.815764
 20
344.707851
 30
0.0
 10
62.815764
 20
346.554422
 30
0.0
  0
SPLINE
  5
131
100
AcDbEntity
  8
0
 62
5
100
AcDbSpline
 70
0
 71
3
 72
19
 73
15
 74
13
 40
0.000000
 40
0.000000
 40
0.000000
 40
0.000000
 40
0.272187
 40
0.497912
 40
0.686794
 40
0.858750
 40
1.035608
 40
1.236697
 40
1.479788
 40
1.703677
 40
1.928615
 40
2.161685
 40
2.410670
 40
2.690497
 40
2.690497
 40
2.690497
 40
2.690497
 10
62.815764
 20
346.554422
 30
0.0
 10
62.813081
 20
346.645256
 30
0.0
 10
62.808173
 20
346.811419
 30
0.0
 10
62.757983
 20
347.036577
 30
0.0
 10
62.670495
 20
347.214367
 30
0.0
 10
62.539682
 20
347.342685
 30
0.0
 10
62.367461
 20
347.415786
 30
0.0
 10
62.159521
 20
347.435665
 30
0.0
 10
61.935902
 20
347.411388
 30
0.0
 10
61.719678
 20
347.320683
 30
0.0
 10
61.546240
 20
347.168313
 30
0.0
 10
61.417138
 20
346.968003
 30
0.0
 10
61.339581
 20
346.722582
 30
0.0
 10
61.331670
 20
346.545927
 30
0.0
 10
61.327484
 20
346.452447
 30
0.0
 11
62.815764
 21
346.554422
 31
0.0
 11
62.798308
 21
346.826049
 31
0.0
 11
62.745941
 21
347.045616
 31
0.0
 11
62.658664
 21
347.213124
 31
0.0
 11
62.534949
 21
347.332554
 31
0.0
 11
62.373259
 21
347.404212
 31
0.0
 11
62.173594
 21
347.428098
 31
0.0
 11
61.932287
 21
347.398700
 31
0.0
 11
61.726500
 21
347.310506
 31
0.0
 11
61.556234
 21
347.163515
 31
0.0
 11
61.429150
 21
346.968140
 31
0.0
 11
61.352900
 21
346.731117
 31
0.0
 11
61.327484
 21
346.452447
 31
0.0
  0
LWPOLYLINE
  5
132
100
AcDbEntity
  8
0
 62
5
100
AcDbPolyline
 90
6
 70
0
 10
61.327484
 20
346.452447
 30
0.0
 10
61.327484
 20
344.707851
 30
0.0
 10
60.817604
 20
344.707851
 30
0.0
 10
60.817604
 20
347.794656
 30
0.0
 10
61.327484
 20
347.794656
 30
0.0
 10
61.327484
 20
347.315099
 30
0.0
  0
LWPOLYLINE
  5
133
100
AcDbEntity
  8
0
 62
5
100
AcDbPolyline
 90
1
 70
1
 10
63.240204
 20
347.202100
 30
0.0
  0
LWPOLYLINE
  5
134
100
AcDbEntity
  8
0
 62
5
100
AcDbPolyline
 90
2
 70
0
 10
177.752276
 20
354.309867
 30
0.0
 10
177.752276
 20
332.664707
 30
0.0
  0
LWPOLYLINE
  5
135
100
AcDbEntity
  8
0
 62
5
100
AcDbPolyline
 90
2
 70
0
 10
-90.662440
 20
341.080697
 30
0.0
 10
-62.299569
 20
341.080697
 30
0.0
  0
LWPOLYLINE
  5
136
100
AcDbEntity
  8
0
 62
5
100
AcDbPolyline
 90
2
 70
0
 10
-90.747750
 20
354.309867
 30
0.0
 10
-90.747750
 20
332.664707
 30
0.0
  0
SPLINE
  5
137
100
AcDbEntity
  8
0
 62
5
100
AcDbSpline
 70
0
 71
3
 72
19
 73
15
 74
13
 40
0.000000
 40
0.000000
 40
0.000000
 40
0.000000
 40
0.212274
 40
0.409109
 40
0.596416
 40
0.783878
 40
0.981091
 40
1.193841
 40
1.407515
 40
1.606028
 40
1.798563
 40
1.993456
 40
2.195840
 40
2.414486
 40
2.414486
 40
2.414486
 40
2.414486
 10
61.327484
 20
347.315099
 30
0.0
 10
61.366712
 20
347.374153
 30
0.0
 10
61.442317
 20
347.487964
 30
0.0
 10
61.583529
 20
347.629811
 30
0.0
 10
61.740585
 20
347.739563
 30
0.0
 10
61.916754
 20
347.815722
 30
0.0
 10
62.111855
 20
347.860124
 30
0.0
 10
62.319939
 20
347.874236
 30
0.0
 10
62.528710
 20
347.858089
 30
0.0
 10
62.723783
 20
347.800902
 30
0.0
 10
62.895109
 20
347.703562
 30
0.0
 10
63.041396
 20
347.570077
 30
0.0
 10
63.161140
 20
347.400762
 30
0.0
 10
63.213179
 20
347.270004
 30
0.0
 10
63.240204
 20
347.202100
 30
0.0
 11
61.327484
 21
347.315099
 31
0.0
 11
61.450894
 21
347.487814
 31
0.0
 11
61.589617
 21
347.627455
 31
0.0
 11
61.743654
 21
347.734023
 31
0.0
 11
61.915447
 21
347.809049
 31
0.0
 11
62.107454
 21
347.854065
 31
0.0
 11
62.319674
 21
347.869070
 31
0.0
 11
62.532503
 21
347.850084
 31
0.0
 11
62.722669
 21
347.793125
 31
0.0
 11
62.890174
 21
347.698194
 31
0.0
 11
63.034413
 21
347.567127
 31
0.0
 11
63.151089
 21
347.401763
 31
0.0
 11
63.240204
 21
347.202100
 31
0.0
  0
LWPOLYLINE
  5
138
100
AcDbEntity
  8
0
 62
5
100
AcDbPolyline
 90
5
 70
0
 10
-87.315404
 20
345.176391
 30
0.0
 10
-85.372370
 20
345.176391
 30
0.0
 10
-85.372370
 20
344.707858
 30
0.0
 10
-87.985130
 20
344.707858
 30
0.0
 10
-87.985130
 20
345.176391
 30
0.0
  0
SPLINE
  5
139
100
AcDbEntity
  8
0
 62
5
100
AcDbSpline
 70
0
 71
3
 72
31
 73
27
 74
25
 40
0.000000
 40
0.000000
 40
0.000000
 40
0.000000
 40
0.339565
 40
0.750139
 40
1.231729
 40
1.688422
 40
2.019127
 40
2.223911
 40
2.472304
 40
2.681962
 40
2.854276
 40
3.005305
 40
3.146801
 40
3.282376
 40
3.489157
 40
3.683373
 40
3.881936
 40
4.085534
 40
4.296461
 40
4.528194
 40
4.706400
 40
4.893530
 40
5.091481
 40
5.301389
 40
5.527590
 40
5.771126
 40
5.771126
 40
5.771126
 40
5.771126
 10
-87.985130
 20
345.176391
 30
0.0
 10
-87.906298
 20
345.257614
 30
0.0
 10
-87.732149
 20
345.437045
 30
0.0
 10
-87.444430
 20
345.729949
 30
0.0
 10
-87.128241
 20
346.049607
 30
0.0
 10
-86.831151
 20
346.350711
 30
0.0
 10
-86.600761
 20
346.587999
 30
0.0
 10
-86.422448
 20
346.779042
 30
0.0
 10
-86.279491
 20
346.947669
 30
0.0
 10
-86.153664
 20
347.116195
 30
0.0
 10
-86.061477
 20
347.268547
 30
0.0
 10
-85.999268
 20
347.410988
 30
0.0
 10
-85.962188
 20
347.549502
 30
0.0
 10
-85.948200
 20
347.710820
 30
0.0
 10
-85.969103
 20
347.890690
 30
0.0
 10
-86.048875
 20
348.077336
 30
0.0
 10
-86.181005
 20
348.229427
 30
0.0
 10
-86.351375
 20
348.346463
 30
0.0
 10
-86.558072
 20
348.415729
 30
0.0
 10
-86.765738
 20
348.433440
 30
0.0
 10
-86.964713
 20
348.421276
 30
0.0
 10
-87.150235
 20
348.390348
 30
0.0
 10
-87.342192
 20
348.339337
 30
0.0
 10
-87.540933
 20
348.266821
 30
0.0
 10
-87.748212
 20
348.174841
 30
0.0
 10
-87.886088
 20
348.100530
 30
0.0
 10
-87.957570
 20
348.062003
 30
0.0
 11
-87.985130
 21
345.176391
 31
0.0
 11
-87.748414
 21
345.419845
 31
0.0
 11
-87.460863
 21
345.712908
 31
0.0
 11
-87.122478
 21
346.055580
 31
0.0
 11
-86.802161
 21
346.381103
 31
0.0
 11
-86.572488
 21
346.619044
 31
0.0
 11
-86.433459
 21
346.769403
 31
0.0
 11
-86.273301
 21
346.959267
 31
0.0
 11
-86.149277
 21
347.128306
 31
0.0
 11
-86.061389
 21
347.276522
 31
0.0
 11
-86.001674
 21
347.415244
 31
0.0
 11
-85.965845
 21
347.552129
 31
0.0
 11
-85.953902
 21
347.687177
 31
0.0
 11
-85.979625
 21
347.892352
 31
0.0
 11
-86.056795
 21
348.070578
 31
0.0
 11
-86.185412
 21
348.221856
 31
0.0
 11
-86.353533
 21
348.336692
 31
0.0
 11
-86.552889
 21
348.405594
 31
0.0
 11
-86.783481
 21
348.428561
 31
0.0
 11
-86.961401
 21
348.418456
 31
0.0
 11
-87.146058
 21
348.388139
 31
0.0
 11
-87.337452
 21
348.337611
 31
0.0
 11
-87.534971
 21
348.266566
 31
0.0
 11
-87.741677
 21
348.174697
 31
0.0
 11
-87.957570
 21
348.062003
 31
0.0
  0
LWPOLYLINE
  5
13a
100
AcDbEntity
  8
0
 62
5
100
AcDbPolyline
 90
2
 70
0
 10
-87.957570
 20
348.062003
 30
0.0
 10
-87.957570
 20
348.624243
 30
0.0
  0
SPLINE
  5
13b
100
AcDbEntity
  8
0
 62
5
100
AcDbSpline
 70
0
 71
3
 72
31
 73
27
 74
25
 40
0.000000
 40
0.000000
 40
0.000000
 40
0.000000
 40
0.234333
 40
0.454551
 40
0.661201
 40
0.854284
 40
1.033984
 40
1.201361
 40
1.600432
 40
1.956662
 40
2.290226
 40
2.607759
 40
2.919498
 40
3.254739
 40
3.421367
 40
3.585322
 40
3.749570
 40
3.928291
 40
4.140310
 40
4.387444
 40
4.505150
 40
4.717654
 40
5.024984
 40
5.426266
 40
5.923254
 40
6.515952
 40
6.515952
 40
6.515952
 40
6.515952
 10
-87.957570
 20
348.624243
 30
0.0
 10
-87.884745
 20
348.652528
 30
0.0
 10
-87.743483
 20
348.707392
 30
0.0
 10
-87.533685
 20
348.775321
 30
0.0
 10
-87.334066
 20
348.829157
 30
0.0
 10
-87.144710
 20
348.867856
 30
0.0
 10
-86.966011
 20
348.891624
 30
0.0
 10
-86.717345
 20
348.902572
 30
0.0
 10
-86.408811
 20
348.877316
 30
0.0
 10
-86.057786
 20
348.772256
 30
0.0
 10
-85.769310
 20
348.592564
 30
0.0
 10
-85.550132
 20
348.351421
 30
0.0
 10
-85.418728
 20
348.052051
 30
0.0
 10
-85.387769
 20
347.779078
 30
0.0
 10
-85.401281
 20
347.557169
 30
0.0
 10
-85.433720
 20
347.394864
 30
0.0
 10
-85.489171
 20
347.234725
 30
0.0
 10
-85.573121
 20
347.069246
 30
0.0
 10
-85.690866
 20
346.892045
 30
0.0
 10
-85.804777
 20
346.736583
 30
0.0
 10
-85.936222
 20
346.595858
 30
0.0
 10
-86.082375
 20
346.441641
 30
0.0
 10
-86.295027
 20
346.220131
 30
0.0
 10
-86.575801
 20
345.932629
 30
0.0
 10
-86.922954
 20
345.576981
 30
0.0
 10
-87.177145
 20
345.317517
 30
0.0
 10
-87.315404
 20
345.176390
 30
0.0
 11
-87.957570
 21
348.624243
 31
0.0
 11
-87.738308
 21
348.706926
 31
0.0
 11
-87.528847
 21
348.774909
 31
0.0
 11
-87.329184
 21
348.828193
 31
0.0
 11
-87.139934
 21
348.866471
 31
0.0
 11
-86.961707
 21
348.889438
 31
0.0
 11
-86.794505
 21
348.897093
 31
0.0
 11
-86.397018
 21
348.861571
 31
0.0
 11
-86.057102
 21
348.755003
 31
0.0
 11
-85.774757
 21
348.577389
 31
0.0
 11
-85.563458
 21
348.340367
 31
0.0
 11
-85.436678
 21
348.055572
 31
0.0
 11
-85.394418
 21
347.723005
 31
0.0
 11
-85.405137
 21
347.556722
 31
0.0
 11
-85.437291
 21
347.395951
 31
0.0
 11
-85.490881
 21
347.240692
 31
0.0
 11
-85.570808
 21
347.080839
 31
0.0
 11
-85.685644
 21
346.902613
 31
0.0
 11
-85.835391
 21
346.706013
 31
0.0
 11
-85.914705
 21
346.619042
 31
0.0
 11
-86.060777
 21
346.464702
 31
0.0
 11
-86.273607
 21
346.242992
 31
0.0
 11
-86.553502
 21
345.955441
 31
0.0
 11
-86.900768
 21
345.599907
 31
0.0
 11
-87.315404
 21
345.176390
 31
0.0
  0
LWPOLYLINE
  5
13c
100
AcDbEntity
  8
0
 62
5
100
AcDbPolyline
 90
1
 70
1
 10
-87.315404
 20
345.176390
 30
0.0
  0
SPLINE
  5
13d
100
AcDbEntity
  8
0
 62
5
100
AcDbSpline
 70
0
 71
3
 72
31
 73
27
 74
25
 40
0.000000
 40
0.000000
 40
0.000000
 40
0.000000
 40
0.247031
 40
0.467245
 40
0.675101
 40
0.877885
 40
1.086709
 40
1.318360
 40
1.550010
 40
1.758834
 40
1.961618
 40
2.169474
 40
2.389688
 40
2.636719
 40
2.883750
 40
3.103964
 40
3.311820
 40
3.516514
 40
3.725671
 40
3.956137
 40
4.187822
 40
4.396979
 40
4.600715
 40
4.807563
 40
5.027777
 40
5.276027
 40
5.276027
 40
5.276027
 40
5.276027
 10
-83.010412
 20
346.661917
 30
0.0
 10
-83.092977
 20
346.658054
 30
0.0
 10
-83.249144
 20
346.650748
 30
0.0
 10
-83.465521
 20
346.578210
 30
0.0
 10
-83.641970
 20
346.458728
 30
0.0
 10
-83.771979
 20
346.293899
 30
0.0
 10
-83.848292
 20
346.090243
 30
0.0
 10
-83.869270
 20
345.865408
 30
0.0
 10
-83.848292
 20
345.640587
 30
0.0
 10
-83.771979
 20
345.436896
 30
0.0
 10
-83.641970
 20
345.272190
 30
0.0
 10
-83.465521
 20
345.152230
 30
0.0
 10
-83.249145
 20
345.081669
 30
0.0
 10
-83.010410
 20
345.062153
 30
0.0
 10
-82.771690
 20
345.081679
 30
0.0
 10
-82.555274
 20
345.152197
 30
0.0
 10
-82.378426
 20
345.272669
 30
0.0
 10
-82.247654
 20
345.437648
 30
0.0
 10
-82.170069
 20
345.641232
 30
0.0
 10
-82.148675
 20
345.865829
 30
0.0
 10
-82.170006
 20
346.090360
 30
0.0
 10
-82.247257
 20
346.294312
 30
0.0
 10
-82.378799
 20
346.457833
 30
0.0
 10
-82.554146
 20
346.578644
 30
0.0
 10
-82.770923
 20
346.650782
 30
0.0
 10
-82.927460
 20
346.658060
 30
0.0
 10
-83.010412
 20
346.661917
 30
0.0
 11
-83.010412
 21
346.661917
 31
0.0
 11
-83.256316
 21
346.638337
 31
0.0
 11
-83.464859
 21
346.567598
 31
0.0
 11
-83.636042
 21
346.449699
 31
0.0
 11
-83.761596
 21
346.290459
 31
0.0
 11
-83.836929
 21
346.095696
 31
0.0
 11
-83.862040
 21
345.865410
 31
0.0
 11
-83.836929
 21
345.635125
 31
0.0
 11
-83.761596
 21
345.440362
 31
0.0
 11
-83.636042
 21
345.281122
 31
0.0
 11
-83.464859
 21
345.163223
 31
0.0
 11
-83.256316
 21
345.092484
 31
0.0
 11
-83.010412
 21
345.068904
 31
0.0
 11
-82.764509
 21
345.092484
 31
0.0
 11
-82.555966
 21
345.163223
 31
0.0
 11
-82.384783
 21
345.281122
 31
0.0
 11
-82.257697
 21
345.441587
 31
0.0
 11
-82.181446
 21
345.636350
 31
0.0
 11
-82.156029
 21
345.865410
 31
0.0
 11
-82.181446
 21
346.095696
 31
0.0
 11
-82.257697
 21
346.290459
 31
0.0
 11
-82.384783
 21
346.449699
 31
0.0
 11
-82.554741
 21
346.567598
 31
0.0
 11
-82.763284
 21
346.638337
 31
0.0
 11
-83.010412
 21
346.661917
 31
0.0
  0
SPLINE
  5
13e
100
AcDbEntity
  8
0
 62
5
100
AcDbSpline
 70
0
 71
3
 72
31
 73
27
 74
25
 40
0.000000
 40
0.000000
 40
0.000000
 40
0.000000
 40
0.234167
 40
0.451278
 40
0.661789
 40
0.869017
 40
1.079060
 40
1.303389
 40
1.611775
 40
1.896745
 40
2.185939
 40
2.494221
 40
2.829658
 40
3.210107
 40
3.591776
 40
3.927213
 40
4.234447
 40
4.523641
 40
4.808611
 40
5.116997
 40
5.341356
 40
5.551691
 40
5.759737
 40
5.968928
 40
6.184463
 40
6.416894
 40
6.416894
 40
6.416894
 40
6.416894
 10
-83.567140
 20
346.898939
 30
0.0
 10
-83.642224
 20
346.921185
 30
0.0
 10
-83.786925
 20
346.964057
 30
0.0
 10
-83.978160
 20
347.078744
 30
0.0
 10
-84.132652
 20
347.225996
 30
0.0
 10
-84.245018
 20
347.405144
 30
0.0
 10
-84.312178
 20
347.610393
 30
0.0
 10
-84.333833
 20
347.858444
 30
0.0
 10
-84.302955
 20
348.132570
 30
0.0
 10
-84.182072
 20
348.406404
 30
0.0
 10
-83.979129
 20
348.626019
 30
0.0
 10
-83.708066
 20
348.786183
 30
0.0
 10
-83.376583
 20
348.880032
 30
0.0
 10
-83.009995
 20
348.906160
 30
0.0
 10
-82.643461
 20
348.880067
 30
0.0
 10
-82.311726
 20
348.786525
 30
0.0
 10
-82.041550
 20
348.625599
 30
0.0
 10
-81.838723
 20
348.406443
 30
0.0
 10
-81.717901
 20
348.132560
 30
0.0
 10
-81.686904
 20
347.858426
 30
0.0
 10
-81.708875
 20
347.610299
 30
0.0
 10
-81.776886
 20
347.404751
 30
0.0
 10
-81.891098
 20
347.227053
 30
0.0
 10
-82.043268
 20
347.078667
 30
0.0
 10
-82.232947
 20
346.964096
 30
0.0
 10
-82.376464
 20
346.921198
 30
0.0
 10
-82.450929
 20
346.898939
 30
0.0
 11
-83.567140
 21
346.898939
 31
0.0
 11
-83.788545
 21
346.975191
 31
0.0
 11
-83.975039
 21
347.086353
 31
0.0
 11
-84.126623
 21
347.232424
 31
0.0
 11
-84.236866
 21
347.407895
 31
0.0
 11
-84.303012
 21
347.607251
 31
0.0
 11
-84.325061
 21
347.830493
 31
0.0
 11
-84.286170
 21
348.136418
 31
0.0
 11
-84.169496
 21
348.396408
 31
0.0
 11
-83.975039
 21
348.610463
 31
0.0
 11
-83.711068
 21
348.769703
 31
0.0
 11
-83.389526
 21
348.865246
 31
0.0
 11
-83.010412
 21
348.897094
 31
0.0
 11
-82.630074
 21
348.865246
 31
0.0
 11
-82.308532
 21
348.769703
 31
0.0
 11
-82.045786
 21
348.610463
 31
0.0
 11
-81.851329
 21
348.396408
 31
0.0
 11
-81.734655
 21
348.136418
 31
0.0
 11
-81.695764
 21
347.830493
 31
0.0
 11
-81.718119
 21
347.607251
 31
0.0
 11
-81.785183
 21
347.407895
 31
0.0
 11
-81.896957
 21
347.232424
 31
0.0
 11
-82.046704
 21
347.086353
 31
0.0
 11
-82.231361
 21
346.975191
 31
0.0
 11
-82.450929
 21
346.898939
 31
0.0
  0
LWPOLYLINE
  5
13f
100
AcDbEntity
  8
0
 62
5
100
AcDbPolyline
 90
1
 70
1
 10
-83.010412
 20
346.661917
 30
0.0
  0
SPLINE
  5
140
100
AcDbEntity
  8
0
 62
5
100
AcDbSpline
 70
0
 71
3
 72
31
 73
27
 74
25
 40
0.000000
 40
0.000000
 40
0.000000
 40
0.000000
 40
0.261659
 40
0.503360
 40
0.737269
 40
0.969509
 40
1.204249
 40
1.454782
 40
1.824813
 40
2.154236
 40
2.472102
 40
2.801787
 40
3.165915
 40
3.586037
 40
4.006464
 40
4.371470
 40
4.702447
 40
5.019334
 40
5.348417
 40
5.718414
 40
5.968948
 40
6.203688
 40
6.435928
 40
6.670944
 40
6.913439
 40
7.175388
 40
7.175388
 40
7.175388
 40
7.175388
 10
-82.450929
 20
346.898939
 30
0.0
 10
-82.366744
 20
346.875090
 30
0.0
 10
-82.204796
 20
346.829211
 30
0.0
 10
-81.990359
 20
346.703306
 30
0.0
 10
-81.818709
 20
346.538632
 30
0.0
 10
-81.690515
 20
346.340569
 30
0.0
 10
-81.613776
 20
346.111283
 30
0.0
 10
-81.589690
 20
345.825552
 30
0.0
 10
-81.621602
 20
345.507605
 30
0.0
 10
-81.744453
 20
345.185901
 30
0.0
 10
-81.957813
 20
344.932061
 30
0.0
 10
-82.247662
 20
344.750286
 30
0.0
 10
-82.608169
 20
344.646478
 30
0.0
 10
-83.010497
 20
344.618003
 30
0.0
 10
-83.413216
 20
344.646473
 30
0.0
 10
-83.774281
 20
344.750591
 30
0.0
 10
-84.065625
 20
344.931080
 30
0.0
 10
-84.277554
 20
345.186327
 30
0.0
 10
-84.399426
 20
345.507730
 30
0.0
 10
-84.431092
 20
345.825558
 30
0.0
 10
-84.407073
 20
346.111300
 30
0.0
 10
-84.330247
 20
346.340509
 30
0.0
 10
-84.202138
 20
346.539171
 30
0.0
 10
-84.028838
 20
346.703110
 30
0.0
 10
-83.813740
 20
346.829125
 30
0.0
 10
-83.651426
 20
346.875077
 30
0.0
 10
-83.567140
 20
346.898939
 30
0.0
 11
-82.450929
 21
346.898939
 31
0.0
 11
-82.202576
 21
346.816562
 31
0.0
 11
-81.994033
 21
346.694376
 31
0.0
 11
-81.825299
 21
346.532381
 31
0.0
 11
-81.699745
 21
346.337006
 31
0.0
 11
-81.624412
 21
346.114682
 31
0.0
 11
-81.599301
 21
345.865410
 31
0.0
 11
-81.640030
 21
345.497627
 31
0.0
 11
-81.762216
 21
345.191703
 31
0.0
 11
-81.965859
 21
344.947637
 31
0.0
 11
-82.243611
 21
344.770023
 31
0.0
 11
-82.591795
 21
344.663455
 31
0.0
 11
-83.010412
 21
344.627932
 31
0.0
 11
-83.429336
 21
344.663455
 31
0.0
 11
-83.778439
 21
344.770023
 31
0.0
 11
-84.057721
 21
344.947637
 31
0.0
 11
-84.259834
 21
345.191703
 31
0.0
 11
-84.381101
 21
345.497627
 31
0.0
 11
-84.421524
 21
345.865410
 31
0.0
 11
-84.396413
 21
346.114682
 31
0.0
 11
-84.321080
 21
346.337006
 31
0.0
 11
-84.195525
 21
346.532381
 31
0.0
 11
-84.025261
 21
346.694377
 31
0.0
 11
-83.815799
 21
346.816563
 31
0.0
 11
-83.567140
 21
346.898939
 31
0.0
  0
LWPOLYLINE
  5
141
100
AcDbEntity
  8
0
 62
5
100
AcDbPolyline
 90
1
 70
1
 10
-83.567140
 20
346.898939
 30
0.0
  0
LWPOLYLINE
  5
142
100
AcDbEntity
  8
0
 62
5
100
AcDbPolyline
 90
1
 70
1
 10
-83.771089
 20
347.778127
 30
0.0
  0
LWPOLYLINE
  5
143
100
AcDbEntity
  8
0
 62
5
100
AcDbPolyline
 90
4
 70
1
 10
-80.607114
 20
345.407902
 30
0.0
 10
-80.025582
 20
345.407902
 30
0.0
 10
-80.025582
 20
344.707858
 30
0.0
 10
-80.607114
 20
344.707858
 30
0.0
  0
SPLINE
  5
144
100
AcDbEntity
  8
0
 62
5
100
AcDbSpline
 70
0
 71
3
 72
31
 73
27
 74
25
 40
0.000000
 40
0.000000
 40
0.000000
 40
0.000000
 40
0.198745
 40
0.377701
 40
0.552033
 40
0.733625
 40
0.930322
 40
1.154145
 40
1.376443
 40
1.572264
 40
1.753601
 40
1.929885
 40
2.109528
 40
2.308342
 40
2.507157
 40
2.686800
 40
2.863084
 40
3.044421
 40
3.240243
 40
3.462540
 40
3.686363
 40
3.883060
 40
4.064653
 40
4.238984
 40
4.417940
 40
4.616686
 40
4.616686
 40
4.616686
 40
4.616686
 10
-83.771089
 20
347.778127
 30
0.0
 10
-83.767466
 20
347.711631
 30
0.0
 10
-83.760581
 20
347.585260
 30
0.0
 10
-83.691506
 20
347.410958
 30
0.0
 10
-83.577182
 20
347.270561
 30
0.0
 10
-83.419701
 20
347.169591
 30
0.0
 10
-83.225711
 20
347.110710
 30
0.0
 10
-83.010906
 20
347.094490
 30
0.0
 10
-82.796486
 20
347.110773
 30
0.0
 10
-82.603181
 20
347.169567
 30
0.0
 10
-82.446503
 20
347.271562
 30
0.0
 10
-82.328623
 20
347.410221
 30
0.0
 10
-82.259410
 20
347.584981
 30
0.0
 10
-82.240449
 20
347.778127
 30
0.0
 10
-82.259410
 20
347.971274
 30
0.0
 10
-82.328623
 20
348.146034
 30
0.0
 10
-82.446503
 20
348.284694
 30
0.0
 10
-82.603181
 20
348.386688
 30
0.0
 10
-82.796486
 20
348.445483
 30
0.0
 10
-83.010906
 20
348.461766
 30
0.0
 10
-83.225711
 20
348.445546
 30
0.0
 10
-83.419701
 20
348.386664
 30
0.0
 10
-83.577183
 20
348.285695
 30
0.0
 10
-83.691506
 20
348.145297
 30
0.0
 10
-83.760581
 20
347.970995
 30
0.0
 10
-83.767466
 20
347.844623
 30
0.0
 10
-83.771089
 20
347.778127
 30
0.0
 11
-83.771089
 21
347.778127
 31
0.0
 11
-83.749041
 21
347.580609
 31
0.0
 11
-83.682895
 21
347.414326
 31
0.0
 11
-83.572652
 21
347.279278
 31
0.0
 11
-83.420761
 21
347.179753
 31
0.0
 11
-83.233348
 21
347.120038
 31
0.0
 11
-83.010412
 21
347.100133
 31
0.0
 11
-82.789007
 21
347.120038
 31
0.0
 11
-82.602513
 21
347.179753
 31
0.0
 11
-82.450929
 21
347.279278
 31
0.0
 11
-82.337623
 21
347.414326
 31
0.0
 11
-82.269640
 21
347.580609
 31
0.0
 11
-82.246979
 21
347.778127
 31
0.0
 11
-82.269640
 21
347.975646
 31
0.0
 11
-82.337623
 21
348.141930
 31
0.0
 11
-82.450929
 21
348.276977
 31
0.0
 11
-82.602513
 21
348.376502
 31
0.0
 11
-82.789007
 21
348.436217
 31
0.0
 11
-83.010412
 21
348.456122
 31
0.0
 11
-83.233348
 21
348.436217
 31
0.0
 11
-83.420761
 21
348.376502
 31
0.0
 11
-83.572652
 21
348.276977
 31
0.0
 11
-83.682895
 21
348.141930
 31
0.0
 11
-83.749041
 21
347.975646
 31
0.0
 11
-83.771089
 21
347.778127
 31
0.0
  0
LWPOLYLINE
  5
145
100
AcDbEntity
  8
0
 62
5
100
AcDbPolyline
 90
5
 70
0
 10
-78.804640
 20
348.822680
 30
0.0
 10
-76.619071
 20
348.822680
 30
0.0
 10
-76.619071
 20
348.354147
 30
0.0
 10
-78.294766
 20
348.354147
 30
0.0
 10
-78.294766
 20
347.345423
 30
0.0
  0
SPLINE
  5
146
100
AcDbEntity
  8
0
 62
5
100
AcDbSpline
 70
0
 71
3
 72
31
 73
27
 74
25
 40
0.000000
 40
0.000000
 40
0.000000
 40
0.000000
 40
0.084655
 40
0.167987
 40
0.250269
 40
0.332037
 40
0.413215
 40
0.494098
 40
0.923650
 40
1.308608
 40
1.674759
 40
2.034167
 40
2.400444
 40
2.803177
 40
3.215785
 40
3.586833
 40
3.948188
 40
4.321834
 40
4.729197
 40
5.194921
 40
5.368929
 40
5.545929
 40
5.726438
 40
5.910040
 40
6.099890
 40
6.296371
 40
6.296371
 40
6.296371
 40
6.296371
 10
-78.294766
 20
347.345423
 30
0.0
 10
-78.267910
 20
347.354103
 30
0.0
 10
-78.214618
 20
347.371326
 30
0.0
 10
-78.133595
 20
347.391539
 30
0.0
 10
-78.052452
 20
347.406323
 30
0.0
 10
-77.971704
 20
347.419193
 30
0.0
 10
-77.890678
 20
347.426518
 30
0.0
 10
-77.693518
 20
347.431582
 30
0.0
 10
-77.393768
 20
347.404727
 30
0.0
 10
-77.016021
 20
347.279463
 30
0.0
 10
-76.707951
 20
347.064946
 30
0.0
 10
-76.477207
 20
346.776491
 30
0.0
 10
-76.340686
 20
346.419978
 30
0.0
 10
-76.302820
 20
346.024737
 30
0.0
 10
-76.340939
 20
345.627759
 30
0.0
 10
-76.480837
 20
345.266344
 30
0.0
 10
-76.719647
 20
344.977120
 30
0.0
 10
-77.045524
 20
344.769410
 30
0.0
 10
-77.447783
 20
344.649455
 30
0.0
 10
-77.797981
 20
344.623565
 30
0.0
 10
-78.070147
 20
344.631259
 30
0.0
 10
-78.246799
 20
344.646114
 30
0.0
 10
-78.425587
 20
344.670581
 30
0.0
 10
-78.606984
 20
344.705461
 30
0.0
 10
-78.791923
 20
344.749306
 30
0.0
 10
-78.915449
 20
344.785774
 30
0.0
 10
-78.978273
 20
344.804321
 30
0.0
 11
-78.294766
 21
347.345423
 31
0.0
 11
-78.213921
 21
347.370533
 31
0.0
 11
-78.133076
 21
347.390743
 31
0.0
 11
-78.052231
 21
347.406053
 31
0.0
 11
-77.971386
 21
347.418303
 31
0.0
 11
-77.890541
 21
347.425653
 31
0.0
 11
-77.809696
 21
347.428103
 31
0.0
 11
-77.382198
 21
347.386150
 31
0.0
 11
-77.018396
 21
347.260289
 31
0.0
 11
-76.718290
 21
347.050520
 31
0.0
 11
-76.494741
 21
346.769094
 31
0.0
 11
-76.360612
 21
346.428260
 31
0.0
 11
-76.315903
 21
346.028016
 31
0.0
 11
-76.361837
 21
345.617973
 31
0.0
 11
-76.499641
 21
345.273464
 31
0.0
 11
-76.729315
 21
344.994487
 31
0.0
 11
-77.042588
 21
344.790844
 31
0.0
 11
-77.431195
 21
344.668658
 31
0.0
 11
-77.895135
 21
344.627929
 31
0.0
 11
-78.069074
 21
344.632829
 31
0.0
 11
-78.245462
 21
344.647529
 31
0.0
 11
-78.424301
 21
344.672029
 31
0.0
 11
-78.604671
 21
344.706328
 31
0.0
 11
-78.789328
 21
344.750426
 31
0.0
 11
-78.978273
 21
344.804321
 31
0.0
  0
LWPOLYLINE
  5
147
100
AcDbEntity
  8
0
 62
5
100
AcDbPolyline
 90
2
 70
0
 10
-78.978273
 20
344.804321
 30
0.0
 10
-78.978273
 20
345.363805
 30
0.0
  0
SPLINE
  5
148
100
AcDbEntity
  8
0
 62
5
100
AcDbSpline
 70
0
 71
3
 72
31
 73
27
 74
25
 40
0.000000
 40
0.000000
 40
0.000000
 40
0.000000
 40
0.186393
 40
0.369959
 40
0.552021
 40
0.735497
 40
0.923291
 40
1.116662
 40
1.413790
 40
1.679032
 40
1.929076
 40
2.171820
 40
2.416975
 40
2.685489
 40
2.954004
 40
3.199158
 40
3.441902
 40
3.691947
 40
3.957188
 40
4.254317
 40
4.403247
 40
4.552991
 40
4.704350
 40
4.857661
 40
5.016868
 40
5.182703
 40
5.182703
 40
5.182703
 40
5.182703
 10
-78.978273
 20
345.363805
 30
0.0
 10
-78.923002
 20
345.335348
 30
0.0
 10
-78.813298
 20
345.278864
 30
0.0
 10
-78.641441
 20
345.212198
 30
0.0
 10
-78.465852
 20
345.159875
 30
0.0
 10
-78.284873
 20
345.123024
 30
0.0
 10
-78.097702
 20
345.101296
 30
0.0
 10
-77.871680
 20
345.092058
 30
0.0
 10
-77.618903
 20
345.111408
 30
0.0
 10
-77.358050
 20
345.194845
 30
0.0
 10
-77.144904
 20
345.336675
 30
0.0
 10
-76.984765
 20
345.528392
 30
0.0
 10
-76.889882
 20
345.766280
 30
0.0
 10
-76.863611
 20
346.028015
 30
0.0
 10
-76.889882
 20
346.289750
 30
0.0
 10
-76.984765
 20
346.527641
 30
0.0
 10
-77.144904
 20
346.719345
 30
0.0
 10
-77.358052
 20
346.861226
 30
0.0
 10
-77.618896
 20
346.944452
 30
0.0
 10
-77.856837
 20
346.963401
 30
0.0
 10
-78.055380
 20
346.955855
 30
0.0
 10
-78.204606
 20
346.939198
 30
0.0
 10
-78.353724
 20
346.911778
 30
0.0
 10
-78.503234
 20
346.871842
 30
0.0
 10
-78.654393
 20
346.820561
 30
0.0
 10
-78.753881
 20
346.777559
 30
0.0
 10
-78.804640
 20
346.755619
 30
0.0
 11
-78.978273
 21
345.363805
 31
0.0
 11
-78.811071
 21
345.281429
 31
0.0
 11
-78.640194
 21
345.214364
 31
0.0
 11
-78.465643
 21
345.162611
 31
0.0
 11
-78.285885
 21
345.125861
 31
0.0
 11
-78.099390
 21
345.103811
 31
0.0
 11
-77.906159
 21
345.096461
 31
0.0
 11
-77.610340
 21
345.124328
 31
0.0
 11
-77.358618
 21
345.207929
 31
0.0
 11
-77.150994
 21
345.347264
 31
0.0
 11
-76.996347
 21
345.534371
 31
0.0
 11
-76.903559
 21
345.761288
 31
0.0
 11
-76.872630
 21
346.028015
 31
0.0
 11
-76.903559
 21
346.294742
 31
0.0
 11
-76.996347
 21
346.521659
 31
0.0
 11
-77.150994
 21
346.708766
 31
0.0
 11
-77.358618
 21
346.848101
 31
0.0
 11
-77.610340
 21
346.931702
 31
0.0
 11
-77.906159
 21
346.959569
 31
0.0
 11
-78.054987
 21
346.954057
 31
0.0
 11
-78.203815
 21
346.937520
 31
0.0
 11
-78.352644
 21
346.909959
 31
0.0
 11
-78.500859
 21
346.870761
 31
0.0
 11
-78.651525
 21
346.819315
 31
0.0
 11
-78.804640
 21
346.755619
 31
0.0
  0
LWPOLYLINE
  5
149
100
AcDbEntity
  8
0
 62
5
100
AcDbPolyline
 90
2
 70
0
 10
-78.804640
 20
346.755619
 30
0.0
 10
-78.804640
 20
348.822680
 30
0.0
  0
SPLINE
  5
14a
100
AcDbEntity
  8
0
 62
5
100
AcDbSpline
 70
0
 71
3
 72
19
 73
15
 74
13
 40
0.000000
 40
0.000000
 40
0.000000
 40
0.000000
 40
0.247938
 40
0.474306
 40
0.685796
 40
0.893294
 40
1.107877
 40
1.337039
 40
1.636461
 40
1.909034
 40
2.183059
 40
2.477506
 40
2.808910
 40
3.193413
 40
3.193413
 40
3.193413
 40
3.193413
 10
-72.884588
 20
347.202107
 30
0.0
 10
-72.841815
 20
347.272996
 30
0.0
 10
-72.759990
 20
347.408607
 30
0.0
 10
-72.606075
 20
347.579626
 30
0.0
 10
-72.434875
 20
347.712011
 30
0.0
 10
-72.243171
 20
347.804229
 30
0.0
 10
-72.031560
 20
347.858223
 30
0.0
 10
-71.783722
 20
347.876843
 30
0.0
 10
-71.514997
 20
347.848500
 30
0.0
 10
-71.252419
 20
347.731462
 30
0.0
 10
-71.047080
 20
347.533128
 30
0.0
 10
-70.900645
 20
347.267356
 30
0.0
 10
-70.814288
 20
346.938332
 30
0.0
 10
-70.805639
 20
346.699330
 30
0.0
 10
-70.800993
 20
346.570966
 30
0.0
 11
-72.884588
 21
347.202107
 31
0.0
 11
-72.749540
 21
347.410038
 31
0.0
 11
-72.597956
 21
347.578159
 31
0.0
 11
-72.429835
 21
347.706469
 31
0.0
 11
-72.243034
 21
347.796808
 31
0.0
 11
-72.035410
 21
347.851011
 31
0.0
 11
-71.806962
 21
347.869078
 31
0.0
 11
-71.509918
 21
347.831412
 31
0.0
 11
-71.261871
 21
347.718413
 31
0.0
 11
-71.062821
 21
347.530081
 31
0.0
 11
-70.917361
 21
347.274072
 31
0.0
 11
-70.830085
 21
346.954367
 31
0.0
 11
-70.800993
 21
346.570966
 31
0.0
  0
LWPOLYLINE
  5
14b
100
AcDbEntity
  8
0
 62
5
100
AcDbPolyline
 90
4
 70
0
 10
-70.800993
 20
346.570966
 30
0.0
 10
-70.800993
 20
344.707858
 30
0.0
 10
-71.310868
 20
344.707858
 30
0.0
 10
-71.310868
 20
346.554430
 30
0.0
  0
SPLINE
  5
14c
100
AcDbEntity
  8
0
 62
5
100
AcDbSpline
 70
0
 71
3
 72
19
 73
15
 74
13
 40
0.000000
 40
0.000000
 40
0.000000
 40
0.000000
 40
0.270964
 40
0.496690
 40
0.686658
 40
0.858176
 40
1.033355
 40
1.231400
 40
1.477498
 40
1.702720
 40
1.927125
 40
2.160453
 40
2.410313
 40
2.691665
 40
2.691665
 40
2.691665
 40
2.691665
 10
-71.310868
 20
346.554430
 30
0.0
 10
-71.313552
 20
346.644866
 30
0.0
 10
-71.318472
 20
346.810639
 30
0.0
 10
-71.368952
 20
347.035607
 30
0.0
 10
-71.455756
 20
347.213990
 30
0.0
 10
-71.586056
 20
347.342275
 30
0.0
 10
-71.756206
 20
347.415753
 30
0.0
 10
-71.963642
 20
347.435654
 30
0.0
 10
-72.187640
 20
347.411658
 30
0.0
 10
-72.405667
 20
347.322314
 30
0.0
 10
-72.580919
 20
347.171224
 30
0.0
 10
-72.709532
 20
346.970178
 30
0.0
 10
-72.787112
 20
346.723922
 30
0.0
 10
-72.794982
 20
346.546451
 30
0.0
 10
-72.799150
 20
346.452455
 30
0.0
 11
-71.310868
 21
346.554430
 31
0.0
 11
-71.328323
 21
346.824832
 31
0.0
 11
-71.380688
 21
347.044399
 31
0.0
 11
-71.467965
 21
347.213132
 31
0.0
 11
-71.591069
 21
347.332562
 31
0.0
 11
-71.750921
 21
347.404220
 31
0.0
 11
-71.947522
 21
347.428106
 31
0.0
 11
-72.191894
 21
347.399014
 31
0.0
 11
-72.399518
 21
347.311738
 31
0.0
 11
-72.570395
 21
347.166278
 31
0.0
 11
-72.697481
 21
346.970597
 31
0.0
 11
-72.773732
 21
346.732656
 31
0.0
 11
-72.799150
 21
346.452455
 31
0.0
  0
LWPOLYLINE
  5
14d
100
AcDbEntity
  8
0
 62
5
100
AcDbPolyline
 90
4
 70
0
 10
-72.799150
 20
346.452455
 30
0.0
 10
-72.799150
 20
344.707858
 30
0.0
 10
-73.309024
 20
344.707858
 30
0.0
 10
-73.309024
 20
346.554430
 30
0.0
  0
SPLINE
  5
14e
100
AcDbEntity
  8
0
 62
5
100
AcDbSpline
 70
0
 71
3
 72
19
 73
15
 74
13
 40
0.000000
 40
0.000000
 40
0.000000
 40
0.000000
 40
0.272187
 40
0.497912
 40
0.686793
 40
0.858751
 40
1.035608
 40
1.236695
 40
1.479788
 40
1.703678
 40
1.928614
 40
2.161686
 40
2.410671
 40
2.690498
 40
2.690498
 40
2.690498
 40
2.690498
 10
-73.309024
 20
346.554430
 30
0.0
 10
-73.311706
 20
346.645264
 30
0.0
 10
-73.316614
 20
346.811426
 30
0.0
 10
-73.366803
 20
347.036584
 30
0.0
 10
-73.454288
 20
347.214377
 30
0.0
 10
-73.585104
 20
347.342692
 30
0.0
 10
-73.757324
 20
347.415794
 30
0.0
 10
-73.965264
 20
347.435673
 30
0.0
 10
-74.188883
 20
347.411396
 30
0.0
 10
-74.405108
 20
347.320692
 30
0.0
 10
-74.578544
 20
347.168318
 30
0.0
 10
-74.707649
 20
346.968011
 30
0.0
 10
-74.785207
 20
346.722590
 30
0.0
 10
-74.793118
 20
346.545934
 30
0.0
 10
-74.797305
 20
346.452455
 30
0.0
 11
-73.309024
 21
346.554430
 31
0.0
 11
-73.326479
 21
346.826057
 31
0.0
 11
-73.378844
 21
347.045624
 31
0.0
 11
-73.466120
 21
347.213132
 31
0.0
 11
-73.589837
 21
347.332562
 31
0.0
 11
-73.751527
 21
347.404220
 31
0.0
 11
-73.951190
 21
347.428106
 31
0.0
 11
-74.192499
 21
347.398708
 31
0.0
 11
-74.398286
 21
347.310513
 31
0.0
 11
-74.568551
 21
347.163522
 31
0.0
 11
-74.695636
 21
346.968147
 31
0.0
 11
-74.771887
 21
346.731125
 31
0.0
 11
-74.797305
 21
346.452455
 31
0.0
  0
LWPOLYLINE
  5
14f
100
AcDbEntity
  8
0
 62
5
100
AcDbPolyline
 90
6
 70
0
 10
-74.797305
 20
346.452455
 30
0.0
 10
-74.797305
 20
344.707858
 30
0.0
 10
-75.307179
 20
344.707858
 30
0.0
 10
-75.307179
 20
347.794664
 30
0.0
 10
-74.797305
 20
347.794664
 30
0.0
 10
-74.797305
 20
347.315107
 30
0.0
  0
SPLINE
  5
150
100
AcDbEntity
  8
0
 62
5
100
AcDbSpline
 70
0
 71
3
 72
19
 73
15
 74
13
 40
0.000000
 40
0.000000
 40
0.000000
 40
0.000000
 40
0.212274
 40
0.409108
 40
0.596414
 40
0.783877
 40
0.981090
 40
1.193837
 40
1.407513
 40
1.606029
 40
1.798568
 40
1.993458
 40
2.195839
 40
2.414486
 40
2.414486
 40
2.414486
 40
2.414486
 10
-74.797305
 20
347.315107
 30
0.0
 10
-74.758075
 20
347.374160
 30
0.0
 10
-74.682470
 20
347.487971
 30
0.0
 10
-74.541259
 20
347.629817
 30
0.0
 10
-74.384205
 20
347.739571
 30
0.0
 10
-74.208035
 20
347.815729
 30
0.0
 10
-74.012935
 20
347.860132
 30
0.0
 10
-73.804851
 20
347.874244
 30
0.0
 10
-73.596079
 20
347.858097
 30
0.0
 10
-73.401004
 20
347.800909
 30
0.0
 10
-73.229675
 20
347.703571
 30
0.0
 10
-73.083391
 20
347.570083
 30
0.0
 10
-72.963650
 20
347.400768
 30
0.0
 10
-72.911612
 20
347.270011
 30
0.0
 10
-72.884588
 20
347.202107
 30
0.0
 11
-74.797305
 21
347.315107
 31
0.0
 11
-74.673893
 21
347.487821
 31
0.0
 11
-74.535171
 21
347.627462
 31
0.0
 11
-74.381137
 21
347.734030
 31
0.0
 11
-74.209342
 21
347.809057
 31
0.0
 11
-74.017335
 21
347.854073
 31
0.0
 11
-73.805118
 21
347.869078
 31
0.0
 11
-73.592287
 21
347.850092
 31
0.0
 11
-73.402118
 21
347.793133
 31
0.0
 11
-73.234610
 21
347.698201
 31
0.0
 11
-73.090375
 21
347.567134
 31
0.0
 11
-72.973701
 21
347.401770
 31
0.0
 11
-72.884588
 21
347.202107
 31
0.0
  0
LWPOLYLINE
  5
151
100
AcDbEntity
  8
0
 62
5
100
AcDbPolyline
 90
1
 70
1
 10
-72.884588
 20
347.202107
 30
0.0
  0
SPLINE
  5
152
100
AcDbEntity
  8
0
 62
5
100
AcDbSpline
 70
0
 71
3
 72
19
 73
15
 74
13
 40
0.000000
 40
0.000000
 40
0.000000
 40
0.000000
 40
0.247938
 40
0.474306
 40
0.685796
 40
0.893294
 40
1.107877
 40
1.337039
 40
1.636461
 40
1.909034
 40
2.183059
 40
2.477506
 40
2.808910
 40
3.193413
 40
3.193413
 40
3.193413
 40
3.193413
 10
-67.383459
 20
347.202107
 30
0.0
 10
-67.340687
 20
347.272996
 30
0.0
 10
-67.258862
 20
347.408607
 30
0.0
 10
-67.104946
 20
347.579626
 30
0.0
 10
-66.933747
 20
347.712011
 30
0.0
 10
-66.742043
 20
347.804229
 30
0.0
 10
-66.530432
 20
347.858223
 30
0.0
 10
-66.282594
 20
347.876843
 30
0.0
 10
-66.013869
 20
347.848500
 30
0.0
 10
-65.751291
 20
347.731462
 30
0.0
 10
-65.545952
 20
347.533128
 30
0.0
 10
-65.399517
 20
347.267356
 30
0.0
 10
-65.313160
 20
346.938332
 30
0.0
 10
-65.304511
 20
346.699330
 30
0.0
 10
-65.299865
 20
346.570966
 30
0.0
 11
-67.383459
 21
347.202107
 31
0.0
 11
-67.248412
 21
347.410038
 31
0.0
 11
-67.096827
 21
347.578159
 31
0.0
 11
-66.928706
 21
347.706469
 31
0.0
 11
-66.741906
 21
347.796808
 31
0.0
 11
-66.534282
 21
347.851011
 31
0.0
 11
-66.305833
 21
347.869078
 31
0.0
 11
-66.008790
 21
347.831412
 31
0.0
 11
-65.760743
 21
347.718413
 31
0.0
 11
-65.561692
 21
347.530081
 31
0.0
 11
-65.416233
 21
347.274072
 31
0.0
 11
-65.328957
 21
346.954367
 31
0.0
 11
-65.299865
 21
346.570966
 31
0.0
  0
LWPOLYLINE
  5
153
100
AcDbEntity
  8
0
 62
5
100
AcDbPolyline
 90
4
 70
0
 10
-65.299865
 20
346.570966
 30
0.0
 10
-65.299865
 20
344.707858
 30
0.0
 10
-65.809739
 20
344.707858
 30
0.0
 10
-65.809739
 20
346.554430
 30
0.0
  0
SPLINE
  5
154
100
AcDbEntity
  8
0
 62
5
100
AcDbSpline
 70
0
 71
3
 72
19
 73
15
 74
13
 40
0.000000
 40
0.000000
 40
0.000000
 40
0.000000
 40
0.270964
 40
0.496690
 40
0.686658
 40
0.858176
 40
1.033355
 40
1.231400
 40
1.477498
 40
1.702720
 40
1.927125
 40
2.160453
 40
2.410313
 40
2.691664
 40
2.691664
 40
2.691664
 40
2.691664
 10
-65.809739
 20
346.554430
 30
0.0
 10
-65.812423
 20
346.644866
 30
0.0
 10
-65.817344
 20
346.810639
 30
0.0
 10
-65.867823
 20
347.035607
 30
0.0
 10
-65.954628
 20
347.213990
 30
0.0
 10
-66.084928
 20
347.342275
 30
0.0
 10
-66.255078
 20
347.415753
 30
0.0
 10
-66.462514
 20
347.435654
 30
0.0
 10
-66.686512
 20
347.411658
 30
0.0
 10
-66.904539
 20
347.322314
 30
0.0
 10
-67.079791
 20
347.171224
 30
0.0
 10
-67.208403
 20
346.970178
 30
0.0
 10
-67.285983
 20
346.723922
 30
0.0
 10
-67.293853
 20
346.546451
 30
0.0
 10
-67.298020
 20
346.452455
 30
0.0
 11
-65.809739
 21
346.554430
 31
0.0
 11
-65.827195
 21
346.824832
 31
0.0
 11
-65.879560
 21
347.044399
 31
0.0
 11
-65.966836
 21
347.213132
 31
0.0
 11
-66.089941
 21
347.332562
 31
0.0
 11
-66.249793
 21
347.404220
 31
0.0
 11
-66.446393
 21
347.428106
 31
0.0
 11
-66.690766
 21
347.399014
 31
0.0
 11
-66.898390
 21
347.311738
 31
0.0
 11
-67.069266
 21
347.166278
 31
0.0
 11
-67.196352
 21
346.970597
 31
0.0
 11
-67.272603
 21
346.732656
 31
0.0
 11
-67.298020
 21
346.452455
 31
0.0
  0
LWPOLYLINE
  5
155
100
AcDbEntity
  8
0
 62
5
100
AcDbPolyline
 90
4
 70
0
 10
-67.298020
 20
346.452455
 30
0.0
 10
-67.298020
 20
344.707858
 30
0.0
 10
-67.807895
 20
344.707858
 30
0.0
 10
-67.807895
 20
346.554430
 30
0.0
  0
SPLINE
  5
156
100
AcDbEntity
  8
0
 62
5
100
AcDbSpline
 70
0
 71
3
 72
19
 73
15
 74
13
 40
0.000000
 40
0.000000
 40
0.000000
 40
0.000000
 40
0.272187
 40
0.497912
 40
0.686793
 40
0.858751
 40
1.035608
 40
1.236694
 40
1.479788
 40
1.703678
 40
1.928614
 40
2.161685
 40
2.410671
 40
2.690497
 40
2.690497
 40
2.690497
 40
2.690497
 10
-67.807895
 20
346.554430
 30
0.0
 10
-67.810578
 20
346.645264
 30
0.0
 10
-67.815486
 20
346.811426
 30
0.0
 10
-67.865675
 20
347.036584
 30
0.0
 10
-67.953159
 20
347.214377
 30
0.0
 10
-68.083976
 20
347.342692
 30
0.0
 10
-68.256195
 20
347.415794
 30
0.0
 10
-68.464135
 20
347.435673
 30
0.0
 10
-68.687754
 20
347.411396
 30
0.0
 10
-68.903980
 20
347.320692
 30
0.0
 10
-69.077414
 20
347.168318
 30
0.0
 10
-69.206521
 20
346.968011
 30
0.0
 10
-69.284079
 20
346.722590
 30
0.0
 10
-69.291990
 20
346.545934
 30
0.0
 10
-69.296176
 20
346.452455
 30
0.0
 11
-67.807895
 21
346.554430
 31
0.0
 11
-67.825351
 21
346.826057
 31
0.0
 11
-67.877716
 21
347.045624
 31
0.0
 11
-67.964991
 21
347.213132
 31
0.0
 11
-68.088708
 21
347.332562
 31
0.0
 11
-68.250398
 21
347.404220
 31
0.0
 11
-68.450060
 21
347.428106
 31
0.0
 11
-68.691370
 21
347.398708
 31
0.0
 11
-68.897157
 21
347.310513
 31
0.0
 11
-69.067421
 21
347.163522
 31
0.0
 11
-69.194508
 21
346.968147
 31
0.0
 11
-69.270759
 21
346.731125
 31
0.0
 11
-69.296176
 21
346.452455
 31
0.0
  0
LWPOLYLINE
  5
157
100
AcDbEntity
  8
0
 62
5
100
AcDbPolyline
 90
6
 70
0
 10
-69.296176
 20
346.452455
 30
0.0
 10
-69.296176
 20
344.707858
 30
0.0
 10
-69.806050
 20
344.707858
 30
0.0
 10
-69.806050
 20
347.794664
 30
0.0
 10
-69.296176
 20
347.794664
 30
0.0
 10
-69.296176
 20
347.315107
 30
0.0
  0
LWPOLYLINE
  5
158
100
AcDbEntity
  8
0
 62
5
100
AcDbPolyline
 90
1
 70
1
 10
-67.383459
 20
347.202107
 30
0.0
  0
LWPOLYLINE
  5
159
100
AcDbEntity
  8
0
 62
5
100
AcDbPolyline
 90
2
 70
0
 10
177.700436
 20
341.080697
 30
0.0
 10
205.850277
 20
341.080697
 30
0.0
  0
LWPOLYLINE
  5
15a
100
AcDbEntity
  8
0
 62
5
100
AcDbPolyline
 90
2
 70
0
 10
206.252267
 20
354.309867
 30
0.0
 10
206.252267
 20
332.664707
 30
0.0
  0
SPLINE
  5
15b
100
AcDbEntity
  8
0
 62
5
100
AcDbSpline
 70
0
 71
3
 72
19
 73
15
 74
13
 40
0.000000
 40
0.000000
 40
0.000000
 40
0.000000
 40
0.212274
 40
0.409108
 40
0.596414
 40
0.783877
 40
0.981090
 40
1.193838
 40
1.407514
 40
1.606030
 40
1.798568
 40
1.993458
 40
2.195840
 40
2.414486
 40
2.414486
 40
2.414486
 40
2.414486
 10
-69.296176
 20
347.315107
 30
0.0
 10
-69.256947
 20
347.374160
 30
0.0
 10
-69.181342
 20
347.487971
 30
0.0
 10
-69.040131
 20
347.629817
 30
0.0
 10
-68.883076
 20
347.739571
 30
0.0
 10
-68.706907
 20
347.815729
 30
0.0
 10
-68.511806
 20
347.860132
 30
0.0
 10
-68.303722
 20
347.874244
 30
0.0
 10
-68.094950
 20
347.858097
 30
0.0
 10
-67.899875
 20
347.800909
 30
0.0
 10
-67.728546
 20
347.703571
 30
0.0
 10
-67.582263
 20
347.570083
 30
0.0
 10
-67.462521
 20
347.400768
 30
0.0
 10
-67.410484
 20
347.270011
 30
0.0
 10
-67.383459
 20
347.202107
 30
0.0
 11
-69.296176
 21
347.315107
 31
0.0
 11
-69.172765
 21
347.487821
 31
0.0
 11
-69.034043
 21
347.627462
 31
0.0
 11
-68.880008
 21
347.734030
 31
0.0
 11
-68.708213
 21
347.809057
 31
0.0
 11
-68.516207
 21
347.854073
 31
0.0
 11
-68.303988
 21
347.869078
 31
0.0
 11
-68.091158
 21
347.850092
 31
0.0
 11
-67.900989
 21
347.793133
 31
0.0
 11
-67.733480
 21
347.698201
 31
0.0
 11
-67.589246
 21
347.567134
 31
0.0
 11
-67.472572
 21
347.401770
 31
0.0
 11
-67.383459
 21
347.202107
 31
0.0
  0
LWPOLYLINE
  5
15c
100
AcDbEntity
  8
0
 62
5
100
AcDbPolyline
 90
5
 70
0
 10
180.787086
 20
345.176391
 30
0.0
 10
182.730117
 20
345.176391
 30
0.0
 10
182.730117
 20
344.707858
 30
0.0
 10
180.117356
 20
344.707858
 30
0.0
 10
180.117356
 20
345.176391
 30
0.0
  0
SPLINE
  5
15d
100
AcDbEntity
  8
0
 62
5
100
AcDbSpline
 70
0
 71
3
 72
31
 73
27
 74
25
 40
0.000000
 40
0.000000
 40
0.000000
 40
0.000000
 40
0.339565
 40
0.750139
 40
1.231728
 40
1.688421
 40
2.019126
 40
2.223911
 40
2.472304
 40
2.681961
 40
2.854275
 40
3.005305
 40
3.146801
 40
3.282376
 40
3.489157
 40
3.683373
 40
3.881936
 40
4.085536
 40
4.296464
 40
4.528194
 40
4.706402
 40
4.893531
 40
5.091481
 40
5.301389
 40
5.527592
 40
5.771128
 40
5.771128
 40
5.771128
 40
5.771128
 10
180.117356
 20
345.176391
 30
0.0
 10
180.196189
 20
345.257614
 30
0.0
 10
180.370338
 20
345.437044
 30
0.0
 10
180.658056
 20
345.729949
 30
0.0
 10
180.974244
 20
346.049608
 30
0.0
 10
181.271335
 20
346.350711
 30
0.0
 10
181.501724
 20
346.587999
 30
0.0
 10
181.680038
 20
346.779042
 30
0.0
 10
181.822995
 20
346.947669
 30
0.0
 10
181.948822
 20
347.116195
 30
0.0
 10
182.041008
 20
347.268548
 30
0.0
 10
182.103219
 20
347.410988
 30
0.0
 10
182.140300
 20
347.549502
 30
0.0
 10
182.154289
 20
347.710820
 30
0.0
 10
182.133386
 20
347.890690
 30
0.0
 10
182.053614
 20
348.077336
 30
0.0
 10
181.921484
 20
348.229428
 30
0.0
 10
181.751111
 20
348.346462
 30
0.0
 10
181.544415
 20
348.415729
 30
0.0
 10
181.336748
 20
348.433440
 30
0.0
 10
181.137774
 20
348.421276
 30
0.0
 10
180.952253
 20
348.390349
 30
0.0
 10
180.760296
 20
348.339337
 30
0.0
 10
180.561554
 20
348.266821
 30
0.0
 10
180.354275
 20
348.174841
 30
0.0
 10
180.216398
 20
348.100530
 30
0.0
 10
180.144916
 20
348.062003
 30
0.0
 11
180.117356
 21
345.176391
 31
0.0
 11
180.354073
 21
345.419845
 31
0.0
 11
180.641623
 21
345.712908
 31
0.0
 11
180.980007
 21
346.055580
 31
0.0
 11
181.300324
 21
346.381103
 31
0.0
 11
181.529998
 21
346.619044
 31
0.0
 11
181.669027
 21
346.769403
 31
0.0
 11
181.829185
 21
346.959267
 31
0.0
 11
181.953209
 21
347.128306
 31
0.0
 11
182.041097
 21
347.276522
 31
0.0
 11
182.100813
 21
347.415244
 31
0.0
 11
182.136643
 21
347.552129
 31
0.0
 11
182.148587
 21
347.687177
 31
0.0
 11
182.122863
 21
347.892352
 31
0.0
 11
182.045693
 21
348.070578
 31
0.0
 11
181.917077
 21
348.221856
 31
0.0
 11
181.748953
 21
348.336692
 31
0.0
 11
181.549597
 21
348.405594
 31
0.0
 11
181.319007
 21
348.428561
 31
0.0
 11
181.141085
 21
348.418456
 31
0.0
 11
180.956429
 21
348.388139
 31
0.0
 11
180.765036
 21
348.337611
 31
0.0
 11
180.567516
 21
348.266566
 31
0.0
 11
180.360810
 21
348.174697
 31
0.0
 11
180.144916
 21
348.062003
 31
0.0
  0
LWPOLYLINE
  5
15e
100
AcDbEntity
  8
0
 62
5
100
AcDbPolyline
 90
2
 70
0
 10
180.144916
 20
348.062003
 30
0.0
 10
180.144916
 20
348.624243
 30
0.0
  0
SPLINE
  5
15f
100
AcDbEntity
  8
0
 62
5
100
AcDbSpline
 70
0
 71
3
 72
31
 73
27
 74
25
 40
0.000000
 40
0.000000
 40
0.000000
 40
0.000000
 40
0.234333
 40
0.454552
 40
0.661205
 40
0.854287
 40
1.033987
 40
1.201367
 40
1.600437
 40
1.956665
 40
2.290225
 40
2.607758
 40
2.919497
 40
3.254738
 40
3.421367
 40
3.585324
 40
3.749578
 40
3.928298
 40
4.140317
 40
4.387453
 40
4.505159
 40
4.717664
 40
5.024996
 40
5.426276
 40
5.923263
 40
6.515959
 40
6.515959
 40
6.515959
 40
6.515959
 10
180.144916
 20
348.624243
 30
0.0
 10
180.217741
 20
348.652528
 30
0.0
 10
180.359003
 20
348.707393
 30
0.0
 10
180.568803
 20
348.775321
 30
0.0
 10
180.768423
 20
348.829157
 30
0.0
 10
180.957779
 20
348.867856
 30
0.0
 10
181.136479
 20
348.891624
 30
0.0
 10
181.385146
 20
348.902572
 30
0.0
 10
181.693680
 20
348.877316
 30
0.0
 10
182.044702
 20
348.772257
 30
0.0
 10
182.333174
 20
348.592563
 30
0.0
 10
182.552353
 20
348.351421
 30
0.0
 10
182.683756
 20
348.052051
 30
0.0
 10
182.714718
 20
347.779078
 30
0.0
 10
182.701201
 20
347.557168
 30
0.0
 10
182.668751
 20
347.394861
 30
0.0
 10
182.613272
 20
347.234730
 30
0.0
 10
182.529333
 20
347.069245
 30
0.0
 10
182.411585
 20
346.892045
 30
0.0
 10
182.297671
 20
346.736584
 30
0.0
 10
182.166226
 20
346.595857
 30
0.0
 10
182.020072
 20
346.441641
 30
0.0
 10
181.807417
 20
346.220133
 30
0.0
 10
181.526645
 20
345.932628
 30
0.0
 10
181.179495
 20
345.576981
 30
0.0
 10
180.925305
 20
345.317517
 30
0.0
 10
180.787046
 20
345.176390
 30
0.0
 11
180.144916
 21
348.624243
 31
0.0
 11
180.364178
 21
348.706926
 31
0.0
 11
180.573641
 21
348.774909
 31
0.0
 11
180.773306
 21
348.828193
 31
0.0
 11
180.962555
 21
348.866471
 31
0.0
 11
181.140782
 21
348.889438
 31
0.0
 11
181.307987
 21
348.897093
 31
0.0
 11
181.705473
 21
348.861571
 31
0.0
 11
182.045387
 21
348.755003
 31
0.0
 11
182.327727
 21
348.577389
 31
0.0
 11
182.539027
 21
348.340367
 31
0.0
 11
182.665807
 21
348.055572
 31
0.0
 11
182.708067
 21
347.723005
 31
0.0
 11
182.697344
 21
347.556722
 31
0.0
 11
182.665178
 21
347.395951
 31
0.0
 11
182.611567
 21
347.240692
 31
0.0
 11
182.531643
 21
347.080839
 31
0.0
 11
182.416807
 21
346.902613
 31
0.0
 11
182.267057
 21
346.706013
 31
0.0
 11
182.187743
 21
346.619042
 31
0.0
 11
182.041670
 21
346.464702
 31
0.0
 11
181.828837
 21
346.242992
 31
0.0
 11
181.548944
 21
345.955441
 31
0.0
 11
181.201681
 21
345.599907
 31
0.0
 11
180.787046
 21
345.176390
 31
0.0
  0
LWPOLYLINE
  5
160
100
AcDbEntity
  8
0
 62
5
100
AcDbPolyline
 90
1
 70
1
 10
180.787046
 20
345.176390
 30
0.0
  0
SPLINE
  5
161
100
AcDbEntity
  8
0
 62
5
100
AcDbSpline
 70
0
 71
3
 72
31
 73
27
 74
25
 40
0.000000
 40
0.000000
 40
0.000000
 40
0.000000
 40
0.247034
 40
0.467248
 40
0.675102
 40
0.877886
 40
1.086711
 40
1.318362
 40
1.550012
 40
1.758837
 40
1.961621
 40
2.169475
 40
2.389689
 40
2.636723
 40
2.883752
 40
3.103966
 40
3.311823
 40
3.516516
 40
3.725673
 40
3.956139
 40
4.187823
 40
4.396981
 40
4.600715
 40
4.807563
 40
5.027777
 40
5.276027
 40
5.276027
 40
5.276027
 40
5.276027
 10
185.092077
 20
346.661917
 30
0.0
 10
185.009511
 20
346.658054
 30
0.0
 10
184.853343
 20
346.650748
 30
0.0
 10
184.636966
 20
346.578211
 30
0.0
 10
184.460519
 20
346.458727
 30
0.0
 10
184.330508
 20
346.293899
 30
0.0
 10
184.254195
 20
346.090243
 30
0.0
 10
184.233216
 20
345.865408
 30
0.0
 10
184.254195
 20
345.640587
 30
0.0
 10
184.330508
 20
345.436896
 30
0.0
 10
184.460519
 20
345.272191
 30
0.0
 10
184.636966
 20
345.152230
 30
0.0
 10
184.853342
 20
345.081669
 30
0.0
 10
185.092078
 20
345.062153
 30
0.0
 10
185.330798
 20
345.081679
 30
0.0
 10
185.547213
 20
345.152198
 30
0.0
 10
185.724064
 20
345.272667
 30
0.0
 10
185.854833
 20
345.437649
 30
0.0
 10
185.932417
 20
345.641232
 30
0.0
 10
185.953810
 20
345.865829
 30
0.0
 10
185.932479
 20
346.090360
 30
0.0
 10
185.855231
 20
346.294312
 30
0.0
 10
185.723690
 20
346.457834
 30
0.0
 10
185.548343
 20
346.578644
 30
0.0
 10
185.331566
 20
346.650782
 30
0.0
 10
185.175029
 20
346.658060
 30
0.0
 10
185.092077
 20
346.661917
 30
0.0
 11
185.092077
 21
346.661917
 31
0.0
 11
184.846171
 21
346.638337
 31
0.0
 11
184.637628
 21
346.567598
 31
0.0
 11
184.466447
 21
346.449699
 31
0.0
 11
184.340891
 21
346.290459
 31
0.0
 11
184.265558
 21
346.095696
 31
0.0
 11
184.240447
 21
345.865410
 31
0.0
 11
184.265558
 21
345.635125
 31
0.0
 11
184.340891
 21
345.440362
 31
0.0
 11
184.466447
 21
345.281122
 31
0.0
 11
184.637628
 21
345.163223
 31
0.0
 11
184.846171
 21
345.092484
 31
0.0
 11
185.092077
 21
345.068904
 31
0.0
 11
185.337978
 21
345.092484
 31
0.0
 11
185.546521
 21
345.163223
 31
0.0
 11
185.717707
 21
345.281122
 31
0.0
 11
185.844790
 21
345.441587
 31
0.0
 11
185.921040
 21
345.636350
 31
0.0
 11
185.946457
 21
345.865410
 31
0.0
 11
185.921040
 21
346.095696
 31
0.0
 11
185.844790
 21
346.290459
 31
0.0
 11
185.717707
 21
346.449699
 31
0.0
 11
185.547748
 21
346.567598
 31
0.0
 11
185.339204
 21
346.638337
 31
0.0
 11
185.092077
 21
346.661917
 31
0.0
  0
SPLINE
  5
162
100
AcDbEntity
  8
0
 62
5
100
AcDbSpline
 70
0
 71
3
 72
31
 73
27
 74
25
 40
0.000000
 40
0.000000
 40
0.000000
 40
0.000000
 40
0.234166
 40
0.451276
 40
0.661787
 40
0.869016
 40
1.079059
 40
1.303388
 40
1.611775
 40
1.896744
 40
2.185937
 40
2.494220
 40
2.829658
 40
3.210108
 40
3.591776
 40
3.927214
 40
4.234451
 40
4.523644
 40
4.808613
 40
5.117000
 40
5.341359
 40
5.551694
 40
5.759743
 40
5.968932
 40
6.184466
 40
6.416899
 40
6.416899
 40
6.416899
 40
6.416899
 10
184.535347
 20
346.898939
 30
0.0
 10
184.460262
 20
346.921184
 30
0.0
 10
184.315562
 20
346.964054
 30
0.0
 10
184.124327
 20
347.078741
 30
0.0
 10
183.969838
 20
347.225997
 30
0.0
 10
183.857470
 20
347.405143
 30
0.0
 10
183.790310
 20
347.610393
 30
0.0
 10
183.768654
 20
347.858443
 30
0.0
 10
183.799533
 20
348.132570
 30
0.0
 10
183.920415
 20
348.406403
 30
0.0
 10
184.123357
 20
348.626019
 30
0.0
 10
184.394421
 20
348.786183
 30
0.0
 10
184.725905
 20
348.880032
 30
0.0
 10
185.092493
 20
348.906160
 30
0.0
 10
185.459027
 20
348.880066
 30
0.0
 10
185.790762
 20
348.786524
 30
0.0
 10
186.060942
 20
348.625601
 30
0.0
 10
186.263768
 20
348.406443
 30
0.0
 10
186.384590
 20
348.132560
 30
0.0
 10
186.415586
 20
347.858426
 30
0.0
 10
186.393615
 20
347.610299
 30
0.0
 10
186.325602
 20
347.404750
 30
0.0
 10
186.211386
 20
347.227056
 30
0.0
 10
186.059219
 20
347.078665
 30
0.0
 10
185.869540
 20
346.964096
 30
0.0
 10
185.726023
 20
346.921198
 30
0.0
 10
185.651557
 20
346.898939
 30
0.0
 11
184.535347
 21
346.898939
 31
0.0
 11
184.313942
 21
346.975189
 31
0.0
 11
184.127449
 21
347.086350
 31
0.0
 11
183.975867
 21
347.232424
 31
0.0
 11
183.865622
 21
347.407895
 31
0.0
 11
183.799475
 21
347.607251
 31
0.0
 11
183.777427
 21
347.830493
 31
0.0
 11
183.816318
 21
348.136418
 31
0.0
 11
183.932991
 21
348.396408
 31
0.0
 11
184.127447
 21
348.610463
 31
0.0
 11
184.391419
 21
348.769703
 31
0.0
 11
184.712962
 21
348.865246
 31
0.0
 11
185.092077
 21
348.897094
 31
0.0
 11
185.472413
 21
348.865246
 31
0.0
 11
185.793957
 21
348.769703
 31
0.0
 11
186.056707
 21
348.610463
 31
0.0
 11
186.251162
 21
348.396408
 31
0.0
 11
186.367836
 21
348.136418
 31
0.0
 11
186.406727
 21
347.830493
 31
0.0
 11
186.384371
 21
347.607251
 31
0.0
 11
186.317304
 21
347.407895
 31
0.0
 11
186.205527
 21
347.232424
 31
0.0
 11
186.055783
 21
347.086353
 31
0.0
 11
185.871127
 21
346.975191
 31
0.0
 11
185.651557
 21
346.898939
 31
0.0
  0
LWPOLYLINE
  5
163
100
AcDbEntity
  8
0
 62
5
100
AcDbPolyline
 90
1
 70
1
 10
185.092077
 20
346.661917
 30
0.0
  0
SPLINE
  5
164
100
AcDbEntity
  8
0
 62
5
100
AcDbSpline
 70
0
 71
3
 72
31
 73
27
 74
25
 40
0.000000
 40
0.000000
 40
0.000000
 40
0.000000
 40
0.261660
 40
0.503362
 40
0.737269
 40
0.969510
 40
1.204250
 40
1.454784
 40
1.824815
 40
2.154238
 40
2.472104
 40
2.801789
 40
3.165916
 40
3.586037
 40
4.006463
 40
4.371470
 40
4.702447
 40
5.019334
 40
5.348416
 40
5.718414
 40
5.968947
 40
6.203688
 40
6.435928
 40
6.670941
 40
6.913434
 40
7.175384
 40
7.175384
 40
7.175384
 40
7.175384
 10
185.651557
 20
346.898939
 30
0.0
 10
185.735742
 20
346.875090
 30
0.0
 10
185.897690
 20
346.829212
 30
0.0
 10
186.112128
 20
346.703306
 30
0.0
 10
186.283777
 20
346.538631
 30
0.0
 10
186.411972
 20
346.340569
 30
0.0
 10
186.488711
 20
346.111283
 30
0.0
 10
186.512798
 20
345.825552
 30
0.0
 10
186.480885
 20
345.507605
 30
0.0
 10
186.358034
 20
345.185901
 30
0.0
 10
186.144674
 20
344.932061
 30
0.0
 10
185.854826
 20
344.750286
 30
0.0
 10
185.494320
 20
344.646478
 30
0.0
 10
185.091991
 20
344.618003
 30
0.0
 10
184.689273
 20
344.646473
 30
0.0
 10
184.328208
 20
344.750591
 30
0.0
 10
184.036863
 20
344.931079
 30
0.0
 10
183.824935
 20
345.186327
 30
0.0
 10
183.703064
 20
345.507730
 30
0.0
 10
183.671398
 20
345.825558
 30
0.0
 10
183.695417
 20
346.111300
 30
0.0
 10
183.772244
 20
346.340509
 30
0.0
 10
183.900354
 20
346.539169
 30
0.0
 10
184.073649
 20
346.703111
 30
0.0
 10
184.288746
 20
346.829125
 30
0.0
 10
184.451060
 20
346.875077
 30
0.0
 10
184.535347
 20
346.898939
 30
0.0
 11
185.651557
 21
346.898939
 31
0.0
 11
185.899911
 21
346.816562
 31
0.0
 11
186.108454
 21
346.694376
 31
0.0
 11
186.277187
 21
346.532381
 31
0.0
 11
186.402742
 21
346.337006
 31
0.0
 11
186.478076
 21
346.114682
 31
0.0
 11
186.503187
 21
345.865410
 31
0.0
 11
186.462458
 21
345.497627
 31
0.0
 11
186.340271
 21
345.191703
 31
0.0
 11
186.136627
 21
344.947637
 31
0.0
 11
185.858877
 21
344.770023
 31
0.0
 11
185.510693
 21
344.663455
 31
0.0
 11
185.092077
 21
344.627932
 31
0.0
 11
184.673153
 21
344.663455
 31
0.0
 11
184.324050
 21
344.770023
 31
0.0
 11
184.044767
 21
344.947637
 31
0.0
 11
183.842655
 21
345.191703
 31
0.0
 11
183.721389
 21
345.497627
 31
0.0
 11
183.680967
 21
345.865410
 31
0.0
 11
183.706078
 21
346.114682
 31
0.0
 11
183.781411
 21
346.337006
 31
0.0
 11
183.906967
 21
346.532381
 31
0.0
 11
184.077227
 21
346.694377
 31
0.0
 11
184.286687
 21
346.816563
 31
0.0
 11
184.535347
 21
346.898939
 31
0.0
  0
LWPOLYLINE
  5
165
100
AcDbEntity
  8
0
 62
5
100
AcDbPolyline
 90
1
 70
1
 10
184.535347
 20
346.898939
 30
0.0
  0
LWPOLYLINE
  5
166
100
AcDbEntity
  8
0
 62
5
100
AcDbPolyline
 90
1
 70
1
 10
184.331397
 20
347.778127
 30
0.0
  0
LWPOLYLINE
  5
167
100
AcDbEntity
  8
0
 62
5
100
AcDbPolyline
 90
4
 70
1
 10
187.495377
 20
345.407902
 30
0.0
 10
188.076907
 20
345.407902
 30
0.0
 10
188.076907
 20
344.707858
 30
0.0
 10
187.495377
 20
344.707858
 30
0.0
  0
SPLINE
  5
168
100
AcDbEntity
  8
0
 62
5
100
AcDbSpline
 70
0
 71
3
 72
31
 73
27
 74
25
 40
0.000000
 40
0.000000
 40
0.000000
 40
0.000000
 40
0.198745
 40
0.377702
 40
0.552034
 40
0.733625
 40
0.930322
 40
1.154147
 40
1.376444
 40
1.572265
 40
1.753600
 40
1.929884
 40
2.109527
 40
2.308341
 40
2.507156
 40
2.686799
 40
2.863083
 40
3.044418
 40
3.240239
 40
3.462536
 40
3.686361
 40
3.883058
 40
4.064649
 40
4.238982
 40
4.417938
 40
4.616684
 40
4.616684
 40
4.616684
 40
4.616684
 10
184.331397
 20
347.778127
 30
0.0
 10
184.335020
 20
347.711631
 30
0.0
 10
184.341905
 20
347.585260
 30
0.0
 10
184.410981
 20
347.410958
 30
0.0
 10
184.525306
 20
347.270562
 30
0.0
 10
184.682786
 20
347.169591
 30
0.0
 10
184.876777
 20
347.110710
 30
0.0
 10
185.091583
 20
347.094490
 30
0.0
 10
185.306002
 20
347.110773
 30
0.0
 10
185.499306
 20
347.169567
 30
0.0
 10
185.655983
 20
347.271563
 30
0.0
 10
185.773862
 20
347.410221
 30
0.0
 10
185.843075
 20
347.584981
 30
0.0
 10
185.862037
 20
347.778127
 30
0.0
 10
185.843075
 20
347.971274
 30
0.0
 10
185.773863
 20
348.146034
 30
0.0
 10
185.655983
 20
348.284693
 30
0.0
 10
185.499306
 20
348.386688
 30
0.0
 10
185.306002
 20
348.445483
 30
0.0
 10
185.091583
 20
348.461766
 30
0.0
 10
184.876777
 20
348.445546
 30
0.0
 10
184.682786
 20
348.386665
 30
0.0
 10
184.525306
 20
348.285694
 30
0.0
 10
184.410981
 20
348.145298
 30
0.0
 10
184.341905
 20
347.970995
 30
0.0
 10
184.335020
 20
347.844623
 30
0.0
 10
184.331397
 20
347.778127
 30
0.0
 11
184.331397
 21
347.778127
 31
0.0
 11
184.353445
 21
347.580609
 31
0.0
 11
184.419592
 21
347.414326
 31
0.0
 11
184.529837
 21
347.279278
 31
0.0
 11
184.681725
 21
347.179753
 31
0.0
 11
184.869139
 21
347.120038
 31
0.0
 11
185.092077
 21
347.100133
 31
0.0
 11
185.313481
 21
347.120038
 31
0.0
 11
185.499974
 21
347.179753
 31
0.0
 11
185.651557
 21
347.279278
 31
0.0
 11
185.764862
 21
347.414326
 31
0.0
 11
185.832846
 21
347.580609
 31
0.0
 11
185.855507
 21
347.778127
 31
0.0
 11
185.832846
 21
347.975646
 31
0.0
 11
185.764862
 21
348.141930
 31
0.0
 11
185.651557
 21
348.276977
 31
0.0
 11
185.499974
 21
348.376502
 31
0.0
 11
185.313481
 21
348.436217
 31
0.0
 11
185.092077
 21
348.456122
 31
0.0
 11
184.869139
 21
348.436217
 31
0.0
 11
184.681725
 21
348.376502
 31
0.0
 11
184.529837
 21
348.276977
 31
0.0
 11
184.419592
 21
348.141930
 31
0.0
 11
184.353445
 21
347.975646
 31
0.0
 11
184.331397
 21
347.778127
 31
0.0
  0
LWPOLYLINE
  5
169
100
AcDbEntity
  8
0
 62
5
100
AcDbPolyline
 90
5
 70
0
 10
189.297847
 20
348.822680
 30
0.0
 10
191.483417
 20
348.822680
 30
0.0
 10
191.483417
 20
348.354147
 30
0.0
 10
189.807727
 20
348.354147
 30
0.0
 10
189.807727
 20
347.345423
 30
0.0
  0
SPLINE
  5
16a
100
AcDbEntity
  8
0
 62
5
100
AcDbSpline
 70
0
 71
3
 72
31
 73
27
 74
25
 40
0.000000
 40
0.000000
 40
0.000000
 40
0.000000
 40
0.084651
 40
0.167982
 40
0.250265
 40
0.332033
 40
0.413210
 40
0.494088
 40
0.923641
 40
1.308600
 40
1.674752
 40
2.034162
 40
2.400439
 40
2.803172
 40
3.215780
 40
3.586828
 40
3.948183
 40
4.321828
 40
4.729191
 40
5.194915
 40
5.368923
 40
5.545925
 40
5.726436
 40
5.910038
 40
6.099887
 40
6.296367
 40
6.296367
 40
6.296367
 40
6.296367
 10
189.807727
 20
347.345423
 30
0.0
 10
189.834581
 20
347.354103
 30
0.0
 10
189.887872
 20
347.371326
 30
0.0
 10
189.968893
 20
347.391539
 30
0.0
 10
190.050036
 20
347.406323
 30
0.0
 10
190.130783
 20
347.419193
 30
0.0
 10
190.211808
 20
347.426518
 30
0.0
 10
190.408966
 20
347.431582
 30
0.0
 10
190.708715
 20
347.404727
 30
0.0
 10
191.086463
 20
347.279463
 30
0.0
 10
191.394535
 20
347.064947
 30
0.0
 10
191.625281
 20
346.776491
 30
0.0
 10
191.761803
 20
346.419979
 30
0.0
 10
191.799670
 20
346.024737
 30
0.0
 10
191.761550
 20
345.627759
 30
0.0
 10
191.621653
 20
345.266344
 30
0.0
 10
191.382844
 20
344.977120
 30
0.0
 10
191.056968
 20
344.769410
 30
0.0
 10
190.654708
 20
344.649455
 30
0.0
 10
190.304510
 20
344.623565
 30
0.0
 10
190.032344
 20
344.631259
 30
0.0
 10
189.855691
 20
344.646114
 30
0.0
 10
189.676901
 20
344.670580
 30
0.0
 10
189.495504
 20
344.705461
 30
0.0
 10
189.310565
 20
344.749306
 30
0.0
 10
189.187040
 20
344.785774
 30
0.0
 10
189.124217
 20
344.804321
 30
0.0
 11
189.807727
 21
347.345423
 31
0.0
 11
189.888568
 21
347.370533
 31
0.0
 11
189.969411
 21
347.390743
 31
0.0
 11
190.050257
 21
347.406053
 31
0.0
 11
190.131102
 21
347.418303
 31
0.0
 11
190.211946
 21
347.425653
 31
0.0
 11
190.292787
 21
347.428103
 31
0.0
 11
190.720286
 21
347.386150
 31
0.0
 11
191.084089
 21
347.260289
 31
0.0
 11
191.384197
 21
347.050520
 31
0.0
 11
191.607747
 21
346.769094
 31
0.0
 11
191.741877
 21
346.428260
 31
0.0
 11
191.786587
 21
346.028016
 31
0.0
 11
191.740652
 21
345.617973
 31
0.0
 11
191.602849
 21
345.273464
 31
0.0
 11
191.373177
 21
344.994487
 31
0.0
 11
191.059903
 21
344.790844
 31
0.0
 11
190.671297
 21
344.668658
 31
0.0
 11
190.207357
 21
344.627929
 31
0.0
 11
190.033418
 21
344.632829
 31
0.0
 11
189.857028
 21
344.647529
 31
0.0
 11
189.678187
 21
344.672029
 31
0.0
 11
189.497817
 21
344.706328
 31
0.0
 11
189.313160
 21
344.750426
 31
0.0
 11
189.124217
 21
344.804321
 31
0.0
  0
LWPOLYLINE
  5
16b
100
AcDbEntity
  8
0
 62
5
100
AcDbPolyline
 90
2
 70
0
 10
189.124217
 20
344.804321
 30
0.0
 10
189.124217
 20
345.363805
 30
0.0
  0
SPLINE
  5
16c
100
AcDbEntity
  8
0
 62
5
100
AcDbSpline
 70
0
 71
3
 72
31
 73
27
 74
25
 40
0.000000
 40
0.000000
 40
0.000000
 40
0.000000
 40
0.186394
 40
0.369960
 40
0.552021
 40
0.735495
 40
0.923287
 40
1.116658
 40
1.413787
 40
1.679029
 40
1.929076
 40
2.171819
 40
2.416973
 40
2.685488
 40
2.954002
 40
3.199156
 40
3.441899
 40
3.691946
 40
3.957189
 40
4.254317
 40
4.403246
 40
4.552989
 40
4.704346
 40
4.857659
 40
5.016867
 40
5.182703
 40
5.182703
 40
5.182703
 40
5.182703
 10
189.124217
 20
345.363805
 30
0.0
 10
189.179488
 20
345.335348
 30
0.0
 10
189.289192
 20
345.278865
 30
0.0
 10
189.461049
 20
345.212198
 30
0.0
 10
189.636637
 20
345.159875
 30
0.0
 10
189.817614
 20
345.123024
 30
0.0
 10
190.004784
 20
345.101296
 30
0.0
 10
190.230805
 20
345.092058
 30
0.0
 10
190.483583
 20
345.111409
 30
0.0
 10
190.744437
 20
345.194846
 30
0.0
 10
190.957586
 20
345.336673
 30
0.0
 10
191.117723
 20
345.528393
 30
0.0
 10
191.212605
 20
345.766280
 30
0.0
 10
191.238875
 20
346.028015
 30
0.0
 10
191.212605
 20
346.289750
 30
0.0
 10
191.117723
 20
346.527641
 30
0.0
 10
190.957586
 20
346.719347
 30
0.0
 10
190.744435
 20
346.861226
 30
0.0
 10
190.483590
 20
346.944452
 30
0.0
 10
190.245649
 20
346.963401
 30
0.0
 10
190.047106
 20
346.955855
 30
0.0
 10
189.897882
 20
346.939198
 30
0.0
 10
189.748765
 20
346.911777
 30
0.0
 10
189.599255
 20
346.871842
 30
0.0
 10
189.448094
 20
346.820561
 30
0.0
 10
189.348605
 20
346.777559
 30
0.0
 10
189.297847
 20
346.755619
 30
0.0
 11
189.124217
 21
345.363805
 31
0.0
 11
189.291420
 21
345.281429
 31
0.0
 11
189.462297
 21
345.214364
 31
0.0
 11
189.636847
 21
345.162611
 31
0.0
 11
189.816602
 21
345.125861
 31
0.0
 11
190.003096
 21
345.103811
 31
0.0
 11
190.196327
 21
345.096461
 31
0.0
 11
190.492146
 21
345.124328
 31
0.0
 11
190.743869
 21
345.207929
 31
0.0
 11
190.951497
 21
345.347264
 31
0.0
 11
191.106141
 21
345.534371
 31
0.0
 11
191.198928
 21
345.761288
 31
0.0
 11
191.229857
 21
346.028015
 31
0.0
 11
191.198928
 21
346.294742
 31
0.0
 11
191.106141
 21
346.521659
 31
0.0
 11
190.951497
 21
346.708766
 31
0.0
 11
190.743869
 21
346.848101
 31
0.0
 11
190.492146
 21
346.931702
 31
0.0
 11
190.196327
 21
346.959569
 31
0.0
 11
190.047500
 21
346.954057
 31
0.0
 11
189.898673
 21
346.937520
 31
0.0
 11
189.749847
 21
346.909959
 31
0.0
 11
189.601629
 21
346.870761
 31
0.0
 11
189.450962
 21
346.819315
 31
0.0
 11
189.297847
 21
346.755619
 31
0.0
  0
LWPOLYLINE
  5
16d
100
AcDbEntity
  8
0
 62
5
100
AcDbPolyline
 90
2
 70
0
 10
189.297847
 20
346.755619
 30
0.0
 10
189.297847
 20
348.822680
 30
0.0
  0
SPLINE
  5
16e
100
AcDbEntity
  8
0
 62
5
100
AcDbSpline
 70
0
 71
3
 72
19
 73
15
 74
13
 40
0.000000
 40
0.000000
 40
0.000000
 40
0.000000
 40
0.247938
 40
0.474308
 40
0.685801
 40
0.893298
 40
1.107880
 40
1.337041
 40
1.636462
 40
1.909034
 40
2.183060
 40
2.477508
 40
2.808912
 40
3.193415
 40
3.193415
 40
3.193415
 40
3.193415
 10
195.217897
 20
347.202107
 30
0.0
 10
195.260670
 20
347.272996
 30
0.0
 10
195.342496
 20
347.408607
 30
0.0
 10
195.496413
 20
347.579627
 30
0.0
 10
195.667615
 20
347.712009
 30
0.0
 10
195.859319
 20
347.804229
 30
0.0
 10
196.070929
 20
347.858223
 30
0.0
 10
196.318766
 20
347.876843
 30
0.0
 10
196.587491
 20
347.848500
 30
0.0
 10
196.850068
 20
347.731461
 30
0.0
 10
197.055408
 20
347.533128
 30
0.0
 10
197.201844
 20
347.267356
 30
0.0
 10
197.288202
 20
346.938332
 30
0.0
 10
197.296852
 20
346.699330
 30
0.0
 10
197.301497
 20
346.570966
 30
0.0
 11
195.217897
 21
347.202107
 31
0.0
 11
195.352946
 21
347.410038
 31
0.0
 11
195.504532
 21
347.578159
 31
0.0
 11
195.672657
 21
347.706469
 31
0.0
 11
195.859456
 21
347.796808
 31
0.0
 11
196.067079
 21
347.851011
 31
0.0
 11
196.295527
 21
347.869078
 31
0.0
 11
196.592569
 21
347.831412
 31
0.0
 11
196.840616
 21
347.718413
 31
0.0
 11
197.039667
 21
347.530081
 31
0.0
 11
197.185128
 21
347.274072
 31
0.0
 11
197.272405
 21
346.954367
 31
0.0
 11
197.301497
 21
346.570966
 31
0.0
  0
LWPOLYLINE
  5
16f
100
AcDbEntity
  8
0
 62
5
100
AcDbPolyline
 90
4
 70
0
 10
197.301497
 20
346.570966
 30
0.0
 10
197.301497
 20
344.707858
 30
0.0
 10
196.791617
 20
344.707858
 30
0.0
 10
196.791617
 20
346.554430
 30
0.0
  0
SPLINE
  5
170
100
AcDbEntity
  8
0
 62
5
100
AcDbSpline
 70
0
 71
3
 72
19
 73
15
 74
13
 40
0.000000
 40
0.000000
 40
0.000000
 40
0.000000
 40
0.270964
 40
0.496689
 40
0.686656
 40
0.858175
 40
1.033355
 40
1.231400
 40
1.477498
 40
1.702719
 40
1.927122
 40
2.160452
 40
2.410313
 40
2.691664
 40
2.691664
 40
2.691664
 40
2.691664
 10
196.791617
 20
346.554430
 30
0.0
 10
196.788933
 20
346.644866
 30
0.0
 10
196.784013
 20
346.810639
 30
0.0
 10
196.733535
 20
347.035606
 30
0.0
 10
196.646736
 20
347.213992
 30
0.0
 10
196.516433
 20
347.342275
 30
0.0
 10
196.346282
 20
347.415753
 30
0.0
 10
196.138846
 20
347.435654
 30
0.0
 10
195.914849
 20
347.411658
 30
0.0
 10
195.696822
 20
347.322314
 30
0.0
 10
195.521573
 20
347.171222
 30
0.0
 10
195.392957
 20
346.970179
 30
0.0
 10
195.315374
 20
346.723922
 30
0.0
 10
195.307505
 20
346.546451
 30
0.0
 10
195.303337
 20
346.452455
 30
0.0
 11
196.791617
 21
346.554430
 31
0.0
 11
196.774162
 21
346.824832
 31
0.0
 11
196.721799
 21
347.044399
 31
0.0
 11
196.634527
 21
347.213132
 31
0.0
 11
196.511420
 21
347.332562
 31
0.0
 11
196.351567
 21
347.404220
 31
0.0
 11
196.154967
 21
347.428106
 31
0.0
 11
195.910595
 21
347.399014
 31
0.0
 11
195.702971
 21
347.311738
 31
0.0
 11
195.532097
 21
347.166278
 31
0.0
 11
195.405008
 21
346.970597
 31
0.0
 11
195.328755
 21
346.732656
 31
0.0
 11
195.303337
 21
346.452455
 31
0.0
  0
LWPOLYLINE
  5
171
100
AcDbEntity
  8
0
 62
5
100
AcDbPolyline
 90
4
 70
0
 10
195.303337
 20
346.452455
 30
0.0
 10
195.303337
 20
344.707858
 30
0.0
 10
194.793467
 20
344.707858
 30
0.0
 10
194.793467
 20
346.554430
 30
0.0
  0
SPLINE
  5
172
100
AcDbEntity
  8
0
 62
5
100
AcDbSpline
 70
0
 71
3
 72
19
 73
15
 74
13
 40
0.000000
 40
0.000000
 40
0.000000
 40
0.000000
 40
0.272187
 40
0.497912
 40
0.686794
 40
0.858753
 40
1.035611
 40
1.236696
 40
1.479786
 40
1.703676
 40
1.928614
 40
2.161684
 40
2.410669
 40
2.690495
 40
2.690495
 40
2.690495
 40
2.690495
 10
194.793467
 20
346.554430
 30
0.0
 10
194.790784
 20
346.645264
 30
0.0
 10
194.785876
 20
346.811427
 30
0.0
 10
194.735686
 20
347.036585
 30
0.0
 10
194.648199
 20
347.214377
 30
0.0
 10
194.517381
 20
347.342692
 30
0.0
 10
194.345162
 20
347.415794
 30
0.0
 10
194.137223
 20
347.435673
 30
0.0
 10
193.913605
 20
347.411396
 30
0.0
 10
193.697381
 20
347.320691
 30
0.0
 10
193.523944
 20
347.168320
 30
0.0
 10
193.394841
 20
346.968010
 30
0.0
 10
193.317284
 20
346.722590
 30
0.0
 10
193.309373
 20
346.545934
 30
0.0
 10
193.305187
 20
346.452455
 30
0.0
 11
194.793467
 21
346.554430
 31
0.0
 11
194.776011
 21
346.826057
 31
0.0
 11
194.723645
 21
347.045624
 31
0.0
 11
194.636367
 21
347.213132
 31
0.0
 11
194.512648
 21
347.332562
 31
0.0
 11
194.350958
 21
347.404220
 31
0.0
 11
194.151297
 21
347.428106
 31
0.0
 11
193.909990
 21
347.398708
 31
0.0
 11
193.704203
 21
347.310513
 31
0.0
 11
193.533937
 21
347.163522
 31
0.0
 11
193.406853
 21
346.968147
 31
0.0
 11
193.330603
 21
346.731125
 31
0.0
 11
193.305187
 21
346.452455
 31
0.0
  0
LWPOLYLINE
  5
173
100
AcDbEntity
  8
0
 62
5
100
AcDbPolyline
 90
6
 70
0
 10
193.305187
 20
346.452455
 30
0.0
 10
193.305187
 20
344.707858
 30
0.0
 10
192.795307
 20
344.707858
 30
0.0
 10
192.795307
 20
347.794664
 30
0.0
 10
193.305187
 20
347.794664
 30
0.0
 10
193.305187
 20
347.315107
 30
0.0
  0
SPLINE
  5
174
100
AcDbEntity
  8
0
 62
5
100
AcDbSpline
 70
0
 71
3
 72
19
 73
15
 74
13
 40
0.000000
 40
0.000000
 40
0.000000
 40
0.000000
 40
0.212273
 40
0.409105
 40
0.596408
 40
0.783874
 40
0.981087
 40
1.193832
 40
1.407512
 40
1.606029
 40
1.798565
 40
1.993454
 40
2.195835
 40
2.414482
 40
2.414482
 40
2.414482
 40
2.414482
 10
193.305187
 20
347.315107
 30
0.0
 10
193.344415
 20
347.374160
 30
0.0
 10
193.420019
 20
347.487971
 30
0.0
 10
193.561228
 20
347.629817
 30
0.0
 10
193.718280
 20
347.739573
 30
0.0
 10
193.894450
 20
347.815728
 30
0.0
 10
194.089551
 20
347.860132
 30
0.0
 10
194.297636
 20
347.874243
 30
0.0
 10
194.506408
 20
347.858097
 30
0.0
 10
194.701484
 20
347.800910
 30
0.0
 10
194.872811
 20
347.703570
 30
0.0
 10
195.019093
 20
347.570083
 30
0.0
 10
195.138834
 20
347.400768
 30
0.0
 10
195.190873
 20
347.270011
 30
0.0
 10
195.217897
 20
347.202107
 30
0.0
 11
193.305187
 21
347.315107
 31
0.0
 11
193.428596
 21
347.487821
 31
0.0
 11
193.567316
 21
347.627462
 31
0.0
 11
193.721347
 21
347.734030
 31
0.0
 11
193.893145
 21
347.809057
 31
0.0
 11
194.085151
 21
347.854073
 31
0.0
 11
194.297367
 21
347.869078
 31
0.0
 11
194.510201
 21
347.850092
 31
0.0
 11
194.700371
 21
347.793133
 31
0.0
 11
194.867877
 21
347.698201
 31
0.0
 11
195.012110
 21
347.567134
 31
0.0
 11
195.128784
 21
347.401770
 31
0.0
 11
195.217897
 21
347.202107
 31
0.0
  0
LWPOLYLINE
  5
175
100
AcDbEntity
  8
0
 62
5
100
AcDbPolyline
 90
1
 70
1
 10
195.217897
 20
347.202107
 30
0.0
  0
SPLINE
  5
176
100
AcDbEntity
  8
0
 62
5
100
AcDbSpline
 70
0
 71
3
 72
19
 73
15
 74
13
 40
0.000000
 40
0.000000
 40
0.000000
 40
0.000000
 40
0.247938
 40
0.474305
 40
0.685794
 40
0.893295
 40
1.107881
 40
1.337043
 40
1.636464
 40
1.909036
 40
2.183062
 40
2.477510
 40
2.808914
 40
3.193417
 40
3.193417
 40
3.193417
 40
3.193417
 10
200.719027
 20
347.202107
 30
0.0
 10
200.761800
 20
347.272996
 30
0.0
 10
200.843625
 20
347.408607
 30
0.0
 10
200.997539
 20
347.579626
 30
0.0
 10
201.168737
 20
347.712013
 30
0.0
 10
201.360445
 20
347.804229
 30
0.0
 10
201.572057
 20
347.858222
 30
0.0
 10
201.819895
 20
347.876843
 30
0.0
 10
202.088621
 20
347.848500
 30
0.0
 10
202.351198
 20
347.731461
 30
0.0
 10
202.556538
 20
347.533128
 30
0.0
 10
202.702974
 20
347.267356
 30
0.0
 10
202.789333
 20
346.938332
 30
0.0
 10
202.797982
 20
346.699330
 30
0.0
 10
202.802627
 20
346.570966
 30
0.0
 11
200.719027
 21
347.202107
 31
0.0
 11
200.854075
 21
347.410038
 31
0.0
 11
201.005658
 21
347.578159
 31
0.0
 11
201.173777
 21
347.706469
 31
0.0
 11
201.360581
 21
347.796808
 31
0.0
 11
201.568208
 21
347.851011
 31
0.0
 11
201.796657
 21
347.869078
 31
0.0
 11
202.093699
 21
347.831412
 31
0.0
 11
202.341746
 21
347.718413
 31
0.0
 11
202.540797
 21
347.530081
 31
0.0
 11
202.686258
 21
347.274072
 31
0.0
 11
202.773535
 21
346.954367
 31
0.0
 11
202.802627
 21
346.570966
 31
0.0
  0
LWPOLYLINE
  5
177
100
AcDbEntity
  8
0
 62
5
100
AcDbPolyline
 90
4
 70
0
 10
202.802627
 20
346.570966
 30
0.0
 10
202.802627
 20
344.707858
 30
0.0
 10
202.292747
 20
344.707858
 30
0.0
 10
202.292747
 20
346.554430
 30
0.0
  0
SPLINE
  5
178
100
AcDbEntity
  8
0
 62
5
100
AcDbSpline
 70
0
 71
3
 72
19
 73
15
 74
13
 40
0.000000
 40
0.000000
 40
0.000000
 40
0.000000
 40
0.270964
 40
0.496690
 40
0.686659
 40
0.858174
 40
1.033351
 40
1.231396
 40
1.477495
 40
1.702719
 40
1.927126
 40
2.160453
 40
2.410312
 40
2.691664
 40
2.691664
 40
2.691664
 40
2.691664
 10
202.292747
 20
346.554430
 30
0.0
 10
202.290063
 20
346.644866
 30
0.0
 10
202.285143
 20
346.810639
 30
0.0
 10
202.234662
 20
347.035608
 30
0.0
 10
202.147855
 20
347.213989
 30
0.0
 10
202.017559
 20
347.342276
 30
0.0
 10
201.847410
 20
347.415753
 30
0.0
 10
201.639975
 20
347.435654
 30
0.0
 10
201.415977
 20
347.411658
 30
0.0
 10
201.197949
 20
347.322313
 30
0.0
 10
201.022693
 20
347.171226
 30
0.0
 10
200.894083
 20
346.970177
 30
0.0
 10
200.816504
 20
346.723922
 30
0.0
 10
200.808635
 20
346.546451
 30
0.0
 10
200.804467
 20
346.452455
 30
0.0
 11
202.292747
 21
346.554430
 31
0.0
 11
202.275291
 21
346.824832
 31
0.0
 11
202.222925
 21
347.044399
 31
0.0
 11
202.135647
 21
347.213132
 31
0.0
 11
202.012546
 21
347.332562
 31
0.0
 11
201.852696
 21
347.404220
 31
0.0
 11
201.656097
 21
347.428106
 31
0.0
 11
201.411724
 21
347.399014
 31
0.0
 11
201.204097
 21
347.311738
 31
0.0
 11
201.033217
 21
347.166278
 31
0.0
 11
200.906134
 21
346.970597
 31
0.0
 11
200.829884
 21
346.732656
 31
0.0
 11
200.804467
 21
346.452455
 31
0.0
  0
LWPOLYLINE
  5
179
100
AcDbEntity
  8
0
 62
5
100
AcDbPolyline
 90
4
 70
0
 10
200.804467
 20
346.452455
 30
0.0
 10
200.804467
 20
344.707858
 30
0.0
 10
200.294597
 20
344.707858
 30
0.0
 10
200.294597
 20
346.554430
 30
0.0
  0
SPLINE
  5
17a
100
AcDbEntity
  8
0
 62
5
100
AcDbSpline
 70
0
 71
3
 72
19
 73
15
 74
13
 40
0.000000
 40
0.000000
 40
0.000000
 40
0.000000
 40
0.272187
 40
0.497912
 40
0.686794
 40
0.858753
 40
1.035611
 40
1.236696
 40
1.479791
 40
1.703680
 40
1.928615
 40
2.161688
 40
2.410674
 40
2.690501
 40
2.690501
 40
2.690501
 40
2.690501
 10
200.294597
 20
346.554430
 30
0.0
 10
200.291914
 20
346.645264
 30
0.0
 10
200.287006
 20
346.811427
 30
0.0
 10
200.236816
 20
347.036585
 30
0.0
 10
200.149329
 20
347.214377
 30
0.0
 10
200.018511
 20
347.342692
 30
0.0
 10
199.846292
 20
347.415794
 30
0.0
 10
199.638351
 20
347.435673
 30
0.0
 10
199.414732
 20
347.411397
 30
0.0
 10
199.198507
 20
347.320692
 30
0.0
 10
199.025074
 20
347.168316
 30
0.0
 10
198.895965
 20
346.968012
 30
0.0
 10
198.818405
 20
346.722590
 30
0.0
 10
198.810493
 20
346.545934
 30
0.0
 10
198.806307
 20
346.452455
 30
0.0
 11
200.294597
 21
346.554430
 31
0.0
 11
200.277141
 21
346.826057
 31
0.0
 11
200.224775
 21
347.045624
 31
0.0
 11
200.137497
 21
347.213132
 31
0.0
 11
200.013778
 21
347.332562
 31
0.0
 11
199.852088
 21
347.404220
 31
0.0
 11
199.652427
 21
347.428106
 31
0.0
 11
199.411116
 21
347.398708
 31
0.0
 11
199.205329
 21
347.310513
 31
0.0
 11
199.035067
 21
347.163522
 31
0.0
 11
198.907978
 21
346.968147
 31
0.0
 11
198.831725
 21
346.731125
 31
0.0
 11
198.806307
 21
346.452455
 31
0.0
  0
LWPOLYLINE
  5
17b
100
AcDbEntity
  8
0
 62
5
100
AcDbPolyline
 90
6
 70
0
 10
198.806307
 20
346.452455
 30
0.0
 10
198.806307
 20
344.707858
 30
0.0
 10
198.296437
 20
344.707858
 30
0.0
 10
198.296437
 20
347.794664
 30
0.0
 10
198.806307
 20
347.794664
 30
0.0
 10
198.806307
 20
347.315107
 30
0.0
  0
SPLINE
  5
17c
100
AcDbEntity
  8
0
 62
5
100
AcDbSpline
 70
0
 71
3
 72
19
 73
15
 74
13
 40
0.000000
 40
0.000000
 40
0.000000
 40
0.000000
 40
0.212276
 40
0.409110
 40
0.596414
 40
0.783880
 40
0.981093
 40
1.193839
 40
1.407514
 40
1.606031
 40
1.798571
 40
1.993460
 40
2.195841
 40
2.414488
 40
2.414488
 40
2.414488
 40
2.414488
 10
198.806307
 20
347.315107
 30
0.0
 10
198.845537
 20
347.374160
 30
0.0
 10
198.921145
 20
347.487970
 30
0.0
 10
199.062357
 20
347.629816
 30
0.0
 10
199.219410
 20
347.739572
 30
0.0
 10
199.395580
 20
347.815728
 30
0.0
 10
199.590681
 20
347.860132
 30
0.0
 10
199.798764
 20
347.874244
 30
0.0
 10
200.007535
 20
347.858096
 30
0.0
 10
200.202611
 20
347.800909
 30
0.0
 10
200.373941
 20
347.703572
 30
0.0
 10
200.520224
 20
347.570083
 30
0.0
 10
200.639965
 20
347.400768
 30
0.0
 10
200.692003
 20
347.270011
 30
0.0
 10
200.719027
 20
347.202107
 30
0.0
 11
198.806307
 21
347.315107
 31
0.0
 11
198.929721
 21
347.487821
 31
0.0
 11
199.068445
 21
347.627462
 31
0.0
 11
199.222477
 21
347.734030
 31
0.0
 11
199.394275
 21
347.809057
 31
0.0
 11
199.586281
 21
347.854073
 31
0.0
 11
199.798497
 21
347.869078
 31
0.0
 11
200.011327
 21
347.850092
 31
0.0
 11
200.201497
 21
347.793133
 31
0.0
 11
200.369007
 21
347.698201
 31
0.0
 11
200.513240
 21
347.567134
 31
0.0
 11
200.629914
 21
347.401770
 31
0.0
 11
200.719027
 21
347.202107
 31
0.0
  0
LWPOLYLINE
  5
17d
100
AcDbEntity
  8
0
 62
5
100
AcDbPolyline
 90
1
 70
1
 10
200.719027
 20
347.202107
 30
0.0
  0
SPLINE
  5
17e
100
AcDbEntity
  8
0
 62
1
100
AcDbSpline
 70
0
 71
3
 72
25
 73
21
 74
19
 40
0.000000
 40
0.000000
 40
0.000000
 40
0.000000
 40
1.039764
 40
2.064647
 40
3.104411
 40
4.144176
 40
5.169059
 40
6.208823
 40
7.248587
 40
8.273470
 40
9.313234
 40
10.352998
 40
11.377882
 40
12.417646
 40
13.457410
 40
14.482293
 40
15.522057
 40
16.561822
 40
17.586705
 40
18.626469
 40
18.626469
 40
18.626469
 40
18.626469
 10
-19.290477
 20
317.463614
 30
0.0
 10
-19.326077
 20
317.115258
 30
0.0
 10
-19.396767
 20
316.423532
 30
0.0
 10
-19.945207
 20
315.509406
 30
0.0
 10
-20.748217
 20
314.829777
 30
0.0
 10
-21.742592
 20
314.469324
 30
0.0
 10
-22.797737
 20
314.469324
 30
0.0
 10
-23.790720
 20
314.829777
 30
0.0
 10
-24.599290
 20
315.509406
 30
0.0
 10
-25.127069
 20
316.423532
 30
0.0
 10
-25.311343
 20
317.463614
 30
0.0
 10
-25.127069
 20
318.503695
 30
0.0
 10
-24.599290
 20
319.417821
 30
0.0
 10
-23.790720
 20
320.097450
 30
0.0
 10
-22.797737
 20
320.457903
 30
0.0
 10
-21.742592
 20
320.457903
 30
0.0
 10
-20.748217
 20
320.097450
 30
0.0
 10
-19.945207
 20
319.417821
 30
0.0
 10
-19.396767
 20
318.503695
 30
0.0
 10
-19.326077
 20
317.811969
 30
0.0
 10
-19.290477
 20
317.463614
 30
0.0
 11
-19.290477
 21
317.463614
 31
0.0
 11
-19.471855
 21
316.439792
 31
0.0
 11
-19.984297
 21
315.552217
 31
0.0
 11
-20.780264
 21
314.883228
 31
0.0
 11
-21.757609
 21
314.528395
 31
0.0
 11
-22.782492
 21
314.528395
 31
0.0
 11
-23.759837
 21
314.883228
 31
0.0
 11
-24.555804
 21
315.552217
 31
0.0
 11
-25.068245
 21
316.439792
 31
0.0
 11
-25.249623
 21
317.463614
 31
0.0
 11
-25.068245
 21
318.487435
 31
0.0
 11
-24.555804
 21
319.375010
 31
0.0
 11
-23.759837
 21
320.043999
 31
0.0
 11
-22.782492
 21
320.398832
 31
0.0
 11
-21.757609
 21
320.398832
 31
0.0
 11
-20.780264
 21
320.043999
 31
0.0
 11
-19.984297
 21
319.375010
 31
0.0
 11
-19.471855
 21
318.487435
 31
0.0
 11
-19.290477
 21
317.463614
 31
0.0
  0
LWPOLYLINE
  5
17f
100
AcDbEntity
  8
0
 62
1
100
AcDbPolyline
 90
1
 70
1
 10
-19.290477
 20
317.463614
 30
0.0
  0
LWPOLYLINE
  5
180
100
AcDbEntity
  8
0
 62
1
100
AcDbPolyline
 90
1
 70
1
 10
140.709519
 20
317.463347
 30
0.0
  0
LWPOLYLINE
  5
181
100
AcDbEntity
  8
0
 62
5
100
AcDbPolyline
 90
2
 70
0
 10
-22.252203
 20
341.011437
 30
0.0
 10
17.516278
 20
341.011437
 30
0.0
  0
LWPOLYLINE
  5
182
100
AcDbEntity
  8
0
 62
5
100
AcDbPolyline
 90
2
 70
0
 10
137.447486
 20
341.198417
 30
0.0
 10
177.215936
 20
341.198417
 30
0.0
  0
LWPOLYLINE
  5
183
100
AcDbEntity
  8
0
 62
5
100
AcDbPolyline
 90
2
 70
0
 10
98.288904
 20
341.198427
 30
0.0
 10
138.057345
 20
341.198427
 30
0.0
  0
LWPOLYLINE
  5
184
100
AcDbEntity
  8
0
 62
5
100
AcDbPolyline
 90
2
 70
0
 10
137.650927
 20
354.581297
 30
0.0
 10
137.650927
 20
332.936137
 30
0.0
  0
SPLINE
  5
185
100
AcDbEntity
  8
0
 62
1
100
AcDbSpline
 70
0
 71
3
 72
22
 73
18
 74
16
 40
0.000000
 40
0.000000
 40
0.000000
 40
0.000000
 40
1.039764
 40
2.064647
 40
3.104411
 40
4.144176
 40
5.169059
 40
6.208823
 40
7.248587
 40
8.273470
 40
9.313234
 40
10.871131
 40
12.382821
 40
13.940718
 40
15.498615
 40
17.010305
 40
18.568202
 40
18.568202
 40
18.568202
 40
18.568202
 10
140.709519
 20
317.463347
 30
0.0
 10
140.673919
 20
317.114991
 30
0.0
 10
140.603229
 20
316.423265
 30
0.0
 10
140.054789
 20
315.509139
 30
0.0
 10
139.251779
 20
314.829509
 30
0.0
 10
138.257405
 20
314.469059
 30
0.0
 10
137.202254
 20
314.469049
 30
0.0
 10
136.209295
 20
314.829539
 30
0.0
 10
135.400636
 20
315.509030
 30
0.0
 10
134.873186
 20
316.423668
 30
0.0
 10
134.656709
 20
317.635085
 30
0.0
 10
135.030239
 20
319.024406
 30
0.0
 10
136.169169
 20
320.162636
 30
0.0
 10
137.732652
 20
320.585113
 30
0.0
 10
139.280057
 20
320.162862
 30
0.0
 10
140.466266
 20
319.023521
 30
0.0
 10
140.627625
 20
317.988598
 30
0.0
 10
140.709519
 20
317.463347
 30
0.0
 11
140.709519
 21
317.463347
 31
0.0
 11
140.528141
 21
316.439525
 31
0.0
 11
140.015699
 21
315.551950
 31
0.0
 11
139.219732
 21
314.882961
 31
0.0
 11
138.242387
 21
314.528128
 31
0.0
 11
137.217504
 21
314.528128
 31
0.0
 11
136.240159
 21
314.882961
 31
0.0
 11
135.444192
 21
315.551950
 31
0.0
 11
134.931750
 21
316.439525
 31
0.0
 11
134.750372
 21
317.463347
 31
0.0
 11
135.157172
 21
318.967194
 31
0.0
 11
136.226098
 21
320.036120
 31
0.0
 11
137.729945
 21
320.442919
 31
0.0
 11
139.233793
 21
320.036120
 31
0.0
 11
140.302719
 21
318.967194
 31
0.0
 11
140.709519
 21
317.463347
 31
0.0
  0
SPLINE
  5
186
100
AcDbEntity
  8
0
 62
1
100
AcDbSpline
 70
0
 71
3
 72
16
 73
12
 74
10
 40
0.000000
 40
0.000000
 40
0.000000
 40
0.000000
 40
2.623338
 40
5.209132
 40
7.832469
 40
10.455807
 40
13.041601
 40
15.664939
 40
18.288276
 40
20.874070
 40
23.497408
 40
23.497408
 40
23.497408
 40
23.497408
 10
131.093015
 20
490.850932
 30
0.0
 10
131.182816
 20
491.729840
 30
0.0
 10
131.361132
 20
493.475076
 30
0.0
 10
132.744827
 20
495.781455
 30
0.0
 10
134.770724
 20
497.496207
 30
0.0
 10
137.279800
 20
498.405682
 30
0.0
 10
139.940940
 20
498.405733
 30
0.0
 10
142.450051
 20
497.496355
 30
0.0
 10
144.476013
 20
495.781681
 30
0.0
 10
145.859798
 20
493.475356
 30
0.0
 10
146.038181
 20
491.730126
 30
0.0
 10
146.128015
 20
490.851222
 30
0.0
 11
131.093015
 21
490.850932
 31
0.0
 11
131.550584
 21
493.434056
 31
0.0
 11
132.843438
 21
495.673444
 31
0.0
 11
134.851640
 21
497.361351
 31
0.0
 11
137.317476
 21
498.256646
 31
0.0
 11
139.903269
 21
498.256696
 31
0.0
 11
142.369140
 21
497.361496
 31
0.0
 11
144.377407
 21
495.673667
 31
0.0
 11
145.670347
 21
493.434329
 31
0.0
 11
146.128015
 21
490.851222
 31
0.0
  0
SPLINE
  5
187
100
AcDbEntity
  8
0
 62
1
100
AcDbSpline
 70
0
 71
3
 72
10
 73
6
 74
4
 40
0.000000
 40
0.000000
 40
0.000000
 40
0.000000
 40
29.070904
 40
50.497678
 40
68.911881
 40
68.911881
 40
68.911881
 40
68.911881
 10
131.093015
 20
481.850932
 30
0.0
 10
130.800498
 20
472.105089
 30
0.0
 10
130.292380
 20
455.176051
 30
0.0
 10
120.353706
 20
433.452518
 30
0.0
 10
109.938308
 20
425.012167
 30
0.0
 10
105.124389
 20
421.111100
 30
0.0
 11
131.093015
 21
481.850932
 31
0.0
 11
127.970180
 21
452.948244
 31
0.0
 11
118.568657
 21
433.694205
 31
0.0
 11
105.124389
 21
421.111100
 31
0.0
  0
LWPOLYLINE
  5
188
100
AcDbEntity
  8
0
 62
1
100
AcDbPolyline
 90
2
 70
0
 10
131.093015
 20
490.850932
 30
0.0
 10
131.093015
 20
481.850932
 30
0.0
  0
SPLINE
  5
189
100
AcDbEntity
  8
0
 62
1
100
AcDbSpline
 70
0
 71
3
 72
10
 73
6
 74
4
 40
0.000000
 40
0.000000
 40
0.000000
 40
0.000000
 40
17.540241
 40
34.426556
 40
50.204780
 40
50.204780
 40
50.204780
 40
50.204780
 10
105.124389
 20
421.111100
 30
0.0
 10
100.025377
 20
418.219912
 30
0.0
 10
90.017451
 20
412.545324
 30
0.0
 10
73.723911
 20
407.942557
 30
0.0
 10
62.846985
 20
407.206480
 30
0.0
 10
57.593013
 20
406.850927
 30
0.0
 11
105.124389
 21
421.111100
 31
0.0
 11
89.524953
 21
413.091273
 31
0.0
 11
73.290549
 21
408.444578
 31
0.0
 11
57.593013
 21
406.850927
 31
0.0
  0
LWPOLYLINE
  5
18a
100
AcDbEntity
  8
0
 62
1
100
AcDbPolyline
 90
2
 70
0
 10
146.128015
 20
475.372975
 30
0.0
 10
146.128015
 20
490.850932
 30
0.0
  0
SPLINE
  5
18b
100
AcDbEntity
  8
0
 62
1
100
AcDbSpline
 70
0
 71
3
 72
13
 73
9
 74
7
 40
0.000000
 40
0.000000
 40
0.000000
 40
0.000000
 40
2.124900
 40
4.186775
 40
6.311675
 40
8.436574
 40
10.498450
 40
12.623350
 40
12.623350
 40
12.623350
 40
12.623350
 10
146.128015
 20
475.372975
 30
0.0
 10
146.016230
 20
474.656559
 30
0.0
 10
145.795976
 20
473.244977
 30
0.0
 10
144.179226
 20
471.690948
 30
0.0
 10
142.063991
 20
471.115142
 30
0.0
 10
139.948762
 20
471.690972
 30
0.0
 10
138.332031
 20
473.245020
 30
0.0
 10
138.111792
 20
474.656605
 30
0.0
 10
138.000015
 20
475.373022
 30
0.0
 11
146.128015
 21
475.372975
 31
0.0
 11
145.573148
 21
473.321799
 31
0.0
 11
144.115174
 21
471.863841
 31
0.0
 11
142.063992
 21
471.308998
 31
0.0
 11
140.012816
 21
471.863865
 31
0.0
 11
138.554859
 21
473.321840
 31
0.0
 11
138.000015
 21
475.373022
 31
0.0
  0
SPLINE
  5
18c
100
AcDbEntity
  8
0
 62
1
100
AcDbSpline
 70
0
 71
3
 72
16
 73
12
 74
10
 40
0.000000
 40
0.000000
 40
0.000000
 40
0.000000
 40
1.419619
 40
2.803821
 40
4.223441
 40
5.643060
 40
7.027262
 40
8.446881
 40
9.866501
 40
11.250703
 40
12.670322
 40
12.670322
 40
12.670322
 40
12.670322
 10
136.833558
 20
453.641296
 30
0.0
 10
137.290330
 20
453.796211
 30
0.0
 10
138.192478
 20
454.102175
 30
0.0
 10
139.625855
 20
453.714997
 30
0.0
 10
140.724635
 20
452.764558
 30
0.0
 10
141.264752
 20
451.402305
 30
0.0
 10
141.127405
 20
449.950693
 30
0.0
 10
140.341378
 20
448.713915
 30
0.0
 10
139.083838
 20
447.986422
 30
0.0
 10
137.603280
 20
447.874951
 30
0.0
 10
136.774526
 20
448.344686
 30
0.0
 10
136.354915
 20
448.582521
 30
0.0
 11
136.833558
 21
453.641296
 31
0.0
 11
138.216545
 21
453.961711
 31
0.0
 11
139.559697
 21
453.627107
 31
0.0
 11
140.630743
 21
452.695347
 31
0.0
 11
141.153985
 21
451.375674
 31
0.0
 11
141.023599
 21
449.997626
 31
0.0
 11
140.262133
 21
448.799508
 31
0.0
 11
139.035338
 21
448.085161
 31
0.0
 11
137.653265
 21
448.008408
 31
0.0
 11
136.354915
 21
448.582521
 31
0.0
  0
SPLINE
  5
18d
100
AcDbEntity
  8
0
 62
1
100
AcDbSpline
 70
0
 71
3
 72
10
 73
6
 74
4
 40
0.000000
 40
0.000000
 40
0.000000
 40
0.000000
 40
10.619769
 40
22.152894
 40
34.721221
 40
34.721221
 40
34.721221
 40
34.721221
 10
126.951488
 20
415.285528
 30
0.0
 10
128.362579
 20
418.535669
 30
0.0
 10
131.306122
 20
425.315480
 30
0.0
 10
134.373161
 20
436.518642
 30
0.0
 10
135.675662
 20
444.447737
 30
0.0
 10
136.354884
 20
448.582569
 30
0.0
 11
126.951488
 21
415.285528
 31
0.0
 11
130.958006
 21
425.120532
 31
0.0
 11
134.092471
 21
436.219546
 31
0.0
 11
136.354884
 21
448.582569
 31
0.0
  0
SPLINE
  5
18e
100
AcDbEntity
  8
0
 62
1
100
AcDbSpline
 70
0
 71
3
 72
10
 73
6
 74
4
 40
0.000000
 40
0.000000
 40
0.000000
 40
0.000000
 40
11.544006
 40
23.170661
 40
35.433528
 40
35.433528
 40
35.433528
 40
35.433528
 10
98.973168
 20
387.032488
 30
0.0
 10
102.399783
 20
388.810733
 30
0.0
 10
109.277545
 20
392.379955
 30
0.0
 10
118.026804
 20
400.581271
 30
0.0
 10
122.344587
 20
407.291795
 30
0.0
 10
124.560973
 20
410.736413
 30
0.0
 11
98.973168
 21
387.032488
 31
0.0
 11
108.965957
 21
392.812474
 31
0.0
 11
117.495226
 21
400.713783
 31
0.0
 11
124.560973
 21
410.736413
 31
0.0
  0
SPLINE
  5
18f
100
AcDbEntity
  8
0
 62
1
100
AcDbSpline
 70
0
 71
3
 72
16
 73
12
 74
10
 40
0.000000
 40
0.000000
 40
0.000000
 40
0.000000
 40
1.407466
 40
2.780347
 40
4.187813
 40
5.595280
 40
6.968161
 40
8.375627
 40
9.783093
 40
11.155974
 40
12.563440
 40
12.563440
 40
12.563440
 40
12.563440
 10
126.951488
 20
415.285528
 30
0.0
 10
127.428014
 20
415.247523
 30
0.0
 10
128.369356
 20
415.172448
 30
0.0
 10
129.526462
 20
414.264244
 30
0.0
 10
130.165665
 20
412.974200
 30
0.0
 10
130.142336
 20
411.522307
 30
0.0
 10
129.470200
 20
410.243222
 30
0.0
 10
128.287721
 20
409.400442
 30
0.0
 10
126.862719
 20
409.195100
 30
0.0
 10
125.458410
 20
409.632872
 30
0.0
 10
124.862617
 20
410.365533
 30
0.0
 10
124.561015
 20
410.736420
 30
0.0
 11
126.951488
 21
415.285528
 31
0.0
 11
128.336701
 21
415.036237
 31
0.0
 11
129.433070
 21
414.209934
 31
0.0
 11
130.054331
 21
412.947002
 31
0.0
 11
130.031760
 21
411.539717
 31
0.0
 11
129.393139
 21
410.324412
 31
0.0
 11
128.246966
 21
409.507559
 31
0.0
 11
126.854471
 21
409.302819
 31
0.0
 11
125.552064
 21
409.737029
 31
0.0
 11
124.561015
 21
410.736420
 31
0.0
  0
SPLINE
  5
190
100
AcDbEntity
  8
0
 62
1
100
AcDbSpline
 70
0
 71
3
 72
19
 73
15
 74
13
 40
0.000000
 40
0.000000
 40
0.000000
 40
0.000000
 40
1.350994
 40
2.671118
 40
4.022112
 40
5.373105
 40
6.693230
 40
8.044224
 40
9.395217
 40
10.715342
 40
12.066335
 40
12.204890
 40
12.343404
 40
12.481956
 40
12.481956
 40
12.481956
 40
12.481956
 10
98.973168
 20
387.032488
 30
0.0
 10
99.296107
 20
386.707481
 30
0.0
 10
99.934606
 20
386.064894
 30
0.0
 10
100.240679
 20
384.691326
 30
0.0
 10
99.956544
 20
383.341746
 30
0.0
 10
99.099253
 20
382.247271
 30
0.0
 10
97.856787
 20
381.636252
 30
0.0
 10
96.469009
 20
381.624489
 30
0.0
 10
95.216956
 20
382.223366
 30
0.0
 10
94.350142
 20
383.301915
 30
0.0
 10
94.132227
 20
384.251728
 30
0.0
 10
94.144966
 20
384.794118
 30
0.0
 10
94.154212
 20
384.932444
 30
0.0
 10
94.165746
 20
385.024090
 30
0.0
 10
94.171514
 20
385.069919
 30
0.0
 11
98.973168
 21
387.032488
 31
0.0
 11
99.830647
 21
385.988498
 31
0.0
 11
100.142591
 21
384.705759
 31
0.0
 11
99.860285
 21
383.384590
 31
0.0
 11
99.027237
 21
382.321004
 31
0.0
 11
97.842751
 21
381.738148
 31
0.0
 11
96.491803
 21
381.727043
 31
0.0
 11
95.272794
 21
382.309452
 31
0.0
 11
94.446800
 21
383.339240
 31
0.0
 11
94.142814
 21
384.655589
 31
0.0
 11
94.145965
 21
384.794108
 31
0.0
 11
94.155553
 21
384.932290
 31
0.0
 11
94.171514
 21
385.069919
 31
0.0
  0
SPLINE
  5
191
100
AcDbEntity
  8
0
 62
1
100
AcDbSpline
 70
0
 71
3
 72
10
 73
6
 74
4
 40
0.000000
 40
0.000000
 40
0.000000
 40
0.000000
 40
14.136727
 40
26.445610
 40
37.103008
 40
37.103008
 40
37.103008
 40
37.103008
 10
57.593013
 20
380.011219
 30
0.0
 10
62.304317
 20
380.080741
 30
0.0
 10
71.117764
 20
380.210795
 30
0.0
 10
83.456969
 20
381.720313
 30
0.0
 10
90.775421
 20
384.008224
 30
0.0
 10
94.171515
 20
385.069919
 30
0.0
 11
57.593013
 21
380.011219
 31
0.0
 11
71.721628
 21
380.490070
 31
0.0
 11
83.914462
 21
382.176303
 31
0.0
 11
94.171515
 21
385.069919
 31
0.0
  0
SPLINE
  5
192
100
AcDbEntity
  8
0
 62
1
100
AcDbSpline
 70
0
 71
3
 72
10
 73
6
 74
4
 40
0.000000
 40
0.000000
 40
0.000000
 40
0.000000
 40
29.070904
 40
50.497678
 40
68.911881
 40
68.911881
 40
68.911881
 40
68.911881
 10
-15.906988
 20
481.850932
 30
0.0
 10
-15.614471
 20
472.105089
 30
0.0
 10
-15.106353
 20
455.176051
 30
0.0
 10
-5.167679
 20
433.452518
 30
0.0
 10
5.247718
 20
425.012167
 30
0.0
 10
10.061637
 20
421.111100
 30
0.0
 11
-15.906988
 21
481.850932
 31
0.0
 11
-12.784153
 21
452.948244
 31
0.0
 11
-3.382630
 21
433.694205
 31
0.0
 11
10.061637
 21
421.111100
 31
0.0
  0
LWPOLYLINE
  5
193
100
AcDbEntity
  8
0
 62
1
100
AcDbPolyline
 90
2
 70
0
 10
136.833558
 20
453.641296
 30
0.0
 10
138.000015
 20
475.372975
 30
0.0
  0
SPLINE
  5
194
100
AcDbEntity
  8
0
 62
1
100
AcDbSpline
 70
0
 71
3
 72
10
 73
6
 74
4
 40
0.000000
 40
0.000000
 40
0.000000
 40
0.000000
 40
17.540241
 40
34.426556
 40
50.204780
 40
50.204780
 40
50.204780
 40
50.204780
 10
10.061637
 20
421.111100
 30
0.0
 10
15.160650
 20
418.219912
 30
0.0
 10
25.168575
 20
412.545324
 30
0.0
 10
41.462115
 20
407.942557
 30
0.0
 10
52.339041
 20
407.206480
 30
0.0
 10
57.593013
 20
406.850927
 30
0.0
 11
10.061637
 21
421.111100
 31
0.0
 11
25.661074
 21
413.091273
 31
0.0
 11
41.895477
 21
408.444578
 31
0.0
 11
57.593013
 21
406.850927
 31
0.0
  0
LWPOLYLINE
  5
195
100
AcDbEntity
  8
0
 62
1
100
AcDbPolyline
 90
2
 70
0
 10
-15.906988
 20
490.850932
 30
0.0
 10
-15.906988
 20
481.850932
 30
0.0
  0
SPLINE
  5
196
100
AcDbEntity
  8
0
 62
1
100
AcDbSpline
 70
0
 71
3
 72
16
 73
12
 74
10
 40
0.000000
 40
0.000000
 40
0.000000
 40
0.000000
 40
2.623338
 40
5.209132
 40
7.832469
 40
10.455807
 40
13.041601
 40
15.664939
 40
18.288276
 40
20.874070
 40
23.497408
 40
23.497408
 40
23.497408
 40
23.497408
 10
-15.906988
 20
490.850932
 30
0.0
 10
-15.996789
 20
491.729840
 30
0.0
 10
-16.175105
 20
493.475076
 30
0.0
 10
-17.558801
 20
495.781455
 30
0.0
 10
-19.584697
 20
497.496207
 30
0.0
 10
-22.093773
 20
498.405682
 30
0.0
 10
-24.754913
 20
498.405733
 30
0.0
 10
-27.264024
 20
497.496355
 30
0.0
 10
-29.289986
 20
495.781681
 30
0.0
 10
-30.673771
 20
493.475356
 30
0.0
 10
-30.852154
 20
491.730126
 30
0.0
 10
-30.941989
 20
490.851222
 30
0.0
 11
-15.906988
 21
490.850932
 31
0.0
 11
-16.364558
 21
493.434056
 31
0.0
 11
-17.657411
 21
495.673444
 31
0.0
 11
-19.665613
 21
497.361351
 31
0.0
 11
-22.131449
 21
498.256646
 31
0.0
 11
-24.717243
 21
498.256696
 31
0.0
 11
-27.183113
 21
497.361496
 31
0.0
 11
-29.191380
 21
495.673667
 31
0.0
 11
-30.484320
 21
493.434329
 31
0.0
 11
-30.941989
 21
490.851222
 31
0.0
  0
SPLINE
  5
197
100
AcDbEntity
  8
0
 62
1
100
AcDbSpline
 70
0
 71
3
 72
16
 73
12
 74
10
 40
0.000000
 40
0.000000
 40
0.000000
 40
0.000000
 40
1.418190
 40
2.816084
 40
4.234274
 40
5.652464
 40
7.050358
 40
8.468548
 40
9.886738
 40
11.284632
 40
12.702822
 40
12.702822
 40
12.702822
 40
12.702822
 10
-30.941989
 20
475.372975
 30
0.0
 10
-30.893430
 20
474.897834
 30
0.0
 10
-30.797008
 20
473.954352
 30
0.0
 10
-30.048944
 20
472.707530
 30
0.0
 10
-28.953710
 20
471.780554
 30
0.0
 10
-27.597278
 20
471.288921
 30
0.0
 10
-26.158652
 20
471.288930
 30
0.0
 10
-24.802226
 20
471.780578
 30
0.0
 10
-23.707003
 20
472.707567
 30
0.0
 10
-22.958953
 20
473.954398
 30
0.0
 10
-22.862542
 20
474.897880
 30
0.0
 10
-22.813989
 20
475.373022
 30
0.0
 11
-30.941989
 21
475.372975
 31
0.0
 11
-30.694589
 21
473.976530
 31
0.0
 11
-29.995636
 21
472.765923
 31
0.0
 11
-28.909968
 21
471.853459
 31
0.0
 11
-27.576912
 21
471.369491
 31
0.0
 11
-26.179019
 21
471.369499
 31
0.0
 11
-24.845968
 21
471.853483
 31
0.0
 11
-23.760312
 21
472.765959
 31
0.0
 11
-23.061372
 21
473.976574
 31
0.0
 11
-22.813989
 21
475.373022
 31
0.0
  0
LWPOLYLINE
  5
198
100
AcDbEntity
  8
0
 62
1
100
AcDbPolyline
 90
2
 70
0
 10
-30.941989
 20
475.372975
 30
0.0
 10
-30.941989
 20
490.850932
 30
0.0
  0
SPLINE
  5
199
100
AcDbEntity
  8
0
 62
1
100
AcDbSpline
 70
0
 71
3
 72
10
 73
6
 74
4
 40
0.000000
 40
0.000000
 40
0.000000
 40
0.000000
 40
14.136727
 40
26.445610
 40
37.103008
 40
37.103008
 40
37.103008
 40
37.103008
 10
57.593013
 20
380.011219
 30
0.0
 10
52.881710
 20
380.080741
 30
0.0
 10
44.068263
 20
380.210795
 30
0.0
 10
31.729058
 20
381.720313
 30
0.0
 10
24.410606
 20
384.008224
 30
0.0
 10
21.014511
 20
385.069919
 30
0.0
 11
57.593013
 21
380.011219
 31
0.0
 11
43.464398
 21
380.490070
 31
0.0
 11
31.271564
 21
382.176303
 31
0.0
 11
21.014511
 21
385.069919
 31
0.0
  0
SPLINE
  5
19a
100
AcDbEntity
  8
0
 62
1
100
AcDbSpline
 70
0
 71
3
 72
19
 73
15
 74
13
 40
0.000000
 40
0.000000
 40
0.000000
 40
0.000000
 40
1.350994
 40
2.671118
 40
4.022112
 40
5.373105
 40
6.693230
 40
8.044224
 40
9.395217
 40
10.715342
 40
12.066335
 40
12.204890
 40
12.343404
 40
12.481956
 40
12.481956
 40
12.481956
 40
12.481956
 10
16.212858
 20
387.032488
 30
0.0
 10
15.889919
 20
386.707481
 30
0.0
 10
15.251421
 20
386.064894
 30
0.0
 10
14.945348
 20
384.691326
 30
0.0
 10
15.229482
 20
383.341746
 30
0.0
 10
16.086774
 20
382.247271
 30
0.0
 10
17.329240
 20
381.636252
 30
0.0
 10
18.717018
 20
381.624489
 30
0.0
 10
19.969071
 20
382.223366
 30
0.0
 10
20.835885
 20
383.301915
 30
0.0
 10
21.053800
 20
384.251728
 30
0.0
 10
21.041061
 20
384.794118
 30
0.0
 10
21.031815
 20
384.932444
 30
0.0
 10
21.020281
 20
385.024090
 30
0.0
 10
21.014512
 20
385.069919
 30
0.0
 11
16.212858
 21
387.032488
 31
0.0
 11
15.355380
 21
385.988498
 31
0.0
 11
15.043436
 21
384.705759
 31
0.0
 11
15.325742
 21
383.384590
 31
0.0
 11
16.158789
 21
382.321004
 31
0.0
 11
17.343276
 21
381.738148
 31
0.0
 11
18.694224
 21
381.727043
 31
0.0
 11
19.913233
 21
382.309452
 31
0.0
 11
20.739227
 21
383.339240
 31
0.0
 11
21.043212
 21
384.655589
 31
0.0
 11
21.040061
 21
384.794108
 31
0.0
 11
21.030474
 21
384.932290
 31
0.0
 11
21.014512
 21
385.069919
 31
0.0
  0
SPLINE
  5
19b
100
AcDbEntity
  8
0
 62
1
100
AcDbSpline
 70
0
 71
3
 72
16
 73
12
 74
10
 40
0.000000
 40
0.000000
 40
0.000000
 40
0.000000
 40
1.419619
 40
2.803821
 40
4.223441
 40
5.643060
 40
7.027262
 40
8.446881
 40
9.866501
 40
11.250703
 40
12.670322
 40
12.670322
 40
12.670322
 40
12.670322
 10
-21.647532
 20
453.641296
 30
0.0
 10
-22.104303
 20
453.796211
 30
0.0
 10
-23.006451
 20
454.102175
 30
0.0
 10
-24.439828
 20
453.714997
 30
0.0
 10
-25.538608
 20
452.764558
 30
0.0
 10
-26.078725
 20
451.402305
 30
0.0
 10
-25.941379
 20
449.950693
 30
0.0
 10
-25.155351
 20
448.713915
 30
0.0
 10
-23.897811
 20
447.986422
 30
0.0
 10
-22.417254
 20
447.874951
 30
0.0
 10
-21.588500
 20
448.344686
 30
0.0
 10
-21.168889
 20
448.582521
 30
0.0
 11
-21.647532
 21
453.641296
 31
0.0
 11
-23.030519
 21
453.961711
 31
0.0
 11
-24.373670
 21
453.627107
 31
0.0
 11
-25.444717
 21
452.695347
 31
0.0
 11
-25.967959
 21
451.375674
 31
0.0
 11
-25.837573
 21
449.997626
 31
0.0
 11
-25.076107
 21
448.799508
 31
0.0
 11
-23.849311
 21
448.085161
 31
0.0
 11
-22.467238
 21
448.008408
 31
0.0
 11
-21.168889
 21
448.582521
 31
0.0
  0
SPLINE
  5
19c
100
AcDbEntity
  8
0
 62
1
100
AcDbSpline
 70
0
 71
3
 72
10
 73
6
 74
4
 40
0.000000
 40
0.000000
 40
0.000000
 40
0.000000
 40
10.619769
 40
22.152894
 40
34.721221
 40
34.721221
 40
34.721221
 40
34.721221
 10
-11.765461
 20
415.285528
 30
0.0
 10
-13.176552
 20
418.535669
 30
0.0
 10
-16.120095
 20
425.315480
 30
0.0
 10
-19.187134
 20
436.518642
 30
0.0
 10
-20.489635
 20
444.447737
 30
0.0
 10
-21.168858
 20
448.582569
 30
0.0
 11
-11.765461
 21
415.285528
 31
0.0
 11
-15.771979
 21
425.120532
 31
0.0
 11
-18.906445
 21
436.219546
 31
0.0
 11
-21.168858
 21
448.582569
 31
0.0
  0
SPLINE
  5
19d
100
AcDbEntity
  8
0
 62
1
100
AcDbSpline
 70
0
 71
3
 72
10
 73
6
 74
4
 40
0.000000
 40
0.000000
 40
0.000000
 40
0.000000
 40
11.544006
 40
23.170661
 40
35.433528
 40
35.433528
 40
35.433528
 40
35.433528
 10
16.212858
 20
387.032488
 30
0.0
 10
12.786244
 20
388.810733
 30
0.0
 10
5.908482
 20
392.379955
 30
0.0
 10
-2.840777
 20
400.581271
 30
0.0
 10
-7.158560
 20
407.291795
 30
0.0
 10
-9.374946
 20
410.736413
 30
0.0
 11
16.212858
 21
387.032488
 31
0.0
 11
6.220069
 21
392.812474
 31
0.0
 11
-2.309199
 21
400.713783
 31
0.0
 11
-9.374946
 21
410.736413
 31
0.0
  0
LWPOLYLINE
  5
19e
100
AcDbEntity
  8
0
 62
1
100
AcDbPolyline
 90
2
 70
0
 10
-21.647532
 20
453.641296
 30
0.0
 10
-22.813989
 20
475.372975
 30
0.0
  0
SPLINE
  5
19f
100
AcDbEntity
  8
0
 62
1
100
AcDbSpline
 70
0
 71
3
 72
16
 73
12
 74
10
 40
0.000000
 40
0.000000
 40
0.000000
 40
0.000000
 40
1.407466
 40
2.780347
 40
4.187813
 40
5.595280
 40
6.968161
 40
8.375627
 40
9.783093
 40
11.155974
 40
12.563440
 40
12.563440
 40
12.563440
 40
12.563440
 10
-11.765461
 20
415.285528
 30
0.0
 10
-12.241987
 20
415.247523
 30
0.0
 10
-13.183329
 20
415.172448
 30
0.0
 10
-14.340435
 20
414.264244
 30
0.0
 10
-14.979638
 20
412.974200
 30
0.0
 10
-14.956309
 20
411.522307
 30
0.0
 10
-14.284173
 20
410.243222
 30
0.0
 10
-13.101694
 20
409.400442
 30
0.0
 10
-11.676693
 20
409.195100
 30
0.0
 10
-10.272384
 20
409.632872
 30
0.0
 10
-9.676590
 20
410.365533
 30
0.0
 10
-9.374988
 20
410.736420
 30
0.0
 11
-11.765461
 21
415.285528
 31
0.0
 11
-13.150674
 21
415.036237
 31
0.0
 11
-14.247044
 21
414.209934
 31
0.0
 11
-14.868304
 21
412.947002
 31
0.0
 11
-14.845733
 21
411.539717
 31
0.0
 11
-14.207112
 21
410.324412
 31
0.0
 11
-13.060940
 21
409.507559
 31
0.0
 11
-11.668444
 21
409.302819
 31
0.0
 11
-10.366038
 21
409.737029
 31
0.0
 11
-9.374988
 21
410.736420
 31
0.0
  0
SPLINE
  5
1a0
100
AcDbEntity
  8
0
 62
1
100
AcDbSpline
 70
0
 71
3
 72
13
 73
9
 74
7
 40
0.000000
 40
0.000000
 40
0.000000
 40
0.000000
 40
0.522362
 40
1.029260
 40
1.551623
 40
2.073985
 40
2.580883
 40
3.103245
 40
3.103245
 40
3.103245
 40
3.103245
 10
-20.424488
 20
483.850932
 30
0.0
 10
-20.248425
 20
483.878683
 30
0.0
 10
-19.901509
 20
483.933364
 30
0.0
 10
-19.519868
 20
484.331091
 30
0.0
 10
-19.378473
 20
484.851077
 30
0.0
 10
-19.519868
 20
485.371063
 30
0.0
 10
-19.901509
 20
485.768790
 30
0.0
 10
-20.248425
 20
485.823471
 30
0.0
 10
-20.424488
 20
485.851222
 30
0.0
 11
-20.424488
 21
483.850932
 31
0.0
 11
-19.920445
 21
483.988056
 31
0.0
 11
-19.562325
 21
484.346797
 31
0.0
 11
-19.426074
 21
484.851077
 31
0.0
 11
-19.562325
 21
485.355357
 31
0.0
 11
-19.920445
 21
485.714098
 31
0.0
 11
-20.424488
 21
485.851222
 31
0.0
  0
LWPOLYLINE
  5
1a1
100
AcDbEntity
  8
0
 62
1
100
AcDbPolyline
 90
2
 70
0
 10
-26.424489
 20
485.850932
 30
0.0
 10
-20.424488
 20
485.850932
 30
0.0
  0
LWPOLYLINE
  5
1a2
100
AcDbEntity
  8
0
 62
1
100
AcDbPolyline
 90
2
 70
0
 10
-26.424489
 20
483.850932
 30
0.0
 10
-20.424488
 20
483.850932
 30
0.0
  0
SPLINE
  5
1a3
100
AcDbEntity
  8
0
 62
1
100
AcDbSpline
 70
0
 71
3
 72
16
 73
12
 74
10
 40
0.000000
 40
0.000000
 40
0.000000
 40
0.000000
 40
0.352743
 40
0.700335
 40
1.053078
 40
1.405820
 40
1.753412
 40
2.106155
 40
2.458898
 40
2.806490
 40
3.159233
 40
3.159233
 40
3.159233
 40
3.159233
 10
-26.424489
 20
485.850932
 30
0.0
 10
-26.542873
 20
485.840733
 30
0.0
 10
-26.777914
 20
485.820485
 30
0.0
 10
-27.090269
 20
485.637821
 30
0.0
 10
-27.322961
 20
485.367091
 30
0.0
 10
-27.446563
 20
485.030047
 30
0.0
 10
-27.446563
 20
484.672107
 30
0.0
 10
-27.322961
 20
484.335062
 30
0.0
 10
-27.090269
 20
484.064332
 30
0.0
 10
-26.777914
 20
483.881669
 30
0.0
 10
-26.542873
 20
483.861421
 30
0.0
 10
-26.424489
 20
483.851222
 30
0.0
 11
-26.424489
 21
485.850932
 31
0.0
 11
-26.772713
 21
485.794655
 31
0.0
 11
-27.075690
 21
485.624288
 31
0.0
 11
-27.304691
 21
485.355985
 31
0.0
 11
-27.426314
 21
485.024873
 31
0.0
 11
-27.426314
 21
484.677281
 31
0.0
 11
-27.304691
 21
484.346169
 31
0.0
 11
-27.075690
 21
484.077866
 31
0.0
 11
-26.772713
 21
483.907499
 31
0.0
 11
-26.424489
 21
483.851222
 31
0.0
  0
SPLINE
  5
1a4
100
AcDbEntity
  8
0
 62
1
100
AcDbSpline
 70
0
 71
3
 72
13
 73
9
 74
7
 40
0.000000
 40
0.000000
 40
0.000000
 40
0.000000
 40
0.522362
 40
1.029260
 40
1.551623
 40
2.073985
 40
2.580883
 40
3.103245
 40
3.103245
 40
3.103245
 40
3.103245
 10
-20.424488
 20
489.850932
 30
0.0
 10
-20.248425
 20
489.878683
 30
0.0
 10
-19.901509
 20
489.933364
 30
0.0
 10
-19.519868
 20
490.331091
 30
0.0
 10
-19.378473
 20
490.851077
 30
0.0
 10
-19.519868
 20
491.371063
 30
0.0
 10
-19.901509
 20
491.768790
 30
0.0
 10
-20.248425
 20
491.823471
 30
0.0
 10
-20.424488
 20
491.851222
 30
0.0
 11
-20.424488
 21
489.850932
 31
0.0
 11
-19.920445
 21
489.988056
 31
0.0
 11
-19.562325
 21
490.346797
 31
0.0
 11
-19.426074
 21
490.851077
 31
0.0
 11
-19.562325
 21
491.355357
 31
0.0
 11
-19.920445
 21
491.714098
 31
0.0
 11
-20.424488
 21
491.851222
 31
0.0
  0
LWPOLYLINE
  5
1a5
100
AcDbEntity
  8
0
 62
1
100
AcDbPolyline
 90
2
 70
0
 10
-26.424489
 20
491.850932
 30
0.0
 10
-20.424488
 20
491.850932
 30
0.0
  0
LWPOLYLINE
  5
1a6
100
AcDbEntity
  8
0
 62
1
100
AcDbPolyline
 90
2
 70
0
 10
-26.424489
 20
489.850932
 30
0.0
 10
-20.424488
 20
489.850932
 30
0.0
  0
SPLINE
  5
1a7
100
AcDbEntity
  8
0
 62
1
100
AcDbSpline
 70
0
 71
3
 72
13
 73
9
 74
7
 40
0.000000
 40
0.000000
 40
0.000000
 40
0.000000
 40
0.517221
 40
1.019382
 40
1.536603
 40
2.053823
 40
2.555985
 40
3.073205
 40
3.073205
 40
3.073205
 40
3.073205
 10
-26.424489
 20
491.850932
 30
0.0
 10
-26.598346
 20
491.821077
 30
0.0
 10
-26.941000
 20
491.762237
 30
0.0
 10
-27.315494
 20
491.365950
 30
0.0
 10
-27.454122
 20
490.851077
 30
0.0
 10
-27.315494
 20
490.336204
 30
0.0
 10
-26.941000
 20
489.939917
 30
0.0
 10
-26.598346
 20
489.881077
 30
0.0
 10
-26.424489
 20
489.851222
 30
0.0
 11
-26.424489
 21
491.850932
 31
0.0
 11
-26.921807
 21
491.708835
 31
0.0
 11
-27.273853
 21
491.350743
 31
0.0
 11
-27.407460
 21
490.851077
 31
0.0
 11
-27.273853
 21
490.351411
 31
0.0
 11
-26.921807
 21
489.993319
 31
0.0
 11
-26.424489
 21
489.851222
 31
0.0
  0
SPLINE
  5
1a8
100
AcDbEntity
  8
0
 62
1
100
AcDbSpline
 70
0
 71
3
 72
13
 73
9
 74
7
 40
0.000000
 40
0.000000
 40
0.000000
 40
0.000000
 40
0.522362
 40
1.029260
 40
1.551623
 40
2.073985
 40
2.580883
 40
3.103245
 40
3.103245
 40
3.103245
 40
3.103245
 10
135.610515
 20
483.850932
 30
0.0
 10
135.434451
 20
483.878683
 30
0.0
 10
135.087536
 20
483.933364
 30
0.0
 10
134.705895
 20
484.331091
 30
0.0
 10
134.564499
 20
484.851077
 30
0.0
 10
134.705895
 20
485.371063
 30
0.0
 10
135.087536
 20
485.768790
 30
0.0
 10
135.434451
 20
485.823471
 30
0.0
 10
135.610515
 20
485.851222
 30
0.0
 11
135.610515
 21
483.850932
 31
0.0
 11
135.106472
 21
483.988056
 31
0.0
 11
134.748352
 21
484.346797
 31
0.0
 11
134.612101
 21
484.851077
 31
0.0
 11
134.748352
 21
485.355357
 31
0.0
 11
135.106472
 21
485.714098
 31
0.0
 11
135.610515
 21
485.851222
 31
0.0
  0
LWPOLYLINE
  5
1a9
100
AcDbEntity
  8
0
 62
1
100
AcDbPolyline
 90
2
 70
0
 10
141.610515
 20
485.850932
 30
0.0
 10
135.610515
 20
485.850932
 30
0.0
  0
LWPOLYLINE
  5
1aa
100
AcDbEntity
  8
0
 62
1
100
AcDbPolyline
 90
2
 70
0
 10
141.610515
 20
483.850932
 30
0.0
 10
135.610515
 20
483.850932
 30
0.0
  0
SPLINE
  5
1ab
100
AcDbEntity
  8
0
 62
1
100
AcDbSpline
 70
0
 71
3
 72
16
 73
12
 74
10
 40
0.000000
 40
0.000000
 40
0.000000
 40
0.000000
 40
0.352743
 40
0.700335
 40
1.053078
 40
1.405820
 40
1.753412
 40
2.106155
 40
2.458898
 40
2.806490
 40
3.159233
 40
3.159233
 40
3.159233
 40
3.159233
 10
141.610515
 20
485.850932
 30
0.0
 10
141.728900
 20
485.840733
 30
0.0
 10
141.963940
 20
485.820485
 30
0.0
 10
142.276295
 20
485.637821
 30
0.0
 10
142.508988
 20
485.367091
 30
0.0
 10
142.632590
 20
485.030047
 30
0.0
 10
142.632590
 20
484.672107
 30
0.0
 10
142.508988
 20
484.335062
 30
0.0
 10
142.276295
 20
484.064332
 30
0.0
 10
141.963940
 20
483.881669
 30
0.0
 10
141.728900
 20
483.861421
 30
0.0
 10
141.610515
 20
483.851222
 30
0.0
 11
141.610515
 21
485.850932
 31
0.0
 11
141.958740
 21
485.794655
 31
0.0
 11
142.261717
 21
485.624288
 31
0.0
 11
142.490717
 21
485.355985
 31
0.0
 11
142.612341
 21
485.024873
 31
0.0
 11
142.612341
 21
484.677281
 31
0.0
 11
142.490717
 21
484.346169
 31
0.0
 11
142.261717
 21
484.077866
 31
0.0
 11
141.958740
 21
483.907499
 31
0.0
 11
141.610515
 21
483.851222
 31
0.0
  0
SPLINE
  5
1ac
100
AcDbEntity
  8
0
 62
1
100
AcDbSpline
 70
0
 71
3
 72
13
 73
9
 74
7
 40
0.000000
 40
0.000000
 40
0.000000
 40
0.000000
 40
0.522362
 40
1.029260
 40
1.551623
 40
2.073985
 40
2.580883
 40
3.103245
 40
3.103245
 40
3.103245
 40
3.103245
 10
135.610515
 20
489.850932
 30
0.0
 10
135.434451
 20
489.878683
 30
0.0
 10
135.087536
 20
489.933364
 30
0.0
 10
134.705895
 20
490.331091
 30
0.0
 10
134.564499
 20
490.851077
 30
0.0
 10
134.705895
 20
491.371063
 30
0.0
 10
135.087536
 20
491.768790
 30
0.0
 10
135.434451
 20
491.823471
 30
0.0
 10
135.610515
 20
491.851222
 30
0.0
 11
135.610515
 21
489.850932
 31
0.0
 11
135.106472
 21
489.988056
 31
0.0
 11
134.748352
 21
490.346797
 31
0.0
 11
134.612101
 21
490.851077
 31
0.0
 11
134.748352
 21
491.355357
 31
0.0
 11
135.106472
 21
491.714098
 31
0.0
 11
135.610515
 21
491.851222
 31
0.0
  0
LWPOLYLINE
  5
1ad
100
AcDbEntity
  8
0
 62
1
100
AcDbPolyline
 90
2
 70
0
 10
141.610515
 20
491.850932
 30
0.0
 10
135.610515
 20
491.850932
 30
0.0
  0
SPLINE
  5
1ae
100
AcDbEntity
  8
0
 62
1
100
AcDbSpline
 70
0
 71
3
 72
13
 73
9
 74
7
 40
0.000000
 40
0.000000
 40
0.000000
 40
0.000000
 40
0.517221
 40
1.019382
 40
1.536603
 40
2.053823
 40
2.555985
 40
3.073205
 40
3.073205
 40
3.073205
 40
3.073205
 10
141.610515
 20
491.850932
 30
0.0
 10
141.784373
 20
491.821077
 30
0.0
 10
142.127026
 20
491.762237
 30
0.0
 10
142.501521
 20
491.365950
 30
0.0
 10
142.640149
 20
490.851077
 30
0.0
 10
142.501521
 20
490.336204
 30
0.0
 10
142.127026
 20
489.939917
 30
0.0
 10
141.784373
 20
489.881077
 30
0.0
 10
141.610515
 20
489.851222
 30
0.0
 11
141.610515
 21
491.850932
 31
0.0
 11
142.107834
 21
491.708835
 31
0.0
 11
142.459879
 21
491.350743
 31
0.0
 11
142.593487
 21
490.851077
 31
0.0
 11
142.459879
 21
490.351411
 31
0.0
 11
142.107834
 21
489.993319
 31
0.0
 11
141.610515
 21
489.851222
 31
0.0
  0
LWPOLYLINE
  5
1af
100
AcDbEntity
  8
0
 62
1
100
AcDbPolyline
 90
2
 70
0
 10
141.610515
 20
489.850932
 30
0.0
 10
135.610515
 20
489.850932
 30
0.0
  0
SPLINE
  5
1b0
100
AcDbEntity
  8
0
 62
1
100
AcDbSpline
 70
0
 71
3
 72
25
 73
21
 74
19
 40
0.000000
 40
0.000000
 40
0.000000
 40
0.000000
 40
0.872410
 40
1.732335
 40
2.604745
 40
3.477156
 40
4.337080
 40
5.209491
 40
6.081901
 40
6.941826
 40
7.814236
 40
8.686646
 40
9.546571
 40
10.418981
 40
11.291392
 40
12.151317
 40
13.023727
 40
13.896137
 40
14.756062
 40
15.628472
 40
15.628472
 40
15.628472
 40
15.628472
 10
33.093013
 20
397.011220
 30
0.0
 10
33.063143
 20
397.303506
 30
0.0
 10
33.003831
 20
397.883896
 30
0.0
 10
32.543664
 20
398.650891
 30
0.0
 10
31.869902
 20
399.221131
 30
0.0
 10
31.035575
 20
399.523568
 30
0.0
 10
30.150259
 20
399.523568
 30
0.0
 10
29.317101
 20
399.221131
 30
0.0
 10
28.638673
 20
398.650891
 30
0.0
 10
28.195842
 20
397.883896
 30
0.0
 10
28.041227
 20
397.011220
 30
0.0
 10
28.195842
 20
396.138543
 30
0.0
 10
28.638673
 20
395.371549
 30
0.0
 10
29.317101
 20
394.801308
 30
0.0
 10
30.150259
 20
394.498872
 30
0.0
 10
31.035575
 20
394.498872
 30
0.0
 10
31.869902
 20
394.801308
 30
0.0
 10
32.543664
 20
395.371549
 30
0.0
 10
33.003831
 20
396.138543
 30
0.0
 10
33.063143
 20
396.718933
 30
0.0
 10
33.093013
 20
397.011220
 30
0.0
 11
33.093013
 21
397.011220
 31
0.0
 11
32.940828
 21
397.870254
 31
0.0
 11
32.510866
 21
398.614971
 31
0.0
 11
31.843013
 21
399.176283
 31
0.0
 11
31.022975
 21
399.474005
 31
0.0
 11
30.163050
 21
399.474005
 31
0.0
 11
29.343013
 21
399.176283
 31
0.0
 11
28.675160
 21
398.614971
 31
0.0
 11
28.245197
 21
397.870254
 31
0.0
 11
28.093013
 21
397.011220
 31
0.0
 11
28.245197
 21
396.152186
 31
0.0
 11
28.675160
 21
395.407469
 31
0.0
 11
29.343013
 21
394.846156
 31
0.0
 11
30.163050
 21
394.548435
 31
0.0
 11
31.022975
 21
394.548435
 31
0.0
 11
31.843013
 21
394.846156
 31
0.0
 11
32.510866
 21
395.407469
 31
0.0
 11
32.940828
 21
396.152186
 31
0.0
 11
33.093013
 21
397.011220
 31
0.0
  0
LWPOLYLINE
  5
1b1
100
AcDbEntity
  8
0
 62
1
100
AcDbPolyline
 90
1
 70
1
 10
33.093013
 20
397.011220
 30
0.0
  0
SPLINE
  5
1b2
100
AcDbEntity
  8
0
 62
1
100
AcDbSpline
 70
0
 71
3
 72
25
 73
21
 74
19
 40
0.000000
 40
0.000000
 40
0.000000
 40
0.000000
 40
0.872410
 40
1.732335
 40
2.604745
 40
3.477156
 40
4.337080
 40
5.209491
 40
6.081901
 40
6.941826
 40
7.814236
 40
8.686646
 40
9.546571
 40
10.418981
 40
11.291392
 40
12.151317
 40
13.023727
 40
13.896137
 40
14.756062
 40
15.628472
 40
15.628472
 40
15.628472
 40
15.628472
 10
6.093012
 20
412.011220
 30
0.0
 10
6.063142
 20
412.303507
 30
0.0
 10
6.003830
 20
412.883897
 30
0.0
 10
5.543663
 20
413.650891
 30
0.0
 10
4.869901
 20
414.221132
 30
0.0
 10
4.035574
 20
414.523568
 30
0.0
 10
3.150259
 20
414.523568
 30
0.0
 10
2.317100
 20
414.221132
 30
0.0
 10
1.638672
 20
413.650891
 30
0.0
 10
1.195841
 20
412.883897
 30
0.0
 10
1.041227
 20
412.011220
 30
0.0
 10
1.195841
 20
411.138543
 30
0.0
 10
1.638672
 20
410.371549
 30
0.0
 10
2.317100
 20
409.801309
 30
0.0
 10
3.150259
 20
409.498872
 30
0.0
 10
4.035574
 20
409.498872
 30
0.0
 10
4.869901
 20
409.801309
 30
0.0
 10
5.543663
 20
410.371549
 30
0.0
 10
6.003830
 20
411.138543
 30
0.0
 10
6.063142
 20
411.718934
 30
0.0
 10
6.093012
 20
412.011220
 30
0.0
 11
6.093012
 21
412.011220
 31
0.0
 11
5.940828
 21
412.870254
 31
0.0
 11
5.510865
 21
413.614971
 31
0.0
 11
4.843012
 21
414.176284
 31
0.0
 11
4.022974
 21
414.474005
 31
0.0
 11
3.163050
 21
414.474005
 31
0.0
 11
2.343012
 21
414.176284
 31
0.0
 11
1.675159
 21
413.614971
 31
0.0
 11
1.245197
 21
412.870254
 31
0.0
 11
1.093012
 21
412.011220
 31
0.0
 11
1.245197
 21
411.152186
 31
0.0
 11
1.675159
 21
410.407469
 31
0.0
 11
2.343012
 21
409.846157
 31
0.0
 11
3.163050
 21
409.548435
 31
0.0
 11
4.022974
 21
409.548435
 31
0.0
 11
4.843012
 21
409.846157
 31
0.0
 11
5.510865
 21
410.407469
 31
0.0
 11
5.940828
 21
411.152186
 31
0.0
 11
6.093012
 21
412.011220
 31
0.0
  0
LWPOLYLINE
  5
1b3
100
AcDbEntity
  8
0
 62
1
100
AcDbPolyline
 90
1
 70
1
 10
6.093012
 20
412.011220
 30
0.0
  0
SPLINE
  5
1b4
100
AcDbEntity
  8
0
 62
1
100
AcDbSpline
 70
0
 71
3
 72
25
 73
21
 74
19
 40
0.000000
 40
0.000000
 40
0.000000
 40
0.000000
 40
0.872410
 40
1.732335
 40
2.604745
 40
3.477156
 40
4.337080
 40
5.209491
 40
6.081901
 40
6.941826
 40
7.814236
 40
8.686646
 40
9.546571
 40
10.418981
 40
11.291392
 40
12.151317
 40
13.023727
 40
13.896137
 40
14.756062
 40
15.628472
 40
15.628472
 40
15.628472
 40
15.628472
 10
87.093014
 20
397.011220
 30
0.0
 10
87.063144
 20
397.303506
 30
0.0
 10
87.003832
 20
397.883896
 30
0.0
 10
86.543665
 20
398.650891
 30
0.0
 10
85.869903
 20
399.221131
 30
0.0
 10
85.035576
 20
399.523568
 30
0.0
 10
84.150261
 20
399.523568
 30
0.0
 10
83.317102
 20
399.221131
 30
0.0
 10
82.638674
 20
398.650891
 30
0.0
 10
82.195843
 20
397.883896
 30
0.0
 10
82.041229
 20
397.011220
 30
0.0
 10
82.195843
 20
396.138543
 30
0.0
 10
82.638674
 20
395.371549
 30
0.0
 10
83.317102
 20
394.801308
 30
0.0
 10
84.150261
 20
394.498872
 30
0.0
 10
85.035576
 20
394.498872
 30
0.0
 10
85.869903
 20
394.801308
 30
0.0
 10
86.543665
 20
395.371549
 30
0.0
 10
87.003832
 20
396.138543
 30
0.0
 10
87.063144
 20
396.718933
 30
0.0
 10
87.093014
 20
397.011220
 30
0.0
 11
87.093014
 21
397.011220
 31
0.0
 11
86.940829
 21
397.870254
 31
0.0
 11
86.510867
 21
398.614971
 31
0.0
 11
85.843014
 21
399.176283
 31
0.0
 11
85.022976
 21
399.474005
 31
0.0
 11
84.163052
 21
399.474005
 31
0.0
 11
83.343014
 21
399.176283
 31
0.0
 11
82.675161
 21
398.614971
 31
0.0
 11
82.245199
 21
397.870254
 31
0.0
 11
82.093014
 21
397.011220
 31
0.0
 11
82.245199
 21
396.152186
 31
0.0
 11
82.675161
 21
395.407469
 31
0.0
 11
83.343014
 21
394.846156
 31
0.0
 11
84.163052
 21
394.548435
 31
0.0
 11
85.022976
 21
394.548435
 31
0.0
 11
85.843014
 21
394.846156
 31
0.0
 11
86.510867
 21
395.407469
 31
0.0
 11
86.940829
 21
396.152186
 31
0.0
 11
87.093014
 21
397.011220
 31
0.0
  0
LWPOLYLINE
  5
1b5
100
AcDbEntity
  8
0
 62
1
100
AcDbPolyline
 90
1
 70
1
 10
87.093014
 20
397.011220
 30
0.0
  0
SPLINE
  5
1b6
100
AcDbEntity
  8
0
 62
1
100
AcDbSpline
 70
0
 71
3
 72
25
 73
21
 74
19
 40
0.000000
 40
0.000000
 40
0.000000
 40
0.000000
 40
0.872410
 40
1.732335
 40
2.604745
 40
3.477156
 40
4.337080
 40
5.209491
 40
6.081901
 40
6.941826
 40
7.814236
 40
8.686646
 40
9.546571
 40
10.418981
 40
11.291392
 40
12.151317
 40
13.023727
 40
13.896137
 40
14.756062
 40
15.628472
 40
15.628472
 40
15.628472
 40
15.628472
 10
114.093015
 20
412.011220
 30
0.0
 10
114.063145
 20
412.303507
 30
0.0
 10
114.003833
 20
412.883897
 30
0.0
 10
113.543666
 20
413.650891
 30
0.0
 10
112.869904
 20
414.221132
 30
0.0
 10
112.035577
 20
414.523568
 30
0.0
 10
111.150261
 20
414.523568
 30
0.0
 10
110.317102
 20
414.221132
 30
0.0
 10
109.638675
 20
413.650891
 30
0.0
 10
109.195844
 20
412.883897
 30
0.0
 10
109.041229
 20
412.011220
 30
0.0
 10
109.195844
 20
411.138543
 30
0.0
 10
109.638675
 20
410.371549
 30
0.0
 10
110.317102
 20
409.801309
 30
0.0
 10
111.150261
 20
409.498872
 30
0.0
 10
112.035577
 20
409.498872
 30
0.0
 10
112.869904
 20
409.801309
 30
0.0
 10
113.543666
 20
410.371549
 30
0.0
 10
114.003833
 20
411.138543
 30
0.0
 10
114.063145
 20
411.718934
 30
0.0
 10
114.093015
 20
412.011220
 30
0.0
 11
114.093015
 21
412.011220
 31
0.0
 11
113.940830
 21
412.870254
 31
0.0
 11
113.510868
 21
413.614971
 31
0.0
 11
112.843015
 21
414.176284
 31
0.0
 11
112.022977
 21
414.474005
 31
0.0
 11
111.163052
 21
414.474005
 31
0.0
 11
110.343015
 21
414.176284
 31
0.0
 11
109.675162
 21
413.614971
 31
0.0
 11
109.245199
 21
412.870254
 31
0.0
 11
109.093015
 21
412.011220
 31
0.0
 11
109.245199
 21
411.152186
 31
0.0
 11
109.675162
 21
410.407469
 31
0.0
 11
110.343015
 21
409.846157
 31
0.0
 11
111.163052
 21
409.548435
 31
0.0
 11
112.022977
 21
409.548435
 31
0.0
 11
112.843015
 21
409.846157
 31
0.0
 11
113.510868
 21
410.407469
 31
0.0
 11
113.940830
 21
411.152186
 31
0.0
 11
114.093015
 21
412.011220
 31
0.0
  0
LWPOLYLINE
  5
1b7
100
AcDbEntity
  8
0
 62
1
100
AcDbPolyline
 90
1
 70
1
 10
114.093015
 20
412.011220
 30
0.0
  0
ENDSEC
  0
SECTION
  2
OBJECTS
  0
DICTIONARY
  5
C
330
0
100
AcDbDictionary
  3
ACAD_GROUP
350
D
  3
ACAD_MLINESTYLE
350
17
  0
DICTIONARY
  5
D
330
C
100
AcDbDictionary
  0
DICTIONARY
  5
1A
330
C
100
AcDbDictionary
  0
DICTIONARY
  5
17
330
C
100
AcDbDictionary
  3
STANDARD
350
18
  0
DICTIONARY
  5
19
330
C
100
AcDbDictionary
  0
ENDSEC
  0
EOF
