  0
SECTION
  2
HEADER
  9
$ACADVER
  1
AC1014
  9
$HANDSEED
  5
FFFF
  9
$MEASUREMENT
 70
     1
  0
ENDSEC
  0
SECTION
  2
TABLES
  0
TABLE
  2
VPORT
  5
8
330
0
100
AcDbSymbolTable
 70
     4
  0
VPORT
  5
2E
330
8
100
AcDbSymbolTableRecord
100
AcDbViewportTableRecord
  2
*ACTIVE
 70
     0
 10
0.0
 20
0.0
 11
1.0
 21
1.0
 12
210.0
 22
148.5
 13
0.0
 23
0.0
 14
10.0
 24
10.0
 15
10.0
 25
10.0
 16
0.0
 26
0.0
 36
1.0
 17
0.0
 27
0.0
 37
0.0
 40
341.0
 41
1.24
 42
50.0
 43
0.0
 44
0.0
 50
0.0
 51
0.0
 71
     0
 72
   100
 73
     1
 74
     3
 75
     0
 76
     0
 77
     0
 78
     0
  0
ENDTAB
  0
TABLE
  2
LTYPE
  5
5
330
0
100
AcDbSymbolTable
 70
     1
  0
LTYPE
  5
14
330
5
100
AcDbSymbolTableRecord
100
AcDbLinetypeTableRecord
  2
BYBLOCK
 70
     0
  3

 72
    65
 73
     0
 40
0.0
  0
LTYPE
  5
15
330
5
100
AcDbSymbolTableRecord
100
AcDbLinetypeTableRecord
  2
BYLAYER
 70
     0
  3

 72
    65
 73
     0
 40
0.0
  0
LTYPE
  5
16
330
5
100
AcDbSymbolTableRecord
100
AcDbLinetypeTableRecord
  2
CONTINUOUS
 70
     0
  3
Solid line
 72
    65
 73
     0
 40
0.0
  0
ENDTAB
  0
TABLE
  2
LAYER
  5
2
100
AcDbSymbolTable
 70
2
  0
LAYER
  5
50
100
AcDbSymbolTableRecord
100
AcDbLayerTableRecord
  2
0
 70
0
  6
CONTINUOUS
  0
LAYER
  5
51
100
AcDbSymbolTableRecord
100
AcDbLayerTableRecord
  2
Layer_1
 70
0
  6
CONTINUOUS
  0
ENDTAB
  0
TABLE
  2
STYLE
  5
3
330
0
100
AcDbSymbolTable
 70
     1
  0
STYLE
  5
11
330
3
100
AcDbSymbolTableRecord
100
AcDbTextStyleTableRecord
  2
STANDARD
 70
     0
 40
0.0
 41
1.0
 50
0.0
 71
     0
 42
2.5
  3
txt
  4

  0
ENDTAB
  0
TABLE
  2
VIEW
  5
6
330
0
100
AcDbSymbolTable
 70
     0
  0
ENDTAB
  0
TABLE
  2
UCS
  5
7
330
0
100
AcDbSymbolTable
 70
     0
  0
ENDTAB
  0
TABLE
  2
APPID
  5
9
330
0
100
AcDbSymbolTable
 70
     2
  0
APPID
  5
12
330
9
100
AcDbSymbolTableRecord
100
AcDbRegAppTableRecord
  2
ACAD
 70
     0
  0
ENDTAB
  0
TABLE
  2
DIMSTYLE
  5
A
330
0
100
AcDbSymbolTable
 70
     1
  0
DIMSTYLE
105
27
330
A
100
AcDbSymbolTableRecord
100
AcDbDimStyleTableRecord
  2
ISO-25
 70
     0
  3

  4

  5

  6

  7

 40
1.0
 41
2.5
 42
0.625
 43
3.75
 44
1.25
 45
0.0
 46
0.0
 47
0.0
 48
0.0
140
2.5
141
2.5
142
0.0
143
0.03937007874016
144
1.0
145
0.0
146
1.0
147
0.625
 71
     0
 72
     0
 73
     0
 74
     0
 75
     0
 76
     0
 77
     1
 78
     8
170
     0
171
     3
172
     1
173
     0
174
     0
175
     0
176
     0
177
     0
178
     0
270
     2
271
     2
272
     2
273
     2
274
     3
340
11
275
     0
280
     0
281
     0
282
     0
283
     0
284
     8
285
     0
286
     0
287
     3
288
     0
  0
ENDTAB
  0
TABLE
  2
BLOCK_RECORD
  5
1
330
0
100
AcDbSymbolTable
 70
     1
  0
BLOCK_RECORD
  5
1F
330
1
100
AcDbSymbolTableRecord
100
AcDbBlockTableRecord
  2
*MODEL_SPACE
  0
BLOCK_RECORD
  5
1B
330
1
100
AcDbSymbolTableRecord
100
AcDbBlockTableRecord
  2
*PAPER_SPACE
  0
ENDTAB
  0
ENDSEC
  0
SECTION
  2
BLOCKS
  0
BLOCK
  5
20
330
1F
100
AcDbEntity
  8
0
100
AcDbBlockBegin
  2
*MODEL_SPACE
 70
     0
 10
0.0
 20
0.0
 30
0.0
  3
*MODEL_SPACE
  1

  0
ENDBLK
  5
21
330
1F
100
AcDbEntity
  8
0
100
AcDbBlockEnd
  0
BLOCK
  5
1C
330
1B
100
AcDbEntity
 67
     1
  8
0
100
AcDbBlockBegin
  2
*PAPER_SPACE
  1

  0
ENDBLK
  5
1D
330
1B
100
AcDbEntity
 67
     1
  8
0
100
AcDbBlockEnd
  0
ENDSEC
  0
SECTION
  2
ENTITIES
  0
LWPOLYLINE
  5
100
100
AcDbEntity
  8
Layer_1
 62
1
100
AcDbPolyline
 90
2
 70
0
 10
137.652083
 20
61.914968
 30
0.0
 10
137.652083
 20
56.358718
 30
0.0
  0
LWPOLYLINE
  5
101
100
AcDbEntity
  8
Layer_1
 62
1
100
AcDbPolyline
 90
2
 70
0
 10
137.652083
 20
61.914968
 30
0.0
 10
139.768750
 20
56.358718
 30
0.0
  0
LWPOLYLINE
  5
102
100
AcDbEntity
  8
Layer_1
 62
1
100
AcDbPolyline
 90
2
 70
0
 10
141.885417
 20
61.914968
 30
0.0
 10
139.768750
 20
56.358718
 30
0.0
  0
LWPOLYLINE
  5
103
100
AcDbEntity
  8
Layer_1
 62
1
100
AcDbPolyline
 90
2
 70
0
 10
141.885417
 20
61.914968
 30
0.0
 10
141.885417
 20
56.358718
 30
0.0
  0
LWPOLYLINE
  5
104
100
AcDbEntity
  8
Layer_1
 62
1
100
AcDbPolyline
 90
2
 70
0
 10
144.002083
 20
58.739968
 30
0.0
 10
148.764583
 20
58.739968
 30
0.0
  0
LWPOLYLINE
  5
105
100
AcDbEntity
  8
Layer_1
 62
1
100
AcDbPolyline
 90
4
 70
0
 10
151.410416
 20
60.856635
 30
0.0
 10
151.939583
 20
61.121218
 30
0.0
 10
152.733333
 20
61.914968
 30
0.0
 10
152.733333
 20
56.358718
 30
0.0
  0
LWPOLYLINE
  5
106
100
AcDbEntity
  8
Layer_1
 62
1
100
AcDbPolyline
 90
23
 70
0
 10
159.347916
 20
60.062885
 30
0.0
 10
159.083333
 20
59.269135
 30
0.0
 10
158.554166
 20
58.739968
 30
0.0
 10
157.760416
 20
58.475385
 30
0.0
 10
157.495833
 20
58.475385
 30
0.0
 10
156.702083
 20
58.739968
 30
0.0
 10
156.172916
 20
59.269135
 30
0.0
 10
155.908333
 20
60.062885
 30
0.0
 10
155.908333
 20
60.327468
 30
0.0
 10
156.172916
 20
61.121218
 30
0.0
 10
156.702083
 20
61.650385
 30
0.0
 10
157.495833
 20
61.914968
 30
0.0
 10
157.760416
 20
61.914968
 30
0.0
 10
158.554166
 20
61.650385
 30
0.0
 10
159.083333
 20
61.121218
 30
0.0
 10
159.347916
 20
60.062885
 30
0.0
 10
159.347916
 20
58.739968
 30
0.0
 10
159.083333
 20
57.417051
 30
0.0
 10
158.554166
 20
56.623301
 30
0.0
 10
157.760416
 20
56.358718
 30
0.0
 10
157.231250
 20
56.358718
 30
0.0
 10
156.437500
 20
56.623301
 30
0.0
 10
156.172916
 20
57.152468
 30
0.0
  0
LWPOLYLINE
  5
107
100
AcDbEntity
  8
Layer_1
 62
5
100
AcDbPolyline
 90
3
 70
0
 10
59.965000
 20
181.285040
 30
0.0
 10
62.541069
 20
181.285040
 30
0.0
 10
237.035000
 20
181.285040
 30
0.0
  0
LWPOLYLINE
  5
108
100
AcDbEntity
  8
Layer_1
 62
5
100
AcDbPolyline
 90
2
 70
0
 10
59.965000
 20
181.285040
 30
0.0
 10
59.965000
 20
164.181910
 30
0.0
  0
LWPOLYLINE
  5
109
100
AcDbEntity
  8
Layer_1
 62
5
100
AcDbPolyline
 90
2
 70
0
 10
237.035000
 20
181.285040
 30
0.0
 10
237.035000
 20
164.181910
 30
0.0
  0
SPLINE
  5
10a
100
AcDbEntity
  8
Layer_1
 62
1
100
AcDbSpline
 70
0
 71
3
 72
16
 73
12
 74
10
 40
0.000000
 40
0.000000
 40
0.000000
 40
0.000000
 40
2.623338
 40
5.209131
 40
7.832469
 40
10.455807
 40
13.041601
 40
15.664938
 40
18.288276
 40
20.874070
 40
23.497407
 40
23.497407
 40
23.497407
 40
23.497407
 10
222.000000
 20
156.664260
 30
0.0
 10
222.089801
 20
157.543168
 30
0.0
 10
222.268116
 20
159.288404
 30
0.0
 10
223.651812
 20
161.594783
 30
0.0
 10
225.677709
 20
163.309535
 30
0.0
 10
228.186784
 20
164.219009
 30
0.0
 10
230.847924
 20
164.219061
 30
0.0
 10
233.357035
 20
163.309683
 30
0.0
 10
235.382998
 20
161.595009
 30
0.0
 10
236.766782
 20
159.288684
 30
0.0
 10
236.945166
 20
157.543454
 30
0.0
 10
237.035000
 20
156.664550
 30
0.0
 11
222.000000
 21
156.664260
 31
0.0
 11
222.457569
 21
159.247384
 31
0.0
 11
223.750423
 21
161.486772
 31
0.0
 11
225.758624
 21
163.174678
 31
0.0
 11
228.224460
 21
164.069974
 31
0.0
 11
230.810254
 21
164.070024
 31
0.0
 11
233.276124
 21
163.174823
 31
0.0
 11
235.284391
 21
161.486995
 31
0.0
 11
236.577331
 21
159.247657
 31
0.0
 11
237.035000
 21
156.664550
 31
0.0
  0
SPLINE
  5
10b
100
AcDbEntity
  8
Layer_1
 62
1
100
AcDbSpline
 70
0
 71
3
 72
10
 73
6
 74
4
 40
0.000000
 40
0.000000
 40
0.000000
 40
0.000000
 40
29.070903
 40
50.497677
 40
68.911879
 40
68.911879
 40
68.911879
 40
68.911879
 10
222.000000
 20
147.664260
 30
0.0
 10
221.707483
 20
137.918418
 30
0.0
 10
221.199365
 20
120.989380
 30
0.0
 10
211.260691
 20
99.265847
 30
0.0
 10
200.845294
 20
90.825497
 30
0.0
 10
196.031375
 20
86.924430
 30
0.0
 11
222.000000
 21
147.664260
 31
0.0
 11
218.877165
 21
118.761573
 31
0.0
 11
209.475642
 21
99.507534
 31
0.0
 11
196.031375
 21
86.924430
 31
0.0
  0
LWPOLYLINE
  5
10c
100
AcDbEntity
  8
Layer_1
 62
1
100
AcDbPolyline
 90
2
 70
0
 10
222.000000
 20
156.664260
 30
0.0
 10
222.000000
 20
147.664260
 30
0.0
  0
SPLINE
  5
10d
100
AcDbEntity
  8
Layer_1
 62
1
100
AcDbSpline
 70
0
 71
3
 72
10
 73
6
 74
4
 40
0.000000
 40
0.000000
 40
0.000000
 40
0.000000
 40
17.540241
 40
34.426555
 40
50.204779
 40
50.204779
 40
50.204779
 40
50.204779
 10
196.031375
 20
86.924430
 30
0.0
 10
190.932363
 20
84.033242
 30
0.0
 10
180.924437
 20
78.358653
 30
0.0
 10
164.630898
 20
73.755887
 30
0.0
 10
153.753972
 20
73.019810
 30
0.0
 10
148.500000
 20
72.664257
 30
0.0
 11
196.031375
 21
86.924430
 31
0.0
 11
180.431939
 21
78.904603
 31
0.0
 11
164.197536
 21
74.257908
 31
0.0
 11
148.500000
 21
72.664257
 31
0.0
  0
LWPOLYLINE
  5
10e
100
AcDbEntity
  8
Layer_1
 62
1
100
AcDbPolyline
 90
2
 70
0
 10
237.035000
 20
141.186303
 30
0.0
 10
237.035000
 20
156.664260
 30
0.0
  0
SPLINE
  5
10f
100
AcDbEntity
  8
Layer_1
 62
1
100
AcDbSpline
 70
0
 71
3
 72
13
 73
9
 74
7
 40
0.000000
 40
0.000000
 40
0.000000
 40
0.000000
 40
2.124900
 40
4.186775
 40
6.311675
 40
8.436574
 40
10.498450
 40
12.623349
 40
12.623349
 40
12.623349
 40
12.623349
 10
237.035000
 20
141.186303
 30
0.0
 10
236.923215
 20
140.469888
 30
0.0
 10
236.702960
 20
139.058305
 30
0.0
 10
235.086211
 20
137.504276
 30
0.0
 10
232.970975
 20
136.928471
 30
0.0
 10
230.855747
 20
137.504301
 30
0.0
 10
229.239015
 20
139.058348
 30
0.0
 10
229.018777
 20
140.469933
 30
0.0
 10
228.907000
 20
141.186350
 30
0.0
 11
237.035000
 21
141.186303
 31
0.0
 11
236.480133
 21
139.135128
 31
0.0
 11
235.022158
 21
137.677170
 31
0.0
 11
232.970977
 21
137.122327
 31
0.0
 11
230.919801
 21
137.677193
 31
0.0
 11
229.461843
 21
139.135168
 31
0.0
 11
228.907000
 21
141.186350
 31
0.0
  0
SPLINE
  5
110
100
AcDbEntity
  8
Layer_1
 62
1
100
AcDbSpline
 70
0
 71
3
 72
10
 73
6
 74
4
 40
0.000000
 40
0.000000
 40
0.000000
 40
0.000000
 40
21.912465
 40
45.916642
 40
75.015269
 40
75.015269
 40
75.015269
 40
75.015269
 10
189.880154
 20
52.845818
 30
0.0
 10
196.227524
 20
56.671183
 30
0.0
 10
209.528171
 20
64.687074
 30
0.0
 10
222.094408
 20
87.484437
 30
0.0
 10
225.432631
 20
104.869463
 30
0.0
 10
227.261869
 20
114.395898
 30
0.0
 11
189.880154
 21
52.845818
 31
0.0
 11
207.644889
 21
65.674314
 31
0.0
 11
220.105461
 21
86.191007
 31
0.0
 11
227.261869
 21
114.395898
 31
0.0
  0
SPLINE
  5
111
100
AcDbEntity
  8
Layer_1
 62
1
100
AcDbSpline
 70
0
 71
3
 72
16
 73
12
 74
10
 40
0.000000
 40
0.000000
 40
0.000000
 40
0.000000
 40
1.419619
 40
2.803821
 40
4.223441
 40
5.643060
 40
7.027262
 40
8.446881
 40
9.866500
 40
11.250703
 40
12.670322
 40
12.670322
 40
12.670322
 40
12.670322
 10
227.740543
 20
119.454625
 30
0.0
 10
228.197315
 20
119.609539
 30
0.0
 10
229.099463
 20
119.915504
 30
0.0
 10
230.532840
 20
119.528326
 30
0.0
 10
231.631619
 20
118.577887
 30
0.0
 10
232.171736
 20
117.215634
 30
0.0
 10
232.034390
 20
115.764021
 30
0.0
 10
231.248362
 20
114.527244
 30
0.0
 10
229.990823
 20
113.799751
 30
0.0
 10
228.510265
 20
113.688280
 30
0.0
 10
227.681511
 20
114.158015
 30
0.0
 10
227.261900
 20
114.395850
 30
0.0
 11
227.740543
 21
119.454625
 31
0.0
 11
229.123530
 21
119.775040
 31
0.0
 11
230.466681
 21
119.440436
 31
0.0
 11
231.537728
 21
118.508676
 31
0.0
 11
232.060970
 21
117.189003
 31
0.0
 11
231.930584
 21
115.810955
 31
0.0
 11
231.169118
 21
114.612837
 31
0.0
 11
229.942322
 21
113.898490
 31
0.0
 11
228.560250
 21
113.821737
 31
0.0
 11
227.261900
 21
114.395850
 31
0.0
  0
SPLINE
  5
112
100
AcDbEntity
  8
Layer_1
 62
1
100
AcDbSpline
 70
0
 71
3
 72
19
 73
15
 74
13
 40
0.000000
 40
0.000000
 40
0.000000
 40
0.000000
 40
1.350994
 40
2.671118
 40
4.022112
 40
5.373105
 40
6.693230
 40
8.044223
 40
9.395217
 40
10.715342
 40
12.066335
 40
12.204889
 40
12.343404
 40
12.481956
 40
12.481956
 40
12.481956
 40
12.481956
 10
189.880154
 20
52.845818
 30
0.0
 10
190.203093
 20
52.520811
 30
0.0
 10
190.841592
 20
51.878224
 30
0.0
 10
191.147664
 20
50.504656
 30
0.0
 10
190.863530
 20
49.155077
 30
0.0
 10
190.006238
 20
48.060602
 30
0.0
 10
188.763772
 20
47.449582
 30
0.0
 10
187.375994
 20
47.437820
 30
0.0
 10
186.123942
 20
48.036696
 30
0.0
 10
185.257128
 20
49.115245
 30
0.0
 10
185.039213
 20
50.065059
 30
0.0
 10
185.051952
 20
50.607448
 30
0.0
 10
185.061197
 20
50.745775
 30
0.0
 10
185.072732
 20
50.837421
 30
0.0
 10
185.078500
 20
50.883250
 30
0.0
 11
189.880154
 21
52.845818
 31
0.0
 11
190.737633
 21
51.801829
 31
0.0
 11
191.049577
 21
50.519089
 31
0.0
 11
190.767271
 21
49.197921
 31
0.0
 11
189.934223
 21
48.134335
 31
0.0
 11
188.749737
 21
47.551478
 31
0.0
 11
187.398789
 21
47.540374
 31
0.0
 11
186.179779
 21
48.122782
 31
0.0
 11
185.353786
 21
49.152570
 31
0.0
 11
185.049800
 21
50.468920
 31
0.0
 11
185.052951
 21
50.607438
 31
0.0
 11
185.062539
 21
50.745621
 31
0.0
 11
185.078500
 21
50.883250
 31
0.0
  0
SPLINE
  5
113
100
AcDbEntity
  8
Layer_1
 62
1
100
AcDbSpline
 70
0
 71
3
 72
10
 73
6
 74
4
 40
0.000000
 40
0.000000
 40
0.000000
 40
0.000000
 40
14.136727
 40
26.445609
 40
37.103007
 40
37.103007
 40
37.103007
 40
37.103007
 10
148.500000
 20
45.824550
 30
0.0
 10
153.211303
 20
45.894072
 30
0.0
 10
162.024750
 20
46.024126
 30
0.0
 10
174.363955
 20
47.533644
 30
0.0
 10
181.682407
 20
49.821555
 30
0.0
 10
185.078501
 20
50.883249
 30
0.0
 11
148.500000
 21
45.824550
 31
0.0
 11
162.628615
 21
46.303401
 31
0.0
 11
174.821448
 21
47.989634
 31
0.0
 11
185.078501
 21
50.883249
 31
0.0
  0
SPLINE
  5
114
100
AcDbEntity
  8
Layer_1
 62
1
100
AcDbSpline
 70
0
 71
3
 72
10
 73
6
 74
4
 40
0.000000
 40
0.000000
 40
0.000000
 40
0.000000
 40
29.070903
 40
50.497677
 40
68.911879
 40
68.911879
 40
68.911879
 40
68.911879
 10
75.000000
 20
147.664260
 30
0.0
 10
75.292517
 20
137.918418
 30
0.0
 10
75.800635
 20
120.989380
 30
0.0
 10
85.739309
 20
99.265847
 30
0.0
 10
96.154706
 20
90.825497
 30
0.0
 10
100.968625
 20
86.924430
 30
0.0
 11
75.000000
 21
147.664260
 31
0.0
 11
78.122835
 21
118.761573
 31
0.0
 11
87.524358
 21
99.507534
 31
0.0
 11
100.968625
 21
86.924430
 31
0.0
  0
LWPOLYLINE
  5
115
100
AcDbEntity
  8
Layer_1
 62
1
100
AcDbPolyline
 90
2
 70
0
 10
227.740543
 20
119.454625
 30
0.0
 10
228.907000
 20
141.186303
 30
0.0
  0
SPLINE
  5
116
100
AcDbEntity
  8
Layer_1
 62
1
100
AcDbSpline
 70
0
 71
3
 72
10
 73
6
 74
4
 40
0.000000
 40
0.000000
 40
0.000000
 40
0.000000
 40
17.540241
 40
34.426555
 40
50.204779
 40
50.204779
 40
50.204779
 40
50.204779
 10
100.968625
 20
86.924430
 30
0.0
 10
106.067637
 20
84.033242
 30
0.0
 10
116.075563
 20
78.358653
 30
0.0
 10
132.369102
 20
73.755887
 30
0.0
 10
143.246028
 20
73.019810
 30
0.0
 10
148.500000
 20
72.664257
 30
0.0
 11
100.968625
 21
86.924430
 31
0.0
 11
116.568061
 21
78.904603
 31
0.0
 11
132.802464
 21
74.257908
 31
0.0
 11
148.500000
 21
72.664257
 31
0.0
  0
LWPOLYLINE
  5
117
100
AcDbEntity
  8
Layer_1
 62
1
100
AcDbPolyline
 90
2
 70
0
 10
75.000000
 20
156.664260
 30
0.0
 10
75.000000
 20
147.664260
 30
0.0
  0
SPLINE
  5
118
100
AcDbEntity
  8
Layer_1
 62
1
100
AcDbSpline
 70
0
 71
3
 72
16
 73
12
 74
10
 40
0.000000
 40
0.000000
 40
0.000000
 40
0.000000
 40
2.623338
 40
5.209131
 40
7.832469
 40
10.455807
 40
13.041601
 40
15.664938
 40
18.288276
 40
20.874070
 40
23.497407
 40
23.497407
 40
23.497407
 40
23.497407
 10
75.000000
 20
156.664260
 30
0.0
 10
74.910199
 20
157.543168
 30
0.0
 10
74.731884
 20
159.288404
 30
0.0
 10
73.348188
 20
161.594783
 30
0.0
 10
71.322291
 20
163.309535
 30
0.0
 10
68.813216
 20
164.219009
 30
0.0
 10
66.152076
 20
164.219061
 30
0.0
 10
63.642965
 20
163.309683
 30
0.0
 10
61.617002
 20
161.595009
 30
0.0
 10
60.233218
 20
159.288684
 30
0.0
 10
60.054834
 20
157.543454
 30
0.0
 10
59.965000
 20
156.664550
 30
0.0
 11
75.000000
 21
156.664260
 31
0.0
 11
74.542431
 21
159.247384
 31
0.0
 11
73.249577
 21
161.486772
 31
0.0
 11
71.241376
 21
163.174678
 31
0.0
 11
68.775540
 21
164.069974
 31
0.0
 11
66.189746
 21
164.070024
 31
0.0
 11
63.723876
 21
163.174823
 31
0.0
 11
61.715609
 21
161.486995
 31
0.0
 11
60.422669
 21
159.247657
 31
0.0
 11
59.965000
 21
156.664550
 31
0.0
  0
SPLINE
  5
119
100
AcDbEntity
  8
Layer_1
 62
1
100
AcDbSpline
 70
0
 71
3
 72
16
 73
12
 74
10
 40
0.000000
 40
0.000000
 40
0.000000
 40
0.000000
 40
1.418190
 40
2.816084
 40
4.234274
 40
5.652464
 40
7.050358
 40
8.468548
 40
9.886738
 40
11.284632
 40
12.702822
 40
12.702822
 40
12.702822
 40
12.702822
 10
59.965000
 20
141.186303
 30
0.0
 10
60.013559
 20
140.711162
 30
0.0
 10
60.109981
 20
139.767681
 30
0.0
 10
60.858045
 20
138.520859
 30
0.0
 10
61.953279
 20
137.593882
 30
0.0
 10
63.309710
 20
137.102250
 30
0.0
 10
64.748337
 20
137.102258
 30
0.0
 10
66.104763
 20
137.593906
 30
0.0
 10
67.199986
 20
138.520895
 30
0.0
 10
67.948036
 20
139.767726
 30
0.0
 10
68.044447
 20
140.711209
 30
0.0
 10
68.093000
 20
141.186350
 30
0.0
 11
59.965000
 21
141.186303
 31
0.0
 11
60.212399
 21
139.789859
 31
0.0
 11
60.911353
 21
138.579251
 31
0.0
 11
61.997020
 21
137.666788
 31
0.0
 11
63.330076
 21
137.182819
 31
0.0
 11
64.727970
 21
137.182828
 31
0.0
 11
66.061020
 21
137.666811
 31
0.0
 11
67.146677
 21
138.579287
 31
0.0
 11
67.845617
 21
139.789903
 31
0.0
 11
68.093000
 21
141.186350
 31
0.0
  0
LWPOLYLINE
  5
11a
100
AcDbEntity
  8
Layer_1
 62
1
100
AcDbPolyline
 90
2
 70
0
 10
59.965000
 20
141.186303
 30
0.0
 10
59.965000
 20
156.664260
 30
0.0
  0
SPLINE
  5
11b
100
AcDbEntity
  8
Layer_1
 62
1
100
AcDbSpline
 70
0
 71
3
 72
10
 73
6
 74
4
 40
0.000000
 40
0.000000
 40
0.000000
 40
0.000000
 40
14.136727
 40
26.445609
 40
37.103007
 40
37.103007
 40
37.103007
 40
37.103007
 10
148.500000
 20
45.824550
 30
0.0
 10
143.788697
 20
45.894072
 30
0.0
 10
134.975250
 20
46.024126
 30
0.0
 10
122.636045
 20
47.533644
 30
0.0
 10
115.317593
 20
49.821555
 30
0.0
 10
111.921499
 20
50.883249
 30
0.0
 11
148.500000
 21
45.824550
 31
0.0
 11
134.371385
 21
46.303401
 31
0.0
 11
122.178552
 21
47.989634
 31
0.0
 11
111.921499
 21
50.883249
 31
0.0
  0
SPLINE
  5
11c
100
AcDbEntity
  8
Layer_1
 62
1
100
AcDbSpline
 70
0
 71
3
 72
19
 73
15
 74
13
 40
0.000000
 40
0.000000
 40
0.000000
 40
0.000000
 40
1.350994
 40
2.671118
 40
4.022112
 40
5.373105
 40
6.693230
 40
8.044223
 40
9.395217
 40
10.715342
 40
12.066335
 40
12.204889
 40
12.343404
 40
12.481956
 40
12.481956
 40
12.481956
 40
12.481956
 10
107.119846
 20
52.845818
 30
0.0
 10
106.796907
 20
52.520811
 30
0.0
 10
106.158408
 20
51.878224
 30
0.0
 10
105.852336
 20
50.504656
 30
0.0
 10
106.136470
 20
49.155077
 30
0.0
 10
106.993762
 20
48.060602
 30
0.0
 10
108.236228
 20
47.449582
 30
0.0
 10
109.624006
 20
47.437820
 30
0.0
 10
110.876058
 20
48.036696
 30
0.0
 10
111.742872
 20
49.115245
 30
0.0
 10
111.960787
 20
50.065059
 30
0.0
 10
111.948048
 20
50.607448
 30
0.0
 10
111.938803
 20
50.745775
 30
0.0
 10
111.927268
 20
50.837421
 30
0.0
 10
111.921500
 20
50.883250
 30
0.0
 11
107.119846
 21
52.845818
 31
0.0
 11
106.262367
 21
51.801829
 31
0.0
 11
105.950423
 21
50.519089
 31
0.0
 11
106.232729
 21
49.197921
 31
0.0
 11
107.065777
 21
48.134335
 31
0.0
 11
108.250263
 21
47.551478
 31
0.0
 11
109.601211
 21
47.540374
 31
0.0
 11
110.820221
 21
48.122782
 31
0.0
 11
111.646214
 21
49.152570
 31
0.0
 11
111.950200
 21
50.468920
 31
0.0
 11
111.947049
 21
50.607438
 31
0.0
 11
111.937461
 21
50.745621
 31
0.0
 11
111.921500
 21
50.883250
 31
0.0
  0
SPLINE
  5
11d
100
AcDbEntity
  8
Layer_1
 62
1
100
AcDbSpline
 70
0
 71
3
 72
16
 73
12
 74
10
 40
0.000000
 40
0.000000
 40
0.000000
 40
0.000000
 40
1.419619
 40
2.803821
 40
4.223441
 40
5.643060
 40
7.027262
 40
8.446881
 40
9.866500
 40
11.250703
 40
12.670322
 40
12.670322
 40
12.670322
 40
12.670322
 10
69.259457
 20
119.454625
 30
0.0
 10
68.802685
 20
119.609539
 30
0.0
 10
67.900537
 20
119.915504
 30
0.0
 10
66.467160
 20
119.528326
 30
0.0
 10
65.368381
 20
118.577887
 30
0.0
 10
64.828264
 20
117.215634
 30
0.0
 10
64.965610
 20
115.764021
 30
0.0
 10
65.751638
 20
114.527244
 30
0.0
 10
67.009177
 20
113.799751
 30
0.0
 10
68.489735
 20
113.688280
 30
0.0
 10
69.318489
 20
114.158015
 30
0.0
 10
69.738100
 20
114.395850
 30
0.0
 11
69.259457
 21
119.454625
 31
0.0
 11
67.876470
 21
119.775040
 31
0.0
 11
66.533319
 21
119.440436
 31
0.0
 11
65.462272
 21
118.508676
 31
0.0
 11
64.939030
 21
117.189003
 31
0.0
 11
65.069416
 21
115.810955
 31
0.0
 11
65.830882
 21
114.612837
 31
0.0
 11
67.057678
 21
113.898490
 31
0.0
 11
68.439750
 21
113.821737
 31
0.0
 11
69.738100
 21
114.395850
 31
0.0
  0
LWPOLYLINE
  5
11e
100
AcDbEntity
  8
Layer_1
 62
1
100
AcDbPolyline
 90
2
 70
0
 10
69.259457
 20
119.454625
 30
0.0
 10
68.093000
 20
141.186303
 30
0.0
  0
SPLINE
  5
11f
100
AcDbEntity
  8
Layer_1
 62
1
100
AcDbSpline
 70
0
 71
3
 72
10
 73
6
 74
4
 40
0.000000
 40
0.000000
 40
0.000000
 40
0.000000
 40
21.912465
 40
45.916642
 40
75.015269
 40
75.015269
 40
75.015269
 40
75.015269
 10
107.119846
 20
52.845818
 30
0.0
 10
100.772476
 20
56.671183
 30
0.0
 10
87.471829
 20
64.687074
 30
0.0
 10
74.905592
 20
87.484437
 30
0.0
 10
71.567369
 20
104.869463
 30
0.0
 10
69.738131
 20
114.395898
 30
0.0
 11
107.119846
 21
52.845818
 31
0.0
 11
89.355111
 21
65.674314
 31
0.0
 11
76.894539
 21
86.191007
 31
0.0
 11
69.738131
 21
114.395898
 31
0.0
  0
SPLINE
  5
120
100
AcDbEntity
  8
Layer_1
 62
1
100
AcDbSpline
 70
0
 71
3
 72
13
 73
9
 74
7
 40
0.000000
 40
0.000000
 40
0.000000
 40
0.000000
 40
0.522362
 40
1.029260
 40
1.551623
 40
2.073985
 40
2.580883
 40
3.103245
 40
3.103245
 40
3.103245
 40
3.103245
 10
70.482500
 20
149.664260
 30
0.0
 10
70.658564
 20
149.692011
 30
0.0
 10
71.005479
 20
149.746692
 30
0.0
 10
71.387120
 20
150.144419
 30
0.0
 10
71.528516
 20
150.664405
 30
0.0
 10
71.387120
 20
151.184391
 30
0.0
 10
71.005479
 20
151.582118
 30
0.0
 10
70.658564
 20
151.636799
 30
0.0
 10
70.482500
 20
151.664550
 30
0.0
 11
70.482500
 21
149.664260
 31
0.0
 11
70.986543
 21
149.801384
 31
0.0
 11
71.344664
 21
150.160125
 31
0.0
 11
71.480914
 21
150.664405
 31
0.0
 11
71.344664
 21
151.168685
 31
0.0
 11
70.986543
 21
151.527426
 31
0.0
 11
70.482500
 21
151.664550
 31
0.0
  0
LWPOLYLINE
  5
121
100
AcDbEntity
  8
Layer_1
 62
1
100
AcDbPolyline
 90
2
 70
0
 10
64.482500
 20
151.664260
 30
0.0
 10
70.482500
 20
151.664260
 30
0.0
  0
LWPOLYLINE
  5
122
100
AcDbEntity
  8
Layer_1
 62
1
100
AcDbPolyline
 90
2
 70
0
 10
64.482500
 20
149.664260
 30
0.0
 10
70.482500
 20
149.664260
 30
0.0
  0
SPLINE
  5
123
100
AcDbEntity
  8
Layer_1
 62
1
100
AcDbSpline
 70
0
 71
3
 72
16
 73
12
 74
10
 40
0.000000
 40
0.000000
 40
0.000000
 40
0.000000
 40
0.352743
 40
0.700335
 40
1.053078
 40
1.405820
 40
1.753412
 40
2.106155
 40
2.458898
 40
2.806490
 40
3.159233
 40
3.159233
 40
3.159233
 40
3.159233
 10
64.482500
 20
151.664260
 30
0.0
 10
64.364115
 20
151.654061
 30
0.0
 10
64.129075
 20
151.633813
 30
0.0
 10
63.816720
 20
151.451150
 30
0.0
 10
63.584027
 20
151.180419
 30
0.0
 10
63.460425
 20
150.843375
 30
0.0
 10
63.460425
 20
150.485435
 30
0.0
 10
63.584027
 20
150.148391
 30
0.0
 10
63.816720
 20
149.877660
 30
0.0
 10
64.129075
 20
149.694997
 30
0.0
 10
64.364115
 20
149.674749
 30
0.0
 10
64.482500
 20
149.664550
 30
0.0
 11
64.482500
 21
151.664260
 31
0.0
 11
64.134275
 21
151.607983
 31
0.0
 11
63.831298
 21
151.437616
 31
0.0
 11
63.602298
 21
151.169313
 31
0.0
 11
63.480674
 21
150.838201
 31
0.0
 11
63.480674
 21
150.490609
 31
0.0
 11
63.602298
 21
150.159497
 31
0.0
 11
63.831298
 21
149.891194
 31
0.0
 11
64.134275
 21
149.720827
 31
0.0
 11
64.482500
 21
149.664550
 31
0.0
  0
SPLINE
  5
124
100
AcDbEntity
  8
Layer_1
 62
1
100
AcDbSpline
 70
0
 71
3
 72
13
 73
9
 74
7
 40
0.000000
 40
0.000000
 40
0.000000
 40
0.000000
 40
0.522362
 40
1.029260
 40
1.551623
 40
2.073985
 40
2.580883
 40
3.103245
 40
3.103245
 40
3.103245
 40
3.103245
 10
70.482500
 20
155.664260
 30
0.0
 10
70.658564
 20
155.692011
 30
0.0
 10
71.005479
 20
155.746692
 30
0.0
 10
71.387120
 20
156.144419
 30
0.0
 10
71.528516
 20
156.664405
 30
0.0
 10
71.387120
 20
157.184391
 30
0.0
 10
71.005479
 20
157.582118
 30
0.0
 10
70.658564
 20
157.636799
 30
0.0
 10
70.482500
 20
157.664550
 30
0.0
 11
70.482500
 21
155.664260
 31
0.0
 11
70.986543
 21
155.801384
 31
0.0
 11
71.344664
 21
156.160125
 31
0.0
 11
71.480914
 21
156.664405
 31
0.0
 11
71.344664
 21
157.168685
 31
0.0
 11
70.986543
 21
157.527426
 31
0.0
 11
70.482500
 21
157.664550
 31
0.0
  0
LWPOLYLINE
  5
125
100
AcDbEntity
  8
Layer_1
 62
1
100
AcDbPolyline
 90
2
 70
0
 10
64.482500
 20
157.664260
 30
0.0
 10
70.482500
 20
157.664260
 30
0.0
  0
LWPOLYLINE
  5
126
100
AcDbEntity
  8
Layer_1
 62
1
100
AcDbPolyline
 90
2
 70
0
 10
64.482500
 20
155.664260
 30
0.0
 10
70.482500
 20
155.664260
 30
0.0
  0
SPLINE
  5
127
100
AcDbEntity
  8
Layer_1
 62
1
100
AcDbSpline
 70
0
 71
3
 72
13
 73
9
 74
7
 40
0.000000
 40
0.000000
 40
0.000000
 40
0.000000
 40
0.517221
 40
1.019382
 40
1.536603
 40
2.053823
 40
2.555984
 40
3.073205
 40
3.073205
 40
3.073205
 40
3.073205
 10
64.482500
 20
157.664260
 30
0.0
 10
64.308642
 20
157.634405
 30
0.0
 10
63.965989
 20
157.575565
 30
0.0
 10
63.591495
 20
157.179278
 30
0.0
 10
63.452866
 20
156.664405
 30
0.0
 10
63.591495
 20
156.149532
 30
0.0
 10
63.965989
 20
155.753245
 30
0.0
 10
64.308642
 20
155.694405
 30
0.0
 10
64.482500
 20
155.664550
 30
0.0
 11
64.482500
 21
157.664260
 31
0.0
 11
63.985181
 21
157.522163
 31
0.0
 11
63.633136
 21
157.164071
 31
0.0
 11
63.499529
 21
156.664405
 31
0.0
 11
63.633136
 21
156.164739
 31
0.0
 11
63.985181
 21
155.806647
 31
0.0
 11
64.482500
 21
155.664550
 31
0.0
  0
SPLINE
  5
128
100
AcDbEntity
  8
Layer_1
 62
1
100
AcDbSpline
 70
0
 71
3
 72
13
 73
9
 74
7
 40
0.000000
 40
0.000000
 40
0.000000
 40
0.000000
 40
0.522362
 40
1.029260
 40
1.551623
 40
2.073985
 40
2.580883
 40
3.103245
 40
3.103245
 40
3.103245
 40
3.103245
 10
226.517500
 20
149.664260
 30
0.0
 10
226.341436
 20
149.692011
 30
0.0
 10
225.994521
 20
149.746692
 30
0.0
 10
225.612880
 20
150.144419
 30
0.0
 10
225.471484
 20
150.664405
 30
0.0
 10
225.612880
 20
151.184391
 30
0.0
 10
225.994521
 20
151.582118
 30
0.0
 10
226.341436
 20
151.636799
 30
0.0
 10
226.517500
 20
151.664550
 30
0.0
 11
226.517500
 21
149.664260
 31
0.0
 11
226.013457
 21
149.801384
 31
0.0
 11
225.655336
 21
150.160125
 31
0.0
 11
225.519086
 21
150.664405
 31
0.0
 11
225.655336
 21
151.168685
 31
0.0
 11
226.013457
 21
151.527426
 31
0.0
 11
226.517500
 21
151.664550
 31
0.0
  0
LWPOLYLINE
  5
129
100
AcDbEntity
  8
Layer_1
 62
1
100
AcDbPolyline
 90
2
 70
0
 10
232.517500
 20
151.664260
 30
0.0
 10
226.517500
 20
151.664260
 30
0.0
  0
LWPOLYLINE
  5
12a
100
AcDbEntity
  8
Layer_1
 62
1
100
AcDbPolyline
 90
2
 70
0
 10
232.517500
 20
149.664260
 30
0.0
 10
226.517500
 20
149.664260
 30
0.0
  0
SPLINE
  5
12b
100
AcDbEntity
  8
Layer_1
 62
1
100
AcDbSpline
 70
0
 71
3
 72
16
 73
12
 74
10
 40
0.000000
 40
0.000000
 40
0.000000
 40
0.000000
 40
0.352743
 40
0.700335
 40
1.053078
 40
1.405820
 40
1.753412
 40
2.106155
 40
2.458898
 40
2.806490
 40
3.159233
 40
3.159233
 40
3.159233
 40
3.159233
 10
232.517500
 20
151.664260
 30
0.0
 10
232.635885
 20
151.654061
 30
0.0
 10
232.870925
 20
151.633813
 30
0.0
 10
233.183280
 20
151.451150
 30
0.0
 10
233.415973
 20
151.180419
 30
0.0
 10
233.539575
 20
150.843375
 30
0.0
 10
233.539575
 20
150.485435
 30
0.0
 10
233.415973
 20
150.148391
 30
0.0
 10
233.183280
 20
149.877660
 30
0.0
 10
232.870925
 20
149.694997
 30
0.0
 10
232.635885
 20
149.674749
 30
0.0
 10
232.517500
 20
149.664550
 30
0.0
 11
232.517500
 21
151.664260
 31
0.0
 11
232.865725
 21
151.607983
 31
0.0
 11
233.168702
 21
151.437616
 31
0.0
 11
233.397702
 21
151.169313
 31
0.0
 11
233.519326
 21
150.838201
 31
0.0
 11
233.519326
 21
150.490609
 31
0.0
 11
233.397702
 21
150.159497
 31
0.0
 11
233.168702
 21
149.891194
 31
0.0
 11
232.865725
 21
149.720827
 31
0.0
 11
232.517500
 21
149.664550
 31
0.0
  0
SPLINE
  5
12c
100
AcDbEntity
  8
Layer_1
 62
1
100
AcDbSpline
 70
0
 71
3
 72
13
 73
9
 74
7
 40
0.000000
 40
0.000000
 40
0.000000
 40
0.000000
 40
0.522362
 40
1.029260
 40
1.551623
 40
2.073985
 40
2.580883
 40
3.103245
 40
3.103245
 40
3.103245
 40
3.103245
 10
226.517500
 20
155.664260
 30
0.0
 10
226.341436
 20
155.692011
 30
0.0
 10
225.994521
 20
155.746692
 30
0.0
 10
225.612880
 20
156.144419
 30
0.0
 10
225.471484
 20
156.664405
 30
0.0
 10
225.612880
 20
157.184391
 30
0.0
 10
225.994521
 20
157.582118
 30
0.0
 10
226.341436
 20
157.636799
 30
0.0
 10
226.517500
 20
157.664550
 30
0.0
 11
226.517500
 21
155.664260
 31
0.0
 11
226.013457
 21
155.801384
 31
0.0
 11
225.655336
 21
156.160125
 31
0.0
 11
225.519086
 21
156.664405
 31
0.0
 11
225.655336
 21
157.168685
 31
0.0
 11
226.013457
 21
157.527426
 31
0.0
 11
226.517500
 21
157.664550
 31
0.0
  0
LWPOLYLINE
  5
12d
100
AcDbEntity
  8
Layer_1
 62
1
100
AcDbPolyline
 90
2
 70
0
 10
232.517500
 20
157.664260
 30
0.0
 10
226.517500
 20
157.664260
 30
0.0
  0
SPLINE
  5
12e
100
AcDbEntity
  8
Layer_1
 62
1
100
AcDbSpline
 70
0
 71
3
 72
13
 73
9
 74
7
 40
0.000000
 40
0.000000
 40
0.000000
 40
0.000000
 40
0.517221
 40
1.019382
 40
1.536603
 40
2.053823
 40
2.555984
 40
3.073205
 40
3.073205
 40
3.073205
 40
3.073205
 10
232.517500
 20
157.664260
 30
0.0
 10
232.691358
 20
157.634405
 30
0.0
 10
233.034011
 20
157.575565
 30
0.0
 10
233.408505
 20
157.179278
 30
0.0
 10
233.547134
 20
156.664405
 30
0.0
 10
233.408505
 20
156.149532
 30
0.0
 10
233.034011
 20
155.753245
 30
0.0
 10
232.691358
 20
155.694405
 30
0.0
 10
232.517500
 20
155.664550
 30
0.0
 11
232.517500
 21
157.664260
 31
0.0
 11
233.014819
 21
157.522163
 31
0.0
 11
233.366864
 21
157.164071
 31
0.0
 11
233.500471
 21
156.664405
 31
0.0
 11
233.366864
 21
156.164739
 31
0.0
 11
233.014819
 21
155.806647
 31
0.0
 11
232.517500
 21
155.664550
 31
0.0
  0
LWPOLYLINE
  5
12f
100
AcDbEntity
  8
Layer_1
 62
1
100
AcDbPolyline
 90
2
 70
0
 10
232.517500
 20
155.664260
 30
0.0
 10
226.517500
 20
155.664260
 30
0.0
  0
SPLINE
  5
130
100
AcDbEntity
  8
Layer_1
 62
1
100
AcDbSpline
 70
0
 71
3
 72
25
 73
21
 74
19
 40
0.000000
 40
0.000000
 40
0.000000
 40
0.000000
 40
0.872410
 40
1.732335
 40
2.604745
 40
3.477156
 40
4.337080
 40
5.209491
 40
6.081901
 40
6.941826
 40
7.814236
 40
8.686646
 40
9.546571
 40
10.418981
 40
11.291392
 40
12.151316
 40
13.023727
 40
13.896137
 40
14.756062
 40
15.628472
 40
15.628472
 40
15.628472
 40
15.628472
 10
124.000000
 20
62.664256
 30
0.0
 10
123.970130
 20
62.956543
 30
0.0
 10
123.910818
 20
63.536933
 30
0.0
 10
123.450651
 20
64.303927
 30
0.0
 10
122.776889
 20
64.874167
 30
0.0
 10
121.942562
 20
65.176604
 30
0.0
 10
121.057247
 20
65.176604
 30
0.0
 10
120.224088
 20
64.874167
 30
0.0
 10
119.545660
 20
64.303927
 30
0.0
 10
119.102829
 20
63.536933
 30
0.0
 10
118.948215
 20
62.664256
 30
0.0
 10
119.102829
 20
61.791579
 30
0.0
 10
119.545660
 20
61.024585
 30
0.0
 10
120.224088
 20
60.454345
 30
0.0
 10
121.057247
 20
60.151908
 30
0.0
 10
121.942562
 20
60.151908
 30
0.0
 10
122.776889
 20
60.454345
 30
0.0
 10
123.450651
 20
61.024585
 30
0.0
 10
123.910818
 20
61.791579
 30
0.0
 10
123.970130
 20
62.371969
 30
0.0
 10
124.000000
 20
62.664256
 30
0.0
 11
124.000000
 21
62.664256
 31
0.0
 11
123.847815
 21
63.523290
 31
0.0
 11
123.417853
 21
64.268007
 31
0.0
 11
122.750000
 21
64.829320
 31
0.0
 11
121.929962
 21
65.127041
 31
0.0
 11
121.070038
 21
65.127041
 31
0.0
 11
120.250000
 21
64.829320
 31
0.0
 11
119.582147
 21
64.268007
 31
0.0
 11
119.152185
 21
63.523290
 31
0.0
 11
119.000000
 21
62.664256
 31
0.0
 11
119.152185
 21
61.805222
 31
0.0
 11
119.582147
 21
61.060505
 31
0.0
 11
120.250000
 21
60.499192
 31
0.0
 11
121.070038
 21
60.201471
 31
0.0
 11
121.929962
 21
60.201471
 31
0.0
 11
122.750000
 21
60.499192
 31
0.0
 11
123.417853
 21
61.060505
 31
0.0
 11
123.847815
 21
61.805222
 31
0.0
 11
124.000000
 21
62.664256
 31
0.0
  0
LWPOLYLINE
  5
131
100
AcDbEntity
  8
Layer_1
 62
1
100
AcDbPolyline
 90
1
 70
1
 10
124.000000
 20
62.664256
 30
0.0
  0
LWPOLYLINE
  5
132
100
AcDbEntity
  8
Layer_1
 62
1
100
AcDbPolyline
 90
1
 70
1
 10
97.000000
 20
77.664256
 30
0.0
  0
LWPOLYLINE
  5
133
100
AcDbEntity
  8
Layer_1
 62
1
100
AcDbPolyline
 90
157
 70
1
 10
173.000000
 20
62.664257
 30
0.0
 10
173.002000
 20
62.764281
 30
0.0
 10
173.008000
 20
62.864141
 30
0.0
 10
173.018000
 20
62.963681
 30
0.0
 10
173.031970
 20
63.062741
 30
0.0
 10
173.049890
 20
63.161171
 30
0.0
 10
173.071730
 20
63.258801
 30
0.0
 10
173.097460
 20
63.355481
 30
0.0
 10
173.127040
 20
63.451051
 30
0.0
 10
173.160420
 20
63.545361
 30
0.0
 10
173.197550
 20
63.638261
 30
0.0
 10
173.238360
 20
63.729601
 30
0.0
 10
173.282790
 20
63.819241
 30
0.0
 10
173.330780
 20
63.907031
 30
0.0
 10
173.382240
 20
63.992821
 30
0.0
 10
173.437090
 20
64.076491
 30
0.0
 10
173.495240
 20
64.157901
 30
0.0
 10
173.556610
 20
64.236911
 30
0.0
 10
173.621090
 20
64.313411
 30
0.0
 10
173.688580
 20
64.387261
 30
0.0
 10
173.758970
 20
64.458351
 30
0.0
 10
173.832140
 20
64.526571
 30
0.0
 10
173.907990
 20
64.591811
 30
0.0
 10
173.986390
 20
64.653961
 30
0.0
 10
174.067210
 20
64.712931
 30
0.0
 10
174.150320
 20
64.768621
 30
0.0
 10
174.235600
 20
64.820941
 30
0.0
 10
174.322900
 20
64.869801
 30
0.0
 10
174.412080
 20
64.915131
 30
0.0
 10
174.503010
 20
64.956861
 30
0.0
 10
174.595530
 20
64.994911
 30
0.0
 10
174.689500
 20
65.029231
 30
0.0
 10
174.784770
 20
65.059771
 30
0.0
 10
174.881190
 20
65.086471
 30
0.0
 10
174.978600
 20
65.109291
 30
0.0
 10
175.076840
 20
65.128191
 30
0.0
 10
175.175760
 20
65.143151
 30
0.0
 10
175.275200
 20
65.154141
 30
0.0
 10
175.375000
 20
65.161141
 30
0.0
 10
175.475000
 20
65.164141
 30
0.0
 10
175.575039
 20
65.163141
 30
0.0
 10
175.674959
 20
65.158141
 30
0.0
 10
175.774599
 20
65.149141
 30
0.0
 10
175.873799
 20
65.136161
 30
0.0
 10
175.972399
 20
65.119231
 30
0.0
 10
176.070239
 20
65.098361
 30
0.0
 10
176.167169
 20
65.073601
 30
0.0
 10
176.263029
 20
65.044981
 30
0.0
 10
176.357669
 20
65.012551
 30
0.0
 10
176.450939
 20
64.976361
 30
0.0
 10
176.542679
 20
64.936461
 30
0.0
 10
176.632749
 20
64.892921
 30
0.0
 10
176.721009
 20
64.845811
 30
0.0
 10
176.807319
 20
64.795211
 30
0.0
 10
176.891529
 20
64.741201
 30
0.0
 10
176.973509
 20
64.683861
 30
0.0
 10
177.053129
 20
64.623291
 30
0.0
 10
177.130269
 20
64.559581
 30
0.0
 10
177.204799
 20
64.492841
 30
0.0
 10
177.276599
 20
64.423171
 30
0.0
 10
177.345549
 20
64.350681
 30
0.0
 10
177.411549
 20
64.275491
 30
0.0
 10
177.474479
 20
64.197721
 30
0.0
 10
177.534249
 20
64.117501
 30
0.0
 10
177.590759
 20
64.034951
 30
0.0
 10
177.643929
 20
63.950201
 30
0.0
 10
177.693659
 20
63.863391
 30
0.0
 10
177.739879
 20
63.774661
 30
0.0
 10
177.782509
 20
63.684151
 30
0.0
 10
177.821489
 20
63.592011
 30
0.0
 10
177.856749
 20
63.498391
 30
0.0
 10
177.888239
 20
63.403431
 30
0.0
 10
177.915899
 20
63.307291
 30
0.0
 10
177.939689
 20
63.210121
 30
0.0
 10
177.959579
 20
63.112071
 30
0.0
 10
177.975529
 20
63.013311
 30
0.0
 10
177.987509
 20
62.913991
 30
0.0
 10
177.995509
 20
62.814271
 30
0.0
 10
177.999509
 20
62.714311
 30
0.0
 10
177.999509
 20
62.614267
 30
0.0
 10
177.995509
 20
62.514307
 30
0.0
 10
177.987509
 20
62.414587
 30
0.0
 10
177.975529
 20
62.315267
 30
0.0
 10
177.959579
 20
62.216507
 30
0.0
 10
177.939689
 20
62.118457
 30
0.0
 10
177.915899
 20
62.021287
 30
0.0
 10
177.888239
 20
61.925147
 30
0.0
 10
177.856749
 20
61.830187
 30
0.0
 10
177.821489
 20
61.736557
 30
0.0
 10
177.782509
 20
61.644417
 30
0.0
 10
177.739879
 20
61.553907
 30
0.0
 10
177.693659
 20
61.465177
 30
0.0
 10
177.643929
 20
61.378367
 30
0.0
 10
177.590759
 20
61.293617
 30
0.0
 10
177.534249
 20
61.211067
 30
0.0
 10
177.474479
 20
61.130837
 30
0.0
 10
177.411549
 20
61.053067
 30
0.0
 10
177.345549
 20
60.977877
 30
0.0
 10
177.276599
 20
60.905387
 30
0.0
 10
177.204799
 20
60.835717
 30
0.0
 10
177.130269
 20
60.768977
 30
0.0
 10
177.053129
 20
60.705267
 30
0.0
 10
176.973509
 20
60.644697
 30
0.0
 10
176.891529
 20
60.587357
 30
0.0
 10
176.807319
 20
60.533347
 30
0.0
 10
176.721009
 20
60.482747
 30
0.0
 10
176.632749
 20
60.435637
 30
0.0
 10
176.542679
 20
60.392097
 30
0.0
 10
176.450939
 20
60.352197
 30
0.0
 10
176.357669
 20
60.316007
 30
0.0
 10
176.263029
 20
60.283577
 30
0.0
 10
176.167169
 20
60.254957
 30
0.0
 10
176.070239
 20
60.230197
 30
0.0
 10
175.972399
 20
60.209327
 30
0.0
 10
175.873799
 20
60.192397
 30
0.0
 10
175.774599
 20
60.179417
 30
0.0
 10
175.674959
 20
60.170417
 30
0.0
 10
175.575039
 20
60.165417
 30
0.0
 10
175.475000
 20
60.164417
 30
0.0
 10
175.375000
 20
60.167417
 30
0.0
 10
175.275200
 20
60.174417
 30
0.0
 10
175.175760
 20
60.185407
 30
0.0
 10
175.076840
 20
60.200367
 30
0.0
 10
174.978600
 20
60.219267
 30
0.0
 10
174.881190
 20
60.242087
 30
0.0
 10
174.784770
 20
60.268787
 30
0.0
 10
174.689500
 20
60.299317
 30
0.0
 10
174.595530
 20
60.333637
 30
0.0
 10
174.503010
 20
60.371687
 30
0.0
 10
174.412080
 20
60.413417
 30
0.0
 10
174.322900
 20
60.458747
 30
0.0
 10
174.235600
 20
60.507607
 30
0.0
 10
174.150320
 20
60.559927
 30
0.0
 10
174.067210
 20
60.615607
 30
0.0
 10
173.986390
 20
60.674577
 30
0.0
 10
173.907990
 20
60.736727
 30
0.0
 10
173.832140
 20
60.801967
 30
0.0
 10
173.758970
 20
60.870187
 30
0.0
 10
173.688580
 20
60.941277
 30
0.0
 10
173.621090
 20
61.015127
 30
0.0
 10
173.556610
 20
61.091617
 30
0.0
 10
173.495240
 20
61.170627
 30
0.0
 10
173.437090
 20
61.252037
 30
0.0
 10
173.382240
 20
61.335707
 30
0.0
 10
173.330780
 20
61.421497
 30
0.0
 10
173.282790
 20
61.509287
 30
0.0
 10
173.238360
 20
61.598927
 30
0.0
 10
173.197550
 20
61.690267
 30
0.0
 10
173.160420
 20
61.783167
 30
0.0
 10
173.127040
 20
61.877477
 30
0.0
 10
173.097460
 20
61.973047
 30
0.0
 10
173.071730
 20
62.069727
 30
0.0
 10
173.049890
 20
62.167357
 30
0.0
 10
173.031970
 20
62.265787
 30
0.0
 10
173.018000
 20
62.364847
 30
0.0
 10
173.008000
 20
62.464387
 30
0.0
 10
173.002000
 20
62.564247
 30
0.0
  0
LWPOLYLINE
  5
134
100
AcDbEntity
  8
Layer_1
 62
1
100
AcDbPolyline
 90
157
 70
1
 10
200.000000
 20
77.664257
 30
0.0
 10
200.002000
 20
77.764281
 30
0.0
 10
200.008000
 20
77.864141
 30
0.0
 10
200.018000
 20
77.963681
 30
0.0
 10
200.031970
 20
78.062741
 30
0.0
 10
200.049890
 20
78.161171
 30
0.0
 10
200.071730
 20
78.258801
 30
0.0
 10
200.097460
 20
78.355481
 30
0.0
 10
200.127040
 20
78.451051
 30
0.0
 10
200.160420
 20
78.545361
 30
0.0
 10
200.197550
 20
78.638261
 30
0.0
 10
200.238360
 20
78.729601
 30
0.0
 10
200.282790
 20
78.819241
 30
0.0
 10
200.330780
 20
78.907021
 30
0.0
 10
200.382240
 20
78.992811
 30
0.0
 10
200.437090
 20
79.076481
 30
0.0
 10
200.495240
 20
79.157881
 30
0.0
 10
200.556610
 20
79.236891
 30
0.0
 10
200.621090
 20
79.313391
 30
0.0
 10
200.688580
 20
79.387241
 30
0.0
 10
200.758970
 20
79.458331
 30
0.0
 10
200.832140
 20
79.526551
 30
0.0
 10
200.907990
 20
79.591791
 30
0.0
 10
200.986390
 20
79.653941
 30
0.0
 10
201.067210
 20
79.712911
 30
0.0
 10
201.150320
 20
79.768591
 30
0.0
 10
201.235600
 20
79.820911
 30
0.0
 10
201.322900
 20
79.869771
 30
0.0
 10
201.412090
 20
79.915101
 30
0.0
 10
201.503020
 20
79.956831
 30
0.0
 10
201.595540
 20
79.994881
 30
0.0
 10
201.689510
 20
80.029201
 30
0.0
 10
201.784780
 20
80.059741
 30
0.0
 10
201.881200
 20
80.086441
 30
0.0
 10
201.978610
 20
80.109261
 30
0.0
 10
202.076850
 20
80.128161
 30
0.0
 10
202.175770
 20
80.143121
 30
0.0
 10
202.275210
 20
80.154111
 30
0.0
 10
202.375010
 20
80.161111
 30
0.0
 10
202.475010
 20
80.164111
 30
0.0
 10
202.575049
 20
80.163111
 30
0.0
 10
202.674969
 20
80.158111
 30
0.0
 10
202.774609
 20
80.149111
 30
0.0
 10
202.873809
 20
80.136131
 30
0.0
 10
202.972409
 20
80.119201
 30
0.0
 10
203.070249
 20
80.098331
 30
0.0
 10
203.167179
 20
80.073571
 30
0.0
 10
203.263039
 20
80.044951
 30
0.0
 10
203.357679
 20
80.012521
 30
0.0
 10
203.450949
 20
79.976331
 30
0.0
 10
203.542699
 20
79.936431
 30
0.0
 10
203.632769
 20
79.892891
 30
0.0
 10
203.721029
 20
79.845781
 30
0.0
 10
203.807339
 20
79.795181
 30
0.0
 10
203.891549
 20
79.741171
 30
0.0
 10
203.973529
 20
79.683831
 30
0.0
 10
204.053149
 20
79.623261
 30
0.0
 10
204.130289
 20
79.559551
 30
0.0
 10
204.204819
 20
79.492811
 30
0.0
 10
204.276609
 20
79.423141
 30
0.0
 10
204.345559
 20
79.350651
 30
0.0
 10
204.411559
 20
79.275461
 30
0.0
 10
204.474489
 20
79.197691
 30
0.0
 10
204.534259
 20
79.117471
 30
0.0
 10
204.590769
 20
79.034921
 30
0.0
 10
204.643939
 20
78.950171
 30
0.0
 10
204.693669
 20
78.863361
 30
0.0
 10
204.739889
 20
78.774631
 30
0.0
 10
204.782519
 20
78.684121
 30
0.0
 10
204.821499
 20
78.591981
 30
0.0
 10
204.856759
 20
78.498351
 30
0.0
 10
204.888249
 20
78.403391
 30
0.0
 10
204.915909
 20
78.307251
 30
0.0
 10
204.939699
 20
78.210081
 30
0.0
 10
204.959579
 20
78.112031
 30
0.0
 10
204.975529
 20
78.013271
 30
0.0
 10
204.987509
 20
77.913951
 30
0.0
 10
204.995509
 20
77.814231
 30
0.0
 10
204.999509
 20
77.714271
 30
0.0
 10
204.999509
 20
77.614227
 30
0.0
 10
204.995509
 20
77.514267
 30
0.0
 10
204.987509
 20
77.414547
 30
0.0
 10
204.975529
 20
77.315227
 30
0.0
 10
204.959579
 20
77.216467
 30
0.0
 10
204.939699
 20
77.118417
 30
0.0
 10
204.915909
 20
77.021247
 30
0.0
 10
204.888249
 20
76.925107
 30
0.0
 10
204.856759
 20
76.830147
 30
0.0
 10
204.821499
 20
76.736517
 30
0.0
 10
204.782519
 20
76.644377
 30
0.0
 10
204.739889
 20
76.553867
 30
0.0
 10
204.693669
 20
76.465137
 30
0.0
 10
204.643939
 20
76.378327
 30
0.0
 10
204.590769
 20
76.293577
 30
0.0
 10
204.534259
 20
76.211027
 30
0.0
 10
204.474489
 20
76.130797
 30
0.0
 10
204.411559
 20
76.053027
 30
0.0
 10
204.345559
 20
75.977837
 30
0.0
 10
204.276609
 20
75.905347
 30
0.0
 10
204.204819
 20
75.835677
 30
0.0
 10
204.130289
 20
75.768937
 30
0.0
 10
204.053149
 20
75.705227
 30
0.0
 10
203.973529
 20
75.644657
 30
0.0
 10
203.891549
 20
75.587317
 30
0.0
 10
203.807339
 20
75.533307
 30
0.0
 10
203.721029
 20
75.482707
 30
0.0
 10
203.632769
 20
75.435597
 30
0.0
 10
203.542699
 20
75.392057
 30
0.0
 10
203.450949
 20
75.352157
 30
0.0
 10
203.357679
 20
75.315967
 30
0.0
 10
203.263039
 20
75.283537
 30
0.0
 10
203.167179
 20
75.254917
 30
0.0
 10
203.070249
 20
75.230157
 30
0.0
 10
202.972409
 20
75.209287
 30
0.0
 10
202.873809
 20
75.192357
 30
0.0
 10
202.774609
 20
75.179377
 30
0.0
 10
202.674969
 20
75.170377
 30
0.0
 10
202.575049
 20
75.165377
 30
0.0
 10
202.475010
 20
75.164377
 30
0.0
 10
202.375010
 20
75.167377
 30
0.0
 10
202.275210
 20
75.174377
 30
0.0
 10
202.175770
 20
75.185367
 30
0.0
 10
202.076850
 20
75.200327
 30
0.0
 10
201.978610
 20
75.219227
 30
0.0
 10
201.881200
 20
75.242047
 30
0.0
 10
201.784780
 20
75.268747
 30
0.0
 10
201.689510
 20
75.299287
 30
0.0
 10
201.595540
 20
75.333607
 30
0.0
 10
201.503020
 20
75.371657
 30
0.0
 10
201.412090
 20
75.413387
 30
0.0
 10
201.322900
 20
75.458717
 30
0.0
 10
201.235600
 20
75.507577
 30
0.0
 10
201.150320
 20
75.559897
 30
0.0
 10
201.067210
 20
75.615587
 30
0.0
 10
200.986390
 20
75.674557
 30
0.0
 10
200.907990
 20
75.736707
 30
0.0
 10
200.832140
 20
75.801947
 30
0.0
 10
200.758970
 20
75.870167
 30
0.0
 10
200.688580
 20
75.941257
 30
0.0
 10
200.621090
 20
76.015107
 30
0.0
 10
200.556610
 20
76.091607
 30
0.0
 10
200.495240
 20
76.170617
 30
0.0
 10
200.437090
 20
76.252027
 30
0.0
 10
200.382240
 20
76.335697
 30
0.0
 10
200.330780
 20
76.421487
 30
0.0
 10
200.282790
 20
76.509277
 30
0.0
 10
200.238360
 20
76.598907
 30
0.0
 10
200.197550
 20
76.690247
 30
0.0
 10
200.160420
 20
76.783147
 30
0.0
 10
200.127040
 20
76.877457
 30
0.0
 10
200.097460
 20
76.973027
 30
0.0
 10
200.071730
 20
77.069707
 30
0.0
 10
200.049890
 20
77.167337
 30
0.0
 10
200.031970
 20
77.265767
 30
0.0
 10
200.018000
 20
77.364827
 30
0.0
 10
200.008000
 20
77.464367
 30
0.0
 10
200.002000
 20
77.564227
 30
0.0
  0
LWPOLYLINE
  5
135
100
AcDbEntity
  8
Layer_1
 62
1
100
AcDbPolyline
 90
2
 70
0
 10
68.093000
 20
141.186303
 30
0.0
 10
68.093000
 20
146.186300
 30
0.0
  0
SPLINE
  5
136
100
AcDbEntity
  8
Layer_1
 62
1
100
AcDbSpline
 70
0
 71
3
 72
25
 73
21
 74
19
 40
0.000000
 40
0.000000
 40
0.000000
 40
0.000000
 40
0.872410
 40
1.732335
 40
2.604745
 40
3.477156
 40
4.337080
 40
5.209491
 40
6.081901
 40
6.941826
 40
7.814236
 40
8.686646
 40
9.546571
 40
10.418981
 40
11.291392
 40
12.151316
 40
13.023727
 40
13.896137
 40
14.756062
 40
15.628472
 40
15.628472
 40
15.628472
 40
15.628472
 10
97.000000
 20
77.664256
 30
0.0
 10
96.970130
 20
77.956543
 30
0.0
 10
96.910818
 20
78.536933
 30
0.0
 10
96.450651
 20
79.303927
 30
0.0
 10
95.776889
 20
79.874167
 30
0.0
 10
94.942562
 20
80.176604
 30
0.0
 10
94.057247
 20
80.176604
 30
0.0
 10
93.224088
 20
79.874167
 30
0.0
 10
92.545660
 20
79.303927
 30
0.0
 10
92.102829
 20
78.536933
 30
0.0
 10
91.948215
 20
77.664256
 30
0.0
 10
92.102829
 20
76.791579
 30
0.0
 10
92.545660
 20
76.024585
 30
0.0
 10
93.224088
 20
75.454345
 30
0.0
 10
94.057247
 20
75.151908
 30
0.0
 10
94.942562
 20
75.151908
 30
0.0
 10
95.776889
 20
75.454345
 30
0.0
 10
96.450651
 20
76.024585
 30
0.0
 10
96.910818
 20
76.791579
 30
0.0
 10
96.970130
 20
77.371969
 30
0.0
 10
97.000000
 20
77.664256
 30
0.0
 11
97.000000
 21
77.664256
 31
0.0
 11
96.847815
 21
78.523290
 31
0.0
 11
96.417853
 21
79.268007
 31
0.0
 11
95.750000
 21
79.829320
 31
0.0
 11
94.929962
 21
80.127041
 31
0.0
 11
94.070038
 21
80.127041
 31
0.0
 11
93.250000
 21
79.829320
 31
0.0
 11
92.582147
 21
79.268007
 31
0.0
 11
92.152185
 21
78.523290
 31
0.0
 11
92.000000
 21
77.664256
 31
0.0
 11
92.152185
 21
76.805222
 31
0.0
 11
92.582147
 21
76.060505
 31
0.0
 11
93.250000
 21
75.499192
 31
0.0
 11
94.070038
 21
75.201471
 31
0.0
 11
94.929962
 21
75.201471
 31
0.0
 11
95.750000
 21
75.499192
 31
0.0
 11
96.417853
 21
76.060505
 31
0.0
 11
96.847815
 21
76.805222
 31
0.0
 11
97.000000
 21
77.664256
 31
0.0
  0
LWPOLYLINE
  5
137
100
AcDbEntity
  8
Layer_1
 62
1
100
AcDbPolyline
 90
2
 70
0
 10
228.907000
 20
141.186350
 30
0.0
 10
228.907000
 20
146.186350
 30
0.0
  0
ENDSEC
  0
SECTION
  2
OBJECTS
  0
DICTIONARY
  5
C
330
0
100
AcDbDictionary
  3
ACAD_GROUP
350
D
  3
ACAD_MLINESTYLE
350
17
  0
DICTIONARY
  5
D
330
C
100
AcDbDictionary
  0
DICTIONARY
  5
1A
330
C
100
AcDbDictionary
  0
DICTIONARY
  5
17
330
C
100
AcDbDictionary
  3
STANDARD
350
18
  0
DICTIONARY
  5
19
330
C
100
AcDbDictionary
  0
ENDSEC
  0
EOF
