  0
SECTION
  2
HEADER
  9
$ACADVER
  1
AC1014
  9
$HANDSEED
  5
FFFF
  9
$MEASUREMENT
 70
     1
  0
ENDSEC
  0
SECTION
  2
TABLES
  0
TABLE
  2
VPORT
  5
8
330
0
100
AcDbSymbolTable
 70
     4
  0
VPORT
  5
2E
330
8
100
AcDbSymbolTableRecord
100
AcDbViewportTableRecord
  2
*ACTIVE
 70
     0
 10
0.0
 20
0.0
 11
1.0
 21
1.0
 12
210.0
 22
148.5
 13
0.0
 23
0.0
 14
10.0
 24
10.0
 15
10.0
 25
10.0
 16
0.0
 26
0.0
 36
1.0
 17
0.0
 27
0.0
 37
0.0
 40
341.0
 41
1.24
 42
50.0
 43
0.0
 44
0.0
 50
0.0
 51
0.0
 71
     0
 72
   100
 73
     1
 74
     3
 75
     0
 76
     0
 77
     0
 78
     0
  0
ENDTAB
  0
TABLE
  2
LTYPE
  5
5
330
0
100
AcDbSymbolTable
 70
     1
  0
LTYPE
  5
14
330
5
100
AcDbSymbolTableRecord
100
AcDbLinetypeTableRecord
  2
BYBLOCK
 70
     0
  3

 72
    65
 73
     0
 40
0.0
  0
LTYPE
  5
15
330
5
100
AcDbSymbolTableRecord
100
AcDbLinetypeTableRecord
  2
BYLAYER
 70
     0
  3

 72
    65
 73
     0
 40
0.0
  0
LTYPE
  5
16
330
5
100
AcDbSymbolTableRecord
100
AcDbLinetypeTableRecord
  2
CONTINUOUS
 70
     0
  3
Solid line
 72
    65
 73
     0
 40
0.0
  0
ENDTAB
  0
TABLE
  2
LAYER
  5
2
100
AcDbSymbolTable
 70
2
  0
LAYER
  5
50
100
AcDbSymbolTableRecord
100
AcDbLayerTableRecord
  2
0
 70
0
  6
CONTINUOUS
  0
LAYER
  5
51
100
AcDbSymbolTableRecord
100
AcDbLayerTableRecord
  2
Layer_1
 70
0
  6
CONTINUOUS
  0
ENDTAB
  0
TABLE
  2
STYLE
  5
3
330
0
100
AcDbSymbolTable
 70
     1
  0
STYLE
  5
11
330
3
100
AcDbSymbolTableRecord
100
AcDbTextStyleTableRecord
  2
STANDARD
 70
     0
 40
0.0
 41
1.0
 50
0.0
 71
     0
 42
2.5
  3
txt
  4

  0
ENDTAB
  0
TABLE
  2
VIEW
  5
6
330
0
100
AcDbSymbolTable
 70
     0
  0
ENDTAB
  0
TABLE
  2
UCS
  5
7
330
0
100
AcDbSymbolTable
 70
     0
  0
ENDTAB
  0
TABLE
  2
APPID
  5
9
330
0
100
AcDbSymbolTable
 70
     2
  0
APPID
  5
12
330
9
100
AcDbSymbolTableRecord
100
AcDbRegAppTableRecord
  2
ACAD
 70
     0
  0
ENDTAB
  0
TABLE
  2
DIMSTYLE
  5
A
330
0
100
AcDbSymbolTable
 70
     1
  0
DIMSTYLE
105
27
330
A
100
AcDbSymbolTableRecord
100
AcDbDimStyleTableRecord
  2
ISO-25
 70
     0
  3

  4

  5

  6

  7

 40
1.0
 41
2.5
 42
0.625
 43
3.75
 44
1.25
 45
0.0
 46
0.0
 47
0.0
 48
0.0
140
2.5
141
2.5
142
0.0
143
0.03937007874016
144
1.0
145
0.0
146
1.0
147
0.625
 71
     0
 72
     0
 73
     0
 74
     0
 75
     0
 76
     0
 77
     1
 78
     8
170
     0
171
     3
172
     1
173
     0
174
     0
175
     0
176
     0
177
     0
178
     0
270
     2
271
     2
272
     2
273
     2
274
     3
340
11
275
     0
280
     0
281
     0
282
     0
283
     0
284
     8
285
     0
286
     0
287
     3
288
     0
  0
ENDTAB
  0
TABLE
  2
BLOCK_RECORD
  5
1
330
0
100
AcDbSymbolTable
 70
     1
  0
BLOCK_RECORD
  5
1F
330
1
100
AcDbSymbolTableRecord
100
AcDbBlockTableRecord
  2
*MODEL_SPACE
  0
BLOCK_RECORD
  5
1B
330
1
100
AcDbSymbolTableRecord
100
AcDbBlockTableRecord
  2
*PAPER_SPACE
  0
ENDTAB
  0
ENDSEC
  0
SECTION
  2
BLOCKS
  0
BLOCK
  5
20
330
1F
100
AcDbEntity
  8
0
100
AcDbBlockBegin
  2
*MODEL_SPACE
 70
     0
 10
0.0
 20
0.0
 30
0.0
  3
*MODEL_SPACE
  1

  0
ENDBLK
  5
21
330
1F
100
AcDbEntity
  8
0
100
AcDbBlockEnd
  0
BLOCK
  5
1C
330
1B
100
AcDbEntity
 67
     1
  8
0
100
AcDbBlockBegin
  2
*PAPER_SPACE
  1

  0
ENDBLK
  5
1D
330
1B
100
AcDbEntity
 67
     1
  8
0
100
AcDbBlockEnd
  0
ENDSEC
  0
SECTION
  2
ENTITIES
  0
LWPOLYLINE
  5
100
100
AcDbEntity
  8
Layer_1
 62
1
100
AcDbPolyline
 90
2
 70
0
 10
-200.258627
 20
-111.198130
 30
0.0
 10
-200.258627
 20
-116.754380
 30
0.0
  0
LWPOLYLINE
  5
101
100
AcDbEntity
  8
Layer_1
 62
1
100
AcDbPolyline
 90
2
 70
0
 10
-200.258627
 20
-111.198130
 30
0.0
 10
-198.141960
 20
-116.754380
 30
0.0
  0
LWPOLYLINE
  5
102
100
AcDbEntity
  8
Layer_1
 62
1
100
AcDbPolyline
 90
2
 70
0
 10
-196.025293
 20
-111.198130
 30
0.0
 10
-198.141960
 20
-116.754380
 30
0.0
  0
LWPOLYLINE
  5
103
100
AcDbEntity
  8
Layer_1
 62
1
100
AcDbPolyline
 90
2
 70
0
 10
-196.025293
 20
-111.198130
 30
0.0
 10
-196.025293
 20
-116.754380
 30
0.0
  0
LWPOLYLINE
  5
104
100
AcDbEntity
  8
Layer_1
 62
1
100
AcDbPolyline
 90
2
 70
0
 10
-193.908627
 20
-114.373130
 30
0.0
 10
-189.146127
 20
-114.373130
 30
0.0
  0
LWPOLYLINE
  5
105
100
AcDbEntity
  8
Layer_1
 62
1
100
AcDbPolyline
 90
4
 70
0
 10
-186.500294
 20
-112.256463
 30
0.0
 10
-185.971127
 20
-111.991880
 30
0.0
 10
-185.177377
 20
-111.198130
 30
0.0
 10
-185.177377
 20
-116.754380
 30
0.0
  0
LWPOLYLINE
  5
106
100
AcDbEntity
  8
Layer_1
 62
1
100
AcDbPolyline
 90
23
 70
0
 10
-178.562794
 20
-113.050213
 30
0.0
 10
-178.827377
 20
-113.843963
 30
0.0
 10
-179.356544
 20
-114.373130
 30
0.0
 10
-180.150294
 20
-114.637713
 30
0.0
 10
-180.414877
 20
-114.637713
 30
0.0
 10
-181.208627
 20
-114.373130
 30
0.0
 10
-181.737794
 20
-113.843963
 30
0.0
 10
-182.002377
 20
-113.050213
 30
0.0
 10
-182.002377
 20
-112.785630
 30
0.0
 10
-181.737794
 20
-111.991880
 30
0.0
 10
-181.208627
 20
-111.462713
 30
0.0
 10
-180.414877
 20
-111.198130
 30
0.0
 10
-180.150294
 20
-111.198130
 30
0.0
 10
-179.356544
 20
-111.462713
 30
0.0
 10
-178.827377
 20
-111.991880
 30
0.0
 10
-178.562794
 20
-113.050213
 30
0.0
 10
-178.562794
 20
-114.373130
 30
0.0
 10
-178.827377
 20
-115.696047
 30
0.0
 10
-179.356544
 20
-116.489797
 30
0.0
 10
-180.150294
 20
-116.754380
 30
0.0
 10
-180.679460
 20
-116.754380
 30
0.0
 10
-181.473210
 20
-116.489797
 30
0.0
 10
-181.737794
 20
-115.960630
 30
0.0
  0
LWPOLYLINE
  5
107
100
AcDbEntity
  8
Layer_1
 62
5
100
AcDbPolyline
 90
3
 70
0
 10
59.965000
 20
167.386702
 30
0.0
 10
62.541069
 20
167.386702
 30
0.0
 10
237.035000
 20
167.386702
 30
0.0
  0
LWPOLYLINE
  5
108
100
AcDbEntity
  8
Layer_1
 62
5
100
AcDbPolyline
 90
2
 70
0
 10
59.965000
 20
167.386702
 30
0.0
 10
59.965000
 20
150.283572
 30
0.0
  0
LWPOLYLINE
  5
109
100
AcDbEntity
  8
Layer_1
 62
5
100
AcDbPolyline
 90
2
 70
0
 10
237.035000
 20
167.386702
 30
0.0
 10
237.035000
 20
150.283572
 30
0.0
  0
LWPOLYLINE
  5
10a
100
AcDbEntity
  8
Layer_1
 62
1
100
AcDbPolyline
 90
2
 70
0
 10
137.652083
 20
48.016630
 30
0.0
 10
137.652083
 20
42.460380
 30
0.0
  0
LWPOLYLINE
  5
10b
100
AcDbEntity
  8
Layer_1
 62
1
100
AcDbPolyline
 90
2
 70
0
 10
137.652083
 20
48.016630
 30
0.0
 10
139.768750
 20
42.460380
 30
0.0
  0
LWPOLYLINE
  5
10c
100
AcDbEntity
  8
Layer_1
 62
1
100
AcDbPolyline
 90
2
 70
0
 10
141.885417
 20
48.016630
 30
0.0
 10
139.768750
 20
42.460380
 30
0.0
  0
LWPOLYLINE
  5
10d
100
AcDbEntity
  8
Layer_1
 62
1
100
AcDbPolyline
 90
2
 70
0
 10
141.885417
 20
48.016630
 30
0.0
 10
141.885417
 20
42.460380
 30
0.0
  0
LWPOLYLINE
  5
10e
100
AcDbEntity
  8
Layer_1
 62
1
100
AcDbPolyline
 90
2
 70
0
 10
144.002083
 20
44.841630
 30
0.0
 10
148.764583
 20
44.841630
 30
0.0
  0
LWPOLYLINE
  5
10f
100
AcDbEntity
  8
Layer_1
 62
1
100
AcDbPolyline
 90
4
 70
0
 10
151.410416
 20
46.958297
 30
0.0
 10
151.939583
 20
47.222880
 30
0.0
 10
152.733333
 20
48.016630
 30
0.0
 10
152.733333
 20
42.460380
 30
0.0
  0
LWPOLYLINE
  5
110
100
AcDbEntity
  8
Layer_1
 62
1
100
AcDbPolyline
 90
23
 70
0
 10
159.347916
 20
46.164547
 30
0.0
 10
159.083333
 20
45.370797
 30
0.0
 10
158.554166
 20
44.841630
 30
0.0
 10
157.760416
 20
44.577047
 30
0.0
 10
157.495833
 20
44.577047
 30
0.0
 10
156.702083
 20
44.841630
 30
0.0
 10
156.172916
 20
45.370797
 30
0.0
 10
155.908333
 20
46.164547
 30
0.0
 10
155.908333
 20
46.429130
 30
0.0
 10
156.172916
 20
47.222880
 30
0.0
 10
156.702083
 20
47.752047
 30
0.0
 10
157.495833
 20
48.016630
 30
0.0
 10
157.760416
 20
48.016630
 30
0.0
 10
158.554166
 20
47.752047
 30
0.0
 10
159.083333
 20
47.222880
 30
0.0
 10
159.347916
 20
46.164547
 30
0.0
 10
159.347916
 20
44.841630
 30
0.0
 10
159.083333
 20
43.518713
 30
0.0
 10
158.554166
 20
42.724963
 30
0.0
 10
157.760416
 20
42.460380
 30
0.0
 10
157.231250
 20
42.460380
 30
0.0
 10
156.437500
 20
42.724963
 30
0.0
 10
156.172916
 20
43.254130
 30
0.0
  0
SPLINE
  5
111
100
AcDbEntity
  8
Layer_1
 62
1
100
AcDbSpline
 70
0
 71
3
 72
16
 73
12
 74
10
 40
0.000000
 40
0.000000
 40
0.000000
 40
0.000000
 40
2.623338
 40
5.209131
 40
7.832469
 40
10.455807
 40
13.041601
 40
15.664938
 40
18.288276
 40
20.874070
 40
23.497407
 40
23.497407
 40
23.497407
 40
23.497407
 10
222.000009
 20
142.765973
 30
0.0
 10
222.089810
 20
143.644881
 30
0.0
 10
222.268125
 20
145.390117
 30
0.0
 10
223.651821
 20
147.696496
 30
0.0
 10
225.677718
 20
149.411248
 30
0.0
 10
228.186793
 20
150.320722
 30
0.0
 10
230.847933
 20
150.320774
 30
0.0
 10
233.357044
 20
149.411396
 30
0.0
 10
235.383007
 20
147.696722
 30
0.0
 10
236.766791
 20
145.390397
 30
0.0
 10
236.945175
 20
143.645167
 30
0.0
 10
237.035009
 20
142.766263
 30
0.0
 11
222.000009
 21
142.765973
 31
0.0
 11
222.457578
 21
145.349097
 31
0.0
 11
223.750432
 21
147.588485
 31
0.0
 11
225.758633
 21
149.276391
 31
0.0
 11
228.224469
 21
150.171687
 31
0.0
 11
230.810263
 21
150.171737
 31
0.0
 11
233.276133
 21
149.276536
 31
0.0
 11
235.284400
 21
147.588708
 31
0.0
 11
236.577340
 21
145.349370
 31
0.0
 11
237.035009
 21
142.766263
 31
0.0
  0
SPLINE
  5
112
100
AcDbEntity
  8
Layer_1
 62
1
100
AcDbSpline
 70
0
 71
3
 72
10
 73
6
 74
4
 40
0.000000
 40
0.000000
 40
0.000000
 40
0.000000
 40
29.070903
 40
50.497677
 40
68.911879
 40
68.911879
 40
68.911879
 40
68.911879
 10
222.000009
 20
133.765973
 30
0.0
 10
221.707492
 20
124.020131
 30
0.0
 10
221.199374
 20
107.091093
 30
0.0
 10
211.260700
 20
85.367560
 30
0.0
 10
200.845303
 20
76.927210
 30
0.0
 10
196.031384
 20
73.026143
 30
0.0
 11
222.000009
 21
133.765973
 31
0.0
 11
218.877174
 21
104.863286
 31
0.0
 11
209.475651
 21
85.609247
 31
0.0
 11
196.031384
 21
73.026143
 31
0.0
  0
LWPOLYLINE
  5
113
100
AcDbEntity
  8
Layer_1
 62
1
100
AcDbPolyline
 90
2
 70
0
 10
222.000009
 20
142.765973
 30
0.0
 10
222.000009
 20
133.765973
 30
0.0
  0
SPLINE
  5
114
100
AcDbEntity
  8
Layer_1
 62
1
100
AcDbSpline
 70
0
 71
3
 72
10
 73
6
 74
4
 40
0.000000
 40
0.000000
 40
0.000000
 40
0.000000
 40
17.540241
 40
34.426555
 40
50.204779
 40
50.204779
 40
50.204779
 40
50.204779
 10
196.031384
 20
73.026143
 30
0.0
 10
190.932372
 20
70.134955
 30
0.0
 10
180.924446
 20
64.460366
 30
0.0
 10
164.630907
 20
59.857600
 30
0.0
 10
153.753981
 20
59.121523
 30
0.0
 10
148.500009
 20
58.765970
 30
0.0
 11
196.031384
 21
73.026143
 31
0.0
 11
180.431948
 21
65.006316
 31
0.0
 11
164.197545
 21
60.359621
 31
0.0
 11
148.500009
 21
58.765970
 31
0.0
  0
LWPOLYLINE
  5
115
100
AcDbEntity
  8
Layer_1
 62
1
100
AcDbPolyline
 90
2
 70
0
 10
237.035009
 20
127.288016
 30
0.0
 10
237.035009
 20
142.765973
 30
0.0
  0
SPLINE
  5
116
100
AcDbEntity
  8
Layer_1
 62
1
100
AcDbSpline
 70
0
 71
3
 72
13
 73
9
 74
7
 40
0.000000
 40
0.000000
 40
0.000000
 40
0.000000
 40
2.124900
 40
4.186775
 40
6.311675
 40
8.436574
 40
10.498450
 40
12.623349
 40
12.623349
 40
12.623349
 40
12.623349
 10
237.035009
 20
127.288016
 30
0.0
 10
236.923224
 20
126.571601
 30
0.0
 10
236.702969
 20
125.160018
 30
0.0
 10
235.086220
 20
123.605989
 30
0.0
 10
232.970984
 20
123.030184
 30
0.0
 10
230.855756
 20
123.606014
 30
0.0
 10
229.239024
 20
125.160061
 30
0.0
 10
229.018786
 20
126.571646
 30
0.0
 10
228.907009
 20
127.288063
 30
0.0
 11
237.035009
 21
127.288016
 31
0.0
 11
236.480142
 21
125.236841
 31
0.0
 11
235.022167
 21
123.778883
 31
0.0
 11
232.970986
 21
123.224040
 31
0.0
 11
230.919810
 21
123.778906
 31
0.0
 11
229.461852
 21
125.236881
 31
0.0
 11
228.907009
 21
127.288063
 31
0.0
  0
SPLINE
  5
117
100
AcDbEntity
  8
Layer_1
 62
1
100
AcDbSpline
 70
0
 71
3
 72
16
 73
12
 74
10
 40
0.000000
 40
0.000000
 40
0.000000
 40
0.000000
 40
1.419619
 40
2.803821
 40
4.223441
 40
5.643060
 40
7.027262
 40
8.446881
 40
9.866500
 40
11.250703
 40
12.670322
 40
12.670322
 40
12.670322
 40
12.670322
 10
227.740552
 20
105.556338
 30
0.0
 10
228.197324
 20
105.711252
 30
0.0
 10
229.099472
 20
106.017217
 30
0.0
 10
230.532849
 20
105.630039
 30
0.0
 10
231.631628
 20
104.679600
 30
0.0
 10
232.171745
 20
103.317347
 30
0.0
 10
232.034399
 20
101.865734
 30
0.0
 10
231.248371
 20
100.628957
 30
0.0
 10
229.990832
 20
99.901464
 30
0.0
 10
228.510274
 20
99.789993
 30
0.0
 10
227.681520
 20
100.259728
 30
0.0
 10
227.261909
 20
100.497563
 30
0.0
 11
227.740552
 21
105.556338
 31
0.0
 11
229.123539
 21
105.876753
 31
0.0
 11
230.466690
 21
105.542149
 31
0.0
 11
231.537737
 21
104.610389
 31
0.0
 11
232.060979
 21
103.290716
 31
0.0
 11
231.930593
 21
101.912668
 31
0.0
 11
231.169127
 21
100.714550
 31
0.0
 11
229.942331
 21
100.000203
 31
0.0
 11
228.560259
 21
99.923450
 31
0.0
 11
227.261909
 21
100.497563
 31
0.0
  0
SPLINE
  5
118
100
AcDbEntity
  8
Layer_1
 62
1
100
AcDbSpline
 70
0
 71
3
 72
10
 73
6
 74
4
 40
0.000000
 40
0.000000
 40
0.000000
 40
0.000000
 40
10.619769
 40
22.152894
 40
34.721221
 40
34.721221
 40
34.721221
 40
34.721221
 10
217.858482
 20
67.200571
 30
0.0
 10
219.269573
 20
70.450712
 30
0.0
 10
222.213116
 20
77.230523
 30
0.0
 10
225.280155
 20
88.433684
 30
0.0
 10
226.582655
 20
96.362779
 30
0.0
 10
227.261878
 20
100.497611
 30
0.0
 11
217.858482
 21
67.200571
 31
0.0
 11
221.865000
 21
77.035575
 31
0.0
 11
224.999465
 21
88.134588
 31
0.0
 11
227.261878
 21
100.497611
 31
0.0
  0
SPLINE
  5
119
100
AcDbEntity
  8
Layer_1
 62
1
100
AcDbSpline
 70
0
 71
3
 72
10
 73
6
 74
4
 40
0.000000
 40
0.000000
 40
0.000000
 40
0.000000
 40
11.544006
 40
23.170660
 40
35.433527
 40
35.433527
 40
35.433527
 40
35.433527
 10
189.880163
 20
38.947531
 30
0.0
 10
193.306778
 20
40.725776
 30
0.0
 10
200.184539
 20
44.294998
 30
0.0
 10
208.933798
 20
52.496314
 30
0.0
 10
213.251581
 20
59.206838
 30
0.0
 10
215.467967
 20
62.651456
 30
0.0
 11
189.880163
 21
38.947531
 31
0.0
 11
199.872952
 21
44.727517
 31
0.0
 11
208.402220
 21
52.628826
 31
0.0
 11
215.467967
 21
62.651456
 31
0.0
  0
SPLINE
  5
11a
100
AcDbEntity
  8
Layer_1
 62
1
100
AcDbSpline
 70
0
 71
3
 72
16
 73
12
 74
10
 40
0.000000
 40
0.000000
 40
0.000000
 40
0.000000
 40
1.407466
 40
2.780347
 40
4.187813
 40
5.595280
 40
6.968160
 40
8.375627
 40
9.783093
 40
11.155974
 40
12.563440
 40
12.563440
 40
12.563440
 40
12.563440
 10
217.858482
 20
67.200571
 30
0.0
 10
218.335008
 20
67.162566
 30
0.0
 10
219.276350
 20
67.087490
 30
0.0
 10
220.433456
 20
66.179287
 30
0.0
 10
221.072659
 20
64.889243
 30
0.0
 10
221.049330
 20
63.437350
 30
0.0
 10
220.377194
 20
62.158265
 30
0.0
 10
219.194715
 20
61.315485
 30
0.0
 10
217.769713
 20
61.110142
 30
0.0
 10
216.365404
 20
61.547915
 30
0.0
 10
215.769611
 20
62.280576
 30
0.0
 10
215.468009
 20
62.651463
 30
0.0
 11
217.858482
 21
67.200571
 31
0.0
 11
219.243695
 21
66.951279
 31
0.0
 11
220.340064
 21
66.124977
 31
0.0
 11
220.961325
 21
64.862045
 31
0.0
 11
220.938753
 21
63.454760
 31
0.0
 11
220.300133
 21
62.239455
 31
0.0
 11
219.153960
 21
61.422602
 31
0.0
 11
217.761465
 21
61.217862
 31
0.0
 11
216.459058
 21
61.652072
 31
0.0
 11
215.468009
 21
62.651463
 31
0.0
  0
SPLINE
  5
11b
100
AcDbEntity
  8
Layer_1
 62
1
100
AcDbSpline
 70
0
 71
3
 72
19
 73
15
 74
13
 40
0.000000
 40
0.000000
 40
0.000000
 40
0.000000
 40
1.350994
 40
2.671118
 40
4.022112
 40
5.373105
 40
6.693230
 40
8.044223
 40
9.395217
 40
10.715342
 40
12.066335
 40
12.204889
 40
12.343404
 40
12.481956
 40
12.481956
 40
12.481956
 40
12.481956
 10
189.880163
 20
38.947531
 30
0.0
 10
190.203102
 20
38.622524
 30
0.0
 10
190.841601
 20
37.979937
 30
0.0
 10
191.147673
 20
36.606369
 30
0.0
 10
190.863539
 20
35.256790
 30
0.0
 10
190.006247
 20
34.162315
 30
0.0
 10
188.763781
 20
33.551295
 30
0.0
 10
187.376003
 20
33.539533
 30
0.0
 10
186.123951
 20
34.138409
 30
0.0
 10
185.257137
 20
35.216958
 30
0.0
 10
185.039222
 20
36.166772
 30
0.0
 10
185.051961
 20
36.709161
 30
0.0
 10
185.061206
 20
36.847488
 30
0.0
 10
185.072741
 20
36.939134
 30
0.0
 10
185.078509
 20
36.984963
 30
0.0
 11
189.880163
 21
38.947531
 31
0.0
 11
190.737642
 21
37.903542
 31
0.0
 11
191.049586
 21
36.620802
 31
0.0
 11
190.767280
 21
35.299634
 31
0.0
 11
189.934232
 21
34.236048
 31
0.0
 11
188.749746
 21
33.653191
 31
0.0
 11
187.398798
 21
33.642087
 31
0.0
 11
186.179788
 21
34.224495
 31
0.0
 11
185.353795
 21
35.254283
 31
0.0
 11
185.049809
 21
36.570633
 31
0.0
 11
185.052960
 21
36.709151
 31
0.0
 11
185.062548
 21
36.847334
 31
0.0
 11
185.078509
 21
36.984963
 31
0.0
  0
SPLINE
  5
11c
100
AcDbEntity
  8
Layer_1
 62
1
100
AcDbSpline
 70
0
 71
3
 72
10
 73
6
 74
4
 40
0.000000
 40
0.000000
 40
0.000000
 40
0.000000
 40
14.136727
 40
26.445609
 40
37.103007
 40
37.103007
 40
37.103007
 40
37.103007
 10
148.500009
 20
31.926263
 30
0.0
 10
153.211312
 20
31.995785
 30
0.0
 10
162.024759
 20
32.125839
 30
0.0
 10
174.363964
 20
33.635357
 30
0.0
 10
181.682416
 20
35.923268
 30
0.0
 10
185.078510
 20
36.984962
 30
0.0
 11
148.500009
 21
31.926263
 31
0.0
 11
162.628624
 21
32.405114
 31
0.0
 11
174.821457
 21
34.091347
 31
0.0
 11
185.078510
 21
36.984962
 31
0.0
  0
SPLINE
  5
11d
100
AcDbEntity
  8
Layer_1
 62
1
100
AcDbSpline
 70
0
 71
3
 72
10
 73
6
 74
4
 40
0.000000
 40
0.000000
 40
0.000000
 40
0.000000
 40
29.070903
 40
50.497677
 40
68.911879
 40
68.911879
 40
68.911879
 40
68.911879
 10
75.000009
 20
133.765973
 30
0.0
 10
75.292526
 20
124.020131
 30
0.0
 10
75.800644
 20
107.091093
 30
0.0
 10
85.739318
 20
85.367560
 30
0.0
 10
96.154715
 20
76.927210
 30
0.0
 10
100.968634
 20
73.026143
 30
0.0
 11
75.000009
 21
133.765973
 31
0.0
 11
78.122844
 21
104.863286
 31
0.0
 11
87.524367
 21
85.609247
 31
0.0
 11
100.968634
 21
73.026143
 31
0.0
  0
LWPOLYLINE
  5
11e
100
AcDbEntity
  8
Layer_1
 62
1
100
AcDbPolyline
 90
2
 70
0
 10
227.740552
 20
105.556338
 30
0.0
 10
228.907009
 20
127.288016
 30
0.0
  0
SPLINE
  5
11f
100
AcDbEntity
  8
Layer_1
 62
1
100
AcDbSpline
 70
0
 71
3
 72
10
 73
6
 74
4
 40
0.000000
 40
0.000000
 40
0.000000
 40
0.000000
 40
17.540241
 40
34.426555
 40
50.204779
 40
50.204779
 40
50.204779
 40
50.204779
 10
100.968634
 20
73.026143
 30
0.0
 10
106.067646
 20
70.134955
 30
0.0
 10
116.075572
 20
64.460366
 30
0.0
 10
132.369111
 20
59.857600
 30
0.0
 10
143.246037
 20
59.121523
 30
0.0
 10
148.500009
 20
58.765970
 30
0.0
 11
100.968634
 21
73.026143
 31
0.0
 11
116.568070
 21
65.006316
 31
0.0
 11
132.802473
 21
60.359621
 31
0.0
 11
148.500009
 21
58.765970
 31
0.0
  0
LWPOLYLINE
  5
120
100
AcDbEntity
  8
Layer_1
 62
1
100
AcDbPolyline
 90
2
 70
0
 10
75.000009
 20
142.765973
 30
0.0
 10
75.000009
 20
133.765973
 30
0.0
  0
SPLINE
  5
121
100
AcDbEntity
  8
Layer_1
 62
1
100
AcDbSpline
 70
0
 71
3
 72
16
 73
12
 74
10
 40
0.000000
 40
0.000000
 40
0.000000
 40
0.000000
 40
2.623338
 40
5.209131
 40
7.832469
 40
10.455807
 40
13.041601
 40
15.664938
 40
18.288276
 40
20.874070
 40
23.497407
 40
23.497407
 40
23.497407
 40
23.497407
 10
75.000009
 20
142.765973
 30
0.0
 10
74.910208
 20
143.644881
 30
0.0
 10
74.731893
 20
145.390117
 30
0.0
 10
73.348197
 20
147.696496
 30
0.0
 10
71.322300
 20
149.411248
 30
0.0
 10
68.813225
 20
150.320722
 30
0.0
 10
66.152085
 20
150.320774
 30
0.0
 10
63.642974
 20
149.411396
 30
0.0
 10
61.617011
 20
147.696722
 30
0.0
 10
60.233227
 20
145.390397
 30
0.0
 10
60.054843
 20
143.645167
 30
0.0
 10
59.965009
 20
142.766263
 30
0.0
 11
75.000009
 21
142.765973
 31
0.0
 11
74.542440
 21
145.349097
 31
0.0
 11
73.249586
 21
147.588485
 31
0.0
 11
71.241385
 21
149.276391
 31
0.0
 11
68.775549
 21
150.171687
 31
0.0
 11
66.189755
 21
150.171737
 31
0.0
 11
63.723885
 21
149.276536
 31
0.0
 11
61.715618
 21
147.588708
 31
0.0
 11
60.422678
 21
145.349370
 31
0.0
 11
59.965009
 21
142.766263
 31
0.0
  0
SPLINE
  5
122
100
AcDbEntity
  8
Layer_1
 62
1
100
AcDbSpline
 70
0
 71
3
 72
16
 73
12
 74
10
 40
0.000000
 40
0.000000
 40
0.000000
 40
0.000000
 40
1.418190
 40
2.816084
 40
4.234274
 40
5.652464
 40
7.050358
 40
8.468548
 40
9.886738
 40
11.284632
 40
12.702822
 40
12.702822
 40
12.702822
 40
12.702822
 10
59.965009
 20
127.288016
 30
0.0
 10
60.013568
 20
126.812875
 30
0.0
 10
60.109990
 20
125.869394
 30
0.0
 10
60.858054
 20
124.622572
 30
0.0
 10
61.953288
 20
123.695595
 30
0.0
 10
63.309719
 20
123.203963
 30
0.0
 10
64.748346
 20
123.203971
 30
0.0
 10
66.104772
 20
123.695619
 30
0.0
 10
67.199995
 20
124.622608
 30
0.0
 10
67.948045
 20
125.869439
 30
0.0
 10
68.044456
 20
126.812922
 30
0.0
 10
68.093009
 20
127.288063
 30
0.0
 11
59.965009
 21
127.288016
 31
0.0
 11
60.212408
 21
125.891572
 31
0.0
 11
60.911362
 21
124.680964
 31
0.0
 11
61.997029
 21
123.768501
 31
0.0
 11
63.330085
 21
123.284532
 31
0.0
 11
64.727979
 21
123.284541
 31
0.0
 11
66.061029
 21
123.768524
 31
0.0
 11
67.146686
 21
124.681000
 31
0.0
 11
67.845626
 21
125.891616
 31
0.0
 11
68.093009
 21
127.288063
 31
0.0
  0
LWPOLYLINE
  5
123
100
AcDbEntity
  8
Layer_1
 62
1
100
AcDbPolyline
 90
2
 70
0
 10
59.965009
 20
127.288016
 30
0.0
 10
59.965009
 20
142.765973
 30
0.0
  0
SPLINE
  5
124
100
AcDbEntity
  8
Layer_1
 62
1
100
AcDbSpline
 70
0
 71
3
 72
10
 73
6
 74
4
 40
0.000000
 40
0.000000
 40
0.000000
 40
0.000000
 40
14.136727
 40
26.445609
 40
37.103007
 40
37.103007
 40
37.103007
 40
37.103007
 10
148.500009
 20
31.926263
 30
0.0
 10
143.788706
 20
31.995785
 30
0.0
 10
134.975259
 20
32.125839
 30
0.0
 10
122.636054
 20
33.635357
 30
0.0
 10
115.317602
 20
35.923268
 30
0.0
 10
111.921508
 20
36.984962
 30
0.0
 11
148.500009
 21
31.926263
 31
0.0
 11
134.371394
 21
32.405114
 31
0.0
 11
122.178561
 21
34.091347
 31
0.0
 11
111.921508
 21
36.984962
 31
0.0
  0
SPLINE
  5
125
100
AcDbEntity
  8
Layer_1
 62
1
100
AcDbSpline
 70
0
 71
3
 72
19
 73
15
 74
13
 40
0.000000
 40
0.000000
 40
0.000000
 40
0.000000
 40
1.350994
 40
2.671118
 40
4.022112
 40
5.373105
 40
6.693230
 40
8.044223
 40
9.395217
 40
10.715342
 40
12.066335
 40
12.204889
 40
12.343404
 40
12.481956
 40
12.481956
 40
12.481956
 40
12.481956
 10
107.119855
 20
38.947531
 30
0.0
 10
106.796916
 20
38.622524
 30
0.0
 10
106.158417
 20
37.979937
 30
0.0
 10
105.852345
 20
36.606369
 30
0.0
 10
106.136479
 20
35.256790
 30
0.0
 10
106.993771
 20
34.162315
 30
0.0
 10
108.236237
 20
33.551295
 30
0.0
 10
109.624015
 20
33.539533
 30
0.0
 10
110.876067
 20
34.138409
 30
0.0
 10
111.742881
 20
35.216958
 30
0.0
 10
111.960796
 20
36.166772
 30
0.0
 10
111.948057
 20
36.709161
 30
0.0
 10
111.938812
 20
36.847488
 30
0.0
 10
111.927277
 20
36.939134
 30
0.0
 10
111.921509
 20
36.984963
 30
0.0
 11
107.119855
 21
38.947531
 31
0.0
 11
106.262376
 21
37.903542
 31
0.0
 11
105.950432
 21
36.620802
 31
0.0
 11
106.232738
 21
35.299634
 31
0.0
 11
107.065786
 21
34.236048
 31
0.0
 11
108.250272
 21
33.653191
 31
0.0
 11
109.601220
 21
33.642087
 31
0.0
 11
110.820230
 21
34.224495
 31
0.0
 11
111.646223
 21
35.254283
 31
0.0
 11
111.950209
 21
36.570633
 31
0.0
 11
111.947058
 21
36.709151
 31
0.0
 11
111.937470
 21
36.847334
 31
0.0
 11
111.921509
 21
36.984963
 31
0.0
  0
SPLINE
  5
126
100
AcDbEntity
  8
Layer_1
 62
1
100
AcDbSpline
 70
0
 71
3
 72
16
 73
12
 74
10
 40
0.000000
 40
0.000000
 40
0.000000
 40
0.000000
 40
1.419619
 40
2.803821
 40
4.223441
 40
5.643060
 40
7.027262
 40
8.446881
 40
9.866500
 40
11.250703
 40
12.670322
 40
12.670322
 40
12.670322
 40
12.670322
 10
69.259466
 20
105.556338
 30
0.0
 10
68.802694
 20
105.711252
 30
0.0
 10
67.900546
 20
106.017217
 30
0.0
 10
66.467169
 20
105.630039
 30
0.0
 10
65.368390
 20
104.679600
 30
0.0
 10
64.828273
 20
103.317347
 30
0.0
 10
64.965619
 20
101.865734
 30
0.0
 10
65.751647
 20
100.628957
 30
0.0
 10
67.009186
 20
99.901464
 30
0.0
 10
68.489744
 20
99.789993
 30
0.0
 10
69.318498
 20
100.259728
 30
0.0
 10
69.738109
 20
100.497563
 30
0.0
 11
69.259466
 21
105.556338
 31
0.0
 11
67.876479
 21
105.876753
 31
0.0
 11
66.533328
 21
105.542149
 31
0.0
 11
65.462281
 21
104.610389
 31
0.0
 11
64.939039
 21
103.290716
 31
0.0
 11
65.069425
 21
101.912668
 31
0.0
 11
65.830891
 21
100.714550
 31
0.0
 11
67.057687
 21
100.000203
 31
0.0
 11
68.439759
 21
99.923450
 31
0.0
 11
69.738109
 21
100.497563
 31
0.0
  0
SPLINE
  5
127
100
AcDbEntity
  8
Layer_1
 62
1
100
AcDbSpline
 70
0
 71
3
 72
10
 73
6
 74
4
 40
0.000000
 40
0.000000
 40
0.000000
 40
0.000000
 40
10.619769
 40
22.152894
 40
34.721221
 40
34.721221
 40
34.721221
 40
34.721221
 10
79.141536
 20
67.200571
 30
0.0
 10
77.730445
 20
70.450712
 30
0.0
 10
74.786902
 20
77.230523
 30
0.0
 10
71.719863
 20
88.433684
 30
0.0
 10
70.417363
 20
96.362779
 30
0.0
 10
69.738140
 20
100.497611
 30
0.0
 11
79.141536
 21
67.200571
 31
0.0
 11
75.135018
 21
77.035575
 31
0.0
 11
72.000553
 21
88.134588
 31
0.0
 11
69.738140
 21
100.497611
 31
0.0
  0
SPLINE
  5
128
100
AcDbEntity
  8
Layer_1
 62
1
100
AcDbSpline
 70
0
 71
3
 72
10
 73
6
 74
4
 40
0.000000
 40
0.000000
 40
0.000000
 40
0.000000
 40
11.544006
 40
23.170660
 40
35.433527
 40
35.433527
 40
35.433527
 40
35.433527
 10
107.119855
 20
38.947531
 30
0.0
 10
103.693240
 20
40.725776
 30
0.0
 10
96.815479
 20
44.294998
 30
0.0
 10
88.066220
 20
52.496314
 30
0.0
 10
83.748437
 20
59.206838
 30
0.0
 10
81.532051
 20
62.651456
 30
0.0
 11
107.119855
 21
38.947531
 31
0.0
 11
97.127066
 21
44.727517
 31
0.0
 11
88.597798
 21
52.628826
 31
0.0
 11
81.532051
 21
62.651456
 31
0.0
  0
LWPOLYLINE
  5
129
100
AcDbEntity
  8
Layer_1
 62
1
100
AcDbPolyline
 90
2
 70
0
 10
69.259466
 20
105.556338
 30
0.0
 10
68.093009
 20
127.288016
 30
0.0
  0
SPLINE
  5
12a
100
AcDbEntity
  8
Layer_1
 62
1
100
AcDbSpline
 70
0
 71
3
 72
16
 73
12
 74
10
 40
0.000000
 40
0.000000
 40
0.000000
 40
0.000000
 40
1.407466
 40
2.780347
 40
4.187813
 40
5.595280
 40
6.968160
 40
8.375627
 40
9.783093
 40
11.155974
 40
12.563440
 40
12.563440
 40
12.563440
 40
12.563440
 10
79.141536
 20
67.200571
 30
0.0
 10
78.665010
 20
67.162566
 30
0.0
 10
77.723668
 20
67.087490
 30
0.0
 10
76.566562
 20
66.179287
 30
0.0
 10
75.927359
 20
64.889243
 30
0.0
 10
75.950688
 20
63.437350
 30
0.0
 10
76.622824
 20
62.158265
 30
0.0
 10
77.805303
 20
61.315485
 30
0.0
 10
79.230305
 20
61.110142
 30
0.0
 10
80.634614
 20
61.547915
 30
0.0
 10
81.230407
 20
62.280576
 30
0.0
 10
81.532009
 20
62.651463
 30
0.0
 11
79.141536
 21
67.200571
 31
0.0
 11
77.756323
 21
66.951279
 31
0.0
 11
76.659954
 21
66.124977
 31
0.0
 11
76.038693
 21
64.862045
 31
0.0
 11
76.061265
 21
63.454760
 31
0.0
 11
76.699885
 21
62.239455
 31
0.0
 11
77.846058
 21
61.422602
 31
0.0
 11
79.238553
 21
61.217862
 31
0.0
 11
80.540960
 21
61.652072
 31
0.0
 11
81.532009
 21
62.651463
 31
0.0
  0
SPLINE
  5
12b
100
AcDbEntity
  8
Layer_1
 62
1
100
AcDbSpline
 70
0
 71
3
 72
13
 73
9
 74
7
 40
0.000000
 40
0.000000
 40
0.000000
 40
0.000000
 40
0.522362
 40
1.029260
 40
1.551623
 40
2.073985
 40
2.580883
 40
3.103245
 40
3.103245
 40
3.103245
 40
3.103245
 10
70.482509
 20
135.765973
 30
0.0
 10
70.658573
 20
135.793724
 30
0.0
 10
71.005488
 20
135.848405
 30
0.0
 10
71.387129
 20
136.246132
 30
0.0
 10
71.528525
 20
136.766118
 30
0.0
 10
71.387129
 20
137.286104
 30
0.0
 10
71.005488
 20
137.683831
 30
0.0
 10
70.658573
 20
137.738512
 30
0.0
 10
70.482509
 20
137.766263
 30
0.0
 11
70.482509
 21
135.765973
 31
0.0
 11
70.986552
 21
135.903097
 31
0.0
 11
71.344673
 21
136.261838
 31
0.0
 11
71.480923
 21
136.766118
 31
0.0
 11
71.344673
 21
137.270398
 31
0.0
 11
70.986552
 21
137.629139
 31
0.0
 11
70.482509
 21
137.766263
 31
0.0
  0
LWPOLYLINE
  5
12c
100
AcDbEntity
  8
Layer_1
 62
1
100
AcDbPolyline
 90
2
 70
0
 10
64.482509
 20
137.765973
 30
0.0
 10
70.482509
 20
137.765973
 30
0.0
  0
LWPOLYLINE
  5
12d
100
AcDbEntity
  8
Layer_1
 62
1
100
AcDbPolyline
 90
2
 70
0
 10
64.482509
 20
135.765973
 30
0.0
 10
70.482509
 20
135.765973
 30
0.0
  0
SPLINE
  5
12e
100
AcDbEntity
  8
Layer_1
 62
1
100
AcDbSpline
 70
0
 71
3
 72
16
 73
12
 74
10
 40
0.000000
 40
0.000000
 40
0.000000
 40
0.000000
 40
0.352743
 40
0.700335
 40
1.053078
 40
1.405820
 40
1.753412
 40
2.106155
 40
2.458898
 40
2.806490
 40
3.159233
 40
3.159233
 40
3.159233
 40
3.159233
 10
64.482509
 20
137.765973
 30
0.0
 10
64.364124
 20
137.755774
 30
0.0
 10
64.129084
 20
137.735526
 30
0.0
 10
63.816729
 20
137.552863
 30
0.0
 10
63.584036
 20
137.282132
 30
0.0
 10
63.460434
 20
136.945088
 30
0.0
 10
63.460434
 20
136.587148
 30
0.0
 10
63.584036
 20
136.250104
 30
0.0
 10
63.816729
 20
135.979373
 30
0.0
 10
64.129084
 20
135.796710
 30
0.0
 10
64.364124
 20
135.776462
 30
0.0
 10
64.482509
 20
135.766263
 30
0.0
 11
64.482509
 21
137.765973
 31
0.0
 11
64.134284
 21
137.709696
 31
0.0
 11
63.831307
 21
137.539329
 31
0.0
 11
63.602307
 21
137.271026
 31
0.0
 11
63.480683
 21
136.939914
 31
0.0
 11
63.480683
 21
136.592322
 31
0.0
 11
63.602307
 21
136.261210
 31
0.0
 11
63.831307
 21
135.992907
 31
0.0
 11
64.134284
 21
135.822540
 31
0.0
 11
64.482509
 21
135.766263
 31
0.0
  0
SPLINE
  5
12f
100
AcDbEntity
  8
Layer_1
 62
1
100
AcDbSpline
 70
0
 71
3
 72
13
 73
9
 74
7
 40
0.000000
 40
0.000000
 40
0.000000
 40
0.000000
 40
0.522362
 40
1.029260
 40
1.551623
 40
2.073985
 40
2.580883
 40
3.103245
 40
3.103245
 40
3.103245
 40
3.103245
 10
70.482509
 20
141.765973
 30
0.0
 10
70.658573
 20
141.793724
 30
0.0
 10
71.005488
 20
141.848405
 30
0.0
 10
71.387129
 20
142.246132
 30
0.0
 10
71.528525
 20
142.766118
 30
0.0
 10
71.387129
 20
143.286104
 30
0.0
 10
71.005488
 20
143.683831
 30
0.0
 10
70.658573
 20
143.738512
 30
0.0
 10
70.482509
 20
143.766263
 30
0.0
 11
70.482509
 21
141.765973
 31
0.0
 11
70.986552
 21
141.903097
 31
0.0
 11
71.344673
 21
142.261838
 31
0.0
 11
71.480923
 21
142.766118
 31
0.0
 11
71.344673
 21
143.270398
 31
0.0
 11
70.986552
 21
143.629139
 31
0.0
 11
70.482509
 21
143.766263
 31
0.0
  0
LWPOLYLINE
  5
130
100
AcDbEntity
  8
Layer_1
 62
1
100
AcDbPolyline
 90
2
 70
0
 10
64.482509
 20
143.765973
 30
0.0
 10
70.482509
 20
143.765973
 30
0.0
  0
LWPOLYLINE
  5
131
100
AcDbEntity
  8
Layer_1
 62
1
100
AcDbPolyline
 90
2
 70
0
 10
64.482509
 20
141.765973
 30
0.0
 10
70.482509
 20
141.765973
 30
0.0
  0
SPLINE
  5
132
100
AcDbEntity
  8
Layer_1
 62
1
100
AcDbSpline
 70
0
 71
3
 72
13
 73
9
 74
7
 40
0.000000
 40
0.000000
 40
0.000000
 40
0.000000
 40
0.517221
 40
1.019382
 40
1.536603
 40
2.053823
 40
2.555984
 40
3.073205
 40
3.073205
 40
3.073205
 40
3.073205
 10
64.482509
 20
143.765973
 30
0.0
 10
64.308651
 20
143.736118
 30
0.0
 10
63.965998
 20
143.677278
 30
0.0
 10
63.591504
 20
143.280991
 30
0.0
 10
63.452875
 20
142.766118
 30
0.0
 10
63.591504
 20
142.251245
 30
0.0
 10
63.965998
 20
141.854958
 30
0.0
 10
64.308651
 20
141.796118
 30
0.0
 10
64.482509
 20
141.766263
 30
0.0
 11
64.482509
 21
143.765973
 31
0.0
 11
63.985190
 21
143.623876
 31
0.0
 11
63.633145
 21
143.265784
 31
0.0
 11
63.499538
 21
142.766118
 31
0.0
 11
63.633145
 21
142.266452
 31
0.0
 11
63.985190
 21
141.908360
 31
0.0
 11
64.482509
 21
141.766263
 31
0.0
  0
SPLINE
  5
133
100
AcDbEntity
  8
Layer_1
 62
1
100
AcDbSpline
 70
0
 71
3
 72
13
 73
9
 74
7
 40
0.000000
 40
0.000000
 40
0.000000
 40
0.000000
 40
0.522362
 40
1.029260
 40
1.551623
 40
2.073985
 40
2.580883
 40
3.103245
 40
3.103245
 40
3.103245
 40
3.103245
 10
226.517509
 20
135.765973
 30
0.0
 10
226.341445
 20
135.793724
 30
0.0
 10
225.994530
 20
135.848405
 30
0.0
 10
225.612889
 20
136.246132
 30
0.0
 10
225.471493
 20
136.766118
 30
0.0
 10
225.612889
 20
137.286104
 30
0.0
 10
225.994530
 20
137.683831
 30
0.0
 10
226.341445
 20
137.738512
 30
0.0
 10
226.517509
 20
137.766263
 30
0.0
 11
226.517509
 21
135.765973
 31
0.0
 11
226.013466
 21
135.903097
 31
0.0
 11
225.655345
 21
136.261838
 31
0.0
 11
225.519095
 21
136.766118
 31
0.0
 11
225.655345
 21
137.270398
 31
0.0
 11
226.013466
 21
137.629139
 31
0.0
 11
226.517509
 21
137.766263
 31
0.0
  0
LWPOLYLINE
  5
134
100
AcDbEntity
  8
Layer_1
 62
1
100
AcDbPolyline
 90
2
 70
0
 10
232.517509
 20
137.765973
 30
0.0
 10
226.517509
 20
137.765973
 30
0.0
  0
LWPOLYLINE
  5
135
100
AcDbEntity
  8
Layer_1
 62
1
100
AcDbPolyline
 90
2
 70
0
 10
232.517509
 20
135.765973
 30
0.0
 10
226.517509
 20
135.765973
 30
0.0
  0
SPLINE
  5
136
100
AcDbEntity
  8
Layer_1
 62
1
100
AcDbSpline
 70
0
 71
3
 72
16
 73
12
 74
10
 40
0.000000
 40
0.000000
 40
0.000000
 40
0.000000
 40
0.352743
 40
0.700335
 40
1.053078
 40
1.405820
 40
1.753412
 40
2.106155
 40
2.458898
 40
2.806490
 40
3.159233
 40
3.159233
 40
3.159233
 40
3.159233
 10
232.517509
 20
137.765973
 30
0.0
 10
232.635894
 20
137.755774
 30
0.0
 10
232.870934
 20
137.735526
 30
0.0
 10
233.183289
 20
137.552863
 30
0.0
 10
233.415982
 20
137.282132
 30
0.0
 10
233.539584
 20
136.945088
 30
0.0
 10
233.539584
 20
136.587148
 30
0.0
 10
233.415982
 20
136.250104
 30
0.0
 10
233.183289
 20
135.979373
 30
0.0
 10
232.870934
 20
135.796710
 30
0.0
 10
232.635894
 20
135.776462
 30
0.0
 10
232.517509
 20
135.766263
 30
0.0
 11
232.517509
 21
137.765973
 31
0.0
 11
232.865734
 21
137.709696
 31
0.0
 11
233.168711
 21
137.539329
 31
0.0
 11
233.397711
 21
137.271026
 31
0.0
 11
233.519335
 21
136.939914
 31
0.0
 11
233.519335
 21
136.592322
 31
0.0
 11
233.397711
 21
136.261210
 31
0.0
 11
233.168711
 21
135.992907
 31
0.0
 11
232.865734
 21
135.822540
 31
0.0
 11
232.517509
 21
135.766263
 31
0.0
  0
SPLINE
  5
137
100
AcDbEntity
  8
Layer_1
 62
1
100
AcDbSpline
 70
0
 71
3
 72
13
 73
9
 74
7
 40
0.000000
 40
0.000000
 40
0.000000
 40
0.000000
 40
0.522362
 40
1.029260
 40
1.551623
 40
2.073985
 40
2.580883
 40
3.103245
 40
3.103245
 40
3.103245
 40
3.103245
 10
226.517509
 20
141.765973
 30
0.0
 10
226.341445
 20
141.793724
 30
0.0
 10
225.994530
 20
141.848405
 30
0.0
 10
225.612889
 20
142.246132
 30
0.0
 10
225.471493
 20
142.766118
 30
0.0
 10
225.612889
 20
143.286104
 30
0.0
 10
225.994530
 20
143.683831
 30
0.0
 10
226.341445
 20
143.738512
 30
0.0
 10
226.517509
 20
143.766263
 30
0.0
 11
226.517509
 21
141.765973
 31
0.0
 11
226.013466
 21
141.903097
 31
0.0
 11
225.655345
 21
142.261838
 31
0.0
 11
225.519095
 21
142.766118
 31
0.0
 11
225.655345
 21
143.270398
 31
0.0
 11
226.013466
 21
143.629139
 31
0.0
 11
226.517509
 21
143.766263
 31
0.0
  0
LWPOLYLINE
  5
138
100
AcDbEntity
  8
Layer_1
 62
1
100
AcDbPolyline
 90
2
 70
0
 10
232.517509
 20
143.765973
 30
0.0
 10
226.517509
 20
143.765973
 30
0.0
  0
SPLINE
  5
139
100
AcDbEntity
  8
Layer_1
 62
1
100
AcDbSpline
 70
0
 71
3
 72
13
 73
9
 74
7
 40
0.000000
 40
0.000000
 40
0.000000
 40
0.000000
 40
0.517221
 40
1.019382
 40
1.536603
 40
2.053823
 40
2.555984
 40
3.073205
 40
3.073205
 40
3.073205
 40
3.073205
 10
232.517509
 20
143.765973
 30
0.0
 10
232.691367
 20
143.736118
 30
0.0
 10
233.034020
 20
143.677278
 30
0.0
 10
233.408514
 20
143.280991
 30
0.0
 10
233.547143
 20
142.766118
 30
0.0
 10
233.408514
 20
142.251245
 30
0.0
 10
233.034020
 20
141.854958
 30
0.0
 10
232.691367
 20
141.796118
 30
0.0
 10
232.517509
 20
141.766263
 30
0.0
 11
232.517509
 21
143.765973
 31
0.0
 11
233.014828
 21
143.623876
 31
0.0
 11
233.366873
 21
143.265784
 31
0.0
 11
233.500480
 21
142.766118
 31
0.0
 11
233.366873
 21
142.266452
 31
0.0
 11
233.014828
 21
141.908360
 31
0.0
 11
232.517509
 21
141.766263
 31
0.0
  0
LWPOLYLINE
  5
13a
100
AcDbEntity
  8
Layer_1
 62
1
100
AcDbPolyline
 90
2
 70
0
 10
232.517509
 20
141.765973
 30
0.0
 10
226.517509
 20
141.765973
 30
0.0
  0
SPLINE
  5
13b
100
AcDbEntity
  8
Layer_1
 62
1
100
AcDbSpline
 70
0
 71
3
 72
25
 73
21
 74
19
 40
0.000000
 40
0.000000
 40
0.000000
 40
0.000000
 40
0.872410
 40
1.732335
 40
2.604745
 40
3.477156
 40
4.337080
 40
5.209491
 40
6.081901
 40
6.941826
 40
7.814236
 40
8.686646
 40
9.546571
 40
10.418981
 40
11.291392
 40
12.151316
 40
13.023727
 40
13.896137
 40
14.756062
 40
15.628472
 40
15.628472
 40
15.628472
 40
15.628472
 10
124.000009
 20
48.926263
 30
0.0
 10
123.970139
 20
49.218550
 30
0.0
 10
123.910827
 20
49.798940
 30
0.0
 10
123.450660
 20
50.565934
 30
0.0
 10
122.776898
 20
51.136174
 30
0.0
 10
121.942571
 20
51.438611
 30
0.0
 10
121.057256
 20
51.438611
 30
0.0
 10
120.224097
 20
51.136174
 30
0.0
 10
119.545669
 20
50.565934
 30
0.0
 10
119.102838
 20
49.798940
 30
0.0
 10
118.948224
 20
48.926263
 30
0.0
 10
119.102838
 20
48.053586
 30
0.0
 10
119.545669
 20
47.286592
 30
0.0
 10
120.224097
 20
46.716352
 30
0.0
 10
121.057256
 20
46.413915
 30
0.0
 10
121.942571
 20
46.413915
 30
0.0
 10
122.776898
 20
46.716352
 30
0.0
 10
123.450660
 20
47.286592
 30
0.0
 10
123.910827
 20
48.053586
 30
0.0
 10
123.970139
 20
48.633976
 30
0.0
 10
124.000009
 20
48.926263
 30
0.0
 11
124.000009
 21
48.926263
 31
0.0
 11
123.847824
 21
49.785297
 31
0.0
 11
123.417862
 21
50.530014
 31
0.0
 11
122.750009
 21
51.091327
 31
0.0
 11
121.929971
 21
51.389048
 31
0.0
 11
121.070047
 21
51.389048
 31
0.0
 11
120.250009
 21
51.091327
 31
0.0
 11
119.582156
 21
50.530014
 31
0.0
 11
119.152194
 21
49.785297
 31
0.0
 11
119.000009
 21
48.926263
 31
0.0
 11
119.152194
 21
48.067229
 31
0.0
 11
119.582156
 21
47.322512
 31
0.0
 11
120.250009
 21
46.761199
 31
0.0
 11
121.070047
 21
46.463478
 31
0.0
 11
121.929971
 21
46.463478
 31
0.0
 11
122.750009
 21
46.761199
 31
0.0
 11
123.417862
 21
47.322512
 31
0.0
 11
123.847824
 21
48.067229
 31
0.0
 11
124.000009
 21
48.926263
 31
0.0
  0
LWPOLYLINE
  5
13c
100
AcDbEntity
  8
Layer_1
 62
1
100
AcDbPolyline
 90
1
 70
1
 10
124.000009
 20
48.926263
 30
0.0
  0
SPLINE
  5
13d
100
AcDbEntity
  8
Layer_1
 62
1
100
AcDbSpline
 70
0
 71
3
 72
25
 73
21
 74
19
 40
0.000000
 40
0.000000
 40
0.000000
 40
0.000000
 40
0.872410
 40
1.732335
 40
2.604745
 40
3.477156
 40
4.337080
 40
5.209491
 40
6.081901
 40
6.941826
 40
7.814236
 40
8.686646
 40
9.546571
 40
10.418981
 40
11.291392
 40
12.151316
 40
13.023727
 40
13.896137
 40
14.756062
 40
15.628472
 40
15.628472
 40
15.628472
 40
15.628472
 10
97.000009
 20
63.926263
 30
0.0
 10
96.970139
 20
64.218550
 30
0.0
 10
96.910827
 20
64.798940
 30
0.0
 10
96.450660
 20
65.565934
 30
0.0
 10
95.776898
 20
66.136174
 30
0.0
 10
94.942571
 20
66.438611
 30
0.0
 10
94.057256
 20
66.438611
 30
0.0
 10
93.224097
 20
66.136174
 30
0.0
 10
92.545669
 20
65.565934
 30
0.0
 10
92.102838
 20
64.798940
 30
0.0
 10
91.948224
 20
63.926263
 30
0.0
 10
92.102838
 20
63.053586
 30
0.0
 10
92.545669
 20
62.286592
 30
0.0
 10
93.224097
 20
61.716352
 30
0.0
 10
94.057256
 20
61.413915
 30
0.0
 10
94.942571
 20
61.413915
 30
0.0
 10
95.776898
 20
61.716352
 30
0.0
 10
96.450660
 20
62.286592
 30
0.0
 10
96.910827
 20
63.053586
 30
0.0
 10
96.970139
 20
63.633976
 30
0.0
 10
97.000009
 20
63.926263
 30
0.0
 11
97.000009
 21
63.926263
 31
0.0
 11
96.847824
 21
64.785297
 31
0.0
 11
96.417862
 21
65.530014
 31
0.0
 11
95.750009
 21
66.091327
 31
0.0
 11
94.929971
 21
66.389048
 31
0.0
 11
94.070047
 21
66.389048
 31
0.0
 11
93.250009
 21
66.091327
 31
0.0
 11
92.582156
 21
65.530014
 31
0.0
 11
92.152194
 21
64.785297
 31
0.0
 11
92.000009
 21
63.926263
 31
0.0
 11
92.152194
 21
63.067229
 31
0.0
 11
92.582156
 21
62.322512
 31
0.0
 11
93.250009
 21
61.761199
 31
0.0
 11
94.070047
 21
61.463478
 31
0.0
 11
94.929971
 21
61.463478
 31
0.0
 11
95.750009
 21
61.761199
 31
0.0
 11
96.417862
 21
62.322512
 31
0.0
 11
96.847824
 21
63.067229
 31
0.0
 11
97.000009
 21
63.926263
 31
0.0
  0
LWPOLYLINE
  5
13e
100
AcDbEntity
  8
Layer_1
 62
1
100
AcDbPolyline
 90
1
 70
1
 10
97.000009
 20
63.926263
 30
0.0
  0
SPLINE
  5
13f
100
AcDbEntity
  8
Layer_1
 62
1
100
AcDbSpline
 70
0
 71
3
 72
25
 73
21
 74
19
 40
0.000000
 40
0.000000
 40
0.000000
 40
0.000000
 40
0.872410
 40
1.732335
 40
2.604745
 40
3.477156
 40
4.337080
 40
5.209491
 40
6.081901
 40
6.941826
 40
7.814236
 40
8.686646
 40
9.546571
 40
10.418981
 40
11.291392
 40
12.151316
 40
13.023727
 40
13.896137
 40
14.756062
 40
15.628472
 40
15.628472
 40
15.628472
 40
15.628472
 10
178.000009
 20
48.926263
 30
0.0
 10
177.970139
 20
49.218550
 30
0.0
 10
177.910827
 20
49.798940
 30
0.0
 10
177.450660
 20
50.565934
 30
0.0
 10
176.776898
 20
51.136174
 30
0.0
 10
175.942571
 20
51.438611
 30
0.0
 10
175.057256
 20
51.438611
 30
0.0
 10
174.224097
 20
51.136174
 30
0.0
 10
173.545669
 20
50.565934
 30
0.0
 10
173.102838
 20
49.798940
 30
0.0
 10
172.948224
 20
48.926263
 30
0.0
 10
173.102838
 20
48.053586
 30
0.0
 10
173.545669
 20
47.286592
 30
0.0
 10
174.224097
 20
46.716352
 30
0.0
 10
175.057256
 20
46.413915
 30
0.0
 10
175.942571
 20
46.413915
 30
0.0
 10
176.776898
 20
46.716352
 30
0.0
 10
177.450660
 20
47.286592
 30
0.0
 10
177.910827
 20
48.053586
 30
0.0
 10
177.970139
 20
48.633976
 30
0.0
 10
178.000009
 20
48.926263
 30
0.0
 11
178.000009
 21
48.926263
 31
0.0
 11
177.847824
 21
49.785297
 31
0.0
 11
177.417862
 21
50.530014
 31
0.0
 11
176.750009
 21
51.091327
 31
0.0
 11
175.929971
 21
51.389048
 31
0.0
 11
175.070047
 21
51.389048
 31
0.0
 11
174.250009
 21
51.091327
 31
0.0
 11
173.582156
 21
50.530014
 31
0.0
 11
173.152194
 21
49.785297
 31
0.0
 11
173.000009
 21
48.926263
 31
0.0
 11
173.152194
 21
48.067229
 31
0.0
 11
173.582156
 21
47.322512
 31
0.0
 11
174.250009
 21
46.761199
 31
0.0
 11
175.070047
 21
46.463478
 31
0.0
 11
175.929971
 21
46.463478
 31
0.0
 11
176.750009
 21
46.761199
 31
0.0
 11
177.417862
 21
47.322512
 31
0.0
 11
177.847824
 21
48.067229
 31
0.0
 11
178.000009
 21
48.926263
 31
0.0
  0
LWPOLYLINE
  5
140
100
AcDbEntity
  8
Layer_1
 62
1
100
AcDbPolyline
 90
1
 70
1
 10
178.000009
 20
48.926263
 30
0.0
  0
LWPOLYLINE
  5
141
100
AcDbEntity
  8
Layer_1
 62
1
100
AcDbPolyline
 90
1
 70
1
 10
205.000009
 20
63.926263
 30
0.0
  0
LWPOLYLINE
  5
142
100
AcDbEntity
  8
Layer_1
 62
7
100
AcDbPolyline
 90
2
 70
0
 10
68.093010
 20
127.288063
 30
0.0
 10
68.093010
 20
132.288063
 30
0.0
  0
SPLINE
  5
143
100
AcDbEntity
  8
Layer_1
 62
1
100
AcDbSpline
 70
0
 71
3
 72
25
 73
21
 74
19
 40
0.000000
 40
0.000000
 40
0.000000
 40
0.000000
 40
0.872410
 40
1.732335
 40
2.604745
 40
3.477156
 40
4.337080
 40
5.209491
 40
6.081901
 40
6.941826
 40
7.814236
 40
8.686646
 40
9.546571
 40
10.418981
 40
11.291392
 40
12.151316
 40
13.023727
 40
13.896137
 40
14.756062
 40
15.628472
 40
15.628472
 40
15.628472
 40
15.628472
 10
205.000009
 20
63.926263
 30
0.0
 10
204.970139
 20
64.218550
 30
0.0
 10
204.910827
 20
64.798940
 30
0.0
 10
204.450660
 20
65.565934
 30
0.0
 10
203.776898
 20
66.136174
 30
0.0
 10
202.942571
 20
66.438611
 30
0.0
 10
202.057256
 20
66.438611
 30
0.0
 10
201.224097
 20
66.136174
 30
0.0
 10
200.545669
 20
65.565934
 30
0.0
 10
200.102838
 20
64.798940
 30
0.0
 10
199.948224
 20
63.926263
 30
0.0
 10
200.102838
 20
63.053586
 30
0.0
 10
200.545669
 20
62.286592
 30
0.0
 10
201.224097
 20
61.716352
 30
0.0
 10
202.057256
 20
61.413915
 30
0.0
 10
202.942571
 20
61.413915
 30
0.0
 10
203.776898
 20
61.716352
 30
0.0
 10
204.450660
 20
62.286592
 30
0.0
 10
204.910827
 20
63.053586
 30
0.0
 10
204.970139
 20
63.633976
 30
0.0
 10
205.000009
 20
63.926263
 30
0.0
 11
205.000009
 21
63.926263
 31
0.0
 11
204.847824
 21
64.785297
 31
0.0
 11
204.417862
 21
65.530014
 31
0.0
 11
203.750009
 21
66.091327
 31
0.0
 11
202.929971
 21
66.389048
 31
0.0
 11
202.070047
 21
66.389048
 31
0.0
 11
201.250009
 21
66.091327
 31
0.0
 11
200.582156
 21
65.530014
 31
0.0
 11
200.152194
 21
64.785297
 31
0.0
 11
200.000009
 21
63.926263
 31
0.0
 11
200.152194
 21
63.067229
 31
0.0
 11
200.582156
 21
62.322512
 31
0.0
 11
201.250009
 21
61.761199
 31
0.0
 11
202.070047
 21
61.463478
 31
0.0
 11
202.929971
 21
61.463478
 31
0.0
 11
203.750009
 21
61.761199
 31
0.0
 11
204.417862
 21
62.322512
 31
0.0
 11
204.847824
 21
63.067229
 31
0.0
 11
205.000009
 21
63.926263
 31
0.0
  0
LWPOLYLINE
  5
144
100
AcDbEntity
  8
Layer_1
 62
7
100
AcDbPolyline
 90
2
 70
0
 10
228.907010
 20
127.288063
 30
0.0
 10
228.907010
 20
132.288063
 30
0.0
  0
ENDSEC
  0
SECTION
  2
OBJECTS
  0
DICTIONARY
  5
C
330
0
100
AcDbDictionary
  3
ACAD_GROUP
350
D
  3
ACAD_MLINESTYLE
350
17
  0
DICTIONARY
  5
D
330
C
100
AcDbDictionary
  0
DICTIONARY
  5
1A
330
C
100
AcDbDictionary
  0
DICTIONARY
  5
17
330
C
100
AcDbDictionary
  3
STANDARD
350
18
  0
DICTIONARY
  5
19
330
C
100
AcDbDictionary
  0
ENDSEC
  0
EOF
