<?xml version="1.0" encoding="UTF-8"?>
<!DOCTYPE svg PUBLIC "-//W3C//DTD SVG 1.1//EN" "http://www.w3.org/Graphics/SVG/1.1/DTD/svg11.dtd">
<!-- Creator: CorelDRAW 2019 (64-Bit) -->
<svg xmlns="http://www.w3.org/2000/svg" xml:space="preserve" width="20in" height="11in" version="1.1" style="shape-rendering:geometricPrecision; text-rendering:geometricPrecision; image-rendering:optimizeQuality; fill-rule:evenodd; clip-rule:evenodd"
viewBox="0 0 20000 11000"
 xmlns:xlink="http://www.w3.org/1999/xlink"
 xmlns:xodm="http://www.corel.com/coreldraw/odm/2003">
 <defs>
  <style type="text/css">
   <![CDATA[
    .str0 {stroke:#373435;stroke-width:6.94;stroke-miterlimit:2.61313}
    .str3 {stroke:#373435;stroke-width:6.94;stroke-miterlimit:2.61313}
    .str1 {stroke:#ED3237;stroke-width:6.94;stroke-miterlimit:10}
    .str2 {stroke:#373435;stroke-width:9.84;stroke-linejoin:bevel;stroke-miterlimit:2.61313}
    .str4 {stroke:#373435;stroke-width:3;stroke-linejoin:bevel;stroke-miterlimit:2.61313}
    .fil0 {fill:none}
   ]]>
  </style>
 </defs>
 <g id="Layer_x0020_1">
  <metadata id="CorelCorpID_0Corel-Layer"/>
  <g id="_2302541514640">
   <rect class="fil0 str0" x="18351.1" y="2110.9" width="295.28" height="185.04"/>
   <rect class="fil0 str0" x="19138.07" y="2110.9" width="295.28" height="185.04"/>
  </g>
  <g id="_2302829871664">
   <polyline class="fil0 str1" points="17656.9,1969.2 17656.9,1852.13 17612.33,1969.2 17567.75,1852.13 17567.75,1969.2 "/>
   <polyline class="fil0 str1" points="17801.49,1969.2 17756.92,1852.13 17712.34,1969.2 "/>
   <line class="fil0 str1" x1="17728.97" y1="1930.3" x2="17784.87" y2= "1930.3" />
   <line class="fil0 str1" x1="17856.76" y1="1852.13" x2="17856.76" y2= "1969.2" />
   <line class="fil0 str1" x1="17934.94" y1="1852.13" x2="17856.76" y2= "1930.3" />
   <line class="fil0 str1" x1="17884.7" y1="1902.35" x2="17934.94" y2= "1969.2" />
   <polyline class="fil0 str1" points="18073.87,1852.13 18001.35,1852.13 18001.35,1969.2 18073.87,1969.2 "/>
   <line class="fil0 str1" x1="18001.35" y1="1908.01" x2="18045.92" y2= "1908.01" />
   <polyline class="fil0 str1" points="18134.61,1908.01 18184.85,1908.01 18201.48,1902.35 18207.14,1896.69 18212.8,1885.73 18212.8,1874.41 18207.14,1863.44 18201.48,1857.79 18184.85,1852.13 18134.61,1852.13 18134.61,1969.2 "/>
   <line class="fil0 str1" x1="18173.7" y1="1908.01" x2="18212.8" y2= "1969.2" />
   <polyline class="fil0 str1" points="18284.87,1863.44 18279.2,1857.79 18284.87,1852.13 18290.53,1857.79 18290.53,1868.93 18284.87,1880.07 18279.2,1885.73 "/>
   <polyline class="fil0 str1" points="18434.94,1868.93 18423.8,1857.79 18406.99,1852.13 18384.7,1852.13 18368.07,1857.79 18356.93,1868.93 18356.93,1880.07 18362.42,1891.21 18368.07,1896.69 18379.22,1902.35 18412.65,1913.49 18423.8,1918.98 18429.28,1924.63 18434.94,1935.78 18434.94,1952.49 18423.8,1963.63 18406.99,1969.2 18384.7,1969.2 18368.07,1963.63 18356.93,1952.49 "/>
  </g>
  <g id="_2302829834704">
   <polyline class="fil0 str1" points="18613.72,1969.2 18569.14,1852.13 18524.57,1969.2 "/>
   <line class="fil0 str1" x1="18541.19" y1="1930.3" x2="18597.09" y2= "1930.3" />
   <polyline class="fil0 str1" points="18741.5,1868.93 18730.36,1857.79 18713.56,1852.13 18691.27,1852.13 18674.64,1857.79 18663.5,1868.93 18663.5,1880.07 18668.98,1891.21 18674.64,1896.69 18685.78,1902.35 18719.22,1913.49 18730.36,1918.98 18735.84,1924.63 18741.5,1935.78 18741.5,1952.49 18730.36,1963.63 18713.56,1969.2 18691.27,1969.2 18674.64,1963.63 18663.5,1952.49 "/>
   <polyline class="fil0 str1" points="18791.28,1852.13 18835.86,1908.01 18835.86,1969.2 "/>
   <line class="fil0 str1" x1="18880.43" y1="1852.13" x2="18835.86" y2= "1908.01" />
   <polyline class="fil0 str1" points="18935.69,1852.13 18935.69,1969.2 19002.56,1969.2 "/>
   <polyline class="fil0 str1" points="19058,1852.13 19058,1935.78 19063.66,1952.49 19074.8,1963.63 19091.61,1969.2 19102.57,1969.2 19119.37,1963.63 19130.52,1952.49 19136.18,1935.78 19136.18,1852.13 "/>
   <polyline class="fil0 str1" points="19297.22,1969.2 19297.22,1852.13 19252.65,1969.2 19208.07,1852.13 19208.07,1969.2 "/>
  </g>
  <line class="fil0 str2" x1="16062.41" y1="2295.93" x2="16357.67" y2= "2295.93" />
  <line class="fil0 str2" x1="16357.67" y1="2295.93" x2="16357.67" y2= "2110.9" />
  <line class="fil0 str2" x1="16357.67" y1="2110.9" x2="16062.41" y2= "2110.9" />
  <line class="fil0 str2" x1="16062.41" y1="2110.9" x2="16062.41" y2= "2295.93" />
  <line class="fil0 str2" x1="14488.44" y1="2295.93" x2="14783.7" y2= "2295.93" />
  <line class="fil0 str2" x1="14783.7" y1="2295.93" x2="14783.7" y2= "2110.9" />
  <line class="fil0 str2" x1="14783.7" y1="2110.9" x2="14488.44" y2= "2110.9" />
  <line class="fil0 str2" x1="14488.44" y1="2110.9" x2="14488.44" y2= "2295.93" />
  <line class="fil0 str2" x1="12914.48" y1="2295.93" x2="13209.74" y2= "2295.93" />
  <line class="fil0 str2" x1="13209.74" y1="2295.93" x2="13209.74" y2= "2110.9" />
  <line class="fil0 str2" x1="13209.74" y1="2110.9" x2="12914.48" y2= "2110.9" />
  <line class="fil0 str2" x1="12914.48" y1="2110.9" x2="12914.48" y2= "2295.93" />
  <line class="fil0 str2" x1="11340.53" y1="2295.93" x2="11635.79" y2= "2295.93" />
  <line class="fil0 str2" x1="11635.79" y1="2295.93" x2="11635.79" y2= "2110.9" />
  <line class="fil0 str2" x1="11635.79" y1="2110.9" x2="11340.53" y2= "2110.9" />
  <line class="fil0 str2" x1="11340.53" y1="2110.9" x2="11340.53" y2= "2295.93" />
  <line class="fil0 str2" x1="8002.64" y1="9988.85" x2="19695.55" y2= "9988.85" />
  <line class="fil0 str2" x1="8002.64" y1="1721.13" x2="8002.64" y2= "9988.85" />
  <line class="fil0 str2" x1="19695.55" y1="1721.13" x2="8002.64" y2= "1721.13" />
  <line class="fil0 str2" x1="19695.55" y1="9988.85" x2="19695.55" y2= "1721.13" />
  <circle class="fil0 str3" cx="19566.73" cy="1842.24" r="19.69"/>
  <path class="fil0 str4" d="M309.62 3708.75c0,49.56 30.94,93.85 77.48,110.9m6257.19 -121.14c0.94,-62.76 0.57,-146.67 0.06,-226.52m175.61 -222.98c-82.92,57.44 -141.68,132.45 -176.29,225.04m325.76 -225.04l-149.47 0m149.47 0c21.73,0 42.56,8.43 57.82,23.42 15.27,14.99 23.7,35.28 23.42,56.33m-1.03 364.6l1.03 -364.6m-1.03 359.48l0 10.25m-250.75 -173.63c0,-18.85 9.61,-36.28 25.22,-45.7 15.61,-9.43 34.84,-9.43 50.44,0 15.61,9.42 25.22,26.84 25.22,45.7m-100.89 170.06l0 -170.06m100.89 170.06c0,29.14 -22.59,52.76 -50.44,52.77 -27.86,0 -50.45,-23.63 -50.45,-52.77m100.89 0l0 -170.06m-1720.99 3992.97l139.21 -57.11m-3232.65 -1.07l139.29 57m1401.46 203.86l151.04 0.09m-3363.62 -2665.56l-18.38 -137.89m173.82 -42.67l-103.61 -14.13m0 0c-7.41,-1.01 -14.94,0.11 -21.74,3.23m0 0l-25.97 11.92m0 0c-15.95,7.32 -25.13,24.31 -22.5,41.66m18.38 137.89l17.74 117.47m0 0c2.63,17.38 16.45,30.91 33.88,33.17m0 0l28.28 3.66m0 0c7.39,0.95 14.9,-0.21 21.65,-3.35m0 0l95.42 -44.37m-260.67 -904.98l-7.39 -138.91m176.67 -28.74l-102.17 -22.31m0 0c-7.3,-1.59 -14.91,-1.08 -21.93,1.49m0 0l-26.83 9.82m0 0c-16.48,6.03 -26.98,22.24 -25.74,39.74m7.39 138.91l8.37 118.5m0 0c1.23,17.53 13.94,32.11 31.13,35.75m0 0l27.91 5.89m0 0c7.29,1.54 14.87,0.98 21.85,-1.62m0 0l98.64 -36.66m842.63 2827.73l-101.65 -94.97m107.36 -143.22l-89.08 54.77m0 0c-6.37,3.91 -11.5,9.56 -14.77,16.28m0 0l-12.52 25.68m0 0c-7.69,15.78 -4.01,34.73 9.01,46.49m101.65 94.97l88.19 79.59m0 0c13.05,11.77 32.32,13.47 47.22,4.17m0 0l24.2 -15.1m0 0c6.32,-3.95 11.39,-9.6 14.63,-16.31m0 0l45.65 -94.81m1308.43 695.87l-137.77 -19.28m5.52 -178.89l-41.41 96.02m0 0c-2.96,6.86 -3.91,14.43 -2.72,21.81m0 0l4.51 28.21m0 0c2.78,17.33 16.68,30.72 34.1,32.85m137.77 19.28l117.92 14.42m0 0c17.44,2.13 34.19,-7.55 41.04,-23.74m0 0l11.11 -26.26m0 0c2.91,-6.86 3.8,-14.41 2.59,-21.76m0 0l-16.83 -104.91m1443.26 162.85l-138.13 16.57m-40.39 -174.37l-15.49 103.41m0 0c-1.11,7.39 -0.09,14.95 2.94,21.78m0 0l11.57 26.12m0 0c7.11,16.04 23.99,25.44 41.36,23.05m138.13 -16.57l117.69 -16.2m0 0c17.41,-2.39 31.12,-16.04 33.61,-33.44m0 0l4.04 -28.23m0 0c1.04,-7.37 -0.01,-14.9 -3.06,-21.69m0 0l-43.12 -96m1420.63 -469.23l-104.62 91.69m-131.82 -121.07l45.63 94.09m0 0c3.26,6.73 8.37,12.39 14.73,16.31m0 0l24.31 15.01m0 0c14.93,9.22 34.16,7.45 47.15,-4.34m104.62 -91.69l87.96 -79.85m0 0c13.01,-11.81 16.62,-30.81 8.84,-46.57m0 0l-12.62 -25.57m0 0c-3.3,-6.69 -8.42,-12.29 -14.78,-16.18m0 0l-89.8 -54.85m976.64 -1939.65l-21.46 137.44m-178.79 -8.35l95.36 42.92m0 0c6.81,3.07 14.36,4.14 21.76,3.07m0 0l28.28 -4.07m0 0c17.37,-2.5 30.98,-16.19 33.39,-33.57m21.46 -137.44l16.29 -117.68m0 0c2.41,-17.41 -7.02,-34.3 -23.09,-41.41m0 0l-26.08 -11.53m0 0c-6.81,-3.01 -14.35,-4.03 -21.72,-2.93m0 0l-104.08 15.5m224.43 -643.96l-7.81 138.89m-178.74 9.31l99.12 33.31m0 0c7.08,2.38 14.7,2.7 21.96,0.91m0 0l27.74 -6.83m0 0c17.04,-4.2 29.24,-19.17 29.92,-36.7m7.81 -138.89l4.61 -118.71m0 0c0.68,-17.56 -10.36,-33.44 -27.06,-38.93m0 0l-27.09 -8.9m0 0c-7.08,-2.32 -14.67,-2.59 -21.9,-0.78m0 0l-102.05 25.69m-5908.04 2296.75l72.33 132.07m5376.32 -130.66l-71.41 132.53m343.37 -873.34l-41.37 148.21m-5954.23 -144.95l40.17 145.29m-227.04 -1796.73c-2.52,-80.31 -53.59,-151.03 -129.04,-178.67m132.03 269.34c-1.05,-30.22 -2.04,-60.45 -2.98,-90.67m15.38 382.51c8.55,164.48 20.24,329.4 37.46,493.66m36.69 289.39c24.65,163.64 56.3,325.97 97.35,485.88m40.17 145.29c37.27,125.55 80.93,249.37 132.17,370.9 31.35,74.37 65.55,147.87 102.66,219.94m72.33 132.07c94.7,162.74 205.46,315.74 333.3,451.6m214.75 198.09c147.9,117.65 312.92,214.69 486.98,292m139.29 57c83.05,31.2 167.61,58.17 252.85,81 98.8,26.46 198.53,47.35 298.94,63.81m288.07 35.93c186.19,16.64 373.89,22.01 561.6,23.13m151.04 0.09c184.71,-0.89 369.09,-5.9 552.11,-21.76m287.66 -35.06c34.63,-5.57 69.19,-11.67 103.67,-18.34 155.52,-30.08 309.46,-71.81 458.21,-127.6m139.21 -57.11c36.29,-16.23 72.18,-33.39 107.62,-51.51 132.65,-67.83 258.96,-149.16 376.01,-242.03m215.5 -195.01c43.25,-44.61 84.55,-91 123.7,-139.04 80.08,-98.25 151.15,-203.36 214.39,-313.3m71.41 -132.53c70.7,-140.11 130.16,-286.37 180.6,-434.91 17.76,-52.29 34.39,-104.86 49.98,-157.69m40.16 -145.32c41.35,-160.24 73.84,-322.53 99.43,-486.04m38.28 -288.61c18.17,-164.64 30.61,-330.02 39.25,-495.31m11.7 -290.29c1.09,-36.81 2.06,-73.59 2.91,-110.33m100.41 -167.08c-60.63,34.05 -98.8,97.56 -100.41,167.08m100.41 -167.08c37.23,-20.91 60.28,-60.28 60.28,-102.98m0 -10.25l0 10.25m-405.36 -10.24c-28.03,472.59 -41.43,973.53 -225.11,1414.15 -134.8,323.37 -361.31,614.26 -634.11,839.74 -281.69,232.83 -612.74,395.93 -957.07,514.45 -370.48,127.52 -756.34,203.43 -1148.37,192.74m-2964.66 -2961.09c26.48,412.8 31.13,841.42 160.37,1237.62 105.74,324.14 294.86,626.57 537.83,868.77 205.22,204.56 448.85,366.15 707.73,493.87 482.99,238.28 1019.09,358.72 1558.72,360.83m-2964.66 -2961.09c-0.94,-62.76 -0.57,-136.42 -0.06,-216.27m-175.61 -222.98c82.92,57.44 141.68,132.45 176.29,225.04m-325.76 -225.04l149.47 0m-149.47 0c-21.73,0 -42.56,8.43 -57.82,23.42 -15.27,14.99 -23.7,35.28 -23.42,56.33m1.03 364.6l-1.03 -364.6m1.03 359.48l0 10.25m250.75 -173.63c0,-18.85 -9.61,-36.28 -25.22,-45.7 -15.61,-9.43 -34.84,-9.43 -50.44,0 -15.61,9.42 -25.22,26.84 -25.22,45.7m100.89 170.06l0 -170.06m-100.89 170.06c0,29.14 22.59,52.76 50.44,52.77 27.86,0 50.45,-23.63 50.45,-52.77m-100.89 0l0 -170.06m4590.28 3561.93c0,-54.36 -44.07,-98.43 -98.43,-98.43 -54.36,0 -98.43,44.07 -98.43,98.43 0,54.36 44.07,98.42 98.43,98.43 54.36,0 98.43,-44.07 98.43,-98.43zm1715.77 -3201.86c5.44,0 9.84,4.41 9.84,9.84 0,5.44 -4.41,9.84 -9.84,9.84 -5.44,0 -9.84,-4.41 -9.84,-9.84 0,-5.44 4.41,-9.84 9.84,-9.84zm-829.65 2758.98c0,-54.36 -44.07,-98.43 -98.43,-98.43 -54.36,0 -98.43,44.07 -98.43,98.43 0,54.36 44.06,98.43 98.43,98.43 54.36,0 98.43,-44.07 98.43,-98.43zm-4233.57 -14.46c0,-54.36 -44.07,-98.43 -98.43,-98.43 -54.36,0 -98.43,44.07 -98.43,98.43 0,54.36 44.06,98.43 98.43,98.43 54.36,0 98.43,-44.07 98.43,-98.43zm788.21 456.75c0,-54.36 -44.07,-98.43 -98.43,-98.43 -54.36,0 -98.43,44.07 -98.43,98.43 0,54.36 44.06,98.43 98.43,98.43 54.36,0 98.43,-44.07 98.43,-98.43zm1309.44 185.37c0,-54.36 -44.07,-98.42 -98.43,-98.42 -54.36,-0 -98.43,44.06 -98.43,98.42 0,54.36 44.07,98.43 98.43,98.43 54.36,0 98.43,-44.07 98.43,-98.43z"/>
  <g id="_2302812015456">
   <rect class="fil0 str0" x="8264.85" y="2110.9" width="295.28" height="185.04"/>
   <rect class="fil0 str0" x="9051.82" y="2110.9" width="295.28" height="185.04"/>
  </g>
 </g>
</svg>
