  0
SECTION
  2
HEADER
  9
$ACADVER
  1
AC1014
  9
$HANDSEED
  5
FFFF
  9
$MEASUREMENT
 70
     1
  0
ENDSEC
  0
SECTION
  2
TABLES
  0
TABLE
  2
VPORT
  5
8
330
0
100
AcDbSymbolTable
 70
     4
  0
VPORT
  5
2E
330
8
100
AcDbSymbolTableRecord
100
AcDbViewportTableRecord
  2
*ACTIVE
 70
     0
 10
0.0
 20
0.0
 11
1.0
 21
1.0
 12
210.0
 22
148.5
 13
0.0
 23
0.0
 14
10.0
 24
10.0
 15
10.0
 25
10.0
 16
0.0
 26
0.0
 36
1.0
 17
0.0
 27
0.0
 37
0.0
 40
341.0
 41
1.24
 42
50.0
 43
0.0
 44
0.0
 50
0.0
 51
0.0
 71
     0
 72
   100
 73
     1
 74
     3
 75
     0
 76
     0
 77
     0
 78
     0
  0
ENDTAB
  0
TABLE
  2
LTYPE
  5
5
330
0
100
AcDbSymbolTable
 70
     1
  0
LTYPE
  5
14
330
5
100
AcDbSymbolTableRecord
100
AcDbLinetypeTableRecord
  2
BYBLOCK
 70
     0
  3

 72
    65
 73
     0
 40
0.0
  0
LTYPE
  5
15
330
5
100
AcDbSymbolTableRecord
100
AcDbLinetypeTableRecord
  2
BYLAYER
 70
     0
  3

 72
    65
 73
     0
 40
0.0
  0
LTYPE
  5
16
330
5
100
AcDbSymbolTableRecord
100
AcDbLinetypeTableRecord
  2
CONTINUOUS
 70
     0
  3
Solid line
 72
    65
 73
     0
 40
0.0
  0
ENDTAB
  0
TABLE
  2
LAYER
  5
2
100
AcDbSymbolTable
 70
2
  0
LAYER
  5
50
100
AcDbSymbolTableRecord
100
AcDbLayerTableRecord
  2
0
 70
0
  6
CONTINUOUS
  0
LAYER
  5
51
100
AcDbSymbolTableRecord
100
AcDbLayerTableRecord
  2
Layer_1
 70
0
  6
CONTINUOUS
  0
ENDTAB
  0
TABLE
  2
STYLE
  5
3
330
0
100
AcDbSymbolTable
 70
     1
  0
STYLE
  5
11
330
3
100
AcDbSymbolTableRecord
100
AcDbTextStyleTableRecord
  2
STANDARD
 70
     0
 40
0.0
 41
1.0
 50
0.0
 71
     0
 42
2.5
  3
txt
  4

  0
ENDTAB
  0
TABLE
  2
VIEW
  5
6
330
0
100
AcDbSymbolTable
 70
     0
  0
ENDTAB
  0
TABLE
  2
UCS
  5
7
330
0
100
AcDbSymbolTable
 70
     0
  0
ENDTAB
  0
TABLE
  2
APPID
  5
9
330
0
100
AcDbSymbolTable
 70
     2
  0
APPID
  5
12
330
9
100
AcDbSymbolTableRecord
100
AcDbRegAppTableRecord
  2
ACAD
 70
     0
  0
ENDTAB
  0
TABLE
  2
DIMSTYLE
  5
A
330
0
100
AcDbSymbolTable
 70
     1
  0
DIMSTYLE
105
27
330
A
100
AcDbSymbolTableRecord
100
AcDbDimStyleTableRecord
  2
ISO-25
 70
     0
  3

  4

  5

  6

  7

 40
1.0
 41
2.5
 42
0.625
 43
3.75
 44
1.25
 45
0.0
 46
0.0
 47
0.0
 48
0.0
140
2.5
141
2.5
142
0.0
143
0.03937007874016
144
1.0
145
0.0
146
1.0
147
0.625
 71
     0
 72
     0
 73
     0
 74
     0
 75
     0
 76
     0
 77
     1
 78
     8
170
     0
171
     3
172
     1
173
     0
174
     0
175
     0
176
     0
177
     0
178
     0
270
     2
271
     2
272
     2
273
     2
274
     3
340
11
275
     0
280
     0
281
     0
282
     0
283
     0
284
     8
285
     0
286
     0
287
     3
288
     0
  0
ENDTAB
  0
TABLE
  2
BLOCK_RECORD
  5
1
330
0
100
AcDbSymbolTable
 70
     1
  0
BLOCK_RECORD
  5
1F
330
1
100
AcDbSymbolTableRecord
100
AcDbBlockTableRecord
  2
*MODEL_SPACE
  0
BLOCK_RECORD
  5
1B
330
1
100
AcDbSymbolTableRecord
100
AcDbBlockTableRecord
  2
*PAPER_SPACE
  0
ENDTAB
  0
ENDSEC
  0
SECTION
  2
BLOCKS
  0
BLOCK
  5
20
330
1F
100
AcDbEntity
  8
0
100
AcDbBlockBegin
  2
*MODEL_SPACE
 70
     0
 10
0.0
 20
0.0
 30
0.0
  3
*MODEL_SPACE
  1

  0
ENDBLK
  5
21
330
1F
100
AcDbEntity
  8
0
100
AcDbBlockEnd
  0
BLOCK
  5
1C
330
1B
100
AcDbEntity
 67
     1
  8
0
100
AcDbBlockBegin
  2
*PAPER_SPACE
  1

  0
ENDBLK
  5
1D
330
1B
100
AcDbEntity
 67
     1
  8
0
100
AcDbBlockEnd
  0
ENDSEC
  0
SECTION
  2
ENTITIES
  0
LWPOLYLINE
  5
100
100
AcDbEntity
  8
Layer_1
 62
1
100
AcDbPolyline
 90
4
 70
1
 10
0.095703
 20
209.904289
 30
0.0
 10
296.904293
 20
209.904289
 30
0.0
 10
296.904293
 20
0.095709
 30
0.0
 10
0.095703
 20
0.095709
 30
0.0
  0
SPLINE
  5
101
100
AcDbEntity
  8
Layer_1
 62
1
100
AcDbSpline
 70
0
 71
3
 72
25
 73
21
 74
19
 40
0.000000
 40
0.000000
 40
0.000000
 40
0.000000
 40
1.039322
 40
2.063769
 40
3.103090
 40
4.142412
 40
5.166859
 40
6.206181
 40
7.245502
 40
8.269950
 40
9.309271
 40
10.348593
 40
11.373040
 40
12.412362
 40
13.451683
 40
14.476130
 40
15.515452
 40
16.554774
 40
17.579221
 40
18.618542
 40
18.618542
 40
18.618542
 40
18.618542
 10
191.506615
 20
198.028305
 30
0.0
 10
191.471030
 20
197.680098
 30
0.0
 10
191.400370
 20
196.988666
 30
0.0
 10
190.852164
 20
196.074929
 30
0.0
 10
190.049496
 20
195.395589
 30
0.0
 10
189.055544
 20
195.035290
 30
0.0
 10
188.000848
 20
195.035290
 30
0.0
 10
187.008288
 20
195.395589
 30
0.0
 10
186.200062
 20
196.074929
 30
0.0
 10
185.672508
 20
196.988666
 30
0.0
 10
185.488312
 20
198.028305
 30
0.0
 10
185.672508
 20
199.067944
 30
0.0
 10
186.200062
 20
199.981681
 30
0.0
 10
187.008288
 20
200.661021
 30
0.0
 10
188.000848
 20
201.021320
 30
0.0
 10
189.055544
 20
201.021320
 30
0.0
 10
190.049496
 20
200.661021
 30
0.0
 10
190.852164
 20
199.981681
 30
0.0
 10
191.400370
 20
199.067944
 30
0.0
 10
191.471030
 20
198.376512
 30
0.0
 10
191.506615
 20
198.028305
 30
0.0
 11
191.506615
 21
198.028305
 31
0.0
 11
191.325314
 21
197.004919
 31
0.0
 11
190.813091
 21
196.117722
 31
0.0
 11
190.017463
 21
195.449017
 31
0.0
 11
189.040534
 21
195.094335
 31
0.0
 11
188.016086
 21
195.094335
 31
0.0
 11
187.039157
 21
195.449017
 31
0.0
 11
186.243529
 21
196.117722
 31
0.0
 11
185.731306
 21
197.004919
 31
0.0
 11
185.550005
 21
198.028305
 31
0.0
 11
185.731306
 21
199.051691
 31
0.0
 11
186.243529
 21
199.938888
 31
0.0
 11
187.039157
 21
200.607593
 31
0.0
 11
188.016086
 21
200.962275
 31
0.0
 11
189.040534
 21
200.962275
 31
0.0
 11
190.017463
 21
200.607593
 31
0.0
 11
190.813091
 21
199.938888
 31
0.0
 11
191.325314
 21
199.051691
 31
0.0
 11
191.506615
 21
198.028305
 31
0.0
  0
LWPOLYLINE
  5
102
100
AcDbEntity
  8
Layer_1
 62
1
100
AcDbPolyline
 90
1
 70
1
 10
191.506615
 20
198.028305
 30
0.0
  0
LWPOLYLINE
  5
103
100
AcDbEntity
  8
Layer_1
 62
1
100
AcDbPolyline
 90
1
 70
1
 10
271.509143
 20
198.029572
 30
0.0
  0
LWPOLYLINE
  5
104
100
AcDbEntity
  8
Layer_1
 62
5
100
AcDbPolyline
 90
2
 70
0
 10
28.992483
 20
221.646649
 30
0.0
 10
108.500000
 20
221.646649
 30
0.0
  0
SPLINE
  5
105
100
AcDbEntity
  8
Layer_1
 62
1
100
AcDbSpline
 70
0
 71
3
 72
19
 73
15
 74
13
 40
0.000000
 40
0.000000
 40
0.000000
 40
0.000000
 40
1.557896
 40
3.069586
 40
4.627483
 40
6.185379
 40
7.697069
 40
9.254966
 40
10.812862
 40
12.324552
 40
13.882449
 40
15.440345
 40
16.952035
 40
18.509931
 40
18.509931
 40
18.509931
 40
18.509931
 10
271.509143
 20
198.029572
 30
0.0
 10
271.427249
 20
197.504323
 30
0.0
 10
271.265892
 20
196.469403
 30
0.0
 10
270.079674
 20
195.330040
 30
0.0
 10
268.532305
 20
194.907872
 30
0.0
 10
266.968689
 20
195.330040
 30
0.0
 10
265.830245
 20
196.469403
 30
0.0
 10
265.407764
 20
198.029572
 30
0.0
 10
265.830245
 20
199.589741
 30
0.0
 10
266.968689
 20
200.729104
 30
0.0
 10
268.532305
 20
201.151272
 30
0.0
 10
270.079674
 20
200.729104
 30
0.0
 10
271.265892
 20
199.589741
 30
0.0
 10
271.427249
 20
198.554821
 30
0.0
 10
271.509143
 20
198.029572
 30
0.0
 11
271.509143
 21
198.029572
 31
0.0
 11
271.102343
 21
196.525725
 31
0.0
 11
270.033417
 21
195.456799
 31
0.0
 11
268.529570
 21
195.050000
 31
0.0
 11
267.025723
 21
195.456799
 31
0.0
 11
265.956797
 21
196.525725
 31
0.0
 11
265.549998
 21
198.029572
 31
0.0
 11
265.956797
 21
199.533419
 31
0.0
 11
267.025723
 21
200.602345
 31
0.0
 11
268.529570
 21
201.009144
 31
0.0
 11
270.033417
 21
200.602345
 31
0.0
 11
271.102343
 21
199.533419
 31
0.0
 11
271.509143
 21
198.029572
 31
0.0
  0
LWPOLYLINE
  5
106
100
AcDbEntity
  8
Layer_1
 62
5
100
AcDbPolyline
 90
2
 70
0
 10
28.551822
 20
234.875815
 30
0.0
 10
28.551822
 20
213.230659
 30
0.0
  0
SPLINE
  5
107
100
AcDbEntity
  8
Layer_1
 62
1
100
AcDbSpline
 70
0
 71
3
 72
25
 73
21
 74
19
 40
0.000000
 40
0.000000
 40
0.000000
 40
0.000000
 40
1.038821
 40
2.062774
 40
3.101595
 40
4.140416
 40
5.164369
 40
6.203190
 40
7.242011
 40
8.265964
 40
9.304785
 40
10.343606
 40
11.367559
 40
12.406380
 40
13.445201
 40
14.469154
 40
15.507975
 40
16.546795
 40
17.570749
 40
18.609570
 40
18.609570
 40
18.609570
 40
18.609570
 10
111.503740
 20
198.026871
 30
0.0
 10
111.468172
 20
197.678831
 30
0.0
 10
111.397546
 20
196.987733
 30
0.0
 10
110.849604
 20
196.074436
 30
0.0
 10
110.047323
 20
195.395424
 30
0.0
 10
109.053850
 20
195.035298
 30
0.0
 10
107.999662
 20
195.035298
 30
0.0
 10
107.007580
 20
195.395424
 30
0.0
 10
106.199744
 20
196.074436
 30
0.0
 10
105.672444
 20
196.987733
 30
0.0
 10
105.488337
 20
198.026871
 30
0.0
 10
105.672444
 20
199.066009
 30
0.0
 10
106.199744
 20
199.979306
 30
0.0
 10
107.007580
 20
200.658318
 30
0.0
 10
107.999662
 20
201.018444
 30
0.0
 10
109.053850
 20
201.018444
 30
0.0
 10
110.047323
 20
200.658318
 30
0.0
 10
110.849604
 20
199.979306
 30
0.0
 10
111.397546
 20
199.066009
 30
0.0
 10
111.468172
 20
198.374911
 30
0.0
 10
111.503740
 20
198.026871
 30
0.0
 11
111.503740
 21
198.026871
 31
0.0
 11
111.322526
 21
197.003978
 31
0.0
 11
110.810549
 21
196.117208
 31
0.0
 11
110.015305
 21
195.448826
 31
0.0
 11
109.038847
 21
195.094315
 31
0.0
 11
108.014893
 21
195.094315
 31
0.0
 11
107.038435
 21
195.448826
 31
0.0
 11
106.243191
 21
196.117208
 31
0.0
 11
105.731214
 21
197.003978
 31
0.0
 11
105.550000
 21
198.026871
 31
0.0
 11
105.731214
 21
199.049764
 31
0.0
 11
106.243191
 21
199.936534
 31
0.0
 11
107.038435
 21
200.604916
 31
0.0
 11
108.014893
 21
200.959427
 31
0.0
 11
109.038847
 21
200.959427
 31
0.0
 11
110.015305
 21
200.604916
 31
0.0
 11
110.810549
 21
199.936534
 31
0.0
 11
111.322526
 21
199.049764
 31
0.0
 11
111.503740
 21
198.026871
 31
0.0
  0
LWPOLYLINE
  5
108
100
AcDbEntity
  8
Layer_1
 62
1
100
AcDbPolyline
 90
1
 70
1
 10
111.503740
 20
198.026871
 30
0.0
  0
SPLINE
  5
109
100
AcDbEntity
  8
Layer_1
 62
1
100
AcDbSpline
 70
0
 71
3
 72
25
 73
21
 74
19
 40
0.000000
 40
0.000000
 40
0.000000
 40
0.000000
 40
1.039764
 40
2.064647
 40
3.104411
 40
4.144175
 40
5.169058
 40
6.208822
 40
7.248586
 40
8.273469
 40
9.313233
 40
10.352996
 40
11.377880
 40
12.417644
 40
13.457407
 40
14.482291
 40
15.522054
 40
16.561818
 40
17.586702
 40
18.626465
 40
18.626465
 40
18.626465
 40
18.626465
 10
31.509146
 20
198.029572
 30
0.0
 10
31.473546
 20
197.681216
 30
0.0
 10
31.402856
 20
196.989491
 30
0.0
 10
30.854416
 20
196.075364
 30
0.0
 10
30.051407
 20
195.395736
 30
0.0
 10
29.057031
 20
195.035283
 30
0.0
 10
28.001887
 20
195.035283
 30
0.0
 10
27.008904
 20
195.395736
 30
0.0
 10
26.200334
 20
196.075364
 30
0.0
 10
25.672555
 20
196.989491
 30
0.0
 10
25.488281
 20
198.029572
 30
0.0
 10
25.672555
 20
199.069653
 30
0.0
 10
26.200334
 20
199.983780
 30
0.0
 10
27.008904
 20
200.663408
 30
0.0
 10
28.001887
 20
201.023861
 30
0.0
 10
29.057031
 20
201.023861
 30
0.0
 10
30.051407
 20
200.663408
 30
0.0
 10
30.854416
 20
199.983780
 30
0.0
 10
31.402856
 20
199.069653
 30
0.0
 10
31.473546
 20
198.377928
 30
0.0
 10
31.509146
 20
198.029572
 30
0.0
 11
31.509146
 21
198.029572
 31
0.0
 11
31.327767
 21
197.005750
 31
0.0
 11
30.815326
 21
196.118175
 31
0.0
 11
30.019359
 21
195.449187
 31
0.0
 11
29.042015
 21
195.094354
 31
0.0
 11
28.017131
 21
195.094354
 31
0.0
 11
27.039787
 21
195.449187
 31
0.0
 11
26.243820
 21
196.118175
 31
0.0
 11
25.731379
 21
197.005750
 31
0.0
 11
25.550001
 21
198.029572
 31
0.0
 11
25.731379
 21
199.053394
 31
0.0
 11
26.243820
 21
199.940969
 31
0.0
 11
27.039787
 21
200.609957
 31
0.0
 11
28.017131
 21
200.964790
 31
0.0
 11
29.042015
 21
200.964790
 31
0.0
 11
30.019359
 21
200.609957
 31
0.0
 11
30.815326
 21
199.940969
 31
0.0
 11
31.327767
 21
199.053394
 31
0.0
 11
31.509146
 21
198.029572
 31
0.0
  0
LWPOLYLINE
  5
10a
100
AcDbEntity
  8
Layer_1
 62
1
100
AcDbPolyline
 90
1
 70
1
 10
31.509146
 20
198.029572
 30
0.0
  0
SPLINE
  5
10b
100
AcDbEntity
  8
Layer_1
 62
5
100
AcDbSpline
 70
0
 71
3
 72
31
 73
27
 74
25
 40
0.000000
 40
0.000000
 40
0.000000
 40
0.000000
 40
0.247031
 40
0.467246
 40
0.675101
 40
0.877885
 40
1.086709
 40
1.318360
 40
1.550011
 40
1.758835
 40
1.961619
 40
2.169474
 40
2.389689
 40
2.636720
 40
2.883751
 40
3.103965
 40
3.311820
 40
3.516514
 40
3.725672
 40
3.956138
 40
4.187822
 40
4.396980
 40
4.600715
 40
4.807563
 40
5.027777
 40
5.276027
 40
5.276027
 40
5.276027
 40
5.276027
 10
59.397775
 20
227.227870
 30
0.0
 10
59.315210
 20
227.224007
 30
0.0
 10
59.159043
 20
227.216700
 30
0.0
 10
58.942666
 20
227.144163
 30
0.0
 10
58.766217
 20
227.024681
 30
0.0
 10
58.636208
 20
226.859851
 30
0.0
 10
58.559895
 20
226.656195
 30
0.0
 10
58.538917
 20
226.431361
 30
0.0
 10
58.559895
 20
226.206540
 30
0.0
 10
58.636208
 20
226.002849
 30
0.0
 10
58.766217
 20
225.838143
 30
0.0
 10
58.942666
 20
225.718183
 30
0.0
 10
59.159042
 20
225.647622
 30
0.0
 10
59.397778
 20
225.628106
 30
0.0
 10
59.636498
 20
225.647631
 30
0.0
 10
59.852913
 20
225.718150
 30
0.0
 10
60.029761
 20
225.838621
 30
0.0
 10
60.160533
 20
226.003601
 30
0.0
 10
60.238118
 20
226.207185
 30
0.0
 10
60.259511
 20
226.431782
 30
0.0
 10
60.238180
 20
226.656313
 30
0.0
 10
60.160930
 20
226.860265
 30
0.0
 10
60.029388
 20
227.023786
 30
0.0
 10
59.854041
 20
227.144597
 30
0.0
 10
59.637264
 20
227.216735
 30
0.0
 10
59.480727
 20
227.224013
 30
0.0
 10
59.397775
 20
227.227870
 30
0.0
 11
59.397775
 21
227.227870
 31
0.0
 11
59.151872
 21
227.204290
 31
0.0
 11
58.943328
 21
227.133551
 31
0.0
 11
58.772145
 21
227.015652
 31
0.0
 11
58.646591
 21
226.856412
 31
0.0
 11
58.571258
 21
226.661649
 31
0.0
 11
58.546147
 21
226.431363
 31
0.0
 11
58.571258
 21
226.201078
 31
0.0
 11
58.646591
 21
226.006315
 31
0.0
 11
58.772145
 21
225.847075
 31
0.0
 11
58.943328
 21
225.729176
 31
0.0
 11
59.151872
 21
225.658437
 31
0.0
 11
59.397775
 21
225.634857
 31
0.0
 11
59.643678
 21
225.658437
 31
0.0
 11
59.852221
 21
225.729176
 31
0.0
 11
60.023404
 21
225.847075
 31
0.0
 11
60.150490
 21
226.007540
 31
0.0
 11
60.226741
 21
226.202303
 31
0.0
 11
60.252158
 21
226.431363
 31
0.0
 11
60.226741
 21
226.661649
 31
0.0
 11
60.150490
 21
226.856412
 31
0.0
 11
60.023404
 21
227.015652
 31
0.0
 11
59.853446
 21
227.133551
 31
0.0
 11
59.644903
 21
227.204290
 31
0.0
 11
59.397775
 21
227.227870
 31
0.0
  0
SPLINE
  5
10c
100
AcDbEntity
  8
Layer_1
 62
5
100
AcDbSpline
 70
0
 71
3
 72
31
 73
27
 74
25
 40
0.000000
 40
0.000000
 40
0.000000
 40
0.000000
 40
0.234167
 40
0.451277
 40
0.661789
 40
0.869017
 40
1.079061
 40
1.303389
 40
1.611776
 40
1.896746
 40
2.185939
 40
2.494222
 40
2.829659
 40
3.210108
 40
3.591777
 40
3.927214
 40
4.234448
 40
4.523642
 40
4.808611
 40
5.116998
 40
5.341357
 40
5.551691
 40
5.759738
 40
5.968929
 40
6.184464
 40
6.416895
 40
6.416895
 40
6.416895
 40
6.416895
 10
58.841047
 20
227.464892
 30
0.0
 10
58.765962
 20
227.487137
 30
0.0
 10
58.621262
 20
227.530007
 30
0.0
 10
58.430026
 20
227.644694
 30
0.0
 10
58.275536
 20
227.791949
 30
0.0
 10
58.163169
 20
227.971096
 30
0.0
 10
58.096009
 20
228.176346
 30
0.0
 10
58.074354
 20
228.424396
 30
0.0
 10
58.105232
 20
228.698522
 30
0.0
 10
58.226115
 20
228.972356
 30
0.0
 10
58.429058
 20
229.191971
 30
0.0
 10
58.700121
 20
229.352136
 30
0.0
 10
59.031604
 20
229.445985
 30
0.0
 10
59.398192
 20
229.472112
 30
0.0
 10
59.764726
 20
229.446019
 30
0.0
 10
60.096461
 20
229.352478
 30
0.0
 10
60.366637
 20
229.191552
 30
0.0
 10
60.569464
 20
228.972396
 30
0.0
 10
60.690286
 20
228.698513
 30
0.0
 10
60.721283
 20
228.424379
 30
0.0
 10
60.699312
 20
228.176252
 30
0.0
 10
60.631301
 20
227.970704
 30
0.0
 10
60.517090
 20
227.793006
 30
0.0
 10
60.364919
 20
227.644619
 30
0.0
 10
60.175240
 20
227.530049
 30
0.0
 10
60.031723
 20
227.487150
 30
0.0
 10
59.957258
 20
227.464892
 30
0.0
 11
58.841047
 21
227.464892
 31
0.0
 11
58.619642
 21
227.541141
 31
0.0
 11
58.433148
 21
227.652303
 31
0.0
 11
58.281564
 21
227.798377
 31
0.0
 11
58.171321
 21
227.973847
 31
0.0
 11
58.105175
 21
228.173204
 31
0.0
 11
58.083126
 21
228.396446
 31
0.0
 11
58.122017
 21
228.702371
 31
0.0
 11
58.238691
 21
228.962361
 31
0.0
 11
58.433148
 21
229.176416
 31
0.0
 11
58.697119
 21
229.335655
 31
0.0
 11
59.018661
 21
229.431199
 31
0.0
 11
59.397775
 21
229.463047
 31
0.0
 11
59.778114
 21
229.431199
 31
0.0
 11
60.099656
 21
229.335655
 31
0.0
 11
60.362402
 21
229.176416
 31
0.0
 11
60.556858
 21
228.962361
 31
0.0
 11
60.673532
 21
228.702371
 31
0.0
 11
60.712423
 21
228.396446
 31
0.0
 11
60.690068
 21
228.173204
 31
0.0
 11
60.623004
 21
227.973847
 31
0.0
 11
60.511230
 21
227.798377
 31
0.0
 11
60.361483
 21
227.652305
 31
0.0
 11
60.176826
 21
227.541144
 31
0.0
 11
59.957258
 21
227.464892
 31
0.0
  0
LWPOLYLINE
  5
10d
100
AcDbEntity
  8
Layer_1
 62
5
100
AcDbPolyline
 90
1
 70
1
 10
59.397775
 20
227.227870
 30
0.0
  0
SPLINE
  5
10e
100
AcDbEntity
  8
Layer_1
 62
5
100
AcDbSpline
 70
0
 71
3
 72
31
 73
27
 74
25
 40
0.000000
 40
0.000000
 40
0.000000
 40
0.000000
 40
0.261659
 40
0.503361
 40
0.737269
 40
0.969509
 40
1.204249
 40
1.454783
 40
1.824814
 40
2.154236
 40
2.472102
 40
2.801787
 40
3.165915
 40
3.586037
 40
4.006464
 40
4.371471
 40
4.702447
 40
5.019334
 40
5.348417
 40
5.718415
 40
5.968948
 40
6.203688
 40
6.435928
 40
6.670944
 40
6.913439
 40
7.175388
 40
7.175388
 40
7.175388
 40
7.175388
 10
59.957258
 20
227.464892
 30
0.0
 10
60.041442
 20
227.441043
 30
0.0
 10
60.203391
 20
227.395164
 30
0.0
 10
60.417828
 20
227.269258
 30
0.0
 10
60.589478
 20
227.104585
 30
0.0
 10
60.717672
 20
226.906522
 30
0.0
 10
60.794411
 20
226.677236
 30
0.0
 10
60.818497
 20
226.391505
 30
0.0
 10
60.786585
 20
226.073558
 30
0.0
 10
60.663735
 20
225.751854
 30
0.0
 10
60.450375
 20
225.498014
 30
0.0
 10
60.160526
 20
225.316239
 30
0.0
 10
59.800019
 20
225.212431
 30
0.0
 10
59.397690
 20
225.183955
 30
0.0
 10
58.994971
 20
225.212425
 30
0.0
 10
58.633906
 20
225.316544
 30
0.0
 10
58.342562
 20
225.497032
 30
0.0
 10
58.130634
 20
225.752280
 30
0.0
 10
58.008762
 20
226.073682
 30
0.0
 10
57.977095
 20
226.391511
 30
0.0
 10
58.001115
 20
226.677253
 30
0.0
 10
58.077941
 20
226.906461
 30
0.0
 10
58.206049
 20
227.105124
 30
0.0
 10
58.379349
 20
227.269063
 30
0.0
 10
58.594447
 20
227.395077
 30
0.0
 10
58.756760
 20
227.441030
 30
0.0
 10
58.841047
 20
227.464892
 30
0.0
 11
59.957258
 21
227.464892
 31
0.0
 11
60.205611
 21
227.382514
 31
0.0
 11
60.414154
 21
227.260328
 31
0.0
 11
60.582888
 21
227.098334
 31
0.0
 11
60.708442
 21
226.902959
 31
0.0
 11
60.783775
 21
226.680635
 31
0.0
 11
60.808886
 21
226.431363
 31
0.0
 11
60.768157
 21
226.063580
 31
0.0
 11
60.645971
 21
225.757656
 31
0.0
 11
60.442328
 21
225.513590
 31
0.0
 11
60.164577
 21
225.335976
 31
0.0
 11
59.816392
 21
225.229408
 31
0.0
 11
59.397775
 21
225.193885
 31
0.0
 11
58.978851
 21
225.229408
 31
0.0
 11
58.629748
 21
225.335976
 31
0.0
 11
58.350466
 21
225.513590
 31
0.0
 11
58.148354
 21
225.757656
 31
0.0
 11
58.027086
 21
226.063580
 31
0.0
 11
57.986664
 21
226.431363
 31
0.0
 11
58.011775
 21
226.680635
 31
0.0
 11
58.087108
 21
226.902959
 31
0.0
 11
58.212662
 21
227.098334
 31
0.0
 11
58.382926
 21
227.260330
 31
0.0
 11
58.592388
 21
227.382516
 31
0.0
 11
58.841047
 21
227.464892
 31
0.0
  0
LWPOLYLINE
  5
10f
100
AcDbEntity
  8
Layer_1
 62
5
100
AcDbPolyline
 90
1
 70
1
 10
58.841047
 20
227.464892
 30
0.0
  0
SPLINE
  5
110
100
AcDbEntity
  8
Layer_1
 62
5
100
AcDbSpline
 70
0
 71
3
 72
31
 73
27
 74
25
 40
0.000000
 40
0.000000
 40
0.000000
 40
0.000000
 40
0.198745
 40
0.377701
 40
0.552032
 40
0.733625
 40
0.930322
 40
1.154145
 40
1.376443
 40
1.572264
 40
1.753601
 40
1.929884
 40
2.109528
 40
2.308342
 40
2.507157
 40
2.686800
 40
2.863084
 40
3.044421
 40
3.240242
 40
3.462540
 40
3.686363
 40
3.883060
 40
4.064652
 40
4.238984
 40
4.417940
 40
4.616686
 40
4.616686
 40
4.616686
 40
4.616686
 10
58.637098
 20
228.344080
 30
0.0
 10
58.640721
 20
228.277584
 30
0.0
 10
58.647606
 20
228.151213
 30
0.0
 10
58.716681
 20
227.976911
 30
0.0
 10
58.831004
 20
227.836513
 30
0.0
 10
58.988486
 20
227.735544
 30
0.0
 10
59.182476
 20
227.676663
 30
0.0
 10
59.397282
 20
227.660443
 30
0.0
 10
59.611701
 20
227.676725
 30
0.0
 10
59.805006
 20
227.735520
 30
0.0
 10
59.961684
 20
227.837515
 30
0.0
 10
60.079564
 20
227.976174
 30
0.0
 10
60.148777
 20
228.150933
 30
0.0
 10
60.167738
 20
228.344080
 30
0.0
 10
60.148777
 20
228.537227
 30
0.0
 10
60.079564
 20
228.711987
 30
0.0
 10
59.961684
 20
228.850646
 30
0.0
 10
59.805006
 20
228.952641
 30
0.0
 10
59.611701
 20
229.011436
 30
0.0
 10
59.397282
 20
229.027718
 30
0.0
 10
59.182476
 20
229.011498
 30
0.0
 10
58.988486
 20
228.952617
 30
0.0
 10
58.831004
 20
228.851648
 30
0.0
 10
58.716681
 20
228.711250
 30
0.0
 10
58.647606
 20
228.536947
 30
0.0
 10
58.640721
 20
228.410576
 30
0.0
 10
58.637098
 20
228.344080
 30
0.0
 11
58.637098
 21
228.344080
 31
0.0
 11
58.659147
 21
228.146562
 31
0.0
 11
58.725292
 21
227.980279
 31
0.0
 11
58.835535
 21
227.845231
 31
0.0
 11
58.987426
 21
227.745706
 31
0.0
 11
59.174839
 21
227.685991
 31
0.0
 11
59.397775
 21
227.666086
 31
0.0
 11
59.619180
 21
227.685991
 31
0.0
 11
59.805674
 21
227.745706
 31
0.0
 11
59.957258
 21
227.845231
 31
0.0
 11
60.070564
 21
227.980279
 31
0.0
 11
60.138547
 21
228.146562
 31
0.0
 11
60.161208
 21
228.344080
 31
0.0
 11
60.138547
 21
228.541599
 31
0.0
 11
60.070564
 21
228.707882
 31
0.0
 11
59.957258
 21
228.842930
 31
0.0
 11
59.805674
 21
228.942455
 31
0.0
 11
59.619180
 21
229.002170
 31
0.0
 11
59.397775
 21
229.022075
 31
0.0
 11
59.174839
 21
229.002170
 31
0.0
 11
58.987426
 21
228.942455
 31
0.0
 11
58.835535
 21
228.842930
 31
0.0
 11
58.725292
 21
228.707882
 31
0.0
 11
58.659147
 21
228.541599
 31
0.0
 11
58.637098
 21
228.344080
 31
0.0
  0
LWPOLYLINE
  5
111
100
AcDbEntity
  8
Layer_1
 62
5
100
AcDbPolyline
 90
1
 70
1
 10
58.637098
 20
228.344080
 30
0.0
  0
SPLINE
  5
112
100
AcDbEntity
  8
Layer_1
 62
5
100
AcDbSpline
 70
0
 71
3
 72
31
 73
27
 74
25
 40
0.000000
 40
0.000000
 40
0.000000
 40
0.000000
 40
0.267246
 40
0.525366
 40
0.815317
 40
1.164933
 40
1.594470
 40
2.113468
 40
2.631243
 40
3.060780
 40
3.411548
 40
3.700255
 40
3.957873
 40
4.225065
 40
4.493463
 40
4.751081
 40
5.039073
 40
5.390366
 40
5.820057
 40
6.337846
 40
6.856859
 40
7.286549
 40
7.636692
 40
7.925931
 40
8.184051
 40
8.452503
 40
8.452503
 40
8.452503
 40
8.452503
 10
62.991698
 20
229.022075
 30
0.0
 10
62.901687
 20
229.013891
 30
0.0
 10
62.724739
 20
228.997802
 30
0.0
 10
62.491997
 20
228.837250
 30
0.0
 10
62.321913
 20
228.586033
 30
0.0
 10
62.207204
 20
228.245436
 30
0.0
 10
62.140828
 20
227.816614
 30
0.0
 10
62.122615
 20
227.327495
 30
0.0
 10
62.140782
 20
226.838382
 30
0.0
 10
62.207580
 20
226.409587
 30
0.0
 10
62.321168
 20
226.069030
 30
0.0
 10
62.492290
 20
225.817177
 30
0.0
 10
62.724961
 20
225.662487
 30
0.0
 10
62.992112
 20
225.620817
 30
0.0
 10
63.259217
 20
225.662320
 30
0.0
 10
63.492478
 20
225.816812
 30
0.0
 10
63.661703
 20
226.069794
 30
0.0
 10
63.777838
 20
226.409191
 30
0.0
 10
63.845098
 20
226.838379
 30
0.0
 10
63.863684
 20
227.327495
 30
0.0
 10
63.845052
 20
227.816617
 30
0.0
 10
63.778216
 20
228.245833
 30
0.0
 10
63.660956
 20
228.585271
 30
0.0
 10
63.492772
 20
228.837615
 30
0.0
 10
63.259444
 20
228.997985
 30
0.0
 10
63.082106
 20
229.013941
 30
0.0
 10
62.991698
 20
229.022075
 30
0.0
 11
62.991698
 21
229.022075
 31
0.0
 11
62.728646
 21
228.974915
 31
0.0
 11
62.512753
 21
228.833437
 31
0.0
 11
62.344020
 21
228.597639
 31
0.0
 11
62.224590
 21
228.269054
 31
0.0
 11
62.152932
 21
227.845537
 31
0.0
 11
62.129046
 21
227.327088
 31
0.0
 11
62.152932
 21
226.809865
 31
0.0
 11
62.224590
 21
226.386348
 31
0.0
 11
62.344020
 21
226.056537
 31
0.0
 11
62.512753
 21
225.822270
 31
0.0
 11
62.728646
 21
225.681710
 31
0.0
 11
62.991698
 21
225.634857
 31
0.0
 11
63.255975
 21
225.681710
 31
0.0
 11
63.471868
 21
225.822270
 31
0.0
 11
63.639376
 21
226.056537
 31
0.0
 11
63.760337
 21
226.386348
 31
0.0
 11
63.832914
 21
226.809865
 31
0.0
 11
63.857106
 21
227.327088
 31
0.0
 11
63.832914
 21
227.845537
 31
0.0
 11
63.760337
 21
228.269054
 31
0.0
 11
63.639376
 21
228.597639
 31
0.0
 11
63.471868
 21
228.833437
 31
0.0
 11
63.255975
 21
228.974915
 31
0.0
 11
62.991698
 21
229.022075
 31
0.0
  0
SPLINE
  5
113
100
AcDbEntity
  8
Layer_1
 62
5
100
AcDbSpline
 70
0
 71
3
 72
10
 73
6
 74
4
 40
0.000000
 40
0.000000
 40
0.000000
 40
0.000000
 40
0.429092
 40
0.825612
 40
1.238733
 40
1.238733
 40
1.238733
 40
1.238733
 10
62.991698
 20
229.463047
 30
0.0
 10
63.135276
 20
229.452659
 30
0.0
 10
63.411532
 20
229.432672
 30
0.0
 10
63.792749
 20
229.237289
 30
0.0
 10
63.961282
 20
229.023616
 30
0.0
 10
64.047276
 20
228.914588
 30
0.0
 11
62.991698
 21
229.463047
 31
0.0
 11
63.416440
 21
229.402107
 31
0.0
 11
63.768300
 21
229.219287
 31
0.0
 11
64.047276
 21
228.914588
 31
0.0
  0
SPLINE
  5
114
100
AcDbEntity
  8
Layer_1
 62
5
100
AcDbSpline
 70
0
 71
3
 72
19
 73
15
 74
13
 40
0.000000
 40
0.000000
 40
0.000000
 40
0.000000
 40
0.465798
 40
1.008888
 40
1.649593
 40
2.289077
 40
2.832167
 40
3.299066
 40
3.711060
 40
4.107157
 40
4.536206
 40
4.965557
 40
5.362470
 40
5.775502
 40
5.775502
 40
5.775502
 40
5.775502
 10
64.047276
 20
228.914588
 30
0.0
 10
64.122012
 20
228.777610
 30
0.0
 10
64.283886
 20
228.480926
 30
0.0
 10
64.390812
 20
227.934536
 30
0.0
 10
64.425725
 20
227.327900
 30
0.0
 10
64.392894
 20
226.718960
 30
0.0
 10
64.277081
 20
226.178260
 30
0.0
 10
64.075900
 20
225.743548
 30
0.0
 10
63.788309
 20
225.419699
 30
0.0
 10
63.412526
 20
225.227727
 30
0.0
 10
62.991262
 20
225.176092
 30
0.0
 10
62.571682
 20
225.228506
 30
0.0
 10
62.189731
 20
225.417223
 30
0.0
 10
62.019947
 20
225.630717
 30
0.0
 10
61.933365
 20
225.739588
 30
0.0
 11
64.047276
 21
228.914588
 31
0.0
 11
64.250919
 21
228.495664
 31
0.0
 11
64.373105
 21
227.966498
 31
0.0
 11
64.413834
 21
227.327088
 31
0.0
 11
64.373105
 21
226.688903
 31
0.0
 11
64.250919
 21
226.159736
 31
0.0
 11
64.047276
 21
225.739588
 31
0.0
 11
63.768300
 21
225.436420
 31
0.0
 11
63.416440
 21
225.254519
 31
0.0
 11
62.991698
 21
225.193885
 31
0.0
 11
62.566650
 21
225.254519
 31
0.0
 11
62.213872
 21
225.436420
 31
0.0
 11
61.933365
 21
225.739588
 31
0.0
  0
LWPOLYLINE
  5
115
100
AcDbEntity
  8
Layer_1
 62
5
100
AcDbPolyline
 90
1
 70
1
 10
62.991698
 20
229.022075
 30
0.0
  0
SPLINE
  5
116
100
AcDbEntity
  8
Layer_1
 62
5
100
AcDbSpline
 70
0
 71
3
 72
16
 73
12
 74
10
 40
0.000000
 40
0.000000
 40
0.000000
 40
0.000000
 40
0.466234
 40
1.009118
 40
1.648582
 40
2.289268
 40
2.832152
 40
3.297282
 40
3.711440
 40
4.108775
 40
4.538169
 40
4.538169
 40
4.538169
 40
4.538169
 10
61.933365
 20
225.739588
 30
0.0
 10
61.859199
 20
225.877021
 30
0.0
 10
61.698674
 20
226.174481
 30
0.0
 10
61.592440
 20
226.720515
 30
0.0
 10
61.557764
 20
227.327087
 30
0.0
 10
61.590293
 20
227.935987
 30
0.0
 10
61.705031
 20
228.476413
 30
0.0
 10
61.905231
 20
228.912255
 30
0.0
 10
62.193685
 20
229.234545
 30
0.0
 10
62.570263
 20
229.433310
 30
0.0
 10
62.847634
 20
229.452882
 30
0.0
 10
62.991698
 20
229.463047
 30
0.0
 11
61.933365
 21
225.739588
 31
0.0
 11
61.731253
 21
226.159736
 31
0.0
 11
61.609985
 21
226.688903
 31
0.0
 11
61.569563
 21
227.327088
 31
0.0
 11
61.609985
 21
227.966498
 31
0.0
 11
61.731253
 21
228.495664
 31
0.0
 11
61.933365
 21
228.914588
 31
0.0
 11
62.213872
 21
229.219287
 31
0.0
 11
62.566650
 21
229.402107
 31
0.0
 11
62.991698
 21
229.463047
 31
0.0
  0
LWPOLYLINE
  5
117
100
AcDbEntity
  8
Layer_1
 62
5
100
AcDbPolyline
 90
1
 70
1
 10
62.991698
 20
229.463047
 30
0.0
  0
SPLINE
  5
118
100
AcDbEntity
  8
Layer_1
 62
5
100
AcDbSpline
 70
0
 71
3
 72
19
 73
15
 74
13
 40
0.000000
 40
0.000000
 40
0.000000
 40
0.000000
 40
0.247938
 40
0.474306
 40
0.685796
 40
0.893294
 40
1.107877
 40
1.337038
 40
1.636461
 40
1.909034
 40
2.183059
 40
2.477506
 40
2.808910
 40
3.193413
 40
3.193413
 40
3.193413
 40
3.193413
 10
69.523599
 20
227.768060
 30
0.0
 10
69.566372
 20
227.838949
 30
0.0
 10
69.648197
 20
227.974560
 30
0.0
 10
69.802112
 20
228.145579
 30
0.0
 10
69.973311
 20
228.277964
 30
0.0
 10
70.165016
 20
228.370182
 30
0.0
 10
70.376626
 20
228.424175
 30
0.0
 10
70.624464
 20
228.442795
 30
0.0
 10
70.893190
 20
228.414453
 30
0.0
 10
71.155768
 20
228.297415
 30
0.0
 10
71.361107
 20
228.099081
 30
0.0
 10
71.507541
 20
227.833309
 30
0.0
 10
71.593899
 20
227.504285
 30
0.0
 10
71.602548
 20
227.265283
 30
0.0
 10
71.607193
 20
227.136919
 30
0.0
 11
69.523599
 21
227.768060
 31
0.0
 11
69.658647
 21
227.975991
 31
0.0
 11
69.810231
 21
228.144112
 31
0.0
 11
69.978352
 21
228.272422
 31
0.0
 11
70.165153
 21
228.362760
 31
0.0
 11
70.372777
 21
228.416963
 31
0.0
 11
70.601225
 21
228.435031
 31
0.0
 11
70.898269
 21
228.397365
 31
0.0
 11
71.146316
 21
228.284366
 31
0.0
 11
71.345366
 21
228.096034
 31
0.0
 11
71.490825
 21
227.840025
 31
0.0
 11
71.578101
 21
227.520320
 31
0.0
 11
71.607193
 21
227.136919
 31
0.0
  0
LWPOLYLINE
  5
119
100
AcDbEntity
  8
Layer_1
 62
5
100
AcDbPolyline
 90
4
 70
0
 10
71.607193
 20
227.136919
 30
0.0
 10
71.607193
 20
225.273811
 30
0.0
 10
71.097319
 20
225.273811
 30
0.0
 10
71.097319
 20
227.120383
 30
0.0
  0
SPLINE
  5
11a
100
AcDbEntity
  8
Layer_1
 62
5
100
AcDbSpline
 70
0
 71
3
 72
19
 73
15
 74
13
 40
0.000000
 40
0.000000
 40
0.000000
 40
0.000000
 40
0.270964
 40
0.496690
 40
0.686658
 40
0.858176
 40
1.033355
 40
1.231401
 40
1.477499
 40
1.702721
 40
1.927125
 40
2.160453
 40
2.410313
 40
2.691665
 40
2.691665
 40
2.691665
 40
2.691665
 10
71.097319
 20
227.120383
 30
0.0
 10
71.094635
 20
227.210819
 30
0.0
 10
71.089715
 20
227.376592
 30
0.0
 10
71.039235
 20
227.601560
 30
0.0
 10
70.952432
 20
227.779943
 30
0.0
 10
70.822131
 20
227.908228
 30
0.0
 10
70.651980
 20
227.981706
 30
0.0
 10
70.444544
 20
228.001606
 30
0.0
 10
70.220547
 20
227.977610
 30
0.0
 10
70.002520
 20
227.888267
 30
0.0
 10
69.827268
 20
227.737176
 30
0.0
 10
69.698655
 20
227.536131
 30
0.0
 10
69.621075
 20
227.289875
 30
0.0
 10
69.613206
 20
227.112404
 30
0.0
 10
69.609038
 20
227.018408
 30
0.0
 11
71.097319
 21
227.120383
 31
0.0
 11
71.079864
 21
227.390785
 31
0.0
 11
71.027499
 21
227.610352
 31
0.0
 11
70.940223
 21
227.779085
 31
0.0
 11
70.817118
 21
227.898515
 31
0.0
 11
70.657265
 21
227.970173
 31
0.0
 11
70.460665
 21
227.994059
 31
0.0
 11
70.216293
 21
227.964967
 31
0.0
 11
70.008669
 21
227.877691
 31
0.0
 11
69.837792
 21
227.732231
 31
0.0
 11
69.710706
 21
227.536550
 31
0.0
 11
69.634455
 21
227.298609
 31
0.0
 11
69.609038
 21
227.018408
 31
0.0
  0
LWPOLYLINE
  5
11b
100
AcDbEntity
  8
Layer_1
 62
5
100
AcDbPolyline
 90
4
 70
0
 10
69.609038
 20
227.018408
 30
0.0
 10
69.609038
 20
225.273811
 30
0.0
 10
69.099164
 20
225.273811
 30
0.0
 10
69.099164
 20
227.120383
 30
0.0
  0
SPLINE
  5
11c
100
AcDbEntity
  8
Layer_1
 62
5
100
AcDbSpline
 70
0
 71
3
 72
19
 73
15
 74
13
 40
0.000000
 40
0.000000
 40
0.000000
 40
0.000000
 40
0.272187
 40
0.497912
 40
0.686793
 40
0.858751
 40
1.035608
 40
1.236694
 40
1.479788
 40
1.703678
 40
1.928614
 40
2.161685
 40
2.410671
 40
2.690497
 40
2.690497
 40
2.690497
 40
2.690497
 10
69.099164
 20
227.120383
 30
0.0
 10
69.096481
 20
227.211217
 30
0.0
 10
69.091574
 20
227.377379
 30
0.0
 10
69.041384
 20
227.602537
 30
0.0
 10
68.953899
 20
227.780329
 30
0.0
 10
68.823083
 20
227.908645
 30
0.0
 10
68.650864
 20
227.981747
 30
0.0
 10
68.442923
 20
228.001626
 30
0.0
 10
68.219304
 20
227.977349
 30
0.0
 10
68.003079
 20
227.886645
 30
0.0
 10
67.829644
 20
227.734271
 30
0.0
 10
67.700538
 20
227.533964
 30
0.0
 10
67.622980
 20
227.288543
 30
0.0
 10
67.615068
 20
227.111887
 30
0.0
 10
67.610882
 20
227.018408
 30
0.0
 11
69.099164
 21
227.120383
 31
0.0
 11
69.081709
 21
227.392009
 31
0.0
 11
69.029343
 21
227.611577
 31
0.0
 11
68.942067
 21
227.779085
 31
0.0
 11
68.818350
 21
227.898515
 31
0.0
 11
68.656660
 21
227.970173
 31
0.0
 11
68.456998
 21
227.994059
 31
0.0
 11
68.215688
 21
227.964661
 31
0.0
 11
68.009901
 21
227.876466
 31
0.0
 11
67.839637
 21
227.729475
 31
0.0
 11
67.712551
 21
227.534100
 31
0.0
 11
67.636299
 21
227.297078
 31
0.0
 11
67.610882
 21
227.018408
 31
0.0
  0
LWPOLYLINE
  5
11d
100
AcDbEntity
  8
Layer_1
 62
5
100
AcDbPolyline
 90
6
 70
0
 10
67.610882
 20
227.018408
 30
0.0
 10
67.610882
 20
225.273811
 30
0.0
 10
67.101008
 20
225.273811
 30
0.0
 10
67.101008
 20
228.360617
 30
0.0
 10
67.610882
 20
228.360617
 30
0.0
 10
67.610882
 20
227.881060
 30
0.0
  0
SPLINE
  5
11e
100
AcDbEntity
  8
Layer_1
 62
5
100
AcDbSpline
 70
0
 71
3
 72
19
 73
15
 74
13
 40
0.000000
 40
0.000000
 40
0.000000
 40
0.000000
 40
0.212274
 40
0.409108
 40
0.596414
 40
0.783877
 40
0.981091
 40
1.193838
 40
1.407514
 40
1.606030
 40
1.798568
 40
1.993458
 40
2.195840
 40
2.414486
 40
2.414486
 40
2.414486
 40
2.414486
 10
67.610882
 20
227.881060
 30
0.0
 10
67.650111
 20
227.940113
 30
0.0
 10
67.725716
 20
228.053924
 30
0.0
 10
67.866928
 20
228.195770
 30
0.0
 10
68.023982
 20
228.305524
 30
0.0
 10
68.200152
 20
228.381682
 30
0.0
 10
68.395252
 20
228.426085
 30
0.0
 10
68.603337
 20
228.440196
 30
0.0
 10
68.812108
 20
228.424049
 30
0.0
 10
69.007183
 20
228.366862
 30
0.0
 10
69.178512
 20
228.269524
 30
0.0
 10
69.324796
 20
228.136036
 30
0.0
 10
69.444537
 20
227.966721
 30
0.0
 10
69.496575
 20
227.835964
 30
0.0
 10
69.523599
 20
227.768060
 30
0.0
 11
67.610882
 21
227.881060
 31
0.0
 11
67.734293
 21
228.053774
 31
0.0
 11
67.873016
 21
228.193415
 31
0.0
 11
68.027050
 21
228.299983
 31
0.0
 11
68.198846
 21
228.375010
 31
0.0
 11
68.390852
 21
228.420026
 31
0.0
 11
68.603070
 21
228.435031
 31
0.0
 11
68.815900
 21
228.416045
 31
0.0
 11
69.006070
 21
228.359086
 31
0.0
 11
69.173578
 21
228.264154
 31
0.0
 11
69.317812
 21
228.133087
 31
0.0
 11
69.434486
 21
227.967722
 31
0.0
 11
69.523599
 21
227.768060
 31
0.0
  0
LWPOLYLINE
  5
11f
100
AcDbEntity
  8
Layer_1
 62
5
100
AcDbPolyline
 90
1
 70
1
 10
69.523599
 20
227.768060
 30
0.0
  0
SPLINE
  5
120
100
AcDbEntity
  8
Layer_1
 62
5
100
AcDbSpline
 70
0
 71
3
 72
19
 73
15
 74
13
 40
0.000000
 40
0.000000
 40
0.000000
 40
0.000000
 40
0.247938
 40
0.474305
 40
0.685795
 40
0.893293
 40
1.107876
 40
1.337038
 40
1.636461
 40
1.909034
 40
2.183059
 40
2.477506
 40
2.808909
 40
3.193412
 40
3.193412
 40
3.193412
 40
3.193412
 10
75.024728
 20
227.768060
 30
0.0
 10
75.067501
 20
227.838949
 30
0.0
 10
75.149325
 20
227.974560
 30
0.0
 10
75.303240
 20
228.145579
 30
0.0
 10
75.474439
 20
228.277964
 30
0.0
 10
75.666144
 20
228.370182
 30
0.0
 10
75.877754
 20
228.424175
 30
0.0
 10
76.125592
 20
228.442795
 30
0.0
 10
76.394318
 20
228.414453
 30
0.0
 10
76.656896
 20
228.297415
 30
0.0
 10
76.862235
 20
228.099081
 30
0.0
 10
77.008669
 20
227.833309
 30
0.0
 10
77.095027
 20
227.504285
 30
0.0
 10
77.103676
 20
227.265283
 30
0.0
 10
77.108321
 20
227.136919
 30
0.0
 11
75.024728
 21
227.768060
 31
0.0
 11
75.159776
 21
227.975991
 31
0.0
 11
75.311360
 21
228.144112
 31
0.0
 11
75.479480
 21
228.272422
 31
0.0
 11
75.666281
 21
228.362760
 31
0.0
 11
75.873905
 21
228.416963
 31
0.0
 11
76.102353
 21
228.435031
 31
0.0
 11
76.399397
 21
228.397365
 31
0.0
 11
76.647444
 21
228.284366
 31
0.0
 11
76.846494
 21
228.096034
 31
0.0
 11
76.991953
 21
227.840025
 31
0.0
 11
77.079229
 21
227.520320
 31
0.0
 11
77.108321
 21
227.136919
 31
0.0
  0
LWPOLYLINE
  5
121
100
AcDbEntity
  8
Layer_1
 62
5
100
AcDbPolyline
 90
4
 70
0
 10
77.108321
 20
227.136919
 30
0.0
 10
77.108321
 20
225.273811
 30
0.0
 10
76.598447
 20
225.273811
 30
0.0
 10
76.598447
 20
227.120383
 30
0.0
  0
SPLINE
  5
122
100
AcDbEntity
  8
Layer_1
 62
5
100
AcDbSpline
 70
0
 71
3
 72
19
 73
15
 74
13
 40
0.000000
 40
0.000000
 40
0.000000
 40
0.000000
 40
0.270964
 40
0.496690
 40
0.686658
 40
0.858176
 40
1.033355
 40
1.231401
 40
1.477498
 40
1.702720
 40
1.927125
 40
2.160453
 40
2.410313
 40
2.691664
 40
2.691664
 40
2.691664
 40
2.691664
 10
76.598447
 20
227.120383
 30
0.0
 10
76.595763
 20
227.210819
 30
0.0
 10
76.590843
 20
227.376592
 30
0.0
 10
76.540363
 20
227.601560
 30
0.0
 10
76.453560
 20
227.779943
 30
0.0
 10
76.323259
 20
227.908228
 30
0.0
 10
76.153108
 20
227.981706
 30
0.0
 10
75.945672
 20
228.001606
 30
0.0
 10
75.721675
 20
227.977610
 30
0.0
 10
75.503648
 20
227.888266
 30
0.0
 10
75.328396
 20
227.737177
 30
0.0
 10
75.199783
 20
227.536131
 30
0.0
 10
75.122203
 20
227.289875
 30
0.0
 10
75.114334
 20
227.112404
 30
0.0
 10
75.110166
 20
227.018408
 30
0.0
 11
76.598447
 21
227.120383
 31
0.0
 11
76.580992
 21
227.390785
 31
0.0
 11
76.528627
 21
227.610352
 31
0.0
 11
76.441351
 21
227.779085
 31
0.0
 11
76.318246
 21
227.898515
 31
0.0
 11
76.158393
 21
227.970173
 31
0.0
 11
75.961793
 21
227.994059
 31
0.0
 11
75.717421
 21
227.964967
 31
0.0
 11
75.509797
 21
227.877691
 31
0.0
 11
75.338920
 21
227.732231
 31
0.0
 11
75.211834
 21
227.536550
 31
0.0
 11
75.135583
 21
227.298609
 31
0.0
 11
75.110166
 21
227.018408
 31
0.0
  0
LWPOLYLINE
  5
123
100
AcDbEntity
  8
Layer_1
 62
5
100
AcDbPolyline
 90
4
 70
0
 10
75.110166
 20
227.018408
 30
0.0
 10
75.110166
 20
225.273811
 30
0.0
 10
74.600292
 20
225.273811
 30
0.0
 10
74.600292
 20
227.120383
 30
0.0
  0
SPLINE
  5
124
100
AcDbEntity
  8
Layer_1
 62
5
100
AcDbSpline
 70
0
 71
3
 72
19
 73
15
 74
13
 40
0.000000
 40
0.000000
 40
0.000000
 40
0.000000
 40
0.272187
 40
0.497912
 40
0.686793
 40
0.858751
 40
1.035608
 40
1.236694
 40
1.479788
 40
1.703678
 40
1.928614
 40
2.161685
 40
2.410671
 40
2.690497
 40
2.690497
 40
2.690497
 40
2.690497
 10
74.600292
 20
227.120383
 30
0.0
 10
74.597609
 20
227.211217
 30
0.0
 10
74.592702
 20
227.377379
 30
0.0
 10
74.542512
 20
227.602537
 30
0.0
 10
74.455027
 20
227.780329
 30
0.0
 10
74.324211
 20
227.908645
 30
0.0
 10
74.151992
 20
227.981747
 30
0.0
 10
73.944051
 20
228.001626
 30
0.0
 10
73.720432
 20
227.977349
 30
0.0
 10
73.504207
 20
227.886645
 30
0.0
 10
73.330772
 20
227.734271
 30
0.0
 10
73.201666
 20
227.533964
 30
0.0
 10
73.124108
 20
227.288543
 30
0.0
 10
73.116196
 20
227.111887
 30
0.0
 10
73.112010
 20
227.018408
 30
0.0
 11
74.600292
 21
227.120383
 31
0.0
 11
74.582837
 21
227.392009
 31
0.0
 11
74.530471
 21
227.611577
 31
0.0
 11
74.443195
 21
227.779085
 31
0.0
 11
74.319478
 21
227.898515
 31
0.0
 11
74.157788
 21
227.970173
 31
0.0
 11
73.958126
 21
227.994059
 31
0.0
 11
73.716816
 21
227.964661
 31
0.0
 11
73.511029
 21
227.876466
 31
0.0
 11
73.340765
 21
227.729475
 31
0.0
 11
73.213679
 21
227.534100
 31
0.0
 11
73.137427
 21
227.297078
 31
0.0
 11
73.112010
 21
227.018408
 31
0.0
  0
LWPOLYLINE
  5
125
100
AcDbEntity
  8
Layer_1
 62
5
100
AcDbPolyline
 90
6
 70
0
 10
73.112010
 20
227.018408
 30
0.0
 10
73.112010
 20
225.273811
 30
0.0
 10
72.602136
 20
225.273811
 30
0.0
 10
72.602136
 20
228.360617
 30
0.0
 10
73.112010
 20
228.360617
 30
0.0
 10
73.112010
 20
227.881060
 30
0.0
  0
LWPOLYLINE
  5
126
100
AcDbEntity
  8
Layer_1
 62
5
100
AcDbPolyline
 90
1
 70
1
 10
75.024728
 20
227.768060
 30
0.0
  0
LWPOLYLINE
  5
127
100
AcDbEntity
  8
Layer_1
 62
5
100
AcDbPolyline
 90
2
 70
0
 10
108.500000
 20
221.646649
 30
0.0
 10
188.500000
 20
221.646649
 30
0.0
  0
LWPOLYLINE
  5
128
100
AcDbEntity
  8
Layer_1
 62
5
100
AcDbPolyline
 90
2
 70
0
 10
108.551820
 20
234.875815
 30
0.0
 10
108.551820
 20
213.230659
 30
0.0
  0
SPLINE
  5
129
100
AcDbEntity
  8
Layer_1
 62
5
100
AcDbSpline
 70
0
 71
3
 72
19
 73
15
 74
13
 40
0.000000
 40
0.000000
 40
0.000000
 40
0.000000
 40
0.212274
 40
0.409108
 40
0.596414
 40
0.783877
 40
0.981091
 40
1.193838
 40
1.407514
 40
1.606030
 40
1.798568
 40
1.993458
 40
2.195840
 40
2.414486
 40
2.414486
 40
2.414486
 40
2.414486
 10
73.112010
 20
227.881060
 30
0.0
 10
73.151239
 20
227.940113
 30
0.0
 10
73.226844
 20
228.053924
 30
0.0
 10
73.368056
 20
228.195770
 30
0.0
 10
73.525110
 20
228.305524
 30
0.0
 10
73.701280
 20
228.381682
 30
0.0
 10
73.896380
 20
228.426085
 30
0.0
 10
74.104465
 20
228.440196
 30
0.0
 10
74.313236
 20
228.424049
 30
0.0
 10
74.508311
 20
228.366862
 30
0.0
 10
74.679640
 20
228.269524
 30
0.0
 10
74.825924
 20
228.136036
 30
0.0
 10
74.945665
 20
227.966721
 30
0.0
 10
74.997704
 20
227.835964
 30
0.0
 10
75.024728
 20
227.768060
 30
0.0
 11
73.112010
 21
227.881060
 31
0.0
 11
73.235421
 21
228.053774
 31
0.0
 11
73.374144
 21
228.193415
 31
0.0
 11
73.528178
 21
228.299983
 31
0.0
 11
73.699974
 21
228.375010
 31
0.0
 11
73.891980
 21
228.420026
 31
0.0
 11
74.104198
 21
228.435031
 31
0.0
 11
74.317028
 21
228.416045
 31
0.0
 11
74.507198
 21
228.359086
 31
0.0
 11
74.674706
 21
228.264154
 31
0.0
 11
74.818940
 21
228.133087
 31
0.0
 11
74.935614
 21
227.967722
 31
0.0
 11
75.024728
 21
227.768060
 31
0.0
  0
LWPOLYLINE
  5
12a
100
AcDbEntity
  8
Layer_1
 62
5
100
AcDbPolyline
 90
2
 70
0
 10
188.551820
 20
234.875815
 30
0.0
 10
188.551820
 20
213.230659
 30
0.0
  0
SPLINE
  5
12b
100
AcDbEntity
  8
Layer_1
 62
5
100
AcDbSpline
 70
0
 71
3
 72
31
 73
27
 74
25
 40
0.000000
 40
0.000000
 40
0.000000
 40
0.000000
 40
0.247029
 40
0.467243
 40
0.675101
 40
0.877885
 40
1.086710
 40
1.318360
 40
1.550011
 40
1.758835
 40
1.961619
 40
2.169477
 40
2.389691
 40
2.636720
 40
2.883754
 40
3.103968
 40
3.311822
 40
3.516518
 40
3.725676
 40
3.956142
 40
4.187826
 40
4.396984
 40
4.600722
 40
4.807570
 40
5.027784
 40
5.276034
 40
5.276034
 40
5.276034
 40
5.276034
 10
138.412810
 20
227.227862
 30
0.0
 10
138.330246
 20
227.223999
 30
0.0
 10
138.174079
 20
227.216692
 30
0.0
 10
137.957703
 20
227.144154
 30
0.0
 10
137.781252
 20
227.024673
 30
0.0
 10
137.651242
 20
226.859844
 30
0.0
 10
137.574928
 20
226.656188
 30
0.0
 10
137.553950
 20
226.431354
 30
0.0
 10
137.574928
 20
226.206532
 30
0.0
 10
137.651241
 20
226.002841
 30
0.0
 10
137.781253
 20
225.838135
 30
0.0
 10
137.957703
 20
225.718177
 30
0.0
 10
138.174079
 20
225.647615
 30
0.0
 10
138.412814
 20
225.628099
 30
0.0
 10
138.651534
 20
225.647624
 30
0.0
 10
138.867951
 20
225.718142
 30
0.0
 10
139.044798
 20
225.838616
 30
0.0
 10
139.175572
 20
226.003593
 30
0.0
 10
139.253159
 20
226.207178
 30
0.0
 10
139.274554
 20
226.431775
 30
0.0
 10
139.253222
 20
226.656306
 30
0.0
 10
139.175969
 20
226.860258
 30
0.0
 10
139.044424
 20
227.023777
 30
0.0
 10
138.869076
 20
227.144589
 30
0.0
 10
138.652299
 20
227.216727
 30
0.0
 10
138.495762
 20
227.224005
 30
0.0
 10
138.412810
 20
227.227862
 30
0.0
 11
138.412810
 21
227.227862
 31
0.0
 11
138.166909
 21
227.204282
 31
0.0
 11
137.958366
 21
227.133543
 31
0.0
 11
137.787180
 21
227.015644
 31
0.0
 11
137.661624
 21
226.856404
 31
0.0
 11
137.586291
 21
226.661641
 31
0.0
 11
137.561180
 21
226.431356
 31
0.0
 11
137.586291
 21
226.201070
 31
0.0
 11
137.661624
 21
226.006308
 31
0.0
 11
137.787180
 21
225.847068
 31
0.0
 11
137.958366
 21
225.729169
 31
0.0
 11
138.166909
 21
225.658430
 31
0.0
 11
138.412810
 21
225.634850
 31
0.0
 11
138.658716
 21
225.658430
 31
0.0
 11
138.867259
 21
225.729169
 31
0.0
 11
139.038440
 21
225.847068
 31
0.0
 11
139.165529
 21
226.007533
 31
0.0
 11
139.241782
 21
226.202296
 31
0.0
 11
139.267200
 21
226.431356
 31
0.0
 11
139.241782
 21
226.661641
 31
0.0
 11
139.165529
 21
226.856404
 31
0.0
 11
139.038440
 21
227.015644
 31
0.0
 11
138.868481
 21
227.133543
 31
0.0
 11
138.659938
 21
227.204282
 31
0.0
 11
138.412810
 21
227.227862
 31
0.0
  0
SPLINE
  5
12c
100
AcDbEntity
  8
Layer_1
 62
5
100
AcDbSpline
 70
0
 71
3
 72
31
 73
27
 74
25
 40
0.000000
 40
0.000000
 40
0.000000
 40
0.000000
 40
0.234166
 40
0.451276
 40
0.661788
 40
0.869016
 40
1.079059
 40
1.303387
 40
1.611774
 40
1.896745
 40
2.185942
 40
2.494220
 40
2.829655
 40
3.210104
 40
3.591776
 40
3.927215
 40
4.234448
 40
4.523641
 40
4.808611
 40
5.116997
 40
5.341356
 40
5.551690
 40
5.759735
 40
5.968927
 40
6.184462
 40
6.416891
 40
6.416891
 40
6.416891
 40
6.416891
 10
137.856080
 20
227.464884
 30
0.0
 10
137.780995
 20
227.487129
 30
0.0
 10
137.636295
 20
227.529999
 30
0.0
 10
137.445060
 20
227.644686
 30
0.0
 10
137.290572
 20
227.791943
 30
0.0
 10
137.178203
 20
227.971088
 30
0.0
 10
137.111043
 20
228.176338
 30
0.0
 10
137.089388
 20
228.424388
 30
0.0
 10
137.120267
 20
228.698515
 30
0.0
 10
137.241153
 20
228.972349
 30
0.0
 10
137.444100
 20
229.191960
 30
0.0
 10
137.715159
 20
229.352129
 30
0.0
 10
138.046640
 20
229.445978
 30
0.0
 10
138.413228
 20
229.472105
 30
0.0
 10
138.779763
 20
229.446012
 30
0.0
 10
139.111499
 20
229.352471
 30
0.0
 10
139.381675
 20
229.191544
 30
0.0
 10
139.584502
 20
228.972388
 30
0.0
 10
139.705323
 20
228.698505
 30
0.0
 10
139.736320
 20
228.424371
 30
0.0
 10
139.714350
 20
228.176244
 30
0.0
 10
139.646339
 20
227.970697
 30
0.0
 10
139.532129
 20
227.792998
 30
0.0
 10
139.379958
 20
227.644612
 30
0.0
 10
139.190281
 20
227.530041
 30
0.0
 10
139.046764
 20
227.487142
 30
0.0
 10
138.972300
 20
227.464884
 30
0.0
 11
137.856080
 21
227.464884
 31
0.0
 11
137.634676
 21
227.541134
 31
0.0
 11
137.448182
 21
227.652296
 31
0.0
 11
137.296600
 21
227.798370
 31
0.0
 11
137.186356
 21
227.973840
 31
0.0
 11
137.120209
 21
228.173196
 31
0.0
 11
137.098160
 21
228.396438
 31
0.0
 11
137.137052
 21
228.702363
 31
0.0
 11
137.253729
 21
228.962353
 31
0.0
 11
137.448190
 21
229.176408
 31
0.0
 11
137.712157
 21
229.335648
 31
0.0
 11
138.033697
 21
229.431192
 31
0.0
 11
138.412810
 21
229.463040
 31
0.0
 11
138.793151
 21
229.431192
 31
0.0
 11
139.114694
 21
229.335648
 31
0.0
 11
139.377440
 21
229.176408
 31
0.0
 11
139.571896
 21
228.962353
 31
0.0
 11
139.688569
 21
228.702363
 31
0.0
 11
139.727460
 21
228.396438
 31
0.0
 11
139.705106
 21
228.173196
 31
0.0
 11
139.638042
 21
227.973840
 31
0.0
 11
139.526270
 21
227.798370
 31
0.0
 11
139.376522
 21
227.652298
 31
0.0
 11
139.191866
 21
227.541136
 31
0.0
 11
138.972300
 21
227.464884
 31
0.0
  0
LWPOLYLINE
  5
12d
100
AcDbEntity
  8
Layer_1
 62
5
100
AcDbPolyline
 90
1
 70
1
 10
138.412810
 20
227.227862
 30
0.0
  0
SPLINE
  5
12e
100
AcDbEntity
  8
Layer_1
 62
5
100
AcDbSpline
 70
0
 71
3
 72
31
 73
27
 74
25
 40
0.000000
 40
0.000000
 40
0.000000
 40
0.000000
 40
0.261656
 40
0.503358
 40
0.737268
 40
0.969506
 40
1.204244
 40
1.454778
 40
1.824809
 40
2.154231
 40
2.472094
 40
2.801783
 40
3.165913
 40
3.586036
 40
4.006462
 40
4.371469
 40
4.702446
 40
5.019333
 40
5.348416
 40
5.718414
 40
5.968947
 40
6.203687
 40
6.435927
 40
6.670944
 40
6.913437
 40
7.175382
 40
7.175382
 40
7.175382
 40
7.175382
 10
138.972300
 20
227.464884
 30
0.0
 10
139.056483
 20
227.441035
 30
0.0
 10
139.218430
 20
227.395156
 30
0.0
 10
139.432866
 20
227.269249
 30
0.0
 10
139.604520
 20
227.104579
 30
0.0
 10
139.732709
 20
226.906513
 30
0.0
 10
139.809446
 20
226.677228
 30
0.0
 10
139.833531
 20
226.391498
 30
0.0
 10
139.801620
 20
226.073551
 30
0.0
 10
139.678772
 20
225.751848
 30
0.0
 10
139.465416
 20
225.498003
 30
0.0
 10
139.175563
 20
225.316232
 30
0.0
 10
138.815055
 20
225.212423
 30
0.0
 10
138.412725
 20
225.183947
 30
0.0
 10
138.010006
 20
225.212417
 30
0.0
 10
137.648941
 20
225.316536
 30
0.0
 10
137.357596
 20
225.497024
 30
0.0
 10
137.145669
 20
225.752272
 30
0.0
 10
137.023797
 20
226.073675
 30
0.0
 10
136.992131
 20
226.391504
 30
0.0
 10
137.016151
 20
226.677246
 30
0.0
 10
137.092977
 20
226.906454
 30
0.0
 10
137.221087
 20
227.105116
 30
0.0
 10
137.394386
 20
227.269055
 30
0.0
 10
137.609483
 20
227.395070
 30
0.0
 10
137.771795
 20
227.441022
 30
0.0
 10
137.856080
 20
227.464884
 30
0.0
 11
138.972300
 21
227.464884
 31
0.0
 11
139.220650
 21
227.382506
 31
0.0
 11
139.429193
 21
227.260320
 31
0.0
 11
139.597930
 21
227.098326
 31
0.0
 11
139.723480
 21
226.902951
 31
0.0
 11
139.798810
 21
226.680628
 31
0.0
 11
139.823920
 21
226.431356
 31
0.0
 11
139.783192
 21
226.063573
 31
0.0
 11
139.661009
 21
225.757648
 31
0.0
 11
139.457370
 21
225.513582
 31
0.0
 11
139.179614
 21
225.335968
 31
0.0
 11
138.831428
 21
225.229400
 31
0.0
 11
138.412810
 21
225.193877
 31
0.0
 11
137.993887
 21
225.229400
 31
0.0
 11
137.644783
 21
225.335968
 31
0.0
 11
137.365500
 21
225.513582
 31
0.0
 11
137.163389
 21
225.757648
 31
0.0
 11
137.042122
 21
226.063573
 31
0.0
 11
137.001700
 21
226.431356
 31
0.0
 11
137.026811
 21
226.680628
 31
0.0
 11
137.102144
 21
226.902951
 31
0.0
 11
137.227700
 21
227.098326
 31
0.0
 11
137.397964
 21
227.260322
 31
0.0
 11
137.607424
 21
227.382508
 31
0.0
 11
137.856080
 21
227.464884
 31
0.0
  0
LWPOLYLINE
  5
12f
100
AcDbEntity
  8
Layer_1
 62
5
100
AcDbPolyline
 90
1
 70
1
 10
137.856080
 20
227.464884
 30
0.0
  0
SPLINE
  5
130
100
AcDbEntity
  8
Layer_1
 62
5
100
AcDbSpline
 70
0
 71
3
 72
31
 73
27
 74
25
 40
0.000000
 40
0.000000
 40
0.000000
 40
0.000000
 40
0.198746
 40
0.377701
 40
0.552030
 40
0.733625
 40
0.930322
 40
1.154142
 40
1.376441
 40
1.572264
 40
1.753604
 40
1.929888
 40
2.109532
 40
2.308346
 40
2.507161
 40
2.686805
 40
2.863089
 40
3.044428
 40
3.240252
 40
3.462550
 40
3.686371
 40
3.883067
 40
4.064663
 40
4.238991
 40
4.417947
 40
4.616693
 40
4.616693
 40
4.616693
 40
4.616693
 10
137.652140
 20
228.344073
 30
0.0
 10
137.655763
 20
228.277577
 30
0.0
 10
137.662648
 20
228.151206
 30
0.0
 10
137.731720
 20
227.976904
 30
0.0
 10
137.846040
 20
227.836503
 30
0.0
 10
138.003524
 20
227.735537
 30
0.0
 10
138.197513
 20
227.676655
 30
0.0
 10
138.412318
 20
227.660435
 30
0.0
 10
138.626738
 20
227.676717
 30
0.0
 10
138.820044
 20
227.735513
 30
0.0
 10
138.976725
 20
227.837505
 30
0.0
 10
139.094606
 20
227.976166
 30
0.0
 10
139.163819
 20
228.150926
 30
0.0
 10
139.182780
 20
228.344073
 30
0.0
 10
139.163819
 20
228.537220
 30
0.0
 10
139.094606
 20
228.711980
 30
0.0
 10
138.976725
 20
228.850641
 30
0.0
 10
138.820044
 20
228.952633
 30
0.0
 10
138.626738
 20
229.011429
 30
0.0
 10
138.412318
 20
229.027711
 30
0.0
 10
138.197513
 20
229.011491
 30
0.0
 10
138.003524
 20
228.952609
 30
0.0
 10
137.846040
 20
228.851643
 30
0.0
 10
137.731720
 20
228.711242
 30
0.0
 10
137.662648
 20
228.536940
 30
0.0
 10
137.655763
 20
228.410569
 30
0.0
 10
137.652140
 20
228.344073
 30
0.0
 11
137.652140
 21
228.344073
 31
0.0
 11
137.674188
 21
228.146554
 31
0.0
 11
137.740331
 21
227.980271
 31
0.0
 11
137.850570
 21
227.845223
 31
0.0
 11
138.002463
 21
227.745698
 31
0.0
 11
138.189877
 21
227.685983
 31
0.0
 11
138.412810
 21
227.666078
 31
0.0
 11
138.634216
 21
227.685983
 31
0.0
 11
138.820712
 21
227.745698
 31
0.0
 11
138.972300
 21
227.845223
 31
0.0
 11
139.085606
 21
227.980271
 31
0.0
 11
139.153589
 21
228.146554
 31
0.0
 11
139.176250
 21
228.344073
 31
0.0
 11
139.153589
 21
228.541592
 31
0.0
 11
139.085606
 21
228.707875
 31
0.0
 11
138.972300
 21
228.842923
 31
0.0
 11
138.820712
 21
228.942448
 31
0.0
 11
138.634216
 21
229.002163
 31
0.0
 11
138.412810
 21
229.022068
 31
0.0
 11
138.189877
 21
229.002163
 31
0.0
 11
138.002463
 21
228.942448
 31
0.0
 11
137.850570
 21
228.842923
 31
0.0
 11
137.740331
 21
228.707875
 31
0.0
 11
137.674188
 21
228.541592
 31
0.0
 11
137.652140
 21
228.344073
 31
0.0
  0
LWPOLYLINE
  5
131
100
AcDbEntity
  8
Layer_1
 62
5
100
AcDbPolyline
 90
1
 70
1
 10
137.652140
 20
228.344073
 30
0.0
  0
SPLINE
  5
132
100
AcDbEntity
  8
Layer_1
 62
5
100
AcDbSpline
 70
0
 71
3
 72
31
 73
27
 74
25
 40
0.000000
 40
0.000000
 40
0.000000
 40
0.000000
 40
0.267247
 40
0.525368
 40
0.815319
 40
1.164937
 40
1.594473
 40
2.113472
 40
2.631247
 40
3.060784
 40
3.411554
 40
3.700260
 40
3.957878
 40
4.225072
 40
4.493467
 40
4.751082
 40
5.039073
 40
5.390366
 40
5.820057
 40
6.337846
 40
6.856859
 40
7.286550
 40
7.636693
 40
7.925931
 40
8.184048
 40
8.452498
 40
8.452498
 40
8.452498
 40
8.452498
 10
142.006740
 20
229.022068
 30
0.0
 10
141.916729
 20
229.013884
 30
0.0
 10
141.739780
 20
228.997795
 30
0.0
 10
141.507037
 20
228.837243
 30
0.0
 10
141.336954
 20
228.586025
 30
0.0
 10
141.222240
 20
228.245430
 30
0.0
 10
141.155862
 20
227.816607
 30
0.0
 10
141.137649
 20
227.327488
 30
0.0
 10
141.155816
 20
226.838374
 30
0.0
 10
141.222616
 20
226.409578
 30
0.0
 10
141.336208
 20
226.069022
 30
0.0
 10
141.507330
 20
225.817169
 30
0.0
 10
141.740003
 20
225.662480
 30
0.0
 10
142.007152
 20
225.620810
 30
0.0
 10
142.274257
 20
225.662313
 30
0.0
 10
142.507515
 20
225.816804
 30
0.0
 10
142.676736
 20
226.069787
 30
0.0
 10
142.792872
 20
226.409183
 30
0.0
 10
142.860132
 20
226.838371
 30
0.0
 10
142.878718
 20
227.327488
 30
0.0
 10
142.860086
 20
227.816610
 30
0.0
 10
142.793250
 20
228.245826
 30
0.0
 10
142.675990
 20
228.585263
 30
0.0
 10
142.507809
 20
228.837608
 30
0.0
 10
142.274483
 20
228.997978
 30
0.0
 10
142.097148
 20
229.013934
 30
0.0
 10
142.006740
 20
229.022068
 30
0.0
 11
142.006740
 21
229.022068
 31
0.0
 11
141.743687
 21
228.974908
 31
0.0
 11
141.527793
 21
228.833430
 31
0.0
 11
141.359060
 21
228.597632
 31
0.0
 11
141.239627
 21
228.269046
 31
0.0
 11
141.167967
 21
227.845529
 31
0.0
 11
141.144080
 21
227.327081
 31
0.0
 11
141.167967
 21
226.809857
 31
0.0
 11
141.239627
 21
226.386340
 31
0.0
 11
141.359060
 21
226.056529
 31
0.0
 11
141.527793
 21
225.822263
 31
0.0
 11
141.743687
 21
225.681703
 31
0.0
 11
142.006740
 21
225.634850
 31
0.0
 11
142.271014
 21
225.681703
 31
0.0
 11
142.486904
 21
225.822263
 31
0.0
 11
142.654410
 21
226.056529
 31
0.0
 11
142.775371
 21
226.386340
 31
0.0
 11
142.847948
 21
226.809857
 31
0.0
 11
142.872140
 21
227.327081
 31
0.0
 11
142.847948
 21
227.845529
 31
0.0
 11
142.775371
 21
228.269046
 31
0.0
 11
142.654410
 21
228.597632
 31
0.0
 11
142.486904
 21
228.833430
 31
0.0
 11
142.271014
 21
228.974908
 31
0.0
 11
142.006740
 21
229.022068
 31
0.0
  0
SPLINE
  5
133
100
AcDbEntity
  8
Layer_1
 62
5
100
AcDbSpline
 70
0
 71
3
 72
10
 73
6
 74
4
 40
0.000000
 40
0.000000
 40
0.000000
 40
0.000000
 40
0.429088
 40
0.825606
 40
1.238726
 40
1.238726
 40
1.238726
 40
1.238726
 10
142.006740
 20
229.463040
 30
0.0
 10
142.150316
 20
229.452652
 30
0.0
 10
142.426571
 20
229.432665
 30
0.0
 10
142.807785
 20
229.237282
 30
0.0
 10
142.976316
 20
229.023608
 30
0.0
 10
143.062310
 20
228.914581
 30
0.0
 11
142.006740
 21
229.463040
 31
0.0
 11
142.431479
 21
229.402100
 31
0.0
 11
142.783336
 21
229.219280
 31
0.0
 11
143.062310
 21
228.914581
 31
0.0
  0
SPLINE
  5
134
100
AcDbEntity
  8
Layer_1
 62
5
100
AcDbSpline
 70
0
 71
3
 72
19
 73
15
 74
13
 40
0.000000
 40
0.000000
 40
0.000000
 40
0.000000
 40
0.465798
 40
1.008888
 40
1.649594
 40
2.289077
 40
2.832167
 40
3.299068
 40
3.711060
 40
4.107155
 40
4.536200
 40
4.965554
 40
5.362470
 40
5.775503
 40
5.775503
 40
5.775503
 40
5.775503
 10
143.062310
 20
228.914581
 30
0.0
 10
143.137047
 20
228.777603
 30
0.0
 10
143.298921
 20
228.480919
 30
0.0
 10
143.405848
 20
227.934529
 30
0.0
 10
143.440761
 20
227.327893
 30
0.0
 10
143.407930
 20
226.718953
 30
0.0
 10
143.292116
 20
226.178252
 30
0.0
 10
143.090933
 20
225.743542
 30
0.0
 10
142.803345
 20
225.419692
 30
0.0
 10
142.427565
 20
225.227719
 30
0.0
 10
142.006302
 20
225.176084
 30
0.0
 10
141.586721
 20
225.228498
 30
0.0
 10
141.204768
 20
225.417215
 30
0.0
 10
141.034982
 20
225.630710
 30
0.0
 10
140.948400
 20
225.739581
 30
0.0
 11
143.062310
 21
228.914581
 31
0.0
 11
143.265954
 21
228.495657
 31
0.0
 11
143.388141
 21
227.966491
 31
0.0
 11
143.428870
 21
227.327081
 31
0.0
 11
143.388141
 21
226.688896
 31
0.0
 11
143.265954
 21
226.159729
 31
0.0
 11
143.062310
 21
225.739581
 31
0.0
 11
142.783336
 21
225.436412
 31
0.0
 11
142.431479
 21
225.254511
 31
0.0
 11
142.006740
 21
225.193877
 31
0.0
 11
141.581689
 21
225.254511
 31
0.0
 11
141.228909
 21
225.436412
 31
0.0
 11
140.948400
 21
225.739581
 31
0.0
  0
LWPOLYLINE
  5
135
100
AcDbEntity
  8
Layer_1
 62
5
100
AcDbPolyline
 90
1
 70
1
 10
142.006740
 20
229.022068
 30
0.0
  0
SPLINE
  5
136
100
AcDbEntity
  8
Layer_1
 62
5
100
AcDbSpline
 70
0
 71
3
 72
16
 73
12
 74
10
 40
0.000000
 40
0.000000
 40
0.000000
 40
0.000000
 40
0.466233
 40
1.009117
 40
1.648581
 40
2.289267
 40
2.832151
 40
3.297281
 40
3.711439
 40
4.108776
 40
4.538174
 40
4.538174
 40
4.538174
 40
4.538174
 10
140.948400
 20
225.739581
 30
0.0
 10
140.874235
 20
225.877014
 30
0.0
 10
140.713711
 20
226.174474
 30
0.0
 10
140.607477
 20
226.720508
 30
0.0
 10
140.572801
 20
227.327080
 30
0.0
 10
140.605330
 20
227.935980
 30
0.0
 10
140.720067
 20
228.476406
 30
0.0
 10
140.920266
 20
228.912249
 30
0.0
 10
141.208722
 20
229.234538
 30
0.0
 10
141.585302
 20
229.433303
 30
0.0
 10
141.862675
 20
229.452875
 30
0.0
 10
142.006740
 20
229.463040
 30
0.0
 11
140.948400
 21
225.739581
 31
0.0
 11
140.746289
 21
226.159729
 31
0.0
 11
140.625022
 21
226.688896
 31
0.0
 11
140.584600
 21
227.327081
 31
0.0
 11
140.625022
 21
227.966491
 31
0.0
 11
140.746289
 21
228.495657
 31
0.0
 11
140.948400
 21
228.914581
 31
0.0
 11
141.228909
 21
229.219280
 31
0.0
 11
141.581689
 21
229.402100
 31
0.0
 11
142.006740
 21
229.463040
 31
0.0
  0
LWPOLYLINE
  5
137
100
AcDbEntity
  8
Layer_1
 62
5
100
AcDbPolyline
 90
1
 70
1
 10
142.006740
 20
229.463040
 30
0.0
  0
SPLINE
  5
138
100
AcDbEntity
  8
Layer_1
 62
5
100
AcDbSpline
 70
0
 71
3
 72
19
 73
15
 74
13
 40
0.000000
 40
0.000000
 40
0.000000
 40
0.000000
 40
0.247937
 40
0.474305
 40
0.685794
 40
0.893290
 40
1.107872
 40
1.337033
 40
1.636458
 40
1.909031
 40
2.183054
 40
2.477501
 40
2.808905
 40
3.193409
 40
3.193409
 40
3.193409
 40
3.193409
 10
148.538640
 20
227.768053
 30
0.0
 10
148.581413
 20
227.838942
 30
0.0
 10
148.663238
 20
227.974552
 30
0.0
 10
148.817152
 20
228.145571
 30
0.0
 10
148.988349
 20
228.277957
 30
0.0
 10
149.180052
 20
228.370174
 30
0.0
 10
149.391662
 20
228.424167
 30
0.0
 10
149.639500
 20
228.442787
 30
0.0
 10
149.908227
 20
228.414445
 30
0.0
 10
150.170805
 20
228.297407
 30
0.0
 10
150.376140
 20
228.099071
 30
0.0
 10
150.522578
 20
227.833302
 30
0.0
 10
150.608935
 20
227.504277
 30
0.0
 10
150.617585
 20
227.265275
 30
0.0
 10
150.622230
 20
227.136911
 30
0.0
 11
148.538640
 21
227.768053
 31
0.0
 11
148.673688
 21
227.975983
 31
0.0
 11
148.825271
 21
228.144104
 31
0.0
 11
148.993390
 21
228.272415
 31
0.0
 11
149.180189
 21
228.362753
 31
0.0
 11
149.387812
 21
228.416955
 31
0.0
 11
149.616260
 21
228.435023
 31
0.0
 11
149.913307
 21
228.397357
 31
0.0
 11
150.161353
 21
228.284358
 31
0.0
 11
150.360400
 21
228.096026
 31
0.0
 11
150.505861
 21
227.840017
 31
0.0
 11
150.593138
 21
227.520312
 31
0.0
 11
150.622230
 21
227.136911
 31
0.0
  0
LWPOLYLINE
  5
139
100
AcDbEntity
  8
Layer_1
 62
5
100
AcDbPolyline
 90
4
 70
0
 10
150.622230
 20
227.136911
 30
0.0
 10
150.622230
 20
225.273804
 30
0.0
 10
150.112360
 20
225.273804
 30
0.0
 10
150.112360
 20
227.120375
 30
0.0
  0
SPLINE
  5
13a
100
AcDbEntity
  8
Layer_1
 62
5
100
AcDbSpline
 70
0
 71
3
 72
19
 73
15
 74
13
 40
0.000000
 40
0.000000
 40
0.000000
 40
0.000000
 40
0.270964
 40
0.496690
 40
0.686659
 40
0.858178
 40
1.033358
 40
1.231404
 40
1.477502
 40
1.702722
 40
1.927125
 40
2.160452
 40
2.410312
 40
2.691664
 40
2.691664
 40
2.691664
 40
2.691664
 10
150.112360
 20
227.120375
 30
0.0
 10
150.109676
 20
227.210811
 30
0.0
 10
150.104756
 20
227.376584
 30
0.0
 10
150.054275
 20
227.601552
 30
0.0
 10
149.967469
 20
227.779935
 30
0.0
 10
149.837166
 20
227.908220
 30
0.0
 10
149.667015
 20
227.981698
 30
0.0
 10
149.459579
 20
228.001598
 30
0.0
 10
149.235582
 20
227.977603
 30
0.0
 10
149.017556
 20
227.888259
 30
0.0
 10
148.842305
 20
227.737169
 30
0.0
 10
148.713696
 20
227.536123
 30
0.0
 10
148.636117
 20
227.289867
 30
0.0
 10
148.628248
 20
227.112396
 30
0.0
 10
148.624080
 20
227.018400
 30
0.0
 11
150.112360
 21
227.120375
 31
0.0
 11
150.094904
 21
227.390777
 31
0.0
 11
150.042538
 21
227.610344
 31
0.0
 11
149.955260
 21
227.779077
 31
0.0
 11
149.832153
 21
227.898507
 31
0.0
 11
149.672300
 21
227.970165
 31
0.0
 11
149.475700
 21
227.994051
 31
0.0
 11
149.231328
 21
227.964959
 31
0.0
 11
149.023704
 21
227.877683
 31
0.0
 11
148.852830
 21
227.732224
 31
0.0
 11
148.725747
 21
227.536543
 31
0.0
 11
148.649497
 21
227.298601
 31
0.0
 11
148.624080
 21
227.018400
 31
0.0
  0
LWPOLYLINE
  5
13b
100
AcDbEntity
  8
Layer_1
 62
5
100
AcDbPolyline
 90
4
 70
0
 10
148.624080
 20
227.018400
 30
0.0
 10
148.624080
 20
225.273804
 30
0.0
 10
148.114200
 20
225.273804
 30
0.0
 10
148.114200
 20
227.120375
 30
0.0
  0
SPLINE
  5
13c
100
AcDbEntity
  8
Layer_1
 62
5
100
AcDbSpline
 70
0
 71
3
 72
19
 73
15
 74
13
 40
0.000000
 40
0.000000
 40
0.000000
 40
0.000000
 40
0.272187
 40
0.497912
 40
0.686794
 40
0.858749
 40
1.035604
 40
1.236687
 40
1.479784
 40
1.703676
 40
1.928615
 40
2.161685
 40
2.410670
 40
2.690497
 40
2.690497
 40
2.690497
 40
2.690497
 10
148.114200
 20
227.120375
 30
0.0
 10
148.111517
 20
227.211209
 30
0.0
 10
148.106609
 20
227.377371
 30
0.0
 10
148.056419
 20
227.602530
 30
0.0
 10
147.968931
 20
227.780320
 30
0.0
 10
147.838120
 20
227.908637
 30
0.0
 10
147.665903
 20
227.981739
 30
0.0
 10
147.457964
 20
228.001618
 30
0.0
 10
147.234343
 20
227.977341
 30
0.0
 10
147.018116
 20
227.886637
 30
0.0
 10
146.844677
 20
227.734266
 30
0.0
 10
146.715574
 20
227.533956
 30
0.0
 10
146.638017
 20
227.288535
 30
0.0
 10
146.630106
 20
227.111879
 30
0.0
 10
146.625920
 20
227.018400
 30
0.0
 11
148.114200
 21
227.120375
 31
0.0
 11
148.096744
 21
227.392001
 31
0.0
 11
148.044378
 21
227.611569
 31
0.0
 11
147.957100
 21
227.779077
 31
0.0
 11
147.833387
 21
227.898507
 31
0.0
 11
147.671700
 21
227.970165
 31
0.0
 11
147.472040
 21
227.994051
 31
0.0
 11
147.230728
 21
227.964653
 31
0.0
 11
147.024938
 21
227.876459
 31
0.0
 11
146.854670
 21
227.729468
 31
0.0
 11
146.727587
 21
227.534093
 31
0.0
 11
146.651337
 21
227.297070
 31
0.0
 11
146.625920
 21
227.018400
 31
0.0
  0
LWPOLYLINE
  5
13d
100
AcDbEntity
  8
Layer_1
 62
5
100
AcDbPolyline
 90
6
 70
0
 10
146.625920
 20
227.018400
 30
0.0
 10
146.625920
 20
225.273804
 30
0.0
 10
146.116050
 20
225.273804
 30
0.0
 10
146.116050
 20
228.360609
 30
0.0
 10
146.625920
 20
228.360609
 30
0.0
 10
146.625920
 20
227.881052
 30
0.0
  0
SPLINE
  5
13e
100
AcDbEntity
  8
Layer_1
 62
5
100
AcDbSpline
 70
0
 71
3
 72
19
 73
15
 74
13
 40
0.000000
 40
0.000000
 40
0.000000
 40
0.000000
 40
0.212274
 40
0.409109
 40
0.596416
 40
0.783878
 40
0.981091
 40
1.193841
 40
1.407516
 40
1.606033
 40
1.798572
 40
1.993461
 40
2.195843
 40
2.414489
 40
2.414489
 40
2.414489
 40
2.414489
 10
146.625920
 20
227.881052
 30
0.0
 10
146.665149
 20
227.940105
 30
0.0
 10
146.740753
 20
228.053917
 30
0.0
 10
146.881966
 20
228.195764
 30
0.0
 10
147.039021
 20
228.305516
 30
0.0
 10
147.215190
 20
228.381675
 30
0.0
 10
147.410291
 20
228.426077
 30
0.0
 10
147.618376
 20
228.440188
 30
0.0
 10
147.827148
 20
228.424041
 30
0.0
 10
148.022223
 20
228.366854
 30
0.0
 10
148.193554
 20
228.269518
 30
0.0
 10
148.339837
 20
228.136028
 30
0.0
 10
148.459578
 20
227.966714
 30
0.0
 10
148.511616
 20
227.835957
 30
0.0
 10
148.538640
 20
227.768053
 30
0.0
 11
146.625920
 21
227.881052
 31
0.0
 11
146.749330
 21
228.053766
 31
0.0
 11
146.888053
 21
228.193408
 31
0.0
 11
147.042090
 21
228.299976
 31
0.0
 11
147.213883
 21
228.375002
 31
0.0
 11
147.405890
 21
228.420018
 31
0.0
 11
147.618110
 21
228.435023
 31
0.0
 11
147.830940
 21
228.416037
 31
0.0
 11
148.021110
 21
228.359078
 31
0.0
 11
148.188620
 21
228.264147
 31
0.0
 11
148.332853
 21
228.133080
 31
0.0
 11
148.449527
 21
227.967715
 31
0.0
 11
148.538640
 21
227.768053
 31
0.0
  0
LWPOLYLINE
  5
13f
100
AcDbEntity
  8
Layer_1
 62
5
100
AcDbPolyline
 90
1
 70
1
 10
148.538640
 20
227.768053
 30
0.0
  0
SPLINE
  5
140
100
AcDbEntity
  8
Layer_1
 62
5
100
AcDbSpline
 70
0
 71
3
 72
19
 73
15
 74
13
 40
0.000000
 40
0.000000
 40
0.000000
 40
0.000000
 40
0.247935
 40
0.474302
 40
0.685795
 40
0.893291
 40
1.107873
 40
1.337034
 40
1.636455
 40
1.909028
 40
2.183054
 40
2.477501
 40
2.808905
 40
3.193408
 40
3.193408
 40
3.193408
 40
3.193408
 10
154.039770
 20
227.768053
 30
0.0
 10
154.082541
 20
227.838942
 30
0.0
 10
154.164363
 20
227.974553
 30
0.0
 10
154.318278
 20
228.145572
 30
0.0
 10
154.489478
 20
228.277955
 30
0.0
 10
154.681182
 20
228.370174
 30
0.0
 10
154.892792
 20
228.424167
 30
0.0
 10
155.140629
 20
228.442787
 30
0.0
 10
155.409354
 20
228.414445
 30
0.0
 10
155.671931
 20
228.297406
 30
0.0
 10
155.877271
 20
228.099073
 30
0.0
 10
156.023707
 20
227.833301
 30
0.0
 10
156.110065
 20
227.504277
 30
0.0
 10
156.118715
 20
227.265275
 30
0.0
 10
156.123360
 20
227.136911
 30
0.0
 11
154.039770
 21
227.768053
 31
0.0
 11
154.174813
 21
227.975983
 31
0.0
 11
154.326397
 21
228.144104
 31
0.0
 11
154.494520
 21
228.272415
 31
0.0
 11
154.681319
 21
228.362753
 31
0.0
 11
154.888942
 21
228.416955
 31
0.0
 11
155.117390
 21
228.435023
 31
0.0
 11
155.414432
 21
228.397357
 31
0.0
 11
155.662479
 21
228.284358
 31
0.0
 11
155.861530
 21
228.096026
 31
0.0
 11
156.006991
 21
227.840017
 31
0.0
 11
156.094268
 21
227.520312
 31
0.0
 11
156.123360
 21
227.136911
 31
0.0
  0
LWPOLYLINE
  5
141
100
AcDbEntity
  8
Layer_1
 62
5
100
AcDbPolyline
 90
4
 70
0
 10
156.123360
 20
227.136911
 30
0.0
 10
156.123360
 20
225.273804
 30
0.0
 10
155.613480
 20
225.273804
 30
0.0
 10
155.613480
 20
227.120375
 30
0.0
  0
SPLINE
  5
142
100
AcDbEntity
  8
Layer_1
 62
5
100
AcDbSpline
 70
0
 71
3
 72
19
 73
15
 74
13
 40
0.000000
 40
0.000000
 40
0.000000
 40
0.000000
 40
0.270964
 40
0.496689
 40
0.686656
 40
0.858175
 40
1.033355
 40
1.231400
 40
1.477498
 40
1.702719
 40
1.927122
 40
2.160451
 40
2.410313
 40
2.691665
 40
2.691665
 40
2.691665
 40
2.691665
 10
155.613480
 20
227.120375
 30
0.0
 10
155.610796
 20
227.210811
 30
0.0
 10
155.605876
 20
227.376583
 30
0.0
 10
155.555398
 20
227.601551
 30
0.0
 10
155.468599
 20
227.779937
 30
0.0
 10
155.338296
 20
227.908220
 30
0.0
 10
155.168145
 20
227.981698
 30
0.0
 10
154.960709
 20
228.001598
 30
0.0
 10
154.736712
 20
227.977603
 30
0.0
 10
154.518686
 20
227.888260
 30
0.0
 10
154.343436
 20
227.737168
 30
0.0
 10
154.214820
 20
227.536124
 30
0.0
 10
154.137237
 20
227.289867
 30
0.0
 10
154.129368
 20
227.112396
 30
0.0
 10
154.125200
 20
227.018400
 30
0.0
 11
155.613480
 21
227.120375
 31
0.0
 11
155.596026
 21
227.390777
 31
0.0
 11
155.543662
 21
227.610344
 31
0.0
 11
155.456390
 21
227.779077
 31
0.0
 11
155.333283
 21
227.898507
 31
0.0
 11
155.173430
 21
227.970165
 31
0.0
 11
154.976830
 21
227.994051
 31
0.0
 11
154.732458
 21
227.964959
 31
0.0
 11
154.524834
 21
227.877683
 31
0.0
 11
154.353960
 21
227.732224
 31
0.0
 11
154.226871
 21
227.536543
 31
0.0
 11
154.150618
 21
227.298601
 31
0.0
 11
154.125200
 21
227.018400
 31
0.0
  0
LWPOLYLINE
  5
143
100
AcDbEntity
  8
Layer_1
 62
5
100
AcDbPolyline
 90
4
 70
0
 10
154.125200
 20
227.018400
 30
0.0
 10
154.125200
 20
225.273804
 30
0.0
 10
153.615330
 20
225.273804
 30
0.0
 10
153.615330
 20
227.120375
 30
0.0
  0
SPLINE
  5
144
100
AcDbEntity
  8
Layer_1
 62
5
100
AcDbSpline
 70
0
 71
3
 72
19
 73
15
 74
13
 40
0.000000
 40
0.000000
 40
0.000000
 40
0.000000
 40
0.272187
 40
0.497912
 40
0.686794
 40
0.858750
 40
1.035608
 40
1.236697
 40
1.479788
 40
1.703677
 40
1.928615
 40
2.161685
 40
2.410670
 40
2.690497
 40
2.690497
 40
2.690497
 40
2.690497
 10
153.615330
 20
227.120375
 30
0.0
 10
153.612647
 20
227.211209
 30
0.0
 10
153.607739
 20
227.377371
 30
0.0
 10
153.557549
 20
227.602530
 30
0.0
 10
153.470062
 20
227.780320
 30
0.0
 10
153.339248
 20
227.908638
 30
0.0
 10
153.167028
 20
227.981739
 30
0.0
 10
152.959087
 20
228.001618
 30
0.0
 10
152.735468
 20
227.977341
 30
0.0
 10
152.519244
 20
227.886636
 30
0.0
 10
152.345807
 20
227.734265
 30
0.0
 10
152.216704
 20
227.533956
 30
0.0
 10
152.139147
 20
227.288535
 30
0.0
 10
152.131236
 20
227.111879
 30
0.0
 10
152.127050
 20
227.018400
 30
0.0
 11
153.615330
 21
227.120375
 31
0.0
 11
153.597874
 21
227.392001
 31
0.0
 11
153.545508
 21
227.611569
 31
0.0
 11
153.458230
 21
227.779077
 31
0.0
 11
153.334516
 21
227.898507
 31
0.0
 11
153.172826
 21
227.970165
 31
0.0
 11
152.973160
 21
227.994051
 31
0.0
 11
152.731853
 21
227.964653
 31
0.0
 11
152.526067
 21
227.876459
 31
0.0
 11
152.355800
 21
227.729468
 31
0.0
 11
152.228717
 21
227.534093
 31
0.0
 11
152.152467
 21
227.297070
 31
0.0
 11
152.127050
 21
227.018400
 31
0.0
  0
LWPOLYLINE
  5
145
100
AcDbEntity
  8
Layer_1
 62
5
100
AcDbPolyline
 90
6
 70
0
 10
152.127050
 20
227.018400
 30
0.0
 10
152.127050
 20
225.273804
 30
0.0
 10
151.617170
 20
225.273804
 30
0.0
 10
151.617170
 20
228.360609
 30
0.0
 10
152.127050
 20
228.360609
 30
0.0
 10
152.127050
 20
227.881052
 30
0.0
  0
LWPOLYLINE
  5
146
100
AcDbEntity
  8
Layer_1
 62
5
100
AcDbPolyline
 90
1
 70
1
 10
154.039770
 20
227.768053
 30
0.0
  0
LWPOLYLINE
  5
147
100
AcDbEntity
  8
Layer_1
 62
5
100
AcDbPolyline
 90
2
 70
0
 10
188.500000
 20
221.646649
 30
0.0
 10
268.500000
 20
221.646649
 30
0.0
  0
SPLINE
  5
148
100
AcDbEntity
  8
Layer_1
 62
5
100
AcDbSpline
 70
0
 71
3
 72
19
 73
15
 74
13
 40
0.000000
 40
0.000000
 40
0.000000
 40
0.000000
 40
0.212274
 40
0.409109
 40
0.596416
 40
0.783878
 40
0.981091
 40
1.193841
 40
1.407515
 40
1.606028
 40
1.798563
 40
1.993456
 40
2.195839
 40
2.414486
 40
2.414486
 40
2.414486
 40
2.414486
 10
152.127050
 20
227.881052
 30
0.0
 10
152.166279
 20
227.940105
 30
0.0
 10
152.241883
 20
228.053917
 30
0.0
 10
152.383096
 20
228.195764
 30
0.0
 10
152.540151
 20
228.305516
 30
0.0
 10
152.716320
 20
228.381675
 30
0.0
 10
152.911421
 20
228.426077
 30
0.0
 10
153.119506
 20
228.440188
 30
0.0
 10
153.328276
 20
228.424041
 30
0.0
 10
153.523349
 20
228.366855
 30
0.0
 10
153.694675
 20
228.269514
 30
0.0
 10
153.840962
 20
228.136030
 30
0.0
 10
153.960707
 20
227.966715
 30
0.0
 10
154.012745
 20
227.835957
 30
0.0
 10
154.039770
 20
227.768053
 30
0.0
 11
152.127050
 21
227.881052
 31
0.0
 11
152.250460
 21
228.053766
 31
0.0
 11
152.389183
 21
228.193408
 31
0.0
 11
152.543220
 21
228.299976
 31
0.0
 11
152.715013
 21
228.375002
 31
0.0
 11
152.907020
 21
228.420018
 31
0.0
 11
153.119240
 21
228.435023
 31
0.0
 11
153.332069
 21
228.416037
 31
0.0
 11
153.522236
 21
228.359078
 31
0.0
 11
153.689740
 21
228.264147
 31
0.0
 11
153.833979
 21
228.133080
 31
0.0
 11
153.950656
 21
227.967715
 31
0.0
 11
154.039770
 21
227.768053
 31
0.0
  0
LWPOLYLINE
  5
149
100
AcDbEntity
  8
Layer_1
 62
5
100
AcDbPolyline
 90
2
 70
0
 10
268.551820
 20
234.875815
 30
0.0
 10
268.551820
 20
213.230659
 30
0.0
  0
SPLINE
  5
14a
100
AcDbEntity
  8
Layer_1
 62
5
100
AcDbSpline
 70
0
 71
3
 72
31
 73
27
 74
25
 40
0.000000
 40
0.000000
 40
0.000000
 40
0.000000
 40
0.247033
 40
0.467248
 40
0.675101
 40
0.877886
 40
1.086711
 40
1.318362
 40
1.550012
 40
1.758836
 40
1.961621
 40
2.169475
 40
2.389689
 40
2.636722
 40
2.883752
 40
3.103966
 40
3.311823
 40
3.516516
 40
3.725673
 40
3.956139
 40
4.187823
 40
4.396980
 40
4.600715
 40
4.807563
 40
5.027777
 40
5.276027
 40
5.276027
 40
5.276027
 40
5.276027
 10
217.427860
 20
227.227870
 30
0.0
 10
217.345294
 20
227.224007
 30
0.0
 10
217.189127
 20
227.216700
 30
0.0
 10
216.972749
 20
227.144163
 30
0.0
 10
216.796302
 20
227.024680
 30
0.0
 10
216.666291
 20
226.859852
 30
0.0
 10
216.589978
 20
226.656195
 30
0.0
 10
216.569000
 20
226.431361
 30
0.0
 10
216.589978
 20
226.206540
 30
0.0
 10
216.666291
 20
226.002849
 30
0.0
 10
216.796302
 20
225.838144
 30
0.0
 10
216.972749
 20
225.718182
 30
0.0
 10
217.189126
 20
225.647622
 30
0.0
 10
217.427861
 20
225.628106
 30
0.0
 10
217.666581
 20
225.647631
 30
0.0
 10
217.882997
 20
225.718151
 30
0.0
 10
218.059847
 20
225.838620
 30
0.0
 10
218.190617
 20
226.003602
 30
0.0
 10
218.268200
 20
226.207185
 30
0.0
 10
218.289593
 20
226.431782
 30
0.0
 10
218.268263
 20
226.656313
 30
0.0
 10
218.191014
 20
226.860264
 30
0.0
 10
218.059474
 20
227.023787
 30
0.0
 10
217.884126
 20
227.144596
 30
0.0
 10
217.667349
 20
227.216735
 30
0.0
 10
217.510812
 20
227.224013
 30
0.0
 10
217.427860
 20
227.227870
 30
0.0
 11
217.427860
 21
227.227870
 31
0.0
 11
217.181954
 21
227.204290
 31
0.0
 11
216.973411
 21
227.133551
 31
0.0
 11
216.802230
 21
227.015652
 31
0.0
 11
216.676674
 21
226.856412
 31
0.0
 11
216.601341
 21
226.661649
 31
0.0
 11
216.576230
 21
226.431363
 31
0.0
 11
216.601341
 21
226.201078
 31
0.0
 11
216.676674
 21
226.006315
 31
0.0
 11
216.802230
 21
225.847075
 31
0.0
 11
216.973411
 21
225.729176
 31
0.0
 11
217.181954
 21
225.658437
 31
0.0
 11
217.427860
 21
225.634857
 31
0.0
 11
217.673761
 21
225.658437
 31
0.0
 11
217.882304
 21
225.729176
 31
0.0
 11
218.053490
 21
225.847075
 31
0.0
 11
218.180573
 21
226.007540
 31
0.0
 11
218.256823
 21
226.202303
 31
0.0
 11
218.282240
 21
226.431363
 31
0.0
 11
218.256823
 21
226.661649
 31
0.0
 11
218.180573
 21
226.856412
 31
0.0
 11
218.053490
 21
227.015652
 31
0.0
 11
217.883531
 21
227.133551
 31
0.0
 11
217.674988
 21
227.204290
 31
0.0
 11
217.427860
 21
227.227870
 31
0.0
  0
SPLINE
  5
14b
100
AcDbEntity
  8
Layer_1
 62
5
100
AcDbSpline
 70
0
 71
3
 72
31
 73
27
 74
25
 40
0.000000
 40
0.000000
 40
0.000000
 40
0.000000
 40
0.234166
 40
0.451276
 40
0.661787
 40
0.869015
 40
1.079059
 40
1.303388
 40
1.611774
 40
1.896744
 40
2.185937
 40
2.494220
 40
2.829658
 40
3.210108
 40
3.591775
 40
3.927209
 40
4.234442
 40
4.523639
 40
4.808609
 40
5.116996
 40
5.341355
 40
5.551690
 40
5.759739
 40
5.968931
 40
6.184465
 40
6.416894
 40
6.416894
 40
6.416894
 40
6.416894
 10
216.871130
 20
227.464892
 30
0.0
 10
216.796045
 20
227.487137
 30
0.0
 10
216.651346
 20
227.530007
 30
0.0
 10
216.460110
 20
227.644694
 30
0.0
 10
216.305622
 20
227.791950
 30
0.0
 10
216.193253
 20
227.971096
 30
0.0
 10
216.126093
 20
228.176346
 30
0.0
 10
216.104438
 20
228.424396
 30
0.0
 10
216.135316
 20
228.698522
 30
0.0
 10
216.256198
 20
228.972356
 30
0.0
 10
216.459141
 20
229.191972
 30
0.0
 10
216.730205
 20
229.352135
 30
0.0
 10
217.061688
 20
229.445985
 30
0.0
 10
217.428276
 20
229.472112
 30
0.0
 10
217.794808
 20
229.446019
 30
0.0
 10
218.126541
 20
229.352478
 30
0.0
 10
218.396716
 20
229.191550
 30
0.0
 10
218.599547
 20
228.972397
 30
0.0
 10
218.720372
 20
228.698514
 30
0.0
 10
218.751370
 20
228.424379
 30
0.0
 10
218.729399
 20
228.176252
 30
0.0
 10
218.661385
 20
227.970703
 30
0.0
 10
218.547169
 20
227.793007
 30
0.0
 10
218.394998
 20
227.644620
 30
0.0
 10
218.205321
 20
227.530049
 30
0.0
 10
218.061804
 20
227.487150
 30
0.0
 10
217.987340
 20
227.464892
 30
0.0
 11
216.871130
 21
227.464892
 31
0.0
 11
216.649726
 21
227.541141
 31
0.0
 11
216.463232
 21
227.652303
 31
0.0
 11
216.311650
 21
227.798377
 31
0.0
 11
216.201406
 21
227.973847
 31
0.0
 11
216.135259
 21
228.173204
 31
0.0
 11
216.113210
 21
228.396446
 31
0.0
 11
216.152101
 21
228.702371
 31
0.0
 11
216.268774
 21
228.962361
 31
0.0
 11
216.463230
 21
229.176416
 31
0.0
 11
216.727202
 21
229.335655
 31
0.0
 11
217.048746
 21
229.431199
 31
0.0
 11
217.427860
 21
229.463047
 31
0.0
 11
217.808196
 21
229.431199
 31
0.0
 11
218.129736
 21
229.335655
 31
0.0
 11
218.392480
 21
229.176416
 31
0.0
 11
218.586941
 21
228.962361
 31
0.0
 11
218.703618
 21
228.702371
 31
0.0
 11
218.742510
 21
228.396446
 31
0.0
 11
218.720154
 21
228.173204
 31
0.0
 11
218.653088
 21
227.973847
 31
0.0
 11
218.541310
 21
227.798377
 31
0.0
 11
218.391562
 21
227.652305
 31
0.0
 11
218.206906
 21
227.541144
 31
0.0
 11
217.987340
 21
227.464892
 31
0.0
  0
LWPOLYLINE
  5
14c
100
AcDbEntity
  8
Layer_1
 62
5
100
AcDbPolyline
 90
1
 70
1
 10
217.427860
 20
227.227870
 30
0.0
  0
SPLINE
  5
14d
100
AcDbEntity
  8
Layer_1
 62
5
100
AcDbSpline
 70
0
 71
3
 72
31
 73
27
 74
25
 40
0.000000
 40
0.000000
 40
0.000000
 40
0.000000
 40
0.261660
 40
0.503362
 40
0.737269
 40
0.969510
 40
1.204250
 40
1.454784
 40
1.824815
 40
2.154238
 40
2.472104
 40
2.801789
 40
3.165915
 40
3.586037
 40
4.006463
 40
4.371470
 40
4.702447
 40
5.019334
 40
5.348416
 40
5.718414
 40
5.968947
 40
6.203686
 40
6.435924
 40
6.670941
 40
6.913437
 40
7.175388
 40
7.175388
 40
7.175388
 40
7.175388
 10
217.987340
 20
227.464892
 30
0.0
 10
218.071525
 20
227.441043
 30
0.0
 10
218.233473
 20
227.395164
 30
0.0
 10
218.447911
 20
227.269259
 30
0.0
 10
218.619560
 20
227.104584
 30
0.0
 10
218.747755
 20
226.906522
 30
0.0
 10
218.824495
 20
226.677236
 30
0.0
 10
218.848581
 20
226.391505
 30
0.0
 10
218.816669
 20
226.073558
 30
0.0
 10
218.693818
 20
225.751854
 30
0.0
 10
218.480457
 20
225.498014
 30
0.0
 10
218.190609
 20
225.316239
 30
0.0
 10
217.830103
 20
225.212431
 30
0.0
 10
217.427775
 20
225.183955
 30
0.0
 10
217.025056
 20
225.212425
 30
0.0
 10
216.663991
 20
225.316544
 30
0.0
 10
216.372646
 20
225.497032
 30
0.0
 10
216.160719
 20
225.752280
 30
0.0
 10
216.038847
 20
226.073682
 30
0.0
 10
216.007181
 20
226.391511
 30
0.0
 10
216.031200
 20
226.677252
 30
0.0
 10
216.108023
 20
226.906460
 30
0.0
 10
216.236127
 20
227.105125
 30
0.0
 10
216.409429
 20
227.269063
 30
0.0
 10
216.624528
 20
227.395078
 30
0.0
 10
216.786843
 20
227.441030
 30
0.0
 10
216.871130
 20
227.464892
 30
0.0
 11
217.987340
 21
227.464892
 31
0.0
 11
218.235694
 21
227.382514
 31
0.0
 11
218.444238
 21
227.260328
 31
0.0
 11
218.612970
 21
227.098334
 31
0.0
 11
218.738526
 21
226.902959
 31
0.0
 11
218.813859
 21
226.680635
 31
0.0
 11
218.838970
 21
226.431363
 31
0.0
 11
218.798241
 21
226.063580
 31
0.0
 11
218.676054
 21
225.757656
 31
0.0
 11
218.472410
 21
225.513590
 31
0.0
 11
218.194660
 21
225.335976
 31
0.0
 11
217.846477
 21
225.229408
 31
0.0
 11
217.427860
 21
225.193885
 31
0.0
 11
217.008937
 21
225.229408
 31
0.0
 11
216.659833
 21
225.335976
 31
0.0
 11
216.380550
 21
225.513590
 31
0.0
 11
216.178439
 21
225.757656
 31
0.0
 11
216.057172
 21
226.063580
 31
0.0
 11
216.016750
 21
226.431363
 31
0.0
 11
216.041860
 21
226.680635
 31
0.0
 11
216.117190
 21
226.902959
 31
0.0
 11
216.242740
 21
227.098334
 31
0.0
 11
216.413006
 21
227.260330
 31
0.0
 11
216.622469
 21
227.382516
 31
0.0
 11
216.871130
 21
227.464892
 31
0.0
  0
LWPOLYLINE
  5
14e
100
AcDbEntity
  8
Layer_1
 62
5
100
AcDbPolyline
 90
1
 70
1
 10
216.871130
 20
227.464892
 30
0.0
  0
SPLINE
  5
14f
100
AcDbEntity
  8
Layer_1
 62
5
100
AcDbSpline
 70
0
 71
3
 72
31
 73
27
 74
25
 40
0.000000
 40
0.000000
 40
0.000000
 40
0.000000
 40
0.198745
 40
0.377702
 40
0.552034
 40
0.733625
 40
0.930322
 40
1.154147
 40
1.376444
 40
1.572265
 40
1.753600
 40
1.929884
 40
2.109527
 40
2.308341
 40
2.507156
 40
2.686799
 40
2.863083
 40
3.044418
 40
3.240239
 40
3.462536
 40
3.686361
 40
3.883058
 40
4.064649
 40
4.238981
 40
4.417938
 40
4.616684
 40
4.616684
 40
4.616684
 40
4.616684
 10
216.667180
 20
228.344080
 30
0.0
 10
216.670803
 20
228.277584
 30
0.0
 10
216.677689
 20
228.151213
 30
0.0
 10
216.746765
 20
227.976910
 30
0.0
 10
216.861089
 20
227.836514
 30
0.0
 10
217.018570
 20
227.735543
 30
0.0
 10
217.212560
 20
227.676663
 30
0.0
 10
217.427366
 20
227.660443
 30
0.0
 10
217.641786
 20
227.676725
 30
0.0
 10
217.835090
 20
227.735520
 30
0.0
 10
217.991766
 20
227.837515
 30
0.0
 10
218.109646
 20
227.976174
 30
0.0
 10
218.178859
 20
228.150933
 30
0.0
 10
218.197820
 20
228.344080
 30
0.0
 10
218.178859
 20
228.537227
 30
0.0
 10
218.109646
 20
228.711987
 30
0.0
 10
217.991766
 20
228.850646
 30
0.0
 10
217.835090
 20
228.952641
 30
0.0
 10
217.641786
 20
229.011436
 30
0.0
 10
217.427366
 20
229.027718
 30
0.0
 10
217.212560
 20
229.011498
 30
0.0
 10
217.018570
 20
228.952618
 30
0.0
 10
216.861089
 20
228.851647
 30
0.0
 10
216.746764
 20
228.711251
 30
0.0
 10
216.677689
 20
228.536947
 30
0.0
 10
216.670803
 20
228.410576
 30
0.0
 10
216.667180
 20
228.344080
 30
0.0
 11
216.667180
 21
228.344080
 31
0.0
 11
216.689229
 21
228.146562
 31
0.0
 11
216.755376
 21
227.980279
 31
0.0
 11
216.865620
 21
227.845231
 31
0.0
 11
217.017509
 21
227.745706
 31
0.0
 11
217.204922
 21
227.685991
 31
0.0
 11
217.427860
 21
227.666086
 31
0.0
 11
217.649264
 21
227.685991
 31
0.0
 11
217.835758
 21
227.745706
 31
0.0
 11
217.987340
 21
227.845231
 31
0.0
 11
218.100646
 21
227.980279
 31
0.0
 11
218.168629
 21
228.146562
 31
0.0
 11
218.191290
 21
228.344080
 31
0.0
 11
218.168629
 21
228.541599
 31
0.0
 11
218.100646
 21
228.707882
 31
0.0
 11
217.987340
 21
228.842930
 31
0.0
 11
217.835758
 21
228.942455
 31
0.0
 11
217.649264
 21
229.002170
 31
0.0
 11
217.427860
 21
229.022075
 31
0.0
 11
217.204922
 21
229.002170
 31
0.0
 11
217.017509
 21
228.942455
 31
0.0
 11
216.865620
 21
228.842930
 31
0.0
 11
216.755376
 21
228.707882
 31
0.0
 11
216.689229
 21
228.541599
 31
0.0
 11
216.667180
 21
228.344080
 31
0.0
  0
LWPOLYLINE
  5
150
100
AcDbEntity
  8
Layer_1
 62
5
100
AcDbPolyline
 90
1
 70
1
 10
216.667180
 20
228.344080
 30
0.0
  0
SPLINE
  5
151
100
AcDbEntity
  8
Layer_1
 62
5
100
AcDbSpline
 70
0
 71
3
 72
31
 73
27
 74
25
 40
0.000000
 40
0.000000
 40
0.000000
 40
0.000000
 40
0.267247
 40
0.525368
 40
0.815319
 40
1.164934
 40
1.594471
 40
2.113469
 40
2.631244
 40
3.060780
 40
3.411548
 40
3.700255
 40
3.957873
 40
4.225066
 40
4.493467
 40
4.751085
 40
5.039077
 40
5.390370
 40
5.820061
 40
6.337850
 40
6.856863
 40
7.286553
 40
7.636696
 40
7.925935
 40
8.184055
 40
8.452510
 40
8.452510
 40
8.452510
 40
8.452510
 10
221.021780
 20
229.022075
 30
0.0
 10
220.931769
 20
229.013891
 30
0.0
 10
220.754820
 20
228.997802
 30
0.0
 10
220.522078
 20
228.837250
 30
0.0
 10
220.351993
 20
228.586033
 30
0.0
 10
220.237287
 20
228.245436
 30
0.0
 10
220.170912
 20
227.816614
 30
0.0
 10
220.152700
 20
227.327495
 30
0.0
 10
220.170865
 20
226.838382
 30
0.0
 10
220.237663
 20
226.409587
 30
0.0
 10
220.351248
 20
226.069029
 30
0.0
 10
220.522370
 20
225.817177
 30
0.0
 10
220.755042
 20
225.662487
 30
0.0
 10
221.022194
 20
225.620817
 30
0.0
 10
221.289301
 20
225.662320
 30
0.0
 10
221.522564
 20
225.816811
 30
0.0
 10
221.691786
 20
226.069795
 30
0.0
 10
221.807922
 20
226.409191
 30
0.0
 10
221.875182
 20
226.838379
 30
0.0
 10
221.893768
 20
227.327495
 30
0.0
 10
221.875136
 20
227.816617
 30
0.0
 10
221.808300
 20
228.245833
 30
0.0
 10
221.691040
 20
228.585270
 30
0.0
 10
221.522858
 20
228.837616
 30
0.0
 10
221.289528
 20
228.997985
 30
0.0
 10
221.112189
 20
229.013941
 30
0.0
 10
221.021780
 20
229.022075
 30
0.0
 11
221.021780
 21
229.022075
 31
0.0
 11
220.758727
 21
228.974915
 31
0.0
 11
220.542833
 21
228.833437
 31
0.0
 11
220.374100
 21
228.597639
 31
0.0
 11
220.254672
 21
228.269054
 31
0.0
 11
220.183016
 21
227.845537
 31
0.0
 11
220.159130
 21
227.327088
 31
0.0
 11
220.183016
 21
226.809865
 31
0.0
 11
220.254672
 21
226.386348
 31
0.0
 11
220.374100
 21
226.056537
 31
0.0
 11
220.542833
 21
225.822270
 31
0.0
 11
220.758727
 21
225.681710
 31
0.0
 11
221.021780
 21
225.634857
 31
0.0
 11
221.286060
 21
225.681710
 31
0.0
 11
221.501953
 21
225.822270
 31
0.0
 11
221.669460
 21
226.056537
 31
0.0
 11
221.790421
 21
226.386348
 31
0.0
 11
221.862998
 21
226.809865
 31
0.0
 11
221.887190
 21
227.327088
 31
0.0
 11
221.862998
 21
227.845537
 31
0.0
 11
221.790421
 21
228.269054
 31
0.0
 11
221.669460
 21
228.597639
 31
0.0
 11
221.501953
 21
228.833437
 31
0.0
 11
221.286060
 21
228.974915
 31
0.0
 11
221.021780
 21
229.022075
 31
0.0
  0
SPLINE
  5
152
100
AcDbEntity
  8
Layer_1
 62
5
100
AcDbSpline
 70
0
 71
3
 72
10
 73
6
 74
4
 40
0.000000
 40
0.000000
 40
0.000000
 40
0.000000
 40
0.429094
 40
0.825614
 40
1.238735
 40
1.238735
 40
1.238735
 40
1.238735
 10
221.021780
 20
229.463047
 30
0.0
 10
221.165358
 20
229.452659
 30
0.0
 10
221.441615
 20
229.432672
 30
0.0
 10
221.822833
 20
229.237290
 30
0.0
 10
221.991366
 20
229.023616
 30
0.0
 10
222.077360
 20
228.914588
 30
0.0
 11
221.021780
 21
229.463047
 31
0.0
 11
221.446524
 21
229.402107
 31
0.0
 11
221.798384
 21
229.219287
 31
0.0
 11
222.077360
 21
228.914588
 31
0.0
  0
SPLINE
  5
153
100
AcDbEntity
  8
Layer_1
 62
5
100
AcDbSpline
 70
0
 71
3
 72
19
 73
15
 74
13
 40
0.000000
 40
0.000000
 40
0.000000
 40
0.000000
 40
0.465798
 40
1.008888
 40
1.649594
 40
2.289077
 40
2.832167
 40
3.299068
 40
3.711061
 40
4.107159
 40
4.536209
 40
4.965558
 40
5.362470
 40
5.775502
 40
5.775502
 40
5.775502
 40
5.775502
 10
222.077360
 20
228.914588
 30
0.0
 10
222.152097
 20
228.777610
 30
0.0
 10
222.313971
 20
228.480926
 30
0.0
 10
222.420898
 20
227.934536
 30
0.0
 10
222.455811
 20
227.327900
 30
0.0
 10
222.422980
 20
226.718960
 30
0.0
 10
222.307166
 20
226.178259
 30
0.0
 10
222.105983
 20
225.743549
 30
0.0
 10
221.818394
 20
225.419698
 30
0.0
 10
221.442609
 20
225.227727
 30
0.0
 10
221.021346
 20
225.176092
 30
0.0
 10
220.601765
 20
225.228506
 30
0.0
 10
220.219816
 20
225.417224
 30
0.0
 10
220.050032
 20
225.630717
 30
0.0
 10
219.963450
 20
225.739588
 30
0.0
 11
222.077360
 21
228.914588
 31
0.0
 11
222.281004
 21
228.495664
 31
0.0
 11
222.403191
 21
227.966498
 31
0.0
 11
222.443920
 21
227.327088
 31
0.0
 11
222.403191
 21
226.688903
 31
0.0
 11
222.281004
 21
226.159736
 31
0.0
 11
222.077360
 21
225.739588
 31
0.0
 11
221.798384
 21
225.436420
 31
0.0
 11
221.446524
 21
225.254519
 31
0.0
 11
221.021780
 21
225.193885
 31
0.0
 11
220.596734
 21
225.254519
 31
0.0
 11
220.243958
 21
225.436420
 31
0.0
 11
219.963450
 21
225.739588
 31
0.0
  0
LWPOLYLINE
  5
154
100
AcDbEntity
  8
Layer_1
 62
5
100
AcDbPolyline
 90
1
 70
1
 10
221.021780
 20
229.022075
 30
0.0
  0
SPLINE
  5
155
100
AcDbEntity
  8
Layer_1
 62
5
100
AcDbSpline
 70
0
 71
3
 72
16
 73
12
 74
10
 40
0.000000
 40
0.000000
 40
0.000000
 40
0.000000
 40
0.466233
 40
1.009117
 40
1.648581
 40
2.289267
 40
2.832151
 40
3.297281
 40
3.711439
 40
4.108773
 40
4.538165
 40
4.538165
 40
4.538165
 40
4.538165
 10
219.963450
 20
225.739588
 30
0.0
 10
219.889285
 20
225.877021
 30
0.0
 10
219.728761
 20
226.174481
 30
0.0
 10
219.622527
 20
226.720515
 30
0.0
 10
219.587851
 20
227.327087
 30
0.0
 10
219.620380
 20
227.935987
 30
0.0
 10
219.735117
 20
228.476413
 30
0.0
 10
219.935316
 20
228.912255
 30
0.0
 10
220.223770
 20
229.234544
 30
0.0
 10
220.600346
 20
229.433310
 30
0.0
 10
220.877717
 20
229.452882
 30
0.0
 10
221.021780
 20
229.463047
 30
0.0
 11
219.963450
 21
225.739588
 31
0.0
 11
219.761339
 21
226.159736
 31
0.0
 11
219.640072
 21
226.688903
 31
0.0
 11
219.599650
 21
227.327088
 31
0.0
 11
219.640072
 21
227.966498
 31
0.0
 11
219.761339
 21
228.495664
 31
0.0
 11
219.963450
 21
228.914588
 31
0.0
 11
220.243958
 21
229.219287
 31
0.0
 11
220.596734
 21
229.402107
 31
0.0
 11
221.021780
 21
229.463047
 31
0.0
  0
LWPOLYLINE
  5
156
100
AcDbEntity
  8
Layer_1
 62
5
100
AcDbPolyline
 90
1
 70
1
 10
221.021780
 20
229.463047
 30
0.0
  0
SPLINE
  5
157
100
AcDbEntity
  8
Layer_1
 62
5
100
AcDbSpline
 70
0
 71
3
 72
19
 73
15
 74
13
 40
0.000000
 40
0.000000
 40
0.000000
 40
0.000000
 40
0.247938
 40
0.474305
 40
0.685794
 40
0.893295
 40
1.107881
 40
1.337043
 40
1.636464
 40
1.909036
 40
2.183062
 40
2.477510
 40
2.808914
 40
3.193417
 40
3.193417
 40
3.193417
 40
3.193417
 10
227.553680
 20
227.768060
 30
0.0
 10
227.596453
 20
227.838949
 30
0.0
 10
227.678278
 20
227.974559
 30
0.0
 10
227.832192
 20
228.145578
 30
0.0
 10
228.003390
 20
228.277965
 30
0.0
 10
228.195098
 20
228.370181
 30
0.0
 10
228.406710
 20
228.424175
 30
0.0
 10
228.654548
 20
228.442795
 30
0.0
 10
228.923274
 20
228.414453
 30
0.0
 10
229.185851
 20
228.297414
 30
0.0
 10
229.391191
 20
228.099081
 30
0.0
 10
229.537627
 20
227.833309
 30
0.0
 10
229.623985
 20
227.504285
 30
0.0
 10
229.632635
 20
227.265283
 30
0.0
 10
229.637280
 20
227.136919
 30
0.0
 11
227.553680
 21
227.768060
 31
0.0
 11
227.688728
 21
227.975991
 31
0.0
 11
227.840311
 21
228.144112
 31
0.0
 11
228.008430
 21
228.272422
 31
0.0
 11
228.195234
 21
228.362760
 31
0.0
 11
228.402861
 21
228.416963
 31
0.0
 11
228.631310
 21
228.435031
 31
0.0
 11
228.928352
 21
228.397365
 31
0.0
 11
229.176399
 21
228.284366
 31
0.0
 11
229.375450
 21
228.096034
 31
0.0
 11
229.520911
 21
227.840025
 31
0.0
 11
229.608188
 21
227.520320
 31
0.0
 11
229.637280
 21
227.136919
 31
0.0
  0
LWPOLYLINE
  5
158
100
AcDbEntity
  8
Layer_1
 62
5
100
AcDbPolyline
 90
4
 70
0
 10
229.637280
 20
227.136919
 30
0.0
 10
229.637280
 20
225.273811
 30
0.0
 10
229.127400
 20
225.273811
 30
0.0
 10
229.127400
 20
227.120383
 30
0.0
  0
SPLINE
  5
159
100
AcDbEntity
  8
Layer_1
 62
5
100
AcDbSpline
 70
0
 71
3
 72
19
 73
15
 74
13
 40
0.000000
 40
0.000000
 40
0.000000
 40
0.000000
 40
0.270964
 40
0.496689
 40
0.686656
 40
0.858175
 40
1.033355
 40
1.231400
 40
1.477499
 40
1.702723
 40
1.927131
 40
2.160457
 40
2.410317
 40
2.691668
 40
2.691668
 40
2.691668
 40
2.691668
 10
229.127400
 20
227.120383
 30
0.0
 10
229.124716
 20
227.210819
 30
0.0
 10
229.119796
 20
227.376591
 30
0.0
 10
229.069318
 20
227.601559
 30
0.0
 10
228.982519
 20
227.779945
 30
0.0
 10
228.852216
 20
227.908228
 30
0.0
 10
228.682065
 20
227.981706
 30
0.0
 10
228.474629
 20
228.001606
 30
0.0
 10
228.250630
 20
227.977610
 30
0.0
 10
228.032602
 20
227.888266
 30
0.0
 10
227.857346
 20
227.737178
 30
0.0
 10
227.728736
 20
227.536130
 30
0.0
 10
227.651157
 20
227.289875
 30
0.0
 10
227.643288
 20
227.112404
 30
0.0
 10
227.639120
 20
227.018408
 30
0.0
 11
229.127400
 21
227.120383
 31
0.0
 11
229.109946
 21
227.390785
 31
0.0
 11
229.057582
 21
227.610352
 31
0.0
 11
228.970310
 21
227.779085
 31
0.0
 11
228.847203
 21
227.898515
 31
0.0
 11
228.687350
 21
227.970173
 31
0.0
 11
228.490750
 21
227.994059
 31
0.0
 11
228.246377
 21
227.964967
 31
0.0
 11
228.038750
 21
227.877691
 31
0.0
 11
227.867870
 21
227.732231
 31
0.0
 11
227.740787
 21
227.536550
 31
0.0
 11
227.664537
 21
227.298609
 31
0.0
 11
227.639120
 21
227.018408
 31
0.0
  0
LWPOLYLINE
  5
15a
100
AcDbEntity
  8
Layer_1
 62
5
100
AcDbPolyline
 90
4
 70
0
 10
227.639120
 20
227.018408
 30
0.0
 10
227.639120
 20
225.273811
 30
0.0
 10
227.129250
 20
225.273811
 30
0.0
 10
227.129250
 20
227.120383
 30
0.0
  0
SPLINE
  5
15b
100
AcDbEntity
  8
Layer_1
 62
5
100
AcDbSpline
 70
0
 71
3
 72
19
 73
15
 74
13
 40
0.000000
 40
0.000000
 40
0.000000
 40
0.000000
 40
0.272187
 40
0.497912
 40
0.686794
 40
0.858753
 40
1.035611
 40
1.236696
 40
1.479791
 40
1.703680
 40
1.928615
 40
2.161688
 40
2.410674
 40
2.690501
 40
2.690501
 40
2.690501
 40
2.690501
 10
227.129250
 20
227.120383
 30
0.0
 10
227.126567
 20
227.211217
 30
0.0
 10
227.121659
 20
227.377379
 30
0.0
 10
227.071469
 20
227.602537
 30
0.0
 10
226.983982
 20
227.780330
 30
0.0
 10
226.853164
 20
227.908644
 30
0.0
 10
226.680945
 20
227.981746
 30
0.0
 10
226.473004
 20
228.001626
 30
0.0
 10
226.249385
 20
227.977349
 30
0.0
 10
226.033160
 20
227.886645
 30
0.0
 10
225.859727
 20
227.734269
 30
0.0
 10
225.730618
 20
227.533964
 30
0.0
 10
225.653058
 20
227.288543
 30
0.0
 10
225.645146
 20
227.111887
 30
0.0
 10
225.640960
 20
227.018408
 30
0.0
 11
227.129250
 21
227.120383
 31
0.0
 11
227.111794
 21
227.392009
 31
0.0
 11
227.059428
 21
227.611577
 31
0.0
 11
226.972150
 21
227.779085
 31
0.0
 11
226.848431
 21
227.898515
 31
0.0
 11
226.686741
 21
227.970173
 31
0.0
 11
226.487080
 21
227.994059
 31
0.0
 11
226.245769
 21
227.964661
 31
0.0
 11
226.039982
 21
227.876466
 31
0.0
 11
225.869720
 21
227.729475
 31
0.0
 11
225.742631
 21
227.534100
 31
0.0
 11
225.666378
 21
227.297078
 31
0.0
 11
225.640960
 21
227.018408
 31
0.0
  0
LWPOLYLINE
  5
15c
100
AcDbEntity
  8
Layer_1
 62
5
100
AcDbPolyline
 90
6
 70
0
 10
225.640960
 20
227.018408
 30
0.0
 10
225.640960
 20
225.273811
 30
0.0
 10
225.131090
 20
225.273811
 30
0.0
 10
225.131090
 20
228.360617
 30
0.0
 10
225.640960
 20
228.360617
 30
0.0
 10
225.640960
 20
227.881060
 30
0.0
  0
SPLINE
  5
15d
100
AcDbEntity
  8
Layer_1
 62
5
100
AcDbSpline
 70
0
 71
3
 72
19
 73
15
 74
13
 40
0.000000
 40
0.000000
 40
0.000000
 40
0.000000
 40
0.212276
 40
0.409110
 40
0.596414
 40
0.783880
 40
0.981093
 40
1.193839
 40
1.407514
 40
1.606031
 40
1.798571
 40
1.993460
 40
2.195841
 40
2.414488
 40
2.414488
 40
2.414488
 40
2.414488
 10
225.640960
 20
227.881060
 30
0.0
 10
225.680190
 20
227.940113
 30
0.0
 10
225.755798
 20
228.053923
 30
0.0
 10
225.897010
 20
228.195769
 30
0.0
 10
226.054063
 20
228.305525
 30
0.0
 10
226.230233
 20
228.381681
 30
0.0
 10
226.425334
 20
228.426085
 30
0.0
 10
226.633417
 20
228.440196
 30
0.0
 10
226.842188
 20
228.424049
 30
0.0
 10
227.037264
 20
228.366862
 30
0.0
 10
227.208594
 20
228.269525
 30
0.0
 10
227.354877
 20
228.136035
 30
0.0
 10
227.474618
 20
227.966721
 30
0.0
 10
227.526656
 20
227.835964
 30
0.0
 10
227.553680
 20
227.768060
 30
0.0
 11
225.640960
 21
227.881060
 31
0.0
 11
225.764374
 21
228.053774
 31
0.0
 11
225.903098
 21
228.193415
 31
0.0
 11
226.057130
 21
228.299983
 31
0.0
 11
226.228928
 21
228.375010
 31
0.0
 11
226.420934
 21
228.420026
 31
0.0
 11
226.633150
 21
228.435031
 31
0.0
 11
226.845980
 21
228.416045
 31
0.0
 11
227.036150
 21
228.359086
 31
0.0
 11
227.203660
 21
228.264154
 31
0.0
 11
227.347893
 21
228.133087
 31
0.0
 11
227.464567
 21
227.967722
 31
0.0
 11
227.553680
 21
227.768060
 31
0.0
  0
LWPOLYLINE
  5
15e
100
AcDbEntity
  8
Layer_1
 62
5
100
AcDbPolyline
 90
1
 70
1
 10
227.553680
 20
227.768060
 30
0.0
  0
SPLINE
  5
15f
100
AcDbEntity
  8
Layer_1
 62
5
100
AcDbSpline
 70
0
 71
3
 72
19
 73
15
 74
13
 40
0.000000
 40
0.000000
 40
0.000000
 40
0.000000
 40
0.247938
 40
0.474305
 40
0.685794
 40
0.893295
 40
1.107881
 40
1.337043
 40
1.636464
 40
1.909036
 40
2.183062
 40
2.477508
 40
2.808911
 40
3.193413
 40
3.193413
 40
3.193413
 40
3.193413
 10
233.054810
 20
227.768060
 30
0.0
 10
233.097583
 20
227.838949
 30
0.0
 10
233.179408
 20
227.974559
 30
0.0
 10
233.333322
 20
228.145578
 30
0.0
 10
233.504520
 20
228.277965
 30
0.0
 10
233.696228
 20
228.370181
 30
0.0
 10
233.907840
 20
228.424175
 30
0.0
 10
234.155678
 20
228.442795
 30
0.0
 10
234.424404
 20
228.414453
 30
0.0
 10
234.686980
 20
228.297414
 30
0.0
 10
234.892321
 20
228.099082
 30
0.0
 10
235.038751
 20
227.833308
 30
0.0
 10
235.125106
 20
227.504284
 30
0.0
 10
235.133755
 20
227.265283
 30
0.0
 10
235.138400
 20
227.136919
 30
0.0
 11
233.054810
 21
227.768060
 31
0.0
 11
233.189858
 21
227.975991
 31
0.0
 11
233.341441
 21
228.144112
 31
0.0
 11
233.509560
 21
228.272422
 31
0.0
 11
233.696364
 21
228.362760
 31
0.0
 11
233.903991
 21
228.416963
 31
0.0
 11
234.132440
 21
228.435031
 31
0.0
 11
234.429482
 21
228.397365
 31
0.0
 11
234.677529
 21
228.284366
 31
0.0
 11
234.876580
 21
228.096034
 31
0.0
 11
235.022036
 21
227.840025
 31
0.0
 11
235.109309
 21
227.520320
 31
0.0
 11
235.138400
 21
227.136919
 31
0.0
  0
LWPOLYLINE
  5
160
100
AcDbEntity
  8
Layer_1
 62
5
100
AcDbPolyline
 90
4
 70
0
 10
235.138400
 20
227.136919
 30
0.0
 10
235.138400
 20
225.273811
 30
0.0
 10
234.628530
 20
225.273811
 30
0.0
 10
234.628530
 20
227.120383
 30
0.0
  0
SPLINE
  5
161
100
AcDbEntity
  8
Layer_1
 62
5
100
AcDbSpline
 70
0
 71
3
 72
19
 73
15
 74
13
 40
0.000000
 40
0.000000
 40
0.000000
 40
0.000000
 40
0.270964
 40
0.496690
 40
0.686659
 40
0.858174
 40
1.033351
 40
1.231396
 40
1.477494
 40
1.702719
 40
1.927126
 40
2.160452
 40
2.410312
 40
2.691664
 40
2.691664
 40
2.691664
 40
2.691664
 10
234.628530
 20
227.120383
 30
0.0
 10
234.625846
 20
227.210819
 30
0.0
 10
234.620926
 20
227.376592
 30
0.0
 10
234.570445
 20
227.601561
 30
0.0
 10
234.483638
 20
227.779941
 30
0.0
 10
234.353342
 20
227.908229
 30
0.0
 10
234.183193
 20
227.981706
 30
0.0
 10
233.975758
 20
228.001606
 30
0.0
 10
233.751760
 20
227.977610
 30
0.0
 10
233.533732
 20
227.888266
 30
0.0
 10
233.358476
 20
227.737178
 30
0.0
 10
233.229866
 20
227.536130
 30
0.0
 10
233.152287
 20
227.289875
 30
0.0
 10
233.144418
 20
227.112404
 30
0.0
 10
233.140250
 20
227.018408
 30
0.0
 11
234.628530
 21
227.120383
 31
0.0
 11
234.611074
 21
227.390785
 31
0.0
 11
234.558708
 21
227.610352
 31
0.0
 11
234.471430
 21
227.779085
 31
0.0
 11
234.348329
 21
227.898515
 31
0.0
 11
234.188479
 21
227.970173
 31
0.0
 11
233.991880
 21
227.994059
 31
0.0
 11
233.747507
 21
227.964967
 31
0.0
 11
233.539880
 21
227.877691
 31
0.0
 11
233.369000
 21
227.732231
 31
0.0
 11
233.241917
 21
227.536550
 31
0.0
 11
233.165667
 21
227.298609
 31
0.0
 11
233.140250
 21
227.018408
 31
0.0
  0
LWPOLYLINE
  5
162
100
AcDbEntity
  8
Layer_1
 62
5
100
AcDbPolyline
 90
4
 70
0
 10
233.140250
 20
227.018408
 30
0.0
 10
233.140250
 20
225.273811
 30
0.0
 10
232.630370
 20
225.273811
 30
0.0
 10
232.630370
 20
227.120383
 30
0.0
  0
SPLINE
  5
163
100
AcDbEntity
  8
Layer_1
 62
5
100
AcDbSpline
 70
0
 71
3
 72
19
 73
15
 74
13
 40
0.000000
 40
0.000000
 40
0.000000
 40
0.000000
 40
0.272187
 40
0.497912
 40
0.686791
 40
0.858750
 40
1.035607
 40
1.236692
 40
1.479787
 40
1.703677
 40
1.928611
 40
2.161684
 40
2.410671
 40
2.690497
 40
2.690497
 40
2.690497
 40
2.690497
 10
232.630370
 20
227.120383
 30
0.0
 10
232.627687
 20
227.211217
 30
0.0
 10
232.622780
 20
227.377379
 30
0.0
 10
232.572592
 20
227.602536
 30
0.0
 10
232.485112
 20
227.780331
 30
0.0
 10
232.354294
 20
227.908644
 30
0.0
 10
232.182075
 20
227.981747
 30
0.0
 10
231.974134
 20
228.001626
 30
0.0
 10
231.750515
 20
227.977349
 30
0.0
 10
231.534290
 20
227.886645
 30
0.0
 10
231.360857
 20
227.734269
 30
0.0
 10
231.231748
 20
227.533964
 30
0.0
 10
231.154188
 20
227.288543
 30
0.0
 10
231.146276
 20
227.111887
 30
0.0
 10
231.142090
 20
227.018408
 30
0.0
 11
232.630370
 21
227.120383
 31
0.0
 11
232.612916
 21
227.392009
 31
0.0
 11
232.560552
 21
227.611577
 31
0.0
 11
232.473280
 21
227.779085
 31
0.0
 11
232.349561
 21
227.898515
 31
0.0
 11
232.187871
 21
227.970173
 31
0.0
 11
231.988210
 21
227.994059
 31
0.0
 11
231.746899
 21
227.964661
 31
0.0
 11
231.541112
 21
227.876466
 31
0.0
 11
231.370850
 21
227.729475
 31
0.0
 11
231.243761
 21
227.534100
 31
0.0
 11
231.167508
 21
227.297078
 31
0.0
 11
231.142090
 21
227.018408
 31
0.0
  0
LWPOLYLINE
  5
164
100
AcDbEntity
  8
Layer_1
 62
5
100
AcDbPolyline
 90
6
 70
0
 10
231.142090
 20
227.018408
 30
0.0
 10
231.142090
 20
225.273811
 30
0.0
 10
230.632220
 20
225.273811
 30
0.0
 10
230.632220
 20
228.360617
 30
0.0
 10
231.142090
 20
228.360617
 30
0.0
 10
231.142090
 20
227.881060
 30
0.0
  0
LWPOLYLINE
  5
165
100
AcDbEntity
  8
Layer_1
 62
5
100
AcDbPolyline
 90
1
 70
1
 10
233.054810
 20
227.768060
 30
0.0
  0
LWPOLYLINE
  5
166
100
AcDbEntity
  8
Layer_1
 62
5
100
AcDbPolyline
 90
2
 70
0
 10
0.137138
 20
221.646649
 30
0.0
 10
28.500000
 20
221.646649
 30
0.0
  0
LWPOLYLINE
  5
167
100
AcDbEntity
  8
Layer_1
 62
5
100
AcDbPolyline
 90
2
 70
0
 10
0.051822
 20
234.875815
 30
0.0
 10
0.051822
 20
213.230659
 30
0.0
  0
SPLINE
  5
168
100
AcDbEntity
  8
Layer_1
 62
5
100
AcDbSpline
 70
0
 71
3
 72
19
 73
15
 74
13
 40
0.000000
 40
0.000000
 40
0.000000
 40
0.000000
 40
0.212276
 40
0.409110
 40
0.596414
 40
0.783880
 40
0.981093
 40
1.193839
 40
1.407514
 40
1.606031
 40
1.798571
 40
1.993460
 40
2.195841
 40
2.414488
 40
2.414488
 40
2.414488
 40
2.414488
 10
231.142090
 20
227.881060
 30
0.0
 10
231.181320
 20
227.940113
 30
0.0
 10
231.256928
 20
228.053923
 30
0.0
 10
231.398140
 20
228.195769
 30
0.0
 10
231.555193
 20
228.305525
 30
0.0
 10
231.731363
 20
228.381681
 30
0.0
 10
231.926464
 20
228.426085
 30
0.0
 10
232.134547
 20
228.440196
 30
0.0
 10
232.343318
 20
228.424049
 30
0.0
 10
232.538394
 20
228.366862
 30
0.0
 10
232.709724
 20
228.269525
 30
0.0
 10
232.856007
 20
228.136035
 30
0.0
 10
232.975748
 20
227.966721
 30
0.0
 10
233.027786
 20
227.835964
 30
0.0
 10
233.054810
 20
227.768060
 30
0.0
 11
231.142090
 21
227.881060
 31
0.0
 11
231.265504
 21
228.053774
 31
0.0
 11
231.404228
 21
228.193415
 31
0.0
 11
231.558260
 21
228.299983
 31
0.0
 11
231.730058
 21
228.375010
 31
0.0
 11
231.922064
 21
228.420026
 31
0.0
 11
232.134280
 21
228.435031
 31
0.0
 11
232.347110
 21
228.416045
 31
0.0
 11
232.537280
 21
228.359086
 31
0.0
 11
232.704790
 21
228.264154
 31
0.0
 11
232.849023
 21
228.133087
 31
0.0
 11
232.965697
 21
227.967722
 31
0.0
 11
233.054810
 21
227.768060
 31
0.0
  0
LWPOLYLINE
  5
169
100
AcDbEntity
  8
Layer_1
 62
5
100
AcDbPolyline
 90
5
 70
0
 10
3.484166
 20
225.742344
 30
0.0
 10
5.427200
 20
225.742344
 30
0.0
 10
5.427200
 20
225.273811
 30
0.0
 10
2.814440
 20
225.273811
 30
0.0
 10
2.814440
 20
225.742344
 30
0.0
  0
SPLINE
  5
16a
100
AcDbEntity
  8
Layer_1
 62
5
100
AcDbSpline
 70
0
 71
3
 72
31
 73
27
 74
25
 40
0.000000
 40
0.000000
 40
0.000000
 40
0.000000
 40
0.339565
 40
0.750139
 40
1.231729
 40
1.688422
 40
2.019127
 40
2.223911
 40
2.472304
 40
2.681962
 40
2.854276
 40
3.005305
 40
3.146801
 40
3.282376
 40
3.489157
 40
3.683373
 40
3.881936
 40
4.085534
 40
4.296461
 40
4.528194
 40
4.706400
 40
4.893530
 40
5.091481
 40
5.301388
 40
5.527590
 40
5.771125
 40
5.771125
 40
5.771125
 40
5.771125
 10
2.814440
 20
225.742344
 30
0.0
 10
2.893272
 20
225.823567
 30
0.0
 10
3.067421
 20
226.002997
 30
0.0
 10
3.355139
 20
226.295902
 30
0.0
 10
3.671329
 20
226.615560
 30
0.0
 10
3.968419
 20
226.916664
 30
0.0
 10
4.198809
 20
227.153952
 30
0.0
 10
4.377122
 20
227.344995
 30
0.0
 10
4.520079
 20
227.513621
 30
0.0
 10
4.645906
 20
227.682148
 30
0.0
 10
4.738093
 20
227.834500
 30
0.0
 10
4.800302
 20
227.976941
 30
0.0
 10
4.837382
 20
228.115454
 30
0.0
 10
4.851370
 20
228.276773
 30
0.0
 10
4.830467
 20
228.456643
 30
0.0
 10
4.750695
 20
228.643289
 30
0.0
 10
4.618565
 20
228.795380
 30
0.0
 10
4.448195
 20
228.912416
 30
0.0
 10
4.241498
 20
228.981682
 30
0.0
 10
4.033832
 20
228.999393
 30
0.0
 10
3.834856
 20
228.987228
 30
0.0
 10
3.649335
 20
228.956301
 30
0.0
 10
3.457378
 20
228.905290
 30
0.0
 10
3.258636
 20
228.832773
 30
0.0
 10
3.051358
 20
228.740794
 30
0.0
 10
2.913482
 20
228.666483
 30
0.0
 10
2.842000
 20
228.627956
 30
0.0
 11
2.814440
 21
225.742344
 31
0.0
 11
3.051156
 21
225.985797
 31
0.0
 11
3.338707
 21
226.278860
 31
0.0
 11
3.677092
 21
226.621533
 31
0.0
 11
3.997409
 21
226.947056
 31
0.0
 11
4.227082
 21
227.184997
 31
0.0
 11
4.366111
 21
227.335356
 31
0.0
 11
4.526269
 21
227.525219
 31
0.0
 11
4.650293
 21
227.694259
 31
0.0
 11
4.738181
 21
227.842475
 31
0.0
 11
4.797896
 21
227.981197
 31
0.0
 11
4.833725
 21
228.118082
 31
0.0
 11
4.845668
 21
228.253130
 31
0.0
 11
4.819945
 21
228.458305
 31
0.0
 11
4.742774
 21
228.636531
 31
0.0
 11
4.614158
 21
228.787809
 31
0.0
 11
4.446037
 21
228.902645
 31
0.0
 11
4.246681
 21
228.971547
 31
0.0
 11
4.016089
 21
228.994514
 31
0.0
 11
3.838169
 21
228.984408
 31
0.0
 11
3.653512
 21
228.954092
 31
0.0
 11
3.462118
 21
228.903564
 31
0.0
 11
3.264599
 21
228.832519
 31
0.0
 11
3.057893
 21
228.740649
 31
0.0
 11
2.842000
 21
228.627956
 31
0.0
  0
LWPOLYLINE
  5
16b
100
AcDbEntity
  8
Layer_1
 62
5
100
AcDbPolyline
 90
2
 70
0
 10
2.842000
 20
228.627956
 30
0.0
 10
2.842000
 20
229.190196
 30
0.0
  0
SPLINE
  5
16c
100
AcDbEntity
  8
Layer_1
 62
5
100
AcDbSpline
 70
0
 71
3
 72
31
 73
27
 74
25
 40
0.000000
 40
0.000000
 40
0.000000
 40
0.000000
 40
0.234333
 40
0.454551
 40
0.661201
 40
0.854284
 40
1.033984
 40
1.201361
 40
1.600432
 40
1.956662
 40
2.290226
 40
2.607759
 40
2.919498
 40
3.254739
 40
3.421367
 40
3.585322
 40
3.749570
 40
3.928290
 40
4.140309
 40
4.387444
 40
4.505150
 40
4.717654
 40
5.024984
 40
5.426266
 40
5.923254
 40
6.515952
 40
6.515952
 40
6.515952
 40
6.515952
 10
2.842000
 20
229.190196
 30
0.0
 10
2.914825
 20
229.218480
 30
0.0
 10
3.056087
 20
229.273345
 30
0.0
 10
3.265885
 20
229.341274
 30
0.0
 10
3.465504
 20
229.395110
 30
0.0
 10
3.654860
 20
229.433809
 30
0.0
 10
3.833559
 20
229.457577
 30
0.0
 10
4.082225
 20
229.468525
 30
0.0
 10
4.390759
 20
229.443269
 30
0.0
 10
4.741784
 20
229.338209
 30
0.0
 10
5.030260
 20
229.158517
 30
0.0
 10
5.249438
 20
228.917373
 30
0.0
 10
5.380842
 20
228.618004
 30
0.0
 10
5.411801
 20
228.345031
 30
0.0
 10
5.398289
 20
228.123122
 30
0.0
 10
5.365850
 20
227.960817
 30
0.0
 10
5.310399
 20
227.800678
 30
0.0
 10
5.226449
 20
227.635199
 30
0.0
 10
5.108704
 20
227.457998
 30
0.0
 10
4.994793
 20
227.302536
 30
0.0
 10
4.863348
 20
227.161810
 30
0.0
 10
4.717195
 20
227.007594
 30
0.0
 10
4.504543
 20
226.786084
 30
0.0
 10
4.223768
 20
226.498582
 30
0.0
 10
3.876616
 20
226.142934
 30
0.0
 10
3.622424
 20
225.883470
 30
0.0
 10
3.484166
 20
225.742343
 30
0.0
 11
2.842000
 21
229.190196
 31
0.0
 11
3.061262
 21
229.272878
 31
0.0
 11
3.270723
 21
229.340862
 31
0.0
 11
3.470386
 21
229.394146
 31
0.0
 11
3.659636
 21
229.432424
 31
0.0
 11
3.837863
 21
229.455390
 31
0.0
 11
4.005065
 21
229.463046
 31
0.0
 11
4.402552
 21
229.427523
 31
0.0
 11
4.742468
 21
229.320955
 31
0.0
 11
5.024813
 21
229.143342
 31
0.0
 11
5.236112
 21
228.906319
 31
0.0
 11
5.362892
 21
228.621525
 31
0.0
 11
5.405151
 21
228.288958
 31
0.0
 11
5.394433
 21
228.122675
 31
0.0
 11
5.362279
 21
227.961904
 31
0.0
 11
5.308688
 21
227.806645
 31
0.0
 11
5.228762
 21
227.646792
 31
0.0
 11
5.113925
 21
227.468566
 31
0.0
 11
4.964179
 21
227.271966
 31
0.0
 11
4.884865
 21
227.184995
 31
0.0
 11
4.738793
 21
227.030654
 31
0.0
 11
4.525963
 21
226.808945
 31
0.0
 11
4.246068
 21
226.521394
 31
0.0
 11
3.898802
 21
226.165860
 31
0.0
 11
3.484166
 21
225.742343
 31
0.0
  0
LWPOLYLINE
  5
16d
100
AcDbEntity
  8
Layer_1
 62
5
100
AcDbPolyline
 90
1
 70
1
 10
3.484166
 20
225.742343
 30
0.0
  0
SPLINE
  5
16e
100
AcDbEntity
  8
Layer_1
 62
5
100
AcDbSpline
 70
0
 71
3
 72
31
 73
27
 74
25
 40
0.000000
 40
0.000000
 40
0.000000
 40
0.000000
 40
0.247031
 40
0.467245
 40
0.675101
 40
0.877885
 40
1.086709
 40
1.318360
 40
1.550010
 40
1.758834
 40
1.961618
 40
2.169474
 40
2.389688
 40
2.636719
 40
2.883750
 40
3.103964
 40
3.311819
 40
3.516514
 40
3.725671
 40
3.956137
 40
4.187822
 40
4.396979
 40
4.600715
 40
4.807562
 40
5.027777
 40
5.276027
 40
5.276027
 40
5.276027
 40
5.276027
 10
7.789158
 20
227.227870
 30
0.0
 10
7.706593
 20
227.224007
 30
0.0
 10
7.550426
 20
227.216700
 30
0.0
 10
7.334049
 20
227.144163
 30
0.0
 10
7.157600
 20
227.024681
 30
0.0
 10
7.027591
 20
226.859851
 30
0.0
 10
6.951278
 20
226.656195
 30
0.0
 10
6.930300
 20
226.431361
 30
0.0
 10
6.951278
 20
226.206540
 30
0.0
 10
7.027591
 20
226.002849
 30
0.0
 10
7.157600
 20
225.838143
 30
0.0
 10
7.334049
 20
225.718183
 30
0.0
 10
7.550425
 20
225.647622
 30
0.0
 10
7.789160
 20
225.628106
 30
0.0
 10
8.027880
 20
225.647631
 30
0.0
 10
8.244296
 20
225.718150
 30
0.0
 10
8.421144
 20
225.838621
 30
0.0
 10
8.551916
 20
226.003601
 30
0.0
 10
8.629501
 20
226.207185
 30
0.0
 10
8.650894
 20
226.431782
 30
0.0
 10
8.629563
 20
226.656313
 30
0.0
 10
8.552313
 20
226.860265
 30
0.0
 10
8.420770
 20
227.023786
 30
0.0
 10
8.245424
 20
227.144597
 30
0.0
 10
8.028647
 20
227.216735
 30
0.0
 10
7.872110
 20
227.224013
 30
0.0
 10
7.789158
 20
227.227870
 30
0.0
 11
7.789158
 21
227.227870
 31
0.0
 11
7.543254
 21
227.204290
 31
0.0
 11
7.334711
 21
227.133551
 31
0.0
 11
7.163528
 21
227.015652
 31
0.0
 11
7.037974
 21
226.856412
 31
0.0
 11
6.962641
 21
226.661649
 31
0.0
 11
6.937530
 21
226.431363
 31
0.0
 11
6.962641
 21
226.201078
 31
0.0
 11
7.037974
 21
226.006315
 31
0.0
 11
7.163528
 21
225.847075
 31
0.0
 11
7.334711
 21
225.729176
 31
0.0
 11
7.543254
 21
225.658437
 31
0.0
 11
7.789158
 21
225.634857
 31
0.0
 11
8.035061
 21
225.658437
 31
0.0
 11
8.243604
 21
225.729176
 31
0.0
 11
8.414787
 21
225.847075
 31
0.0
 11
8.541873
 21
226.007540
 31
0.0
 11
8.618124
 21
226.202303
 31
0.0
 11
8.643541
 21
226.431363
 31
0.0
 11
8.618124
 21
226.661649
 31
0.0
 11
8.541873
 21
226.856412
 31
0.0
 11
8.414787
 21
227.015652
 31
0.0
 11
8.244829
 21
227.133551
 31
0.0
 11
8.036286
 21
227.204290
 31
0.0
 11
7.789158
 21
227.227870
 31
0.0
  0
SPLINE
  5
16f
100
AcDbEntity
  8
Layer_1
 62
5
100
AcDbSpline
 70
0
 71
3
 72
31
 73
27
 74
25
 40
0.000000
 40
0.000000
 40
0.000000
 40
0.000000
 40
0.234167
 40
0.451278
 40
0.661789
 40
0.869017
 40
1.079060
 40
1.303389
 40
1.611775
 40
1.896745
 40
2.185939
 40
2.494221
 40
2.829658
 40
3.210107
 40
3.591776
 40
3.927213
 40
4.234447
 40
4.523641
 40
4.808610
 40
5.116997
 40
5.341356
 40
5.551691
 40
5.759737
 40
5.968928
 40
6.184463
 40
6.416894
 40
6.416894
 40
6.416894
 40
6.416894
 10
7.232430
 20
227.464892
 30
0.0
 10
7.157345
 20
227.487138
 30
0.0
 10
7.012645
 20
227.530009
 30
0.0
 10
6.821410
 20
227.644696
 30
0.0
 10
6.666917
 20
227.791949
 30
0.0
 10
6.554552
 20
227.971096
 30
0.0
 10
6.487392
 20
228.176346
 30
0.0
 10
6.465737
 20
228.424396
 30
0.0
 10
6.496615
 20
228.698522
 30
0.0
 10
6.617498
 20
228.972356
 30
0.0
 10
6.820441
 20
229.191971
 30
0.0
 10
7.091504
 20
229.352136
 30
0.0
 10
7.422987
 20
229.445985
 30
0.0
 10
7.789574
 20
229.472112
 30
0.0
 10
8.156109
 20
229.446019
 30
0.0
 10
8.487844
 20
229.352478
 30
0.0
 10
8.758020
 20
229.191552
 30
0.0
 10
8.960847
 20
228.972396
 30
0.0
 10
9.081669
 20
228.698513
 30
0.0
 10
9.112666
 20
228.424379
 30
0.0
 10
9.090695
 20
228.176252
 30
0.0
 10
9.022684
 20
227.970704
 30
0.0
 10
8.908472
 20
227.793006
 30
0.0
 10
8.756301
 20
227.644619
 30
0.0
 10
8.566623
 20
227.530049
 30
0.0
 10
8.423106
 20
227.487150
 30
0.0
 10
8.348641
 20
227.464892
 30
0.0
 11
7.232430
 21
227.464892
 31
0.0
 11
7.011025
 21
227.541144
 31
0.0
 11
6.824531
 21
227.652305
 31
0.0
 11
6.672947
 21
227.798377
 31
0.0
 11
6.562703
 21
227.973847
 31
0.0
 11
6.496558
 21
228.173204
 31
0.0
 11
6.474509
 21
228.396446
 31
0.0
 11
6.513400
 21
228.702371
 31
0.0
 11
6.630074
 21
228.962361
 31
0.0
 11
6.824531
 21
229.176416
 31
0.0
 11
7.088502
 21
229.335655
 31
0.0
 11
7.410044
 21
229.431199
 31
0.0
 11
7.789158
 21
229.463047
 31
0.0
 11
8.169496
 21
229.431199
 31
0.0
 11
8.491038
 21
229.335655
 31
0.0
 11
8.753784
 21
229.176416
 31
0.0
 11
8.948241
 21
228.962361
 31
0.0
 11
9.064915
 21
228.702371
 31
0.0
 11
9.103806
 21
228.396446
 31
0.0
 11
9.081451
 21
228.173204
 31
0.0
 11
9.014387
 21
227.973847
 31
0.0
 11
8.902612
 21
227.798377
 31
0.0
 11
8.752865
 21
227.652305
 31
0.0
 11
8.568208
 21
227.541144
 31
0.0
 11
8.348641
 21
227.464892
 31
0.0
  0
LWPOLYLINE
  5
170
100
AcDbEntity
  8
Layer_1
 62
5
100
AcDbPolyline
 90
1
 70
1
 10
7.789158
 20
227.227870
 30
0.0
  0
SPLINE
  5
171
100
AcDbEntity
  8
Layer_1
 62
5
100
AcDbSpline
 70
0
 71
3
 72
31
 73
27
 74
25
 40
0.000000
 40
0.000000
 40
0.000000
 40
0.000000
 40
0.261659
 40
0.503360
 40
0.737269
 40
0.969509
 40
1.204249
 40
1.454782
 40
1.824813
 40
2.154236
 40
2.472102
 40
2.801787
 40
3.165915
 40
3.586037
 40
4.006464
 40
4.371470
 40
4.702447
 40
5.019334
 40
5.348417
 40
5.718414
 40
5.968948
 40
6.203688
 40
6.435928
 40
6.670944
 40
6.913439
 40
7.175388
 40
7.175388
 40
7.175388
 40
7.175388
 10
8.348641
 20
227.464892
 30
0.0
 10
8.432825
 20
227.441043
 30
0.0
 10
8.594773
 20
227.395164
 30
0.0
 10
8.809210
 20
227.269258
 30
0.0
 10
8.980860
 20
227.104585
 30
0.0
 10
9.109054
 20
226.906522
 30
0.0
 10
9.185793
 20
226.677236
 30
0.0
 10
9.209880
 20
226.391505
 30
0.0
 10
9.177967
 20
226.073558
 30
0.0
 10
9.055117
 20
225.751854
 30
0.0
 10
8.841757
 20
225.498014
 30
0.0
 10
8.551908
 20
225.316239
 30
0.0
 10
8.191401
 20
225.212431
 30
0.0
 10
7.789072
 20
225.183955
 30
0.0
 10
7.386354
 20
225.212425
 30
0.0
 10
7.025289
 20
225.316544
 30
0.0
 10
6.733944
 20
225.497032
 30
0.0
 10
6.522016
 20
225.752280
 30
0.0
 10
6.400144
 20
226.073682
 30
0.0
 10
6.368478
 20
226.391511
 30
0.0
 10
6.392497
 20
226.677253
 30
0.0
 10
6.469323
 20
226.906461
 30
0.0
 10
6.597432
 20
227.105124
 30
0.0
 10
6.770731
 20
227.269063
 30
0.0
 10
6.985830
 20
227.395077
 30
0.0
 10
7.148143
 20
227.441030
 30
0.0
 10
7.232430
 20
227.464892
 30
0.0
 11
8.348641
 21
227.464892
 31
0.0
 11
8.596994
 21
227.382514
 31
0.0
 11
8.805537
 21
227.260328
 31
0.0
 11
8.974270
 21
227.098334
 31
0.0
 11
9.099825
 21
226.902959
 31
0.0
 11
9.175158
 21
226.680635
 31
0.0
 11
9.200269
 21
226.431363
 31
0.0
 11
9.159540
 21
226.063580
 31
0.0
 11
9.037354
 21
225.757656
 31
0.0
 11
8.833710
 21
225.513590
 31
0.0
 11
8.555959
 21
225.335976
 31
0.0
 11
8.207775
 21
225.229408
 31
0.0
 11
7.789158
 21
225.193885
 31
0.0
 11
7.370234
 21
225.229408
 31
0.0
 11
7.021131
 21
225.335976
 31
0.0
 11
6.741848
 21
225.513590
 31
0.0
 11
6.539736
 21
225.757656
 31
0.0
 11
6.418469
 21
226.063580
 31
0.0
 11
6.378046
 21
226.431363
 31
0.0
 11
6.403157
 21
226.680635
 31
0.0
 11
6.478490
 21
226.902959
 31
0.0
 11
6.604045
 21
227.098334
 31
0.0
 11
6.774309
 21
227.260330
 31
0.0
 11
6.983771
 21
227.382516
 31
0.0
 11
7.232430
 21
227.464892
 31
0.0
  0
LWPOLYLINE
  5
172
100
AcDbEntity
  8
Layer_1
 62
5
100
AcDbPolyline
 90
1
 70
1
 10
7.232430
 20
227.464892
 30
0.0
  0
LWPOLYLINE
  5
173
100
AcDbEntity
  8
Layer_1
 62
5
100
AcDbPolyline
 90
1
 70
1
 10
7.028480
 20
228.344080
 30
0.0
  0
LWPOLYLINE
  5
174
100
AcDbEntity
  8
Layer_1
 62
5
100
AcDbPolyline
 90
4
 70
1
 10
10.192456
 20
225.973855
 30
0.0
 10
10.773988
 20
225.973855
 30
0.0
 10
10.773988
 20
225.273811
 30
0.0
 10
10.192456
 20
225.273811
 30
0.0
  0
SPLINE
  5
175
100
AcDbEntity
  8
Layer_1
 62
5
100
AcDbSpline
 70
0
 71
3
 72
31
 73
27
 74
25
 40
0.000000
 40
0.000000
 40
0.000000
 40
0.000000
 40
0.198745
 40
0.377701
 40
0.552033
 40
0.733625
 40
0.930322
 40
1.154145
 40
1.376443
 40
1.572264
 40
1.753601
 40
1.929885
 40
2.109528
 40
2.308342
 40
2.507157
 40
2.686800
 40
2.863084
 40
3.044421
 40
3.240242
 40
3.462540
 40
3.686363
 40
3.883060
 40
4.064652
 40
4.238984
 40
4.417940
 40
4.616686
 40
4.616686
 40
4.616686
 40
4.616686
 10
7.028480
 20
228.344080
 30
0.0
 10
7.032103
 20
228.277584
 30
0.0
 10
7.038989
 20
228.151213
 30
0.0
 10
7.108064
 20
227.976911
 30
0.0
 10
7.222387
 20
227.836513
 30
0.0
 10
7.379869
 20
227.735544
 30
0.0
 10
7.573859
 20
227.676663
 30
0.0
 10
7.788664
 20
227.660443
 30
0.0
 10
8.003084
 20
227.676725
 30
0.0
 10
8.196389
 20
227.735520
 30
0.0
 10
8.353067
 20
227.837515
 30
0.0
 10
8.470947
 20
227.976174
 30
0.0
 10
8.540160
 20
228.150933
 30
0.0
 10
8.559121
 20
228.344080
 30
0.0
 10
8.540160
 20
228.537227
 30
0.0
 10
8.470947
 20
228.711987
 30
0.0
 10
8.353067
 20
228.850646
 30
0.0
 10
8.196389
 20
228.952641
 30
0.0
 10
8.003084
 20
229.011436
 30
0.0
 10
7.788664
 20
229.027718
 30
0.0
 10
7.573859
 20
229.011498
 30
0.0
 10
7.379869
 20
228.952617
 30
0.0
 10
7.222387
 20
228.851648
 30
0.0
 10
7.108064
 20
228.711250
 30
0.0
 10
7.038989
 20
228.536947
 30
0.0
 10
7.032103
 20
228.410576
 30
0.0
 10
7.028480
 20
228.344080
 30
0.0
 11
7.028480
 21
228.344080
 31
0.0
 11
7.050529
 21
228.146562
 31
0.0
 11
7.116675
 21
227.980279
 31
0.0
 11
7.226918
 21
227.845231
 31
0.0
 11
7.378808
 21
227.745706
 31
0.0
 11
7.566222
 21
227.685991
 31
0.0
 11
7.789158
 21
227.666086
 31
0.0
 11
8.010562
 21
227.685991
 31
0.0
 11
8.197057
 21
227.745706
 31
0.0
 11
8.348641
 21
227.845231
 31
0.0
 11
8.461946
 21
227.980279
 31
0.0
 11
8.529930
 21
228.146562
 31
0.0
 11
8.552591
 21
228.344080
 31
0.0
 11
8.529930
 21
228.541599
 31
0.0
 11
8.461946
 21
228.707882
 31
0.0
 11
8.348641
 21
228.842930
 31
0.0
 11
8.197057
 21
228.942455
 31
0.0
 11
8.010562
 21
229.002170
 31
0.0
 11
7.789158
 21
229.022075
 31
0.0
 11
7.566222
 21
229.002170
 31
0.0
 11
7.378808
 21
228.942455
 31
0.0
 11
7.226918
 21
228.842930
 31
0.0
 11
7.116675
 21
228.707882
 31
0.0
 11
7.050529
 21
228.541599
 31
0.0
 11
7.028480
 21
228.344080
 31
0.0
  0
LWPOLYLINE
  5
176
100
AcDbEntity
  8
Layer_1
 62
5
100
AcDbPolyline
 90
5
 70
0
 10
11.994930
 20
229.388633
 30
0.0
 10
14.180499
 20
229.388633
 30
0.0
 10
14.180499
 20
228.920100
 30
0.0
 10
12.504804
 20
228.920100
 30
0.0
 10
12.504804
 20
227.911376
 30
0.0
  0
SPLINE
  5
177
100
AcDbEntity
  8
Layer_1
 62
5
100
AcDbSpline
 70
0
 71
3
 72
31
 73
27
 74
25
 40
0.000000
 40
0.000000
 40
0.000000
 40
0.000000
 40
0.084655
 40
0.167987
 40
0.250269
 40
0.332037
 40
0.413215
 40
0.494098
 40
0.923650
 40
1.308608
 40
1.674759
 40
2.034167
 40
2.400444
 40
2.803177
 40
3.215785
 40
3.586833
 40
3.948188
 40
4.321834
 40
4.729197
 40
5.194921
 40
5.368929
 40
5.545929
 40
5.726438
 40
5.910040
 40
6.099890
 40
6.296371
 40
6.296371
 40
6.296371
 40
6.296371
 10
12.504804
 20
227.911376
 30
0.0
 10
12.531660
 20
227.920055
 30
0.0
 10
12.584952
 20
227.937279
 30
0.0
 10
12.665975
 20
227.957492
 30
0.0
 10
12.747118
 20
227.972276
 30
0.0
 10
12.827865
 20
227.985146
 30
0.0
 10
12.908892
 20
227.992471
 30
0.0
 10
13.106052
 20
227.997535
 30
0.0
 10
13.405802
 20
227.970680
 30
0.0
 10
13.783548
 20
227.845416
 30
0.0
 10
14.091619
 20
227.630899
 30
0.0
 10
14.322363
 20
227.342444
 30
0.0
 10
14.458884
 20
226.985931
 30
0.0
 10
14.496750
 20
226.590689
 30
0.0
 10
14.458631
 20
226.193712
 30
0.0
 10
14.318732
 20
225.832297
 30
0.0
 10
14.079922
 20
225.543072
 30
0.0
 10
13.754046
 20
225.335363
 30
0.0
 10
13.351786
 20
225.215408
 30
0.0
 10
13.001588
 20
225.189518
 30
0.0
 10
12.729423
 20
225.197212
 30
0.0
 10
12.552771
 20
225.212067
 30
0.0
 10
12.373982
 20
225.236533
 30
0.0
 10
12.192586
 20
225.271414
 30
0.0
 10
12.007646
 20
225.315259
 30
0.0
 10
11.884120
 20
225.351727
 30
0.0
 10
11.821297
 20
225.370274
 30
0.0
 11
12.504804
 21
227.911376
 31
0.0
 11
12.585649
 21
227.936486
 31
0.0
 11
12.666494
 21
227.956696
 31
0.0
 11
12.747339
 21
227.972006
 31
0.0
 11
12.828184
 21
227.984256
 31
0.0
 11
12.909029
 21
227.991606
 31
0.0
 11
12.989874
 21
227.994056
 31
0.0
 11
13.417372
 21
227.952102
 31
0.0
 11
13.781174
 21
227.826241
 31
0.0
 11
14.081280
 21
227.616473
 31
0.0
 11
14.304828
 21
227.335047
 31
0.0
 11
14.438957
 21
226.994213
 31
0.0
 11
14.483667
 21
226.593969
 31
0.0
 11
14.437732
 21
226.183926
 31
0.0
 11
14.299928
 21
225.839417
 31
0.0
 11
14.070255
 21
225.560440
 31
0.0
 11
13.756981
 21
225.356797
 31
0.0
 11
13.368375
 21
225.234611
 31
0.0
 11
12.904435
 21
225.193882
 31
0.0
 11
12.730496
 21
225.198782
 31
0.0
 11
12.554107
 21
225.213482
 31
0.0
 11
12.375269
 21
225.237982
 31
0.0
 11
12.194899
 21
225.272281
 31
0.0
 11
12.010241
 21
225.316378
 31
0.0
 11
11.821297
 21
225.370274
 31
0.0
  0
LWPOLYLINE
  5
178
100
AcDbEntity
  8
Layer_1
 62
5
100
AcDbPolyline
 90
2
 70
0
 10
11.821297
 20
225.370274
 30
0.0
 10
11.821297
 20
225.929758
 30
0.0
  0
SPLINE
  5
179
100
AcDbEntity
  8
Layer_1
 62
5
100
AcDbSpline
 70
0
 71
3
 72
31
 73
27
 74
25
 40
0.000000
 40
0.000000
 40
0.000000
 40
0.000000
 40
0.186393
 40
0.369959
 40
0.552021
 40
0.735497
 40
0.923291
 40
1.116662
 40
1.413790
 40
1.679032
 40
1.929076
 40
2.171820
 40
2.416975
 40
2.685489
 40
2.954003
 40
3.199158
 40
3.441902
 40
3.691947
 40
3.957188
 40
4.254316
 40
4.403247
 40
4.552991
 40
4.704350
 40
4.857661
 40
5.016868
 40
5.182703
 40
5.182703
 40
5.182703
 40
5.182703
 10
11.821297
 20
225.929758
 30
0.0
 10
11.876568
 20
225.901301
 30
0.0
 10
11.986271
 20
225.844817
 30
0.0
 10
12.158129
 20
225.778150
 30
0.0
 10
12.333717
 20
225.725828
 30
0.0
 10
12.514697
 20
225.688977
 30
0.0
 10
12.701868
 20
225.667249
 30
0.0
 10
12.927889
 20
225.658010
 30
0.0
 10
13.180667
 20
225.677361
 30
0.0
 10
13.441519
 20
225.760798
 30
0.0
 10
13.654666
 20
225.902628
 30
0.0
 10
13.814805
 20
226.094345
 30
0.0
 10
13.909688
 20
226.332232
 30
0.0
 10
13.935958
 20
226.593968
 30
0.0
 10
13.909688
 20
226.855703
 30
0.0
 10
13.814805
 20
227.093594
 30
0.0
 10
13.654666
 20
227.285298
 30
0.0
 10
13.441518
 20
227.427179
 30
0.0
 10
13.180673
 20
227.510405
 30
0.0
 10
12.942733
 20
227.529353
 30
0.0
 10
12.744189
 20
227.521808
 30
0.0
 10
12.594963
 20
227.505151
 30
0.0
 10
12.445846
 20
227.477730
 30
0.0
 10
12.296336
 20
227.437794
 30
0.0
 10
12.145177
 20
227.386514
 30
0.0
 10
12.045689
 20
227.343512
 30
0.0
 10
11.994930
 20
227.321572
 30
0.0
 11
11.821297
 21
225.929758
 31
0.0
 11
11.988499
 21
225.847382
 31
0.0
 11
12.159376
 21
225.780317
 31
0.0
 11
12.333927
 21
225.728564
 31
0.0
 11
12.513685
 21
225.691814
 31
0.0
 11
12.700179
 21
225.669764
 31
0.0
 11
12.893411
 21
225.662414
 31
0.0
 11
13.189230
 21
225.690281
 31
0.0
 11
13.440951
 21
225.773882
 31
0.0
 11
13.648576
 21
225.913217
 31
0.0
 11
13.803223
 21
226.100324
 31
0.0
 11
13.896011
 21
226.327241
 31
0.0
 11
13.926940
 21
226.593968
 31
0.0
 11
13.896011
 21
226.860695
 31
0.0
 11
13.803223
 21
227.087612
 31
0.0
 11
13.648576
 21
227.274719
 31
0.0
 11
13.440951
 21
227.414054
 31
0.0
 11
13.189230
 21
227.497655
 31
0.0
 11
12.893411
 21
227.525522
 31
0.0
 11
12.744583
 21
227.520010
 31
0.0
 11
12.595755
 21
227.503473
 31
0.0
 11
12.446926
 21
227.475912
 31
0.0
 11
12.298710
 21
227.436714
 31
0.0
 11
12.148045
 21
227.385268
 31
0.0
 11
11.994930
 21
227.321572
 31
0.0
  0
LWPOLYLINE
  5
17a
100
AcDbEntity
  8
Layer_1
 62
5
100
AcDbPolyline
 90
2
 70
0
 10
11.994930
 20
227.321572
 30
0.0
 10
11.994930
 20
229.388633
 30
0.0
  0
SPLINE
  5
17b
100
AcDbEntity
  8
Layer_1
 62
5
100
AcDbSpline
 70
0
 71
3
 72
19
 73
15
 74
13
 40
0.000000
 40
0.000000
 40
0.000000
 40
0.000000
 40
0.247938
 40
0.474306
 40
0.685796
 40
0.893294
 40
1.107877
 40
1.337039
 40
1.636461
 40
1.909034
 40
2.183059
 40
2.477506
 40
2.808910
 40
3.193413
 40
3.193413
 40
3.193413
 40
3.193413
 10
17.914982
 20
227.768060
 30
0.0
 10
17.957755
 20
227.838949
 30
0.0
 10
18.039580
 20
227.974560
 30
0.0
 10
18.193495
 20
228.145579
 30
0.0
 10
18.364694
 20
228.277963
 30
0.0
 10
18.556399
 20
228.370182
 30
0.0
 10
18.768009
 20
228.424175
 30
0.0
 10
19.015847
 20
228.442795
 30
0.0
 10
19.284573
 20
228.414453
 30
0.0
 10
19.547150
 20
228.297414
 30
0.0
 10
19.752490
 20
228.099081
 30
0.0
 10
19.898924
 20
227.833309
 30
0.0
 10
19.985282
 20
227.504285
 30
0.0
 10
19.993931
 20
227.265283
 30
0.0
 10
19.998576
 20
227.136919
 30
0.0
 11
17.914982
 21
227.768060
 31
0.0
 11
18.050030
 21
227.975991
 31
0.0
 11
18.201614
 21
228.144112
 31
0.0
 11
18.369735
 21
228.272422
 31
0.0
 11
18.556536
 21
228.362760
 31
0.0
 11
18.764160
 21
228.416963
 31
0.0
 11
18.992608
 21
228.435031
 31
0.0
 11
19.289652
 21
228.397365
 31
0.0
 11
19.537699
 21
228.284366
 31
0.0
 11
19.736749
 21
228.096034
 31
0.0
 11
19.882208
 21
227.840025
 31
0.0
 11
19.969484
 21
227.520320
 31
0.0
 11
19.998576
 21
227.136919
 31
0.0
  0
LWPOLYLINE
  5
17c
100
AcDbEntity
  8
Layer_1
 62
5
100
AcDbPolyline
 90
4
 70
0
 10
19.998576
 20
227.136919
 30
0.0
 10
19.998576
 20
225.273811
 30
0.0
 10
19.488702
 20
225.273811
 30
0.0
 10
19.488702
 20
227.120383
 30
0.0
  0
SPLINE
  5
17d
100
AcDbEntity
  8
Layer_1
 62
5
100
AcDbSpline
 70
0
 71
3
 72
19
 73
15
 74
13
 40
0.000000
 40
0.000000
 40
0.000000
 40
0.000000
 40
0.270964
 40
0.496690
 40
0.686658
 40
0.858176
 40
1.033355
 40
1.231400
 40
1.477498
 40
1.702720
 40
1.927125
 40
2.160453
 40
2.410313
 40
2.691664
 40
2.691664
 40
2.691664
 40
2.691664
 10
19.488702
 20
227.120383
 30
0.0
 10
19.486018
 20
227.210819
 30
0.0
 10
19.481098
 20
227.376592
 30
0.0
 10
19.430618
 20
227.601560
 30
0.0
 10
19.343814
 20
227.779943
 30
0.0
 10
19.213513
 20
227.908228
 30
0.0
 10
19.043363
 20
227.981706
 30
0.0
 10
18.835927
 20
228.001606
 30
0.0
 10
18.611930
 20
227.977610
 30
0.0
 10
18.393903
 20
227.888267
 30
0.0
 10
18.218651
 20
227.737176
 30
0.0
 10
18.090038
 20
227.536131
 30
0.0
 10
18.012457
 20
227.289875
 30
0.0
 10
18.004588
 20
227.112404
 30
0.0
 10
18.000420
 20
227.018408
 30
0.0
 11
19.488702
 21
227.120383
 31
0.0
 11
19.471247
 21
227.390785
 31
0.0
 11
19.418881
 21
227.610352
 31
0.0
 11
19.331605
 21
227.779085
 31
0.0
 11
19.208500
 21
227.898515
 31
0.0
 11
19.048648
 21
227.970173
 31
0.0
 11
18.852048
 21
227.994059
 31
0.0
 11
18.607676
 21
227.964967
 31
0.0
 11
18.400052
 21
227.877691
 31
0.0
 11
18.229175
 21
227.732231
 31
0.0
 11
18.102089
 21
227.536550
 31
0.0
 11
18.025837
 21
227.298609
 31
0.0
 11
18.000420
 21
227.018408
 31
0.0
  0
LWPOLYLINE
  5
17e
100
AcDbEntity
  8
Layer_1
 62
5
100
AcDbPolyline
 90
4
 70
0
 10
18.000420
 20
227.018408
 30
0.0
 10
18.000420
 20
225.273811
 30
0.0
 10
17.490546
 20
225.273811
 30
0.0
 10
17.490546
 20
227.120383
 30
0.0
  0
SPLINE
  5
17f
100
AcDbEntity
  8
Layer_1
 62
5
100
AcDbSpline
 70
0
 71
3
 72
19
 73
15
 74
13
 40
0.000000
 40
0.000000
 40
0.000000
 40
0.000000
 40
0.272187
 40
0.497912
 40
0.686793
 40
0.858751
 40
1.035608
 40
1.236695
 40
1.479788
 40
1.703678
 40
1.928614
 40
2.161686
 40
2.410671
 40
2.690498
 40
2.690498
 40
2.690498
 40
2.690498
 10
17.490546
 20
227.120383
 30
0.0
 10
17.487863
 20
227.211217
 30
0.0
 10
17.482956
 20
227.377379
 30
0.0
 10
17.432766
 20
227.602537
 30
0.0
 10
17.345282
 20
227.780329
 30
0.0
 10
17.214466
 20
227.908645
 30
0.0
 10
17.042246
 20
227.981747
 30
0.0
 10
16.834305
 20
228.001626
 30
0.0
 10
16.610686
 20
227.977349
 30
0.0
 10
16.394461
 20
227.886644
 30
0.0
 10
16.221026
 20
227.734271
 30
0.0
 10
16.091920
 20
227.533963
 30
0.0
 10
16.014362
 20
227.288542
 30
0.0
 10
16.006451
 20
227.111887
 30
0.0
 10
16.002265
 20
227.018408
 30
0.0
 11
17.490546
 21
227.120383
 31
0.0
 11
17.473091
 21
227.392009
 31
0.0
 11
17.420726
 21
227.611577
 31
0.0
 11
17.333450
 21
227.779085
 31
0.0
 11
17.209733
 21
227.898515
 31
0.0
 11
17.048043
 21
227.970173
 31
0.0
 11
16.848380
 21
227.994059
 31
0.0
 11
16.607071
 21
227.964661
 31
0.0
 11
16.401284
 21
227.876466
 31
0.0
 11
16.231019
 21
227.729475
 31
0.0
 11
16.103933
 21
227.534100
 31
0.0
 11
16.027682
 21
227.297078
 31
0.0
 11
16.002265
 21
227.018408
 31
0.0
  0
LWPOLYLINE
  5
180
100
AcDbEntity
  8
Layer_1
 62
5
100
AcDbPolyline
 90
6
 70
0
 10
16.002265
 20
227.018408
 30
0.0
 10
16.002265
 20
225.273811
 30
0.0
 10
15.492391
 20
225.273811
 30
0.0
 10
15.492391
 20
228.360617
 30
0.0
 10
16.002265
 20
228.360617
 30
0.0
 10
16.002265
 20
227.881060
 30
0.0
  0
SPLINE
  5
181
100
AcDbEntity
  8
Layer_1
 62
5
100
AcDbSpline
 70
0
 71
3
 72
19
 73
15
 74
13
 40
0.000000
 40
0.000000
 40
0.000000
 40
0.000000
 40
0.212274
 40
0.409108
 40
0.596414
 40
0.783877
 40
0.981090
 40
1.193837
 40
1.407513
 40
1.606029
 40
1.798568
 40
1.993458
 40
2.195839
 40
2.414486
 40
2.414486
 40
2.414486
 40
2.414486
 10
16.002265
 20
227.881060
 30
0.0
 10
16.041494
 20
227.940113
 30
0.0
 10
16.117099
 20
228.053924
 30
0.0
 10
16.258311
 20
228.195770
 30
0.0
 10
16.415365
 20
228.305524
 30
0.0
 10
16.591534
 20
228.381682
 30
0.0
 10
16.786635
 20
228.426085
 30
0.0
 10
16.994719
 20
228.440196
 30
0.0
 10
17.203491
 20
228.424049
 30
0.0
 10
17.398565
 20
228.366862
 30
0.0
 10
17.569894
 20
228.269524
 30
0.0
 10
17.716178
 20
228.136036
 30
0.0
 10
17.835920
 20
227.966721
 30
0.0
 10
17.887958
 20
227.835964
 30
0.0
 10
17.914982
 20
227.768060
 30
0.0
 11
16.002265
 21
227.881060
 31
0.0
 11
16.125676
 21
228.053774
 31
0.0
 11
16.264399
 21
228.193415
 31
0.0
 11
16.418433
 21
228.299983
 31
0.0
 11
16.590228
 21
228.375010
 31
0.0
 11
16.782234
 21
228.420026
 31
0.0
 11
16.994452
 21
228.435031
 31
0.0
 11
17.207283
 21
228.416045
 31
0.0
 11
17.397452
 21
228.359086
 31
0.0
 11
17.564960
 21
228.264154
 31
0.0
 11
17.709195
 21
228.133087
 31
0.0
 11
17.825869
 21
227.967722
 31
0.0
 11
17.914982
 21
227.768060
 31
0.0
  0
LWPOLYLINE
  5
182
100
AcDbEntity
  8
Layer_1
 62
5
100
AcDbPolyline
 90
1
 70
1
 10
17.914982
 20
227.768060
 30
0.0
  0
SPLINE
  5
183
100
AcDbEntity
  8
Layer_1
 62
5
100
AcDbSpline
 70
0
 71
3
 72
19
 73
15
 74
13
 40
0.000000
 40
0.000000
 40
0.000000
 40
0.000000
 40
0.247938
 40
0.474306
 40
0.685796
 40
0.893294
 40
1.107877
 40
1.337039
 40
1.636461
 40
1.909034
 40
2.183059
 40
2.477506
 40
2.808910
 40
3.193413
 40
3.193413
 40
3.193413
 40
3.193413
 10
23.416110
 20
227.768060
 30
0.0
 10
23.458883
 20
227.838949
 30
0.0
 10
23.540708
 20
227.974560
 30
0.0
 10
23.694623
 20
228.145579
 30
0.0
 10
23.865822
 20
228.277963
 30
0.0
 10
24.057527
 20
228.370182
 30
0.0
 10
24.269137
 20
228.424175
 30
0.0
 10
24.516975
 20
228.442795
 30
0.0
 10
24.785701
 20
228.414453
 30
0.0
 10
25.048278
 20
228.297414
 30
0.0
 10
25.253618
 20
228.099081
 30
0.0
 10
25.400052
 20
227.833309
 30
0.0
 10
25.486410
 20
227.504285
 30
0.0
 10
25.495059
 20
227.265283
 30
0.0
 10
25.499704
 20
227.136919
 30
0.0
 11
23.416110
 21
227.768060
 31
0.0
 11
23.551158
 21
227.975991
 31
0.0
 11
23.702742
 21
228.144112
 31
0.0
 11
23.870863
 21
228.272422
 31
0.0
 11
24.057664
 21
228.362760
 31
0.0
 11
24.265288
 21
228.416963
 31
0.0
 11
24.493736
 21
228.435031
 31
0.0
 11
24.790780
 21
228.397365
 31
0.0
 11
25.038827
 21
228.284366
 31
0.0
 11
25.237877
 21
228.096034
 31
0.0
 11
25.383336
 21
227.840025
 31
0.0
 11
25.470612
 21
227.520320
 31
0.0
 11
25.499704
 21
227.136919
 31
0.0
  0
LWPOLYLINE
  5
184
100
AcDbEntity
  8
Layer_1
 62
5
100
AcDbPolyline
 90
4
 70
0
 10
25.499704
 20
227.136919
 30
0.0
 10
25.499704
 20
225.273811
 30
0.0
 10
24.989830
 20
225.273811
 30
0.0
 10
24.989830
 20
227.120383
 30
0.0
  0
SPLINE
  5
185
100
AcDbEntity
  8
Layer_1
 62
5
100
AcDbSpline
 70
0
 71
3
 72
19
 73
15
 74
13
 40
0.000000
 40
0.000000
 40
0.000000
 40
0.000000
 40
0.270964
 40
0.496690
 40
0.686658
 40
0.858176
 40
1.033355
 40
1.231400
 40
1.477498
 40
1.702720
 40
1.927125
 40
2.160453
 40
2.410313
 40
2.691664
 40
2.691664
 40
2.691664
 40
2.691664
 10
24.989830
 20
227.120383
 30
0.0
 10
24.987146
 20
227.210819
 30
0.0
 10
24.982226
 20
227.376592
 30
0.0
 10
24.931746
 20
227.601560
 30
0.0
 10
24.844942
 20
227.779943
 30
0.0
 10
24.714641
 20
227.908228
 30
0.0
 10
24.544491
 20
227.981706
 30
0.0
 10
24.337055
 20
228.001606
 30
0.0
 10
24.113058
 20
227.977610
 30
0.0
 10
23.895031
 20
227.888267
 30
0.0
 10
23.719779
 20
227.737176
 30
0.0
 10
23.591166
 20
227.536131
 30
0.0
 10
23.513586
 20
227.289875
 30
0.0
 10
23.505717
 20
227.112404
 30
0.0
 10
23.501549
 20
227.018408
 30
0.0
 11
24.989830
 21
227.120383
 31
0.0
 11
24.972375
 21
227.390785
 31
0.0
 11
24.920009
 21
227.610352
 31
0.0
 11
24.832733
 21
227.779085
 31
0.0
 11
24.709628
 21
227.898515
 31
0.0
 11
24.549776
 21
227.970173
 31
0.0
 11
24.353176
 21
227.994059
 31
0.0
 11
24.108804
 21
227.964967
 31
0.0
 11
23.901180
 21
227.877691
 31
0.0
 11
23.730303
 21
227.732231
 31
0.0
 11
23.603217
 21
227.536550
 31
0.0
 11
23.526966
 21
227.298609
 31
0.0
 11
23.501549
 21
227.018408
 31
0.0
  0
LWPOLYLINE
  5
186
100
AcDbEntity
  8
Layer_1
 62
5
100
AcDbPolyline
 90
4
 70
0
 10
23.501549
 20
227.018408
 30
0.0
 10
23.501549
 20
225.273811
 30
0.0
 10
22.991674
 20
225.273811
 30
0.0
 10
22.991674
 20
227.120383
 30
0.0
  0
SPLINE
  5
187
100
AcDbEntity
  8
Layer_1
 62
5
100
AcDbSpline
 70
0
 71
3
 72
19
 73
15
 74
13
 40
0.000000
 40
0.000000
 40
0.000000
 40
0.000000
 40
0.272187
 40
0.497912
 40
0.686793
 40
0.858751
 40
1.035608
 40
1.236694
 40
1.479788
 40
1.703677
 40
1.928614
 40
2.161685
 40
2.410671
 40
2.690497
 40
2.690497
 40
2.690497
 40
2.690497
 10
22.991674
 20
227.120383
 30
0.0
 10
22.988991
 20
227.211217
 30
0.0
 10
22.984084
 20
227.377379
 30
0.0
 10
22.933894
 20
227.602537
 30
0.0
 10
22.846410
 20
227.780329
 30
0.0
 10
22.715594
 20
227.908645
 30
0.0
 10
22.543375
 20
227.981747
 30
0.0
 10
22.335434
 20
228.001626
 30
0.0
 10
22.111815
 20
227.977349
 30
0.0
 10
21.895590
 20
227.886645
 30
0.0
 10
21.722155
 20
227.734271
 30
0.0
 10
21.593049
 20
227.533964
 30
0.0
 10
21.515491
 20
227.288543
 30
0.0
 10
21.507579
 20
227.111887
 30
0.0
 10
21.503393
 20
227.018408
 30
0.0
 11
22.991674
 21
227.120383
 31
0.0
 11
22.974219
 21
227.392009
 31
0.0
 11
22.921854
 21
227.611577
 31
0.0
 11
22.834578
 21
227.779085
 31
0.0
 11
22.710861
 21
227.898515
 31
0.0
 11
22.549171
 21
227.970173
 31
0.0
 11
22.349509
 21
227.994059
 31
0.0
 11
22.108199
 21
227.964661
 31
0.0
 11
21.902412
 21
227.876466
 31
0.0
 11
21.732148
 21
227.729475
 31
0.0
 11
21.605062
 21
227.534100
 31
0.0
 11
21.528810
 21
227.297078
 31
0.0
 11
21.503393
 21
227.018408
 31
0.0
  0
LWPOLYLINE
  5
188
100
AcDbEntity
  8
Layer_1
 62
5
100
AcDbPolyline
 90
6
 70
0
 10
21.503393
 20
227.018408
 30
0.0
 10
21.503393
 20
225.273811
 30
0.0
 10
20.993519
 20
225.273811
 30
0.0
 10
20.993519
 20
228.360617
 30
0.0
 10
21.503393
 20
228.360617
 30
0.0
 10
21.503393
 20
227.881060
 30
0.0
  0
LWPOLYLINE
  5
189
100
AcDbEntity
  8
Layer_1
 62
5
100
AcDbPolyline
 90
1
 70
1
 10
23.416110
 20
227.768060
 30
0.0
  0
LWPOLYLINE
  5
18a
100
AcDbEntity
  8
Layer_1
 62
5
100
AcDbPolyline
 90
2
 70
0
 10
268.500000
 20
221.646649
 30
0.0
 10
296.649830
 20
221.646649
 30
0.0
  0
LWPOLYLINE
  5
18b
100
AcDbEntity
  8
Layer_1
 62
5
100
AcDbPolyline
 90
2
 70
0
 10
297.051820
 20
234.875815
 30
0.0
 10
297.051820
 20
213.230659
 30
0.0
  0
SPLINE
  5
18c
100
AcDbEntity
  8
Layer_1
 62
5
100
AcDbSpline
 70
0
 71
3
 72
19
 73
15
 74
13
 40
0.000000
 40
0.000000
 40
0.000000
 40
0.000000
 40
0.212274
 40
0.409108
 40
0.596414
 40
0.783877
 40
0.981090
 40
1.193838
 40
1.407514
 40
1.606030
 40
1.798568
 40
1.993458
 40
2.195840
 40
2.414486
 40
2.414486
 40
2.414486
 40
2.414486
 10
21.503393
 20
227.881060
 30
0.0
 10
21.542622
 20
227.940113
 30
0.0
 10
21.618227
 20
228.053924
 30
0.0
 10
21.759439
 20
228.195770
 30
0.0
 10
21.916493
 20
228.305524
 30
0.0
 10
22.092662
 20
228.381682
 30
0.0
 10
22.287763
 20
228.426085
 30
0.0
 10
22.495848
 20
228.440196
 30
0.0
 10
22.704619
 20
228.424049
 30
0.0
 10
22.899694
 20
228.366862
 30
0.0
 10
23.071023
 20
228.269524
 30
0.0
 10
23.217307
 20
228.136036
 30
0.0
 10
23.337048
 20
227.966721
 30
0.0
 10
23.389086
 20
227.835964
 30
0.0
 10
23.416110
 20
227.768060
 30
0.0
 11
21.503393
 21
227.881060
 31
0.0
 11
21.626804
 21
228.053774
 31
0.0
 11
21.765527
 21
228.193415
 31
0.0
 11
21.919561
 21
228.299983
 31
0.0
 11
22.091356
 21
228.375010
 31
0.0
 11
22.283363
 21
228.420026
 31
0.0
 11
22.495581
 21
228.435031
 31
0.0
 11
22.708411
 21
228.416045
 31
0.0
 11
22.898581
 21
228.359086
 31
0.0
 11
23.066089
 21
228.264154
 31
0.0
 11
23.210323
 21
228.133087
 31
0.0
 11
23.326997
 21
227.967722
 31
0.0
 11
23.416110
 21
227.768060
 31
0.0
  0
LWPOLYLINE
  5
18d
100
AcDbEntity
  8
Layer_1
 62
5
100
AcDbPolyline
 90
5
 70
0
 10
271.586650
 20
225.742344
 30
0.0
 10
273.529680
 20
225.742344
 30
0.0
 10
273.529680
 20
225.273811
 30
0.0
 10
270.916920
 20
225.273811
 30
0.0
 10
270.916920
 20
225.742344
 30
0.0
  0
SPLINE
  5
18e
100
AcDbEntity
  8
Layer_1
 62
5
100
AcDbSpline
 70
0
 71
3
 72
31
 73
27
 74
25
 40
0.000000
 40
0.000000
 40
0.000000
 40
0.000000
 40
0.339565
 40
0.750139
 40
1.231728
 40
1.688421
 40
2.019126
 40
2.223911
 40
2.472304
 40
2.681961
 40
2.854275
 40
3.005305
 40
3.146801
 40
3.282376
 40
3.489157
 40
3.683373
 40
3.881936
 40
4.085536
 40
4.296463
 40
4.528194
 40
4.706402
 40
4.893531
 40
5.091481
 40
5.301389
 40
5.527592
 40
5.771128
 40
5.771128
 40
5.771128
 40
5.771128
 10
270.916920
 20
225.742344
 30
0.0
 10
270.995752
 20
225.823567
 30
0.0
 10
271.169902
 20
226.002997
 30
0.0
 10
271.457619
 20
226.295902
 30
0.0
 10
271.773807
 20
226.615561
 30
0.0
 10
272.070898
 20
226.916664
 30
0.0
 10
272.301288
 20
227.153952
 30
0.0
 10
272.479602
 20
227.344995
 30
0.0
 10
272.622559
 20
227.513621
 30
0.0
 10
272.748385
 20
227.682147
 30
0.0
 10
272.840571
 20
227.834500
 30
0.0
 10
272.902783
 20
227.976941
 30
0.0
 10
272.939864
 20
228.115454
 30
0.0
 10
272.953852
 20
228.276773
 30
0.0
 10
272.932949
 20
228.456643
 30
0.0
 10
272.853178
 20
228.643289
 30
0.0
 10
272.721047
 20
228.795381
 30
0.0
 10
272.550675
 20
228.912415
 30
0.0
 10
272.343978
 20
228.981682
 30
0.0
 10
272.136312
 20
228.999393
 30
0.0
 10
271.937337
 20
228.987228
 30
0.0
 10
271.751816
 20
228.956301
 30
0.0
 10
271.559860
 20
228.905289
 30
0.0
 10
271.361118
 20
228.832774
 30
0.0
 10
271.153838
 20
228.740794
 30
0.0
 10
271.015962
 20
228.666483
 30
0.0
 10
270.944480
 20
228.627956
 30
0.0
 11
270.916920
 21
225.742344
 31
0.0
 11
271.153637
 21
225.985797
 31
0.0
 11
271.441187
 21
226.278860
 31
0.0
 11
271.779570
 21
226.621533
 31
0.0
 11
272.099888
 21
226.947056
 31
0.0
 11
272.329561
 21
227.184997
 31
0.0
 11
272.468590
 21
227.335356
 31
0.0
 11
272.628749
 21
227.525219
 31
0.0
 11
272.752772
 21
227.694259
 31
0.0
 11
272.840660
 21
227.842475
 31
0.0
 11
272.900377
 21
227.981197
 31
0.0
 11
272.936207
 21
228.118082
 31
0.0
 11
272.948150
 21
228.253130
 31
0.0
 11
272.922427
 21
228.458305
 31
0.0
 11
272.845257
 21
228.636531
 31
0.0
 11
272.716640
 21
228.787809
 31
0.0
 11
272.548517
 21
228.902645
 31
0.0
 11
272.349160
 21
228.971547
 31
0.0
 11
272.118570
 21
228.994514
 31
0.0
 11
271.940649
 21
228.984408
 31
0.0
 11
271.755992
 21
228.954092
 31
0.0
 11
271.564600
 21
228.903564
 31
0.0
 11
271.367080
 21
228.832519
 31
0.0
 11
271.160373
 21
228.740649
 31
0.0
 11
270.944480
 21
228.627956
 31
0.0
  0
LWPOLYLINE
  5
18f
100
AcDbEntity
  8
Layer_1
 62
5
100
AcDbPolyline
 90
2
 70
0
 10
270.944480
 20
228.627956
 30
0.0
 10
270.944480
 20
229.190196
 30
0.0
  0
SPLINE
  5
190
100
AcDbEntity
  8
Layer_1
 62
5
100
AcDbSpline
 70
0
 71
3
 72
31
 73
27
 74
25
 40
0.000000
 40
0.000000
 40
0.000000
 40
0.000000
 40
0.234333
 40
0.454552
 40
0.661205
 40
0.854287
 40
1.033987
 40
1.201366
 40
1.600437
 40
1.956664
 40
2.290225
 40
2.607758
 40
2.919497
 40
3.254738
 40
3.421366
 40
3.585324
 40
3.749578
 40
3.928297
 40
4.140317
 40
4.387453
 40
4.505159
 40
4.717664
 40
5.024996
 40
5.426275
 40
5.923263
 40
6.515959
 40
6.515959
 40
6.515959
 40
6.515959
 10
270.944480
 20
229.190196
 30
0.0
 10
271.017304
 20
229.218480
 30
0.0
 10
271.158567
 20
229.273345
 30
0.0
 10
271.368367
 20
229.341274
 30
0.0
 10
271.567987
 20
229.395109
 30
0.0
 10
271.757343
 20
229.433809
 30
0.0
 10
271.936043
 20
229.457577
 30
0.0
 10
272.184709
 20
229.468525
 30
0.0
 10
272.493243
 20
229.443269
 30
0.0
 10
272.844266
 20
229.338210
 30
0.0
 10
273.132737
 20
229.158515
 30
0.0
 10
273.351916
 20
228.917374
 30
0.0
 10
273.483320
 20
228.618004
 30
0.0
 10
273.514281
 20
228.345031
 30
0.0
 10
273.500765
 20
228.123121
 30
0.0
 10
273.468314
 20
227.960814
 30
0.0
 10
273.412835
 20
227.800683
 30
0.0
 10
273.328897
 20
227.635197
 30
0.0
 10
273.211148
 20
227.457997
 30
0.0
 10
273.097234
 20
227.302537
 30
0.0
 10
272.965790
 20
227.161810
 30
0.0
 10
272.819635
 20
227.007594
 30
0.0
 10
272.606981
 20
226.786086
 30
0.0
 10
272.326209
 20
226.498581
 30
0.0
 10
271.979058
 20
226.142934
 30
0.0
 10
271.724868
 20
225.883470
 30
0.0
 10
271.586610
 20
225.742343
 30
0.0
 11
270.944480
 21
229.190196
 31
0.0
 11
271.163741
 21
229.272878
 31
0.0
 11
271.373204
 21
229.340862
 31
0.0
 11
271.572870
 21
229.394146
 31
0.0
 11
271.762119
 21
229.432424
 31
0.0
 11
271.940346
 21
229.455390
 31
0.0
 11
272.107550
 21
229.463046
 31
0.0
 11
272.505037
 21
229.427523
 31
0.0
 11
272.844950
 21
229.320955
 31
0.0
 11
273.127290
 21
229.143342
 31
0.0
 11
273.338590
 21
228.906319
 31
0.0
 11
273.465370
 21
228.621525
 31
0.0
 11
273.507630
 21
228.288958
 31
0.0
 11
273.496908
 21
228.122675
 31
0.0
 11
273.464741
 21
227.961904
 31
0.0
 11
273.411130
 21
227.806645
 31
0.0
 11
273.331207
 21
227.646792
 31
0.0
 11
273.216370
 21
227.468566
 31
0.0
 11
273.066620
 21
227.271966
 31
0.0
 11
272.987307
 21
227.184995
 31
0.0
 11
272.841233
 21
227.030654
 31
0.0
 11
272.628400
 21
226.808945
 31
0.0
 11
272.348508
 21
226.521394
 31
0.0
 11
272.001244
 21
226.165860
 31
0.0
 11
271.586610
 21
225.742343
 31
0.0
  0
LWPOLYLINE
  5
191
100
AcDbEntity
  8
Layer_1
 62
5
100
AcDbPolyline
 90
1
 70
1
 10
271.586610
 20
225.742343
 30
0.0
  0
SPLINE
  5
192
100
AcDbEntity
  8
Layer_1
 62
5
100
AcDbSpline
 70
0
 71
3
 72
31
 73
27
 74
25
 40
0.000000
 40
0.000000
 40
0.000000
 40
0.000000
 40
0.247033
 40
0.467248
 40
0.675101
 40
0.877886
 40
1.086711
 40
1.318362
 40
1.550012
 40
1.758836
 40
1.961621
 40
2.169475
 40
2.389689
 40
2.636722
 40
2.883752
 40
3.103966
 40
3.311823
 40
3.516516
 40
3.725673
 40
3.956139
 40
4.187823
 40
4.396980
 40
4.600715
 40
4.807563
 40
5.027777
 40
5.276027
 40
5.276027
 40
5.276027
 40
5.276027
 10
275.891640
 20
227.227870
 30
0.0
 10
275.809074
 20
227.224007
 30
0.0
 10
275.652907
 20
227.216700
 30
0.0
 10
275.436529
 20
227.144163
 30
0.0
 10
275.260082
 20
227.024680
 30
0.0
 10
275.130071
 20
226.859852
 30
0.0
 10
275.053758
 20
226.656195
 30
0.0
 10
275.032780
 20
226.431361
 30
0.0
 10
275.053758
 20
226.206540
 30
0.0
 10
275.130071
 20
226.002849
 30
0.0
 10
275.260082
 20
225.838144
 30
0.0
 10
275.436529
 20
225.718182
 30
0.0
 10
275.652906
 20
225.647622
 30
0.0
 10
275.891641
 20
225.628106
 30
0.0
 10
276.130361
 20
225.647631
 30
0.0
 10
276.346777
 20
225.718151
 30
0.0
 10
276.523627
 20
225.838620
 30
0.0
 10
276.654397
 20
226.003602
 30
0.0
 10
276.731980
 20
226.207185
 30
0.0
 10
276.753373
 20
226.431782
 30
0.0
 10
276.732043
 20
226.656313
 30
0.0
 10
276.654794
 20
226.860264
 30
0.0
 10
276.523254
 20
227.023787
 30
0.0
 10
276.347906
 20
227.144596
 30
0.0
 10
276.131129
 20
227.216735
 30
0.0
 10
275.974592
 20
227.224013
 30
0.0
 10
275.891640
 20
227.227870
 30
0.0
 11
275.891640
 21
227.227870
 31
0.0
 11
275.645734
 21
227.204290
 31
0.0
 11
275.437191
 21
227.133551
 31
0.0
 11
275.266010
 21
227.015652
 31
0.0
 11
275.140454
 21
226.856412
 31
0.0
 11
275.065121
 21
226.661649
 31
0.0
 11
275.040010
 21
226.431363
 31
0.0
 11
275.065121
 21
226.201078
 31
0.0
 11
275.140454
 21
226.006315
 31
0.0
 11
275.266010
 21
225.847075
 31
0.0
 11
275.437191
 21
225.729176
 31
0.0
 11
275.645734
 21
225.658437
 31
0.0
 11
275.891640
 21
225.634857
 31
0.0
 11
276.137541
 21
225.658437
 31
0.0
 11
276.346084
 21
225.729176
 31
0.0
 11
276.517270
 21
225.847075
 31
0.0
 11
276.644353
 21
226.007540
 31
0.0
 11
276.720603
 21
226.202303
 31
0.0
 11
276.746020
 21
226.431363
 31
0.0
 11
276.720603
 21
226.661649
 31
0.0
 11
276.644353
 21
226.856412
 31
0.0
 11
276.517270
 21
227.015652
 31
0.0
 11
276.347311
 21
227.133551
 31
0.0
 11
276.138768
 21
227.204290
 31
0.0
 11
275.891640
 21
227.227870
 31
0.0
  0
SPLINE
  5
193
100
AcDbEntity
  8
Layer_1
 62
5
100
AcDbSpline
 70
0
 71
3
 72
31
 73
27
 74
25
 40
0.000000
 40
0.000000
 40
0.000000
 40
0.000000
 40
0.234166
 40
0.451276
 40
0.661787
 40
0.869015
 40
1.079059
 40
1.303388
 40
1.611774
 40
1.896744
 40
2.185937
 40
2.494220
 40
2.829658
 40
3.210108
 40
3.591776
 40
3.927214
 40
4.234451
 40
4.523644
 40
4.808613
 40
5.117000
 40
5.341359
 40
5.551694
 40
5.759743
 40
5.968931
 40
6.184466
 40
6.416899
 40
6.416899
 40
6.416899
 40
6.416899
 10
275.334910
 20
227.464892
 30
0.0
 10
275.259825
 20
227.487137
 30
0.0
 10
275.115126
 20
227.530007
 30
0.0
 10
274.923890
 20
227.644694
 30
0.0
 10
274.769402
 20
227.791950
 30
0.0
 10
274.657033
 20
227.971096
 30
0.0
 10
274.589873
 20
228.176346
 30
0.0
 10
274.568218
 20
228.424396
 30
0.0
 10
274.599096
 20
228.698522
 30
0.0
 10
274.719978
 20
228.972356
 30
0.0
 10
274.922921
 20
229.191972
 30
0.0
 10
275.193985
 20
229.352135
 30
0.0
 10
275.525468
 20
229.445985
 30
0.0
 10
275.892056
 20
229.472112
 30
0.0
 10
276.258590
 20
229.446019
 30
0.0
 10
276.590326
 20
229.352477
 30
0.0
 10
276.860505
 20
229.191554
 30
0.0
 10
277.063332
 20
228.972396
 30
0.0
 10
277.184153
 20
228.698513
 30
0.0
 10
277.215150
 20
228.424379
 30
0.0
 10
277.193179
 20
228.176252
 30
0.0
 10
277.125165
 20
227.970703
 30
0.0
 10
277.010949
 20
227.793008
 30
0.0
 10
276.858783
 20
227.644618
 30
0.0
 10
276.669104
 20
227.530049
 30
0.0
 10
276.525586
 20
227.487150
 30
0.0
 10
276.451120
 20
227.464892
 30
0.0
 11
275.334910
 21
227.464892
 31
0.0
 11
275.113506
 21
227.541141
 31
0.0
 11
274.927012
 21
227.652303
 31
0.0
 11
274.775430
 21
227.798377
 31
0.0
 11
274.665186
 21
227.973847
 31
0.0
 11
274.599039
 21
228.173204
 31
0.0
 11
274.576990
 21
228.396446
 31
0.0
 11
274.615881
 21
228.702371
 31
0.0
 11
274.732554
 21
228.962361
 31
0.0
 11
274.927010
 21
229.176416
 31
0.0
 11
275.190982
 21
229.335655
 31
0.0
 11
275.512526
 21
229.431199
 31
0.0
 11
275.891640
 21
229.463047
 31
0.0
 11
276.271977
 21
229.431199
 31
0.0
 11
276.593520
 21
229.335655
 31
0.0
 11
276.856270
 21
229.176416
 31
0.0
 11
277.050726
 21
228.962361
 31
0.0
 11
277.167399
 21
228.702371
 31
0.0
 11
277.206290
 21
228.396446
 31
0.0
 11
277.183934
 21
228.173204
 31
0.0
 11
277.116868
 21
227.973847
 31
0.0
 11
277.005090
 21
227.798377
 31
0.0
 11
276.855347
 21
227.652305
 31
0.0
 11
276.670690
 21
227.541144
 31
0.0
 11
276.451120
 21
227.464892
 31
0.0
  0
LWPOLYLINE
  5
194
100
AcDbEntity
  8
Layer_1
 62
5
100
AcDbPolyline
 90
1
 70
1
 10
275.891640
 20
227.227870
 30
0.0
  0
SPLINE
  5
195
100
AcDbEntity
  8
Layer_1
 62
5
100
AcDbSpline
 70
0
 71
3
 72
31
 73
27
 74
25
 40
0.000000
 40
0.000000
 40
0.000000
 40
0.000000
 40
0.261660
 40
0.503362
 40
0.737269
 40
0.969510
 40
1.204250
 40
1.454784
 40
1.824815
 40
2.154238
 40
2.472104
 40
2.801789
 40
3.165915
 40
3.586037
 40
4.006463
 40
4.371470
 40
4.702447
 40
5.019334
 40
5.348416
 40
5.718414
 40
5.968947
 40
6.203687
 40
6.435928
 40
6.670941
 40
6.913434
 40
7.175384
 40
7.175384
 40
7.175384
 40
7.175384
 10
276.451120
 20
227.464892
 30
0.0
 10
276.535305
 20
227.441043
 30
0.0
 10
276.697253
 20
227.395164
 30
0.0
 10
276.911691
 20
227.269259
 30
0.0
 10
277.083340
 20
227.104584
 30
0.0
 10
277.211535
 20
226.906522
 30
0.0
 10
277.288275
 20
226.677236
 30
0.0
 10
277.312361
 20
226.391505
 30
0.0
 10
277.280449
 20
226.073558
 30
0.0
 10
277.157598
 20
225.751854
 30
0.0
 10
276.944237
 20
225.498014
 30
0.0
 10
276.654389
 20
225.316239
 30
0.0
 10
276.293883
 20
225.212431
 30
0.0
 10
275.891555
 20
225.183955
 30
0.0
 10
275.488836
 20
225.212425
 30
0.0
 10
275.127771
 20
225.316544
 30
0.0
 10
274.836426
 20
225.497032
 30
0.0
 10
274.624499
 20
225.752280
 30
0.0
 10
274.502627
 20
226.073682
 30
0.0
 10
274.470961
 20
226.391511
 30
0.0
 10
274.494981
 20
226.677253
 30
0.0
 10
274.571807
 20
226.906462
 30
0.0
 10
274.699917
 20
227.105122
 30
0.0
 10
274.873212
 20
227.269064
 30
0.0
 10
275.088310
 20
227.395078
 30
0.0
 10
275.250623
 20
227.441030
 30
0.0
 10
275.334910
 20
227.464892
 30
0.0
 11
276.451120
 21
227.464892
 31
0.0
 11
276.699474
 21
227.382514
 31
0.0
 11
276.908018
 21
227.260328
 31
0.0
 11
277.076750
 21
227.098334
 31
0.0
 11
277.202306
 21
226.902959
 31
0.0
 11
277.277639
 21
226.680635
 31
0.0
 11
277.302750
 21
226.431363
 31
0.0
 11
277.262021
 21
226.063580
 31
0.0
 11
277.139834
 21
225.757656
 31
0.0
 11
276.936190
 21
225.513590
 31
0.0
 11
276.658440
 21
225.335976
 31
0.0
 11
276.310257
 21
225.229408
 31
0.0
 11
275.891640
 21
225.193885
 31
0.0
 11
275.472717
 21
225.229408
 31
0.0
 11
275.123613
 21
225.335976
 31
0.0
 11
274.844330
 21
225.513590
 31
0.0
 11
274.642219
 21
225.757656
 31
0.0
 11
274.520952
 21
226.063580
 31
0.0
 11
274.480530
 21
226.431363
 31
0.0
 11
274.505641
 21
226.680635
 31
0.0
 11
274.580974
 21
226.902959
 31
0.0
 11
274.706530
 21
227.098334
 31
0.0
 11
274.876790
 21
227.260330
 31
0.0
 11
275.086250
 21
227.382516
 31
0.0
 11
275.334910
 21
227.464892
 31
0.0
  0
LWPOLYLINE
  5
196
100
AcDbEntity
  8
Layer_1
 62
5
100
AcDbPolyline
 90
1
 70
1
 10
275.334910
 20
227.464892
 30
0.0
  0
LWPOLYLINE
  5
197
100
AcDbEntity
  8
Layer_1
 62
5
100
AcDbPolyline
 90
1
 70
1
 10
275.130960
 20
228.344080
 30
0.0
  0
LWPOLYLINE
  5
198
100
AcDbEntity
  8
Layer_1
 62
5
100
AcDbPolyline
 90
4
 70
1
 10
278.294940
 20
225.973855
 30
0.0
 10
278.876470
 20
225.973855
 30
0.0
 10
278.876470
 20
225.273811
 30
0.0
 10
278.294940
 20
225.273811
 30
0.0
  0
SPLINE
  5
199
100
AcDbEntity
  8
Layer_1
 62
5
100
AcDbSpline
 70
0
 71
3
 72
31
 73
27
 74
25
 40
0.000000
 40
0.000000
 40
0.000000
 40
0.000000
 40
0.198745
 40
0.377702
 40
0.552034
 40
0.733625
 40
0.930322
 40
1.154147
 40
1.376444
 40
1.572265
 40
1.753600
 40
1.929884
 40
2.109527
 40
2.308341
 40
2.507156
 40
2.686799
 40
2.863083
 40
3.044418
 40
3.240239
 40
3.462536
 40
3.686361
 40
3.883058
 40
4.064649
 40
4.238981
 40
4.417938
 40
4.616684
 40
4.616684
 40
4.616684
 40
4.616684
 10
275.130960
 20
228.344080
 30
0.0
 10
275.134583
 20
228.277584
 30
0.0
 10
275.141469
 20
228.151213
 30
0.0
 10
275.210545
 20
227.976910
 30
0.0
 10
275.324869
 20
227.836514
 30
0.0
 10
275.482350
 20
227.735543
 30
0.0
 10
275.676340
 20
227.676663
 30
0.0
 10
275.891146
 20
227.660443
 30
0.0
 10
276.105566
 20
227.676725
 30
0.0
 10
276.298870
 20
227.735520
 30
0.0
 10
276.455546
 20
227.837515
 30
0.0
 10
276.573426
 20
227.976174
 30
0.0
 10
276.642639
 20
228.150933
 30
0.0
 10
276.661600
 20
228.344080
 30
0.0
 10
276.642639
 20
228.537227
 30
0.0
 10
276.573426
 20
228.711987
 30
0.0
 10
276.455546
 20
228.850646
 30
0.0
 10
276.298870
 20
228.952641
 30
0.0
 10
276.105566
 20
229.011436
 30
0.0
 10
275.891146
 20
229.027718
 30
0.0
 10
275.676340
 20
229.011498
 30
0.0
 10
275.482350
 20
228.952618
 30
0.0
 10
275.324869
 20
228.851647
 30
0.0
 10
275.210544
 20
228.711251
 30
0.0
 10
275.141469
 20
228.536947
 30
0.0
 10
275.134583
 20
228.410576
 30
0.0
 10
275.130960
 20
228.344080
 30
0.0
 11
275.130960
 21
228.344080
 31
0.0
 11
275.153009
 21
228.146562
 31
0.0
 11
275.219156
 21
227.980279
 31
0.0
 11
275.329400
 21
227.845231
 31
0.0
 11
275.481289
 21
227.745706
 31
0.0
 11
275.668702
 21
227.685991
 31
0.0
 11
275.891640
 21
227.666086
 31
0.0
 11
276.113044
 21
227.685991
 31
0.0
 11
276.299538
 21
227.745706
 31
0.0
 11
276.451120
 21
227.845231
 31
0.0
 11
276.564426
 21
227.980279
 31
0.0
 11
276.632409
 21
228.146562
 31
0.0
 11
276.655070
 21
228.344080
 31
0.0
 11
276.632409
 21
228.541599
 31
0.0
 11
276.564426
 21
228.707882
 31
0.0
 11
276.451120
 21
228.842930
 31
0.0
 11
276.299538
 21
228.942455
 31
0.0
 11
276.113044
 21
229.002170
 31
0.0
 11
275.891640
 21
229.022075
 31
0.0
 11
275.668702
 21
229.002170
 31
0.0
 11
275.481289
 21
228.942455
 31
0.0
 11
275.329400
 21
228.842930
 31
0.0
 11
275.219156
 21
228.707882
 31
0.0
 11
275.153009
 21
228.541599
 31
0.0
 11
275.130960
 21
228.344080
 31
0.0
  0
LWPOLYLINE
  5
19a
100
AcDbEntity
  8
Layer_1
 62
5
100
AcDbPolyline
 90
5
 70
0
 10
280.097410
 20
229.388633
 30
0.0
 10
282.282980
 20
229.388633
 30
0.0
 10
282.282980
 20
228.920100
 30
0.0
 10
280.607290
 20
228.920100
 30
0.0
 10
280.607290
 20
227.911376
 30
0.0
  0
SPLINE
  5
19b
100
AcDbEntity
  8
Layer_1
 62
5
100
AcDbSpline
 70
0
 71
3
 72
31
 73
27
 74
25
 40
0.000000
 40
0.000000
 40
0.000000
 40
0.000000
 40
0.084651
 40
0.167982
 40
0.250265
 40
0.332033
 40
0.413210
 40
0.494088
 40
0.923641
 40
1.308600
 40
1.674752
 40
2.034162
 40
2.400439
 40
2.803172
 40
3.215780
 40
3.586828
 40
3.948183
 40
4.321828
 40
4.729191
 40
5.194915
 40
5.368923
 40
5.545924
 40
5.726436
 40
5.910038
 40
6.099887
 40
6.296367
 40
6.296367
 40
6.296367
 40
6.296367
 10
280.607290
 20
227.911376
 30
0.0
 10
280.634145
 20
227.920056
 30
0.0
 10
280.687435
 20
227.937279
 30
0.0
 10
280.768456
 20
227.957492
 30
0.0
 10
280.849599
 20
227.972276
 30
0.0
 10
280.930346
 20
227.985146
 30
0.0
 10
281.011371
 20
227.992471
 30
0.0
 10
281.208529
 20
227.997535
 30
0.0
 10
281.508279
 20
227.970680
 30
0.0
 10
281.886027
 20
227.845416
 30
0.0
 10
282.194099
 20
227.630899
 30
0.0
 10
282.424844
 20
227.342444
 30
0.0
 10
282.561367
 20
226.985931
 30
0.0
 10
282.599233
 20
226.590689
 30
0.0
 10
282.561114
 20
226.193712
 30
0.0
 10
282.421216
 20
225.832297
 30
0.0
 10
282.182407
 20
225.543072
 30
0.0
 10
281.856531
 20
225.335363
 30
0.0
 10
281.454272
 20
225.215407
 30
0.0
 10
281.104074
 20
225.189518
 30
0.0
 10
280.831907
 20
225.197212
 30
0.0
 10
280.655254
 20
225.212067
 30
0.0
 10
280.476464
 20
225.236533
 30
0.0
 10
280.295067
 20
225.271414
 30
0.0
 10
280.110128
 20
225.315259
 30
0.0
 10
279.986603
 20
225.351727
 30
0.0
 10
279.923780
 20
225.370274
 30
0.0
 11
280.607290
 21
227.911376
 31
0.0
 11
280.688131
 21
227.936486
 31
0.0
 11
280.768974
 21
227.956696
 31
0.0
 11
280.849820
 21
227.972006
 31
0.0
 11
280.930666
 21
227.984256
 31
0.0
 11
281.011509
 21
227.991606
 31
0.0
 11
281.092350
 21
227.994056
 31
0.0
 11
281.519849
 21
227.952102
 31
0.0
 11
281.883652
 21
227.826241
 31
0.0
 11
282.183760
 21
227.616473
 31
0.0
 11
282.407310
 21
227.335047
 31
0.0
 11
282.541440
 21
226.994213
 31
0.0
 11
282.586150
 21
226.593969
 31
0.0
 11
282.540216
 21
226.183926
 31
0.0
 11
282.402412
 21
225.839417
 31
0.0
 11
282.172740
 21
225.560440
 31
0.0
 11
281.859467
 21
225.356797
 31
0.0
 11
281.470860
 21
225.234611
 31
0.0
 11
281.006920
 21
225.193882
 31
0.0
 11
280.832981
 21
225.198782
 31
0.0
 11
280.656591
 21
225.213482
 31
0.0
 11
280.477750
 21
225.237982
 31
0.0
 11
280.297380
 21
225.272281
 31
0.0
 11
280.112723
 21
225.316378
 31
0.0
 11
279.923780
 21
225.370274
 31
0.0
  0
LWPOLYLINE
  5
19c
100
AcDbEntity
  8
Layer_1
 62
5
100
AcDbPolyline
 90
2
 70
0
 10
279.923780
 20
225.370274
 30
0.0
 10
279.923780
 20
225.929758
 30
0.0
  0
SPLINE
  5
19d
100
AcDbEntity
  8
Layer_1
 62
5
100
AcDbSpline
 70
0
 71
3
 72
31
 73
27
 74
25
 40
0.000000
 40
0.000000
 40
0.000000
 40
0.000000
 40
0.186394
 40
0.369960
 40
0.552021
 40
0.735495
 40
0.923287
 40
1.116658
 40
1.413786
 40
1.679029
 40
1.929076
 40
2.171819
 40
2.416973
 40
2.685488
 40
2.954002
 40
3.199156
 40
3.441899
 40
3.691946
 40
3.957189
 40
4.254317
 40
4.403246
 40
4.552988
 40
4.704346
 40
4.857659
 40
5.016867
 40
5.182703
 40
5.182703
 40
5.182703
 40
5.182703
 10
279.923780
 20
225.929758
 30
0.0
 10
279.979051
 20
225.901301
 30
0.0
 10
280.088755
 20
225.844817
 30
0.0
 10
280.260613
 20
225.778151
 30
0.0
 10
280.436200
 20
225.725828
 30
0.0
 10
280.617178
 20
225.688977
 30
0.0
 10
280.804348
 20
225.667249
 30
0.0
 10
281.030368
 20
225.658010
 30
0.0
 10
281.283147
 20
225.677361
 30
0.0
 10
281.544000
 20
225.760798
 30
0.0
 10
281.757149
 20
225.902626
 30
0.0
 10
281.917287
 20
226.094345
 30
0.0
 10
282.012168
 20
226.332233
 30
0.0
 10
282.038438
 20
226.593968
 30
0.0
 10
282.012168
 20
226.855703
 30
0.0
 10
281.917287
 20
227.093593
 30
0.0
 10
281.757150
 20
227.285300
 30
0.0
 10
281.543999
 20
227.427178
 30
0.0
 10
281.283153
 20
227.510405
 30
0.0
 10
281.045212
 20
227.529353
 30
0.0
 10
280.846670
 20
227.521808
 30
0.0
 10
280.697445
 20
227.505151
 30
0.0
 10
280.548328
 20
227.477730
 30
0.0
 10
280.398818
 20
227.437795
 30
0.0
 10
280.247658
 20
227.386514
 30
0.0
 10
280.148169
 20
227.343512
 30
0.0
 10
280.097410
 20
227.321572
 30
0.0
 11
279.923780
 21
225.929758
 31
0.0
 11
280.090983
 21
225.847382
 31
0.0
 11
280.261860
 21
225.780317
 31
0.0
 11
280.436410
 21
225.728564
 31
0.0
 11
280.616166
 21
225.691814
 31
0.0
 11
280.802659
 21
225.669764
 31
0.0
 11
280.995890
 21
225.662414
 31
0.0
 11
281.291709
 21
225.690281
 31
0.0
 11
281.543432
 21
225.773882
 31
0.0
 11
281.751060
 21
225.913217
 31
0.0
 11
281.905704
 21
226.100324
 31
0.0
 11
281.998491
 21
226.327241
 31
0.0
 11
282.029420
 21
226.593968
 31
0.0
 11
281.998491
 21
226.860695
 31
0.0
 11
281.905704
 21
227.087612
 31
0.0
 11
281.751060
 21
227.274719
 31
0.0
 11
281.543432
 21
227.414054
 31
0.0
 11
281.291709
 21
227.497655
 31
0.0
 11
280.995890
 21
227.525522
 31
0.0
 11
280.847063
 21
227.520010
 31
0.0
 11
280.698237
 21
227.503473
 31
0.0
 11
280.549410
 21
227.475912
 31
0.0
 11
280.401192
 21
227.436714
 31
0.0
 11
280.250526
 21
227.385268
 31
0.0
 11
280.097410
 21
227.321572
 31
0.0
  0
LWPOLYLINE
  5
19e
100
AcDbEntity
  8
Layer_1
 62
5
100
AcDbPolyline
 90
2
 70
0
 10
280.097410
 20
227.321572
 30
0.0
 10
280.097410
 20
229.388633
 30
0.0
  0
SPLINE
  5
19f
100
AcDbEntity
  8
Layer_1
 62
5
100
AcDbSpline
 70
0
 71
3
 72
19
 73
15
 74
13
 40
0.000000
 40
0.000000
 40
0.000000
 40
0.000000
 40
0.247938
 40
0.474308
 40
0.685801
 40
0.893298
 40
1.107880
 40
1.337041
 40
1.636462
 40
1.909034
 40
2.183060
 40
2.477508
 40
2.808912
 40
3.193415
 40
3.193415
 40
3.193415
 40
3.193415
 10
286.017460
 20
227.768060
 30
0.0
 10
286.060233
 20
227.838949
 30
0.0
 10
286.142059
 20
227.974560
 30
0.0
 10
286.295977
 20
228.145580
 30
0.0
 10
286.467178
 20
228.277962
 30
0.0
 10
286.658882
 20
228.370182
 30
0.0
 10
286.870492
 20
228.424175
 30
0.0
 10
287.118329
 20
228.442795
 30
0.0
 10
287.387054
 20
228.414453
 30
0.0
 10
287.649631
 20
228.297414
 30
0.0
 10
287.854971
 20
228.099081
 30
0.0
 10
288.001407
 20
227.833309
 30
0.0
 10
288.087765
 20
227.504285
 30
0.0
 10
288.096415
 20
227.265283
 30
0.0
 10
288.101060
 20
227.136919
 30
0.0
 11
286.017460
 21
227.768060
 31
0.0
 11
286.152509
 21
227.975991
 31
0.0
 11
286.304096
 21
228.144112
 31
0.0
 11
286.472220
 21
228.272422
 31
0.0
 11
286.659019
 21
228.362760
 31
0.0
 11
286.866642
 21
228.416963
 31
0.0
 11
287.095090
 21
228.435031
 31
0.0
 11
287.392132
 21
228.397365
 31
0.0
 11
287.640179
 21
228.284366
 31
0.0
 11
287.839230
 21
228.096034
 31
0.0
 11
287.984691
 21
227.840025
 31
0.0
 11
288.071968
 21
227.520320
 31
0.0
 11
288.101060
 21
227.136919
 31
0.0
  0
LWPOLYLINE
  5
1a0
100
AcDbEntity
  8
Layer_1
 62
5
100
AcDbPolyline
 90
4
 70
0
 10
288.101060
 20
227.136919
 30
0.0
 10
288.101060
 20
225.273811
 30
0.0
 10
287.591180
 20
225.273811
 30
0.0
 10
287.591180
 20
227.120383
 30
0.0
  0
SPLINE
  5
1a1
100
AcDbEntity
  8
Layer_1
 62
5
100
AcDbSpline
 70
0
 71
3
 72
19
 73
15
 74
13
 40
0.000000
 40
0.000000
 40
0.000000
 40
0.000000
 40
0.270964
 40
0.496689
 40
0.686656
 40
0.858175
 40
1.033355
 40
1.231400
 40
1.477498
 40
1.702719
 40
1.927122
 40
2.160452
 40
2.410313
 40
2.691664
 40
2.691664
 40
2.691664
 40
2.691664
 10
287.591180
 20
227.120383
 30
0.0
 10
287.588496
 20
227.210819
 30
0.0
 10
287.583576
 20
227.376591
 30
0.0
 10
287.533098
 20
227.601559
 30
0.0
 10
287.446299
 20
227.779945
 30
0.0
 10
287.315996
 20
227.908228
 30
0.0
 10
287.145845
 20
227.981706
 30
0.0
 10
286.938409
 20
228.001606
 30
0.0
 10
286.714412
 20
227.977611
 30
0.0
 10
286.496386
 20
227.888267
 30
0.0
 10
286.321136
 20
227.737175
 30
0.0
 10
286.192520
 20
227.536132
 30
0.0
 10
286.114937
 20
227.289875
 30
0.0
 10
286.107068
 20
227.112404
 30
0.0
 10
286.102900
 20
227.018408
 30
0.0
 11
287.591180
 21
227.120383
 31
0.0
 11
287.573726
 21
227.390785
 31
0.0
 11
287.521362
 21
227.610352
 31
0.0
 11
287.434090
 21
227.779085
 31
0.0
 11
287.310983
 21
227.898515
 31
0.0
 11
287.151130
 21
227.970173
 31
0.0
 11
286.954530
 21
227.994059
 31
0.0
 11
286.710158
 21
227.964967
 31
0.0
 11
286.502534
 21
227.877691
 31
0.0
 11
286.331660
 21
227.732231
 31
0.0
 11
286.204571
 21
227.536550
 31
0.0
 11
286.128318
 21
227.298609
 31
0.0
 11
286.102900
 21
227.018408
 31
0.0
  0
LWPOLYLINE
  5
1a2
100
AcDbEntity
  8
Layer_1
 62
5
100
AcDbPolyline
 90
4
 70
0
 10
286.102900
 20
227.018408
 30
0.0
 10
286.102900
 20
225.273811
 30
0.0
 10
285.593030
 20
225.273811
 30
0.0
 10
285.593030
 20
227.120383
 30
0.0
  0
SPLINE
  5
1a3
100
AcDbEntity
  8
Layer_1
 62
5
100
AcDbSpline
 70
0
 71
3
 72
19
 73
15
 74
13
 40
0.000000
 40
0.000000
 40
0.000000
 40
0.000000
 40
0.272187
 40
0.497912
 40
0.686794
 40
0.858753
 40
1.035611
 40
1.236696
 40
1.479786
 40
1.703676
 40
1.928614
 40
2.161684
 40
2.410669
 40
2.690495
 40
2.690495
 40
2.690495
 40
2.690495
 10
285.593030
 20
227.120383
 30
0.0
 10
285.590347
 20
227.211217
 30
0.0
 10
285.585439
 20
227.377379
 30
0.0
 10
285.535249
 20
227.602537
 30
0.0
 10
285.447762
 20
227.780330
 30
0.0
 10
285.316944
 20
227.908644
 30
0.0
 10
285.144725
 20
227.981746
 30
0.0
 10
284.936786
 20
228.001626
 30
0.0
 10
284.713168
 20
227.977349
 30
0.0
 10
284.496944
 20
227.886644
 30
0.0
 10
284.323507
 20
227.734272
 30
0.0
 10
284.194404
 20
227.533963
 30
0.0
 10
284.116847
 20
227.288542
 30
0.0
 10
284.108936
 20
227.111887
 30
0.0
 10
284.104750
 20
227.018408
 30
0.0
 11
285.593030
 21
227.120383
 31
0.0
 11
285.575574
 21
227.392009
 31
0.0
 11
285.523208
 21
227.611577
 31
0.0
 11
285.435930
 21
227.779085
 31
0.0
 11
285.312211
 21
227.898515
 31
0.0
 11
285.150521
 21
227.970173
 31
0.0
 11
284.950860
 21
227.994059
 31
0.0
 11
284.709553
 21
227.964661
 31
0.0
 11
284.503767
 21
227.876466
 31
0.0
 11
284.333500
 21
227.729475
 31
0.0
 11
284.206417
 21
227.534100
 31
0.0
 11
284.130167
 21
227.297078
 31
0.0
 11
284.104750
 21
227.018408
 31
0.0
  0
LWPOLYLINE
  5
1a4
100
AcDbEntity
  8
Layer_1
 62
5
100
AcDbPolyline
 90
6
 70
0
 10
284.104750
 20
227.018408
 30
0.0
 10
284.104750
 20
225.273811
 30
0.0
 10
283.594870
 20
225.273811
 30
0.0
 10
283.594870
 20
228.360617
 30
0.0
 10
284.104750
 20
228.360617
 30
0.0
 10
284.104750
 20
227.881060
 30
0.0
  0
SPLINE
  5
1a5
100
AcDbEntity
  8
Layer_1
 62
5
100
AcDbSpline
 70
0
 71
3
 72
19
 73
15
 74
13
 40
0.000000
 40
0.000000
 40
0.000000
 40
0.000000
 40
0.212273
 40
0.409105
 40
0.596408
 40
0.783874
 40
0.981087
 40
1.193832
 40
1.407512
 40
1.606029
 40
1.798565
 40
1.993454
 40
2.195835
 40
2.414482
 40
2.414482
 40
2.414482
 40
2.414482
 10
284.104750
 20
227.881060
 30
0.0
 10
284.143979
 20
227.940113
 30
0.0
 10
284.219582
 20
228.053923
 30
0.0
 10
284.360791
 20
228.195770
 30
0.0
 10
284.517843
 20
228.305525
 30
0.0
 10
284.694013
 20
228.381681
 30
0.0
 10
284.889114
 20
228.426085
 30
0.0
 10
285.097199
 20
228.440196
 30
0.0
 10
285.305971
 20
228.424049
 30
0.0
 10
285.501047
 20
228.366863
 30
0.0
 10
285.672374
 20
228.269523
 30
0.0
 10
285.818657
 20
228.136035
 30
0.0
 10
285.938398
 20
227.966721
 30
0.0
 10
285.990436
 20
227.835964
 30
0.0
 10
286.017460
 20
227.768060
 30
0.0
 11
284.104750
 21
227.881060
 31
0.0
 11
284.228159
 21
228.053774
 31
0.0
 11
284.366879
 21
228.193415
 31
0.0
 11
284.520910
 21
228.299983
 31
0.0
 11
284.692708
 21
228.375010
 31
0.0
 11
284.884714
 21
228.420026
 31
0.0
 11
285.096930
 21
228.435031
 31
0.0
 11
285.309764
 21
228.416045
 31
0.0
 11
285.499934
 21
228.359086
 31
0.0
 11
285.667440
 21
228.264154
 31
0.0
 11
285.811673
 21
228.133087
 31
0.0
 11
285.928347
 21
227.967722
 31
0.0
 11
286.017460
 21
227.768060
 31
0.0
  0
LWPOLYLINE
  5
1a6
100
AcDbEntity
  8
Layer_1
 62
5
100
AcDbPolyline
 90
1
 70
1
 10
286.017460
 20
227.768060
 30
0.0
  0
SPLINE
  5
1a7
100
AcDbEntity
  8
Layer_1
 62
5
100
AcDbSpline
 70
0
 71
3
 72
19
 73
15
 74
13
 40
0.000000
 40
0.000000
 40
0.000000
 40
0.000000
 40
0.247938
 40
0.474305
 40
0.685794
 40
0.893295
 40
1.107881
 40
1.337043
 40
1.636464
 40
1.909036
 40
2.183062
 40
2.477510
 40
2.808914
 40
3.193417
 40
3.193417
 40
3.193417
 40
3.193417
 10
291.518590
 20
227.768060
 30
0.0
 10
291.561363
 20
227.838949
 30
0.0
 10
291.643188
 20
227.974559
 30
0.0
 10
291.797102
 20
228.145578
 30
0.0
 10
291.968300
 20
228.277965
 30
0.0
 10
292.160008
 20
228.370181
 30
0.0
 10
292.371620
 20
228.424175
 30
0.0
 10
292.619458
 20
228.442795
 30
0.0
 10
292.888184
 20
228.414453
 30
0.0
 10
293.150761
 20
228.297414
 30
0.0
 10
293.356101
 20
228.099081
 30
0.0
 10
293.502537
 20
227.833309
 30
0.0
 10
293.588895
 20
227.504285
 30
0.0
 10
293.597545
 20
227.265283
 30
0.0
 10
293.602190
 20
227.136919
 30
0.0
 11
291.518590
 21
227.768060
 31
0.0
 11
291.653638
 21
227.975991
 31
0.0
 11
291.805221
 21
228.144112
 31
0.0
 11
291.973340
 21
228.272422
 31
0.0
 11
292.160144
 21
228.362760
 31
0.0
 11
292.367771
 21
228.416963
 31
0.0
 11
292.596220
 21
228.435031
 31
0.0
 11
292.893262
 21
228.397365
 31
0.0
 11
293.141309
 21
228.284366
 31
0.0
 11
293.340360
 21
228.096034
 31
0.0
 11
293.485821
 21
227.840025
 31
0.0
 11
293.573098
 21
227.520320
 31
0.0
 11
293.602190
 21
227.136919
 31
0.0
  0
LWPOLYLINE
  5
1a8
100
AcDbEntity
  8
Layer_1
 62
5
100
AcDbPolyline
 90
4
 70
0
 10
293.602190
 20
227.136919
 30
0.0
 10
293.602190
 20
225.273811
 30
0.0
 10
293.092310
 20
225.273811
 30
0.0
 10
293.092310
 20
227.120383
 30
0.0
  0
SPLINE
  5
1a9
100
AcDbEntity
  8
Layer_1
 62
5
100
AcDbSpline
 70
0
 71
3
 72
19
 73
15
 74
13
 40
0.000000
 40
0.000000
 40
0.000000
 40
0.000000
 40
0.270964
 40
0.496690
 40
0.686659
 40
0.858174
 40
1.033351
 40
1.231396
 40
1.477494
 40
1.702719
 40
1.927126
 40
2.160452
 40
2.410312
 40
2.691664
 40
2.691664
 40
2.691664
 40
2.691664
 10
293.092310
 20
227.120383
 30
0.0
 10
293.089626
 20
227.210819
 30
0.0
 10
293.084706
 20
227.376592
 30
0.0
 10
293.034225
 20
227.601561
 30
0.0
 10
292.947418
 20
227.779941
 30
0.0
 10
292.817122
 20
227.908229
 30
0.0
 10
292.646973
 20
227.981706
 30
0.0
 10
292.439538
 20
228.001606
 30
0.0
 10
292.215540
 20
227.977610
 30
0.0
 10
291.997512
 20
227.888266
 30
0.0
 10
291.822256
 20
227.737178
 30
0.0
 10
291.693646
 20
227.536130
 30
0.0
 10
291.616067
 20
227.289875
 30
0.0
 10
291.608198
 20
227.112404
 30
0.0
 10
291.604030
 20
227.018408
 30
0.0
 11
293.092310
 21
227.120383
 31
0.0
 11
293.074854
 21
227.390785
 31
0.0
 11
293.022488
 21
227.610352
 31
0.0
 11
292.935210
 21
227.779085
 31
0.0
 11
292.812109
 21
227.898515
 31
0.0
 11
292.652259
 21
227.970173
 31
0.0
 11
292.455660
 21
227.994059
 31
0.0
 11
292.211287
 21
227.964967
 31
0.0
 11
292.003660
 21
227.877691
 31
0.0
 11
291.832780
 21
227.732231
 31
0.0
 11
291.705697
 21
227.536550
 31
0.0
 11
291.629447
 21
227.298609
 31
0.0
 11
291.604030
 21
227.018408
 31
0.0
  0
LWPOLYLINE
  5
1aa
100
AcDbEntity
  8
Layer_1
 62
5
100
AcDbPolyline
 90
4
 70
0
 10
291.604030
 20
227.018408
 30
0.0
 10
291.604030
 20
225.273811
 30
0.0
 10
291.094160
 20
225.273811
 30
0.0
 10
291.094160
 20
227.120383
 30
0.0
  0
SPLINE
  5
1ab
100
AcDbEntity
  8
Layer_1
 62
5
100
AcDbSpline
 70
0
 71
3
 72
19
 73
15
 74
13
 40
0.000000
 40
0.000000
 40
0.000000
 40
0.000000
 40
0.272187
 40
0.497912
 40
0.686794
 40
0.858753
 40
1.035611
 40
1.236696
 40
1.479791
 40
1.703680
 40
1.928615
 40
2.161688
 40
2.410674
 40
2.690501
 40
2.690501
 40
2.690501
 40
2.690501
 10
291.094160
 20
227.120383
 30
0.0
 10
291.091477
 20
227.211217
 30
0.0
 10
291.086569
 20
227.377379
 30
0.0
 10
291.036379
 20
227.602537
 30
0.0
 10
290.948892
 20
227.780330
 30
0.0
 10
290.818074
 20
227.908644
 30
0.0
 10
290.645855
 20
227.981746
 30
0.0
 10
290.437914
 20
228.001626
 30
0.0
 10
290.214295
 20
227.977349
 30
0.0
 10
289.998070
 20
227.886645
 30
0.0
 10
289.824637
 20
227.734269
 30
0.0
 10
289.695528
 20
227.533964
 30
0.0
 10
289.617968
 20
227.288543
 30
0.0
 10
289.610056
 20
227.111887
 30
0.0
 10
289.605870
 20
227.018408
 30
0.0
 11
291.094160
 21
227.120383
 31
0.0
 11
291.076704
 21
227.392009
 31
0.0
 11
291.024338
 21
227.611577
 31
0.0
 11
290.937060
 21
227.779085
 31
0.0
 11
290.813341
 21
227.898515
 31
0.0
 11
290.651651
 21
227.970173
 31
0.0
 11
290.451990
 21
227.994059
 31
0.0
 11
290.210679
 21
227.964661
 31
0.0
 11
290.004892
 21
227.876466
 31
0.0
 11
289.834630
 21
227.729475
 31
0.0
 11
289.707541
 21
227.534100
 31
0.0
 11
289.631288
 21
227.297078
 31
0.0
 11
289.605870
 21
227.018408
 31
0.0
  0
LWPOLYLINE
  5
1ac
100
AcDbEntity
  8
Layer_1
 62
5
100
AcDbPolyline
 90
6
 70
0
 10
289.605870
 20
227.018408
 30
0.0
 10
289.605870
 20
225.273811
 30
0.0
 10
289.096000
 20
225.273811
 30
0.0
 10
289.096000
 20
228.360617
 30
0.0
 10
289.605870
 20
228.360617
 30
0.0
 10
289.605870
 20
227.881060
 30
0.0
  0
SPLINE
  5
1ad
100
AcDbEntity
  8
Layer_1
 62
5
100
AcDbSpline
 70
0
 71
3
 72
19
 73
15
 74
13
 40
0.000000
 40
0.000000
 40
0.000000
 40
0.000000
 40
0.212276
 40
0.409110
 40
0.596414
 40
0.783880
 40
0.981093
 40
1.193839
 40
1.407514
 40
1.606031
 40
1.798571
 40
1.993460
 40
2.195841
 40
2.414488
 40
2.414488
 40
2.414488
 40
2.414488
 10
289.605870
 20
227.881060
 30
0.0
 10
289.645100
 20
227.940113
 30
0.0
 10
289.720708
 20
228.053923
 30
0.0
 10
289.861920
 20
228.195769
 30
0.0
 10
290.018973
 20
228.305525
 30
0.0
 10
290.195143
 20
228.381681
 30
0.0
 10
290.390244
 20
228.426085
 30
0.0
 10
290.598327
 20
228.440196
 30
0.0
 10
290.807098
 20
228.424049
 30
0.0
 10
291.002174
 20
228.366862
 30
0.0
 10
291.173504
 20
228.269525
 30
0.0
 10
291.319787
 20
228.136035
 30
0.0
 10
291.439528
 20
227.966721
 30
0.0
 10
291.491566
 20
227.835964
 30
0.0
 10
291.518590
 20
227.768060
 30
0.0
 11
289.605870
 21
227.881060
 31
0.0
 11
289.729284
 21
228.053774
 31
0.0
 11
289.868008
 21
228.193415
 31
0.0
 11
290.022040
 21
228.299983
 31
0.0
 11
290.193838
 21
228.375010
 31
0.0
 11
290.385844
 21
228.420026
 31
0.0
 11
290.598060
 21
228.435031
 31
0.0
 11
290.810890
 21
228.416045
 31
0.0
 11
291.001060
 21
228.359086
 31
0.0
 11
291.168570
 21
228.264154
 31
0.0
 11
291.312803
 21
228.133087
 31
0.0
 11
291.429477
 21
227.967722
 31
0.0
 11
291.518590
 21
227.768060
 31
0.0
  0
LWPOLYLINE
  5
1ae
100
AcDbEntity
  8
Layer_1
 62
5
100
AcDbPolyline
 90
1
 70
1
 10
291.518590
 20
227.768060
 30
0.0
  0
ENDSEC
  0
SECTION
  2
OBJECTS
  0
DICTIONARY
  5
C
330
0
100
AcDbDictionary
  3
ACAD_GROUP
350
D
  3
ACAD_MLINESTYLE
350
17
  0
DICTIONARY
  5
D
330
C
100
AcDbDictionary
  0
DICTIONARY
  5
1A
330
C
100
AcDbDictionary
  0
DICTIONARY
  5
17
330
C
100
AcDbDictionary
  3
STANDARD
350
18
  0
DICTIONARY
  5
19
330
C
100
AcDbDictionary
  0
ENDSEC
  0
EOF
