<?xml version="1.0" encoding="UTF-8" standalone="no"?>
<!-- Created with Inkscape (http://www.inkscape.org/) -->

<svg
   xmlns:dc="http://purl.org/dc/elements/1.1/"
   xmlns:cc="http://creativecommons.org/ns#"
   xmlns:rdf="http://www.w3.org/1999/02/22-rdf-syntax-ns#"
   xmlns:svg="http://www.w3.org/2000/svg"
   xmlns="http://www.w3.org/2000/svg"
   xmlns:sodipodi="http://sodipodi.sourceforge.net/DTD/sodipodi-0.dtd"
   xmlns:inkscape="http://www.inkscape.org/namespaces/inkscape"
   width="297mm"
   height="210mm"
   viewBox="0 0 297 210"
   version="1.1"
   id="svg8"
   inkscape:version="0.92.4 (unknown)"
   sodipodi:docname="sunbaordshiledv6_headband.svg">
  <defs
     id="defs2" />
  <sodipodi:namedview
     id="base"
     pagecolor="#ffffff"
     bordercolor="#666666"
     borderopacity="1.0"
     inkscape:pageopacity="0.0"
     inkscape:pageshadow="2"
     inkscape:zoom="0.175"
     inkscape:cx="687.58105"
     inkscape:cy="-630.08847"
     inkscape:document-units="mm"
     inkscape:current-layer="layer1"
     showgrid="false"
     inkscape:window-width="1920"
     inkscape:window-height="993"
     inkscape:window-x="0"
     inkscape:window-y="46"
     inkscape:window-maximized="1"
     fit-margin-top="0"
     fit-margin-left="0"
     fit-margin-right="0"
     fit-margin-bottom="0" />
  <metadata
     id="metadata5">
    <rdf:RDF>
      <cc:Work
         rdf:about="">
        <dc:format>image/svg+xml</dc:format>
        <dc:type
           rdf:resource="http://purl.org/dc/dcmitype/StillImage" />
        <dc:title></dc:title>
      </cc:Work>
    </rdf:RDF>
  </metadata>
  <g
     inkscape:label="Layer 1"
     inkscape:groupmode="layer"
     id="layer1"
     transform="translate(162.92546,49.829499)">
    <path
       d="m -45.186567,103.63107 c 0,-1.37929 -1.11826,-2.49754 -2.49755,-2.49754 -1.37929,0 -2.49755,1.11825 -2.49755,2.49754 0,1.37928 1.11794,2.49753 2.49755,2.49753 1.37929,0 2.49755,-1.11825 2.49755,-2.49753 z"
       style="fill:none;stroke:#373435;stroke-width:0.07612184;stroke-linecap:butt;stroke-linejoin:bevel;stroke-dasharray:none"
       id="path88"
       inkscape:connector-curvature="0" />
    <path
       d="m -65.186627,92.041475 c 0,-1.379278 -1.11826,-2.497529 -2.49755,-2.497529 -1.37929,0 -2.49754,1.118251 -2.49754,2.497529 0,1.37929 1.11797,2.497542 2.49754,2.497542 1.37929,0 2.49755,-1.118252 2.49755,-2.497542 z"
       style="fill:none;stroke:#373435;stroke-width:0.07612184;stroke-linecap:butt;stroke-linejoin:bevel;stroke-dasharray:none"
       id="path90"
       inkscape:connector-curvature="0" />
    <path
       d="m 42.235878,92.408378 c 0,-1.379277 -1.118252,-2.497529 -2.497538,-2.497529 -1.379285,0 -2.497539,1.118252 -2.497539,2.497529 0,1.37929 1.117971,2.497542 2.497539,2.497542 1.379286,0 2.497538,-1.118252 2.497538,-2.497542 z"
       style="fill:none;stroke:#373435;stroke-width:0.07612184;stroke-linecap:butt;stroke-linejoin:bevel;stroke-dasharray:none"
       id="path92"
       inkscape:connector-curvature="0" />
    <path
       d="m 63.287579,22.402191 c 0.13804,0 0.249651,0.111858 0.249651,0.249615 0,0.138077 -0.111898,0.249652 -0.249651,0.249652 -0.138076,0 -0.249651,-0.111885 -0.249651,-0.249652 0,-0.138041 0.111898,-0.249615 0.249651,-0.249615 z"
       style="fill:none;stroke:#373435;stroke-width:0.07612184;stroke-linecap:butt;stroke-linejoin:bevel;stroke-dasharray:none"
       id="path94"
       inkscape:connector-curvature="0" />
    <path
       d="m 19.751492,103.64604 c 0,-1.37928 -1.118252,-2.49753 -2.497542,-2.49753 -1.379277,0 -2.497529,1.11825 -2.497529,2.49753 0,1.37929 1.118252,2.49737 2.497529,2.49754 1.37929,0 2.497542,-1.11825 2.497542,-2.49754 z"
       style="fill:none;stroke:#373435;stroke-width:0.07612184;stroke-linecap:butt;stroke-linejoin:bevel;stroke-dasharray:none"
       id="path96"
       inkscape:connector-curvature="0" />
    <g
       id="Layer1002"
       transform="matrix(0.35241593,0,0,0.35241593,-198.09946,-186.31512)">
      <path
         d="M 290.3672,576.2985 V 564.0542"
         style="fill:none;stroke:#373435;stroke-width:0.21600001;stroke-linecap:butt;stroke-linejoin:bevel;stroke-dasharray:none"
         id="path98"
         inkscape:connector-curvature="0" />
      <path
         d="m 290.3672,576.2985 c 0,2.0982 1.6265,3.7987 3.6318,3.7995 2.0058,0 3.6323,-1.7013 3.6323,-3.7995"
         style="fill:none;stroke:#373435;stroke-width:0.21600001;stroke-linecap:butt;stroke-linejoin:bevel;stroke-dasharray:none"
         id="path100"
         inkscape:connector-curvature="0" />
      <path
         d="M 297.6318,576.2985 V 564.0542"
         style="fill:none;stroke:#373435;stroke-width:0.21600001;stroke-linecap:butt;stroke-linejoin:bevel;stroke-dasharray:none"
         id="path102"
         inkscape:connector-curvature="0" />
      <path
         d="m 297.6318,564.0542 c 0,-1.3572 -0.6919,-2.6121 -1.8158,-3.2904 -1.124,-0.6789 -2.5084,-0.6789 -3.6318,0 -1.1239,0.6783 -1.8159,1.9324 -1.8159,3.2904"
         style="fill:none;stroke:#373435;stroke-width:0.21600001;stroke-linecap:butt;stroke-linejoin:bevel;stroke-dasharray:none"
         id="path104"
         inkscape:connector-curvature="0" />
    </g>
    <path
       d="m -100.52455,17.411382 v 0.260154"
       style="fill:none;stroke:#373435;stroke-width:0.07612184;stroke-linecap:butt;stroke-linejoin:bevel;stroke-dasharray:none"
       id="path107"
       inkscape:connector-curvature="0" />
    <path
       d="m -100.52455,17.541352 -0.0261,-9.2513764"
       style="fill:none;stroke:#373435;stroke-width:0.07612184;stroke-linecap:butt;stroke-linejoin:bevel;stroke-dasharray:none"
       id="path109"
       inkscape:connector-curvature="0" />
    <path
       d="m -98.489027,6.2661566 c -0.55135,0 -1.0799,0.213882 -1.4671,0.594279 -0.387493,0.380292 -0.601363,0.895172 -0.594293,1.429329"
       style="fill:none;stroke:#373435;stroke-width:0.07612184;stroke-linecap:butt;stroke-linejoin:bevel;stroke-dasharray:none"
       id="path111"
       inkscape:connector-curvature="0" />
    <path
       d="m -98.489027,6.2661566 h 5.64823"
       style="fill:none;stroke:#373435;stroke-width:0.07612184;stroke-linecap:butt;stroke-linejoin:bevel;stroke-dasharray:none"
       id="path113"
       inkscape:connector-curvature="0" />
    <path
       d="m 71.674652,17.411382 v 0.260154"
       style="fill:none;stroke:#373435;stroke-width:0.07612184;stroke-linecap:butt;stroke-linejoin:bevel;stroke-dasharray:none"
       id="path115"
       inkscape:connector-curvature="0" />
    <path
       d="m 69.703377,20.284558 c 1.217456,-0.530562 1.971275,-1.529555 1.971275,-2.613022"
       style="fill:none;stroke:#373435;stroke-width:0.07612184;stroke-linecap:butt;stroke-linejoin:bevel;stroke-dasharray:none"
       id="path117"
       inkscape:connector-curvature="0" />
    <path
       d="m 69.703377,20.284558 c -1.982972,0.864018 -3.231087,2.47544 -3.283633,4.239423"
       style="fill:none;stroke:#373435;stroke-width:0.07612184;stroke-linecap:butt;stroke-linejoin:bevel;stroke-dasharray:none"
       id="path119"
       inkscape:connector-curvature="0" />
    <path
       d="m 66.345913,27.323537 c 0.02771,-0.934042 0.05227,-1.86731 0.07383,-2.799556"
       style="fill:none;stroke:#373435;stroke-width:0.07612184;stroke-linecap:butt;stroke-linejoin:bevel;stroke-dasharray:none"
       id="path121"
       inkscape:connector-curvature="0" />
    <path
       d="m 65.053359,47.25724 c 0.46103,-4.17761 0.776688,-8.373896 0.995961,-12.567997"
       style="fill:none;stroke:#373435;stroke-width:0.07612184;stroke-linecap:butt;stroke-linejoin:bevel;stroke-dasharray:none"
       id="path123"
       inkscape:connector-curvature="0" />
    <path
       d="m 61.559332,66.913167 c 1.049246,-4.065928 1.873583,-8.183908 2.522909,-12.332724"
       style="fill:none;stroke:#373435;stroke-width:0.07612184;stroke-linecap:butt;stroke-linejoin:bevel;stroke-dasharray:none"
       id="path125"
       inkscape:connector-curvature="0" />
    <path
       d="m 54.689412,85.637132 c 1.793936,-3.555137 3.302697,-7.266324 4.582494,-11.03534 0.450636,-1.326847 0.872584,-2.660671 1.268205,-4.001191"
       style="fill:none;stroke:#373435;stroke-width:0.07612184;stroke-linecap:butt;stroke-linejoin:bevel;stroke-dasharray:none"
       id="path127"
       inkscape:connector-curvature="0" />
    <path
       d="m 44.298463,100.47761 c 1.097494,-1.131912 2.145402,-2.309022 3.138793,-3.527962 2.031925,-2.493066 3.835273,-5.160008 5.439927,-7.949664"
       style="fill:none;stroke:#373435;stroke-width:0.07612184;stroke-linecap:butt;stroke-linejoin:bevel;stroke-dasharray:none"
       id="path129"
       inkscape:connector-curvature="0" />
    <path
       d="m 26.558791,112.87409 c 0.920862,-0.41179 1.831506,-0.84724 2.730695,-1.30707 3.365854,-1.72113 6.570832,-3.78481 9.540889,-6.14127"
       style="fill:none;stroke:#373435;stroke-width:0.07612184;stroke-linecap:butt;stroke-linejoin:bevel;stroke-dasharray:none"
       id="path131"
       inkscape:connector-curvature="0" />
    <path
       d="m 8.7691553,118.0262 c 0.878684,-0.14135 1.7555967,-0.2961 2.6305117,-0.46533 3.946135,-0.76323 7.852205,-1.82212 11.62654,-3.23768"
       style="fill:none;stroke:#373435;stroke-width:0.07612184;stroke-linecap:butt;stroke-linejoin:bevel;stroke-dasharray:none"
       id="path133"
       inkscape:connector-curvature="0" />
    <path
       d="m -12.539225,119.46822 c 4.6868203,-0.0226 9.3653363,-0.14975 14.0092743,-0.55214"
       style="fill:none;stroke:#373435;stroke-width:0.07612184;stroke-linecap:butt;stroke-linejoin:bevel;stroke-dasharray:none"
       id="path135"
       inkscape:connector-curvature="0" />
    <path
       d="m -30.62142,118.87901 c 4.724333,0.42226 9.487016,0.55855 14.249957,0.58692"
       style="fill:none;stroke:#373435;stroke-width:0.07612184;stroke-linecap:butt;stroke-linejoin:bevel;stroke-dasharray:none"
       id="path137"
       inkscape:connector-curvature="0" />
    <path
       d="m -51.931977,114.29323 c 2.10735,0.79167 4.25293,1.47599 6.41583,2.05529 2.50695,0.67139 5.03755,1.20146 7.58534,1.61915"
       style="fill:none;stroke:#373435;stroke-width:0.07612184;stroke-linecap:butt;stroke-linejoin:bevel;stroke-dasharray:none"
       id="path139"
       inkscape:connector-curvature="0" />
    <path
       d="m -67.823187,105.43772 c 3.75284,2.98522 7.94003,5.44752 12.3566,7.40919"
       style="fill:none;stroke:#373435;stroke-width:0.07612184;stroke-linecap:butt;stroke-linejoin:bevel;stroke-dasharray:none"
       id="path141"
       inkscape:connector-curvature="0" />
    <path
       d="m -81.729297,88.952553 c 2.40296,4.12936 5.21339,8.011575 8.45717,11.458847"
       style="fill:none;stroke:#373435;stroke-width:0.07612184;stroke-linecap:butt;stroke-linejoin:bevel;stroke-dasharray:none"
       id="path143"
       inkscape:connector-curvature="0" />
    <path
       d="m -89.523107,70.609166 c 0.94575,3.185734 2.0535,6.327522 3.35367,9.411231 0.79548,1.887081 1.66331,3.752067 2.60492,5.580789"
       style="fill:none;stroke:#373435;stroke-width:0.07612184;stroke-linecap:butt;stroke-linejoin:bevel;stroke-dasharray:none"
       id="path145"
       inkscape:connector-curvature="0" />
    <path
       d="m -93.012527,54.593905 c 0.62546,4.152236 1.42852,8.271132 2.47016,12.328743"
       style="fill:none;stroke:#373435;stroke-width:0.07612184;stroke-linecap:butt;stroke-linejoin:bevel;stroke-dasharray:none"
       id="path147"
       inkscape:connector-curvature="0" />
    <path
       d="m -94.893797,34.724837 c 0.21698,4.173485 0.51357,8.358213 0.95051,12.526131"
       style="fill:none;stroke:#373435;stroke-width:0.07612184;stroke-linecap:butt;stroke-linejoin:bevel;stroke-dasharray:none"
       id="path149"
       inkscape:connector-curvature="0" />
    <path
       d="m -95.208407,27.319732 c -0.0266,-0.766822 -0.0517,-1.53382 -0.0756,-2.300642"
       style="fill:none;stroke:#373435;stroke-width:0.07612184;stroke-linecap:butt;stroke-linejoin:bevel;stroke-dasharray:none"
       id="path151"
       inkscape:connector-curvature="0" />
    <path
       d="m -95.283997,25.018985 c -0.0639,-2.03781 -1.35984,-3.832277 -3.27428,-4.533549"
       style="fill:none;stroke:#373435;stroke-width:0.07612184;stroke-linecap:butt;stroke-linejoin:bevel;stroke-dasharray:none"
       id="path153"
       inkscape:connector-curvature="0" />
    <path
       d="m -90.542157,66.922578 1.01905,3.686588"
       style="fill:none;stroke:#373435;stroke-width:0.07612184;stroke-linecap:butt;stroke-linejoin:bevel;stroke-dasharray:none"
       id="path155"
       inkscape:connector-curvature="0" />
    <path
       d="m 61.590098,66.839831 -1.049705,3.76077"
       style="fill:none;stroke:#373435;stroke-width:0.07612184;stroke-linecap:butt;stroke-linejoin:bevel;stroke-dasharray:none"
       id="path157"
       inkscape:connector-curvature="0" />
    <path
       d="m 54.689412,85.637132 -1.811947,3.362852"
       style="fill:none;stroke:#373435;stroke-width:0.07612184;stroke-linecap:butt;stroke-linejoin:bevel;stroke-dasharray:none"
       id="path159"
       inkscape:connector-curvature="0" />
    <path
       d="m -83.564517,85.601079 1.83522,3.351367"
       style="fill:none;stroke:#373435;stroke-width:0.07612184;stroke-linecap:butt;stroke-linejoin:bevel;stroke-dasharray:none"
       id="path161"
       inkscape:connector-curvature="0" />
    <path
       d="m 68.935253,26.671885 -2.58934,0.651652"
       style="fill:none;stroke:#373435;stroke-width:0.07612184;stroke-linecap:butt;stroke-linejoin:bevel;stroke-dasharray:none"
       id="path163"
       inkscape:connector-curvature="0" />
    <path
       d="m 69.491011,26.69148 c -0.179626,-0.05885 -0.37222,-0.06573 -0.555758,-0.01981"
       style="fill:none;stroke:#373435;stroke-width:0.07612184;stroke-linecap:butt;stroke-linejoin:bevel;stroke-dasharray:none"
       id="path165"
       inkscape:connector-curvature="0" />
    <path
       d="M 70.178399,26.917237 69.491011,26.69148"
       style="fill:none;stroke:#373435;stroke-width:0.07612184;stroke-linecap:butt;stroke-linejoin:bevel;stroke-dasharray:none"
       id="path167"
       inkscape:connector-curvature="0" />
    <path
       d="m 70.864974,27.905341 c 0.0173,-0.445559 -0.262832,-0.848547 -0.686575,-0.987787"
       style="fill:none;stroke:#373435;stroke-width:0.07612184;stroke-linecap:butt;stroke-linejoin:bevel;stroke-dasharray:none"
       id="path169"
       inkscape:connector-curvature="0" />
    <path
       d="m 70.748007,30.917441 0.11696,-3.0121"
       style="fill:none;stroke:#373435;stroke-width:0.07612184;stroke-linecap:butt;stroke-linejoin:bevel;stroke-dasharray:none"
       id="path171"
       inkscape:connector-curvature="0" />
    <path
       d="m 69.790389,35.372648 c 0.432344,-0.106571 0.74194,-0.486405 0.759209,-0.931224"
       style="fill:none;stroke:#373435;stroke-width:0.07612184;stroke-linecap:butt;stroke-linejoin:bevel;stroke-dasharray:none"
       id="path173"
       inkscape:connector-curvature="0" />
    <path
       d="m 69.086509,35.546176 0.70388,-0.173528"
       style="fill:none;stroke:#373435;stroke-width:0.07612184;stroke-linecap:butt;stroke-linejoin:bevel;stroke-dasharray:none"
       id="path175"
       inkscape:connector-curvature="0" />
    <path
       d="m 68.52927,35.523093 c 0.179626,0.06045 0.373031,0.06854 0.557239,0.02308"
       style="fill:none;stroke:#373435;stroke-width:0.07612184;stroke-linecap:butt;stroke-linejoin:bevel;stroke-dasharray:none"
       id="path177"
       inkscape:connector-curvature="0" />
    <path
       d="m 66.014255,34.677577 2.515015,0.845516"
       style="fill:none;stroke:#373435;stroke-width:0.07612184;stroke-linecap:butt;stroke-linejoin:bevel;stroke-dasharray:none"
       id="path179"
       inkscape:connector-curvature="0" />
    <path
       d="m 70.748007,30.917441 -0.198409,3.523983"
       style="fill:none;stroke:#373435;stroke-width:0.07612184;stroke-linecap:butt;stroke-linejoin:bevel;stroke-dasharray:none"
       id="path181"
       inkscape:connector-curvature="0" />
    <path
       d="M 67.694256,46.863944 65.053359,47.25724"
       style="fill:none;stroke:#373435;stroke-width:0.07612184;stroke-linecap:butt;stroke-linejoin:bevel;stroke-dasharray:none"
       id="path183"
       inkscape:connector-curvature="0" />
    <path
       d="m 68.245363,46.938093 c -0.172824,-0.07644 -0.364115,-0.102309 -0.551107,-0.07432"
       style="fill:none;stroke:#373435;stroke-width:0.07612184;stroke-linecap:butt;stroke-linejoin:bevel;stroke-dasharray:none"
       id="path185"
       inkscape:connector-curvature="0" />
    <path
       d="M 68.9072,47.230598 68.245363,46.938093"
       style="fill:none;stroke:#373435;stroke-width:0.07612184;stroke-linecap:butt;stroke-linejoin:bevel;stroke-dasharray:none"
       id="path187"
       inkscape:connector-curvature="0" />
    <path
       d="m 69.492985,48.281396 c 0.06114,-0.441753 -0.17811,-0.870292 -0.585891,-1.050728"
       style="fill:none;stroke:#373435;stroke-width:0.07612184;stroke-linecap:butt;stroke-linejoin:bevel;stroke-dasharray:none"
       id="path189"
       inkscape:connector-curvature="0" />
    <path
       d="M 69.079707,51.267345 69.492985,48.28129"
       style="fill:none;stroke:#373435;stroke-width:0.07612184;stroke-linecap:butt;stroke-linejoin:bevel;stroke-dasharray:none"
       id="path191"
       inkscape:connector-curvature="0" />
    <path
       d="m 67.687948,55.606572 c 0.440766,-0.06343 0.786098,-0.410775 0.847243,-0.851824"
       style="fill:none;stroke:#373435;stroke-width:0.07612184;stroke-linecap:butt;stroke-linejoin:bevel;stroke-dasharray:none"
       id="path193"
       inkscape:connector-curvature="0" />
    <path
       d="m 66.970395,55.709865 0.717553,-0.103294"
       style="fill:none;stroke:#373435;stroke-width:0.07612184;stroke-linecap:butt;stroke-linejoin:bevel;stroke-dasharray:none"
       id="path195"
       inkscape:connector-curvature="0" />
    <path
       d="m 66.418264,55.631946 c 0.172826,0.07792 0.364328,0.105092 0.552131,0.07792"
       style="fill:none;stroke:#373435;stroke-width:0.07612184;stroke-linecap:butt;stroke-linejoin:bevel;stroke-dasharray:none"
       id="path197"
       inkscape:connector-curvature="0" />
    <path
       d="m 63.998542,54.542875 2.419722,1.089071"
       style="fill:none;stroke:#373435;stroke-width:0.07612184;stroke-linecap:butt;stroke-linejoin:bevel;stroke-dasharray:none"
       id="path199"
       inkscape:connector-curvature="0" />
    <path
       d="m 69.079707,51.267345 -0.544516,3.487403"
       style="fill:none;stroke:#373435;stroke-width:0.07612184;stroke-linecap:butt;stroke-linejoin:bevel;stroke-dasharray:none"
       id="path201"
       inkscape:connector-curvature="0" />
    <path
       d="m 46.577043,101.87569 -2.27858,-1.39197"
       style="fill:none;stroke:#373435;stroke-width:0.07612184;stroke-linecap:butt;stroke-linejoin:bevel;stroke-dasharray:none"
       id="path203"
       inkscape:connector-curvature="0" />
    <path
       d="m 46.952156,102.28597 c -0.08374,-0.16973 -0.21367,-0.31189 -0.375006,-0.4106"
       style="fill:none;stroke:#373435;stroke-width:0.07612184;stroke-linecap:butt;stroke-linejoin:bevel;stroke-dasharray:none"
       id="path205"
       inkscape:connector-curvature="0" />
    <path
       d="M 47.272326,102.9348 46.95205,102.28597"
       style="fill:none;stroke:#373435;stroke-width:0.07612184;stroke-linecap:butt;stroke-linejoin:bevel;stroke-dasharray:none"
       id="path207"
       inkscape:connector-curvature="0" />
    <path
       d="m 47.048048,104.11677 c 0.330179,-0.29969 0.421667,-0.7818 0.224278,-1.18169"
       style="fill:none;stroke:#373435;stroke-width:0.07612184;stroke-linecap:butt;stroke-linejoin:bevel;stroke-dasharray:none"
       id="path209"
       inkscape:connector-curvature="0" />
    <path
       d="m 44.816127,106.1426 2.231921,-2.02594"
       style="fill:none;stroke:#373435;stroke-width:0.07612184;stroke-linecap:butt;stroke-linejoin:bevel;stroke-dasharray:none"
       id="path211"
       inkscape:connector-curvature="0" />
    <path
       d="m 40.9651,108.57948 c 0.378813,0.23398 0.866804,0.189 1.196382,-0.11002"
       style="fill:none;stroke:#373435;stroke-width:0.07612184;stroke-linecap:butt;stroke-linejoin:bevel;stroke-dasharray:none"
       id="path213"
       inkscape:connector-curvature="0" />
    <path
       d="m 40.348337,108.19859 0.616763,0.38089"
       style="fill:none;stroke:#373435;stroke-width:0.07612184;stroke-linecap:butt;stroke-linejoin:bevel;stroke-dasharray:none"
       id="path215"
       inkscape:connector-curvature="0" />
    <path
       d="m 39.974529,107.7845 c 0.08272,0.17074 0.212366,0.3144 0.373702,0.41388"
       style="fill:none;stroke:#373435;stroke-width:0.07612184;stroke-linecap:butt;stroke-linejoin:bevel;stroke-dasharray:none"
       id="path217"
       inkscape:connector-curvature="0" />
    <path
       d="m 38.816701,105.39738 1.157828,2.38712"
       style="fill:none;stroke:#373435;stroke-width:0.07612184;stroke-linecap:butt;stroke-linejoin:bevel;stroke-dasharray:none"
       id="path219"
       inkscape:connector-curvature="0" />
    <path
       d="m 44.816127,106.1426 -2.654645,2.32682"
       style="fill:none;stroke:#373435;stroke-width:0.07612184;stroke-linecap:butt;stroke-linejoin:bevel;stroke-dasharray:none"
       id="path221"
       inkscape:connector-curvature="0" />
    <path
       d="m 9.8632323,120.48466 -1.094077,-2.43558"
       style="fill:none;stroke:#373435;stroke-width:0.07612184;stroke-linecap:butt;stroke-linejoin:bevel;stroke-dasharray:none"
       id="path223"
       inkscape:connector-curvature="0" />
    <path
       d="m 9.9408323,121.03531 c 0.02637,-0.18704 -2.8e-4,-0.37811 -0.07765,-0.55033"
       style="fill:none;stroke:#373435;stroke-width:0.07612184;stroke-linecap:butt;stroke-linejoin:bevel;stroke-dasharray:none"
       id="path225"
       inkscape:connector-curvature="0" />
    <path
       d="m 9.8383503,121.75156 0.102429,-0.71625"
       style="fill:none;stroke:#373435;stroke-width:0.07612184;stroke-linecap:butt;stroke-linejoin:bevel;stroke-dasharray:none"
       id="path227"
       inkscape:connector-curvature="0" />
    <path
       d="m 8.9858263,122.59989 c 0.441746,-0.0606 0.789589,-0.40697 0.852844,-0.8485"
       style="fill:none;stroke:#373435;stroke-width:0.07612184;stroke-linecap:butt;stroke-linejoin:bevel;stroke-dasharray:none"
       id="path229"
       inkscape:connector-curvature="0" />
    <path
       d="m 5.9995853,123.01116 2.986241,-0.41127"
       style="fill:none;stroke:#373435;stroke-width:0.07612184;stroke-linecap:butt;stroke-linejoin:bevel;stroke-dasharray:none"
       id="path231"
       inkscape:connector-curvature="0" />
    <path
       d="m 1.4451683,122.84675 c 0.180402,0.40697 0.608655,0.64553 1.049429,0.58488"
       style="fill:none;stroke:#373435;stroke-width:0.07612184;stroke-linecap:butt;stroke-linejoin:bevel;stroke-dasharray:none"
       id="path233"
       inkscape:connector-curvature="0" />
    <path
       d="m 1.1518433,122.18373 0.293325,0.66302"
       style="fill:none;stroke:#373435;stroke-width:0.07612184;stroke-linecap:butt;stroke-linejoin:bevel;stroke-dasharray:none"
       id="path235"
       inkscape:connector-curvature="0" />
    <path
       d="m 1.0770263,121.6311 c -0.0281,0.18748 -0.0027,0.3793 0.07459,0.55263"
       style="fill:none;stroke:#373435;stroke-width:0.07612184;stroke-linecap:butt;stroke-linejoin:bevel;stroke-dasharray:none"
       id="path237"
       inkscape:connector-curvature="0" />
    <path
       d="m 1.4700493,119.00719 -0.393023,2.62391"
       style="fill:none;stroke:#373435;stroke-width:0.07612184;stroke-linecap:butt;stroke-linejoin:bevel;stroke-dasharray:none"
       id="path239"
       inkscape:connector-curvature="0" />
    <path
       d="m 5.9995853,123.01116 -3.504708,0.42018"
       style="fill:none;stroke:#373435;stroke-width:0.07612184;stroke-linecap:butt;stroke-linejoin:bevel;stroke-dasharray:none"
       id="path241"
       inkscape:connector-curvature="0" />
    <path
       d="m -30.194373,121.54077 -0.427047,-2.66176"
       style="fill:none;stroke:#373435;stroke-width:0.07612184;stroke-linecap:butt;stroke-linejoin:bevel;stroke-dasharray:none"
       id="path243"
       inkscape:connector-curvature="0" />
    <path
       d="m -30.260103,122.0929 c 0.0738,-0.17402 0.0964,-0.3656 0.0657,-0.55213"
       style="fill:none;stroke:#373435;stroke-width:0.07612184;stroke-linecap:butt;stroke-linejoin:bevel;stroke-dasharray:none"
       id="path245"
       inkscape:connector-curvature="0" />
    <path
       d="m -30.54202,122.75922 0.281917,-0.66632"
       style="fill:none;stroke:#373435;stroke-width:0.07612184;stroke-linecap:butt;stroke-linejoin:bevel;stroke-dasharray:none"
       id="path247"
       inkscape:connector-curvature="0" />
    <path
       d="m -31.583334,123.3616 c 0.442527,0.0541 0.867494,-0.1916 1.041314,-0.60238"
       style="fill:none;stroke:#373435;stroke-width:0.07612184;stroke-linecap:butt;stroke-linejoin:bevel;stroke-dasharray:none"
       id="path249"
       inkscape:connector-curvature="0" />
    <path
       d="m -34.575465,122.996 2.992131,0.3656"
       style="fill:none;stroke:#373435;stroke-width:0.07612184;stroke-linecap:butt;stroke-linejoin:bevel;stroke-dasharray:none"
       id="path251"
       inkscape:connector-curvature="0" />
    <path
       d="m -38.936507,121.67293 c 0.0705,0.43978 0.4233,0.77951 0.86524,0.83357"
       style="fill:none;stroke:#373435;stroke-width:0.07612184;stroke-linecap:butt;stroke-linejoin:bevel;stroke-dasharray:none"
       id="path253"
       inkscape:connector-curvature="0" />
    <path
       d="m -39.050857,120.95717 0.11442,0.71576"
       style="fill:none;stroke:#373435;stroke-width:0.07612184;stroke-linecap:butt;stroke-linejoin:bevel;stroke-dasharray:none"
       id="path255"
       inkscape:connector-curvature="0" />
    <path
       d="m -38.981647,120.40374 c -0.0751,0.17402 -0.0992,0.36612 -0.069,0.55343"
       style="fill:none;stroke:#373435;stroke-width:0.07612184;stroke-linecap:butt;stroke-linejoin:bevel;stroke-dasharray:none"
       id="path257"
       inkscape:connector-curvature="0" />
    <path
       d="m -37.931117,117.96735 -1.05053,2.43639"
       style="fill:none;stroke:#373435;stroke-width:0.07612184;stroke-linecap:butt;stroke-linejoin:bevel;stroke-dasharray:none"
       id="path259"
       inkscape:connector-curvature="0" />
    <path
       d="m -34.575465,122.996 -3.495712,-0.4895"
       style="fill:none;stroke:#373435;stroke-width:0.07612184;stroke-linecap:butt;stroke-linejoin:bevel;stroke-dasharray:none"
       id="path261"
       inkscape:connector-curvature="0" />
    <path
       d="m -68.933877,107.74497 1.15833,-2.40595"
       style="fill:none;stroke:#373435;stroke-width:0.07612184;stroke-linecap:butt;stroke-linejoin:bevel;stroke-dasharray:none"
       id="path263"
       inkscape:connector-curvature="0" />
    <path
       d="m -69.305107,108.15883 c 0.16034,-0.10029 0.28901,-0.24355 0.37123,-0.41386"
       style="fill:none;stroke:#373435;stroke-width:0.07612184;stroke-linecap:butt;stroke-linejoin:bevel;stroke-dasharray:none"
       id="path265"
       inkscape:connector-curvature="0" />
    <path
       d="m -69.919167,108.54191 0.61406,-0.38308"
       style="fill:none;stroke:#373435;stroke-width:0.07612184;stroke-linecap:butt;stroke-linejoin:bevel;stroke-dasharray:none"
       id="path267"
       inkscape:connector-curvature="0" />
    <path
       d="m -71.117337,108.43643 c 0.33116,0.29872 0.82006,0.34174 1.19817,0.10576"
       style="fill:none;stroke:#373435;stroke-width:0.07612184;stroke-linecap:butt;stroke-linejoin:bevel;stroke-dasharray:none"
       id="path269"
       inkscape:connector-curvature="0" />
    <path
       d="m -73.355057,106.41692 2.23772,2.01951"
       style="fill:none;stroke:#373435;stroke-width:0.07612184;stroke-linecap:butt;stroke-linejoin:bevel;stroke-dasharray:none"
       id="path271"
       inkscape:connector-curvature="0" />
    <path
       d="m -76.162957,102.8275 c -0.19511,0.40041 -0.10177,0.88121 0.22864,1.1796"
       style="fill:none;stroke:#373435;stroke-width:0.07612184;stroke-linecap:butt;stroke-linejoin:bevel;stroke-dasharray:none"
       id="path273"
       inkscape:connector-curvature="0" />
    <path
       d="m -75.845197,102.17587 -0.31776,0.65163"
       style="fill:none;stroke:#373435;stroke-width:0.07612184;stroke-linecap:butt;stroke-linejoin:bevel;stroke-dasharray:none"
       id="path275"
       inkscape:connector-curvature="0" />
    <path
       d="m -75.470457,101.7628 c -0.16166,0.0992 -0.29181,0.24254 -0.37484,0.41307"
       style="fill:none;stroke:#373435;stroke-width:0.07612184;stroke-linecap:butt;stroke-linejoin:bevel;stroke-dasharray:none"
       id="path277"
       inkscape:connector-curvature="0" />
    <path
       d="m -73.210207,100.37302 -2.26025,1.38978"
       style="fill:none;stroke:#373435;stroke-width:0.07612184;stroke-linecap:butt;stroke-linejoin:bevel;stroke-dasharray:none"
       id="path279"
       inkscape:connector-curvature="0" />
    <path
       d="m -73.355057,106.41692 -2.57926,-2.40982"
       style="fill:none;stroke:#373435;stroke-width:0.07612184;stroke-linecap:butt;stroke-linejoin:bevel;stroke-dasharray:none"
       id="path281"
       inkscape:connector-curvature="0" />
    <path
       d="m -97.238937,35.596431 2.50298,-0.930237"
       style="fill:none;stroke:#373435;stroke-width:0.07612184;stroke-linecap:butt;stroke-linejoin:bevel;stroke-dasharray:none"
       id="path283"
       inkscape:connector-curvature="0" />
    <path
       d="m -97.793247,35.637488 c 0.18501,0.03905 0.37729,0.02488 0.55442,-0.04105"
       style="fill:none;stroke:#373435;stroke-width:0.07612184;stroke-linecap:butt;stroke-linejoin:bevel;stroke-dasharray:none"
       id="path285"
       inkscape:connector-curvature="0" />
    <path
       d="m -98.501527,35.487852 0.70828,0.149636"
       style="fill:none;stroke:#373435;stroke-width:0.07612184;stroke-linecap:butt;stroke-linejoin:bevel;stroke-dasharray:none"
       id="path287"
       inkscape:connector-curvature="0" />
    <path
       d="m -99.291397,34.580662 c 0.0312,0.444855 0.35371,0.814786 0.78987,0.90719"
       style="fill:none;stroke:#373435;stroke-width:0.07612184;stroke-linecap:butt;stroke-linejoin:bevel;stroke-dasharray:none"
       id="path289"
       inkscape:connector-curvature="0" />
    <path
       d="m -99.503807,31.573851 0.21241,3.006811"
       style="fill:none;stroke:#373435;stroke-width:0.07612184;stroke-linecap:butt;stroke-linejoin:bevel;stroke-dasharray:none"
       id="path291"
       inkscape:connector-curvature="0" />
    <path
       d="m -99.037877,27.040794 c -0.41818,0.153055 -0.6846,0.564324 -0.65313,1.008368"
       style="fill:none;stroke:#373435;stroke-width:0.07612184;stroke-linecap:butt;stroke-linejoin:bevel;stroke-dasharray:none"
       id="path293"
       inkscape:connector-curvature="0" />
    <path
       d="m -98.357077,26.791672 -0.6808,0.249122"
       style="fill:none;stroke:#373435;stroke-width:0.07612184;stroke-linecap:butt;stroke-linejoin:bevel;stroke-dasharray:none"
       id="path295"
       inkscape:connector-curvature="0" />
    <path
       d="m -97.800927,26.753611 c -0.18523,-0.04036 -0.37832,-0.02739 -0.55643,0.03775"
       style="fill:none;stroke:#373435;stroke-width:0.07612184;stroke-linecap:butt;stroke-linejoin:bevel;stroke-dasharray:none"
       id="path297"
       inkscape:connector-curvature="0" />
    <path
       d="m -95.208407,27.319732 -2.59252,-0.566121"
       style="fill:none;stroke:#373435;stroke-width:0.07612184;stroke-linecap:butt;stroke-linejoin:bevel;stroke-dasharray:none"
       id="path299"
       inkscape:connector-curvature="0" />
    <path
       d="m -99.503807,31.573851 -0.1872,-3.524689"
       style="fill:none;stroke:#373435;stroke-width:0.07612184;stroke-linecap:butt;stroke-linejoin:bevel;stroke-dasharray:none"
       id="path301"
       inkscape:connector-curvature="0" />
    <path
       d="m -95.310677,55.662607 2.42121,-1.125828"
       style="fill:none;stroke:#373435;stroke-width:0.07612184;stroke-linecap:butt;stroke-linejoin:bevel;stroke-dasharray:none"
       id="path303"
       inkscape:connector-curvature="0" />
    <path
       d="m -95.860027,55.747645 c 0.18752,0.02407 0.37812,-0.0053 0.54935,-0.08503"
       style="fill:none;stroke:#373435;stroke-width:0.07612184;stroke-linecap:butt;stroke-linejoin:bevel;stroke-dasharray:none"
       id="path305"
       inkscape:connector-curvature="0" />
    <path
       d="m -96.577907,55.654536 0.71788,0.0931"
       style="fill:none;stroke:#373435;stroke-width:0.07612184;stroke-linecap:butt;stroke-linejoin:bevel;stroke-dasharray:none"
       id="path307"
       inkscape:connector-curvature="0" />
    <path
       d="m -97.437307,54.813108 c 0.0667,0.441049 0.41737,0.784266 0.85972,0.84164"
       style="fill:none;stroke:#373435;stroke-width:0.07612184;stroke-linecap:butt;stroke-linejoin:bevel;stroke-dasharray:none"
       id="path309"
       inkscape:connector-curvature="0" />
    <path
       d="m -97.887657,51.832445 0.45035,2.980663"
       style="fill:none;stroke:#373435;stroke-width:0.07612184;stroke-linecap:butt;stroke-linejoin:bevel;stroke-dasharray:none"
       id="path311"
       inkscape:connector-curvature="0" />
    <path
       d="m -97.783157,47.276517 c -0.4047,0.185723 -0.63764,0.61687 -0.57093,1.057142"
       style="fill:none;stroke:#373435;stroke-width:0.07612184;stroke-linecap:butt;stroke-linejoin:bevel;stroke-dasharray:none"
       id="path313"
       inkscape:connector-curvature="0" />
    <path
       d="m -97.124147,46.974356 -0.65901,0.302161"
       style="fill:none;stroke:#373435;stroke-width:0.07612184;stroke-linecap:butt;stroke-linejoin:bevel;stroke-dasharray:none"
       id="path315"
       inkscape:connector-curvature="0" />
    <path
       d="m -96.572507,46.89242 c -0.18798,-0.02565 -0.3791,0.0028 -0.55164,0.08193"
       style="fill:none;stroke:#373435;stroke-width:0.07612184;stroke-linecap:butt;stroke-linejoin:bevel;stroke-dasharray:none"
       id="path317"
       inkscape:connector-curvature="0" />
    <path
       d="m -93.943567,47.250968 -2.62894,-0.358548"
       style="fill:none;stroke:#373435;stroke-width:0.07612184;stroke-linecap:butt;stroke-linejoin:bevel;stroke-dasharray:none"
       id="path319"
       inkscape:connector-curvature="0" />
    <path
       d="m -97.887657,51.832445 -0.46643,-3.498786"
       style="fill:none;stroke:#373435;stroke-width:0.07612184;stroke-linecap:butt;stroke-linejoin:bevel;stroke-dasharray:none"
       id="path321"
       inkscape:connector-curvature="0" />
    <path
       d="m -16.371393,119.46593 3.832168,0.003"
       style="fill:none;stroke:#373435;stroke-width:0.07612184;stroke-linecap:butt;stroke-linejoin:bevel;stroke-dasharray:none"
       id="path323"
       inkscape:connector-curvature="0" />
    <path
       d="m -55.466367,112.84691 3.53439,1.44632"
       style="fill:none;stroke:#373435;stroke-width:0.07612184;stroke-linecap:butt;stroke-linejoin:bevel;stroke-dasharray:none"
       id="path325"
       inkscape:connector-curvature="0" />
    <path
       d="m 23.026207,114.32319 3.532584,-1.4491"
       style="fill:none;stroke:#373435;stroke-width:0.07612184;stroke-linecap:butt;stroke-linejoin:bevel;stroke-dasharray:none"
       id="path327"
       inkscape:connector-curvature="0" />
    <g
       id="Layer1003"
       transform="matrix(0.35241593,0,0,0.35241593,-198.09946,-186.31512)">
      <path
         d="M 752.0289,576.1222 V 563.8776"
         style="fill:none;stroke:#373435;stroke-width:0.21600001;stroke-linecap:butt;stroke-linejoin:bevel;stroke-dasharray:none"
         id="path329"
         inkscape:connector-curvature="0" />
      <path
         d="m 752.0289,576.2985 c 0,2.0982 -1.6265,3.7987 -3.6317,3.7995 -2.0058,0 -3.6323,-1.7013 -3.6323,-3.7995"
         style="fill:none;stroke:#373435;stroke-width:0.21600001;stroke-linecap:butt;stroke-linejoin:bevel;stroke-dasharray:none"
         id="path331"
         inkscape:connector-curvature="0" />
      <path
         d="M 744.764,576.2985 V 564.0542"
         style="fill:none;stroke:#373435;stroke-width:0.21600001;stroke-linecap:butt;stroke-linejoin:bevel;stroke-dasharray:none"
         id="path333"
         inkscape:connector-curvature="0" />
      <path
         d="m 744.764,564.0542 c 0,-1.3572 0.692,-2.6121 1.8159,-3.2904 1.1239,-0.6789 2.5084,-0.6789 3.6318,0 1.1239,0.6783 1.8158,1.9324 1.8158,3.2904"
         style="fill:none;stroke:#373435;stroke-width:0.21600001;stroke-linecap:butt;stroke-linejoin:bevel;stroke-dasharray:none"
         id="path335"
         inkscape:connector-curvature="0" />
    </g>
    <path
       d="m 71.674652,17.151051 v 0.260331"
       style="fill:none;stroke:#373435;stroke-width:0.07612184;stroke-linecap:butt;stroke-linejoin:bevel;stroke-dasharray:none"
       id="path338"
       inkscape:connector-curvature="0" />
    <path
       d="m 71.674652,17.281235 0.03358,-9.2513064"
       style="fill:none;stroke:#373435;stroke-width:0.07612184;stroke-linecap:butt;stroke-linejoin:bevel;stroke-dasharray:none"
       id="path340"
       inkscape:connector-curvature="0" />
    <path
       d="m 69.051549,6.0061086 c 0.710788,0 1.391762,0.213882 1.890851,0.594279 0.49941,0.380329 0.775211,0.895208 0.766013,1.429329"
       style="fill:none;stroke:#373435;stroke-width:0.07612184;stroke-linecap:butt;stroke-linejoin:bevel;stroke-dasharray:none"
       id="path342"
       inkscape:connector-curvature="0" />
    <path
       d="M 69.051549,6.0061086 H 63.999036"
       style="fill:none;stroke:#373435;stroke-width:0.07612184;stroke-linecap:butt;stroke-linejoin:bevel;stroke-dasharray:none"
       id="path344"
       inkscape:connector-curvature="0" />
    <path
       d="m -100.52455,17.671536 c 0,1.25749 0.785093,2.381344 1.965993,2.814005"
       style="fill:none;stroke:#373435;stroke-width:0.07612184;stroke-linecap:butt;stroke-linejoin:bevel;stroke-dasharray:none"
       id="path346"
       inkscape:connector-curvature="0" />
    <path
       d="m -88.453897,17.411699 c -0.0236,-1.592461 -0.0145,-3.461536 -0.001,-5.487681"
       style="fill:none;stroke:#373435;stroke-width:0.07612184;stroke-linecap:butt;stroke-linejoin:bevel;stroke-dasharray:none"
       id="path348"
       inkscape:connector-curvature="0" />
    <path
       d="m -92.840797,6.2661566 c 2.07045,1.457487 3.53789,3.360744 4.40208,5.7101254"
       style="fill:none;stroke:#373435;stroke-width:0.07612184;stroke-linecap:butt;stroke-linejoin:bevel;stroke-dasharray:none"
       id="path350"
       inkscape:connector-curvature="0" />
    <path
       d="m -88.453897,17.411699 c 0.66122,10.47433 0.77749,21.350167 4.00478,31.403255 2.64042,8.224754 7.36328,15.898574 13.43077,22.04418 5.12456,5.190452 11.20844,9.290636 17.67349,12.531416 12.0611,6.046079 25.448622,9.102168 38.924188,9.1557"
       style="fill:none;stroke:#373435;stroke-width:0.07612184;stroke-linecap:butt;stroke-linejoin:bevel;stroke-dasharray:none"
       id="path352"
       inkscape:connector-curvature="0" />
    <path
       d="m 59.612165,17.411699 c -0.699793,11.991481 -1.034764,24.702348 -5.621348,35.882566 -3.366135,8.20516 -9.022446,15.586194 -15.834826,21.307527 -7.0344,5.90783 -15.301305,10.046284 -23.89975,13.053586 -9.2516207,3.235678 -18.8871667,5.161807 -28.67691,4.890592"
       style="fill:none;stroke:#373435;stroke-width:0.07612184;stroke-linecap:butt;stroke-linejoin:bevel;stroke-dasharray:none"
       id="path354"
       inkscape:connector-curvature="0" />
    <path
       d="m 63.999036,6.0061086 c -2.070479,1.457488 -3.537867,3.360744 -4.40206,5.7101254"
       style="fill:none;stroke:#373435;stroke-width:0.07612184;stroke-linecap:butt;stroke-linejoin:bevel;stroke-dasharray:none"
       id="path356"
       inkscape:connector-curvature="0" />
    <path
       d="m 59.612165,17.411699 c 0.02355,-1.592461 0.01448,-3.721583 0.0015,-5.747692"
       style="fill:none;stroke:#373435;stroke-width:0.07612184;stroke-linecap:butt;stroke-linejoin:bevel;stroke-dasharray:none"
       id="path358"
       inkscape:connector-curvature="0" />
    <path
       d="M -100.54235,-5.525856 H 71.691427"
       style="fill:none;stroke:#373435;stroke-width:0.17610225;stroke-linecap:butt;stroke-linejoin:miter;stroke-dasharray:none"
       id="path368"
       inkscape:connector-curvature="0" />
    <path
       d="M -100.54235,-13.13804 V 2.0863282"
       style="fill:none;stroke:#373435;stroke-width:0.17610225;stroke-linecap:butt;stroke-linejoin:miter;stroke-dasharray:none"
       id="path370"
       inkscape:connector-curvature="0" />
    <path
       d="M 71.691427,-13.13804 V 2.0863282"
       style="fill:none;stroke:#373435;stroke-width:0.17610225;stroke-linecap:butt;stroke-linejoin:miter;stroke-dasharray:none"
       id="path372"
       inkscape:connector-curvature="0" />
    <text
       x="-27.62492"
       y="-5.5258589"
       id="text376"
       style="font-size:4.22899103px;stroke-width:0.35241592">
      <tspan
         font-size="12.0000"
         id="tspan374"
         style="font-size:4.22899103px;font-family:Arial;fill:#373435;stroke-width:0.35241592">172.41mm</tspan>
    </text>
    <g
       id="Layer1004"
       transform="matrix(0.35241593,0,0,0.35241593,-198.09946,-186.31512)">
      <path
         d="m 492.1358,817.1392 v 18.0009 m 0,-18.0009 6.9457,18.0009 m 6.946,-18.0009 -6.946,18.0009 m 6.946,-18.0009 v 18.0009"
         style="fill:none;stroke:#e30016;stroke-width:0.21600001;stroke-linecap:round;stroke-linejoin:round;stroke-dasharray:none"
         id="path394"
         inkscape:connector-curvature="0" />
      <path
         d="m 513.8923,827.4175 h 7.7155"
         style="fill:none;stroke:#e30016;stroke-width:0.21600001;stroke-linecap:round;stroke-linejoin:round;stroke-dasharray:none"
         id="path396"
         inkscape:connector-curvature="0" />
      <path
         d="m 527.2019,820.5653 1.7087,-0.8429 2.6186,-2.5832 v 18.0009"
         style="fill:none;stroke:#e30016;stroke-width:0.21600001;stroke-linecap:round;stroke-linejoin:round;stroke-dasharray:none"
         id="path398"
         inkscape:connector-curvature="0" />
      <path
         d="m 550.2343,822.9218 -0.8545,2.5833 -1.7365,1.6858 -2.5909,0.8701 h -0.882 l -2.5908,-0.8701 -1.7642,-1.6858 -0.8545,-2.5833 v -0.8428 l 0.8545,-2.5833 1.7642,-1.713 2.5908,-0.8701 h 0.882 l 2.5909,0.8701 1.7365,1.713 0.8545,3.4261 v 4.2691 l -0.8545,4.2962 -1.7365,2.5698 -2.5909,0.8566 h -1.7641 l -2.5908,-0.8566 -0.8821,-1.7132"
         style="fill:none;stroke:#e30016;stroke-width:0.21600001;stroke-linecap:round;stroke-linejoin:round;stroke-dasharray:none"
         id="path400"
         inkscape:connector-curvature="0" />
    </g>
  </g>
</svg>
