  0
SECTION
  2
HEADER
  9
$ACADVER
  1
AC1014
  9
$HANDSEED
  5
FFFF
  9
$MEASUREMENT
 70
     1
  0
ENDSEC
  0
SECTION
  2
TABLES
  0
TABLE
  2
VPORT
  5
8
330
0
100
AcDbSymbolTable
 70
     4
  0
VPORT
  5
2E
330
8
100
AcDbSymbolTableRecord
100
AcDbViewportTableRecord
  2
*ACTIVE
 70
     0
 10
0.0
 20
0.0
 11
1.0
 21
1.0
 12
210.0
 22
148.5
 13
0.0
 23
0.0
 14
10.0
 24
10.0
 15
10.0
 25
10.0
 16
0.0
 26
0.0
 36
1.0
 17
0.0
 27
0.0
 37
0.0
 40
341.0
 41
1.24
 42
50.0
 43
0.0
 44
0.0
 50
0.0
 51
0.0
 71
     0
 72
   100
 73
     1
 74
     3
 75
     0
 76
     0
 77
     0
 78
     0
  0
ENDTAB
  0
TABLE
  2
LTYPE
  5
5
330
0
100
AcDbSymbolTable
 70
     1
  0
LTYPE
  5
14
330
5
100
AcDbSymbolTableRecord
100
AcDbLinetypeTableRecord
  2
BYBLOCK
 70
     0
  3

 72
    65
 73
     0
 40
0.0
  0
LTYPE
  5
15
330
5
100
AcDbSymbolTableRecord
100
AcDbLinetypeTableRecord
  2
BYLAYER
 70
     0
  3

 72
    65
 73
     0
 40
0.0
  0
LTYPE
  5
16
330
5
100
AcDbSymbolTableRecord
100
AcDbLinetypeTableRecord
  2
CONTINUOUS
 70
     0
  3
Solid line
 72
    65
 73
     0
 40
0.0
  0
ENDTAB
  0
TABLE
  2
LAYER
  5
2
100
AcDbSymbolTable
 70
2
  0
LAYER
  5
50
100
AcDbSymbolTableRecord
100
AcDbLayerTableRecord
  2
0
 70
0
  6
CONTINUOUS
  0
LAYER
  5
51
100
AcDbSymbolTableRecord
100
AcDbLayerTableRecord
  2
Layer_1
 70
0
  6
CONTINUOUS
  0
ENDTAB
  0
TABLE
  2
STYLE
  5
3
330
0
100
AcDbSymbolTable
 70
     1
  0
STYLE
  5
11
330
3
100
AcDbSymbolTableRecord
100
AcDbTextStyleTableRecord
  2
STANDARD
 70
     0
 40
0.0
 41
1.0
 50
0.0
 71
     0
 42
2.5
  3
txt
  4

  0
ENDTAB
  0
TABLE
  2
VIEW
  5
6
330
0
100
AcDbSymbolTable
 70
     0
  0
ENDTAB
  0
TABLE
  2
UCS
  5
7
330
0
100
AcDbSymbolTable
 70
     0
  0
ENDTAB
  0
TABLE
  2
APPID
  5
9
330
0
100
AcDbSymbolTable
 70
     2
  0
APPID
  5
12
330
9
100
AcDbSymbolTableRecord
100
AcDbRegAppTableRecord
  2
ACAD
 70
     0
  0
ENDTAB
  0
TABLE
  2
DIMSTYLE
  5
A
330
0
100
AcDbSymbolTable
 70
     1
  0
DIMSTYLE
105
27
330
A
100
AcDbSymbolTableRecord
100
AcDbDimStyleTableRecord
  2
ISO-25
 70
     0
  3

  4

  5

  6

  7

 40
1.0
 41
2.5
 42
0.625
 43
3.75
 44
1.25
 45
0.0
 46
0.0
 47
0.0
 48
0.0
140
2.5
141
2.5
142
0.0
143
0.03937007874016
144
1.0
145
0.0
146
1.0
147
0.625
 71
     0
 72
     0
 73
     0
 74
     0
 75
     0
 76
     0
 77
     1
 78
     8
170
     0
171
     3
172
     1
173
     0
174
     0
175
     0
176
     0
177
     0
178
     0
270
     2
271
     2
272
     2
273
     2
274
     3
340
11
275
     0
280
     0
281
     0
282
     0
283
     0
284
     8
285
     0
286
     0
287
     3
288
     0
  0
ENDTAB
  0
TABLE
  2
BLOCK_RECORD
  5
1
330
0
100
AcDbSymbolTable
 70
     1
  0
BLOCK_RECORD
  5
1F
330
1
100
AcDbSymbolTableRecord
100
AcDbBlockTableRecord
  2
*MODEL_SPACE
  0
BLOCK_RECORD
  5
1B
330
1
100
AcDbSymbolTableRecord
100
AcDbBlockTableRecord
  2
*PAPER_SPACE
  0
ENDTAB
  0
ENDSEC
  0
SECTION
  2
BLOCKS
  0
BLOCK
  5
20
330
1F
100
AcDbEntity
  8
0
100
AcDbBlockBegin
  2
*MODEL_SPACE
 70
     0
 10
0.0
 20
0.0
 30
0.0
  3
*MODEL_SPACE
  1

  0
ENDBLK
  5
21
330
1F
100
AcDbEntity
  8
0
100
AcDbBlockEnd
  0
BLOCK
  5
1C
330
1B
100
AcDbEntity
 67
     1
  8
0
100
AcDbBlockBegin
  2
*PAPER_SPACE
  1

  0
ENDBLK
  5
1D
330
1B
100
AcDbEntity
 67
     1
  8
0
100
AcDbBlockEnd
  0
ENDSEC
  0
SECTION
  2
ENTITIES
  0
LWPOLYLINE
  5
100
100
AcDbEntity
  8
Layer_1
 62
1
100
AcDbPolyline
 90
4
 70
1
 10
183.690320
 20
283.473348
 30
0.0
 10
189.464960
 20
283.473348
 30
0.0
 10
189.464960
 20
286.998127
 30
0.0
 10
183.690320
 20
286.998127
 30
0.0
  0
LWPOLYLINE
  5
101
100
AcDbEntity
  8
Layer_1
 62
1
100
AcDbPolyline
 90
4
 70
1
 10
153.743960
 20
283.473348
 30
0.0
 10
159.443510
 20
283.473348
 30
0.0
 10
159.443510
 20
286.998127
 30
0.0
 10
153.743960
 20
286.998127
 30
0.0
  0
LWPOLYLINE
  5
102
100
AcDbEntity
  8
Layer_1
 62
1
100
AcDbPolyline
 90
4
 70
1
 10
123.722510
 20
283.473136
 30
0.0
 10
129.497120
 20
283.473136
 30
0.0
 10
129.497120
 20
286.997994
 30
0.0
 10
123.722510
 20
286.997994
 30
0.0
  0
LWPOLYLINE
  5
103
100
AcDbEntity
  8
Layer_1
 62
1
100
AcDbPolyline
 90
4
 70
1
 10
93.776040
 20
283.473348
 30
0.0
 10
99.475827
 20
283.473348
 30
0.0
 10
99.475827
 20
286.998127
 30
0.0
 10
93.776040
 20
286.998127
 30
0.0
  0
LWPOLYLINE
  5
104
100
AcDbEntity
  8
Layer_1
 62
1
100
AcDbPolyline
 90
2
 70
0
 10
30.226829
 20
136.923210
 30
0.0
 10
252.976760
 20
136.923210
 30
0.0
  0
LWPOLYLINE
  5
105
100
AcDbEntity
  8
Layer_1
 62
1
100
AcDbPolyline
 90
2
 70
0
 10
30.226829
 20
294.423287
 30
0.0
 10
30.226829
 20
136.923210
 30
0.0
  0
LWPOLYLINE
  5
106
100
AcDbEntity
  8
Layer_1
 62
1
100
AcDbPolyline
 90
2
 70
0
 10
252.976760
 20
294.423287
 30
0.0
 10
30.226829
 20
294.423287
 30
0.0
  0
LWPOLYLINE
  5
107
100
AcDbEntity
  8
Layer_1
 62
1
100
AcDbPolyline
 90
2
 70
0
 10
252.976760
 20
136.923210
 30
0.0
 10
252.976760
 20
294.423287
 30
0.0
  0
LWPOLYLINE
  5
108
100
AcDbEntity
  8
Layer_1
 62
1
100
AcDbPolyline
 90
1
 70
1
 10
250.897900
 20
292.116174
 30
0.0
  0
LWPOLYLINE
  5
109
100
AcDbEntity
  8
Layer_1
 62
1
100
AcDbPolyline
 90
2
 70
0
 10
214.628930
 20
292.133689
 30
0.0
 10
214.628930
 20
289.678118
 30
0.0
  0
LWPOLYLINE
  5
10a
100
AcDbEntity
  8
Layer_1
 62
1
100
AcDbPolyline
 90
2
 70
0
 10
214.628930
 20
292.133689
 30
0.0
 10
215.563650
 20
289.678118
 30
0.0
  0
LWPOLYLINE
  5
10b
100
AcDbEntity
  8
Layer_1
 62
1
100
AcDbPolyline
 90
2
 70
0
 10
216.498450
 20
292.133689
 30
0.0
 10
215.563730
 20
289.678118
 30
0.0
  0
LWPOLYLINE
  5
10c
100
AcDbEntity
  8
Layer_1
 62
1
100
AcDbPolyline
 90
2
 70
0
 10
216.498450
 20
292.133689
 30
0.0
 10
216.498450
 20
289.678118
 30
0.0
  0
LWPOLYLINE
  5
10d
100
AcDbEntity
  8
Layer_1
 62
1
100
AcDbPolyline
 90
2
 70
0
 10
218.019250
 20
292.133689
 30
0.0
 10
217.084500
 20
289.678118
 30
0.0
  0
LWPOLYLINE
  5
10e
100
AcDbEntity
  8
Layer_1
 62
1
100
AcDbPolyline
 90
2
 70
0
 10
218.019250
 20
292.133689
 30
0.0
 10
218.953970
 20
289.678118
 30
0.0
  0
LWPOLYLINE
  5
10f
100
AcDbEntity
  8
Layer_1
 62
1
100
AcDbPolyline
 90
2
 70
0
 10
217.433190
 20
290.494119
 30
0.0
 10
218.605270
 20
290.494119
 30
0.0
  0
LWPOLYLINE
  5
110
100
AcDbEntity
  8
Layer_1
 62
1
100
AcDbPolyline
 90
2
 70
0
 10
219.536340
 20
292.133689
 30
0.0
 10
219.536340
 20
289.678118
 30
0.0
  0
LWPOLYLINE
  5
111
100
AcDbEntity
  8
Layer_1
 62
1
100
AcDbPolyline
 90
2
 70
0
 10
221.175830
 20
292.133689
 30
0.0
 10
219.536340
 20
290.494172
 30
0.0
  0
LWPOLYLINE
  5
112
100
AcDbEntity
  8
Layer_1
 62
1
100
AcDbPolyline
 90
2
 70
0
 10
220.122470
 20
291.080224
 30
0.0
 10
221.175910
 20
289.678118
 30
0.0
  0
LWPOLYLINE
  5
113
100
AcDbEntity
  8
Layer_1
 62
1
100
AcDbPolyline
 90
2
 70
0
 10
221.991910
 20
292.133689
 30
0.0
 10
221.991910
 20
289.678118
 30
0.0
  0
LWPOLYLINE
  5
114
100
AcDbEntity
  8
Layer_1
 62
1
100
AcDbPolyline
 90
2
 70
0
 10
221.991910
 20
292.133689
 30
0.0
 10
223.512680
 20
292.133689
 30
0.0
  0
LWPOLYLINE
  5
115
100
AcDbEntity
  8
Layer_1
 62
1
100
AcDbPolyline
 90
2
 70
0
 10
221.991910
 20
290.961506
 30
0.0
 10
222.926630
 20
290.961506
 30
0.0
  0
LWPOLYLINE
  5
116
100
AcDbEntity
  8
Layer_1
 62
1
100
AcDbPolyline
 90
2
 70
0
 10
221.991910
 20
289.678118
 30
0.0
 10
223.512680
 20
289.678118
 30
0.0
  0
LWPOLYLINE
  5
117
100
AcDbEntity
  8
Layer_1
 62
1
100
AcDbPolyline
 90
2
 70
0
 10
224.210050
 20
292.133689
 30
0.0
 10
224.210050
 20
289.678118
 30
0.0
  0
LWPOLYLINE
  5
118
100
AcDbEntity
  8
Layer_1
 62
1
100
AcDbPolyline
 90
10
 70
0
 10
224.210050
 20
292.133689
 30
0.0
 10
225.263490
 20
292.133689
 30
0.0
 10
225.612150
 20
292.014944
 30
0.0
 10
225.730900
 20
291.896226
 30
0.0
 10
225.849620
 20
291.666276
 30
0.0
 10
225.849620
 20
291.428919
 30
0.0
 10
225.730900
 20
291.198969
 30
0.0
 10
225.612150
 20
291.080224
 30
0.0
 10
225.263490
 20
290.961506
 30
0.0
 10
224.210050
 20
290.961506
 30
0.0
  0
LWPOLYLINE
  5
119
100
AcDbEntity
  8
Layer_1
 62
1
100
AcDbPolyline
 90
2
 70
0
 10
225.029780
 20
290.961506
 30
0.0
 10
225.849540
 20
289.678118
 30
0.0
  0
LWPOLYLINE
  5
11a
100
AcDbEntity
  8
Layer_1
 62
1
100
AcDbPolyline
 90
7
 70
0
 10
226.784340
 20
291.896226
 30
0.0
 10
226.665620
 20
292.014944
 30
0.0
 10
226.784340
 20
292.133689
 30
0.0
 10
226.903060
 20
292.014944
 30
0.0
 10
226.903060
 20
291.781264
 30
0.0
 10
226.784340
 20
291.547558
 30
0.0
 10
226.665620
 20
291.428839
 30
0.0
  0
LWPOLYLINE
  5
11b
100
AcDbEntity
  8
Layer_1
 62
1
100
AcDbPolyline
 90
20
 70
0
 10
229.354900
 20
291.781264
 30
0.0
 10
229.121190
 20
292.014944
 30
0.0
 10
228.768840
 20
292.133689
 30
0.0
 10
228.301430
 20
292.133689
 30
0.0
 10
227.952760
 20
292.014944
 30
0.0
 10
227.719060
 20
291.781264
 30
0.0
 10
227.719060
 20
291.547558
 30
0.0
 10
227.834040
 20
291.313851
 30
0.0
 10
227.952760
 20
291.198890
 30
0.0
 10
228.186470
 20
291.080145
 30
0.0
 10
228.887480
 20
290.846465
 30
0.0
 10
229.121190
 20
290.731477
 30
0.0
 10
229.236150
 20
290.612758
 30
0.0
 10
229.354900
 20
290.379052
 30
0.0
 10
229.354900
 20
290.028505
 30
0.0
 10
229.121190
 20
289.794799
 30
0.0
 10
228.768840
 20
289.677959
 30
0.0
 10
228.301430
 20
289.678118
 30
0.0
 10
227.952760
 20
289.794958
 30
0.0
 10
227.719060
 20
290.028664
 30
0.0
  0
LWPOLYLINE
  5
11c
100
AcDbEntity
  8
Layer_1
 62
1
100
AcDbPolyline
 90
2
 70
0
 10
232.159060
 20
292.133689
 30
0.0
 10
231.224340
 20
289.678118
 30
0.0
  0
LWPOLYLINE
  5
11d
100
AcDbEntity
  8
Layer_1
 62
1
100
AcDbPolyline
 90
2
 70
0
 10
232.159060
 20
292.133689
 30
0.0
 10
233.093780
 20
289.678118
 30
0.0
  0
LWPOLYLINE
  5
11e
100
AcDbEntity
  8
Layer_1
 62
1
100
AcDbPolyline
 90
2
 70
0
 10
231.573000
 20
290.494119
 30
0.0
 10
232.745190
 20
290.494119
 30
0.0
  0
LWPOLYLINE
  5
11f
100
AcDbEntity
  8
Layer_1
 62
1
100
AcDbPolyline
 90
20
 70
0
 10
235.197000
 20
291.781264
 30
0.0
 10
234.963320
 20
292.014944
 30
0.0
 10
234.610950
 20
292.133689
 30
0.0
 10
234.143560
 20
292.133689
 30
0.0
 10
233.794900
 20
292.014944
 30
0.0
 10
233.561190
 20
291.781264
 30
0.0
 10
233.561190
 20
291.547558
 30
0.0
 10
233.676150
 20
291.313851
 30
0.0
 10
233.794900
 20
291.198890
 30
0.0
 10
234.028580
 20
291.080145
 30
0.0
 10
234.729620
 20
290.846465
 30
0.0
 10
234.963320
 20
290.731477
 30
0.0
 10
235.078280
 20
290.612758
 30
0.0
 10
235.197000
 20
290.379052
 30
0.0
 10
235.197000
 20
290.028505
 30
0.0
 10
234.963320
 20
289.794799
 30
0.0
 10
234.610950
 20
289.677959
 30
0.0
 10
234.143560
 20
289.678118
 30
0.0
 10
233.794900
 20
289.794958
 30
0.0
 10
233.561190
 20
290.028664
 30
0.0
  0
LWPOLYLINE
  5
120
100
AcDbEntity
  8
Layer_1
 62
1
100
AcDbPolyline
 90
3
 70
0
 10
235.664410
 20
292.133689
 30
0.0
 10
236.599130
 20
290.961506
 30
0.0
 10
236.599130
 20
289.678118
 30
0.0
  0
LWPOLYLINE
  5
121
100
AcDbEntity
  8
Layer_1
 62
1
100
AcDbPolyline
 90
2
 70
0
 10
237.533850
 20
292.133689
 30
0.0
 10
236.599130
 20
290.961506
 30
0.0
  0
LWPOLYLINE
  5
122
100
AcDbEntity
  8
Layer_1
 62
1
100
AcDbPolyline
 90
3
 70
0
 10
238.116230
 20
292.133689
 30
0.0
 10
238.116230
 20
289.678118
 30
0.0
 10
239.518360
 20
289.678118
 30
0.0
  0
LWPOLYLINE
  5
123
100
AcDbEntity
  8
Layer_1
 62
1
100
AcDbPolyline
 90
10
 70
0
 10
240.104410
 20
292.133689
 30
0.0
 10
240.104410
 20
290.379211
 30
0.0
 10
240.223130
 20
290.028664
 30
0.0
 10
240.456840
 20
289.794958
 30
0.0
 10
240.809180
 20
289.678118
 30
0.0
 10
241.039130
 20
289.678118
 30
0.0
 10
241.391480
 20
289.794958
 30
0.0
 10
241.625190
 20
290.028664
 30
0.0
 10
241.743900
 20
290.379211
 30
0.0
 10
241.743900
 20
292.133689
 30
0.0
  0
LWPOLYLINE
  5
124
100
AcDbEntity
  8
Layer_1
 62
1
100
AcDbPolyline
 90
2
 70
0
 10
242.674950
 20
292.133689
 30
0.0
 10
242.674950
 20
289.678118
 30
0.0
  0
LWPOLYLINE
  5
125
100
AcDbEntity
  8
Layer_1
 62
1
100
AcDbPolyline
 90
2
 70
0
 10
242.674950
 20
292.133689
 30
0.0
 10
243.609690
 20
289.678118
 30
0.0
  0
LWPOLYLINE
  5
126
100
AcDbEntity
  8
Layer_1
 62
1
100
AcDbPolyline
 90
2
 70
0
 10
244.544410
 20
292.133689
 30
0.0
 10
243.609690
 20
289.678118
 30
0.0
  0
SPLINE
  5
127
100
AcDbEntity
  8
Layer_1
 62
1
100
AcDbSpline
 70
0
 71
3
 72
22
 73
18
 74
16
 40
0.000000
 40
0.000000
 40
0.000000
 40
0.000000
 40
0.098196
 40
0.195580
 40
0.293776
 40
0.391972
 40
0.489355
 40
0.587552
 40
0.783673
 40
0.973978
 40
1.170099
 40
1.366220
 40
1.556525
 40
1.752646
 40
1.948768
 40
2.139073
 40
2.335194
 40
2.335194
 40
2.335194
 40
2.335194
 10
250.897900
 20
292.116174
 30
0.0
 10
250.895402
 20
292.083348
 30
0.0
 10
250.890425
 20
292.017967
 30
0.0
 10
250.851072
 20
291.926468
 30
0.0
 10
250.791190
 20
291.847858
 30
0.0
 10
250.712491
 20
291.787573
 30
0.0
 10
250.620968
 20
291.749706
 30
0.0
 10
250.490293
 20
291.732248
 30
0.0
 10
250.326225
 20
291.776249
 30
0.0
 10
250.183006
 20
291.919746
 30
0.0
 10
250.129789
 20
292.116134
 30
0.0
 10
250.182977
 20
292.312548
 30
0.0
 10
250.326287
 20
292.455984
 30
0.0
 10
250.523126
 20
292.509139
 30
0.0
 10
250.717925
 20
292.456003
 30
0.0
 10
250.867264
 20
292.312579
 30
0.0
 10
250.887586
 20
292.182296
 30
0.0
 10
250.897900
 20
292.116174
 30
0.0
 11
250.897900
 21
292.116174
 31
0.0
 11
250.885055
 21
292.018821
 31
0.0
 11
250.847792
 21
291.928849
 31
0.0
 11
250.788045
 21
291.850921
 31
0.0
 11
250.710121
 21
291.791168
 31
0.0
 11
250.620151
 21
291.753900
 31
0.0
 11
250.522800
 21
291.741047
 31
0.0
 11
250.333483
 21
291.792258
 31
0.0
 11
250.198915
 21
291.926822
 31
0.0
 11
250.147700
 21
292.116138
 31
0.0
 11
250.198907
 21
292.305457
 31
0.0
 11
250.333468
 21
292.440028
 31
0.0
 11
250.522783
 21
292.491247
 31
0.0
 11
250.712102
 21
292.440045
 31
0.0
 11
250.846676
 21
292.305487
 31
0.0
 11
250.897900
 21
292.116174
 31
0.0
  0
LWPOLYLINE
  5
128
100
AcDbEntity
  8
Layer_1
 62
1
100
AcDbPolyline
 90
2
 70
0
 10
244.544410
 20
292.133689
 30
0.0
 10
244.544410
 20
289.678118
 30
0.0
  0
SPLINE
  5
129
100
AcDbEntity
  8
Layer_1
 62
1
100
AcDbSpline
 70
0
 71
3
 72
19
 73
15
 74
13
 40
0.000000
 40
0.000000
 40
0.000000
 40
0.000000
 40
0.980385
 40
1.931723
 40
2.912106
 40
3.892488
 40
4.843826
 40
5.824211
 40
6.804575
 40
7.755875
 40
8.736359
 40
9.716741
 40
10.668078
 40
11.648456
 40
11.648456
 40
11.648456
 40
11.648456
 10
-60.974886
 20
183.700110
 30
0.0
 10
-61.026428
 20
184.030648
 30
0.0
 10
-61.127986
 20
184.681931
 30
0.0
 10
-61.874477
 20
185.398934
 30
0.0
 10
-62.848241
 20
185.664643
 30
0.0
 10
-63.832228
 20
185.398934
 30
0.0
 10
-64.548656
 20
184.681931
 30
0.0
 10
-64.814541
 20
183.700119
 30
0.0
 10
-64.548713
 20
182.718308
 30
0.0
 10
-63.832303
 20
182.001253
 30
0.0
 10
-62.848270
 20
181.735596
 30
0.0
 10
-61.874480
 20
182.001291
 30
0.0
 10
-61.127987
 20
182.718295
 30
0.0
 10
-61.026428
 20
183.369575
 30
0.0
 10
-60.974886
 20
183.700110
 30
0.0
 11
-60.974886
 21
183.700110
 31
0.0
 11
-61.230900
 21
184.646477
 31
0.0
 11
-61.903597
 21
185.319176
 31
0.0
 11
-62.849962
 21
185.575190
 31
0.0
 11
-63.796327
 21
185.319176
 31
0.0
 11
-64.469024
 21
184.646477
 31
0.0
 11
-64.725038
 21
183.700110
 31
0.0
 11
-64.469077
 21
182.753750
 31
0.0
 11
-63.796432
 21
182.081054
 31
0.0
 11
-62.849962
 21
181.825040
 31
0.0
 11
-61.903597
 21
182.081054
 31
0.0
 11
-61.230900
 21
182.753750
 31
0.0
 11
-60.974886
 21
183.700110
 31
0.0
  0
LWPOLYLINE
  5
12a
100
AcDbEntity
  8
Layer_1
 62
1
100
AcDbPolyline
 90
1
 70
1
 10
-60.974886
 20
183.700110
 30
0.0
  0
SPLINE
  5
12b
100
AcDbEntity
  8
Layer_1
 62
1
100
AcDbSpline
 70
0
 71
3
 72
19
 73
15
 74
13
 40
0.000000
 40
0.000000
 40
0.000000
 40
0.000000
 40
0.980378
 40
1.931715
 40
2.912097
 40
3.892479
 40
4.843816
 40
5.824194
 40
6.804566
 40
7.755872
 40
8.736345
 40
9.716727
 40
10.668065
 40
11.648450
 40
11.648450
 40
11.648450
 40
11.648450
 10
-75.990281
 20
192.401230
 30
0.0
 10
-76.041824
 20
192.731766
 30
0.0
 10
-76.143382
 20
193.383046
 30
0.0
 10
-76.889873
 20
194.100044
 30
0.0
 10
-77.863636
 20
194.365753
 30
0.0
 10
-78.847622
 20
194.100044
 30
0.0
 10
-79.564049
 20
193.383045
 30
0.0
 10
-79.829938
 20
192.401234
 30
0.0
 10
-79.564102
 20
191.419421
 30
0.0
 10
-78.847691
 20
190.702368
 30
0.0
 10
-77.863662
 20
190.436705
 30
0.0
 10
-76.889874
 20
190.702402
 30
0.0
 10
-76.143380
 20
191.419410
 30
0.0
 10
-76.041823
 20
192.070692
 30
0.0
 10
-75.990281
 20
192.401230
 30
0.0
 11
-75.990281
 21
192.401230
 31
0.0
 11
-76.246295
 21
193.347590
 31
0.0
 11
-76.918992
 21
194.020286
 31
0.0
 11
-77.865357
 21
194.276300
 31
0.0
 11
-78.811722
 21
194.020286
 31
0.0
 11
-79.484419
 21
193.347590
 31
0.0
 11
-79.740433
 21
192.401230
 31
0.0
 11
-79.484466
 21
191.454863
 31
0.0
 11
-78.811816
 21
190.782164
 31
0.0
 11
-77.865357
 21
190.526150
 31
0.0
 11
-76.918992
 21
190.782164
 31
0.0
 11
-76.246295
 21
191.454863
 31
0.0
 11
-75.990281
 21
192.401230
 31
0.0
  0
LWPOLYLINE
  5
12c
100
AcDbEntity
  8
Layer_1
 62
1
100
AcDbPolyline
 90
1
 70
1
 10
-75.990281
 20
192.401230
 30
0.0
  0
SPLINE
  5
12d
100
AcDbEntity
  8
Layer_1
 62
1
100
AcDbSpline
 70
0
 71
3
 72
19
 73
15
 74
13
 40
0.000000
 40
0.000000
 40
0.000000
 40
0.000000
 40
0.980378
 40
1.931715
 40
2.912097
 40
3.892479
 40
4.843815
 40
5.824193
 40
6.804566
 40
7.755871
 40
8.736344
 40
9.716726
 40
10.668065
 40
11.648449
 40
11.648449
 40
11.648449
 40
11.648449
 10
4.659242
 20
192.125770
 30
0.0
 10
4.607699
 20
192.456306
 30
0.0
 10
4.506141
 20
193.107586
 30
0.0
 10
3.759650
 20
193.824584
 30
0.0
 10
2.785887
 20
194.090293
 30
0.0
 10
1.801901
 20
193.824584
 30
0.0
 10
1.085474
 20
193.107585
 30
0.0
 10
0.819586
 20
192.125774
 30
0.0
 10
1.085421
 20
191.143961
 30
0.0
 10
1.801833
 20
190.426908
 30
0.0
 10
2.785861
 20
190.161245
 30
0.0
 10
3.759650
 20
190.426942
 30
0.0
 10
4.506143
 20
191.143950
 30
0.0
 10
4.607700
 20
191.795232
 30
0.0
 10
4.659242
 20
192.125770
 30
0.0
 11
4.659242
 21
192.125770
 31
0.0
 11
4.403228
 21
193.072130
 31
0.0
 11
3.730531
 21
193.744826
 31
0.0
 11
2.784166
 21
194.000840
 31
0.0
 11
1.837802
 21
193.744826
 31
0.0
 11
1.165104
 21
193.072130
 31
0.0
 11
0.909091
 21
192.125770
 31
0.0
 11
1.165057
 21
191.179403
 31
0.0
 11
1.837708
 21
190.506704
 31
0.0
 11
2.784166
 21
190.250690
 31
0.0
 11
3.730531
 21
190.506704
 31
0.0
 11
4.403228
 21
191.179403
 31
0.0
 11
4.659242
 21
192.125770
 31
0.0
  0
LWPOLYLINE
  5
12e
100
AcDbEntity
  8
Layer_1
 62
1
100
AcDbPolyline
 90
1
 70
1
 10
4.659242
 20
192.125770
 30
0.0
  0
SPLINE
  5
12f
100
AcDbEntity
  8
Layer_1
 62
1
100
AcDbSpline
 70
0
 71
3
 72
19
 73
15
 74
13
 40
0.000000
 40
0.000000
 40
0.000000
 40
0.000000
 40
0.098056
 40
0.193135
 40
0.291082
 40
0.389151
 40
0.484236
 40
0.582187
 40
0.680256
 40
0.775339
 40
0.873294
 40
0.971345
 40
1.066425
 40
1.164376
 40
1.164376
 40
1.164376
 40
1.164376
 10
20.464233
 20
244.684320
 30
0.0
 10
20.497295
 20
244.679169
 30
0.0
 10
20.562415
 20
244.669024
 30
0.0
 10
20.634067
 20
244.594384
 30
0.0
 10
20.660600
 20
244.497049
 30
0.0
 10
20.634050
 20
244.398676
 30
0.0
 10
20.562337
 20
244.327090
 30
0.0
 10
20.464196
 20
244.300544
 30
0.0
 10
20.366038
 20
244.327109
 30
0.0
 10
20.294393
 20
244.398764
 30
0.0
 10
20.267867
 20
244.497118
 30
0.0
 10
20.294418
 20
244.594463
 30
0.0
 10
20.366131
 20
244.669039
 30
0.0
 10
20.431210
 20
244.679176
 30
0.0
 10
20.464233
 20
244.684320
 30
0.0
 11
20.464233
 21
244.684320
 31
0.0
 11
20.558887
 21
244.658717
 31
0.0
 11
20.626101
 21
244.591468
 31
0.0
 11
20.651664
 21
244.496916
 31
0.0
 11
20.626053
 21
244.402250
 31
0.0
 11
20.558791
 21
244.335042
 31
0.0
 11
20.464233
 21
244.309485
 31
0.0
 11
20.369567
 21
244.335094
 31
0.0
 11
20.302359
 21
244.402353
 31
0.0
 11
20.276802
 21
244.496916
 31
0.0
 11
20.302413
 21
244.591563
 31
0.0
 11
20.369675
 21
244.658764
 31
0.0
 11
20.464233
 21
244.684320
 31
0.0
  0
LWPOLYLINE
  5
130
100
AcDbEntity
  8
Layer_1
 62
1
100
AcDbPolyline
 90
1
 70
1
 10
20.464233
 20
244.684320
 30
0.0
  0
LWPOLYLINE
  5
131
100
AcDbEntity
  8
Layer_1
 62
1
100
AcDbPolyline
 90
1
 70
1
 10
-12.221360
 20
183.688870
 30
0.0
  0
SPLINE
  5
132
100
AcDbEntity
  8
Layer_1
 62
1
100
AcDbSpline
 70
0
 71
3
 72
19
 73
15
 74
13
 40
0.000000
 40
0.000000
 40
0.000000
 40
0.000000
 40
0.980378
 40
1.931714
 40
2.912096
 40
3.892479
 40
4.843815
 40
5.824193
 40
6.804550
 40
7.755868
 40
8.736266
 40
9.716648
 40
10.667986
 40
11.648371
 40
11.648371
 40
11.648371
 40
11.648371
 10
-12.221360
 20
183.688870
 30
0.0
 10
-12.272903
 20
184.019406
 30
0.0
 10
-12.374461
 20
184.670686
 30
0.0
 10
-13.120952
 20
185.387684
 30
0.0
 10
-14.094714
 20
185.653393
 30
0.0
 10
-15.078702
 20
185.387684
 30
0.0
 10
-15.795123
 20
184.670685
 30
0.0
 10
-16.061030
 20
183.688879
 30
0.0
 10
-15.795127
 20
182.707066
 30
0.0
 10
-15.078682
 20
181.990123
 30
0.0
 10
-14.094726
 20
181.724315
 30
0.0
 10
-13.120949
 20
181.990052
 30
0.0
 10
-12.374460
 20
182.707047
 30
0.0
 10
-12.272902
 20
183.358331
 30
0.0
 10
-12.221360
 20
183.688870
 30
0.0
 11
-12.221360
 21
183.688870
 31
0.0
 11
-12.477374
 21
184.635230
 31
0.0
 11
-13.150071
 21
185.307926
 31
0.0
 11
-14.096435
 21
185.563940
 31
0.0
 11
-15.042800
 21
185.307926
 31
0.0
 11
-15.715497
 21
184.635230
 31
0.0
 11
-15.971511
 21
183.688870
 31
0.0
 11
-15.715497
 21
182.742531
 31
0.0
 11
-15.042800
 21
182.069862
 31
0.0
 11
-14.096435
 21
181.813790
 31
0.0
 11
-13.150071
 21
182.069804
 31
0.0
 11
-12.477374
 21
182.742503
 31
0.0
 11
-12.221360
 21
183.688870
 31
0.0
  0
LWPOLYLINE
  5
133
100
AcDbEntity
  8
Layer_1
 62
1
100
AcDbPolyline
 90
2
 70
0
 10
-98.950849
 20
248.904054
 30
0.0
 10
-98.950849
 20
252.143691
 30
0.0
  0
SPLINE
  5
134
100
AcDbEntity
  8
Layer_1
 62
1
100
AcDbSpline
 70
0
 71
3
 72
13
 73
9
 74
7
 40
0.000000
 40
0.000000
 40
0.000000
 40
0.000000
 40
0.524011
 40
1.022909
 40
1.526921
 40
2.030997
 40
2.529953
 40
3.054011
 40
3.054011
 40
3.054011
 40
3.054011
 10
-98.950849
 20
248.904054
 30
0.0
 10
-98.924884
 20
248.727451
 30
0.0
 10
-98.874196
 20
248.382708
 30
0.0
 10
-98.495217
 20
247.996055
 30
0.0
 10
-97.989926
 20
247.849911
 30
0.0
 10
-97.484545
 20
247.995925
 30
0.0
 10
-97.105548
 20
248.382664
 30
0.0
 10
-97.054857
 20
248.727437
 30
0.0
 10
-97.028890
 20
248.904054
 30
0.0
 11
-98.950849
 21
248.904054
 31
0.0
 11
-98.819628
 21
248.396739
 31
0.0
 11
-98.474870
 21
248.036126
 31
0.0
 11
-97.989936
 21
247.898769
 31
0.0
 11
-97.504908
 21
248.036032
 31
0.0
 11
-97.160116
 21
248.396692
 31
0.0
 11
-97.028890
 21
248.904054
 31
0.0
  0
LWPOLYLINE
  5
135
100
AcDbEntity
  8
Layer_1
 62
1
100
AcDbPolyline
 90
2
 70
0
 10
-97.028757
 20
248.904054
 30
0.0
 10
-97.028757
 20
252.143691
 30
0.0
  0
LWPOLYLINE
  5
136
100
AcDbEntity
  8
Layer_1
 62
1
100
AcDbPolyline
 90
2
 70
0
 10
-102.520850
 20
248.431270
 30
0.0
 10
-102.520850
 20
248.235954
 30
0.0
  0
SPLINE
  5
137
100
AcDbEntity
  8
Layer_1
 62
1
100
AcDbSpline
 70
0
 71
3
 72
16
 73
12
 74
10
 40
0.000000
 40
0.000000
 40
0.000000
 40
0.000000
 40
0.350337
 40
0.692387
 40
1.034194
 40
1.371420
 40
1.701943
 40
2.039071
 40
2.380852
 40
2.722867
 40
3.073297
 40
3.073297
 40
3.073297
 40
3.073297
 10
-97.028757
 20
252.143691
 30
0.0
 10
-97.040144
 20
252.261024
 30
0.0
 10
-97.062647
 20
252.492913
 30
0.0
 10
-97.238122
 20
252.800918
 30
0.0
 10
-97.496757
 20
253.031095
 30
0.0
 10
-97.818603
 20
253.153929
 30
0.0
 10
-98.160763
 20
253.153952
 30
0.0
 10
-98.482540
 20
253.031056
 30
0.0
 10
-98.741172
 20
252.800975
 30
0.0
 10
-98.916686
 20
252.492970
 30
0.0
 10
-98.939177
 20
252.261057
 30
0.0
 10
-98.950558
 20
252.143691
 30
0.0
 11
-97.028757
 21
252.143691
 31
0.0
 11
-97.087232
 21
252.489114
 31
0.0
 11
-97.252469
 21
252.788605
 31
0.0
 11
-97.509188
 21
253.014276
 31
0.0
 11
-97.824436
 21
253.134027
 31
0.0
 11
-98.154959
 21
253.134027
 31
0.0
 11
-98.470101
 21
253.014276
 31
0.0
 11
-98.726827
 21
252.788652
 31
0.0
 11
-98.892077
 21
252.489208
 31
0.0
 11
-98.950558
 21
252.143691
 31
0.0
  0
LWPOLYLINE
  5
138
100
AcDbEntity
  8
Layer_1
 62
1
100
AcDbPolyline
 90
2
 70
0
 10
-102.520850
 20
248.333692
 30
0.0
 10
-102.540450
 20
255.279348
 30
0.0
  0
LWPOLYLINE
  5
139
100
AcDbEntity
  8
Layer_1
 62
1
100
AcDbPolyline
 90
2
 70
0
 10
-100.992640
 20
256.798771
 30
0.0
 10
-96.752135
 20
256.798771
 30
0.0
  0
SPLINE
  5
13a
100
AcDbEntity
  8
Layer_1
 62
1
100
AcDbSpline
 70
0
 71
3
 72
13
 73
9
 74
7
 40
0.000000
 40
0.000000
 40
0.000000
 40
0.000000
 40
0.408289
 40
0.811519
 40
1.215302
 40
1.615847
 40
2.010164
 40
2.406164
 40
2.406164
 40
2.406164
 40
2.406164
 10
-100.992640
 20
256.798771
 30
0.0
 10
-101.129118
 20
256.788644
 30
0.0
 10
-101.400384
 20
256.768516
 30
0.0
 10
-101.780013
 20
256.609234
 30
0.0
 10
-102.106175
 20
256.366458
 30
0.0
 10
-102.353354
 20
256.047403
 30
0.0
 10
-102.514020
 20
255.676564
 30
0.0
 10
-102.531508
 20
255.412047
 30
0.0
 10
-102.540270
 20
255.279507
 30
0.0
 11
-100.992640
 21
256.798771
 31
0.0
 11
-101.397577
 21
256.746563
 31
0.0
 11
-101.771323
 21
256.595206
 31
0.0
 11
-102.094100
 21
256.352604
 31
0.0
 11
-102.340247
 21
256.036617
 31
0.0
 11
-102.491603
 21
255.672505
 31
0.0
 11
-102.540270
 21
255.279507
 31
0.0
  0
SPLINE
  5
13b
100
AcDbEntity
  8
Layer_1
 62
1
100
AcDbSpline
 70
0
 71
3
 72
10
 73
6
 74
4
 40
0.000000
 40
0.000000
 40
0.000000
 40
0.000000
 40
0.937496
 40
1.783400
 40
2.585607
 40
2.585607
 40
2.585607
 40
2.585607
 10
25.281025
 20
246.274175
 30
0.0
 10
25.556890
 20
246.423702
 30
0.0
 10
26.081667
 20
246.708148
 30
0.0
 10
26.644909
 20
247.415921
 30
0.0
 10
26.722992
 20
247.967484
 30
0.0
 10
26.760999
 20
248.235954
 30
0.0
 11
25.281025
 21
246.274175
 31
0.0
 11
26.070958
 21
246.779057
 31
0.0
 11
26.580420
 21
247.454336
 31
0.0
 11
26.760999
 21
248.235954
 31
0.0
  0
SPLINE
  5
13c
100
AcDbEntity
  8
Layer_1
 62
1
100
AcDbSpline
 70
0
 71
3
 72
10
 73
6
 74
4
 40
0.000000
 40
0.000000
 40
0.000000
 40
0.000000
 40
1.529848
 40
2.913658
 40
4.224429
 40
4.224429
 40
4.224429
 40
4.224429
 10
25.281025
 20
246.274175
 30
0.0
 10
24.830555
 20
246.030970
 30
0.0
 10
23.972615
 20
245.567777
 30
0.0
 10
23.040934
 20
244.425163
 30
0.0
 10
22.889456
 20
243.527842
 30
0.0
 10
22.815770
 20
243.091343
 30
0.0
 11
25.281025
 21
246.274175
 31
0.0
 11
23.988982
 21
245.454994
 31
0.0
 11
23.141609
 21
244.360969
 31
0.0
 11
22.815770
 21
243.091343
 31
0.0
  0
SPLINE
  5
13d
100
AcDbEntity
  8
Layer_1
 62
1
100
AcDbSpline
 70
0
 71
3
 72
10
 73
6
 74
4
 40
0.000000
 40
0.000000
 40
0.000000
 40
0.000000
 40
0.701336
 40
1.402201
 40
2.102557
 40
2.102557
 40
2.102557
 40
2.102557
 10
22.760340
 20
240.989520
 30
0.0
 10
22.767115
 20
241.223201
 30
0.0
 10
22.780662
 20
241.690405
 30
0.0
 10
22.799122
 20
242.391015
 30
0.0
 10
22.810222
 20
242.857957
 30
0.0
 10
22.815770
 20
243.091343
 30
0.0
 11
22.760340
 21
240.989520
 31
0.0
 11
22.780357
 21
241.690570
 31
0.0
 11
22.798826
 21
242.391192
 31
0.0
 11
22.815770
 21
243.091343
 31
0.0
  0
SPLINE
  5
13e
100
AcDbEntity
  8
Layer_1
 62
1
100
AcDbSpline
 70
0
 71
3
 72
10
 73
6
 74
4
 40
0.000000
 40
0.000000
 40
0.000000
 40
0.000000
 40
3.155890
 40
6.311918
 40
9.466425
 40
9.466425
 40
9.466425
 40
9.466425
 10
21.789928
 20
226.023893
 30
0.0
 10
21.898121
 20
227.070310
 30
0.0
 10
22.114513
 20
229.163189
 30
0.0
 10
22.358236
 20
232.309631
 30
0.0
 10
22.477866
 20
234.409758
 30
0.0
 10
22.537667
 20
235.459569
 30
0.0
 11
21.789928
 21
226.023893
 31
0.0
 11
22.101038
 21
229.164411
 31
0.0
 11
22.347560
 21
232.310796
 31
0.0
 11
22.537667
 21
235.459569
 31
0.0
  0
SPLINE
  5
13f
100
AcDbEntity
  8
Layer_1
 62
1
100
AcDbSpline
 70
0
 71
3
 72
10
 73
6
 74
4
 40
0.000000
 40
0.000000
 40
0.000000
 40
0.000000
 40
3.151408
 40
6.302274
 40
9.454113
 40
9.454113
 40
9.454113
 40
9.454113
 10
19.166716
 20
211.266811
 30
0.0
 10
19.418120
 20
212.286834
 30
0.0
 10
19.920885
 20
214.326705
 30
0.0
 10
20.546905
 20
217.416401
 30
0.0
 10
20.889512
 20
219.489261
 30
0.0
 10
21.060842
 20
220.525851
 30
0.0
 11
19.166716
 21
211.266811
 31
0.0
 11
19.899562
 21
214.331824
 31
0.0
 11
20.528162
 21
217.419351
 31
0.0
 11
21.060842
 21
220.525851
 31
0.0
  0
SPLINE
  5
140
100
AcDbEntity
  8
Layer_1
 62
1
100
AcDbSpline
 70
0
 71
3
 72
13
 73
9
 74
7
 40
0.000000
 40
0.000000
 40
0.000000
 40
0.000000
 40
2.991665
 40
5.985826
 40
8.977435
 40
10.028860
 40
11.079253
 40
12.128881
 40
12.128881
 40
12.128881
 40
12.128881
 10
14.008982
 20
197.209419
 30
0.0
 10
14.444293
 20
198.106856
 30
0.0
 10
15.315277
 20
199.902480
 30
0.0
 10
16.448038
 20
202.674174
 30
0.0
 10
17.248250
 20
204.879722
 30
0.0
 10
17.782595
 20
206.491304
 30
0.0
 10
18.100575
 20
207.492552
 30
0.0
 10
18.301226
 20
208.163196
 30
0.0
 10
18.401515
 20
208.498396
 30
0.0
 11
14.008982
 21
197.209419
 31
0.0
 11
15.286013
 21
199.914831
 31
0.0
 11
16.429688
 21
202.681960
 31
0.0
 11
17.449385
 21
205.494422
 31
0.0
 11
17.780595
 21
206.492317
 31
0.0
 11
18.097840
 21
207.493657
 31
0.0
 11
18.401515
 21
208.498396
 31
0.0
  0
SPLINE
  5
141
100
AcDbEntity
  8
Layer_1
 62
1
100
AcDbSpline
 70
0
 71
3
 72
13
 73
9
 74
7
 40
0.000000
 40
0.000000
 40
0.000000
 40
0.000000
 40
1.183118
 40
2.365186
 40
3.546212
 40
5.958893
 40
8.370966
 40
10.785224
 40
10.785224
 40
10.785224
 40
10.785224
 10
6.207769
 20
186.067630
 30
0.0
 10
6.479988
 20
186.353020
 30
0.0
 10
7.024184
 20
186.923548
 30
0.0
 10
7.808733
 20
187.808053
 30
0.0
 10
8.833020
 20
189.026919
 30
0.0
 10
10.050248
 20
190.617606
 30
0.0
 10
11.415691
 20
192.609107
 30
0.0
 10
12.237383
 20
193.992620
 30
0.0
 10
12.648415
 20
194.684690
 30
0.0
 11
6.207769
 21
186.067630
 31
0.0
 11
7.019188
 21
186.928656
 31
0.0
 11
7.804966
 21
187.811740
 31
0.0
 11
8.564280
 21
188.716320
 31
0.0
 11
10.033416
 21
190.630131
 31
0.0
 11
11.393133
 21
192.622433
 31
0.0
 11
12.648415
 21
194.684690
 31
0.0
  0
SPLINE
  5
142
100
AcDbEntity
  8
Layer_1
 62
1
100
AcDbSpline
 70
0
 71
3
 72
13
 73
9
 74
7
 40
0.000000
 40
0.000000
 40
0.000000
 40
0.000000
 40
0.757420
 40
1.515090
 40
2.273108
 40
5.113590
 40
7.958095
 40
10.804094
 40
10.804094
 40
10.804094
 40
10.804094
 10
-7.110642
 20
176.760730
 30
0.0
 10
-6.880667
 20
176.864929
 30
0.0
 10
-6.420641
 20
177.073361
 30
0.0
 10
-5.737425
 20
177.401106
 30
0.0
 10
-4.438518
 20
178.050320
 30
0.0
 10
-2.560069
 20
179.094317
 30
0.0
 10
-0.160709
 20
180.626242
 30
0.0
 10
1.347961
 20
181.777127
 30
0.0
 10
2.102494
 20
182.352720
 30
0.0
 11
-7.110642
 21
176.760730
 31
0.0
 11
-6.421877
 21
177.075830
 31
0.0
 11
-5.738434
 21
177.402893
 31
0.0
 11
-5.060518
 21
177.742040
 31
0.0
 11
-2.575855
 21
179.118553
 31
0.0
 11
-0.184067
 21
180.658214
 31
0.0
 11
2.102494
 21
182.352720
 31
0.0
  0
SPLINE
  5
143
100
AcDbEntity
  8
Layer_1
 62
1
100
AcDbSpline
 70
0
 71
3
 72
13
 73
9
 74
7
 40
0.000000
 40
0.000000
 40
0.000000
 40
0.000000
 40
0.668271
 40
1.336795
 40
2.005638
 40
5.026187
 40
8.050525
 40
11.076077
 40
11.076077
 40
11.076077
 40
11.076077
 10
-20.466570
 20
172.892680
 30
0.0
 10
-20.246743
 20
172.928701
 30
0.0
 10
-19.807005
 20
173.000756
 30
0.0
 10
-19.148715
 20
173.117514
 30
0.0
 10
-17.720942
 20
173.385270
 30
0.0
 10
-15.534731
 20
173.867098
 30
0.0
 10
-12.614954
 20
174.661708
 30
0.0
 10
-10.713644
 20
175.335718
 30
0.0
 10
-9.762799
 20
175.672790
 30
0.0
 11
-20.466570
 21
172.892680
 31
0.0
 11
-19.807332
 21
173.002183
 31
0.0
 11
-19.149018
 21
173.118573
 31
0.0
 11
-18.491667
 21
173.242030
 31
0.0
 11
-15.541598
 21
173.890729
 31
0.0
 11
-12.626878
 21
174.697591
 31
0.0
 11
-9.762799
 21
175.672790
 31
0.0
  0
SPLINE
  5
144
100
AcDbEntity
  8
Layer_1
 62
1
100
AcDbSpline
 70
0
 71
3
 72
10
 73
6
 74
4
 40
0.000000
 40
0.000000
 40
0.000000
 40
0.000000
 40
3.516235
 40
7.025960
 40
10.528496
 40
10.528496
 40
10.528496
 40
10.528496
 10
-36.464231
 20
171.810050
 30
0.0
 10
-35.292208
 20
171.821254
 30
0.0
 10
-32.950333
 20
171.843642
 30
0.0
 10
-29.441953
 20
171.962629
 30
0.0
 10
-27.110864
 20
172.137323
 30
0.0
 10
-25.946514
 20
172.224580
 30
0.0
 11
-36.464231
 21
171.810050
 31
0.0
 11
-32.948322
 21
171.857943
 31
0.0
 11
-29.440957
 21
171.986620
 31
0.0
 11
-25.946514
 21
172.224580
 31
0.0
  0
SPLINE
  5
145
100
AcDbEntity
  8
Layer_1
 62
1
100
AcDbSpline
 70
0
 71
3
 72
10
 73
6
 74
4
 40
0.000000
 40
0.000000
 40
0.000000
 40
0.000000
 40
3.564241
 40
7.135139
 40
10.710285
 40
10.710285
 40
10.710285
 40
10.710285
 10
-50.039816
 20
172.252410
 30
0.0
 10
-48.855171
 20
172.160702
 30
0.0
 10
-46.483668
 20
171.977113
 30
0.0
 10
-42.914878
 20
171.850244
 30
0.0
 10
-40.533007
 20
171.824600
 30
0.0
 10
-39.341363
 20
171.811770
 30
0.0
 11
-50.039816
 21
172.252410
 31
0.0
 11
-46.484382
 21
172.002006
 31
0.0
 11
-42.916112
 21
171.865028
 31
0.0
 11
-39.341363
 21
171.811770
 31
0.0
  0
SPLINE
  5
146
100
AcDbEntity
  8
Layer_1
 62
1
100
AcDbSpline
 70
0
 71
3
 72
13
 73
9
 74
7
 40
0.000000
 40
0.000000
 40
0.000000
 40
0.000000
 40
1.689312
 40
3.376353
 40
5.059698
 40
7.005081
 40
8.946142
 40
10.884959
 40
10.884959
 40
10.884959
 40
10.884959
 10
-66.039117
 20
175.695280
 30
0.0
 10
-65.510032
 20
175.502369
 30
0.0
 10
-64.452574
 20
175.116807
 30
0.0
 10
-62.844783
 20
174.605888
 30
0.0
 10
-61.140707
 20
174.119363
 30
0.0
 10
-59.338201
 20
173.672953
 30
0.0
 10
-57.438927
 20
173.266638
 30
0.0
 10
-56.164388
 20
173.046583
 30
0.0
 10
-55.527486
 20
172.936620
 30
0.0
 11
-66.039117
 21
175.695280
 31
0.0
 11
-64.448001
 21
175.127719
 31
0.0
 11
-62.841240
 21
174.613498
 31
0.0
 11
-61.222325
 21
174.152230
 31
0.0
 11
-59.334446
 21
173.682732
 31
0.0
 11
-57.435808
 21
173.279138
 31
0.0
 11
-55.527486
 21
172.936620
 31
0.0
  0
SPLINE
  5
147
100
AcDbEntity
  8
Layer_1
 62
1
100
AcDbSpline
 70
0
 71
3
 72
10
 73
6
 74
4
 40
0.000000
 40
0.000000
 40
0.000000
 40
0.000000
 40
3.603557
 40
7.218322
 40
10.842671
 40
10.842671
 40
10.842671
 40
10.842671
 10
-77.969735
 20
182.343730
 30
0.0
 10
-77.008532
 20
181.622376
 30
0.0
 10
-75.083136
 20
180.177425
 30
0.0
 10
-71.968522
 20
178.326963
 30
0.0
 10
-69.785659
 20
177.296862
 30
0.0
 10
-68.692782
 20
176.781130
 30
0.0
 11
-77.969735
 21
182.343730
 31
0.0
 11
-75.049214
 21
180.232763
 31
0.0
 11
-71.945496
 21
178.379803
 31
0.0
 11
-68.692782
 21
176.781130
 31
0.0
  0
SPLINE
  5
148
100
AcDbEntity
  8
Layer_1
 62
1
100
AcDbSpline
 70
0
 71
3
 72
10
 73
6
 74
4
 40
0.000000
 40
0.000000
 40
0.000000
 40
0.000000
 40
3.582676
 40
7.154333
 40
10.712865
 40
10.712865
 40
10.712865
 40
10.712865
 10
-88.409982
 20
194.720300
 30
0.0
 10
-87.788573
 20
193.700192
 30
0.0
 10
-86.547667
 20
191.663114
 30
0.0
 10
-84.435611
 20
188.775192
 30
0.0
 10
-82.851310
 20
187.002203
 30
0.0
 10
-82.060617
 20
186.117340
 30
0.0
 11
-88.409982
 21
194.720300
 31
0.0
 11
-86.503230
 21
191.687172
 31
0.0
 11
-84.388215
 21
188.809075
 31
0.0
 11
-82.060617
 21
186.117340
 31
0.0
  0
SPLINE
  5
149
100
AcDbEntity
  8
Layer_1
 62
1
100
AcDbSpline
 70
0
 71
3
 72
13
 73
9
 74
7
 40
0.000000
 40
0.000000
 40
0.000000
 40
0.000000
 40
2.496150
 40
4.996616
 40
7.504271
 40
9.043474
 40
10.585434
 40
12.129116
 40
12.129116
 40
12.129116
 40
12.129116
 10
-94.261321
 20
208.491966
 30
0.0
 10
-94.016759
 20
207.696579
 30
0.0
 10
-93.527212
 20
206.104430
 30
0.0
 10
-92.685234
 20
203.748117
 30
0.0
 10
-91.878630
 20
201.719652
 30
0.0
 10
-91.133188
 20
200.012192
 30
0.0
 10
-90.483686
 20
198.613794
 30
0.0
 10
-90.019848
 20
197.695706
 30
0.0
 10
-89.787799
 20
197.236406
 30
0.0
 11
-94.261321
 21
208.491966
 31
0.0
 11
-93.509897
 21
206.111603
 31
0.0
 11
-92.672313
 21
203.755593
 31
0.0
 11
-91.743494
 21
201.426295
 31
0.0
 11
-91.128130
 21
200.015455
 31
0.0
 11
-90.476312
 21
198.618037
 31
0.0
 11
-89.787799
 21
197.236406
 31
0.0
  0
SPLINE
  5
14a
100
AcDbEntity
  8
Layer_1
 62
1
100
AcDbSpline
 70
0
 71
3
 72
10
 73
6
 74
4
 40
0.000000
 40
0.000000
 40
0.000000
 40
0.000000
 40
3.150747
 40
6.298275
 40
9.443632
 40
9.443632
 40
9.443632
 40
9.443632
 10
-96.881067
 20
220.515744
 30
0.0
 10
-96.715583
 20
219.478574
 30
0.0
 10
-96.384783
 20
217.405293
 30
0.0
 10
-95.773342
 20
214.316133
 30
0.0
 10
-95.275423
 20
212.278272
 30
0.0
 10
-95.026549
 20
211.259693
 30
0.0
 11
-96.881067
 21
220.515744
 31
0.0
 11
-96.365347
 21
217.407490
 31
0.0
 11
-95.750567
 21
214.320586
 31
0.0
 11
-95.026549
 21
211.259693
 31
0.0
  0
SPLINE
  5
14b
100
AcDbEntity
  8
Layer_1
 62
1
100
AcDbSpline
 70
0
 71
3
 72
10
 73
6
 74
4
 40
0.000000
 40
0.000000
 40
0.000000
 40
0.000000
 40
3.140786
 40
6.285848
 40
9.432245
 40
9.432245
 40
9.432245
 40
9.432245
 10
-98.293466
 20
235.432846
 30
0.0
 10
-98.235042
 20
234.387543
 30
0.0
 10
-98.118114
 20
232.295514
 30
0.0
 10
-97.887101
 20
229.159605
 30
0.0
 10
-97.682287
 20
227.072417
 30
0.0
 10
-97.579858
 20
226.028602
 30
0.0
 11
-98.293466
 21
235.432846
 31
0.0
 11
-98.108950
 21
232.297485
 31
0.0
 11
-97.874458
 21
229.161177
 31
0.0
 11
-97.579858
 21
226.028602
 31
0.0
  0
LWPOLYLINE
  5
14c
100
AcDbEntity
  8
Layer_1
 62
1
100
AcDbPolyline
 90
2
 70
0
 10
26.760999
 20
248.431270
 30
0.0
 10
26.760999
 20
248.235954
 30
0.0
  0
LWPOLYLINE
  5
14d
100
AcDbEntity
  8
Layer_1
 62
1
100
AcDbPolyline
 90
2
 70
0
 10
-95.026391
 20
211.259746
 30
0.0
 10
-94.261321
 20
208.491966
 30
0.0
  0
LWPOLYLINE
  5
14e
100
AcDbEntity
  8
Layer_1
 62
1
100
AcDbPolyline
 90
2
 70
0
 10
19.189814
 20
211.321870
 30
0.0
 10
18.401727
 20
208.498396
 30
0.0
  0
LWPOLYLINE
  5
14f
100
AcDbEntity
  8
Layer_1
 62
1
100
AcDbPolyline
 90
2
 70
0
 10
14.008982
 20
197.209419
 30
0.0
 10
12.648627
 20
194.684690
 30
0.0
  0
LWPOLYLINE
  5
150
100
AcDbEntity
  8
Layer_1
 62
1
100
AcDbPolyline
 90
2
 70
0
 10
-89.787799
 20
197.236486
 30
0.0
 10
-88.409982
 20
194.720380
 30
0.0
  0
SPLINE
  5
151
100
AcDbEntity
  8
Layer_1
 62
1
100
AcDbSpline
 70
0
 71
3
 72
13
 73
9
 74
7
 40
0.000000
 40
0.000000
 40
0.000000
 40
0.000000
 40
0.576075
 40
1.152156
 40
1.728186
 40
3.212942
 40
4.670739
 40
6.155397
 40
6.155397
 40
6.155397
 40
6.155397
 10
-98.529659
 20
240.992377
 30
0.0
 10
-98.536003
 20
241.184292
 30
0.0
 10
-98.548692
 20
241.568123
 30
0.0
 10
-98.571258
 20
242.143834
 30
0.0
 10
-98.577509
 20
243.022597
 30
0.0
 10
-98.827412
 20
244.192472
 30
0.0
 10
-99.711186
 20
245.449770
 30
0.0
 10
-100.597452
 20
245.897469
 30
0.0
 10
-101.044630
 20
246.123362
 30
0.0
 11
-98.529659
 21
240.992377
 31
0.0
 11
-98.549281
 21
241.568118
 31
0.0
 11
-98.568180
 21
242.143889
 31
0.0
 11
-98.586409
 21
242.719630
 31
0.0
 11
-98.925671
 21
244.165106
 31
0.0
 11
-99.779187
 21
245.346920
 31
0.0
 11
-101.044630
 21
246.123362
 31
0.0
  0
LWPOLYLINE
  5
152
100
AcDbEntity
  8
Layer_1
 62
1
100
AcDbPolyline
 90
2
 70
0
 10
24.704340
 20
241.478761
 30
0.0
 10
22.760340
 20
240.989520
 30
0.0
  0
SPLINE
  5
153
100
AcDbEntity
  8
Layer_1
 62
1
100
AcDbSpline
 70
0
 71
3
 72
10
 73
6
 74
4
 40
0.000000
 40
0.000000
 40
0.000000
 40
0.000000
 40
0.140976
 40
0.281372
 40
0.422437
 40
0.422437
 40
0.422437
 40
0.422437
 10
25.121587
 20
241.464050
 30
0.0
 10
25.076093
 20
241.476177
 30
0.0
 10
24.985292
 20
241.500381
 30
0.0
 10
24.842936
 20
241.505454
 30
0.0
 10
24.750612
 20
241.487779
 30
0.0
 10
24.704340
 20
241.478920
 30
0.0
 11
25.121587
 21
241.464050
 31
0.0
 11
24.984096
 21
241.495203
 31
0.0
 11
24.843789
 21
241.500207
 31
0.0
 11
24.704340
 21
241.478920
 31
0.0
  0
LWPOLYLINE
  5
154
100
AcDbEntity
  8
Layer_1
 62
1
100
AcDbPolyline
 90
2
 70
0
 10
25.637657
 20
241.294558
 30
0.0
 10
25.121587
 20
241.464050
 30
0.0
  0
SPLINE
  5
155
100
AcDbEntity
  8
Layer_1
 62
1
100
AcDbSpline
 70
0
 71
3
 72
10
 73
6
 74
4
 40
0.000000
 40
0.000000
 40
0.000000
 40
0.000000
 40
0.322811
 40
0.638842
 40
0.961741
 40
0.961741
 40
0.961741
 40
0.961741
 10
26.153118
 20
240.552719
 30
0.0
 10
26.143385
 20
240.661110
 30
0.0
 10
26.124124
 20
240.875615
 30
0.0
 10
25.930223
 20
241.154537
 30
0.0
 10
25.735875
 20
241.247393
 30
0.0
 10
25.637657
 20
241.294320
 30
0.0
 11
26.153118
 21
240.552719
 31
0.0
 11
26.095951
 21
240.870428
 31
0.0
 11
25.915575
 21
241.129928
 31
0.0
 11
25.637657
 21
241.294320
 31
0.0
  0
LWPOLYLINE
  5
156
100
AcDbEntity
  8
Layer_1
 62
1
100
AcDbPolyline
 90
2
 70
0
 10
26.065303
 20
238.291325
 30
0.0
 10
26.153113
 20
240.552719
 30
0.0
  0
SPLINE
  5
157
100
AcDbEntity
  8
Layer_1
 62
1
100
AcDbSpline
 70
0
 71
3
 72
10
 73
6
 74
4
 40
0.000000
 40
0.000000
 40
0.000000
 40
0.000000
 40
0.322410
 40
0.638027
 40
0.960378
 40
0.960378
 40
0.960378
 40
0.960378
 10
25.346351
 20
234.946489
 30
0.0
 10
25.447687
 20
234.985776
 30
0.0
 10
25.648225
 20
235.063524
 30
0.0
 10
25.862533
 20
235.326400
 30
0.0
 10
25.898281
 20
235.538470
 30
0.0
 10
25.916343
 20
235.645624
 30
0.0
 11
25.346351
 21
234.946489
 31
0.0
 11
25.635508
 21
235.089094
 31
0.0
 11
25.834936
 21
235.333721
 31
0.0
 11
25.916343
 21
235.645624
 31
0.0
  0
LWPOLYLINE
  5
158
100
AcDbEntity
  8
Layer_1
 62
1
100
AcDbPolyline
 90
2
 70
0
 10
24.817899
 20
234.816209
 30
0.0
 10
25.346351
 20
234.946489
 30
0.0
  0
LWPOLYLINE
  5
159
100
AcDbEntity
  8
Layer_1
 62
1
100
AcDbPolyline
 90
2
 70
0
 10
22.511341
 20
235.468327
 30
0.0
 10
24.399540
 20
234.833539
 30
0.0
  0
LWPOLYLINE
  5
15a
100
AcDbEntity
  8
Layer_1
 62
1
100
AcDbPolyline
 90
2
 70
0
 10
26.065303
 20
238.291325
 30
0.0
 10
25.916343
 20
235.645624
 30
0.0
  0
SPLINE
  5
15b
100
AcDbEntity
  8
Layer_1
 62
1
100
AcDbSpline
 70
0
 71
3
 72
10
 73
6
 74
4
 40
0.000000
 40
0.000000
 40
0.000000
 40
0.000000
 40
0.141394
 40
0.282246
 40
0.423738
 40
0.423738
 40
0.423738
 40
0.423738
 10
24.399540
 20
234.833539
 30
0.0
 10
24.445077
 20
234.821033
 30
0.0
 10
24.535976
 20
234.796068
 30
0.0
 10
24.678765
 20
234.790132
 30
0.0
 10
24.771451
 20
234.807504
 30
0.0
 10
24.817899
 20
234.816209
 30
0.0
 11
24.399540
 21
234.833539
 31
0.0
 11
24.537207
 21
234.801293
 31
0.0
 11
24.677938
 21
234.795449
 31
0.0
 11
24.817899
 21
234.816209
 31
0.0
  0
LWPOLYLINE
  5
15c
100
AcDbEntity
  8
Layer_1
 62
1
100
AcDbPolyline
 90
2
 70
0
 10
23.772636
 20
226.319168
 30
0.0
 10
21.789928
 20
226.023893
 30
0.0
  0
SPLINE
  5
15d
100
AcDbEntity
  8
Layer_1
 62
1
100
AcDbSpline
 70
0
 71
3
 72
10
 73
6
 74
4
 40
0.000000
 40
0.000000
 40
0.000000
 40
0.000000
 40
0.140994
 40
0.281440
 40
0.422477
 40
0.422477
 40
0.422477
 40
0.422477
 10
24.186391
 20
226.263499
 30
0.0
 10
24.142321
 20
226.280088
 30
0.0
 10
24.054351
 20
226.313200
 30
0.0
 10
23.913154
 20
226.332262
 30
0.0
 10
23.819541
 20
226.323626
 30
0.0
 10
23.772636
 20
226.319299
 30
0.0
 11
24.186391
 21
226.263499
 31
0.0
 11
24.052651
 21
226.308141
 31
0.0
 11
23.913467
 21
226.326923
 31
0.0
 11
23.772636
 21
226.319299
 31
0.0
  0
LWPOLYLINE
  5
15e
100
AcDbEntity
  8
Layer_1
 62
1
100
AcDbPolyline
 90
2
 70
0
 10
24.683279
 20
226.043895
 30
0.0
 10
24.186391
 20
226.263499
 30
0.0
  0
SPLINE
  5
15f
100
AcDbEntity
  8
Layer_1
 62
1
100
AcDbSpline
 70
0
 71
3
 72
10
 73
6
 74
4
 40
0.000000
 40
0.000000
 40
0.000000
 40
0.000000
 40
0.322834
 40
0.638882
 40
0.961759
 40
0.961759
 40
0.961759
 40
0.961759
 10
25.123069
 20
225.254987
 30
0.0
 10
25.124058
 20
225.363819
 30
0.0
 10
25.126015
 20
225.579194
 30
0.0
 10
24.960499
 20
225.875835
 30
0.0
 10
24.776289
 20
225.987442
 30
0.0
 10
24.683199
 20
226.043842
 30
0.0
 11
25.123069
 21
225.254987
 31
0.0
 11
25.097462
 21
225.576804
 31
0.0
 11
24.943506
 21
225.852818
 31
0.0
 11
24.683199
 21
226.043842
 31
0.0
  0
LWPOLYLINE
  5
160
100
AcDbEntity
  8
Layer_1
 62
1
100
AcDbPolyline
 90
2
 70
0
 10
24.812792
 20
223.013226
 30
0.0
 10
25.123069
 20
225.255067
 30
0.0
  0
SPLINE
  5
161
100
AcDbEntity
  8
Layer_1
 62
1
100
AcDbSpline
 70
0
 71
3
 72
10
 73
6
 74
4
 40
0.000000
 40
0.000000
 40
0.000000
 40
0.000000
 40
0.322379
 40
0.637947
 40
0.960332
 40
0.960332
 40
0.960332
 40
0.960332
 10
23.767900
 20
219.755464
 30
0.0
 10
23.872610
 20
219.784561
 30
0.0
 10
24.079816
 20
219.842141
 30
0.0
 10
24.318955
 20
220.082624
 30
0.0
 10
24.375441
 20
220.290128
 30
0.0
 10
24.403985
 20
220.394988
 30
0.0
 11
23.767900
 21
219.755464
 31
0.0
 11
24.069682
 21
219.868847
 31
0.0
 11
24.292208
 21
220.092601
 31
0.0
 11
24.403985
 21
220.394988
 31
0.0
  0
LWPOLYLINE
  5
162
100
AcDbEntity
  8
Layer_1
 62
1
100
AcDbPolyline
 90
2
 70
0
 10
23.229182
 20
219.677915
 30
0.0
 10
23.767900
 20
219.755464
 30
0.0
  0
LWPOLYLINE
  5
163
100
AcDbEntity
  8
Layer_1
 62
1
100
AcDbPolyline
 90
2
 70
0
 10
20.998003
 20
220.554056
 30
0.0
 10
22.814659
 20
219.736414
 30
0.0
  0
LWPOLYLINE
  5
164
100
AcDbEntity
  8
Layer_1
 62
1
100
AcDbPolyline
 90
2
 70
0
 10
24.812792
 20
223.013226
 30
0.0
 10
24.403985
 20
220.394988
 30
0.0
  0
SPLINE
  5
165
100
AcDbEntity
  8
Layer_1
 62
1
100
AcDbSpline
 70
0
 71
3
 72
10
 73
6
 74
4
 40
0.000000
 40
0.000000
 40
0.000000
 40
0.000000
 40
0.141393
 40
0.282197
 40
0.423665
 40
0.423665
 40
0.423665
 40
0.423665
 10
22.814659
 20
219.736414
 30
0.0
 10
22.858735
 20
219.719465
 30
0.0
 10
22.946705
 20
219.685638
 30
0.0
 10
23.088189
 20
219.665629
 30
0.0
 10
23.182111
 20
219.673813
 30
0.0
 10
23.229182
 20
219.677914
 30
0.0
 11
22.814659
 21
219.736414
 31
0.0
 11
22.948463
 21
219.690714
 31
0.0
 11
23.087882
 21
219.671014
 31
0.0
 11
23.229182
 21
219.677914
 31
0.0
  0
LWPOLYLINE
  5
166
100
AcDbEntity
  8
Layer_1
 62
1
100
AcDbPolyline
 90
2
 70
0
 10
7.918459
 20
185.018000
 30
0.0
 10
6.207769
 20
186.063050
 30
0.0
  0
SPLINE
  5
167
100
AcDbEntity
  8
Layer_1
 62
1
100
AcDbSpline
 70
0
 71
3
 72
10
 73
6
 74
4
 40
0.000000
 40
0.000000
 40
0.000000
 40
0.000000
 40
0.141066
 40
0.281436
 40
0.422446
 40
0.422446
 40
0.422446
 40
0.422446
 10
8.200081
 20
184.709970
 30
0.0
 10
8.176896
 20
184.750984
 30
0.0
 10
8.130641
 20
184.832810
 30
0.0
 10
8.034555
 20
184.937987
 30
0.0
 10
7.957269
 20
184.991449
 30
0.0
 10
7.918538
 20
185.018240
 30
0.0
 11
8.200081
 21
184.709970
 31
0.0
 11
8.126066
 21
184.830059
 31
0.0
 11
8.031395
 21
184.933698
 31
0.0
 11
7.918538
 21
185.018240
 31
0.0
  0
LWPOLYLINE
  5
168
100
AcDbEntity
  8
Layer_1
 62
1
100
AcDbPolyline
 90
2
 70
0
 10
8.440455
 20
184.222850
 30
0.0
 10
8.200002
 20
184.709970
 30
0.0
  0
SPLINE
  5
169
100
AcDbEntity
  8
Layer_1
 62
1
100
AcDbSpline
 70
0
 71
3
 72
10
 73
6
 74
4
 40
0.000000
 40
0.000000
 40
0.000000
 40
0.000000
 40
0.322802
 40
0.638787
 40
0.961622
 40
0.961622
 40
0.961622
 40
0.961622
 10
8.272074
 20
183.335460
 30
0.0
 10
8.342632
 20
183.418310
 30
0.0
 10
8.482256
 20
183.582261
 30
0.0
 10
8.545580
 20
183.915968
 30
0.0
 10
8.475747
 20
184.119688
 30
0.0
 10
8.440455
 20
184.222640
 30
0.0
 11
8.272074
 21
183.335460
 31
0.0
 11
8.458833
 21
183.598752
 31
0.0
 11
8.517751
 21
183.909195
 31
0.0
 11
8.440455
 21
184.222640
 31
0.0
  0
LWPOLYLINE
  5
16a
100
AcDbEntity
  8
Layer_1
 62
1
100
AcDbPolyline
 90
2
 70
0
 10
6.596415
 20
181.814530
 30
0.0
 10
8.272074
 20
183.335540
 30
0.0
  0
SPLINE
  5
16b
100
AcDbEntity
  8
Layer_1
 62
1
100
AcDbSpline
 70
0
 71
3
 72
10
 73
6
 74
4
 40
0.000000
 40
0.000000
 40
0.000000
 40
0.000000
 40
0.322396
 40
0.638008
 40
0.960298
 40
0.960298
 40
0.960298
 40
0.960298
 10
3.705181
 20
179.984990
 30
0.0
 10
3.804188
 20
179.940169
 30
0.0
 10
4.000120
 20
179.851471
 30
0.0
 10
4.337820
 20
179.882540
 30
0.0
 10
4.514250
 20
180.005478
 30
0.0
 10
4.603388
 20
180.067590
 30
0.0
 11
3.705181
 21
179.984990
 31
0.0
 11
4.009463
 21
179.878447
 31
0.0
 11
4.323747
 21
179.907366
 31
0.0
 11
4.603388
 21
180.067590
 31
0.0
  0
LWPOLYLINE
  5
16c
100
AcDbEntity
  8
Layer_1
 62
1
100
AcDbPolyline
 90
2
 70
0
 10
3.242134
 20
180.270950
 30
0.0
 10
3.705181
 20
179.984990
 30
0.0
  0
LWPOLYLINE
  5
16d
100
AcDbEntity
  8
Layer_1
 62
1
100
AcDbPolyline
 90
2
 70
0
 10
2.092228
 20
182.374020
 30
0.0
 10
2.961490
 20
180.581840
 30
0.0
  0
LWPOLYLINE
  5
16e
100
AcDbEntity
  8
Layer_1
 62
1
100
AcDbPolyline
 90
2
 70
0
 10
6.596415
 20
181.814530
 30
0.0
 10
4.603388
 20
180.067620
 30
0.0
  0
SPLINE
  5
16f
100
AcDbEntity
  8
Layer_1
 62
1
100
AcDbSpline
 70
0
 71
3
 72
10
 73
6
 74
4
 40
0.000000
 40
0.000000
 40
0.000000
 40
0.000000
 40
0.141478
 40
0.282302
 40
0.423683
 40
0.423683
 40
0.423683
 40
0.423683
 10
2.961490
 20
180.581840
 30
0.0
 10
2.984460
 20
180.540547
 30
0.0
 10
3.030293
 20
180.458153
 30
0.0
 10
3.126041
 20
180.352078
 30
0.0
 10
3.203332
 20
180.298135
 30
0.0
 10
3.242054
 20
180.271110
 30
0.0
 11
2.961490
 21
180.581840
 31
0.0
 11
3.034911
 21
180.460905
 31
0.0
 11
3.129281
 21
180.356379
 31
0.0
 11
3.242054
 21
180.271110
 31
0.0
  0
LWPOLYLINE
  5
170
100
AcDbEntity
  8
Layer_1
 62
1
100
AcDbPolyline
 90
2
 70
0
 10
-19.645171
 20
171.046940
 30
0.0
 10
-20.466570
 20
172.875500
 30
0.0
  0
SPLINE
  5
171
100
AcDbEntity
  8
Layer_1
 62
1
100
AcDbSpline
 70
0
 71
3
 72
10
 73
6
 74
4
 40
0.000000
 40
0.000000
 40
0.000000
 40
0.000000
 40
0.140949
 40
0.281313
 40
0.422179
 40
0.422179
 40
0.422179
 40
0.422179
 10
-19.586910
 20
170.633530
 30
0.0
 10
-19.582943
 20
170.680434
 30
0.0
 10
-19.575025
 20
170.774048
 30
0.0
 10
-19.594810
 20
170.915027
 30
0.0
 10
-19.628363
 20
171.002757
 30
0.0
 10
-19.645170
 20
171.046700
 30
0.0
 11
-19.586910
 21
170.633530
 31
0.0
 11
-19.580306
 21
170.774324
 31
0.0
 11
-19.599862
 21
170.913320
 31
0.0
 11
-19.645170
 21
171.046700
 31
0.0
  0
LWPOLYLINE
  5
172
100
AcDbEntity
  8
Layer_1
 62
1
100
AcDbPolyline
 90
2
 70
0
 10
-19.663851
 20
170.095790
 30
0.0
 10
-19.586911
 20
170.633530
 30
0.0
  0
SPLINE
  5
173
100
AcDbEntity
  8
Layer_1
 62
1
100
AcDbSpline
 70
0
 71
3
 72
10
 73
6
 74
4
 40
0.000000
 40
0.000000
 40
0.000000
 40
0.000000
 40
0.322797
 40
0.638858
 40
0.961799
 40
0.961799
 40
0.961799
 40
0.961799
 10
-20.303904
 20
169.458890
 30
0.0
 10
-20.198874
 20
169.487378
 30
0.0
 10
-19.991005
 20
169.543760
 30
0.0
 10
-19.750245
 20
169.783434
 30
0.0
 10
-19.692697
 20
169.991013
 30
0.0
 10
-19.663613
 20
170.095920
 30
0.0
 11
-20.303904
 21
169.458890
 31
0.0
 11
-20.001054
 21
169.570604
 31
0.0
 11
-19.777021
 21
169.793546
 31
0.0
 11
-19.663613
 21
170.095920
 31
0.0
  0
LWPOLYLINE
  5
174
100
AcDbEntity
  8
Layer_1
 62
1
100
AcDbPolyline
 90
2
 70
0
 10
-22.545878
 20
169.150120
 30
0.0
 10
-20.303904
 20
169.458890
 30
0.0
  0
SPLINE
  5
175
100
AcDbEntity
  8
Layer_1
 62
1
100
AcDbSpline
 70
0
 71
3
 72
10
 73
6
 74
4
 40
0.000000
 40
0.000000
 40
0.000000
 40
0.000000
 40
0.322374
 40
0.638007
 40
0.960274
 40
0.960274
 40
0.960274
 40
0.960274
 10
-25.965194
 20
169.273550
 30
0.0
 10
-25.908805
 20
169.180652
 30
0.0
 10
-25.797206
 20
168.996798
 30
0.0
 10
-25.500978
 20
168.831719
 30
0.0
 10
-25.285950
 20
168.833527
 30
0.0
 10
-25.177318
 20
168.834440
 30
0.0
 11
-25.965194
 21
169.273550
 31
0.0
 11
-25.774271
 21
169.013793
 31
0.0
 11
-25.498557
 21
168.860150
 31
0.0
 11
-25.177318
 21
168.834440
 31
0.0
  0
LWPOLYLINE
  5
176
100
AcDbEntity
  8
Layer_1
 62
1
100
AcDbPolyline
 90
2
 70
0
 10
-26.185406
 20
169.771330
 30
0.0
 10
-25.965194
 20
169.273550
 30
0.0
  0
LWPOLYLINE
  5
177
100
AcDbEntity
  8
Layer_1
 62
1
100
AcDbPolyline
 90
2
 70
0
 10
-25.946514
 20
172.156180
 30
0.0
 10
-26.241578
 20
170.186230
 30
0.0
  0
LWPOLYLINE
  5
178
100
AcDbEntity
  8
Layer_1
 62
1
100
AcDbPolyline
 90
2
 70
0
 10
-22.545878
 20
169.150120
 30
0.0
 10
-25.177106
 20
168.834660
 30
0.0
  0
SPLINE
  5
179
100
AcDbEntity
  8
Layer_1
 62
1
100
AcDbSpline
 70
0
 71
3
 72
10
 73
6
 74
4
 40
0.000000
 40
0.000000
 40
0.000000
 40
0.000000
 40
0.141417
 40
0.282256
 40
0.423677
 40
0.423677
 40
0.423677
 40
0.423677
 10
-26.241578
 20
170.186230
 30
0.0
 10
-26.245932
 20
170.139199
 30
0.0
 10
-26.254622
 20
170.045330
 30
0.0
 10
-26.235457
 20
169.903732
 30
0.0
 10
-26.202201
 20
169.815525
 30
0.0
 10
-26.185538
 20
169.771330
 30
0.0
 11
-26.241578
 21
170.186230
 31
0.0
 11
-26.249254
 21
170.045021
 31
0.0
 11
-26.230382
 21
169.905452
 31
0.0
 11
-26.185538
 21
169.771330
 31
0.0
  0
LWPOLYLINE
  5
17a
100
AcDbEntity
  8
Layer_1
 62
1
100
AcDbPolyline
 90
2
 70
0
 10
-49.719194
 20
170.254040
 30
0.0
 10
-50.039816
 20
172.252410
 30
0.0
  0
SPLINE
  5
17b
100
AcDbEntity
  8
Layer_1
 62
1
100
AcDbSpline
 70
0
 71
3
 72
10
 73
6
 74
4
 40
0.000000
 40
0.000000
 40
0.000000
 40
0.000000
 40
0.140987
 40
0.281396
 40
0.422409
 40
0.422409
 40
0.422409
 40
0.422409
 10
-49.768539
 20
169.839520
 30
0.0
 10
-49.752636
 20
169.883842
 30
0.0
 10
-49.720894
 20
169.972303
 30
0.0
 10
-49.704143
 20
170.113766
 30
0.0
 10
-49.714173
 20
170.207215
 30
0.0
 10
-49.719199
 20
170.254040
 30
0.0
 11
-49.768539
 21
169.839520
 31
0.0
 11
-49.725996
 21
169.973935
 31
0.0
 11
-49.709442
 21
170.113365
 31
0.0
 11
-49.719199
 21
170.254040
 31
0.0
  0
LWPOLYLINE
  5
17c
100
AcDbEntity
  8
Layer_1
 62
1
100
AcDbPolyline
 90
2
 70
0
 10
-49.980206
 20
169.339270
 30
0.0
 10
-49.768539
 20
169.839520
 30
0.0
  0
SPLINE
  5
17d
100
AcDbEntity
  8
Layer_1
 62
1
100
AcDbSpline
 70
0
 71
3
 72
10
 73
6
 74
4
 40
0.000000
 40
0.000000
 40
0.000000
 40
0.000000
 40
0.322809
 40
0.638864
 40
0.961759
 40
0.961759
 40
0.961759
 40
0.961759
 10
-50.761996
 20
168.887020
 30
0.0
 10
-50.653175
 20
168.887753
 30
0.0
 10
-50.437811
 20
168.889203
 30
0.0
 10
-50.143748
 20
169.059277
 30
0.0
 10
-50.035108
 20
169.245275
 30
0.0
 10
-49.980206
 20
169.339270
 30
0.0
 11
-50.761996
 21
168.887020
 31
0.0
 11
-50.440647
 21
168.917692
 31
0.0
 11
-50.167058
 21
169.075931
 31
0.0
 11
-49.980206
 21
169.339270
 31
0.0
  0
LWPOLYLINE
  5
17e
100
AcDbEntity
  8
Layer_1
 62
1
100
AcDbPolyline
 90
2
 70
0
 10
-53.008388
 20
169.161500
 30
0.0
 10
-50.761996
 20
168.887020
 30
0.0
  0
SPLINE
  5
17f
100
AcDbEntity
  8
Layer_1
 62
1
100
AcDbSpline
 70
0
 71
3
 72
10
 73
6
 74
4
 40
0.000000
 40
0.000000
 40
0.000000
 40
0.000000
 40
0.322422
 40
0.637985
 40
0.960339
 40
0.960339
 40
0.960339
 40
0.960339
 10
-56.282528
 20
170.154820
 30
0.0
 10
-56.251756
 20
170.050576
 30
0.0
 10
-56.190867
 20
169.844306
 30
0.0
 10
-55.946614
 20
169.609016
 30
0.0
 10
-55.738244
 20
169.555861
 30
0.0
 10
-55.632949
 20
169.529000
 30
0.0
 11
-56.282528
 21
170.154820
 31
0.0
 11
-56.164320
 21
169.854848
 31
0.0
 11
-55.937055
 21
169.635919
 31
0.0
 11
-55.632949
 21
169.529000
 31
0.0
  0
LWPOLYLINE
  5
180
100
AcDbEntity
  8
Layer_1
 62
1
100
AcDbPolyline
 90
2
 70
0
 10
-56.368385
 20
170.692190
 30
0.0
 10
-56.282525
 20
170.154820
 30
0.0
  0
LWPOLYLINE
  5
181
100
AcDbEntity
  8
Layer_1
 62
1
100
AcDbPolyline
 90
2
 70
0
 10
-55.527724
 20
172.936860
 30
0.0
 10
-56.316421
 20
171.107690
 30
0.0
  0
LWPOLYLINE
  5
182
100
AcDbEntity
  8
Layer_1
 62
1
100
AcDbPolyline
 90
2
 70
0
 10
-53.008388
 20
169.161500
 30
0.0
 10
-55.632870
 20
169.529000
 30
0.0
  0
SPLINE
  5
183
100
AcDbEntity
  8
Layer_1
 62
1
100
AcDbSpline
 70
0
 71
3
 72
10
 73
6
 74
4
 40
0.000000
 40
0.000000
 40
0.000000
 40
0.000000
 40
0.141408
 40
0.282265
 40
0.423753
 40
0.423753
 40
0.423753
 40
0.423753
 10
-56.316421
 20
171.107690
 30
0.0
 10
-56.332659
 20
171.063341
 30
0.0
 10
-56.365072
 20
170.974817
 30
0.0
 10
-56.382791
 20
170.832998
 30
0.0
 10
-56.373105
 20
170.739196
 30
0.0
 10
-56.368251
 20
170.692190
 30
0.0
 11
-56.316421
 21
171.107690
 31
0.0
 11
-56.359963
 21
170.973152
 31
0.0
 11
-56.377416
 21
170.833381
 31
0.0
 11
-56.368251
 21
170.692190
 31
0.0
  0
LWPOLYLINE
  5
184
100
AcDbEntity
  8
Layer_1
 62
1
100
AcDbPolyline
 90
2
 70
0
 10
-78.803596
 20
180.611520
 30
0.0
 10
-77.933964
 20
182.417830
 30
0.0
  0
SPLINE
  5
185
100
AcDbEntity
  8
Layer_1
 62
1
100
AcDbSpline
 70
0
 71
3
 72
10
 73
6
 74
4
 40
0.000000
 40
0.000000
 40
0.000000
 40
0.000000
 40
0.141007
 40
0.281349
 40
0.422338
 40
0.422338
 40
0.422338
 40
0.422338
 10
-79.082308
 20
180.300800
 30
0.0
 10
-79.043839
 20
180.327962
 30
0.0
 10
-78.967081
 20
180.382158
 30
0.0
 10
-78.871954
 20
180.488144
 30
0.0
 10
-78.826417
 20
180.570332
 30
0.0
 10
-78.803596
 20
180.611520
 30
0.0
 11
-79.082308
 21
180.300800
 31
0.0
 11
-78.970262
 21
180.386408
 31
0.0
 11
-78.876537
 21
180.490865
 31
0.0
 11
-78.803596
 21
180.611520
 31
0.0
  0
LWPOLYLINE
  5
186
100
AcDbEntity
  8
Layer_1
 62
1
100
AcDbPolyline
 90
2
 70
0
 10
-79.543318
 20
180.013200
 30
0.0
 10
-79.082308
 20
180.300800
 30
0.0
  0
SPLINE
  5
187
100
AcDbEntity
  8
Layer_1
 62
1
100
AcDbSpline
 70
0
 71
3
 72
10
 73
6
 74
4
 40
0.000000
 40
0.000000
 40
0.000000
 40
0.000000
 40
0.322862
 40
0.638870
 40
0.961608
 40
0.961608
 40
0.961608
 40
0.961608
 10
-80.442875
 20
180.092390
 30
0.0
 10
-80.353391
 20
180.030430
 30
0.0
 10
-80.176322
 20
179.907825
 30
0.0
 10
-79.837992
 20
179.877982
 30
0.0
 10
-79.642230
 20
179.967672
 30
0.0
 10
-79.543318
 20
180.012990
 30
0.0
 11
-80.442875
 21
180.092390
 31
0.0
 11
-80.162237
 21
179.932758
 31
0.0
 11
-79.847451
 21
179.904995
 31
0.0
 11
-79.543318
 21
180.012990
 31
0.0
  0
LWPOLYLINE
  5
188
100
AcDbEntity
  8
Layer_1
 62
1
100
AcDbPolyline
 90
2
 70
0
 10
-82.122873
 20
181.608580
 30
0.0
 10
-80.442875
 20
180.092390
 30
0.0
  0
SPLINE
  5
189
100
AcDbEntity
  8
Layer_1
 62
1
100
AcDbSpline
 70
0
 71
3
 72
10
 73
6
 74
4
 40
0.000000
 40
0.000000
 40
0.000000
 40
0.000000
 40
0.322448
 40
0.638035
 40
0.960407
 40
0.960407
 40
0.960407
 40
0.960407
 10
-84.230967
 20
184.303410
 30
0.0
 10
-84.265714
 20
184.200415
 30
0.0
 10
-84.334470
 20
183.996616
 30
0.0
 10
-84.269916
 20
183.663654
 30
0.0
 10
-84.130005
 20
183.500330
 30
0.0
 10
-84.059306
 20
183.417800
 30
0.0
 11
-84.230967
 21
184.303410
 31
0.0
 11
-84.306695
 21
183.989981
 31
0.0
 11
-84.246628
 21
183.680163
 31
0.0
 11
-84.059306
 21
183.417800
 31
0.0
  0
LWPOLYLINE
  5
18a
100
AcDbEntity
  8
Layer_1
 62
1
100
AcDbPolyline
 90
2
 70
0
 10
-83.992393
 20
184.792630
 30
0.0
 10
-84.230967
 20
184.303410
 30
0.0
  0
LWPOLYLINE
  5
18b
100
AcDbEntity
  8
Layer_1
 62
1
100
AcDbPolyline
 90
2
 70
0
 10
-82.014130
 20
186.146160
 30
0.0
 10
-83.711061
 20
185.102750
 30
0.0
  0
LWPOLYLINE
  5
18c
100
AcDbEntity
  8
Layer_1
 62
1
100
AcDbPolyline
 90
2
 70
0
 10
-82.122873
 20
181.608580
 30
0.0
 10
-84.059306
 20
183.417800
 30
0.0
  0
SPLINE
  5
18d
100
AcDbEntity
  8
Layer_1
 62
1
100
AcDbSpline
 70
0
 71
3
 72
10
 73
6
 74
4
 40
0.000000
 40
0.000000
 40
0.000000
 40
0.000000
 40
0.141474
 40
0.282340
 40
0.423800
 40
0.423800
 40
0.423800
 40
0.423800
 10
-83.711061
 20
185.102750
 30
0.0
 10
-83.749868
 20
185.075795
 30
0.0
 10
-83.827315
 20
185.022001
 30
0.0
 10
-83.923389
 20
184.916167
 30
0.0
 10
-83.969412
 20
184.833867
 30
0.0
 10
-83.992472
 20
184.792630
 30
0.0
 11
-83.711061
 21
185.102750
 31
0.0
 11
-83.824107
 21
185.017689
 31
0.0
 11
-83.918779
 21
184.913378
 31
0.0
 11
-83.992472
 21
184.792630
 31
0.0
  0
LWPOLYLINE
  5
18e
100
AcDbEntity
  8
Layer_1
 62
1
100
AcDbPolyline
 90
2
 70
0
 10
-100.054110
 20
234.778479
 30
0.0
 10
-98.174959
 20
235.476873
 30
0.0
  0
SPLINE
  5
18f
100
AcDbEntity
  8
Layer_1
 62
1
100
AcDbSpline
 70
0
 71
3
 72
10
 73
6
 74
4
 40
0.000000
 40
0.000000
 40
0.000000
 40
0.000000
 40
0.141012
 40
0.281388
 40
0.422347
 40
0.422347
 40
0.422347
 40
0.422347
 10
-100.470270
 20
234.747655
 30
0.0
 10
-100.423717
 20
234.740533
 30
0.0
 10
-100.330820
 20
234.726322
 30
0.0
 10
-100.188776
 20
234.736813
 30
0.0
 10
-100.099007
 20
234.764569
 30
0.0
 10
-100.054030
 20
234.778475
 30
0.0
 11
-100.470270
 21
234.747655
 31
0.0
 11
-100.330174
 21
234.731614
 31
0.0
 11
-100.190180
 21
234.741969
 31
0.0
 11
-100.054030
 21
234.778475
 31
0.0
  0
LWPOLYLINE
  5
190
100
AcDbEntity
  8
Layer_1
 62
1
100
AcDbPolyline
 90
2
 70
0
 10
-101.002030
 20
234.859997
 30
0.0
 10
-100.470270
 20
234.747655
 30
0.0
  0
SPLINE
  5
191
100
AcDbEntity
  8
Layer_1
 62
1
100
AcDbSpline
 70
0
 71
3
 72
10
 73
6
 74
4
 40
0.000000
 40
0.000000
 40
0.000000
 40
0.000000
 40
0.322803
 40
0.638818
 40
0.961652
 40
0.961652
 40
0.961652
 40
0.961652
 10
-101.595040
 20
235.541088
 30
0.0
 10
-101.573583
 20
235.434397
 30
0.0
 10
-101.531120
 20
235.223258
 30
0.0
 10
-101.307986
 20
234.967166
 30
0.0
 10
-101.104738
 20
234.895973
 30
0.0
 10
-101.002030
 20
234.859997
 30
0.0
 11
-101.595040
 21
235.541088
 31
0.0
 11
-101.503663
 21
235.231488
 31
0.0
 11
-101.296107
 21
234.993190
 31
0.0
 11
-101.002030
 21
234.859997
 31
0.0
  0
LWPOLYLINE
  5
192
100
AcDbEntity
  8
Layer_1
 62
1
100
AcDbPolyline
 90
2
 70
0
 10
-101.754510
 20
237.798512
 30
0.0
 10
-101.595040
 20
235.541088
 30
0.0
  0
SPLINE
  5
193
100
AcDbEntity
  8
Layer_1
 62
1
100
AcDbSpline
 70
0
 71
3
 72
10
 73
6
 74
4
 40
0.000000
 40
0.000000
 40
0.000000
 40
0.000000
 40
0.322425
 40
0.638026
 40
0.960354
 40
0.960354
 40
0.960354
 40
0.960354
 10
-101.404700
 20
241.201795
 30
0.0
 10
-101.501158
 20
241.151702
 30
0.0
 10
-101.692033
 20
241.052576
 30
0.0
 10
-101.876441
 20
240.767922
 30
0.0
 10
-101.888803
 20
240.553224
 30
0.0
 10
-101.895050
 20
240.444743
 30
0.0
 11
-101.404700
 21
241.201795
 31
0.0
 11
-101.676617
 21
241.028535
 31
0.0
 11
-101.848193
 21
240.763647
 31
0.0
 11
-101.895050
 21
240.444743
 31
0.0
  0
LWPOLYLINE
  5
194
100
AcDbEntity
  8
Layer_1
 62
1
100
AcDbPolyline
 90
2
 70
0
 10
-100.893580
 20
241.388829
 30
0.0
 10
-101.404700
 20
241.201795
 30
0.0
  0
LWPOLYLINE
  5
195
100
AcDbEntity
  8
Layer_1
 62
1
100
AcDbPolyline
 90
2
 70
0
 10
-98.529659
 20
240.992377
 30
0.0
 10
-100.476040
 20
241.417404
 30
0.0
  0
LWPOLYLINE
  5
196
100
AcDbEntity
  8
Layer_1
 62
1
100
AcDbPolyline
 90
2
 70
0
 10
-101.754510
 20
237.798512
 30
0.0
 10
-101.895050
 20
240.444743
 30
0.0
  0
SPLINE
  5
197
100
AcDbEntity
  8
Layer_1
 62
1
100
AcDbSpline
 70
0
 71
3
 72
10
 73
6
 74
4
 40
0.000000
 40
0.000000
 40
0.000000
 40
0.000000
 40
0.141418
 40
0.282261
 40
0.423705
 40
0.423705
 40
0.423705
 40
0.423705
 10
-100.476040
 20
241.417404
 30
0.0
 10
-100.522681
 20
241.424846
 30
0.0
 10
-100.615772
 20
241.439699
 30
0.0
 10
-100.758340
 20
241.430067
 30
0.0
 10
-100.848576
 20
241.402751
 30
0.0
 10
-100.893790
 20
241.389064
 30
0.0
 11
-100.476040
 21
241.417404
 31
0.0
 11
-100.616434
 21
241.434390
 31
0.0
 11
-100.756956
 21
241.424878
 31
0.0
 11
-100.893790
 21
241.389064
 31
0.0
  0
LWPOLYLINE
  5
198
100
AcDbEntity
  8
Layer_1
 62
1
100
AcDbPolyline
 90
2
 70
0
 10
-98.606441
 20
219.713395
 30
0.0
 10
-96.788674
 20
220.558633
 30
0.0
  0
SPLINE
  5
199
100
AcDbEntity
  8
Layer_1
 62
1
100
AcDbSpline
 70
0
 71
3
 72
10
 73
6
 74
4
 40
0.000000
 40
0.000000
 40
0.000000
 40
0.000000
 40
0.141010
 40
0.281384
 40
0.422290
 40
0.422290
 40
0.422290
 40
0.422290
 10
-99.018874
 20
219.649551
 30
0.0
 10
-98.971901
 20
219.646183
 30
0.0
 10
-98.878168
 20
219.639463
 30
0.0
 10
-98.737432
 20
219.661203
 30
0.0
 10
-98.650160
 20
219.695973
 30
0.0
 10
-98.606441
 20
219.713391
 30
0.0
 11
-99.018874
 21
219.649551
 31
0.0
 11
-98.877945
 21
219.644773
 31
0.0
 11
-98.739221
 21
219.666229
 31
0.0
 11
-98.606441
 21
219.713391
 31
0.0
  0
LWPOLYLINE
  5
19a
100
AcDbEntity
  8
Layer_1
 62
1
100
AcDbPolyline
 90
2
 70
0
 10
-99.557830
 20
219.719454
 30
0.0
 10
-99.018874
 20
219.649554
 30
0.0
  0
SPLINE
  5
19b
100
AcDbEntity
  8
Layer_1
 62
1
100
AcDbSpline
 70
0
 71
3
 72
10
 73
6
 74
4
 40
0.000000
 40
0.000000
 40
0.000000
 40
0.000000
 40
0.322896
 40
0.638933
 40
0.961831
 40
0.961831
 40
0.961831
 40
0.961831
 10
-100.203040
 20
220.351173
 30
0.0
 10
-100.173129
 20
220.246510
 30
0.0
 10
-100.113942
 20
220.039406
 30
0.0
 10
-99.871178
 20
219.801760
 30
0.0
 10
-99.662866
 20
219.746979
 30
0.0
 10
-99.557592
 20
219.719295
 30
0.0
 11
-100.203040
 21
220.351173
 31
0.0
 11
-100.087236
 21
220.049758
 31
0.0
 11
-99.861399
 21
219.828676
 31
0.0
 11
-99.557592
 21
219.719295
 31
0.0
  0
LWPOLYLINE
  5
19c
100
AcDbEntity
  8
Layer_1
 62
1
100
AcDbPolyline
 90
2
 70
0
 10
-100.541150
 20
222.588966
 30
0.0
 10
-100.203040
 20
220.351173
 30
0.0
  0
SPLINE
  5
19d
100
AcDbEntity
  8
Layer_1
 62
1
100
AcDbSpline
 70
0
 71
3
 72
10
 73
6
 74
4
 40
0.000000
 40
0.000000
 40
0.000000
 40
0.000000
 40
0.322406
 40
0.638022
 40
0.960418
 40
0.960418
 40
0.960418
 40
0.960418
 10
-100.462700
 20
226.009420
 30
0.0
 10
-100.554875
 20
225.951834
 30
0.0
 10
-100.737283
 20
225.837875
 30
0.0
 10
-100.898494
 20
225.539437
 30
0.0
 10
-100.893735
 20
225.324407
 30
0.0
 10
-100.891330
 20
225.215750
 30
0.0
 11
-100.462700
 21
226.009420
 31
0.0
 11
-100.719993
 21
225.815137
 31
0.0
 11
-100.869984
 21
225.537439
 31
0.0
 11
-100.891330
 21
225.215750
 31
0.0
  0
LWPOLYLINE
  5
19e
100
AcDbEntity
  8
Layer_1
 62
1
100
AcDbPolyline
 90
2
 70
0
 10
-99.967934
 20
226.236274
 30
0.0
 10
-100.462700
 20
226.009420
 30
0.0
  0
LWPOLYLINE
  5
19f
100
AcDbEntity
  8
Layer_1
 62
1
100
AcDbPolyline
 90
2
 70
0
 10
-97.580070
 20
226.028602
 30
0.0
 10
-99.553782
 20
226.297789
 30
0.0
  0
LWPOLYLINE
  5
1a0
100
AcDbEntity
  8
Layer_1
 62
1
100
AcDbPolyline
 90
2
 70
0
 10
-100.541150
 20
222.588966
 30
0.0
 10
-100.891330
 20
225.215750
 30
0.0
  0
LWPOLYLINE
  5
1a1
100
AcDbEntity
  8
Layer_1
 62
1
100
AcDbPolyline
 90
2
 70
0
 10
-39.341310
 20
171.811770
 30
0.0
 10
-36.464231
 20
171.809770
 30
0.0
  0
LWPOLYLINE
  5
1a2
100
AcDbEntity
  8
Layer_1
 62
1
100
AcDbPolyline
 90
2
 70
0
 10
-68.692623
 20
176.781130
 30
0.0
 10
-66.039117
 20
175.695280
 30
0.0
  0
LWPOLYLINE
  5
1a3
100
AcDbEntity
  8
Layer_1
 62
1
100
AcDbPolyline
 90
2
 70
0
 10
-9.762799
 20
175.672790
 30
0.0
 10
-7.110642
 20
176.760730
 30
0.0
  0
SPLINE
  5
1a4
100
AcDbEntity
  8
Layer_1
 62
1
100
AcDbSpline
 70
0
 71
3
 72
10
 73
6
 74
4
 40
0.000000
 40
0.000000
 40
0.000000
 40
0.000000
 40
0.141430
 40
0.282217
 40
0.423706
 40
0.423706
 40
0.423706
 40
0.423706
 10
-99.553782
 20
226.297789
 30
0.0
 10
-99.600870
 20
226.301523
 30
0.0
 10
-99.694832
 20
226.308975
 30
0.0
 10
-99.836176
 20
226.287955
 30
0.0
 10
-99.923942
 20
226.253533
 30
0.0
 10
-99.967934
 20
226.236279
 30
0.0
 11
-99.553782
 21
226.297789
 31
0.0
 11
-99.695092
 21
226.303604
 31
0.0
 11
-99.834350
 21
226.282910
 31
0.0
 11
-99.967934
 21
226.236279
 31
0.0
  0
LWPOLYLINE
  5
1a5
100
AcDbEntity
  8
Layer_1
 62
1
100
AcDbPolyline
 90
2
 70
0
 10
23.197141
 20
248.950700
 30
0.0
 10
23.197141
 20
252.190417
 30
0.0
  0
SPLINE
  5
1a6
100
AcDbEntity
  8
Layer_1
 62
1
100
AcDbSpline
 70
0
 71
3
 72
13
 73
9
 74
7
 40
0.000000
 40
0.000000
 40
0.000000
 40
0.000000
 40
0.524011
 40
1.022904
 40
1.526898
 40
2.030974
 40
2.529930
 40
3.053988
 40
3.053988
 40
3.053988
 40
3.053988
 10
23.197141
 20
248.904054
 30
0.0
 10
23.171175
 20
248.727451
 30
0.0
 10
23.120488
 20
248.382710
 30
0.0
 10
22.741520
 20
247.996058
 30
0.0
 10
22.236238
 20
247.849910
 30
0.0
 10
21.730862
 20
247.995926
 30
0.0
 10
21.351866
 20
248.382664
 30
0.0
 10
21.301175
 20
248.727437
 30
0.0
 10
21.275207
 20
248.904054
 30
0.0
 11
23.197141
 21
248.904054
 31
0.0
 11
23.065920
 21
248.396739
 31
0.0
 11
22.721169
 21
248.036126
 31
0.0
 11
22.236253
 21
247.898769
 31
0.0
 11
21.751226
 21
248.036032
 31
0.0
 11
21.406434
 21
248.396692
 31
0.0
 11
21.275207
 21
248.904054
 31
0.0
  0
LWPOLYLINE
  5
1a7
100
AcDbEntity
  8
Layer_1
 62
1
100
AcDbPolyline
 90
2
 70
0
 10
21.274969
 20
248.904054
 30
0.0
 10
21.274969
 20
252.143691
 30
0.0
  0
LWPOLYLINE
  5
1a8
100
AcDbEntity
  8
Layer_1
 62
1
100
AcDbPolyline
 90
2
 70
0
 10
26.760999
 20
248.626718
 30
0.0
 10
26.760999
 20
248.431270
 30
0.0
  0
SPLINE
  5
1a9
100
AcDbEntity
  8
Layer_1
 62
1
100
AcDbSpline
 70
0
 71
3
 72
16
 73
12
 74
10
 40
0.000000
 40
0.000000
 40
0.000000
 40
0.000000
 40
0.350338
 40
0.692394
 40
1.034206
 40
1.371421
 40
1.701951
 40
2.039083
 40
2.380860
 40
2.722868
 40
3.073298
 40
3.073298
 40
3.073298
 40
3.073298
 10
21.274969
 20
252.143691
 30
0.0
 10
21.286357
 20
252.261024
 30
0.0
 10
21.308865
 20
252.492916
 30
0.0
 10
21.484355
 20
252.800918
 30
0.0
 10
21.742991
 20
253.031090
 30
0.0
 10
22.064835
 20
253.153931
 30
0.0
 10
22.406996
 20
253.153951
 30
0.0
 10
22.728776
 20
253.031060
 30
0.0
 10
22.987405
 20
252.800976
 30
0.0
 10
23.162904
 20
252.492967
 30
0.0
 10
23.185390
 20
252.261057
 30
0.0
 10
23.196770
 20
252.143691
 30
0.0
 11
21.274969
 21
252.143691
 31
0.0
 11
21.333451
 21
252.489114
 31
0.0
 11
21.498701
 21
252.788605
 31
0.0
 11
21.755426
 21
253.014276
 31
0.0
 11
22.070662
 21
253.134027
 31
0.0
 11
22.401192
 21
253.134027
 31
0.0
 11
22.716340
 21
253.014276
 31
0.0
 11
22.973058
 21
252.788652
 31
0.0
 11
23.138295
 21
252.489208
 31
0.0
 11
23.196770
 21
252.143691
 31
0.0
  0
LWPOLYLINE
  5
1aa
100
AcDbEntity
  8
Layer_1
 62
1
100
AcDbPolyline
 90
2
 70
0
 10
26.760999
 20
248.528980
 30
0.0
 10
26.786209
 20
255.474584
 30
0.0
  0
SPLINE
  5
1ab
100
AcDbEntity
  8
Layer_1
 62
1
100
AcDbSpline
 70
0
 71
3
 72
13
 73
9
 74
7
 40
0.000000
 40
0.000000
 40
0.000000
 40
0.000000
 40
0.524553
 40
1.029430
 40
1.510995
 40
1.958792
 40
2.371886
 40
2.769838
 40
2.769838
 40
2.769838
 40
2.769838
 10
24.791652
 20
256.994007
 30
0.0
 10
24.966820
 20
256.984080
 30
0.0
 10
25.310586
 20
256.964597
 30
0.0
 10
25.795062
 20
256.809225
 30
0.0
 10
26.214517
 20
256.570800
 30
0.0
 10
26.536408
 20
256.254309
 30
0.0
 10
26.750657
 20
255.880284
 30
0.0
 10
26.774599
 20
255.608230
 30
0.0
 10
26.786346
 20
255.474743
 30
0.0
 11
24.791652
 21
256.994007
 31
0.0
 11
25.313600
 21
256.941799
 31
0.0
 11
25.795256
 21
256.790442
 31
0.0
 11
26.211247
 21
256.547840
 31
0.0
 11
26.528522
 21
256.231835
 31
0.0
 11
26.723635
 21
255.867723
 31
0.0
 11
26.786346
 21
255.474743
 31
0.0
  0
SPLINE
  5
1ac
100
AcDbEntity
  8
Layer_1
 62
1
100
AcDbSpline
 70
0
 71
3
 72
10
 73
6
 74
4
 40
0.000000
 40
0.000000
 40
0.000000
 40
0.000000
 40
0.914188
 40
1.811073
 40
2.725344
 40
2.725344
 40
2.725344
 40
2.725344
 10
-102.520850
 20
248.235954
 30
0.0
 10
-102.483636
 20
247.930442
 30
0.0
 10
-102.409912
 20
247.325202
 30
0.0
 10
-101.861892
 20
246.540782
 30
0.0
 10
-101.318928
 20
246.263337
 30
0.0
 10
-101.044840
 20
246.123283
 30
0.0
 11
-102.520850
 21
248.235954
 31
0.0
 11
-102.335201
 21
247.340815
 31
0.0
 11
-101.821549
 21
246.605584
 31
0.0
 11
-101.044840
 21
246.123283
 31
0.0
  0
SPLINE
  5
1ad
100
AcDbEntity
  8
Layer_1
 62
1
100
AcDbSpline
 70
0
 71
3
 72
10
 73
6
 74
4
 40
0.000000
 40
0.000000
 40
0.000000
 40
0.000000
 40
1.261515
 40
2.641492
 40
4.120050
 40
4.120050
 40
4.120050
 40
4.120050
 10
-93.458602
 20
248.431032
 30
0.0
 10
-93.462899
 20
248.851519
 30
0.0
 10
-93.471896
 20
249.731978
 30
0.0
 10
-93.468369
 20
251.105350
 30
0.0
 10
-93.462657
 20
252.058175
 30
0.0
 10
-93.459702
 20
252.551018
 30
0.0
 11
-93.458602
 21
248.431032
 31
0.0
 11
-93.468925
 21
249.692504
 31
0.0
 11
-93.467692
 21
251.072481
 31
0.0
 11
-93.459702
 21
252.551018
 31
0.0
  0
SPLINE
  5
1ae
100
AcDbEntity
  8
Layer_1
 62
1
100
AcDbSpline
 70
0
 71
3
 72
10
 73
6
 74
4
 40
0.000000
 40
0.000000
 40
0.000000
 40
0.000000
 40
1.850354
 40
3.654689
 40
5.490287
 40
5.490287
 40
5.490287
 40
5.490287
 10
-96.752135
 20
256.798771
 30
0.0
 10
-96.266900
 20
256.415714
 30
0.0
 10
-95.308498
 20
255.659127
 30
0.0
 10
-94.174610
 20
254.190634
 30
0.0
 10
-93.691054
 20
253.074593
 30
0.0
 10
-93.447199
 20
252.511780
 30
0.0
 11
-96.752135
 21
256.798771
 31
0.0
 11
-95.348624
 21
255.592966
 31
0.0
 11
-94.246966
 21
254.163989
 31
0.0
 11
-93.447199
 21
252.511780
 31
0.0
  0
SPLINE
  5
1af
100
AcDbEntity
  8
Layer_1
 62
1
100
AcDbSpline
 70
0
 71
3
 72
19
 73
15
 74
13
 40
0.000000
 40
0.000000
 40
0.000000
 40
0.000000
 40
7.943681
 40
15.910796
 40
23.825217
 40
30.327786
 40
36.855518
 40
43.360778
 40
48.815667
 40
54.256443
 40
59.691150
 40
69.782720
 40
79.856816
 40
89.948473
 40
89.948473
 40
89.948473
 40
89.948473
 10
-93.458602
 20
248.431032
 30
0.0
 10
-93.318849
 20
245.786925
 30
0.0
 10
-93.038931
 20
240.490911
 30
0.0
 10
-92.364731
 20
232.572959
 30
0.0
 10
-90.805789
 20
225.236849
 30
0.0
 10
-88.115254
 20
218.759465
 30
0.0
 10
-84.705597
 20
213.183307
 30
0.0
 10
-80.716189
 20
208.452510
 30
0.0
 10
-76.366355
 20
204.592766
 30
0.0
 10
-71.891681
 20
201.474291
 30
0.0
 10
-65.777748
 20
198.067567
 30
0.0
 10
-57.830735
 20
194.875225
 30
0.0
 10
-47.970443
 20
192.494789
 30
0.0
 10
-41.243275
 20
192.179861
 30
0.0
 10
-37.876762
 20
192.022260
 30
0.0
 11
-93.458602
 21
248.431032
 31
0.0
 11
-92.996888
 21
240.500780
 31
0.0
 11
-92.197984
 21
232.573822
 31
0.0
 11
-90.451930
 21
224.854408
 31
0.0
 11
-87.968966
 21
218.844558
 31
0.0
 11
-84.566811
 21
213.273505
 31
0.0
 11
-80.368553
 21
208.304297
 31
0.0
 11
-76.297196
 21
204.673888
 31
0.0
 11
-71.842146
 21
201.550657
 31
0.0
 11
-67.099858
 21
198.896085
 31
0.0
 11
-57.747258
 21
195.105484
 31
0.0
 11
-47.937352
 21
192.813511
 31
0.0
 11
-37.876762
 21
192.022260
 31
0.0
  0
SPLINE
  5
1b0
100
AcDbEntity
  8
Layer_1
 62
1
100
AcDbSpline
 70
0
 71
3
 72
19
 73
15
 74
13
 40
0.000000
 40
0.000000
 40
0.000000
 40
0.000000
 40
9.137638
 40
18.314964
 40
27.382911
 40
34.060546
 40
40.779110
 40
47.483752
 40
54.342900
 40
61.185130
 40
68.028848
 40
75.364507
 40
82.665737
 40
89.977667
 40
89.977667
 40
89.977667
 40
89.977667
 10
17.704840
 20
248.431032
 30
0.0
 10
17.546112
 20
245.389226
 30
0.0
 10
17.227967
 20
239.292403
 30
0.0
 10
16.234150
 20
230.207642
 30
0.0
 10
14.045513
 20
222.124676
 30
0.0
 10
10.562473
 20
215.450055
 30
0.0
 10
6.521252
 20
210.072738
 30
0.0
 10
1.667977
 20
205.327997
 30
0.0
 10
-3.884558
 20
201.356499
 30
0.0
 10
-9.949146
 20
198.140802
 30
0.0
 10
-16.467129
 20
195.537338
 30
0.0
 10
-23.338370
 20
193.500781
 30
0.0
 10
-30.557453
 20
192.135188
 30
0.0
 10
-35.435802
 20
192.060061
 30
0.0
 10
-37.876762
 20
192.022470
 30
0.0
 11
17.704840
 21
248.431032
 31
0.0
 11
17.142390
 21
239.310721
 31
0.0
 11
15.992341
 21
230.205738
 31
0.0
 11
13.484498
 21
221.491475
 31
0.0
 11
10.415708
 21
215.560764
 31
0.0
 11
6.389867
 21
210.181944
 31
0.0
 11
1.596187
 21
205.494422
 31
0.0
 11
-3.968419
 21
201.484051
 31
0.0
 11
-9.999597
 21
198.252797
 31
0.0
 11
-16.347034
 21
195.694180
 31
0.0
 11
-23.382560
 21
193.617340
 31
0.0
 11
-30.571908
 21
192.344064
 31
0.0
 11
-37.876762
 21
192.022470
 31
0.0
  0
SPLINE
  5
1b1
100
AcDbEntity
  8
Layer_1
 62
1
100
AcDbSpline
 70
0
 71
3
 72
10
 73
6
 74
4
 40
0.000000
 40
0.000000
 40
0.000000
 40
0.000000
 40
1.850363
 40
3.654695
 40
5.490291
 40
5.490291
 40
5.490291
 40
5.490291
 10
20.998374
 20
256.994007
 30
0.0
 10
20.513134
 20
256.610951
 30
0.0
 10
19.554726
 20
255.854369
 30
0.0
 10
18.420843
 20
254.385869
 30
0.0
 10
17.937290
 20
253.269829
 30
0.0
 10
17.693437
 20
252.707016
 30
0.0
 11
20.998374
 21
256.994007
 31
0.0
 11
19.594850
 21
255.788202
 31
0.0
 11
18.493199
 21
254.359225
 31
0.0
 11
17.693437
 21
252.707016
 31
0.0
  0
LWPOLYLINE
  5
1b2
100
AcDbEntity
  8
Layer_1
 62
1
100
AcDbPolyline
 90
2
 70
0
 10
24.791652
 20
256.994007
 30
0.0
 10
20.998374
 20
256.994007
 30
0.0
  0
LWPOLYLINE
  5
1b3
100
AcDbEntity
  8
Layer_1
 62
1
100
AcDbPolyline
 90
4
 70
1
 10
50.213718
 20
283.398126
 30
0.0
 10
50.213718
 20
286.998206
 30
0.0
 10
55.787192
 20
286.998206
 30
0.0
 10
55.787192
 20
283.398126
 30
0.0
  0
LWPOLYLINE
  5
1b4
100
AcDbEntity
  8
Layer_1
 62
1
100
AcDbPolyline
 90
4
 70
1
 10
35.221897
 20
283.398126
 30
0.0
 10
35.221897
 20
286.998206
 30
0.0
 10
40.785106
 20
286.998206
 30
0.0
 10
40.785106
 20
283.398126
 30
0.0
  0
LWPOLYLINE
  5
1b5
100
AcDbEntity
  8
Layer_1
 62
1
100
AcDbPolyline
 90
4
 70
1
 10
242.281740
 20
283.398126
 30
0.0
 10
242.281740
 20
286.998206
 30
0.0
 10
247.981690
 20
286.998206
 30
0.0
 10
247.981690
 20
283.398126
 30
0.0
  0
LWPOLYLINE
  5
1b6
100
AcDbEntity
  8
Layer_1
 62
1
100
AcDbPolyline
 90
4
 70
1
 10
227.289920
 20
283.398126
 30
0.0
 10
227.289920
 20
286.998206
 30
0.0
 10
232.989840
 20
286.998206
 30
0.0
 10
232.989840
 20
283.398126
 30
0.0
  0
LWPOLYLINE
  5
1b7
100
AcDbEntity
  8
Layer_1
 62
1
100
AcDbPolyline
 90
2
 70
0
 10
-102.534210
 20
265.651861
 30
0.0
 10
26.773593
 20
265.651861
 30
0.0
  0
LWPOLYLINE
  5
1b8
100
AcDbEntity
  8
Layer_1
 62
1
100
AcDbPolyline
 90
2
 70
0
 10
-102.534210
 20
271.366861
 30
0.0
 10
-102.534210
 20
259.936861
 30
0.0
  0
LWPOLYLINE
  5
1b9
100
AcDbEntity
  8
Layer_1
 62
1
100
AcDbPolyline
 90
2
 70
0
 10
26.773593
 20
271.366861
 30
0.0
 10
26.773593
 20
259.936861
 30
0.0
  0
LWPOLYLINE
  5
1ba
100
AcDbEntity
  8
Layer_1
 62
1
100
AcDbPolyline
 90
2
 70
0
 10
-114.466700
 20
168.827750
 30
0.0
 10
-114.466700
 20
256.993848
 30
0.0
  0
LWPOLYLINE
  5
1bb
100
AcDbEntity
  8
Layer_1
 62
1
100
AcDbPolyline
 90
2
 70
0
 10
-120.022850
 20
168.827750
 30
0.0
 10
-108.910610
 20
168.827750
 30
0.0
  0
LWPOLYLINE
  5
1bc
100
AcDbEntity
  8
Layer_1
 62
1
100
AcDbPolyline
 90
2
 70
0
 10
-120.022850
 20
256.993848
 30
0.0
 10
-108.910610
 20
256.993848
 30
0.0
  0
SPLINE
  5
1bd
100
AcDbEntity
  8
Layer_1
 62
1
100
AcDbSpline
 70
0
 71
3
 72
10
 73
6
 74
4
 40
0.000000
 40
0.000000
 40
0.000000
 40
0.000000
 40
1.312129
 40
2.786101
 40
4.315257
 40
4.315257
 40
4.315257
 40
4.315257
 10
17.704840
 20
248.431032
 30
0.0
 10
17.709117
 20
248.868391
 30
0.0
 10
17.718198
 20
249.797055
 30
0.0
 10
17.714689
 20
251.235495
 30
0.0
 10
17.708892
 20
252.236518
 30
0.0
 10
17.705940
 20
252.746227
 30
0.0
 11
17.704840
 21
248.431032
 31
0.0
 11
17.715154
 21
249.743120
 31
0.0
 11
17.713926
 21
251.217092
 31
0.0
 11
17.705940
 21
252.746227
 31
0.0
  0
LWPOLYLINE
  5
1be
100
AcDbEntity
  8
Layer_1
 62
7
100
AcDbPolyline
 90
3
 70
0
 10
-114.466700
 20
207.068376
 30
0.0
 10
-114.466700
 20
206.796728
 30
0.0
 10
-115.679820
 20
206.796728
 30
0.0
  0
SPLINE
  5
1bf
100
AcDbEntity
  8
Layer_1
 62
7
100
AcDbSpline
 70
0
 71
3
 72
13
 73
9
 74
7
 40
0.000000
 40
0.000000
 40
0.000000
 40
0.000000
 40
0.084492
 40
0.180782
 40
0.289155
 40
0.399219
 40
0.500151
 40
0.591847
 40
0.591847
 40
0.591847
 40
0.591847
 10
-115.679820
 20
206.796728
 30
0.0
 10
-115.664795
 20
206.772889
 30
0.0
 10
-115.632647
 20
206.721883
 30
0.0
 10
-115.589622
 20
206.635481
 30
0.0
 10
-115.547712
 20
206.539295
 30
0.0
 10
-115.508882
 20
206.440154
 30
0.0
 10
-115.475589
 20
206.344840
 30
0.0
 10
-115.458564
 20
206.282912
 30
0.0
 10
-115.450460
 20
206.253433
 30
0.0
 11
-115.679820
 21
206.796728
 31
0.0
 11
-115.635892
 21
206.724554
 31
0.0
 11
-115.592128
 21
206.638783
 31
0.0
 11
-115.548560
 21
206.539553
 31
0.0
 11
-115.508438
 21
206.437063
 31
0.0
 11
-115.475716
 21
206.341582
 31
0.0
 11
-115.450460
 21
206.253433
 31
0.0
  0
LWPOLYLINE
  5
1c0
100
AcDbEntity
  8
Layer_1
 62
7
100
AcDbPolyline
 90
2
 70
0
 10
-115.450460
 20
206.253433
 30
0.0
 10
-115.634500
 20
206.253433
 30
0.0
  0
LWPOLYLINE
  5
1c1
100
AcDbEntity
  8
Layer_1
 62
7
100
AcDbPolyline
 90
4
 70
0
 10
-116.023310
 20
206.893486
 30
0.0
 10
-116.023310
 20
207.068376
 30
0.0
 10
-114.466900
 20
207.068376
 30
0.0
 10
-114.466700
 20
207.068376
 30
0.0
  0
SPLINE
  5
1c2
100
AcDbEntity
  8
Layer_1
 62
7
100
AcDbSpline
 70
0
 71
3
 72
13
 73
9
 74
7
 40
0.000000
 40
0.000000
 40
0.000000
 40
0.000000
 40
0.154889
 40
0.300801
 40
0.438781
 40
0.563232
 40
0.669342
 40
0.758809
 40
0.758809
 40
0.758809
 40
0.758809
 10
-115.634500
 20
206.253433
 30
0.0
 10
-115.651505
 20
206.302207
 30
0.0
 10
-115.684529
 20
206.396927
 30
0.0
 10
-115.745479
 20
206.530116
 30
0.0
 10
-115.812230
 20
206.648969
 30
0.0
 10
-115.881510
 20
206.750425
 30
0.0
 10
-115.949329
 20
206.833527
 30
0.0
 10
-116.000090
 20
206.874667
 30
0.0
 10
-116.023310
 20
206.893486
 30
0.0
 11
-115.634500
 21
206.253433
 31
0.0
 11
-115.687837
 21
206.398849
 31
0.0
 11
-115.748423
 21
206.531588
 31
0.0
 11
-115.816220
 21
206.651763
 31
0.0
 11
-115.886566
 21
206.754425
 31
0.0
 11
-115.955598
 21
206.835009
 31
0.0
 11
-116.023310
 21
206.893486
 31
0.0
  0
LWPOLYLINE
  5
1c3
100
AcDbEntity
  8
Layer_1
 62
7
100
AcDbPolyline
 90
3
 70
0
 10
-114.466700
 20
208.555996
 30
0.0
 10
-114.466700
 20
208.284348
 30
0.0
 10
-115.679820
 20
208.284348
 30
0.0
  0
SPLINE
  5
1c4
100
AcDbEntity
  8
Layer_1
 62
7
100
AcDbSpline
 70
0
 71
3
 72
13
 73
9
 74
7
 40
0.000000
 40
0.000000
 40
0.000000
 40
0.000000
 40
0.084492
 40
0.180782
 40
0.289155
 40
0.399219
 40
0.500152
 40
0.591848
 40
0.591848
 40
0.591848
 40
0.591848
 10
-115.679820
 20
208.284348
 30
0.0
 10
-115.664795
 20
208.260509
 30
0.0
 10
-115.632647
 20
208.209503
 30
0.0
 10
-115.589622
 20
208.123101
 30
0.0
 10
-115.547712
 20
208.026915
 30
0.0
 10
-115.508882
 20
207.927774
 30
0.0
 10
-115.475588
 20
207.832459
 30
0.0
 10
-115.458564
 20
207.770531
 30
0.0
 10
-115.450460
 20
207.741052
 30
0.0
 11
-115.679820
 21
208.284348
 31
0.0
 11
-115.635892
 21
208.212174
 31
0.0
 11
-115.592128
 21
208.126403
 31
0.0
 11
-115.548560
 21
208.027173
 31
0.0
 11
-115.508438
 21
207.924683
 31
0.0
 11
-115.475716
 21
207.829202
 31
0.0
 11
-115.450460
 21
207.741052
 31
0.0
  0
LWPOLYLINE
  5
1c5
100
AcDbEntity
  8
Layer_1
 62
7
100
AcDbPolyline
 90
2
 70
0
 10
-115.450460
 20
207.741052
 30
0.0
 10
-115.634500
 20
207.741052
 30
0.0
  0
LWPOLYLINE
  5
1c6
100
AcDbEntity
  8
Layer_1
 62
7
100
AcDbPolyline
 90
4
 70
0
 10
-116.023310
 20
208.381106
 30
0.0
 10
-116.023310
 20
208.555996
 30
0.0
 10
-114.466900
 20
208.555996
 30
0.0
 10
-114.466700
 20
208.555996
 30
0.0
  0
SPLINE
  5
1c7
100
AcDbEntity
  8
Layer_1
 62
7
100
AcDbSpline
 70
0
 71
3
 72
13
 73
9
 74
7
 40
0.000000
 40
0.000000
 40
0.000000
 40
0.000000
 40
0.154900
 40
0.300808
 40
0.438783
 40
0.563238
 40
0.669352
 40
0.758812
 40
0.758812
 40
0.758812
 40
0.758812
 10
-115.634500
 20
207.741052
 30
0.0
 10
-115.651504
 20
207.789830
 30
0.0
 10
-115.684525
 20
207.884554
 30
0.0
 10
-115.745479
 20
208.017742
 30
0.0
 10
-115.812232
 20
208.136592
 30
0.0
 10
-115.881511
 20
208.238050
 30
0.0
 10
-115.949324
 20
208.321159
 30
0.0
 10
-116.000089
 20
208.362291
 30
0.0
 10
-116.023310
 20
208.381106
 30
0.0
 11
-115.634500
 21
207.741052
 31
0.0
 11
-115.687837
 21
207.886480
 31
0.0
 11
-115.748423
 21
208.019214
 31
0.0
 11
-115.816220
 21
208.139383
 31
0.0
 11
-115.886566
 21
208.242051
 31
0.0
 11
-115.955598
 21
208.322641
 31
0.0
 11
-116.023310
 21
208.381106
 31
0.0
  0
LWPOLYLINE
  5
1c8
100
AcDbEntity
  8
Layer_1
 62
7
100
AcDbPolyline
 90
4
 70
0
 10
-115.815420
 20
209.269550
 30
0.0
 10
-115.997130
 20
209.269550
 30
0.0
 10
-115.997130
 20
210.698671
 30
0.0
 10
-115.850080
 20
210.698671
 30
0.0
  0
SPLINE
  5
1c9
100
AcDbEntity
  8
Layer_1
 62
7
100
AcDbSpline
 70
0
 71
3
 72
16
 73
12
 74
10
 40
0.000000
 40
0.000000
 40
0.000000
 40
0.000000
 40
0.182313
 40
0.379728
 40
0.593460
 40
0.810836
 40
1.019535
 40
1.221485
 40
1.363497
 40
1.509913
 40
1.661904
 40
1.661904
 40
1.661904
 40
1.661904
 10
-115.850080
 20
210.698671
 30
0.0
 10
-115.812117
 20
210.651157
 30
0.0
 10
-115.733046
 20
210.552192
 30
0.0
 10
-115.591491
 20
210.413407
 30
0.0
 10
-115.431900
 20
210.277532
 30
0.0
 10
-115.259569
 20
210.151403
 30
0.0
 10
-115.079475
 20
210.044100
 30
0.0
 10
-114.912761
 20
209.964918
 30
0.0
 10
-114.758755
 20
209.909539
 30
0.0
 10
-114.615819
 20
209.874393
 30
0.0
 10
-114.517022
 20
209.862294
 30
0.0
 10
-114.466700
 20
209.856132
 30
0.0
 11
-115.850080
 21
210.698671
 31
0.0
 11
-115.733539
 21
210.558470
 31
0.0
 11
-115.593924
 21
210.418898
 31
0.0
 11
-115.431190
 21
210.280338
 31
0.0
 11
-115.255300
 21
210.152607
 31
0.0
 11
-115.075960
 21
210.045872
 31
0.0
 11
-114.893210
 21
209.959928
 31
0.0
 11
-114.759404
 21
209.912353
 31
0.0
 11
-114.617159
 21
209.877658
 31
0.0
 11
-114.466700
 21
209.856132
 31
0.0
  0
LWPOLYLINE
  5
1ca
100
AcDbEntity
  8
Layer_1
 62
7
100
AcDbPolyline
 90
2
 70
0
 10
-114.466700
 20
209.856132
 30
0.0
 10
-114.466700
 20
209.578398
 30
0.0
  0
LWPOLYLINE
  5
1cb
100
AcDbEntity
  8
Layer_1
 62
7
100
AcDbPolyline
 90
3
 70
0
 10
-115.815500
 20
210.350162
 30
0.0
 10
-115.815500
 20
209.269868
 30
0.0
 10
-115.815420
 20
209.269550
 30
0.0
  0
LWPOLYLINE
  5
1cc
100
AcDbEntity
  8
Layer_1
 62
7
100
AcDbPolyline
 90
4
 70
1
 10
-114.466700
 20
211.121978
 30
0.0
 10
-114.683080
 20
211.121978
 30
0.0
 10
-114.683080
 20
211.430614
 30
0.0
 10
-114.466700
 20
211.430614
 30
0.0
  0
SPLINE
  5
1cd
100
AcDbEntity
  8
Layer_1
 62
7
100
AcDbSpline
 70
0
 71
3
 72
16
 73
12
 74
10
 40
0.000000
 40
0.000000
 40
0.000000
 40
0.000000
 40
0.131163
 40
0.282518
 40
0.455813
 40
0.642420
 40
0.833577
 40
1.031303
 40
1.227895
 40
1.415291
 40
1.594844
 40
1.594844
 40
1.594844
 40
1.594844
 10
-114.466700
 20
209.578398
 30
0.0
 10
-114.510361
 20
209.581727
 30
0.0
 10
-114.604404
 20
209.588898
 30
0.0
 10
-114.752357
 20
209.625917
 30
0.0
 10
-114.914079
 20
209.679808
 30
0.0
 10
-115.082861
 20
209.753139
 30
0.0
 10
-115.250353
 20
209.847293
 30
0.0
 10
-115.410821
 20
209.958841
 30
0.0
 10
-115.560803
 20
210.081922
 30
0.0
 10
-115.697716
 20
210.211034
 30
0.0
 10
-115.776802
 20
210.304452
 30
0.0
 10
-115.815500
 20
210.350162
 30
0.0
 11
-114.466700
 21
209.578398
 31
0.0
 11
-114.597178
 21
209.591785
 31
0.0
 11
-114.744652
 21
209.625842
 31
0.0
 11
-114.909030
 21
209.680713
 31
0.0
 11
-115.080062
 21
209.755348
 31
0.0
 11
-115.246848
 21
209.848748
 31
0.0
 11
-115.409520
 21
209.961145
 31
0.0
 11
-115.561676
 21
210.085631
 31
0.0
 11
-115.696997
 21
210.215268
 31
0.0
 11
-115.815500
 21
210.350162
 31
0.0
  0
LWPOLYLINE
  5
1ce
100
AcDbEntity
  8
Layer_1
 62
7
100
AcDbPolyline
 90
2
 70
0
 10
-114.873630
 20
211.828177
 30
0.0
 10
-114.888830
 20
212.112207
 30
0.0
  0
SPLINE
  5
1cf
100
AcDbEntity
  8
Layer_1
 62
7
100
AcDbSpline
 70
0
 71
3
 72
31
 73
27
 74
25
 40
0.000000
 40
0.000000
 40
0.000000
 40
0.000000
 40
0.093975
 40
0.181702
 40
0.269814
 40
0.361144
 40
0.457201
 40
0.561495
 40
0.687119
 40
0.803321
 40
0.916075
 40
1.023119
 40
1.125041
 40
1.232552
 40
1.334452
 40
1.430147
 40
1.530458
 40
1.639122
 40
1.757069
 40
1.889628
 40
1.974673
 40
2.054808
 40
2.131474
 40
2.202941
 40
2.268605
 40
2.330123
 40
2.330123
 40
2.330123
 40
2.330123
 10
-114.888830
 20
212.112207
 30
0.0
 10
-114.858512
 20
212.120712
 30
0.0
 10
-114.799891
 20
212.137155
 30
0.0
 10
-114.724013
 20
212.188365
 30
0.0
 10
-114.666016
 20
212.257198
 30
0.0
 10
-114.625603
 20
212.340535
 30
0.0
 10
-114.601313
 20
212.435278
 30
0.0
 10
-114.593762
 20
212.544100
 30
0.0
 10
-114.603329
 20
212.659769
 30
0.0
 10
-114.638235
 20
212.773758
 30
0.0
 10
-114.695366
 20
212.871276
 30
0.0
 10
-114.772226
 20
212.948335
 30
0.0
 10
-114.868970
 20
212.995361
 30
0.0
 10
-114.973308
 20
213.008473
 30
0.0
 10
-115.075621
 20
212.995943
 30
0.0
 10
-115.166431
 20
212.950722
 30
0.0
 10
-115.237437
 20
212.875853
 30
0.0
 10
-115.289727
 20
212.779026
 30
0.0
 10
-115.320506
 20
212.662368
 30
0.0
 10
-115.328388
 20
212.550282
 30
0.0
 10
-115.323456
 20
212.450994
 30
0.0
 10
-115.309480
 20
212.371362
 30
0.0
 10
-115.286202
 20
212.298632
 30
0.0
 10
-115.255230
 20
212.234310
 30
0.0
 10
-115.219205
 20
212.178245
 30
0.0
 10
-115.189148
 20
212.148199
 30
0.0
 10
-115.174610
 20
212.133665
 30
0.0
 11
-114.888830
 21
212.112207
 31
0.0
 11
-114.799887
 21
212.142547
 31
0.0
 11
-114.726929
 21
212.191261
 31
0.0
 11
-114.669760
 21
212.258310
 31
0.0
 11
-114.629119
 21
212.340099
 31
0.0
 11
-114.604767
 21
212.433017
 31
0.0
 11
-114.596660
 21
212.536996
 31
0.0
 11
-114.608210
 21
212.662089
 31
0.0
 11
-114.642796
 21
212.773023
 31
0.0
 11
-114.700320
 21
212.870000
 31
0.0
 11
-114.777112
 21
212.944576
 31
0.0
 11
-114.868721
 21
212.989249
 31
0.0
 11
-114.975200
 21
213.004118
 31
0.0
 11
-115.076099
 21
212.989869
 31
0.0
 11
-115.161671
 21
212.947033
 31
0.0
 11
-115.231970
 21
212.875477
 31
0.0
 11
-115.284374
 21
212.780283
 31
0.0
 11
-115.315800
 21
212.666601
 31
0.0
 11
-115.326270
 21
212.534456
 31
0.0
 11
-115.321570
 21
212.449541
 31
0.0
 11
-115.307470
 21
212.370656
 31
0.0
 11
-115.283970
 21
212.297680
 31
0.0
 11
-115.253031
 21
212.233258
 31
0.0
 11
-115.216589
 21
212.178634
 31
0.0
 11
-115.174610
 21
212.133665
 31
0.0
  0
LWPOLYLINE
  5
1d0
100
AcDbEntity
  8
Layer_1
 62
7
100
AcDbPolyline
 90
7
 70
0
 10
-115.174610
 20
212.133665
 30
0.0
 10
-115.200710
 20
211.877469
 30
0.0
 10
-115.997210
 20
212.090458
 30
0.0
 10
-115.997210
 20
213.186204
 30
0.0
 10
-115.815500
 20
213.186204
 30
0.0
 10
-115.815500
 20
212.307046
 30
0.0
 10
-115.397380
 20
212.189148
 30
0.0
  0
LWPOLYLINE
  5
1d1
100
AcDbEntity
  8
Layer_1
 62
7
100
AcDbPolyline
 90
2
 70
0
 10
-114.873570
 20
211.827965
 30
0.0
 10
-114.873630
 20
211.828177
 30
0.0
  0
SPLINE
  5
1d2
100
AcDbEntity
  8
Layer_1
 62
7
100
AcDbSpline
 70
0
 71
3
 72
28
 73
24
 74
22
 40
0.000000
 40
0.000000
 40
0.000000
 40
0.000000
 40
0.144999
 40
0.287533
 40
0.431011
 40
0.614087
 40
0.783122
 40
0.945465
 40
1.096215
 40
1.233770
 40
1.373754
 40
1.509147
 40
1.643564
 40
1.788980
 40
1.979151
 40
2.182413
 40
2.411174
 40
2.599924
 40
2.768364
 40
2.922449
 40
3.062184
 40
3.189578
 40
3.316708
 40
3.316708
 40
3.316708
 40
3.316708
 10
-115.397380
 20
212.189148
 30
0.0
 10
-115.416980
 20
212.233428
 30
0.0
 10
-115.455847
 20
212.321234
 30
0.0
 10
-115.487889
 20
212.462216
 30
0.0
 10
-115.499272
 20
212.618561
 30
0.0
 10
-115.485900
 20
212.784163
 30
0.0
 10
-115.439204
 20
212.950499
 30
0.0
 10
-115.361730
 20
213.092768
 30
0.0
 10
-115.260314
 20
213.206215
 30
0.0
 10
-115.133037
 20
213.277488
 30
0.0
 10
-114.994367
 20
213.297781
 30
0.0
 10
-114.857183
 20
213.278821
 30
0.0
 10
-114.730675
 20
213.217243
 30
0.0
 10
-114.614167
 20
213.110131
 30
0.0
 10
-114.514275
 20
212.958073
 30
0.0
 10
-114.452157
 20
212.757757
 30
0.0
 10
-114.436001
 20
212.550301
 30
0.0
 10
-114.448148
 20
212.354790
 30
0.0
 10
-114.486659
 20
212.187755
 30
0.0
 10
-114.552126
 20
212.046789
 30
0.0
 10
-114.639418
 20
211.935426
 30
0.0
 10
-114.748335
 20
211.856151
 30
0.0
 10
-114.831854
 20
211.837354
 30
0.0
 10
-114.873570
 20
211.827965
 30
0.0
 11
-115.397380
 21
212.189148
 31
0.0
 11
-115.451732
 21
212.323575
 31
0.0
 11
-115.484261
 21
212.462347
 31
0.0
 11
-115.495080
 21
212.605417
 31
0.0
 11
-115.479449
 21
212.787824
 31
0.0
 11
-115.432567
 21
212.950228
 31
0.0
 11
-115.354450
 21
213.092541
 31
0.0
 11
-115.251659
 21
213.202811
 31
0.0
 11
-115.131124
 21
213.269089
 31
0.0
 11
-114.992900
 21
213.291217
 31
0.0
 11
-114.858901
 21
213.271843
 31
0.0
 11
-114.737693
 21
213.213735
 31
0.0
 11
-114.629200
 21
213.116909
 31
0.0
 11
-114.524565
 21
212.958112
 31
0.0
 11
-114.461761
 21
212.764796
 31
0.0
 11
-114.440820
 21
212.536996
 31
0.0
 11
-114.454014
 21
212.348708
 31
0.0
 11
-114.493573
 21
212.184979
 31
0.0
 11
-114.559460
 21
212.045691
 31
0.0
 11
-114.647020
 21
211.936791
 31
0.0
 11
-114.751716
 21
211.864210
 31
0.0
 11
-114.873570
 21
211.827965
 31
0.0
  0
LWPOLYLINE
  5
1d3
100
AcDbEntity
  8
Layer_1
 62
7
100
AcDbPolyline
 90
2
 70
0
 10
-114.873630
 20
213.544794
 30
0.0
 10
-114.888830
 20
213.828797
 30
0.0
  0
SPLINE
  5
1d4
100
AcDbEntity
  8
Layer_1
 62
7
100
AcDbSpline
 70
0
 71
3
 72
31
 73
27
 74
25
 40
0.000000
 40
0.000000
 40
0.000000
 40
0.000000
 40
0.093979
 40
0.181702
 40
0.269810
 40
0.361140
 40
0.457203
 40
0.561516
 40
0.687124
 40
0.803325
 40
0.916094
 40
1.023125
 40
1.125043
 40
1.232555
 40
1.334455
 40
1.430147
 40
1.530444
 40
1.639117
 40
1.757066
 40
1.889639
 40
1.974684
 40
2.054819
 40
2.131486
 40
2.202953
 40
2.268616
 40
2.330134
 40
2.330134
 40
2.330134
 40
2.330134
 10
-114.888830
 20
213.828797
 30
0.0
 10
-114.858512
 20
213.837308
 30
0.0
 10
-114.799895
 20
213.853762
 30
0.0
 10
-114.724014
 20
213.904960
 30
0.0
 10
-114.666014
 20
213.973789
 30
0.0
 10
-114.625602
 20
214.057128
 30
0.0
 10
-114.601312
 20
214.151879
 30
0.0
 10
-114.593763
 20
214.260705
 30
0.0
 10
-114.603330
 20
214.376374
 30
0.0
 10
-114.638241
 20
214.490359
 30
0.0
 10
-114.695353
 20
214.587891
 30
0.0
 10
-114.772232
 20
214.664931
 30
0.0
 10
-114.868971
 20
214.711950
 30
0.0
 10
-114.973308
 20
214.725063
 30
0.0
 10
-115.075620
 20
214.712533
 30
0.0
 10
-115.166426
 20
214.667320
 30
0.0
 10
-115.237446
 20
214.592468
 30
0.0
 10
-115.289724
 20
214.495633
 30
0.0
 10
-115.320508
 20
214.378969
 30
0.0
 10
-115.328388
 20
214.266877
 30
0.0
 10
-115.323457
 20
214.167584
 30
0.0
 10
-115.309480
 20
214.087952
 30
0.0
 10
-115.286202
 20
214.015222
 30
0.0
 10
-115.255230
 20
213.950900
 30
0.0
 10
-115.219205
 20
213.894835
 30
0.0
 10
-115.189148
 20
213.864789
 30
0.0
 10
-115.174610
 20
213.850255
 30
0.0
 11
-114.888830
 21
213.828797
 31
0.0
 11
-114.799887
 21
213.859150
 31
0.0
 11
-114.726929
 21
213.907858
 31
0.0
 11
-114.669760
 21
213.974900
 31
0.0
 11
-114.629119
 21
214.056690
 31
0.0
 11
-114.604767
 21
214.149615
 31
0.0
 11
-114.596660
 21
214.253612
 31
0.0
 11
-114.608210
 21
214.378688
 31
0.0
 11
-114.642796
 21
214.489623
 31
0.0
 11
-114.700320
 21
214.586617
 31
0.0
 11
-114.777112
 21
214.661172
 31
0.0
 11
-114.868721
 21
214.705839
 31
0.0
 11
-114.975200
 21
214.720708
 31
0.0
 11
-115.076099
 21
214.706460
 31
0.0
 11
-115.161671
 21
214.663631
 31
0.0
 11
-115.231970
 21
214.592094
 31
0.0
 11
-115.284374
 21
214.496890
 31
0.0
 11
-115.315800
 21
214.383205
 31
0.0
 11
-115.326270
 21
214.251046
 31
0.0
 11
-115.321570
 21
214.166131
 31
0.0
 11
-115.307470
 21
214.087246
 31
0.0
 11
-115.283970
 21
214.014270
 31
0.0
 11
-115.253031
 21
213.949848
 31
0.0
 11
-115.216589
 21
213.895224
 31
0.0
 11
-115.174610
 21
213.850255
 31
0.0
  0
LWPOLYLINE
  5
1d5
100
AcDbEntity
  8
Layer_1
 62
7
100
AcDbPolyline
 90
7
 70
0
 10
-115.174610
 20
213.850255
 30
0.0
 10
-115.200710
 20
213.594059
 30
0.0
 10
-115.997210
 20
213.807049
 30
0.0
 10
-115.997210
 20
214.902820
 30
0.0
 10
-115.815500
 20
214.902820
 30
0.0
 10
-115.815500
 20
214.023663
 30
0.0
 10
-115.397380
 20
213.905765
 30
0.0
  0
LWPOLYLINE
  5
1d6
100
AcDbEntity
  8
Layer_1
 62
7
100
AcDbPolyline
 90
2
 70
0
 10
-114.873570
 20
213.544555
 30
0.0
 10
-114.873630
 20
213.544794
 30
0.0
  0
SPLINE
  5
1d7
100
AcDbEntity
  8
Layer_1
 62
7
100
AcDbSpline
 70
0
 71
3
 72
28
 73
24
 74
22
 40
0.000000
 40
0.000000
 40
0.000000
 40
0.000000
 40
0.144982
 40
0.287509
 40
0.430986
 40
0.614067
 40
0.783108
 40
0.945442
 40
1.096199
 40
1.233752
 40
1.373735
 40
1.509128
 40
1.643545
 40
1.788961
 40
1.979126
 40
2.182376
 40
2.411130
 40
2.599893
 40
2.768334
 40
2.922430
 40
3.062166
 40
3.189560
 40
3.316690
 40
3.316690
 40
3.316690
 40
3.316690
 10
-115.397380
 20
213.905765
 30
0.0
 10
-115.416980
 20
213.950038
 30
0.0
 10
-115.455849
 20
214.037835
 30
0.0
 10
-115.487889
 20
214.178809
 30
0.0
 10
-115.499272
 20
214.335153
 30
0.0
 10
-115.485899
 20
214.500758
 30
0.0
 10
-115.439209
 20
214.667098
 30
0.0
 10
-115.361723
 20
214.809361
 30
0.0
 10
-115.260320
 20
214.922818
 30
0.0
 10
-115.133035
 20
214.994084
 30
0.0
 10
-114.994367
 20
215.014369
 30
0.0
 10
-114.857183
 20
214.995411
 30
0.0
 10
-114.730675
 20
214.933833
 30
0.0
 10
-114.614169
 20
214.826723
 30
0.0
 10
-114.514276
 20
214.674672
 30
0.0
 10
-114.452156
 20
214.474365
 30
0.0
 10
-114.436001
 20
214.266911
 30
0.0
 10
-114.448146
 20
214.071397
 30
0.0
 10
-114.486662
 20
213.904355
 30
0.0
 10
-114.552122
 20
213.763382
 30
0.0
 10
-114.639418
 20
213.652017
 30
0.0
 10
-114.748335
 20
213.572742
 30
0.0
 10
-114.831854
 20
213.553944
 30
0.0
 10
-114.873570
 20
213.544555
 30
0.0
 11
-115.397380
 21
213.905765
 31
0.0
 11
-115.451732
 21
214.040173
 31
0.0
 11
-115.484261
 21
214.178938
 31
0.0
 11
-115.495080
 21
214.322007
 31
0.0
 11
-115.479449
 21
214.504420
 31
0.0
 11
-115.432567
 21
214.666830
 31
0.0
 11
-115.354450
 21
214.809132
 31
0.0
 11
-115.251659
 21
214.919413
 31
0.0
 11
-115.131124
 21
214.985685
 31
0.0
 11
-114.992900
 21
215.007807
 31
0.0
 11
-114.858901
 21
214.988433
 31
0.0
 11
-114.737693
 21
214.930325
 31
0.0
 11
-114.629200
 21
214.833500
 31
0.0
 11
-114.524565
 21
214.674710
 31
0.0
 11
-114.461761
 21
214.481406
 31
0.0
 11
-114.440820
 21
214.253612
 31
0.0
 11
-114.454014
 21
214.065311
 31
0.0
 11
-114.493573
 21
213.901581
 31
0.0
 11
-114.559460
 21
213.762281
 31
0.0
 11
-114.647020
 21
213.653382
 31
0.0
 11
-114.751716
 21
213.580800
 31
0.0
 11
-114.873570
 21
213.544555
 31
0.0
  0
SPLINE
  5
1d8
100
AcDbEntity
  8
Layer_1
 62
7
100
AcDbSpline
 70
0
 71
3
 72
19
 73
15
 74
13
 40
0.000000
 40
0.000000
 40
0.000000
 40
0.000000
 40
0.075629
 40
0.155652
 40
0.241725
 40
0.333297
 40
0.429571
 40
0.532289
 40
0.643679
 40
0.742260
 40
0.829857
 40
0.908587
 40
0.980420
 40
1.049449
 40
1.049449
 40
1.049449
 40
1.049449
 10
-115.431560
 20
215.579307
 30
0.0
 10
-115.449342
 20
215.597261
 30
0.0
 10
-115.485940
 20
215.634214
 30
0.0
 10
-115.529628
 20
215.702534
 30
0.0
 10
-115.566465
 20
215.780287
 30
0.0
 10
-115.594334
 20
215.867572
 30
0.0
 10
-115.610761
 20
215.963311
 30
0.0
 10
-115.615771
 20
216.066834
 30
0.0
 10
-115.610848
 20
216.171144
 30
0.0
 10
-115.594370
 20
216.269244
 30
0.0
 10
-115.566102
 20
216.353456
 30
0.0
 10
-115.526771
 20
216.422785
 30
0.0
 10
-115.478329
 20
216.479104
 30
0.0
 10
-115.437747
 20
216.503252
 30
0.0
 10
-115.417860
 20
216.515085
 30
0.0
 11
-115.431560
 21
215.579307
 31
0.0
 11
-115.482908
 21
215.634832
 31
0.0
 11
-115.527079
 21
215.701561
 31
0.0
 11
-115.563960
 21
215.779332
 31
0.0
 11
-115.591838
 21
215.866557
 31
0.0
 11
-115.608516
 21
215.961376
 31
0.0
 11
-115.614060
 21
216.063944
 31
0.0
 11
-115.608304
 21
216.175185
 31
0.0
 11
-115.591082
 21
216.272250
 31
0.0
 11
-115.562460
 21
216.355039
 31
0.0
 11
-115.523349
 21
216.423367
 31
0.0
 11
-115.475238
 21
216.476708
 31
0.0
 11
-115.417860
 21
216.515085
 31
0.0
  0
LWPOLYLINE
  5
1d9
100
AcDbEntity
  8
Layer_1
 62
7
100
AcDbPolyline
 90
4
 70
0
 10
-114.466700
 20
215.335494
 30
0.0
 10
-115.590280
 20
215.335494
 30
0.0
 10
-115.590280
 20
215.579307
 30
0.0
 10
-115.431560
 20
215.579307
 30
0.0
  0
SPLINE
  5
1da
100
AcDbEntity
  8
Layer_1
 62
7
100
AcDbSpline
 70
0
 71
3
 72
16
 73
12
 74
10
 40
0.000000
 40
0.000000
 40
0.000000
 40
0.000000
 40
0.177658
 40
0.355549
 40
0.547784
 40
0.695353
 40
0.821775
 40
0.932255
 40
1.034406
 40
1.138619
 40
1.256487
 40
1.256487
 40
1.256487
 40
1.256487
 10
-115.417860
 20
216.515085
 30
0.0
 10
-115.457282
 20
216.559833
 30
0.0
 10
-115.536177
 20
216.649387
 30
0.0
 10
-115.601390
 20
216.824025
 30
0.0
 10
-115.618450
 20
216.996820
 30
0.0
 10
-115.608641
 20
217.152463
 30
0.0
 10
-115.579314
 20
217.278035
 30
0.0
 10
-115.527972
 20
217.380352
 30
0.0
 10
-115.452060
 20
217.456689
 30
0.0
 10
-115.350843
 20
217.501937
 30
0.0
 10
-115.276478
 20
217.506252
 30
0.0
 10
-115.237010
 20
217.508543
 30
0.0
 11
-115.417860
 21
216.515085
 31
0.0
 11
-115.526995
 21
216.655270
 31
0.0
 11
-115.592321
 21
216.820732
 31
0.0
 11
-115.614050
 21
217.011735
 31
0.0
 11
-115.603806
 21
217.158948
 31
0.0
 11
-115.573028
 21
217.281567
 31
0.0
 11
-115.521650
 21
217.379373
 31
0.0
 11
-115.448883
 21
217.451066
 31
0.0
 11
-115.353997
 21
217.494157
 31
0.0
 11
-115.237010
 21
217.508543
 31
0.0
  0
LWPOLYLINE
  5
1db
100
AcDbEntity
  8
Layer_1
 62
7
100
AcDbPolyline
 90
4
 70
0
 10
-115.237010
 20
217.508543
 30
0.0
 10
-114.466620
 20
217.508543
 30
0.0
 10
-114.466620
 20
217.236895
 30
0.0
 10
-115.173720
 20
217.236895
 30
0.0
  0
SPLINE
  5
1dc
100
AcDbEntity
  8
Layer_1
 62
7
100
AcDbSpline
 70
0
 71
3
 72
22
 73
18
 74
16
 40
0.000000
 40
0.000000
 40
0.000000
 40
0.000000
 40
0.068832
 40
0.124251
 40
0.167430
 40
0.205934
 40
0.247762
 40
0.295351
 40
0.347293
 40
0.402626
 40
0.462380
 40
0.569422
 40
0.666797
 40
0.758769
 40
0.847407
 40
0.939299
 40
1.044987
 40
1.044987
 40
1.044987
 40
1.044987
 10
-115.173720
 20
217.236895
 30
0.0
 10
-115.196680
 20
217.236427
 30
0.0
 10
-115.238126
 20
217.235583
 30
0.0
 10
-115.293464
 20
217.227166
 30
0.0
 10
-115.337253
 20
217.212595
 30
0.0
 10
-115.371258
 20
217.188359
 30
0.0
 10
-115.398393
 20
217.154947
 30
0.0
 10
-115.420183
 20
217.112937
 30
0.0
 10
-115.437437
 20
217.064088
 30
0.0
 10
-115.447310
 20
217.009061
 30
0.0
 10
-115.450877
 20
216.935007
 30
0.0
 10
-115.444293
 20
216.846692
 30
0.0
 10
-115.418021
 20
216.750825
 30
0.0
 10
-115.375010
 20
216.667689
 30
0.0
 10
-115.309839
 20
216.601763
 30
0.0
 10
-115.219792
 20
216.563268
 30
0.0
 10
-115.153676
 20
216.559684
 30
0.0
 10
-115.118310
 20
216.557767
 30
0.0
 11
-115.173720
 21
217.236895
 31
0.0
 11
-115.242484
 21
217.233834
 31
0.0
 11
-115.297163
 21
217.224806
 31
0.0
 11
-115.337740
 21
217.210045
 31
0.0
 11
-115.369177
 21
217.187812
 31
0.0
 11
-115.396036
 21
217.155748
 31
0.0
 11
-115.418540
 21
217.113815
 31
0.0
 11
-115.435744
 21
217.064805
 31
0.0
 11
-115.445903
 21
217.010413
 31
0.0
 11
-115.449240
 21
216.950752
 31
0.0
 11
-115.440481
 21
216.844069
 31
0.0
 11
-115.414233
 21
216.750298
 31
0.0
 11
-115.370540
 21
216.669368
 31
0.0
 11
-115.307334
 21
216.607226
 31
0.0
 11
-115.223276
 21
216.570096
 31
0.0
 11
-115.118310
 21
216.557767
 31
0.0
  0
LWPOLYLINE
  5
1dd
100
AcDbEntity
  8
Layer_1
 62
7
100
AcDbPolyline
 90
4
 70
0
 10
-115.118310
 20
216.557767
 30
0.0
 10
-114.466270
 20
216.557767
 30
0.0
 10
-114.466270
 20
216.286119
 30
0.0
 10
-115.195490
 20
216.286119
 30
0.0
  0
LWPOLYLINE
  5
1de
100
AcDbEntity
  8
Layer_1
 62
7
100
AcDbPolyline
 90
4
 70
0
 10
-115.048710
 20
215.606908
 30
0.0
 10
-114.466330
 20
215.606908
 30
0.0
 10
-114.466330
 20
215.335260
 30
0.0
 10
-114.466700
 20
215.335494
 30
0.0
  0
SPLINE
  5
1df
100
AcDbEntity
  8
Layer_1
 62
7
100
AcDbSpline
 70
0
 71
3
 72
22
 73
18
 74
16
 40
0.000000
 40
0.000000
 40
0.000000
 40
0.000000
 40
0.077753
 40
0.144885
 40
0.206445
 40
0.270632
 40
0.346108
 40
0.437500
 40
0.511948
 40
0.583828
 40
0.654495
 40
0.721683
 40
0.784104
 40
0.845257
 40
0.911887
 40
0.991404
 40
1.085706
 40
1.085706
 40
1.085706
 40
1.085706
 10
-115.195490
 20
216.286119
 30
0.0
 10
-115.221483
 20
216.284960
 30
0.0
 10
-115.269918
 20
216.282801
 30
0.0
 10
-115.336080
 20
216.260421
 30
0.0
 10
-115.389150
 20
216.221959
 30
0.0
 10
-115.425772
 20
216.164048
 30
0.0
 10
-115.445624
 20
216.088853
 30
0.0
 10
-115.450812
 20
216.008260
 30
0.0
 10
-115.446217
 20
215.928971
 30
0.0
 10
-115.432013
 20
215.857792
 30
0.0
 10
-115.408947
 20
215.791572
 30
0.0
 10
-115.377279
 20
215.732322
 30
0.0
 10
-115.335220
 20
215.683882
 30
0.0
 10
-115.282924
 20
215.646788
 30
0.0
 10
-115.217430
 20
215.622948
 30
0.0
 10
-115.138157
 20
215.609069
 30
0.0
 10
-115.080170
 20
215.607668
 30
0.0
 10
-115.048710
 20
215.606908
 30
0.0
 11
-115.195490
 21
216.286119
 31
0.0
 11
-115.272892
 21
216.278741
 31
0.0
 11
-115.336278
 21
216.256630
 31
0.0
 11
-115.385620
 21
216.219819
 31
0.0
 11
-115.420883
 21
216.166186
 31
0.0
 11
-115.442057
 21
216.093742
 31
0.0
 11
-115.449120
 21
216.002623
 31
0.0
 11
-115.444420
 21
215.928323
 31
0.0
 11
-115.430320
 21
215.857839
 31
0.0
 11
-115.406820
 21
215.791194
 31
0.0
 11
-115.374354
 21
215.732372
 31
0.0
 11
-115.333223
 21
215.685417
 31
0.0
 11
-115.283230
 21
215.650198
 31
0.0
 11
-115.221084
 21
215.626170
 31
0.0
 11
-115.142889
 21
215.611729
 31
0.0
 11
-115.048710
 21
215.606908
 31
0.0
  0
SPLINE
  5
1e0
100
AcDbEntity
  8
Layer_1
 62
7
100
AcDbSpline
 70
0
 71
3
 72
19
 73
15
 74
13
 40
0.000000
 40
0.000000
 40
0.000000
 40
0.000000
 40
0.075629
 40
0.155652
 40
0.241725
 40
0.333303
 40
0.429590
 40
0.532315
 40
0.643691
 40
0.742271
 40
0.829856
 40
0.908587
 40
0.980419
 40
1.049449
 40
1.049449
 40
1.049449
 40
1.049449
 10
-115.431560
 20
218.150449
 30
0.0
 10
-115.449342
 20
218.168403
 30
0.0
 10
-115.485940
 20
218.205356
 30
0.0
 10
-115.529628
 20
218.273676
 30
0.0
 10
-115.566467
 20
218.351430
 30
0.0
 10
-115.594335
 20
218.438722
 30
0.0
 10
-115.610761
 20
218.534470
 30
0.0
 10
-115.615772
 20
218.637995
 30
0.0
 10
-115.610847
 20
218.742302
 30
0.0
 10
-115.594372
 20
218.840395
 30
0.0
 10
-115.566099
 20
218.924600
 30
0.0
 10
-115.526771
 20
218.993926
 30
0.0
 10
-115.478329
 20
219.050246
 30
0.0
 10
-115.437747
 20
219.074394
 30
0.0
 10
-115.417860
 20
219.086227
 30
0.0
 11
-115.431560
 21
218.150449
 31
0.0
 11
-115.482908
 21
218.205974
 31
0.0
 11
-115.527079
 21
218.272703
 31
0.0
 11
-115.563960
 21
218.350474
 31
0.0
 11
-115.591838
 21
218.437706
 31
0.0
 11
-115.608516
 21
218.532537
 31
0.0
 11
-115.614060
 21
218.635112
 31
0.0
 11
-115.608304
 21
218.746340
 31
0.0
 11
-115.591082
 21
218.843404
 31
0.0
 11
-115.562460
 21
218.926180
 31
0.0
 11
-115.523349
 21
218.994509
 31
0.0
 11
-115.475238
 21
219.047850
 31
0.0
 11
-115.417860
 21
219.086227
 31
0.0
  0
LWPOLYLINE
  5
1e1
100
AcDbEntity
  8
Layer_1
 62
7
100
AcDbPolyline
 90
4
 70
0
 10
-114.466700
 20
217.906635
 30
0.0
 10
-115.590280
 20
217.906635
 30
0.0
 10
-115.590280
 20
218.150449
 30
0.0
 10
-115.431560
 20
218.150449
 30
0.0
  0
SPLINE
  5
1e2
100
AcDbEntity
  8
Layer_1
 62
7
100
AcDbSpline
 70
0
 71
3
 72
16
 73
12
 74
10
 40
0.000000
 40
0.000000
 40
0.000000
 40
0.000000
 40
0.177672
 40
0.355562
 40
0.547779
 40
0.695362
 40
0.821785
 40
0.932276
 40
1.034416
 40
1.138625
 40
1.256493
 40
1.256493
 40
1.256493
 40
1.256493
 10
-115.417860
 20
219.086227
 30
0.0
 10
-115.457281
 20
219.130981
 30
0.0
 10
-115.536172
 20
219.220544
 30
0.0
 10
-115.601389
 20
219.395178
 30
0.0
 10
-115.618449
 20
219.567972
 30
0.0
 10
-115.608643
 20
219.723613
 30
0.0
 10
-115.579310
 20
219.849192
 30
0.0
 10
-115.527981
 20
219.951518
 30
0.0
 10
-115.452055
 20
220.027841
 30
0.0
 10
-115.350842
 20
220.073079
 30
0.0
 10
-115.276478
 20
220.077394
 30
0.0
 10
-115.237010
 20
220.079684
 30
0.0
 11
-115.417860
 21
219.086227
 31
0.0
 11
-115.526995
 21
219.226429
 31
0.0
 11
-115.592321
 21
219.391891
 31
0.0
 11
-115.614050
 21
219.582876
 31
0.0
 11
-115.603806
 21
219.730102
 31
0.0
 11
-115.573028
 21
219.852722
 31
0.0
 11
-115.521650
 21
219.950541
 31
0.0
 11
-115.448883
 21
220.022218
 31
0.0
 11
-115.353997
 21
220.065300
 31
0.0
 11
-115.237010
 21
220.079684
 31
0.0
  0
LWPOLYLINE
  5
1e3
100
AcDbEntity
  8
Layer_1
 62
7
100
AcDbPolyline
 90
4
 70
0
 10
-115.237010
 20
220.079684
 30
0.0
 10
-114.466620
 20
220.079684
 30
0.0
 10
-114.466620
 20
219.808037
 30
0.0
 10
-115.173720
 20
219.808037
 30
0.0
  0
SPLINE
  5
1e4
100
AcDbEntity
  8
Layer_1
 62
7
100
AcDbSpline
 70
0
 71
3
 72
22
 73
18
 74
16
 40
0.000000
 40
0.000000
 40
0.000000
 40
0.000000
 40
0.068832
 40
0.124252
 40
0.167433
 40
0.205936
 40
0.247761
 40
0.295355
 40
0.347291
 40
0.402620
 40
0.462357
 40
0.569412
 40
0.666788
 40
0.758771
 40
0.847400
 40
0.939295
 40
1.044984
 40
1.044984
 40
1.044984
 40
1.044984
 10
-115.173720
 20
219.808037
 30
0.0
 10
-115.196680
 20
219.807569
 30
0.0
 10
-115.238126
 20
219.806724
 30
0.0
 10
-115.293465
 20
219.798308
 30
0.0
 10
-115.337251
 20
219.783725
 30
0.0
 10
-115.371258
 20
219.759494
 30
0.0
 10
-115.398395
 20
219.726083
 30
0.0
 10
-115.420181
 20
219.684071
 30
0.0
 10
-115.437438
 20
219.635226
 30
0.0
 10
-115.447309
 20
219.580207
 30
0.0
 10
-115.450877
 20
219.506156
 30
0.0
 10
-115.444295
 20
219.417842
 30
0.0
 10
-115.418017
 20
219.321969
 30
0.0
 10
-115.375019
 20
219.238822
 30
0.0
 10
-115.309832
 20
219.172910
 30
0.0
 10
-115.219794
 20
219.134405
 30
0.0
 10
-115.153676
 20
219.130818
 30
0.0
 10
-115.118310
 20
219.128899
 30
0.0
 11
-115.173720
 21
219.808037
 31
0.0
 11
-115.242484
 21
219.804976
 31
0.0
 11
-115.297163
 21
219.795945
 31
0.0
 11
-115.337740
 21
219.781177
 31
0.0
 11
-115.369177
 21
219.758946
 31
0.0
 11
-115.396036
 21
219.726884
 31
0.0
 11
-115.418540
 21
219.684947
 31
0.0
 11
-115.435744
 21
219.635943
 31
0.0
 11
-115.445903
 21
219.581555
 31
0.0
 11
-115.449240
 21
219.521911
 31
0.0
 11
-115.440481
 21
219.415216
 31
0.0
 11
-115.414233
 21
219.321443
 31
0.0
 11
-115.370540
 21
219.240500
 31
0.0
 11
-115.307334
 21
219.178371
 31
0.0
 11
-115.223276
 21
219.141235
 31
0.0
 11
-115.118310
 21
219.128899
 31
0.0
  0
LWPOLYLINE
  5
1e5
100
AcDbEntity
  8
Layer_1
 62
7
100
AcDbPolyline
 90
4
 70
0
 10
-115.118310
 20
219.128899
 30
0.0
 10
-114.466270
 20
219.128899
 30
0.0
 10
-114.466270
 20
218.857251
 30
0.0
 10
-115.195490
 20
218.857251
 30
0.0
  0
LWPOLYLINE
  5
1e6
100
AcDbEntity
  8
Layer_1
 62
7
100
AcDbPolyline
 90
4
 70
0
 10
-115.048710
 20
218.178049
 30
0.0
 10
-114.466330
 20
218.178049
 30
0.0
 10
-114.466330
 20
217.906401
 30
0.0
 10
-114.466700
 20
217.906635
 30
0.0
  0
LWPOLYLINE
  5
1e7
100
AcDbEntity
  8
Layer_1
 62
1
100
AcDbPolyline
 90
2
 70
0
 10
30.226829
 20
306.491224
 30
0.0
 10
252.976890
 20
306.491224
 30
0.0
  0
LWPOLYLINE
  5
1e8
100
AcDbEntity
  8
Layer_1
 62
1
100
AcDbPolyline
 90
2
 70
0
 10
30.226987
 20
312.206224
 30
0.0
 10
30.226987
 20
300.776224
 30
0.0
  0
LWPOLYLINE
  5
1e9
100
AcDbEntity
  8
Layer_1
 62
1
100
AcDbPolyline
 90
2
 70
0
 10
252.976520
 20
312.206224
 30
0.0
 10
252.976520
 20
300.776224
 30
0.0
  0
SPLINE
  5
1ea
100
AcDbEntity
  8
Layer_1
 62
7
100
AcDbSpline
 70
0
 71
3
 72
22
 73
18
 74
16
 40
0.000000
 40
0.000000
 40
0.000000
 40
0.000000
 40
0.077752
 40
0.144882
 40
0.206450
 40
0.270625
 40
0.346100
 40
0.437508
 40
0.511951
 40
0.583825
 40
0.654502
 40
0.721690
 40
0.784112
 40
0.845265
 40
0.911890
 40
0.991407
 40
1.085710
 40
1.085710
 40
1.085710
 40
1.085710
 10
-115.195490
 20
218.857251
 30
0.0
 10
-115.221482
 20
218.856094
 30
0.0
 10
-115.269916
 20
218.853938
 30
0.0
 10
-115.336087
 20
218.831570
 30
0.0
 10
-115.389140
 20
218.793091
 30
0.0
 10
-115.425777
 20
218.735194
 30
0.0
 10
-115.445624
 20
218.659994
 30
0.0
 10
-115.450812
 20
218.579399
 30
0.0
 10
-115.446217
 20
218.500107
 30
0.0
 10
-115.432010
 20
218.428930
 30
0.0
 10
-115.408949
 20
218.362707
 30
0.0
 10
-115.377279
 20
218.303453
 30
0.0
 10
-115.335220
 20
218.255014
 30
0.0
 10
-115.282927
 20
218.217917
 30
0.0
 10
-115.217427
 20
218.194094
 30
0.0
 10
-115.138158
 20
218.180211
 30
0.0
 10
-115.080170
 20
218.178810
 30
0.0
 10
-115.048710
 20
218.178049
 30
0.0
 11
-115.195490
 21
218.857251
 31
0.0
 11
-115.272892
 21
218.849880
 31
0.0
 11
-115.336278
 21
218.827775
 31
0.0
 11
-115.385620
 21
218.790951
 31
0.0
 11
-115.420883
 21
218.737333
 31
0.0
 11
-115.442057
 21
218.664889
 31
0.0
 11
-115.449120
 21
218.573754
 31
0.0
 11
-115.444420
 21
218.499460
 31
0.0
 11
-115.430320
 21
218.428982
 31
0.0
 11
-115.406820
 21
218.362326
 31
0.0
 11
-115.374354
 21
218.303504
 31
0.0
 11
-115.333223
 21
218.256549
 31
0.0
 11
-115.283230
 21
218.221329
 31
0.0
 11
-115.221084
 21
218.197313
 31
0.0
 11
-115.142889
 21
218.182872
 31
0.0
 11
-115.048710
 21
218.178049
 31
0.0
  0
LWPOLYLINE
  5
1eb
100
AcDbEntity
  8
Layer_1
 62
7
100
AcDbPolyline
 90
3
 70
0
 10
132.945940
 20
306.757924
 30
0.0
 10
132.945940
 20
306.491224
 30
0.0
 10
131.440990
 20
306.491224
 30
0.0
  0
SPLINE
  5
1ec
100
AcDbEntity
  8
Layer_1
 62
7
100
AcDbSpline
 70
0
 71
3
 72
34
 73
30
 74
28
 40
0.000000
 40
0.000000
 40
0.000000
 40
0.000000
 40
0.066423
 40
0.132050
 40
0.198078
 40
0.309900
 40
0.428206
 40
0.554341
 40
0.696769
 40
0.863751
 40
1.055795
 40
1.345397
 40
1.576950
 40
1.751698
 40
1.889194
 40
2.009697
 40
2.118681
 40
2.224232
 40
2.325564
 40
2.430845
 40
2.538706
 40
2.649040
 40
2.769353
 40
2.895979
 40
3.011202
 40
3.123360
 40
3.236143
 40
3.354582
 40
3.487276
 40
3.487276
 40
3.487276
 40
3.487276
 10
131.440990
 20
306.491224
 30
0.0
 10
131.440943
 20
306.513403
 30
0.0
 10
131.440851
 20
306.557494
 30
0.0
 10
131.452672
 20
306.622808
 30
0.0
 10
131.477354
 20
306.700254
 30
0.0
 10
131.519193
 20
306.790039
 30
0.0
 10
131.581650
 20
306.891314
 30
0.0
 10
131.661446
 20
306.992937
 30
0.0
 10
131.761535
 20
307.098280
 30
0.0
 10
131.883666
 20
307.212539
 30
0.0
 10
132.049688
 20
307.351092
 30
0.0
 10
132.231707
 20
307.504100
 30
0.0
 10
132.400190
 20
307.663741
 30
0.0
 10
132.521042
 20
307.799484
 30
0.0
 10
132.599333
 20
307.921376
 30
0.0
 10
132.646072
 20
308.035482
 30
0.0
 10
132.661798
 20
308.147274
 30
0.0
 10
132.649017
 20
308.253098
 30
0.0
 10
132.607767
 20
308.350168
 30
0.0
 10
132.540557
 20
308.432247
 30
0.0
 10
132.452275
 20
308.496426
 30
0.0
 10
132.344630
 20
308.534854
 30
0.0
 10
132.225199
 20
308.545877
 30
0.0
 10
132.104079
 20
308.534523
 30
0.0
 10
131.991667
 20
308.493875
 30
0.0
 10
131.899442
 20
308.425133
 30
0.0
 10
131.829912
 20
308.332283
 30
0.0
 10
131.787956
 20
308.216311
 30
0.0
 10
131.783235
 20
308.132401
 30
0.0
 10
131.780740
 20
308.088064
 30
0.0
 11
131.440990
 21
306.491224
 31
0.0
 11
131.442868
 21
306.557621
 31
0.0
 11
131.454012
 21
306.622295
 31
0.0
 11
131.473690
 21
306.685322
 31
0.0
 11
131.520127
 21
306.787046
 31
0.0
 11
131.582050
 21
306.887852
 31
0.0
 11
131.659480
 21
306.987424
 31
0.0
 11
131.756794
 21
307.091422
 31
0.0
 11
131.878526
 21
307.205723
 31
0.0
 11
132.024660
 21
307.330324
 31
0.0
 11
132.244413
 21
307.518946
 31
0.0
 11
132.411321
 21
307.679440
 31
0.0
 11
132.525280
 21
307.811918
 31
0.0
 11
132.598483
 21
307.928306
 31
0.0
 11
132.642450
 21
308.040503
 31
0.0
 11
132.657120
 21
308.148495
 31
0.0
 11
132.643909
 21
308.253215
 31
0.0
 11
132.604234
 21
308.346458
 31
0.0
 11
132.538030
 21
308.428318
 31
0.0
 11
132.450546
 21
308.491409
 31
0.0
 11
132.346944
 21
308.529358
 31
0.0
 11
132.227300
 21
308.542036
 31
0.0
 11
132.101386
 21
308.528632
 31
0.0
 11
131.993404
 21
308.488428
 31
0.0
 11
131.903450
 21
308.421439
 31
0.0
 11
131.835854
 21
308.331156
 31
0.0
 11
131.794989
 21
308.219991
 31
0.0
 11
131.780740
 21
308.088064
 31
0.0
  0
LWPOLYLINE
  5
1ed
100
AcDbEntity
  8
Layer_1
 62
7
100
AcDbPolyline
 90
2
 70
0
 10
131.780740
 20
308.088064
 30
0.0
 10
131.494990
 20
308.116644
 30
0.0
  0
LWPOLYLINE
  5
1ee
100
AcDbEntity
  8
Layer_1
 62
7
100
AcDbPolyline
 90
3
 70
0
 10
131.830170
 20
306.757717
 30
0.0
 10
132.946110
 20
306.757717
 30
0.0
 10
132.945940
 20
306.757924
 30
0.0
  0
SPLINE
  5
1ef
100
AcDbEntity
  8
Layer_1
 62
7
100
AcDbSpline
 70
0
 71
3
 72
34
 73
30
 74
28
 40
0.000000
 40
0.000000
 40
0.000000
 40
0.000000
 40
0.200425
 40
0.379443
 40
0.549103
 40
0.720050
 40
0.901219
 40
1.103758
 40
1.307714
 40
1.490765
 40
1.665173
 40
1.833733
 40
1.996838
 40
2.167507
 40
2.258196
 40
2.349503
 40
2.443191
 40
2.543771
 40
2.655170
 40
2.778797
 40
2.930654
 40
3.126536
 40
3.366558
 40
3.560550
 40
3.704468
 40
3.798524
 40
3.865908
 40
3.929829
 40
3.990750
 40
3.990750
 40
3.990750
 40
3.990750
 10
131.494990
 20
308.116644
 30
0.0
 10
131.504332
 20
308.183058
 30
0.0
 10
131.522019
 20
308.308792
 30
0.0
 10
131.598146
 20
308.478261
 30
0.0
 10
131.711459
 20
308.612308
 30
0.0
 10
131.859705
 20
308.707836
 30
0.0
 10
132.037933
 20
308.763634
 30
0.0
 10
132.234315
 20
308.779478
 30
0.0
 10
132.431318
 20
308.762828
 30
0.0
 10
132.611061
 20
308.702513
 30
0.0
 10
132.755545
 20
308.599122
 30
0.0
 10
132.863958
 20
308.467200
 30
0.0
 10
132.930094
 20
308.310816
 30
0.0
 10
132.946542
 20
308.168510
 30
0.0
 10
132.938781
 20
308.050960
 30
0.0
 10
132.919843
 20
307.960706
 30
0.0
 10
132.887860
 20
307.870780
 30
0.0
 10
132.841709
 20
307.779620
 30
0.0
 10
132.778865
 20
307.686801
 30
0.0
 10
132.696996
 20
307.586939
 30
0.0
 10
132.586378
 20
307.475148
 30
0.0
 10
132.442560
 20
307.342071
 30
0.0
 10
132.283571
 20
307.204884
 30
0.0
 10
132.135942
 20
307.081099
 30
0.0
 10
132.027850
 20
306.985998
 30
0.0
 10
131.953576
 20
306.916250
 30
0.0
 10
131.903783
 20
306.859930
 30
0.0
 10
131.863937
 20
306.809658
 30
0.0
 10
131.841244
 20
306.774751
 30
0.0
 10
131.830170
 20
306.757717
 30
0.0
 11
131.494990
 21
308.116644
 31
0.0
 11
131.532759
 21
308.313478
 31
0.0
 11
131.606744
 21
308.476493
 31
0.0
 11
131.716760
 21
308.605647
 31
0.0
 11
131.859889
 21
308.699119
 31
0.0
 11
132.032164
 21
308.755185
 31
0.0
 11
132.233840
 21
308.773869
 31
0.0
 11
132.436799
 21
308.753726
 31
0.0
 11
132.609564
 21
308.693231
 31
0.0
 11
132.751790
 21
308.592285
 31
0.0
 11
132.858054
 21
308.461440
 31
0.0
 11
132.921693
 21
308.311262
 31
0.0
 11
132.942870
 21
308.141912
 31
0.0
 11
132.936685
 21
308.051435
 31
0.0
 11
132.918055
 21
307.962048
 31
0.0
 11
132.886870
 21
307.873703
 31
0.0
 11
132.841611
 21
307.783881
 31
0.0
 11
132.779869
 21
307.691157
 31
0.0
 11
132.701690
 21
307.595388
 31
0.0
 11
132.596046
 21
307.486302
 31
0.0
 11
132.452681
 21
307.352824
 31
0.0
 11
132.271550
 21
307.195338
 31
0.0
 11
132.123731
 21
307.069709
 31
0.0
 11
132.015982
 21
306.974301
 31
0.0
 11
131.948310
 21
306.908980
 31
0.0
 11
131.903490
 21
306.858663
 31
0.0
 11
131.864150
 21
306.808281
 31
0.0
 11
131.830170
 21
306.757717
 31
0.0
  0
SPLINE
  5
1f0
100
AcDbEntity
  8
Layer_1
 62
7
100
AcDbSpline
 70
0
 71
3
 72
28
 73
24
 74
22
 40
0.000000
 40
0.000000
 40
0.000000
 40
0.000000
 40
0.118092
 40
0.219030
 40
0.307886
 40
0.392346
 40
0.479283
 40
0.574096
 40
0.656544
 40
0.734339
 40
0.810321
 40
0.885294
 40
0.959854
 40
1.035993
 40
1.118886
 40
1.214077
 40
1.322402
 40
1.437103
 40
1.551673
 40
1.666871
 40
1.681327
 40
1.700105
 40
1.723025
 40
1.723025
 40
1.723025
 40
1.723025
 10
133.556120
 20
307.040686
 30
0.0
 10
133.564521
 20
307.002147
 30
0.0
 10
133.580102
 20
306.930666
 30
0.0
 10
133.623471
 20
306.836505
 30
0.0
 10
133.682260
 20
306.764957
 30
0.0
 10
133.755401
 20
306.716202
 30
0.0
 10
133.840308
 20
306.687423
 30
0.0
 10
133.928691
 20
306.679650
 30
0.0
 10
134.013777
 20
306.686017
 30
0.0
 10
134.090562
 20
306.705656
 30
0.0
 10
134.159504
 20
306.739295
 30
0.0
 10
134.220821
 20
306.783312
 30
0.0
 10
134.274456
 20
306.836526
 30
0.0
 10
134.320256
 20
306.899898
 30
0.0
 10
134.359277
 20
306.975400
 30
0.0
 10
134.393122
 20
307.064824
 30
0.0
 10
134.422505
 20
307.166844
 30
0.0
 10
134.445488
 20
307.277132
 30
0.0
 10
134.459325
 20
307.391250
 30
0.0
 10
134.462515
 20
307.472695
 30
0.0
 10
134.462292
 20
307.522170
 30
0.0
 10
134.461587
 20
307.540886
 30
0.0
 10
134.460137
 20
307.554714
 30
0.0
 10
134.459340
 20
307.562314
 30
0.0
 11
133.556120
 21
307.040686
 31
0.0
 11
133.585761
 21
306.926374
 31
0.0
 11
133.629119
 21
306.835223
 31
0.0
 11
133.686240
 21
306.767160
 31
0.0
 11
133.756282
 21
306.719964
 31
0.0
 11
133.838444
 21
306.691547
 31
0.0
 11
133.932780
 21
306.682044
 31
0.0
 11
134.014967
 21
306.688601
 31
0.0
 11
134.090220
 21
306.708322
 31
0.0
 11
134.158680
 21
306.741284
 31
0.0
 11
134.219647
 21
306.784920
 31
0.0
 11
134.272547
 21
306.837463
 31
0.0
 11
134.317380
 21
306.899002
 31
0.0
 11
134.356027
 21
306.972335
 31
0.0
 11
134.390420
 21
307.061096
 31
0.0
 11
134.420640
 21
307.165120
 31
0.0
 11
134.443896
 21
307.277438
 31
0.0
 11
134.457751
 21
307.391168
 31
0.0
 11
134.462340
 21
307.506274
 31
0.0
 11
134.462229
 21
307.520730
 31
0.0
 11
134.461451
 21
307.539492
 31
0.0
 11
134.459340
 21
307.562314
 31
0.0
  0
LWPOLYLINE
  5
1f1
100
AcDbEntity
  8
Layer_1
 62
7
100
AcDbPolyline
 90
2
 70
0
 10
133.289420
 20
307.018406
 30
0.0
 10
133.556120
 20
307.040686
 30
0.0
  0
SPLINE
  5
1f2
100
AcDbEntity
  8
Layer_1
 62
7
100
AcDbSpline
 70
0
 71
3
 72
49
 73
45
 74
43
 40
0.000000
 40
0.000000
 40
0.000000
 40
0.000000
 40
0.104219
 40
0.209064
 40
0.317240
 40
0.426641
 40
0.534702
 40
0.644659
 40
0.824233
 40
0.997167
 40
1.177473
 40
1.362882
 40
1.554087
 40
1.764028
 40
1.980784
 40
2.178272
 40
2.370681
 40
2.558490
 40
2.742477
 40
2.937065
 40
3.080672
 40
3.221353
 40
3.364678
 40
3.509122
 40
3.655569
 40
3.810148
 40
3.987349
 40
4.202861
 40
4.460072
 40
4.731062
 40
4.964438
 40
5.163211
 40
5.337993
 40
5.499132
 40
5.653400
 40
5.804723
 40
5.957137
 40
6.117761
 40
6.285406
 40
6.438671
 40
6.587170
 40
6.735777
 40
6.890398
 40
7.060308
 40
7.060308
 40
7.060308
 40
7.060308
 10
134.459340
 20
307.562314
 30
0.0
 10
134.439462
 20
307.533721
 30
0.0
 10
134.399588
 20
307.476363
 30
0.0
 10
134.321544
 20
307.403887
 30
0.0
 10
134.232404
 20
307.343297
 30
0.0
 10
134.133759
 20
307.296699
 30
0.0
 10
134.027585
 20
307.268737
 30
0.0
 10
133.894984
 20
307.258321
 30
0.0
 10
133.739958
 20
307.276806
 30
0.0
 10
133.574568
 20
307.348041
 30
0.0
 10
133.434397
 20
307.463578
 30
0.0
 10
133.324210
 20
307.615854
 30
0.0
 10
133.258769
 20
307.802785
 30
0.0
 10
133.240057
 20
308.009316
 30
0.0
 10
133.259262
 20
308.218006
 30
0.0
 10
133.327795
 20
308.411066
 30
0.0
 10
133.443109
 20
308.568371
 30
0.0
 10
133.591440
 20
308.687705
 30
0.0
 10
133.768511
 20
308.760427
 30
0.0
 10
133.943422
 20
308.779907
 30
0.0
 10
134.103236
 20
308.766052
 30
0.0
 10
134.240896
 20
308.725340
 30
0.0
 10
134.367999
 20
308.658395
 30
0.0
 10
134.481809
 20
308.567300
 30
0.0
 10
134.575799
 20
308.451038
 30
0.0
 10
134.651636
 20
308.309715
 30
0.0
 10
134.704164
 20
308.133899
 30
0.0
 10
134.733314
 20
307.918672
 30
0.0
 10
134.741716
 20
307.670665
 30
0.0
 10
134.733169
 20
307.416708
 30
0.0
 10
134.703798
 20
307.183721
 30
0.0
 10
134.652417
 20
306.987218
 30
0.0
 10
134.578105
 20
306.824181
 30
0.0
 10
134.483179
 20
306.689816
 30
0.0
 10
134.367213
 20
306.584206
 30
0.0
 10
134.233530
 20
306.507943
 30
0.0
 10
134.084278
 20
306.462374
 30
0.0
 10
133.923741
 20
306.448628
 30
0.0
 10
133.762763
 20
306.462634
 30
0.0
 10
133.612610
 20
306.512260
 30
0.0
 10
133.486051
 20
306.596513
 30
0.0
 10
133.386672
 20
306.711832
 30
0.0
 10
133.316881
 20
306.855696
 30
0.0
 10
133.297846
 20
306.962597
 30
0.0
 10
133.287880
 20
307.018565
 30
0.0
 11
134.459340
 21
307.562314
 31
0.0
 11
134.396835
 21
307.478919
 31
0.0
 11
134.320792
 21
307.406740
 31
0.0
 11
134.231320
 21
307.345938
 31
0.0
 11
134.132178
 21
307.299683
 31
0.0
 11
134.027705
 21
307.272070
 31
0.0
 11
133.918130
 21
307.262908
 31
0.0
 11
133.740002
 21
307.285645
 31
0.0
 11
133.581105
 21
307.353896
 31
0.0
 11
133.441270
 21
307.467722
 31
0.0
 11
133.333232
 21
307.618401
 31
0.0
 11
133.268268
 21
307.798231
 31
0.0
 11
133.246570
 21
308.007048
 31
0.0
 11
133.269178
 21
308.222622
 31
0.0
 11
133.337035
 21
308.408086
 31
0.0
 11
133.450190
 21
308.563705
 31
0.0
 11
133.597163
 21
308.680629
 31
0.0
 11
133.767194
 21
308.750921
 31
0.0
 11
133.960360
 21
308.774393
 31
0.0
 11
134.103356
 21
308.761159
 31
0.0
 11
134.238284
 21
308.721338
 31
0.0
 11
134.365200
 21
308.654748
 31
0.0
 11
134.477618
 21
308.564048
 31
0.0
 11
134.570349
 21
308.450701
 31
0.0
 11
134.643540
 21
308.314547
 31
0.0
 11
134.696399
 21
308.145414
 31
0.0
 11
134.728147
 21
307.932254
 31
0.0
 11
134.738740
 21
307.675261
 31
0.0
 11
134.728299
 21
307.404472
 31
0.0
 11
134.696947
 21
307.173211
 31
0.0
 11
134.644640
 21
306.981444
 31
0.0
 11
134.571237
 21
306.822823
 31
0.0
 11
134.477336
 21
306.691871
 31
0.0
 11
134.363100
 21
306.588194
 31
0.0
 11
134.231622
 21
306.513280
 31
0.0
 11
134.085984
 21
306.468340
 31
0.0
 11
133.926060
 21
306.453363
 31
0.0
 11
133.759219
 21
306.469764
 31
0.0
 11
133.614111
 21
306.519097
 31
0.0
 11
133.490610
 21
306.601556
 31
0.0
 11
133.393275
 21
306.713850
 31
0.0
 11
133.325682
 21
306.852914
 31
0.0
 11
133.287880
 21
307.018565
 31
0.0
  0
LWPOLYLINE
  5
1f3
100
AcDbEntity
  8
Layer_1
 62
7
100
AcDbPolyline
 90
2
 70
0
 10
133.287880
 20
307.018565
 30
0.0
 10
133.289420
 20
307.018406
 30
0.0
  0
LWPOLYLINE
  5
1f4
100
AcDbEntity
  8
Layer_1
 62
7
100
AcDbPolyline
 90
2
 70
0
 10
134.429350
 20
308.021071
 30
0.0
 10
134.429140
 20
308.021151
 30
0.0
  0
SPLINE
  5
1f5
100
AcDbEntity
  8
Layer_1
 62
7
100
AcDbSpline
 70
0
 71
3
 72
31
 73
27
 74
25
 40
0.000000
 40
0.000000
 40
0.000000
 40
0.000000
 40
0.149547
 40
0.283287
 40
0.409554
 40
0.529013
 40
0.641788
 40
0.757457
 40
0.877905
 40
0.997018
 40
1.125123
 40
1.259751
 40
1.398574
 40
1.550413
 40
1.686603
 40
1.811684
 40
1.934162
 40
2.054482
 40
2.171314
 40
2.293887
 40
2.416188
 40
2.531365
 40
2.649330
 40
2.772350
 40
2.904183
 40
3.053014
 40
3.053014
 40
3.053014
 40
3.053014
 10
134.429140
 20
308.021151
 30
0.0
 10
134.426797
 20
308.071109
 30
0.0
 10
134.422357
 20
308.165746
 30
0.0
 10
134.379233
 20
308.297401
 30
0.0
 10
134.307540
 20
308.403324
 30
0.0
 10
134.216748
 20
308.483196
 30
0.0
 10
134.109844
 20
308.532618
 30
0.0
 10
133.992992
 20
308.547450
 30
0.0
 10
133.874004
 20
308.531707
 30
0.0
 10
133.761540
 20
308.478346
 30
0.0
 10
133.665373
 20
308.392939
 30
0.0
 10
133.588184
 20
308.281699
 30
0.0
 10
133.542504
 20
308.145708
 30
0.0
 10
133.529374
 20
308.003090
 30
0.0
 10
133.541941
 20
307.864959
 30
0.0
 10
133.585837
 20
307.742997
 30
0.0
 10
133.659283
 20
307.642940
 30
0.0
 10
133.753352
 20
307.566345
 30
0.0
 10
133.865638
 20
307.519520
 30
0.0
 10
133.986677
 20
307.506007
 30
0.0
 10
134.107234
 20
307.519323
 30
0.0
 10
134.218001
 20
307.566172
 30
0.0
 10
134.310252
 20
307.643491
 30
0.0
 10
134.380781
 20
307.747696
 30
0.0
 10
134.422804
 20
307.877591
 30
0.0
 10
134.427082
 20
307.971352
 30
0.0
 10
134.429350
 20
308.021071
 30
0.0
 11
134.429140
 21
308.021151
 31
0.0
 11
134.415034
 21
308.170031
 31
0.0
 11
134.372693
 21
308.296892
 31
0.0
 11
134.302080
 21
308.401569
 31
0.0
 11
134.211736
 21
308.479724
 31
0.0
 11
134.109194
 21
308.526665
 31
0.0
 11
133.994590
 21
308.542327
 31
0.0
 11
133.875318
 21
308.525542
 31
0.0
 11
133.767392
 21
308.475144
 31
0.0
 11
133.670740
 21
308.391065
 31
0.0
 11
133.594612
 21
308.280028
 31
0.0
 11
133.548984
 21
308.148918
 31
0.0
 11
133.533790
 21
307.997841
 31
0.0
 11
133.548240
 21
307.862420
 31
0.0
 11
133.591523
 21
307.745066
 31
0.0
 11
133.663540
 21
307.645998
 31
0.0
 11
133.757352
 21
307.570657
 31
0.0
 11
133.865128
 21
307.525559
 31
0.0
 11
133.986780
 21
307.510558
 31
0.0
 11
134.108158
 21
307.525559
 31
0.0
 11
134.214139
 21
307.570657
 31
0.0
 11
134.304910
 21
307.645998
 31
0.0
 11
134.374061
 21
307.747742
 31
0.0
 11
134.415532
 21
307.872883
 31
0.0
 11
134.429350
 21
308.021071
 31
0.0
  0
LWPOLYLINE
  5
1f6
100
AcDbEntity
  8
Layer_1
 62
7
100
AcDbPolyline
 90
4
 70
0
 10
135.029790
 20
308.469434
 30
0.0
 10
135.029790
 20
308.736134
 30
0.0
 10
136.499870
 20
308.736134
 30
0.0
 10
136.499870
 20
308.520287
 30
0.0
  0
SPLINE
  5
1f7
100
AcDbEntity
  8
Layer_1
 62
7
100
AcDbSpline
 70
0
 71
3
 72
16
 73
12
 74
10
 40
0.000000
 40
0.000000
 40
0.000000
 40
0.000000
 40
0.223589
 40
0.473683
 40
0.751659
 40
1.041168
 40
1.326163
 40
1.608287
 40
1.810544
 40
2.022170
 40
2.243907
 40
2.243907
 40
2.243907
 40
2.243907
 10
136.499870
 20
308.520287
 30
0.0
 10
136.450705
 20
308.464200
 30
0.0
 10
136.346545
 20
308.345377
 30
0.0
 10
136.204741
 20
308.138203
 30
0.0
 10
136.065260
 20
307.903997
 30
0.0
 10
135.935556
 20
307.650847
 30
0.0
 10
135.825566
 20
307.387051
 30
0.0
 10
135.744501
 20
307.143450
 30
0.0
 10
135.687703
 20
306.918337
 30
0.0
 10
135.651891
 20
306.709220
 30
0.0
 10
135.639460
 20
306.565256
 30
0.0
 10
135.633100
 20
306.491595
 30
0.0
 11
136.499870
 21
308.520287
 31
0.0
 11
136.355670
 21
308.349411
 31
0.0
 11
136.212140
 21
308.144604
 31
0.0
 11
136.069740
 21
307.905872
 31
0.0
 11
135.938334
 21
307.647903
 31
0.0
 11
135.828496
 21
307.384925
 31
0.0
 11
135.739990
 21
307.117043
 31
0.0
 11
135.690964
 21
306.920817
 31
0.0
 11
135.655319
 21
306.712215
 31
0.0
 11
135.633100
 21
306.491595
 31
0.0
  0
LWPOLYLINE
  5
1f8
100
AcDbEntity
  8
Layer_1
 62
7
100
AcDbPolyline
 90
2
 70
0
 10
135.633100
 20
306.491595
 30
0.0
 10
135.347350
 20
306.491595
 30
0.0
  0
LWPOLYLINE
  5
1f9
100
AcDbEntity
  8
Layer_1
 62
7
100
AcDbPolyline
 90
3
 70
0
 10
136.141230
 20
308.469805
 30
0.0
 10
135.030030
 20
308.469805
 30
0.0
 10
135.029790
 20
308.469434
 30
0.0
  0
SPLINE
  5
1fa
100
AcDbEntity
  8
Layer_1
 62
7
100
AcDbSpline
 70
0
 71
3
 72
16
 73
12
 74
10
 40
0.000000
 40
0.000000
 40
0.000000
 40
0.000000
 40
0.191879
 40
0.411030
 40
0.658704
 40
0.921041
 40
1.183879
 40
1.448941
 40
1.706167
 40
1.945268
 40
2.167596
 40
2.167596
 40
2.167596
 40
2.167596
 10
135.347350
 20
306.491595
 30
0.0
 10
135.350719
 20
306.555515
 30
0.0
 10
135.357935
 20
306.692442
 30
0.0
 10
135.395948
 20
306.909130
 30
0.0
 10
135.451293
 20
307.145841
 30
0.0
 10
135.526340
 20
307.392564
 30
0.0
 10
135.622759
 20
307.637987
 30
0.0
 10
135.737311
 20
307.873590
 30
0.0
 10
135.863828
 20
308.093720
 30
0.0
 10
135.995880
 20
308.294062
 30
0.0
 10
136.093968
 20
308.412661
 30
0.0
 10
136.141230
 20
308.469805
 30
0.0
 11
135.347350
 21
306.491595
 31
0.0
 11
135.361053
 21
306.682983
 31
0.0
 11
135.396174
 21
306.899302
 31
0.0
 11
135.452730
 21
307.140432
 31
0.0
 11
135.529556
 21
307.391268
 31
0.0
 11
135.625614
 21
307.635924
 31
0.0
 11
135.741180
 21
307.874466
 31
0.0
 11
135.869183
 21
308.097581
 31
0.0
 11
136.002533
 21
308.296043
 31
0.0
 11
136.141230
 21
308.469805
 31
0.0
  0
SPLINE
  5
1fb
100
AcDbEntity
  8
Layer_1
 62
7
100
AcDbSpline
 70
0
 71
3
 72
19
 73
15
 74
13
 40
0.000000
 40
0.000000
 40
0.000000
 40
0.000000
 40
0.094571
 40
0.189031
 40
0.285695
 40
0.384187
 40
0.484705
 40
0.590499
 40
0.705291
 40
0.808303
 40
0.903201
 40
0.993811
 40
1.083288
 40
1.176354
 40
1.176354
 40
1.176354
 40
1.176354
 10
137.106770
 20
307.906480
 30
0.0
 10
137.125006
 20
307.932282
 30
0.0
 10
137.161457
 20
307.983855
 30
0.0
 10
137.231800
 20
308.049001
 30
0.0
 10
137.311886
 20
308.103451
 30
0.0
 10
137.401921
 20
308.144897
 30
0.0
 10
137.501133
 20
308.169400
 30
0.0
 10
137.608298
 20
308.176849
 30
0.0
 10
137.716325
 20
308.169540
 30
0.0
 10
137.818253
 20
308.144929
 30
0.0
 10
137.905596
 20
308.102556
 30
0.0
 10
137.976868
 20
308.043879
 30
0.0
 10
138.034166
 20
307.971705
 30
0.0
 10
138.057509
 20
307.915237
 30
0.0
 10
138.069410
 20
307.886448
 30
0.0
 11
137.106770
 21
307.906480
 31
0.0
 11
137.164004
 21
307.981765
 31
0.0
 11
137.232672
 21
308.046630
 31
0.0
 11
137.312720
 21
308.100817
 31
0.0
 11
137.402327
 21
308.141699
 31
0.0
 11
137.499819
 21
308.166175
 31
0.0
 11
137.605300
 21
308.174317
 31
0.0
 11
137.719781
 21
308.165878
 31
0.0
 11
137.819653
 21
308.140636
 31
0.0
 11
137.904780
 21
308.098697
 31
0.0
 11
137.974909
 21
308.041319
 31
0.0
 11
138.029821
 21
307.970675
 31
0.0
 11
138.069410
 21
307.886448
 31
0.0
  0
LWPOLYLINE
  5
1fc
100
AcDbEntity
  8
Layer_1
 62
7
100
AcDbPolyline
 90
4
 70
0
 10
136.855900
 20
306.491462
 30
0.0
 10
136.855900
 20
308.139287
 30
0.0
 10
137.106770
 20
308.139287
 30
0.0
 10
137.106770
 20
307.906480
 30
0.0
  0
SPLINE
  5
1fd
100
AcDbEntity
  8
Layer_1
 62
7
100
AcDbSpline
 70
0
 71
3
 72
16
 73
12
 74
10
 40
0.000000
 40
0.000000
 40
0.000000
 40
0.000000
 40
0.215352
 40
0.410716
 40
0.609688
 40
0.761898
 40
0.895913
 40
1.021637
 40
1.151350
 40
1.297417
 40
1.469705
 40
1.469705
 40
1.469705
 40
1.469705
 10
138.069410
 20
307.886448
 30
0.0
 10
138.114013
 20
307.943390
 30
0.0
 10
138.199080
 20
308.051989
 30
0.0
 10
138.381319
 20
308.154579
 30
0.0
 10
138.564625
 20
308.180925
 30
0.0
 10
138.726714
 20
308.166163
 30
0.0
 10
138.858409
 20
308.121588
 30
0.0
 10
138.964693
 20
308.042933
 30
0.0
 10
139.040887
 20
307.930111
 30
0.0
 10
139.084638
 20
307.785122
 30
0.0
 10
139.088896
 20
307.678798
 30
0.0
 10
139.091200
 20
307.621257
 30
0.0
 11
138.069410
 21
307.886448
 31
0.0
 11
138.213584
 21
308.046418
 31
0.0
 11
138.383772
 21
308.142351
 31
0.0
 11
138.580160
 21
308.174315
 31
0.0
 11
138.731629
 21
308.159313
 31
0.0
 11
138.857824
 21
308.114208
 31
0.0
 11
138.958460
 21
308.038848
 31
0.0
 11
139.032163
 21
307.932108
 31
0.0
 11
139.076430
 21
307.792910
 31
0.0
 11
139.091200
 21
307.621257
 31
0.0
  0
LWPOLYLINE
  5
1fe
100
AcDbEntity
  8
Layer_1
 62
7
100
AcDbPolyline
 90
4
 70
0
 10
139.091200
 20
307.621257
 30
0.0
 10
139.091200
 20
306.491592
 30
0.0
 10
138.811750
 20
306.491592
 30
0.0
 10
138.811750
 20
307.528705
 30
0.0
  0
SPLINE
  5
1ff
100
AcDbEntity
  8
Layer_1
 62
7
100
AcDbSpline
 70
0
 71
3
 72
22
 73
18
 74
16
 40
0.000000
 40
0.000000
 40
0.000000
 40
0.000000
 40
0.100917
 40
0.181790
 40
0.243234
 40
0.294527
 40
0.345902
 40
0.400173
 40
0.456491
 40
0.514414
 40
0.576078
 40
0.686575
 40
0.790418
 40
0.895385
 40
1.007946
 40
1.137067
 40
1.291588
 40
1.291588
 40
1.291588
 40
1.291588
 10
138.811750
 20
307.528705
 30
0.0
 10
138.811265
 20
307.562364
 30
0.0
 10
138.810392
 20
307.622996
 30
0.0
 10
138.801483
 20
307.703640
 30
0.0
 10
138.787717
 20
307.767081
 30
0.0
 10
138.763086
 20
307.816554
 30
0.0
 10
138.729144
 20
307.856964
 30
0.0
 10
138.685870
 20
307.889847
 30
0.0
 10
138.635363
 20
307.915230
 30
0.0
 10
138.578191
 20
307.930087
 30
0.0
 10
138.501448
 20
307.935411
 30
0.0
 10
138.408938
 20
307.925362
 30
0.0
 10
138.308911
 20
307.885533
 30
0.0
 10
138.222321
 20
307.819836
 30
0.0
 10
138.156180
 20
307.722553
 30
0.0
 10
138.119017
 20
307.593831
 30
0.0
 10
138.115407
 20
307.499145
 30
0.0
 10
138.113440
 20
307.447562
 30
0.0
 11
138.811750
 21
307.528705
 31
0.0
 11
138.808513
 21
307.629570
 31
0.0
 11
138.799187
 21
307.709904
 31
0.0
 11
138.784350
 21
307.769529
 31
0.0
 11
138.761402
 21
307.815403
 31
0.0
 11
138.728498
 21
307.854858
 31
0.0
 11
138.685550
 21
307.888036
 31
0.0
 11
138.635142
 21
307.913151
 31
0.0
 11
138.579168
 21
307.928051
 31
0.0
 11
138.517700
 21
307.932966
 31
0.0
 11
138.407957
 21
307.920088
 31
0.0
 11
138.311527
 21
307.881558
 31
0.0
 11
138.228350
 21
307.817528
 31
0.0
 11
138.164425
 21
307.724880
 31
0.0
 11
138.126165
 21
307.601558
 31
0.0
 11
138.113440
 21
307.447562
 31
0.0
  0
LWPOLYLINE
  5
200
100
AcDbEntity
  8
Layer_1
 62
7
100
AcDbPolyline
 90
4
 70
0
 10
138.113440
 20
307.447562
 30
0.0
 10
138.113440
 20
306.491463
 30
0.0
 10
137.833990
 20
306.491463
 30
0.0
 10
137.833990
 20
307.560962
 30
0.0
  0
LWPOLYLINE
  5
201
100
AcDbEntity
  8
Layer_1
 62
7
100
AcDbPolyline
 90
4
 70
0
 10
137.135350
 20
307.345481
 30
0.0
 10
137.135350
 20
306.491459
 30
0.0
 10
136.855900
 20
306.491459
 30
0.0
 10
136.855900
 20
306.491462
 30
0.0
  0
SPLINE
  5
202
100
AcDbEntity
  8
Layer_1
 62
7
100
AcDbSpline
 70
0
 71
3
 72
22
 73
18
 74
16
 40
0.000000
 40
0.000000
 40
0.000000
 40
0.000000
 40
0.113831
 40
0.209594
 40
0.291305
 40
0.366891
 40
0.447566
 40
0.541816
 40
0.618512
 40
0.693922
 40
0.770724
 40
0.847781
 40
0.925166
 40
1.007037
 40
1.101535
 40
1.217207
 40
1.355372
 40
1.355372
 40
1.355372
 40
1.355372
 10
137.833990
 20
307.560962
 30
0.0
 10
137.832818
 20
307.598963
 30
0.0
 10
137.830660
 20
307.668933
 30
0.0
 10
137.808417
 20
307.764175
 30
0.0
 10
137.770708
 20
307.840933
 30
0.0
 10
137.711669
 20
307.896829
 30
0.0
 10
137.632354
 20
307.927758
 30
0.0
 10
137.548123
 20
307.935516
 30
0.0
 10
137.465909
 20
307.928694
 30
0.0
 10
137.392072
 20
307.907566
 30
0.0
 10
137.323364
 20
307.873178
 30
0.0
 10
137.261903
 20
307.825583
 30
0.0
 10
137.212617
 20
307.763210
 30
0.0
 10
137.175444
 20
307.686536
 30
0.0
 10
137.151535
 20
307.591697
 30
0.0
 10
137.137531
 20
307.476201
 30
0.0
 10
137.136119
 20
307.391555
 30
0.0
 10
137.135350
 20
307.345481
 30
0.0
 11
137.833990
 21
307.560962
 31
0.0
 11
137.826390
 21
307.674539
 31
0.0
 11
137.803590
 21
307.767549
 31
0.0
 11
137.765590
 21
307.839886
 31
0.0
 11
137.710427
 21
307.891560
 31
0.0
 11
137.635977
 21
307.922636
 31
0.0
 11
137.542300
 21
307.933016
 31
0.0
 11
137.465911
 21
307.926160
 31
0.0
 11
137.393376
 21
307.905539
 31
0.0
 11
137.324740
 21
307.871076
 31
0.0
 11
137.264190
 21
307.823416
 31
0.0
 11
137.215887
 21
307.762957
 31
0.0
 11
137.179750
 21
307.689493
 31
0.0
 11
137.155039
 21
307.598283
 31
0.0
 11
137.140261
 21
307.483559
 31
0.0
 11
137.135350
 21
307.345481
 31
0.0
  0
SPLINE
  5
203
100
AcDbEntity
  8
Layer_1
 62
7
100
AcDbSpline
 70
0
 71
3
 72
19
 73
15
 74
13
 40
0.000000
 40
0.000000
 40
0.000000
 40
0.000000
 40
0.094571
 40
0.189033
 40
0.285703
 40
0.384199
 40
0.484718
 40
0.590497
 40
0.705290
 40
0.808305
 40
0.903198
 40
0.993811
 40
1.083289
 40
1.176353
 40
1.176353
 40
1.176353
 40
1.176353
 10
139.751490
 20
307.906480
 30
0.0
 10
139.769726
 20
307.932282
 30
0.0
 10
139.806178
 20
307.983855
 30
0.0
 10
139.876524
 20
308.049002
 30
0.0
 10
139.956616
 20
308.103450
 30
0.0
 10
140.046654
 20
308.144897
 30
0.0
 10
140.145863
 20
308.169398
 30
0.0
 10
140.253024
 20
308.176849
 30
0.0
 10
140.361047
 20
308.169539
 30
0.0
 10
140.462976
 20
308.144931
 30
0.0
 10
140.550317
 20
308.102554
 30
0.0
 10
140.621589
 20
308.043879
 30
0.0
 10
140.678891
 20
307.971706
 30
0.0
 10
140.702231
 20
307.915237
 30
0.0
 10
140.714130
 20
307.886448
 30
0.0
 11
139.751490
 21
307.906480
 31
0.0
 11
139.808725
 21
307.981765
 31
0.0
 11
139.877395
 21
308.046630
 31
0.0
 11
139.957450
 21
308.100817
 31
0.0
 11
140.047061
 21
308.141699
 31
0.0
 11
140.144555
 21
308.166175
 31
0.0
 11
140.250020
 21
308.174317
 31
0.0
 11
140.364503
 21
308.165878
 31
0.0
 11
140.464377
 21
308.140636
 31
0.0
 11
140.549500
 21
308.098697
 31
0.0
 11
140.619631
 21
308.041319
 31
0.0
 11
140.674546
 21
307.970675
 31
0.0
 11
140.714130
 21
307.886448
 31
0.0
  0
LWPOLYLINE
  5
204
100
AcDbEntity
  8
Layer_1
 62
7
100
AcDbPolyline
 90
4
 70
0
 10
139.500620
 20
306.491462
 30
0.0
 10
139.500620
 20
308.139287
 30
0.0
 10
139.751490
 20
308.139287
 30
0.0
 10
139.751490
 20
307.906480
 30
0.0
  0
SPLINE
  5
205
100
AcDbEntity
  8
Layer_1
 62
7
100
AcDbSpline
 70
0
 71
3
 72
16
 73
12
 74
10
 40
0.000000
 40
0.000000
 40
0.000000
 40
0.000000
 40
0.215361
 40
0.410719
 40
0.609685
 40
0.761899
 40
0.895911
 40
1.021634
 40
1.151347
 40
1.297415
 40
1.469702
 40
1.469702
 40
1.469702
 40
1.469702
 10
140.714130
 20
307.886448
 30
0.0
 10
140.758739
 20
307.943389
 30
0.0
 10
140.843812
 20
308.051983
 30
0.0
 10
141.026045
 20
308.154580
 30
0.0
 10
141.209349
 20
308.180925
 30
0.0
 10
141.371437
 20
308.166163
 30
0.0
 10
141.503131
 20
308.121588
 30
0.0
 10
141.609413
 20
308.042932
 30
0.0
 10
141.685607
 20
307.930111
 30
0.0
 10
141.729358
 20
307.785122
 30
0.0
 10
141.733616
 20
307.678798
 30
0.0
 10
141.735920
 20
307.621257
 30
0.0
 11
140.714130
 21
307.886448
 31
0.0
 11
140.858318
 21
308.046418
 31
0.0
 11
141.028499
 21
308.142351
 31
0.0
 11
141.224880
 21
308.174315
 31
0.0
 11
141.376353
 21
308.159313
 31
0.0
 11
141.502547
 21
308.114208
 31
0.0
 11
141.603180
 21
308.038848
 31
0.0
 11
141.676883
 21
307.932108
 31
0.0
 11
141.721150
 21
307.792910
 31
0.0
 11
141.735920
 21
307.621257
 31
0.0
  0
LWPOLYLINE
  5
206
100
AcDbEntity
  8
Layer_1
 62
7
100
AcDbPolyline
 90
4
 70
0
 10
141.735920
 20
307.621257
 30
0.0
 10
141.735920
 20
306.491592
 30
0.0
 10
141.456470
 20
306.491592
 30
0.0
 10
141.456470
 20
307.528705
 30
0.0
  0
SPLINE
  5
207
100
AcDbEntity
  8
Layer_1
 62
7
100
AcDbSpline
 70
0
 71
3
 72
22
 73
18
 74
16
 40
0.000000
 40
0.000000
 40
0.000000
 40
0.000000
 40
0.100917
 40
0.181790
 40
0.243234
 40
0.294537
 40
0.345926
 40
0.400162
 40
0.456480
 40
0.514403
 40
0.576067
 40
0.686559
 40
0.790404
 40
0.895373
 40
1.007933
 40
1.137052
 40
1.291573
 40
1.291573
 40
1.291573
 40
1.291573
 10
141.456470
 20
307.528705
 30
0.0
 10
141.455986
 20
307.562364
 30
0.0
 10
141.455113
 20
307.622996
 30
0.0
 10
141.446201
 20
307.703639
 30
0.0
 10
141.432442
 20
307.767086
 30
0.0
 10
141.407783
 20
307.816558
 30
0.0
 10
141.373822
 20
307.856942
 30
0.0
 10
141.330587
 20
307.889862
 30
0.0
 10
141.280081
 20
307.915227
 30
0.0
 10
141.222912
 20
307.930088
 30
0.0
 10
141.146170
 20
307.935411
 30
0.0
 10
141.053661
 20
307.925361
 30
0.0
 10
140.953634
 20
307.885533
 30
0.0
 10
140.867041
 20
307.819837
 30
0.0
 10
140.800903
 20
307.722553
 30
0.0
 10
140.763745
 20
307.593831
 30
0.0
 10
140.760136
 20
307.499145
 30
0.0
 10
140.758170
 20
307.447562
 30
0.0
 11
141.456470
 21
307.528705
 31
0.0
 11
141.453233
 21
307.629570
 31
0.0
 11
141.443907
 21
307.709904
 31
0.0
 11
141.429070
 21
307.769529
 31
0.0
 11
141.406100
 21
307.815403
 31
0.0
 11
141.373174
 21
307.854858
 31
0.0
 11
141.330270
 21
307.888036
 31
0.0
 11
141.279862
 21
307.913151
 31
0.0
 11
141.223888
 21
307.928051
 31
0.0
 11
141.162420
 21
307.932966
 31
0.0
 11
141.052681
 21
307.920088
 31
0.0
 11
140.956249
 21
307.881558
 31
0.0
 11
140.873070
 21
307.817528
 31
0.0
 11
140.809148
 21
307.724880
 31
0.0
 11
140.770892
 21
307.601558
 31
0.0
 11
140.758170
 21
307.447562
 31
0.0
  0
LWPOLYLINE
  5
208
100
AcDbEntity
  8
Layer_1
 62
7
100
AcDbPolyline
 90
4
 70
0
 10
140.758170
 20
307.447562
 30
0.0
 10
140.758170
 20
306.491463
 30
0.0
 10
140.478710
 20
306.491463
 30
0.0
 10
140.478710
 20
307.560962
 30
0.0
  0
LWPOLYLINE
  5
209
100
AcDbEntity
  8
Layer_1
 62
7
100
AcDbPolyline
 90
4
 70
0
 10
139.780090
 20
307.345481
 30
0.0
 10
139.780090
 20
306.491459
 30
0.0
 10
139.500660
 20
306.491459
 30
0.0
 10
139.500620
 20
306.491462
 30
0.0
  0
LWPOLYLINE
  5
20a
100
AcDbEntity
  8
Layer_1
 62
1
100
AcDbPolyline
 90
2
 70
0
 10
-45.566241
 20
185.181619
 30
0.0
 10
-45.566241
 20
180.418881
 30
0.0
  0
LWPOLYLINE
  5
20b
100
AcDbEntity
  8
Layer_1
 62
1
100
AcDbPolyline
 90
2
 70
0
 10
-45.566241
 20
185.181619
 30
0.0
 10
-43.728525
 20
180.418881
 30
0.0
  0
LWPOLYLINE
  5
20c
100
AcDbEntity
  8
Layer_1
 62
1
100
AcDbPolyline
 90
2
 70
0
 10
-41.890729
 20
185.181619
 30
0.0
 10
-43.728525
 20
180.418881
 30
0.0
  0
LWPOLYLINE
  5
20d
100
AcDbEntity
  8
Layer_1
 62
1
100
AcDbPolyline
 90
2
 70
0
 10
-41.890729
 20
185.181619
 30
0.0
 10
-41.890729
 20
180.418881
 30
0.0
  0
LWPOLYLINE
  5
20e
100
AcDbEntity
  8
Layer_1
 62
1
100
AcDbPolyline
 90
2
 70
0
 10
-39.809834
 20
182.462153
 30
0.0
 10
-37.768441
 20
182.462153
 30
0.0
  0
LWPOLYLINE
  5
20f
100
AcDbEntity
  8
Layer_1
 62
1
100
AcDbPolyline
 90
4
 70
0
 10
-36.288336
 20
184.275130
 30
0.0
 10
-35.836242
 20
184.498148
 30
0.0
 10
-35.143404
 20
185.181619
 30
0.0
 10
-35.143404
 20
180.418881
 30
0.0
  0
SPLINE
  5
210
100
AcDbEntity
  8
Layer_1
 62
7
100
AcDbSpline
 70
0
 71
3
 72
22
 73
18
 74
16
 40
0.000000
 40
0.000000
 40
0.000000
 40
0.000000
 40
0.113831
 40
0.209594
 40
0.291305
 40
0.366891
 40
0.447564
 40
0.541807
 40
0.618505
 40
0.693920
 40
0.770724
 40
0.847780
 40
0.925162
 40
1.007027
 40
1.101525
 40
1.217197
 40
1.355362
 40
1.355362
 40
1.355362
 40
1.355362
 10
140.478710
 20
307.560962
 30
0.0
 10
140.477538
 20
307.598963
 30
0.0
 10
140.475380
 20
307.668933
 30
0.0
 10
140.453137
 20
307.764175
 30
0.0
 10
140.415428
 20
307.840933
 30
0.0
 10
140.356390
 20
307.896828
 30
0.0
 10
140.277078
 20
307.927758
 30
0.0
 10
140.192849
 20
307.935516
 30
0.0
 10
140.110636
 20
307.928694
 30
0.0
 10
140.036795
 20
307.907566
 30
0.0
 10
139.968085
 20
307.873179
 30
0.0
 10
139.906624
 20
307.825583
 30
0.0
 10
139.857341
 20
307.763212
 30
0.0
 10
139.820188
 20
307.686532
 30
0.0
 10
139.796274
 20
307.591697
 30
0.0
 10
139.782271
 20
307.476201
 30
0.0
 10
139.780859
 20
307.391555
 30
0.0
 10
139.780090
 20
307.345481
 30
0.0
 11
140.478710
 21
307.560962
 31
0.0
 11
140.471110
 21
307.674539
 31
0.0
 11
140.448310
 21
307.767549
 31
0.0
 11
140.410310
 21
307.839886
 31
0.0
 11
140.355147
 21
307.891560
 31
0.0
 11
140.280700
 21
307.922636
 31
0.0
 11
140.187030
 21
307.933016
 31
0.0
 11
140.110639
 21
307.926160
 31
0.0
 11
140.038098
 21
307.905539
 31
0.0
 11
139.969460
 21
307.871076
 31
0.0
 11
139.908911
 21
307.823416
 31
0.0
 11
139.860613
 21
307.762957
 31
0.0
 11
139.824490
 21
307.689493
 31
0.0
 11
139.799779
 21
307.598283
 31
0.0
 11
139.785001
 21
307.483559
 31
0.0
 11
139.780090
 21
307.345481
 31
0.0
  0
LWPOLYLINE
  5
211
100
AcDbEntity
  8
Layer_1
 62
1
100
AcDbPolyline
 90
23
 70
0
 10
-30.194347
 20
183.651640
 30
0.0
 10
-30.420433
 20
182.968142
 30
0.0
 10
-30.879882
 20
182.522107
 30
0.0
 10
-31.565391
 20
182.291893
 30
0.0
 10
-31.798753
 20
182.291893
 30
0.0
 10
-32.484236
 20
182.522107
 30
0.0
 10
-32.951014
 20
182.968142
 30
0.0
 10
-33.177100
 20
183.651640
 30
0.0
 10
-33.177100
 20
183.874631
 30
0.0
 10
-32.951014
 20
184.558129
 30
0.0
 10
-32.484236
 20
185.011360
 30
0.0
 10
-31.798753
 20
185.241574
 30
0.0
 10
-31.565391
 20
185.241574
 30
0.0
 10
-30.879882
 20
185.011360
 30
0.0
 10
-30.420433
 20
184.558129
 30
0.0
 10
-30.194347
 20
183.651640
 30
0.0
 10
-30.194347
 20
182.522107
 30
0.0
 10
-30.420433
 20
181.385404
 30
0.0
 10
-30.879882
 20
180.705478
 30
0.0
 10
-31.565391
 20
180.478836
 30
0.0
 10
-32.032142
 20
180.478836
 30
0.0
 10
-32.717625
 20
180.705478
 30
0.0
 10
-32.951014
 20
181.158762
 30
0.0
  0
ENDSEC
  0
SECTION
  2
OBJECTS
  0
DICTIONARY
  5
C
330
0
100
AcDbDictionary
  3
ACAD_GROUP
350
D
  3
ACAD_MLINESTYLE
350
17
  0
DICTIONARY
  5
D
330
C
100
AcDbDictionary
  0
DICTIONARY
  5
1A
330
C
100
AcDbDictionary
  0
DICTIONARY
  5
17
330
C
100
AcDbDictionary
  3
STANDARD
350
18
  0
DICTIONARY
  5
19
330
C
100
AcDbDictionary
  0
ENDSEC
  0
EOF
