<?xml version="1.0" encoding="UTF-8" standalone="no"?>
<!-- Created with Inkscape (http://www.inkscape.org/) -->

<svg
   xmlns:dc="http://purl.org/dc/elements/1.1/"
   xmlns:cc="http://creativecommons.org/ns#"
   xmlns:rdf="http://www.w3.org/1999/02/22-rdf-syntax-ns#"
   xmlns:svg="http://www.w3.org/2000/svg"
   xmlns="http://www.w3.org/2000/svg"
   xmlns:sodipodi="http://sodipodi.sourceforge.net/DTD/sodipodi-0.dtd"
   xmlns:inkscape="http://www.inkscape.org/namespaces/inkscape"
   width="297mm"
   height="233.63911mm"
   viewBox="0 0 297 233.63911"
   version="1.1"
   id="svg8"
   inkscape:version="0.92.4 (unknown)"
   sodipodi:docname="sunbaordshiledv6_shield.svg">
  <defs
     id="defs2" />
  <sodipodi:namedview
     id="base"
     pagecolor="#ffffff"
     bordercolor="#666666"
     borderopacity="1.0"
     inkscape:pageopacity="0.0"
     inkscape:pageshadow="2"
     inkscape:zoom="0.35"
     inkscape:cx="-19.476357"
     inkscape:cy="-242.51627"
     inkscape:document-units="mm"
     inkscape:current-layer="layer1"
     showgrid="false"
     inkscape:window-width="1920"
     inkscape:window-height="993"
     inkscape:window-x="0"
     inkscape:window-y="46"
     inkscape:window-maximized="1"
     fit-margin-top="0"
     fit-margin-left="0"
     fit-margin-right="0"
     fit-margin-bottom="0" />
  <metadata
     id="metadata5">
    <rdf:RDF>
      <cc:Work
         rdf:about="">
        <dc:format>image/svg+xml</dc:format>
        <dc:type
           rdf:resource="http://purl.org/dc/dcmitype/StillImage" />
        <dc:title></dc:title>
      </cc:Work>
    </rdf:RDF>
  </metadata>
  <g
     inkscape:label="Layer 1"
     inkscape:groupmode="layer"
     id="layer1"
     transform="translate(-30.133113,73.468613)">
    <path
       d="m 234.70398,-35.190309 h 7.69305"
       style="fill:none;stroke:#373435;stroke-width:0.24969774;stroke-linecap:butt;stroke-linejoin:bevel;stroke-dasharray:none"
       id="path10"
       inkscape:connector-curvature="0" />
    <path
       d="m 242.39703,-35.190309 v -4.695755"
       style="fill:none;stroke:#373435;stroke-width:0.24969774;stroke-linecap:butt;stroke-linejoin:bevel;stroke-dasharray:none"
       id="path12"
       inkscape:connector-curvature="0" />
    <path
       d="m 242.39703,-39.886064 h -7.69305"
       style="fill:none;stroke:#373435;stroke-width:0.24969774;stroke-linecap:butt;stroke-linejoin:bevel;stroke-dasharray:none"
       id="path14"
       inkscape:connector-curvature="0" />
    <path
       d="m 234.70398,-39.886064 v 4.695755"
       style="fill:none;stroke:#373435;stroke-width:0.24969774;stroke-linecap:butt;stroke-linejoin:bevel;stroke-dasharray:none"
       id="path16"
       inkscape:connector-curvature="0" />
    <path
       d="m 194.80906,-35.190309 h 7.59301"
       style="fill:none;stroke:#373435;stroke-width:0.24969774;stroke-linecap:butt;stroke-linejoin:bevel;stroke-dasharray:none"
       id="path18"
       inkscape:connector-curvature="0" />
    <path
       d="m 202.40207,-35.190309 v -4.695755"
       style="fill:none;stroke:#373435;stroke-width:0.24969774;stroke-linecap:butt;stroke-linejoin:bevel;stroke-dasharray:none"
       id="path20"
       inkscape:connector-curvature="0" />
    <path
       d="m 202.40207,-39.886064 h -7.59301"
       style="fill:none;stroke:#373435;stroke-width:0.24969774;stroke-linecap:butt;stroke-linejoin:bevel;stroke-dasharray:none"
       id="path22"
       inkscape:connector-curvature="0" />
    <path
       d="m 194.80906,-39.886064 v 4.695755"
       style="fill:none;stroke:#373435;stroke-width:0.24969774;stroke-linecap:butt;stroke-linejoin:bevel;stroke-dasharray:none"
       id="path24"
       inkscape:connector-curvature="0" />
    <path
       d="m 154.8141,-35.190026 h 7.69301"
       style="fill:none;stroke:#373435;stroke-width:0.24969774;stroke-linecap:butt;stroke-linejoin:bevel;stroke-dasharray:none"
       id="path26"
       inkscape:connector-curvature="0" />
    <path
       d="m 162.50711,-35.190026 v -4.695861"
       style="fill:none;stroke:#373435;stroke-width:0.24969774;stroke-linecap:butt;stroke-linejoin:bevel;stroke-dasharray:none"
       id="path28"
       inkscape:connector-curvature="0" />
    <path
       d="M 162.50711,-39.885887 H 154.8141"
       style="fill:none;stroke:#373435;stroke-width:0.24969774;stroke-linecap:butt;stroke-linejoin:bevel;stroke-dasharray:none"
       id="path30"
       inkscape:connector-curvature="0" />
    <path
       d="m 154.8141,-39.885887 v 4.695861"
       style="fill:none;stroke:#373435;stroke-width:0.24969774;stroke-linecap:butt;stroke-linejoin:bevel;stroke-dasharray:none"
       id="path32"
       inkscape:connector-curvature="0" />
    <path
       d="m 114.91903,-35.190309 h 7.59333"
       style="fill:none;stroke:#373435;stroke-width:0.24969774;stroke-linecap:butt;stroke-linejoin:bevel;stroke-dasharray:none"
       id="path34"
       inkscape:connector-curvature="0" />
    <path
       d="m 122.51236,-35.190309 v -4.695755"
       style="fill:none;stroke:#373435;stroke-width:0.24969774;stroke-linecap:butt;stroke-linejoin:bevel;stroke-dasharray:none"
       id="path36"
       inkscape:connector-curvature="0" />
    <path
       d="m 122.51236,-39.886064 h -7.59333"
       style="fill:none;stroke:#373435;stroke-width:0.24969774;stroke-linecap:butt;stroke-linejoin:bevel;stroke-dasharray:none"
       id="path38"
       inkscape:connector-curvature="0" />
    <path
       d="m 114.91903,-39.886064 v 4.695755"
       style="fill:none;stroke:#373435;stroke-width:0.24969774;stroke-linecap:butt;stroke-linejoin:bevel;stroke-dasharray:none"
       id="path40"
       inkscape:connector-curvature="0" />
    <path
       d="M 30.257962,160.04566 H 327.00826"
       style="fill:none;stroke:#373435;stroke-width:0.24969774;stroke-linecap:butt;stroke-linejoin:bevel;stroke-dasharray:none"
       id="path42"
       inkscape:connector-curvature="0" />
    <path
       d="M 30.257962,-49.777958 V 160.04566"
       style="fill:none;stroke:#373435;stroke-width:0.24969774;stroke-linecap:butt;stroke-linejoin:bevel;stroke-dasharray:none"
       id="path44"
       inkscape:connector-curvature="0" />
    <path
       d="M 327.00826,-49.777958 H 30.257962"
       style="fill:none;stroke:#373435;stroke-width:0.24969774;stroke-linecap:butt;stroke-linejoin:bevel;stroke-dasharray:none"
       id="path46"
       inkscape:connector-curvature="0" />
    <path
       d="M 327.00826,160.04566 V -49.777958"
       style="fill:none;stroke:#373435;stroke-width:0.24969774;stroke-linecap:butt;stroke-linejoin:bevel;stroke-dasharray:none"
       id="path48"
       inkscape:connector-curvature="0" />
    <path
       d="m 324.23878,-46.704391 a 0.49971273,0.49971273 0 0 1 -0.49971,0.499748 0.49971273,0.49971273 0 1 1 0.49971,-0.499748 z"
       style="fill:none;stroke:#373435;stroke-width:0.17613491;stroke-linecap:butt;stroke-linejoin:miter;stroke-dasharray:none"
       id="path50"
       inkscape:connector-curvature="0" />
    <path
       d="m 275.9208,-46.727726 v 3.271344 m 0,-3.271344 1.24524,3.271344 m 1.24535,-3.271344 -1.24524,3.271344 m 1.24524,-3.271344 v 3.271344"
       style="fill:none;stroke:#ff0000;stroke-width:0.50425977;stroke-linecap:round;stroke-linejoin:round;stroke-dasharray:none"
       id="path52"
       inkscape:connector-curvature="0" />
    <path
       d="m 280.43742,-46.727726 -1.24528,3.271344 m 1.24528,-3.271344 1.24525,3.271344 m -2.026,-1.087087 h 1.56146"
       style="fill:none;stroke:#ff0000;stroke-width:0.50425977;stroke-linecap:round;stroke-linejoin:round;stroke-dasharray:none"
       id="path54"
       inkscape:connector-curvature="0" />
    <path
       d="m 282.45851,-46.727726 v 3.271344 m 2.18415,-3.271344 -2.18415,2.184186 m 0.78085,-0.780746 1.40341,1.867904"
       style="fill:none;stroke:#ff0000;stroke-width:0.50425977;stroke-linecap:round;stroke-linejoin:round;stroke-dasharray:none"
       id="path56"
       inkscape:connector-curvature="0" />
    <path
       d="m 285.72985,-46.727726 v 3.271344 m 0,-3.271344 h 2.02599 m -2.02599,1.561598 h 1.24525 m -1.24525,1.709746 h 2.02599"
       style="fill:none;stroke:#ff0000;stroke-width:0.50425977;stroke-linecap:round;stroke-linejoin:round;stroke-dasharray:none"
       id="path58"
       inkscape:connector-curvature="0" />
    <path
       d="m 288.68489,-46.727726 v 3.271344 m 0,-3.271344 h 1.4034 l 0.46449,0.158194 0.1582,0.158159 0.15816,0.306341 v 0.316211 l -0.15816,0.306341 -0.1582,0.158194 -0.46449,0.158158 h -1.4034 m 1.09205,0 1.0921,1.709746"
       style="fill:none;stroke:#ff0000;stroke-width:0.50425977;stroke-linecap:round;stroke-linejoin:round;stroke-dasharray:none"
       id="path60"
       inkscape:connector-curvature="0" />
    <path
       d="m 292.11439,-46.411373 -0.15816,-0.158159 0.15816,-0.158194 0.15816,0.158194 v 0.311312 l -0.15816,0.311346 -0.15816,0.158159"
       style="fill:none;stroke:#ff0000;stroke-width:0.50425977;stroke-linecap:round;stroke-linejoin:round;stroke-dasharray:none"
       id="path62"
       inkscape:connector-curvature="0" />
    <path
       d="m 295.53892,-46.25822 -0.31135,-0.311312 -0.46941,-0.158194 h -0.62268 l -0.46451,0.158194 -0.31134,0.311312 v 0.311346 l 0.15318,0.311347 0.15816,0.153153 0.31135,0.158194 0.9339,0.311311 0.31135,0.153189 0.15315,0.158158 0.1582,0.311347 v 0.467002 l -0.31135,0.311347 -0.46941,0.155656 -0.62268,-2.12e-4 -0.46451,-0.155656 -0.31134,-0.311346"
       style="fill:none;stroke:#ff0000;stroke-width:0.50425977;stroke-linecap:round;stroke-linejoin:round;stroke-dasharray:none"
       id="path64"
       inkscape:connector-curvature="0" />
    <path
       d="m 299.27466,-46.727726 -1.24525,3.271344 m 1.24525,-3.271344 1.24524,3.271344 m -2.026,-1.087087 h 1.56161"
       style="fill:none;stroke:#ff0000;stroke-width:0.50425977;stroke-linecap:round;stroke-linejoin:round;stroke-dasharray:none"
       id="path66"
       inkscape:connector-curvature="0" />
    <path
       d="m 303.32184,-46.25822 -0.31131,-0.311312 -0.46943,-0.158194 h -0.62266 l -0.46449,0.158194 -0.31136,0.311312 v 0.311346 l 0.15316,0.311347 0.1582,0.153153 0.31131,0.158194 0.93393,0.311311 0.31134,0.153189 0.15315,0.158158 0.15816,0.311347 v 0.467002 l -0.31131,0.311347 -0.46943,0.155656 -0.62266,-2.12e-4 -0.46449,-0.155656 -0.31136,-0.311346"
       style="fill:none;stroke:#ff0000;stroke-width:0.50425977;stroke-linecap:round;stroke-linejoin:round;stroke-dasharray:none"
       id="path68"
       inkscape:connector-curvature="0" />
    <path
       d="m 303.94453,-46.727726 1.24525,1.561598 v 1.709746 m 1.24524,-3.271344 -1.24524,1.561598"
       style="fill:none;stroke:#ff0000;stroke-width:0.50425977;stroke-linecap:round;stroke-linejoin:round;stroke-dasharray:none"
       id="path70"
       inkscape:connector-curvature="0" />
    <path
       d="m 307.21088,-46.727726 v 3.271344 h 1.86793"
       style="fill:none;stroke:#ff0000;stroke-width:0.50425977;stroke-linecap:round;stroke-linejoin:round;stroke-dasharray:none"
       id="path72"
       inkscape:connector-curvature="0" />
    <path
       d="m 309.85956,-46.727726 v 2.337339 l 0.15816,0.467003 0.31135,0.311346 0.46939,0.155656 h 0.30634 l 0.46941,-0.155656 0.31135,-0.311346 0.15815,-0.467003 v -2.337339"
       style="fill:none;stroke:#ff0000;stroke-width:0.50425977;stroke-linecap:round;stroke-linejoin:round;stroke-dasharray:none"
       id="path74"
       inkscape:connector-curvature="0" />
    <path
       d="m 313.28406,-46.727726 v 3.271344 m 0,-3.271344 1.24527,3.271344 m 1.24525,-3.271344 -1.24525,3.271344 m 1.24525,-3.271344 v 3.271344"
       style="fill:none;stroke:#ff0000;stroke-width:0.50425977;stroke-linecap:round;stroke-linejoin:round;stroke-dasharray:none"
       id="path76"
       inkscape:connector-curvature="0" />
    <path
       d="m 56.884751,-35.090097 v -4.796072 h 7.425053 v 4.796072 z"
       style="fill:none;stroke:#373435;stroke-width:0.17613491;stroke-linecap:butt;stroke-linejoin:miter;stroke-dasharray:none"
       id="path360"
       inkscape:connector-curvature="0" />
    <path
       d="m 36.912456,-35.090097 v -4.796072 h 7.411378 v 4.796072 z"
       style="fill:none;stroke:#373435;stroke-width:0.17613491;stroke-linecap:butt;stroke-linejoin:miter;stroke-dasharray:none"
       id="path362"
       inkscape:connector-curvature="0" />
    <path
       d="m 312.76022,-35.090097 v -4.796072 h 7.59355 v 4.796072 z"
       style="fill:none;stroke:#373435;stroke-width:0.17613491;stroke-linecap:butt;stroke-linejoin:miter;stroke-dasharray:none"
       id="path364"
       inkscape:connector-curvature="0" />
    <path
       d="m 292.78793,-35.090097 v -4.796072 h 7.5935 v 4.796072 z"
       style="fill:none;stroke:#373435;stroke-width:0.17613491;stroke-linecap:butt;stroke-linejoin:miter;stroke-dasharray:none"
       id="path366"
       inkscape:connector-curvature="0" />
    <path
       d="M 30.257962,-65.855017 H 327.00844"
       style="fill:none;stroke:#373435;stroke-width:0.17613491;stroke-linecap:butt;stroke-linejoin:miter;stroke-dasharray:none"
       id="path386"
       inkscape:connector-curvature="0" />
    <path
       d="m 30.258173,-73.468613 v 15.227192"
       style="fill:none;stroke:#373435;stroke-width:0.17613491;stroke-linecap:butt;stroke-linejoin:miter;stroke-dasharray:none"
       id="path388"
       inkscape:connector-curvature="0" />
    <path
       d="m 327.00794,-73.468613 v 15.227192"
       style="fill:none;stroke:#373435;stroke-width:0.17613491;stroke-linecap:butt;stroke-linejoin:miter;stroke-dasharray:none"
       id="path390"
       inkscape:connector-curvature="0" />
    <path
       d="m 167.10167,-66.210318 v 0.355301 h -2.00491 c -0.004,-0.08964 0.012,-0.175677 0.0436,-0.25858 0.0516,-0.135988 0.13402,-0.270776 0.24752,-0.402463 0.11337,-0.131687 0.27556,-0.283959 0.48649,-0.456817 0.32791,-0.27007 0.55043,-0.483709 0.66694,-0.641585 0.11696,-0.157842 0.17563,-0.307328 0.17563,-0.448392 0,-0.147197 -0.0528,-0.27127 -0.15865,-0.372784 -0.10578,-0.100742 -0.24391,-0.151497 -0.41396,-0.151497 -0.17965,0 -0.32365,0.05358 -0.43143,0.160661 -0.10791,0.106311 -0.16218,0.254598 -0.16348,0.444127 l -0.38068,-0.03807 c 0.0261,-0.284734 0.12496,-0.501969 0.29544,-0.651456 0.17138,-0.149452 0.40049,-0.224108 0.68886,-0.224108 0.29035,0 0.52105,0.08044 0.69002,0.241909 0.17003,0.161365 0.25456,0.361681 0.25456,0.599993 0,0.121284 -0.0246,0.240287 -0.0746,0.357311 -0.0493,0.117794 -0.13162,0.241097 -0.2467,0.370775 -0.11564,0.128905 -0.30655,0.307328 -0.57304,0.532952 -0.22361,0.187555 -0.36717,0.314448 -0.43062,0.38149 -0.0634,0.06704 -0.11564,0.133978 -0.15739,0.201513 h 1.48667 z m 0.45759,-0.347017 0.3553,-0.02968 c 0.0304,0.167745 0.0881,0.289069 0.17335,0.364395 0.0853,0.07532 0.19464,0.113392 0.32844,0.113392 0.11418,0 0.21421,-0.02615 0.30095,-0.07892 0.0866,-0.05224 0.15707,-0.1221 0.21142,-0.210114 0.0544,-0.08734 0.10005,-0.205849 0.13757,-0.354526 0.0373,-0.148676 0.0555,-0.300243 0.0555,-0.454489 0,-0.01628 0,-0.04166 -0.004,-0.07466 -0.0742,0.118501 -0.17567,0.214908 -0.30377,0.288259 -0.12842,0.07413 -0.26796,0.110614 -0.41723,0.110614 -0.25019,0 -0.46161,-0.09083 -0.63528,-0.272856 -0.17254,-0.181246 -0.25938,-0.421074 -0.25938,-0.718497 0,-0.307364 0.0903,-0.554031 0.27126,-0.741585 0.18048,-0.186746 0.40687,-0.280682 0.67966,-0.280682 0.1959,0 0.37556,0.05277 0.53933,0.159393 0.16294,0.105818 0.28625,0.256571 0.37081,0.45322 0.0845,0.195909 0.12682,0.480185 0.12682,0.851665 0,0.387094 -0.0417,0.695129 -0.12536,0.924311 -0.0841,0.229924 -0.20941,0.403768 -0.37507,0.523893 -0.16578,0.119773 -0.3596,0.179625 -0.58223,0.179625 -0.2368,0 -0.42992,-0.06542 -0.58011,-0.197425 -0.14946,-0.131687 -0.23959,-0.317233 -0.27008,-0.555545 z m 1.51835,-1.33587 c 0,-0.212934 -0.0563,-0.382195 -0.16927,-0.506798 -0.11217,-0.124881 -0.24899,-0.187519 -0.40964,-0.187519 -0.16649,0 -0.31015,0.06704 -0.43144,0.201513 -0.12176,0.134507 -0.18245,0.309338 -0.18245,0.523858 0,0.192349 0.0578,0.349026 0.17286,0.468729 0.11564,0.120579 0.25935,0.180435 0.43062,0.180435 0.17205,0 0.31294,-0.05986 0.42382,-0.180435 0.11057,-0.119805 0.16578,-0.287061 0.16578,-0.499677 z m 0.8002,-0.597208 v -0.355302 h 1.95845 v 0.287555 c -0.19234,0.205038 -0.38427,0.477894 -0.57302,0.818531 -0.18953,0.340286 -0.33549,0.690794 -0.4393,1.050888 -0.0742,0.253011 -0.12176,0.531471 -0.1424,0.833231 h -0.38068 c 0.004,-0.238313 0.0508,-0.526678 0.14039,-0.86439 0.0897,-0.338311 0.21721,-0.664145 0.38428,-0.977889 0.16696,-0.313638 0.34461,-0.578105 0.53295,-0.793119 h -1.48035 z m 2.43276,2.635079 v -2.195253 h 0.33421 v 0.310148 c 0.0686,-0.107123 0.16018,-0.193935 0.27437,-0.258898 0.11417,-0.06543 0.24389,-0.09792 0.38978,-0.09792 0.16219,0 0.29545,0.0338 0.39897,0.100742 0.10352,0.06774 0.17684,0.161366 0.21933,0.282761 0.17482,-0.255797 0.40126,-0.3835 0.68042,-0.3835 0.2185,0 0.38706,0.05986 0.50398,0.180471 0.11777,0.120578 0.17684,0.306024 0.17684,0.55632 v 1.504955 h -0.37229 v -1.381656 c 0,-0.147972 -0.0133,-0.255268 -0.0365,-0.320829 -0.024,-0.06545 -0.0677,-0.117794 -0.13162,-0.157877 -0.0634,-0.04037 -0.1381,-0.05986 -0.22362,-0.05986 -0.15509,0 -0.28346,0.05157 -0.38547,0.153788 -0.10232,0.102993 -0.15309,0.267286 -0.15309,0.492873 v 1.273728 h -0.37228 v -1.4248 c 0,-0.164962 -0.0304,-0.289035 -0.0911,-0.371587 -0.0606,-0.08252 -0.15989,-0.124069 -0.29747,-0.124069 -0.10431,0 -0.20101,0.02735 -0.28983,0.08252 -0.0889,0.05506 -0.15309,0.135282 -0.19316,0.241907 -0.0396,0.105778 -0.0591,0.258862 -0.0591,0.458297 v 1.137739 h -0.37229 z m 3.52333,0 v -2.195253 h 0.33421 v 0.310148 c 0.0686,-0.107123 0.16018,-0.193935 0.27439,-0.258898 0.11417,-0.06543 0.24391,-0.09792 0.38976,-0.09792 0.16219,0 0.29546,0.0338 0.39897,0.100742 0.10352,0.06774 0.17685,0.161366 0.21933,0.282761 0.17486,-0.255797 0.40126,-0.3835 0.68042,-0.3835 0.21851,0 0.38706,0.05986 0.50398,0.180471 0.11777,0.120578 0.17684,0.306024 0.17684,0.55632 v 1.504955 h -0.37229 v -1.381656 c 0,-0.147972 -0.0133,-0.255268 -0.0365,-0.320829 -0.024,-0.06545 -0.0678,-0.117794 -0.13162,-0.157877 -0.0634,-0.04037 -0.1381,-0.05986 -0.22362,-0.05986 -0.15508,0 -0.28346,0.05157 -0.38547,0.153788 -0.10232,0.102993 -0.15307,0.267286 -0.15307,0.492873 v 1.273728 h -0.3723 v -1.4248 c 0,-0.164962 -0.0304,-0.289035 -0.0911,-0.371587 -0.0606,-0.08252 -0.15989,-0.124069 -0.29745,-0.124069 -0.10432,0 -0.20103,0.02735 -0.28985,0.08252 -0.0889,0.05506 -0.15309,0.135282 -0.19313,0.241907 -0.0396,0.105778 -0.0591,0.258862 -0.0591,0.458297 v 1.137739 h -0.37226 z"
       style="fill:#373435;fill-rule:evenodd;stroke-width:0.35248128"
       id="path392"
       inkscape:connector-curvature="0" />
  </g>
</svg>
