<?xml version="1.0" encoding="UTF-8"?>
<!DOCTYPE svg PUBLIC "-//W3C//DTD SVG 1.1//EN" "http://www.w3.org/Graphics/SVG/1.1/DTD/svg11.dtd">
<!-- Creator: CorelDRAW 2019 (64-Bit) -->
<svg xmlns="http://www.w3.org/2000/svg" xml:space="preserve" width="16.5354in" height="11.6929in" version="1.1" style="shape-rendering:geometricPrecision; text-rendering:geometricPrecision; image-rendering:optimizeQuality; fill-rule:evenodd; clip-rule:evenodd"
viewBox="0 0 16535.43 11692.91"
 xmlns:xlink="http://www.w3.org/1999/xlink"
 xmlns:xodm="http://www.corel.com/coreldraw/odm/2003">
 <defs>
  <style type="text/css">
   <![CDATA[
    .str1 {stroke:#ED3237;stroke-width:6.94;stroke-miterlimit:10}
    .str0 {stroke:#444446;stroke-width:6.94;stroke-miterlimit:10}
    .fil0 {fill:none}
   ]]>
  </style>
 </defs>
 <g id="__x037c__xfffd__xfffd__x0020_1">
  <metadata id="CorelCorpID_0Corel-Layer"/>
  <path class="fil0 str0" d="M4681.44 856.61c0,0 132.78,218.27 132.78,218.27 45.17,77.35 128.64,125 218.97,125 0,0 141.63,0 141.63,0 82.5,0 159.8,-39.79 207.12,-106.61 0,0 16.44,-23.22 35.46,-50.07"/>
  <path class="fil0 str0" d="M5304.06 852.87c0,0 131.33,222.01 131.33,222.01 45.76,77.35 130.32,125 221.84,125 0,0 7599.17,0 7599.17,0 91.52,0 176.08,-47.65 221.84,-125 0,0 135.53,-233.46 135.99,-234.23"/>
  <path class="fil0 str0" d="M4603.8 857.36c0,0 0,-314.96 0,-314.96 0,0 78.74,0 78.74,0 0,0 0,314.96 0,314.96 0,0 -78.74,0 -78.74,0z"/>
  <path class="fil0 str0" d="M5228.8 857.36c0,0 0,-314.96 0,-314.96 0,0 78.74,0 78.74,0 0,0 0,314.96 0,314.96 0,0 -78.74,0 -78.74,0z"/>
  <path class="fil0 str0" d="M13603.8 857.36c0,0 0,-314.96 0,-314.96 0,0 78.74,0 78.74,0 0,0 0,314.96 0,314.96 0,0 -78.74,0 -78.74,0z"/>
  <path class="fil0 str0" d="M14228.8 857.36c0,0 0,-314.96 0,-314.96 0,0 78.74,0 78.74,0 0,0 0,314.96 0,314.96 0,0 -78.74,0 -78.74,0z"/>
  <path class="fil0 str0" d="M4747.34 964.86c-11.62,16.6 -89.92,128.42 -89.92,128.42 -55.56,79.34 -151.94,119.46 -247.39,102.95 -95.45,-16.5 -172.76,-86.65 -198.45,-180.05 0,0 -50.52,-183.7 -50.52,-183.7 -41.37,-150.44 -10.15,-311.57 84.43,-435.66 94.57,-124.09 241.65,-196.93 397.67,-196.93 0,0 9625,0 9625,0 156.02,0 303.11,72.83 397.68,196.93 94.57,124.09 125.79,285.22 84.42,435.66 0,0 -50.52,183.7 -50.52,183.7 -25.68,93.39 -103,163.54 -198.44,180.05 -95.44,16.51 -191.83,-23.61 -247.39,-102.95 0,0 -91.35,-130.46 -91.35,-130.46"/>
  <path class="fil0 str0" d="M14240.18 843.77c0,0 -142.33,231.11 -142.33,231.11 -44.66,77.35 -127.19,125 -216.5,125 0,0 -140.03,0 -140.03,0 -59.89,0 -180.09,-78.61 -258.27,-146.85"/>
  <path class="fil0 str0" d="M3241.56 3459.71c0,0 0,-314.96 0,-314.96 0,0 78.74,0 78.74,0 0,0 0,314.96 0,314.96 0,0 -78.74,0 -78.74,0z"/>
  <path class="fil0 str0" d="M3865.71 3427c0,0 0,-314.96 0,-314.96 0,0 78.74,0 78.74,0 0,0 0,314.96 0,314.96 0,0 -78.74,0 -78.74,0z"/>
  <path class="fil0 str0" d="M14242.26 3112.06c0,0 0,314.96 0,314.96 0,0 78.74,0 78.74,0 0,0 0,-314.96 0,-314.96 0,0 -78.74,0 -78.74,0z"/>
  <path class="fil0 str0" d="M14866.41 3144.77c0,0 0,314.96 0,314.96 0,0 78.74,0 78.74,0 0,0 0,-314.96 0,-314.96 0,0 -78.74,0 -78.74,0z"/>
  <path class="fil0 str0" d="M7347.06 1302.24c-127.57,0 -253.09,21.45 -372.53,63.67"/>
  <line class="fil0 str0" x1="6974.53" y1="1365.92" x2="2820.78" y2= "2834.08" />
  <path class="fil0 str0" d="M2820.78 2834.08c-52.23,18.46 -100.75,44.4 -144.37,77.17 -43.62,32.77 -81.27,71.57 -112.01,115.44 -30.74,43.87 -53.83,91.73 -68.68,142.41 -18.97,64.72 -23.91,131.7 -14.63,198.27"/>
  <line class="fil0 str0" x1="2481.09" y1="3367.37" x2="3015.77" y2= "7203.51" />
  <path class="fil0 str0" d="M3015.77 7203.51c72.66,521.28 230.94,1025.44 470.94,1500.05 240.01,474.61 555.83,907.99 939.7,1289.46 383.86,381.48 826.31,701.66 1316.46,952.66 490.15,251 1015.92,426.64 1564.36,522.59 319.54,55.91 643.17,83.98 968.17,83.98"/>
  <polyline class="fil0 str0" points="8275.41,11552.24 9071.13,11552.24 9866.85,11552.24 "/>
  <path class="fil0 str0" d="M9866.85 11552.24c557.82,0 1108.77,-82.25 1639.28,-244.72 530.52,-162.47 1027.53,-401.16 1478.81,-710.2 451.28,-309.04 845.72,-680.81 1173.6,-1106.16 327.87,-425.35 581.12,-893.81 753.49,-1393.84 100.43,-291.33 172.11,-590.11 214.44,-893.82"/>
  <line class="fil0 str0" x1="15126.48" y1="7203.51" x2="15661.17" y2= "3367.37" />
  <path class="fil0 str0" d="M15661.17 3367.37c7.27,-52.13 5.79,-104.69 -4.39,-156.38 -10.18,-51.69 -28.81,-101.25 -55.44,-147.44 -26.63,-46.2 -60.6,-87.9 -101.07,-124.08 -51.69,-46.2 -112.09,-81.81 -178.79,-105.38"/>
  <line class="fil0 str0" x1="15321.47" y1="2834.08" x2="11167.73" y2= "1365.92" />
  <path class="fil0 str0" d="M11167.73 1365.92c-119.44,-42.22 -244.96,-63.67 -372.53,-63.67"/>
  <polyline class="fil0 str0" points="10795.2,1302.24 9071.13,1302.24 7347.06,1302.24 "/>
  <path class="fil0 str0" d="M1876.43 10797.8c0,0 218.27,-132.78 218.27,-132.78 77.35,-45.17 125,-128.64 125,-218.97 0,0 0,-141.62 0,-141.62 0,-82.5 -39.79,-159.81 -106.61,-207.12 0,0 -23.22,-16.44 -50.07,-35.46"/>
  <path class="fil0 str0" d="M1872.68 10175.18c0,0 222.01,-131.33 222.01,-131.33 77.35,-45.76 125,-130.32 125,-221.84 0,0 0,-7599.17 0,-7599.17 0,-91.51 -47.65,-176.07 -125,-221.83 0,0 -233.46,-135.53 -234.23,-135.99"/>
  <path class="fil0 str0" d="M1877.17 10875.44c0,0 -314.96,0 -314.96,0 0,0 0,-78.74 0,-78.74 0,0 314.96,0 314.96,0 0,0 0,78.74 0,78.74z"/>
  <path class="fil0 str0" d="M1877.17 10250.44c0,0 -314.96,0 -314.96,0 0,0 0,-78.74 0,-78.74 0,0 314.96,0 314.96,0 0,0 0,78.74 0,78.74z"/>
  <path class="fil0 str0" d="M1877.17 1875.44c0,0 -314.96,0 -314.96,0 0,0 0,-78.74 0,-78.74 0,0 314.96,0 314.96,0 0,0 0,78.74 0,78.74z"/>
  <path class="fil0 str0" d="M1877.17 1250.44c0,0 -314.96,0 -314.96,0 0,0 0,-78.74 0,-78.74 0,0 314.96,0 314.96,0 0,0 0,78.74 0,78.74z"/>
  <path class="fil0 str0" d="M1984.67 10731.89c16.6,11.62 128.42,89.92 128.42,89.92 79.34,55.56 119.46,151.94 102.95,247.39 -16.5,95.44 -86.65,172.76 -180.05,198.45 0,0 -183.7,50.52 -183.7,50.52 -150.44,41.37 -311.57,10.15 -435.66,-84.42 -124.09,-94.57 -196.93,-241.65 -196.93,-397.68 0,0 0,-9625 0,-9625 0,-156.02 72.83,-303.11 196.93,-397.68 124.09,-94.57 285.22,-125.8 435.66,-84.42 0,0 183.7,50.52 183.7,50.52 93.39,25.69 163.54,103 180.05,198.45 16.51,95.44 -23.61,191.83 -102.95,247.39 0,0 -130.46,91.35 -130.46,91.35"/>
  <path class="fil0 str0" d="M1863.58 1239.06c0,0 231.11,142.34 231.11,142.34 77.35,44.66 125,127.19 125,216.5 0,0 0,140.03 0,140.03 0,59.89 -78.61,180.09 -146.85,258.26"/>
  <g id="_2303035270032">
   <polyline class="fil0 str1" points="13330.07,2788.77 13330.07,2671.7 13285.5,2788.77 13240.93,2671.7 13240.93,2788.77 "/>
   <polyline class="fil0 str1" points="13474.67,2788.77 13430.09,2671.7 13385.52,2788.77 "/>
   <line class="fil0 str1" x1="13402.14" y1="2749.87" x2="13458.04" y2= "2749.87" />
   <line class="fil0 str1" x1="13529.93" y1="2671.7" x2="13529.93" y2= "2788.77" />
   <line class="fil0 str1" x1="13608.11" y1="2671.7" x2="13529.93" y2= "2749.87" />
   <line class="fil0 str1" x1="13557.88" y1="2721.92" x2="13608.11" y2= "2788.77" />
   <polyline class="fil0 str1" points="13747.04,2671.7 13674.52,2671.7 13674.52,2788.77 13747.04,2788.77 "/>
   <line class="fil0 str1" x1="13674.52" y1="2727.58" x2="13719.09" y2= "2727.58" />
   <polyline class="fil0 str1" points="13807.79,2727.58 13858.02,2727.58 13874.65,2721.92 13880.31,2716.26 13885.97,2705.3 13885.97,2693.98 13880.31,2683.02 13874.65,2677.36 13858.02,2671.7 13807.79,2671.7 13807.79,2788.77 "/>
   <line class="fil0 str1" x1="13846.88" y1="2727.58" x2="13885.97" y2= "2788.77" />
   <polyline class="fil0 str1" points="13958.04,2683.02 13952.38,2677.36 13958.04,2671.7 13963.7,2677.36 13963.7,2688.5 13958.04,2699.64 13952.38,2705.3 "/>
   <polyline class="fil0 str1" points="14108.11,2688.5 14096.97,2677.36 14080.17,2671.7 14057.88,2671.7 14041.25,2677.36 14030.11,2688.5 14030.11,2699.64 14035.59,2710.78 14041.25,2716.26 14052.39,2721.92 14085.82,2733.06 14096.97,2738.55 14102.45,2744.2 14108.11,2755.35 14108.11,2772.06 14096.97,2783.2 14080.17,2788.77 14057.88,2788.77 14041.25,2783.2 14030.11,2772.06 "/>
  </g>
  <g id="_2302643808720">
   <polyline class="fil0 str1" points="13329.27,2982.3 13284.69,2865.22 13240.12,2982.3 "/>
   <line class="fil0 str1" x1="13256.74" y1="2943.39" x2="13312.64" y2= "2943.39" />
   <polyline class="fil0 str1" points="13457.05,2882.02 13445.91,2870.88 13429.11,2865.22 13406.82,2865.22 13390.19,2870.88 13379.05,2882.02 13379.05,2893.16 13384.53,2904.3 13390.19,2909.79 13401.33,2915.44 13434.77,2926.59 13445.91,2932.07 13451.39,2937.73 13457.05,2948.87 13457.05,2965.58 13445.91,2976.72 13429.11,2982.3 13406.82,2982.3 13390.19,2976.72 13379.05,2965.58 "/>
   <polyline class="fil0 str1" points="13506.83,2865.22 13551.41,2921.11 13551.41,2982.3 "/>
   <line class="fil0 str1" x1="13595.98" y1="2865.22" x2="13551.41" y2= "2921.11" />
   <polyline class="fil0 str1" points="13651.24,2865.22 13651.24,2982.3 13718.11,2982.3 "/>
   <polyline class="fil0 str1" points="13773.55,2865.22 13773.55,2948.87 13779.21,2965.58 13790.35,2976.72 13807.16,2982.3 13818.12,2982.3 13834.93,2976.72 13846.07,2965.58 13851.73,2948.87 13851.73,2865.22 "/>
   <polyline class="fil0 str1" points="14012.77,2982.3 14012.77,2865.22 13968.2,2982.3 13923.62,2865.22 13923.62,2982.3 "/>
  </g>
 </g>
</svg>
